<svg width="55" height="67" viewBox="0 0 55 67" fill="none" xmlns="http://www.w3.org/2000/svg">
<path d="M54.6 41.9C54.6 41.1 54.4 39.9 52.8 39C50 37.2 49 34.7 48.7 32.9C48.4 31.4 48.9 29.9999 49.3 29.0999C49.7 28.2999 50 27.3999 50.3 26.5999C51.3 22.8999 49.6 18.8999 46.3 17.0999C44.1 15.8999 42.8 13.8 42.6 13.5C37.4 0.899957 28.6 0.899957 27.5 0.999957C26.5 0.899957 17.3 0.699957 12.4 13.5C12.2 13.9 10.9 15.8999 8.79999 17.0999C5.49999 18.8999 3.79999 22.8999 4.79999 26.5999C4.99999 27.3999 5.39999 28.2999 5.79999 29.0999C6.19999 29.9999 6.69999 31.4 6.39999 32.9C6.09999 34.7 5.09999 37.2 2.29999 39C0.799988 40 0.5 41.1 0.5 41.9C0.6 43.8 2.49999 45.8999 6.29999 48.0999C3.79999 49.9999 2.20001 52.9999 2.20001 56.1999V65.9C2.20001 66.5 2.60001 66.9 3.20001 66.9H27.6H52C52.6 66.9 53 66.5 53 65.9V56.1999C53 52.8999 51.4 49.8999 48.9 48.0999C52.5 45.8999 54.5 43.8 54.6 41.9Z" fill="white"/>
<mask id="path-2-inside-1_11_86" fill="white">
<path d="M54.6 41.9C54.6 41.1 54.4 39.9 52.8 39C50 37.2 49 34.7 48.7 32.9C48.4 31.4 48.9 29.9999 49.3 29.0999C49.7 28.2999 50 27.3999 50.3 26.5999C51.3 22.8999 49.6 18.8999 46.3 17.0999C44.1 15.8999 42.8 13.8 42.6 13.5C37.4 0.899957 28.6 0.899957 27.5 0.999957C26.5 0.899957 17.3 0.699957 12.4 13.5C12.2 13.9 10.9 15.8999 8.79999 17.0999C5.49999 18.8999 3.79999 22.8999 4.79999 26.5999C4.99999 27.3999 5.39999 28.2999 5.79999 29.0999C6.19999 29.9999 6.69999 31.4 6.39999 32.9C6.09999 34.7 5.09999 37.2 2.29999 39C0.799988 40 0.5 41.1 0.5 41.9C0.6 43.8 2.49999 45.8999 6.29999 48.0999C3.79999 49.9999 2.20001 52.9999 2.20001 56.1999V65.9C2.20001 66.5 2.60001 66.9 3.20001 66.9H27.6H52C52.6 66.9 53 66.5 53 65.9V56.1999C53 52.8999 51.4 49.8999 48.9 48.0999C52.5 45.8999 54.5 43.8 54.6 41.9ZM4.20001 56.1999C4.20001 52.0999 7.19999 48.5999 11.3 48.0999L15.5 47.5C15.6 50.6 16.4 60.2 23.2 64.9H4.29999V56.1999H4.20001ZM27.5 40.5C22 40.5 17.6 36.0999 17.6 30.5999V19.5999C17.6 18.8999 18 18.2 18.6 17.9C18.9 17.7 19.2 17.6999 19.5 17.6999C19.9 17.6999 20.2 17.8 20.6 18C22.2 19 24 19.4999 26.5 19.5999C27.4 19.5999 28.3 19.6 29.1 19.5C30.1 19.5 31.1 19.4 32 19.4C32.3 19.4 32.5 19.4 32.7 19.5C32.9 19.6 33.2 19.8 33.5 20C34.1 20.5 34.7 20.9999 35.3 21.5999C35.6 21.8999 35.9 22.2 36.3 22.5C37 23.1 37.4 24 37.4 25V30.5C37.4 36.1 33 40.5 27.5 40.5ZM22.2 43V41.1999C23.8 41.9999 25.6 42.5 27.5 42.5C29.4 42.5 31.2 41.9999 32.8 41.1999V43C32.8 45 34.3 46.7 36.3 47L37.7 47.1999C37.7 47.7999 37.7 48.8 37.5 50C36.6 51.6 32.9 53.3 27.6 53.3C22.3 53.3 18.5 51.6 17.7 50C17.6 48.8 17.5 47.7999 17.5 47.1999L18.9 47C20.7 46.7 22.2 45 22.2 43ZM36.9 53.1999C35.9 57.6999 33.4 63 27.5 64.9C21.6 63.1 19.2 57.6999 18.1 53.1999C20.3 54.4999 23.7 55.3 27.5 55.3C31.3 55.3 34.7 54.4999 36.9 53.1999ZM50.9 56.1999V64.9H32C38.8 60.2 39.6 50.6 39.7 47.5L43.9 48.0999C47.8 48.6999 50.9 52.1999 50.9 56.1999ZM52.6 41.8C52.5 43 50.3 45 46.9 46.9C46.1 46.5 45.1 46.1999 44.2 46.0999L36.7 45C35.7 44.9 34.9 44 34.9 43V40C37.7 37.8 39.5 34.3999 39.5 30.5999V25.0999C39.5 23.5999 38.9 22.1999 37.8 21.1999C37.5 20.8999 37.2 20.6 36.9 20.3C36.3 19.7 35.7 19.1 35 18.5C34.6 18.2 34.1 17.7999 33.6 17.6999C33.1 17.4999 32.7 17.5 32.3 17.5C31.3 17.5 30.2 17.4999 29.2 17.5999C28.3 17.5999 27.5 17.6999 26.7 17.6999C24.6 17.6999 23.1 17.3 21.9 16.5C20.7 15.7 19.1 15.6 17.8 16.3C16.5 17 15.7 18.3 15.7 19.8V30.8C15.7 34.6 17.5 37.9999 20.3 40.1999V43.1999C20.3 44.1999 19.5 45.0999 18.5 45.1999L11 46.3C10 46.4 9.09999 46.6999 8.29999 47.0999C4.79999 45.1999 2.60001 43.2 2.60001 42C2.60001 41.9 2.6 41.4 3.5 40.8C6.9 38.6 8.1 35.6 8.5 33.4C8.8 31.8 8.50001 30 7.70001 28.3C7.30001 27.6 7.09999 26.8999 6.89999 26.0999C6.09999 23.2999 7.39999 20.2 9.89999 18.9C12.8 17.4 14.3 14.6 14.4 14.5C14.4 14.5 14.4 14.4 14.5 14.4C19 2.49998 27.3 2.99993 27.7 3.09993C27.8 3.09993 27.8 3.09993 27.9 3.09993C28 3.09993 36.2 2.59998 41.1 14.4V14.5C41.2 14.6 42.7 17.4 45.6 18.9C48.1 20.3 49.4 23.2999 48.6 26.0999C48.4 26.7999 48.1 27.5 47.8 28.3C47 30 46.7 31.7 47 33.4C47.4 35.6 48.6 38.6 52 40.8C52.6 41.2 52.6 41.7 52.6 41.8Z"/>
</mask>
<path d="M54.6 41.9C54.6 41.1 54.4 39.9 52.8 39C50 37.2 49 34.7 48.7 32.9C48.4 31.4 48.9 29.9999 49.3 29.0999C49.7 28.2999 50 27.3999 50.3 26.5999C51.3 22.8999 49.6 18.8999 46.3 17.0999C44.1 15.8999 42.8 13.8 42.6 13.5C37.4 0.899957 28.6 0.899957 27.5 0.999957C26.5 0.899957 17.3 0.699957 12.4 13.5C12.2 13.9 10.9 15.8999 8.79999 17.0999C5.49999 18.8999 3.79999 22.8999 4.79999 26.5999C4.99999 27.3999 5.39999 28.2999 5.79999 29.0999C6.19999 29.9999 6.69999 31.4 6.39999 32.9C6.09999 34.7 5.09999 37.2 2.29999 39C0.799988 40 0.5 41.1 0.5 41.9C0.6 43.8 2.49999 45.8999 6.29999 48.0999C3.79999 49.9999 2.20001 52.9999 2.20001 56.1999V65.9C2.20001 66.5 2.60001 66.9 3.20001 66.9H27.6H52C52.6 66.9 53 66.5 53 65.9V56.1999C53 52.8999 51.4 49.8999 48.9 48.0999C52.5 45.8999 54.5 43.8 54.6 41.9ZM4.20001 56.1999C4.20001 52.0999 7.19999 48.5999 11.3 48.0999L15.5 47.5C15.6 50.6 16.4 60.2 23.2 64.9H4.29999V56.1999H4.20001ZM27.5 40.5C22 40.5 17.6 36.0999 17.6 30.5999V19.5999C17.6 18.8999 18 18.2 18.6 17.9C18.9 17.7 19.2 17.6999 19.5 17.6999C19.9 17.6999 20.2 17.8 20.6 18C22.2 19 24 19.4999 26.5 19.5999C27.4 19.5999 28.3 19.6 29.1 19.5C30.1 19.5 31.1 19.4 32 19.4C32.3 19.4 32.5 19.4 32.7 19.5C32.9 19.6 33.2 19.8 33.5 20C34.1 20.5 34.7 20.9999 35.3 21.5999C35.6 21.8999 35.9 22.2 36.3 22.5C37 23.1 37.4 24 37.4 25V30.5C37.4 36.1 33 40.5 27.5 40.5ZM22.2 43V41.1999C23.8 41.9999 25.6 42.5 27.5 42.5C29.4 42.5 31.2 41.9999 32.8 41.1999V43C32.8 45 34.3 46.7 36.3 47L37.7 47.1999C37.7 47.7999 37.7 48.8 37.5 50C36.6 51.6 32.9 53.3 27.6 53.3C22.3 53.3 18.5 51.6 17.7 50C17.6 48.8 17.5 47.7999 17.5 47.1999L18.9 47C20.7 46.7 22.2 45 22.2 43ZM36.9 53.1999C35.9 57.6999 33.4 63 27.5 64.9C21.6 63.1 19.2 57.6999 18.1 53.1999C20.3 54.4999 23.7 55.3 27.5 55.3C31.3 55.3 34.7 54.4999 36.9 53.1999ZM50.9 56.1999V64.9H32C38.8 60.2 39.6 50.6 39.7 47.5L43.9 48.0999C47.8 48.6999 50.9 52.1999 50.9 56.1999ZM52.6 41.8C52.5 43 50.3 45 46.9 46.9C46.1 46.5 45.1 46.1999 44.2 46.0999L36.7 45C35.7 44.9 34.9 44 34.9 43V40C37.7 37.8 39.5 34.3999 39.5 30.5999V25.0999C39.5 23.5999 38.9 22.1999 37.8 21.1999C37.5 20.8999 37.2 20.6 36.9 20.3C36.3 19.7 35.7 19.1 35 18.5C34.6 18.2 34.1 17.7999 33.6 17.6999C33.1 17.4999 32.7 17.5 32.3 17.5C31.3 17.5 30.2 17.4999 29.2 17.5999C28.3 17.5999 27.5 17.6999 26.7 17.6999C24.6 17.6999 23.1 17.3 21.9 16.5C20.7 15.7 19.1 15.6 17.8 16.3C16.5 17 15.7 18.3 15.7 19.8V30.8C15.7 34.6 17.5 37.9999 20.3 40.1999V43.1999C20.3 44.1999 19.5 45.0999 18.5 45.1999L11 46.3C10 46.4 9.09999 46.6999 8.29999 47.0999C4.79999 45.1999 2.60001 43.2 2.60001 42C2.60001 41.9 2.6 41.4 3.5 40.8C6.9 38.6 8.1 35.6 8.5 33.4C8.8 31.8 8.50001 30 7.70001 28.3C7.30001 27.6 7.09999 26.8999 6.89999 26.0999C6.09999 23.2999 7.39999 20.2 9.89999 18.9C12.8 17.4 14.3 14.6 14.4 14.5C14.4 14.5 14.4 14.4 14.5 14.4C19 2.49998 27.3 2.99993 27.7 3.09993C27.8 3.09993 27.8 3.09993 27.9 3.09993C28 3.09993 36.2 2.59998 41.1 14.4V14.5C41.2 14.6 42.7 17.4 45.6 18.9C48.1 20.3 49.4 23.2999 48.6 26.0999C48.4 26.7999 48.1 27.5 47.8 28.3C47 30 46.7 31.7 47 33.4C47.4 35.6 48.6 38.6 52 40.8C52.6 41.2 52.6 41.7 52.6 41.8Z" fill="black" stroke="white" stroke-width="0.8" mask="url(#path-2-inside-1_11_86)"/>
</svg>
