<svg width="55" height="67" viewBox="0 0 55 67" fill="none" xmlns="http://www.w3.org/2000/svg">
<path d="M0.400024 54.9V65.9C0.400024 66.5 0.800024 66.9 1.40002 66.9H53.1C53.7 66.9 54.1 66.5 54.1 65.9V54.9C54.1 50.5 51.1 46.6 46.8 45.5L43 44.5C44.9 38.8 46 32.7 46.2 26.8C46.2 26.7 46.2 26.6 46.2 26.5V26.4C46.2 26 46.2 25.5 46.2 25.1C46.2 9.99998 39.1 0.900024 27.2 0.900024C18.3 0.900024 12.1 5.89995 9.50003 14.7C9.40003 14.8 9.40002 15 9.40002 15.1C8.60002 18 8.20004 21.3 8.20004 25C8.20004 31.3 9.40003 38.2 11.5 44.4L7.70004 45.4C3.40004 46.6 0.400024 50.5 0.400024 54.9Z" fill="white"/>
<mask id="path-2-inside-1_11_84" fill="white">
<path d="M0.400024 54.9V65.9C0.400024 66.5 0.800024 66.9 1.40002 66.9H53.1C53.7 66.9 54.1 66.5 54.1 65.9V54.9C54.1 50.5 51.1 46.6 46.8 45.5L43 44.5C44.9 38.8 46 32.7 46.2 26.8C46.2 26.7 46.2 26.6 46.2 26.5V26.4C46.2 26 46.2 25.5 46.2 25.1C46.2 9.99998 39.1 0.900024 27.2 0.900024C18.3 0.900024 12.1 5.89995 9.50003 14.7C9.40003 14.8 9.40002 15 9.40002 15.1C8.60002 18 8.20004 21.3 8.20004 25C8.20004 31.3 9.40003 38.2 11.5 44.4L7.70004 45.4C3.40004 46.6 0.400024 50.5 0.400024 54.9ZM37.1 43C35.3 42.5 33.9 41.1 33.5 39.3C34.7 38.2 35.8 36.8 36.8 35.1C38.9 31.7 40.2 27.5 40.5 23.8C43 24.8 44.1 25.8 44.3 26.5C44.1 32.3 43 38.4 41.1 44L37.1 43ZM16.3 19.8H16.4C16.5 19.9 16.7 19.9 16.8 20C17.1 20.1 17.3 20.2 17.6 20.3C17.8 20.4 17.9 20.4 18.1 20.5C18.3 20.6 18.6 20.7 18.8 20.7C19 20.7 19.1 20.8 19.3 20.8C19.5 20.9 19.8 20.9 20 21C20.2 21 20.3 21.1 20.5 21.1C20.7 21.2 21 21.2 21.2 21.2C21.4 21.2 21.5 21.3 21.7 21.3C22 21.3 22.2 21.4 22.5 21.4C22.6 21.4 22.8 21.4 22.9 21.4C23.2 21.4 23.4 21.4 23.7 21.5C23.8 21.5 23.9 21.5 24.1 21.5C24.5 21.5 24.9 21.5 25.3 21.5C25.9 21.5 26.4 21.5 27 21.5C27.1 21.5 27.2 21.5 27.3 21.5C27.8 21.5 28.3 21.5 28.8 21.5C29 21.5 29.1 21.5 29.3 21.5C29.7 21.5 30.2 21.6 30.6 21.6C30.8 21.6 31 21.6 31.2 21.7C31.6 21.7 32 21.8 32.4 21.8C32.6 21.8 32.9 21.9 33.1 21.9C33.4 22 33.8 22 34.1 22.1C34.4 22.1 34.6 22.2 34.9 22.2C35.2 22.3 35.5 22.3 35.8 22.4C36.1 22.5 36.3 22.5 36.6 22.6C36.9 22.7 37.2 22.7 37.5 22.8C37.7 22.9 38 22.9 38.2 23C38.4 23 38.5 23.1 38.7 23.1C38.4 30 33.5 40 27.4 40C21.2 40 16.1 29.4 16.1 22.4C16 21.5 16.1 20.6 16.3 19.8ZM22.7 40.6C24.2 41.5 25.7 42 27.2 42C28.7 42 30.3 41.5 31.7 40.6C32.5 42.7 34.2 44.3 36.4 44.9L36.7 45C33.8 47.3 30.6 48.5 27.2 48.5C23.8 48.5 20.6 47.3 17.7 45L18 44.9C20.2 44.3 22 42.7 22.7 40.6ZM27.3 2.90002C37.7 2.90002 43.9 10.4 44.3 23.6C43.2 22.8 41.8 22.1 39.9 21.5C39.4 21.3 38.8 21.2 38.3 21C34.3 19.9 29.4 19.4 25.2 19.5C24.8 19.5 24.5 19.5 24.1 19.5C21.5 19.4 18.9 18.7 16.2 17.5C14.2 16.6 12.6 15.5 11.7 14.8C14 7.20005 19.5 2.90002 27.3 2.90002ZM10.3 25.1C10.3 22.1 10.6 19.4 11.2 16.9C12.1 17.5 13.2 18.2 14.6 18.9C14.3 20 14.1 21.2 14.1 22.5C14.1 26.5 15.5 31.3 17.8 35.2C18.8 36.9 19.9 38.3 21.1 39.4C20.7 41.2 19.3 42.6 17.5 43.1L13.5 44.1C11.4 37.9 10.3 31.3 10.3 25.1ZM15.4 45.6C18.9 48.8 23 50.5 27.3 50.5C31.6 50.5 35.7 48.8 39.2 45.6L46.4 47.5C49.8 48.4 52.2 51.5 52.2 55V65H43.7V57.1C43.7 56.5 43.3 56.1 42.7 56.1C42.1 56.1 41.7 56.5 41.7 57.1V65H13V57.1C13 56.5 12.6 56.1 12 56.1C11.4 56.1 11 56.5 11 57.1V65H2.50003V55C2.50003 51.5 4.90002 48.4 8.30002 47.5L15.4 45.6Z"/>
</mask>
<path d="M0.400024 54.9V65.9C0.400024 66.5 0.800024 66.9 1.40002 66.9H53.1C53.7 66.9 54.1 66.5 54.1 65.9V54.9C54.1 50.5 51.1 46.6 46.8 45.5L43 44.5C44.9 38.8 46 32.7 46.2 26.8C46.2 26.7 46.2 26.6 46.2 26.5V26.4C46.2 26 46.2 25.5 46.2 25.1C46.2 9.99998 39.1 0.900024 27.2 0.900024C18.3 0.900024 12.1 5.89995 9.50003 14.7C9.40003 14.8 9.40002 15 9.40002 15.1C8.60002 18 8.20004 21.3 8.20004 25C8.20004 31.3 9.40003 38.2 11.5 44.4L7.70004 45.4C3.40004 46.6 0.400024 50.5 0.400024 54.9ZM37.1 43C35.3 42.5 33.9 41.1 33.5 39.3C34.7 38.2 35.8 36.8 36.8 35.1C38.9 31.7 40.2 27.5 40.5 23.8C43 24.8 44.1 25.8 44.3 26.5C44.1 32.3 43 38.4 41.1 44L37.1 43ZM16.3 19.8H16.4C16.5 19.9 16.7 19.9 16.8 20C17.1 20.1 17.3 20.2 17.6 20.3C17.8 20.4 17.9 20.4 18.1 20.5C18.3 20.6 18.6 20.7 18.8 20.7C19 20.7 19.1 20.8 19.3 20.8C19.5 20.9 19.8 20.9 20 21C20.2 21 20.3 21.1 20.5 21.1C20.7 21.2 21 21.2 21.2 21.2C21.4 21.2 21.5 21.3 21.7 21.3C22 21.3 22.2 21.4 22.5 21.4C22.6 21.4 22.8 21.4 22.9 21.4C23.2 21.4 23.4 21.4 23.7 21.5C23.8 21.5 23.9 21.5 24.1 21.5C24.5 21.5 24.9 21.5 25.3 21.5C25.9 21.5 26.4 21.5 27 21.5C27.1 21.5 27.2 21.5 27.3 21.5C27.8 21.5 28.3 21.5 28.8 21.5C29 21.5 29.1 21.5 29.3 21.5C29.7 21.5 30.2 21.6 30.6 21.6C30.8 21.6 31 21.6 31.2 21.7C31.6 21.7 32 21.8 32.4 21.8C32.6 21.8 32.9 21.9 33.1 21.9C33.4 22 33.8 22 34.1 22.1C34.4 22.1 34.6 22.2 34.9 22.2C35.2 22.3 35.5 22.3 35.8 22.4C36.1 22.5 36.3 22.5 36.6 22.6C36.9 22.7 37.2 22.7 37.5 22.8C37.7 22.9 38 22.9 38.2 23C38.4 23 38.5 23.1 38.7 23.1C38.4 30 33.5 40 27.4 40C21.2 40 16.1 29.4 16.1 22.4C16 21.5 16.1 20.6 16.3 19.8ZM22.7 40.6C24.2 41.5 25.7 42 27.2 42C28.7 42 30.3 41.5 31.7 40.6C32.5 42.7 34.2 44.3 36.4 44.9L36.7 45C33.8 47.3 30.6 48.5 27.2 48.5C23.8 48.5 20.6 47.3 17.7 45L18 44.9C20.2 44.3 22 42.7 22.7 40.6ZM27.3 2.90002C37.7 2.90002 43.9 10.4 44.3 23.6C43.2 22.8 41.8 22.1 39.9 21.5C39.4 21.3 38.8 21.2 38.3 21C34.3 19.9 29.4 19.4 25.2 19.5C24.8 19.5 24.5 19.5 24.1 19.5C21.5 19.4 18.9 18.7 16.2 17.5C14.2 16.6 12.6 15.5 11.7 14.8C14 7.20005 19.5 2.90002 27.3 2.90002ZM10.3 25.1C10.3 22.1 10.6 19.4 11.2 16.9C12.1 17.5 13.2 18.2 14.6 18.9C14.3 20 14.1 21.2 14.1 22.5C14.1 26.5 15.5 31.3 17.8 35.2C18.8 36.9 19.9 38.3 21.1 39.4C20.7 41.2 19.3 42.6 17.5 43.1L13.5 44.1C11.4 37.9 10.3 31.3 10.3 25.1ZM15.4 45.6C18.9 48.8 23 50.5 27.3 50.5C31.6 50.5 35.7 48.8 39.2 45.6L46.4 47.5C49.8 48.4 52.2 51.5 52.2 55V65H43.7V57.1C43.7 56.5 43.3 56.1 42.7 56.1C42.1 56.1 41.7 56.5 41.7 57.1V65H13V57.1C13 56.5 12.6 56.1 12 56.1C11.4 56.1 11 56.5 11 57.1V65H2.50003V55C2.50003 51.5 4.90002 48.4 8.30002 47.5L15.4 45.6Z" fill="black" stroke="white" stroke-width="0.8" mask="url(#path-2-inside-1_11_84)"/>
</svg>
