<svg xmlns="http://www.w3.org/2000/svg" fill="none" viewBox="0.69 0.5 59.61 66">
<path d="M1.6 66.5H11H49.9H59.3C59.9 66.5 60.3 66.1 60.3 65.5V61C60.3 50.2 51.3 43 37.5 42.8C37.2 42.8 36.9 42.9 36.7 43.1L30.5 50L24.3 43.1C24.1 42.9 23.8 42.8 23.5 42.8C9.59999 43.1 0.700005 50.2 0.700005 61V65.5C0.600005 66.1 1.1 66.5 1.6 66.5ZM2.6 61C2.6 51.3 10.4 45.2 23 44.8L29.7 52.2C30.1 52.6 30.8 52.6 31.2 52.2L37.9 44.8C50.5 45.2 58.3 51.4 58.3 61V64.5H50.9V54.3C50.9 53.7 50.5 53.3 49.9 53.3C49.3 53.3 48.9 53.7 48.9 54.3V64.5H12V54.3C12 53.7 11.6 53.3 11 53.3C10.4 53.3 9.99999 53.7 9.99999 54.3V64.5H2.6V61Z" fill="black"/>
<path d="M16.8 31.7C19.2 38.1 24.5 43.6 30.4 43.6C36.3 43.6 41.6 38 44 31.7C46 31.4 47.4 30.2 48 28.2C48.4 26.9 48.2 25.8001 47.7 24.8001C47.3 24.1001 46.6 23.6001 46 23.3001C46.6 21.9001 47.1 19.3 47.2 14.5C47.1 10.6 45.8 7.40001 43.3 5.00001C38.4 0.40001 30.8 0.50001 30.6 0.50001C30.3 0.50001 22.7 0.30001 17.8 5.00001C15.3 7.40001 14 10.6 13.9 14.5C14 19.3 14.5 22.0001 15.1 23.3001C14.4 23.7001 13.8 24.2001 13.4 24.8001C12.8 25.7001 12.7 26.9 13.1 28.2C13.4 30.2 14.8 31.4 16.8 31.7ZM30.5 41.6C25.4 41.6 20.6 36.3 18.6 30.4C18.6 30.4 18.6 30.4001 18.6 30.3001C17.9 28.3001 17.5 26.2001 17.5 24.3001C17.5 24.2001 17.5 24.1 17.5 24C18.3 23.1 20.4 20.6 20.4 17.6C20.4 17.4 20.5 17 20.9 16.7C22.2 15.8 25.2 15.8 27.9 16.7C29.6 17.3 31.5 17.3 33.2 16.7C35.8 15.8 38.9 15.8 40.2 16.7C40.6 17 40.7 17.3 40.7 17.6C40.7 20.6 42.8 23.2 43.6 24C43.6 24.1 43.6 24.2001 43.6 24.3001C43.6 26.2001 43.2 28.3001 42.5 30.3001C42.5 30.3001 42.5 30.3 42.5 30.4C40.3 36.3 35.6 41.6 30.5 41.6ZM46.1 27.7C45.9 28.5 45.5 29.1 44.8 29.4C45.2 28 45.4 26.7 45.5 25.4C45.7 25.5 45.9 25.7 46 25.9C46.3 26.3 46.3 26.9 46.1 27.7ZM30.5 2.50001C30.6 2.50001 37.6 2.30003 41.9 6.40003C44 8.40003 45.1 11.1 45.2 14.5C45.1 18.9 44.7 21 44.4 22.1C43.6 21.1 42.6 19.5001 42.6 17.8001C42.6 16.8001 42.1 15.9001 41.2 15.3001C40.2 14.6001 38.8 14.3001 37.1 14.3001C35.6 14.3001 34 14.6 32.4 15.1C31.1 15.6 29.7 15.6 28.4 15.1C25.1 13.9 21.5 14.0001 19.6 15.3001C18.7 15.9001 18.2 16.8001 18.2 17.8001C18.2 19.5001 17.2 21.1 16.4 22.1C16.1 21 15.6 18.9 15.6 14.5C16.1 2.30001 29.9 2.50001 30.5 2.50001ZM14.9 25.9C15 25.7 15.2 25.5 15.4 25.4C15.5 26.7 15.7 28.1 16.1 29.5C15.5 29.2 15 28.6001 14.8 27.8001C14.6 26.9001 14.6 26.3 14.9 25.9Z" fill="black"/>
</svg>