<svg xmlns="http://www.w3.org/2000/svg" fill="none" viewBox="0.8 0.5 55.6 66">
<path d="M1.90005 66.5H10.6H46.7H55.4001C56.0001 66.5 56.4001 66.1 56.4001 65.5V61.3C56.4001 51.5 48.5 44.9 36.1 44.4V42.1999C39 39.8999 41.3 36.5 42.7 32.8C44.8 32.5 46.2001 31.1999 46.8001 29.1999C47.2001 27.8999 47.1 26.6999 46.5 25.6999C46 24.8999 45.4 24.4999 44.7 24.0999C45.4 22.3999 45.8001 19.3 45.9001 14.9C45.8001 10.8 44.4001 7.49994 41.8001 5.09994C36.7001 0.299939 28.9 0.499963 28.6 0.499963C28.3 0.499963 20.4001 0.299939 15.4001 5.09994C12.8001 7.59994 11.4 10.9 11.3 14.9C11.4 19.3 11.8 22.3999 12.5 24.0999C11.7 24.4999 11.1001 24.9999 10.7001 25.5999C10.1001 26.4999 10.0001 27.6999 10.4001 29.0999C11.0001 31.0999 12.4 32.3999 14.5 32.6999C15.9 36.3999 18.3 39.7999 21.1 42.0999V44.3C8.80005 44.9 0.800049 51.3999 0.800049 61.1999V65.4C0.900049 66.1 1.30005 66.5 1.90005 66.5ZM21.8001 46.4L27.1 50.6999L23.7 53.8L20.4001 46.5C20.8001 46.4 21.3001 46.4 21.8001 46.4ZM35.5 46.4C36 46.4 36.4001 46.4 36.9001 46.5L33.6 53.8L30.2 50.6999L35.5 46.4ZM44.9001 28.6999C44.7001 29.5999 44.2 30.2 43.5 30.5C43.9 29.1 44.1 27.5999 44.2 26.1999C44.4 26.3999 44.7001 26.5 44.8001 26.8C45.1001 27.2 45.1001 27.7999 44.9001 28.6999ZM21 3.99996C24.8 2.49996 28.6 2.49996 28.7 2.49996C28.7 2.49996 32.6001 2.39996 36.4001 3.99996C41.3001 5.99996 43.9 9.69996 44 15C43.9 19.6 43.5 21.9 43.1 22.9C42.3 21.9 41.2 20.2 41.2 18.3C41.2 17.3 40.7001 16.3999 39.8001 15.6999C38.8001 14.9999 37.3 14.5999 35.6 14.5999C34.1 14.5999 32.4001 14.9 30.8001 15.5C29.5001 16 28 16 26.6 15.5C23.2 14.3 19.4 14.3999 17.5 15.6999C16.6 16.2999 16.1 17.2 16.1 18.3C16.1 20.1 15.0001 21.8 14.2001 22.9C13.8001 21.8 13.4 19.6 13.3 15C13.5 9.69996 16 5.99996 21 3.99996ZM12.4001 28.6999C12.2001 27.8999 12.2 27.3 12.5 26.8C12.6 26.6 12.9 26.3999 13.1 26.1999C13.2 27.5999 13.4 29.1 13.8 30.5C13.1 30.1 12.6001 29.4999 12.4001 28.6999ZM16.2001 31.5999C16.2001 31.4999 16.2001 31.4999 16.2001 31.5999C15.4001 29.4999 15 27.3 15 25.3C15 25.2 15 25.1 15 25C15.8 24.1 18 21.5 18 18.3C18 18.1 18.1 17.7 18.5 17.4C19.8 16.5 23 16.5 25.7 17.4C27.5 18 29.4 18 31.2 17.4C33.9 16.4 37.1001 16.4 38.4001 17.4C38.9001 17.7 38.9001 18.1 38.9001 18.3C38.9001 21.4 41.1001 24.1 41.9001 25C41.9001 25.1 41.9001 25.2 41.9001 25.3C41.9001 27.3 41.5001 29.4 40.8001 31.5V31.5999C38.6001 37.6999 33.7001 43.1999 28.4001 43.1999C23.1001 43.1999 18.4001 37.5999 16.2001 31.5999ZM28.6 45.1999C30.5 45.1999 32.4 44.5999 34.1 43.5999V44.9L28.6 49.4L23.1 44.9V43.5999C24.9 44.5999 26.7 45.1999 28.6 45.1999ZM2.90005 61.3C2.90005 53.3 8.70005 47.8999 18.3 46.5999L22.5 55.8C22.6 56.1 22.9 56.3 23.2 56.4C23.3 56.4 23.3001 56.4 23.4001 56.4C23.6001 56.4 23.9 56.2999 24.1 56.0999L28.7 51.9L33.3001 56.0999C33.5001 56.2999 33.7 56.4 34 56.4C34.1 56.4 34.1 56.4 34.2 56.4C34.5 56.3 34.8001 56.1 34.9001 55.8L39 46.5999C48.6 47.8999 54.4001 53.3 54.4001 61.3V64.5H47.7V55.0999C47.7 54.4999 47.3 54.0999 46.7 54.0999C46.1 54.0999 45.7 54.4999 45.7 55.0999V64.5H11.6V55.0999C11.6 54.4999 11.2 54.0999 10.6 54.0999C10 54.0999 9.60005 54.4999 9.60005 55.0999V64.5H2.90005V61.3Z" fill="black"/>
<path d="M24.5001 37.4C25.5001 38.5 27.0001 39.1 28.6001 39.1C30.1001 39.1 31.7001 38.4 32.7001 37.4C33.1001 37 33.0001 36.4 32.6001 36C32.2001 35.6 31.6001 35.7 31.2001 36.1C30.7001 36.6 29.8001 37.2 28.6001 37.2C27.4001 37.2 26.4001 36.6 26.0001 36.1C25.6001 35.7 25.0001 35.7 24.6001 36C24.2001 36.4 24.2001 37 24.5001 37.4Z" fill="black"/>
<path d="M27.8 32.5L29.4 32.8C29.5 32.8 29.5 32.8 29.6 32.8C30.1 32.8 30.5 32.5 30.6 32C30.7 31.5 30.3 30.9 29.8 30.8L29.3 30.6999L30.2 27.4C30.3 26.9 30 26.2999 29.5 26.1999C29 26.0999 28.4 26.4 28.3 26.9L27.1 31.1999C27 31.4999 27.1 31.8 27.2 32C27.3 32.2 27.5 32.5 27.8 32.5Z" fill="black"/>
<path d="M23.6 24.2C24.2 24.2 24.6 23.8 24.6 23.2C24.6 22.6 24.2 22.2 23.6 22.2H21.3C20.7 22.2 20.3 22.6 20.3 23.2C20.3 23.8 20.7 24.2 21.3 24.2H23.6Z" fill="black"/>
<path d="M33.7001 24.2H36.0001C36.6001 24.2 37.0001 23.8 37.0001 23.2C37.0001 22.6 36.6001 22.2 36.0001 22.2H33.7001C33.1001 22.2 32.7001 22.6 32.7001 23.2C32.7001 23.8 33.1001 24.2 33.7001 24.2Z" fill="black"/>
</svg>