<svg xmlns="http://www.w3.org/2000/svg" fill="none" viewBox="0.4 0.51 53.2 66.09">
<path d="M35.1 45.5V42.6999C39.7 39.1999 41.7 34.3999 42.5 30.5999C44.1 30.4999 46.3 29.6 46.9 26.4C47.4 23.9 46.3 22.3 45.3 21.4C45.8 20.3 46.2 19 46.5 17.4C47.4 12.9 43.8 10.1999 41.2 9.09993C41.1 6.39993 39.9 4.09993 37.5 2.59993C33.3 -0.10007 26 -0.200021 21.3 2.39998C15.5 5.49998 12.4 4.59993 12.3 4.59993C11.9 4.49993 11.5 4.59998 11.2 4.89998C7.30004 9.49998 9.40002 13.2999 10.4 14.6999C9.60002 17.0999 9.50004 19.0999 9.70004 20.6999C8.50004 21.4999 6.60004 23.3 7.20004 26.5C7.80004 29.6 9.90003 30.4999 11.5 30.6999C12.3 34.4999 14.3 39.3 18.9 42.8V45.5999C8.60002 46.5999 0.400024 55.1 0.400024 65V65.5999C0.400024 66.1999 0.800024 66.5999 1.40002 66.5999H10H44H52.6C53.2 66.5999 53.6 66.1999 53.6 65.5999V65C53.7 55 45.4 46.5 35.1 45.5ZM27.1 49.3L21 45.9V44.0999C22.9 45.1999 25 45.6999 27.1 45.6999C29.2 45.6999 31.3 45.1999 33.2 44.0999V45.9L27.1 49.3ZM33 48.1999L32.7 51.9L29.3 50.3L33 48.1999ZM24.9 50.3L21.5 51.9L21.2 48.1999L24.9 50.3ZM45 26.0999C44.6 27.8999 43.6 28.4999 42.9 28.5999C43.1 26.8999 43.1 25.6 43.1 24.9C43.4 24.6 43.9 23.9999 44.4 23.1999C45 23.9999 45.2 24.9999 45 26.0999ZM12.5 6.59993C13.9 6.79993 17.3 6.89991 22.4 4.19991C26.5 1.99991 33 2 36.6 4.3C38.6 5.6 39.6 7.39991 39.4 9.69991C39.4 10.1999 39.7 10.5999 40.1 10.6999C40.2 10.6999 45.6 12.6 44.7 17C44.2 19.8 43.2 21.5999 42.4 22.5999C41 19.3999 37 12.2999 30.6 12.0999H29.4C25.8 12.0999 22.4 12.7999 19.3 14.0999C15.3 15.7999 12.8 18.2 11.9 21.3C11.6 19.8 11.5 17.4999 12.6 14.6999C12.7 14.2999 12.6 13.8999 12.4 13.6999C12.3 13.5999 9.40003 10.5999 12.5 6.59993ZM9.30002 26.0999C9.00002 24.5999 9.60002 23.5 10.3 22.9C10.6 23.8 10.9 24.4 11.1 24.8C11.1 25.4 11 26.7999 11.3 28.5999C10.5 28.2999 9.60002 27.6999 9.30002 26.0999ZM13.1 24.5999L13.9 21.9C14.6 19.5 16.7 17.5 20.1 16C22.9 14.8 26 14.1999 29.4 14.1999H30.5C36.6 14.2999 40.4 23.0999 41 24.5999C41 25.1999 41.7 36.3999 32.4 42.1999C29.1 44.1999 24.9 44.1999 21.6 42.1999C12.6 36.4999 13.1 25.3999 13.1 24.5999ZM45 64.5V58.3C45 57.7 44.6 57.3 44 57.3C43.4 57.3 43 57.7 43 58.3V64.5H11.1V58.3C11.1 57.7 10.7 57.3 10.1 57.3C9.50004 57.3 9.10004 57.7 9.10004 58.3V64.5H2.50003C2.70003 55.9 10.1 48.4 19.1 47.5L19.6 53.5C19.6 53.8 19.8 54.1 20.1 54.3C20.3 54.4 20.4 54.4 20.6 54.4C20.7 54.4 20.9 54.4 21 54.3L27.1 51.5L33.2 54.3C33.3 54.4 33.5 54.4 33.6 54.4C33.8 54.4 33.9 54.4 34.1 54.3C34.4 54.1 34.6 53.8 34.6 53.5L35.1 47.5C44.1 48.4 51.5 55.9 51.7 64.5H45Z" fill="black"/>
<path d="M22.2001 37.2C21.9001 37.6 22.0001 38.3 22.4001 38.6C22.5001 38.7 24.2 39.9 26.8 39.9C28.1 39.9 29.6 39.6 31.3 38.7C31.8 38.4 32.0001 37.8 31.7001 37.4C31.4001 36.9 30.8001 36.7 30.4001 37C26.5001 39 23.7001 37.2 23.6001 37.1C23.2001 36.6 22.6001 36.7 22.2001 37.2Z" fill="black"/>
<path d="M23.5001 27.1C23.5001 26.5 23.1001 26.1 22.5001 26.1H20.8C20.2 26.1 19.8 26.5 19.8 27.1C19.8 27.7 20.2 28.1 20.8 28.1H22.5001C23.0001 28.1 23.5001 27.6 23.5001 27.1Z" fill="black"/>
<path d="M31.7001 28.1H33.4001C34.0001 28.1 34.4001 27.7 34.4001 27.1C34.4001 26.5 34.0001 26.1 33.4001 26.1H31.7001C31.1001 26.1 30.7001 26.5 30.7001 27.1C30.7001 27.7 31.1001 28.1 31.7001 28.1Z" fill="black"/>
</svg>