<svg xmlns="http://www.w3.org/2000/svg" fill="none" viewBox="0 0.34 53.7 66.06">
    <path
        d="M18.2 41.6C17.9 41.6 17.6 41.6999 17.3 41.6999H17.2C6.6 42.8999 0 49.1 0 57.9V65.4C0 66 0.4 66.4 1 66.4H52.7C53.3 66.4 53.7 66 53.7 65.4V57.9C53.7 49.1 47.2 42.8999 36.6 41.6999H36.5H36.4C36.1 41.6999 35.8 41.6 35.5 41.6C34.7 41.5 34.1 40.8999 34.1 40.1999V39.1999C36.6 36.8999 38.5 33.8 39.6 30.4C41.2 30.1 42.3 28.9 42.8 26.9C43.1 25.6 43 24.4 42.5 23.5C42 22.7 41.4 22.3 40.7 22C43.8 12.3 41.6 5.19999 34.5 1.99999C29.6 -0.200014 23.8 -0.19999 19.7 1.90001C17.4 3.10001 15.8 4.99996 15.2 7.09996C12.9 8.29996 11.4 10.2 10.8 12.4C10.1 15.3 10.9 18.6 13.1 22C11.3 22.8 10.5 24.6 11 26.8C11.5 28.8 12.5 29.8999 14 30.1999C15.1 33.9999 17.1 37.0999 19.6 39.1999V40C19.6 41 19 41.6 18.2 41.6ZM25.9 50.9C23.7 49.8 19.7 47.2999 18.6 43.6999C18.9 43.6999 19.2 43.6 19.4 43.5C20.3 45 22.2 47 25.9 47.5V50.9ZM51.7 58V64.5H43.9V57.5C43.9 56.9 43.5 56.5 42.9 56.5C42.3 56.5 41.9 56.9 41.9 57.5V64.5H11.8V57.5C11.8 56.9 11.4 56.5 10.8 56.5C10.2 56.5 9.8 56.9 9.8 57.5V64.5H2V58C2 50.5 7.5 45.2 16.5 43.9C18.1 50.1 26.1 53.2 26.5 53.4C26.6 53.4 26.7 53.5 26.8 53.5C26.9 53.5 27 53.5 27.1 53.4C27.5 53.3 35.5 50.1 37.1 43.9C46.2 45.2 51.7 50.5 51.7 58ZM34.4 43.4C34.7 43.5 34.9 43.6 35.2 43.6C34.1 47.3 30 49.8 27.9 50.8V47.4C31.6 46.9 33.5 44.9 34.4 43.4ZM40.8 26.5C40.6 27.1 40.5 27.5 40.2 27.8C40.4 26.9 40.5 26 40.5 25.1C40.5 25 40.5 24.8 40.5 24.4C40.6 24.5 40.6 24.6 40.7 24.6C41 25.1 41 25.7 40.8 26.5ZM12.6 13.1C13.1 11.3 14.4 9.80001 16.4 8.90001C16.7 8.80001 16.9 8.49994 16.9 8.19994C17.4 5.89994 19.1 4.60001 20.5 3.90001C24.1 2.00001 29.2 2.09999 33.6 3.99999C40.8 7.19999 40.8 14.1999 39.1 20.1999C37.1 17.7999 35 17.5 32.6 17.3C31.5 17.2 30.4 16.9999 29.1 16.6999C28.3 16.4999 27.5 15.8 26.6 15.1C25.2 14 23.7 12.8 22 12.8C21.6 12.8 21.3 12.8 20.9 13C18 13.8 15.7 16.1 14.1 20C12.6 17.5 12.1 15.1 12.6 13.1ZM12.9 26.5C12.7 25.8 12.7 25 13.2 24.4C13.2 24.8 13.2 25.1 13.2 25.1C13.2 26 13.3 26.9 13.4 27.8C13.2 27.6 13.1 27.1 12.9 26.5ZM15.8 29.1999C15.4 27.7999 15.3 26.4 15.2 25.1C15.2 25 15.2 23.4 15.2 22.4C16.6 18.1 18.6 15.7 21.3 14.9C22.6 14.5 23.9 15.5999 25.3 16.6999C26.3 17.4999 27.4 18.2999 28.5 18.6999C29.9 19.0999 31.2 19.2 32.3 19.3C35 19.6 36.6 19.8 38.4 22.8C38.4 23.4 38.4 24.9999 38.4 25.1999C38.4 31.8999 32.9 40.5 26.8 40.5H26.7C24.7 40.5 22.9 39.7 21.3 38.4L21.2 38.3C18.6 36.1 16.7 32.7999 15.8 29.1999ZM26.8 42.5C28.8 42.5 30.6 41.8 32.2 40.8C32.3 41.3 32.5 41.8 32.8 42.3C32.1 43.5 30.4 45.4 26.9 45.6C23.4 45.3 21.7 43.6 21 42.3C21.3 41.9 21.5 41.4 21.6 41C23.2 41.9 25 42.5 26.8 42.5ZM27.5 55.2C26.9 55.2 26.5 55.6 26.5 56.2V56.8C26.5 57.4 26.9 57.8 27.5 57.8C28.1 57.8 28.5 57.4 28.5 56.8V56.2C28.5 55.6 28 55.2 27.5 55.2ZM27.5 59.9C26.9 59.9 26.5 60.3 26.5 60.9V61.5C26.5 62.1 26.9 62.5 27.5 62.5C28.1 62.5 28.5 62.1 28.5 61.5V60.9C28.5 60.4 28 59.9 27.5 59.9Z"
        fill="black" />
</svg>