<svg xmlns="http://www.w3.org/2000/svg" fill="none" viewBox="0 0.76 58.24 66.04">
<path d="M57 53.5C57 53.4 56.9 53.2 56.8 53.1C54.7 48.7 50.7 45.4 45.8 44.3L36.9 42.1L36.3 39.8C36.5 39.7 36.7 39.5 36.8 39.4C40.5 36.3 42.2 32.7 42.9 29C45 28.7 46.3 27.3 46.4 25.1C46.5 22.7 45.5 21.6999 44.6 21.1999C45.6 18.2999 46.5 13.8 45 9.49998C44.6 8.19998 43.6 7.30001 42.5 6.90001C42.3 6.80001 41.4 6.49998 40.5 6.49998C39.7 4.59998 37.1 0.300033 31 0.800033H27.5C21.4 0.300033 18.8 4.59998 17.9 6.49998C17 6.49998 16.1 6.80001 15.9 6.90001C14.8 7.30001 13.9 8.29998 13.4 9.49998C11.9 13.8 12.8 18.2999 13.8 21.1999C12.9 21.6999 11.9 22.7 12 25.1C12.1 27.3 13.4 28.7 15.5 29C16.2 32.7 17.9 36.3 21.6 39.4C21.8 39.5 22 39.7 22.1 39.8L21.5 42.1L20.1 42.4L12.6 44.1999C7.70001 45.2999 3.70001 48.7 1.60001 53C1.60001 53 1.5 53.0999 1.5 53.1999C1.5 53.1999 1.5 53.2 1.5 53.3C1.5 53.4 1.39999 53.4 1.39999 53.5C0.499994 55.5 0 57.6 0 59.9V65.8C0 66.4 0.4 66.8 1 66.8H11.4H46.8H57.2C57.8 66.8 58.2 66.4 58.2 65.8V59.9C58.4 57.7 57.9 55.5 57 53.5ZM44.4 25.1C44.4 25.8 44.2 26.6 43.2 27C43.3 26.2 43.3 25.4 43.3 24.6C43.4 24.3 43.7 23.9 44 23.3C44.2 23.5 44.5 24 44.4 25.1ZM15.3 10.3C15.6 9.60003 16 9.10001 16.6 8.90001C17.1 8.70001 17.8 8.59993 18.2 8.69993C18.5 8.79993 18.8 8.79993 19 8.69993C19.2 8.59993 19.4 8.39996 19.5 8.09996C19.6 7.89996 21.2 2.49998 27.4 2.99998H31C37.1 2.49998 38.8 7.89996 38.8 8.09996C38.9 8.39996 39.1 8.59993 39.3 8.69993C39.5 8.79993 39.8 8.79993 40.1 8.69993C40.4 8.59993 41.2 8.70001 41.7 8.90001C42.3 9.10001 42.8 9.60003 43 10.3C44.2 13.8 43.6 17.4 42.8 20.1C42.5 17.7 41.4 15.9 39.6 14.6C35.9 12.1 30.3 13.1 29 13.4C27.7 13.1 22.1 12 18.4 14.6C16.6 15.8 15.6 17.7 15.3 20.1C14.7 17.4 14.1 13.8 15.3 10.3ZM14.1 25.1C14 24 14.3 23.4999 14.6 23.1999C14.9 23.7999 15.1 24.3 15.3 24.5C15.3 25.3 15.3 26.1 15.4 26.9C14.3 26.6 14.1 25.8 14.1 25.1ZM17.5 20.5C17.7 18.6 18.5 17.1999 19.8 16.1999C21.3 15.1999 23.2 14.9 25 14.9C27.2 14.9 29 15.4 29 15.4C29.2 15.4 29.3 15.4 29.5 15.4C29.6 15.4 35.3 13.8999 38.7 16.1999C40.1 17.0999 40.8 18.5 41 20.5C41.7 26.6 41.5 32.9 35.5 37.9C31.8 41 26.5 41 22.9 37.9C17 32.9 16.8 26.6 17.5 20.5ZM22.6 44C23 43.9 23.2 43.6 23.3 43.3L23.9 41.1C25.6 41.9 27.4 42.4 29.2 42.4C31 42.4 32.8 42 34.5 41.1L35.1 43.4C35.2 43.8 35.5 44 35.8 44.1L37 44.4C36.8 46.9 33.3 49 29.2 49C25 49 21.5 46.9 21.4 44.4L22.6 44ZM13.1 46.3L19.4 44.8C19.9 48.3 24.1 50.9 29.2 50.9C34.3 50.9 38.5 48.2 39 44.8L45.4 46.3C49.4 47.2 52.6 49.7 54.6 53.1L53.1 53.4C48.9 54.3 46 57.9999 46 62.1999V64.8H12.6V62.1999C12.6 57.8999 9.7 54.3 5.5 53.4L4 53.1C5.9 49.7 9.10001 47.1 13.1 46.3ZM2.10001 59.9C2.10001 58.1 2.40001 56.4 3.10001 54.9L5.10001 55.3C8.30001 56 10.6 58.8999 10.6 62.1999V64.8H2.10001V59.9ZM56.4 64.9H48V62.3C48 59 50.3 56.1 53.5 55.4L55.5 55C56.1 56.6 56.5 58.3 56.5 60V64.9H56.4Z" fill="black"/>
</svg>