<svg xmlns="http://www.w3.org/2000/svg" fill="none" viewBox="0.3 0.59 51 65.91">
<path d="M33.8 44.4H32.6V42.9C37.9 39.4 40.1 34.3 40.9 30.3C42.5 30.2 44.7 29.2999 45.3 26.0999C45.8 23.6999 44.7 21.9999 43.8 21.0999C44.3 19.9999 44.7 18.7999 45 17.1999C45.8 12.7999 42.3 9.99997 39.8 8.99997C39.7 6.29997 38.5 4.09994 36.1 2.59994C32 -5.57899e-05 24.8 -0.100007 20.1 2.39999C14.4 5.49999 11.3 4.49997 11.3 4.49997C10.9 4.39997 10.5 4.50002 10.2 4.80002C6.30001 9.30002 8.39999 13.1 9.39999 14.5C8.59999 16.8 8.50001 18.8 8.70001 20.4C7.50001 21.2 5.60001 22.9999 6.20001 26.0999C6.80001 29.0999 8.89999 30.0999 10.4 30.1999C11.3 34.2999 13.5 39.4 18.9 43V44.4H17.6C6.90001 45.4 0.299988 51.8 0.299988 61.3V65.5C0.299988 66.1 0.699988 66.5 1.29999 66.5H50.3C50.9 66.5 51.3 66.1 51.3 65.5V61.3C51.2 51.9 44.6 45.4 33.8 44.4ZM32.4 51.9L35.8 56.5L27 62.9L31.9 47.5L33.3 49.3L32.3 50.8C32.1 51.1 32.1 51.5 32.4 51.9ZM18.9 50.6999L17.9 49.1999L19.5 47.4L24.4 62.9L15.6 56.5L19 51.9C19.1 51.5 19.1 51.0999 18.9 50.6999ZM25.6 45.0999C27.3 45.0999 29 44.6999 30.5 44.0999V45.4L29.6 48.3C28.7 49.6 27.2 50.4 25.7 50.4H25.6C24.1 50.4 22.6 49.5999 21.7 48.1999L20.8 45.3V44.0999C22.3 44.6999 24 45.0999 25.6 45.0999ZM28.5 51.5999L25.6 60.5L22.8 51.5999C23.7 51.9999 24.6 52.3 25.6 52.3H25.7C26.7 52.3 27.6 52.0999 28.5 51.5999ZM43.3 25.6999C43 27.3999 42 27.9999 41.2 28.1999C41.4 26.5999 41.4 25.2999 41.4 24.5999C41.7 24.2999 42.2 23.8 42.7 23C43.3 23.7 43.5 24.5999 43.3 25.6999ZM11.2 6.49997C12.6 6.69997 15.9 6.79994 20.9 4.09994C25 1.89994 31.4 1.99992 34.9 4.19992C36.9 5.49992 37.8 7.29997 37.7 9.49997C37.7 9.99997 38 10.4 38.4 10.5C38.5 10.5 43.8 12.3999 43 16.6999C42.5 19.4999 41.5 21.1999 40.8 22.1999C39.4 19.0999 35.5 12 29.1 11.9H27.9C24.3 11.9 21 12.6 18 13.8C14 15.5 11.6 17.9 10.7 20.8C10.4 19.3 10.4 17.1 11.4 14.4C11.5 14 11.4 13.6 11.2 13.4C11 13.4 8.20001 10.5 11.2 6.49997ZM8.10001 25.6999C7.80001 24.1999 8.4 23.2 9 22.5C9.3 23.4 9.59999 24 9.79999 24.3C9.79999 24.9 9.7 26.2999 10 28.0999C9.3 27.8999 8.40001 27.2999 8.10001 25.6999ZM11.9 24.3L12.7 21.5999C13.4 19.1999 15.4 17.3 18.9 15.8C21.7 14.6 24.7 14 28 14H29.1C35.1 14.1 38.8 22.7999 39.4 24.1999C39.4 24.8999 40 35.9 31 41.5C27.8 43.5 23.6 43.5 20.4 41.5C11.3 36 11.8 25.1 11.9 24.3ZM2.20001 61.3C2.20001 53 8.10001 47.3 17.6 46.4H17.7L15.9 48.5C15.6 48.8 15.6 49.2999 15.8 49.6999L16.8 51.1999L13.2 56C13 56.2 13 56.4999 13 56.6999C13 56.8999 13.2 57.2 13.4 57.4L23 64.4H2.10001V61.3H2.20001ZM49.2 64.5H28.2L37.8 57.5C38 57.3 38.2 57.1 38.2 56.8C38.2 56.5 38.2 56.2999 38 56.0999L34.4 51.3L35.4 49.8C35.7 49.4 35.6 48.8999 35.3 48.5999L33.6 46.5C43.2 47.4 49.1 53.1 49.1 61.4V64.5H49.2Z" fill="black"/>
<path d="M20.8 36.7C20.5 37.1 20.6 37.8 21 38.1C21.1 38.2 22.7 39.3001 25.3 39.3001C26.6 39.3001 28.1 39 29.8 38.1C30.3 37.8 30.5 37.2001 30.2 36.8001C29.9 36.3001 29.3 36.1 28.9 36.4C25 38.4 22.3 36.6 22.2 36.5C21.8 36.1 21.2 36.2 20.8 36.7Z" fill="black"/>
<path d="M22.1 26.7C22.1 26.1 21.7 25.7 21.1 25.7H19.5C18.9 25.7 18.5 26.1 18.5 26.7C18.5 27.3 18.9 27.7 19.5 27.7H21.1C21.6 27.7 22.1 27.2 22.1 26.7Z" fill="black"/>
<path d="M30.1 27.7H31.7C32.3 27.7 32.7 27.3 32.7 26.7C32.7 26.1 32.3 25.7 31.7 25.7H30.1C29.5 25.7 29.1 26.1 29.1 26.7C29.1 27.3 29.6 27.7 30.1 27.7Z" fill="black"/>
</svg>