<svg xmlns="http://www.w3.org/2000/svg" fill="none" viewBox="0.3 0.68 57.7 66.02">
<path d="M1.39998 66.7H10.4H48H57C57.6 66.7 58 66.3 58 65.7V61.3001C58 51.1001 49.7 44.3 36.9 43.7V41.1C39.6 38.7 41.7 35.2 42.8 31.6C44.5 31.3 45.6 30.2 46.2 28.2C46.5 26.9 46.4 25.8 45.9 24.9C45.4 24 44.5 23.5 43.8 23.2C43.8 22.9 43.8 22.7 43.8 22.5C44.6 21.9 45.1 21 45.2 20C45.3 19.1 45.3 17.1 45.4 15.9C45.4 15.8 45.4 15.8 45.4 15.7C45.4 15.3 45.4 15 45.4 14.9C45.2 9.20005 42.4 4.90005 37.1 2.40005C32.2 0.100049 26.3 0.100049 21.3 2.40005C16 4.90005 13.2 9.20002 13 15C13 15.3 13 15.6 13 15.9C13 17.3 13.1 19.2 13.2 20.1C13.3 21.1 13.8 22 14.6 22.6C14.6 22.8 14.6 23.1001 14.6 23.3001C13.6 23.7001 12.9 24.2 12.5 24.9C12 25.8 11.8 26.9 12.2 28.2C12.7 30.1 13.8 31.3 15.4 31.6C16.5 35.7 18.8 39.0001 21.4 41.3001V43.6C8.59998 44.2 0.299988 51 0.299988 61.2V65.6C0.399988 66.3 0.899979 66.7 1.39998 66.7ZM40.1 64.7H18.6V56.9H40.1V64.7ZM42.1 64.7V55.9C42.1 55.3 41.7 54.9 41.1 54.9H17.6C17 54.9 16.6 55.3 16.6 55.9V64.7H11.6V48C14.5 46.7 18.1 45.9001 22.2 45.8001L28.6 53C29 53.4 29.7 53.4 30.1 53L36.5 45.8001C40.6 45.9001 44.2 46.7 47.1 48V64.8001H42.1V64.7ZM56.1 61.4V64.8001H49.1V49C53.6 51.7 56.1 56 56.1 61.4ZM15.9 21.1C15.5 20.9 15.3 20.5 15.3 20C15.2 19.3 15.2 17.9 15.2 16.6C24.6 12.3 34.1 12.3 43.5 16.6C43.5 18 43.4 19.4 43.4 20C43.4 20.4 43.1 20.8 42.8 21.1C42.4 21.3 42 21.4 41.6 21.2C40.1 20.7 37.6 19.7 34.6 18C31.4 16.2 27.5 16.2 24.3 18C21.9 19.3 19.6 20.4 17.4 21.2C16.7 21.4 16.3 21.3 15.9 21.1ZM44.3 26.1C44.6 26.5 44.6 27.1001 44.4 27.8001C44.2 28.5001 43.9 29.0001 43.6 29.3001C43.8 28.2001 43.9 27.1 43.9 26C43.9 26 43.9 25.8 43.9 25.6C44 25.8 44.2 25.9 44.3 26.1ZM22.2 4.30007C24.4 3.30007 26.8 2.69998 29.2 2.69998C31.6 2.69998 34 3.20007 36.2 4.30007C40.6 6.40007 43 9.80005 43.3 14.4C33.9 10.4 24.4 10.4 15 14.4C15.5 9.80005 17.9 6.40007 22.2 4.30007ZM14.2 27.8001C14 27.1001 14 26.5 14.3 26.1C14.4 25.9 14.6 25.8 14.7 25.7C14.7 25.9 14.7 26.1 14.7 26.1C14.7 27.2 14.8 28.3 15 29.4C14.7 29 14.4 28.6001 14.2 27.8001ZM16.7 26.1C16.7 26 16.7 24.5 16.7 23.4C17.1 23.4 17.5 23.3 17.8 23.2C20.1 22.4 22.5 21.3 25.1 19.9C27.7 18.5 30.8 18.5 33.5 19.9C36 21.2 38.4 22.4 40.7 23.2C41.1 23.3 41.5 23.4 41.8 23.4C41.8 24.5 41.8 26 41.8 26.2C41.8 33.5 35.9 42.7001 29.2 42.8001H29.1C26.9 42.8001 24.9 41.9 23.2 40.5L23.1 40.4C19.3 37.1 16.8 31.3 16.7 26.1ZM29.2 44.7C31.3 44.7 33.3 44.0001 35 42.8001V44.4L29.2 50.8001L23.4 44.4V43C25.4 44 27.3 44.7 29.2 44.7ZM2.39998 61.4C2.39998 56 4.89998 51.7 9.39998 49V64.7H2.39998V61.4Z" fill="black"/>
</svg>