<svg xmlns="http://www.w3.org/2000/svg" fill="none" viewBox="0.2 0.6 56.3 66.1">
<path d="M48.9 46.4L37.1 42.8001C37 42.6001 36.8 42.5 36.7 42.5V40.5C39.6 38.2 41.5 34.6 41.7 30.6C43.7 30.4 45.3 28.7 45.3 26.6C45.3 24.9 44.3 23.5 42.8 22.9C44.3 21 46.1 17.2001 44.9 10.8001C43 0.200064 29.3 0.599991 28.3 0.599991C27.3 0.599991 13.7 0.200064 11.7 10.8001C10.5 17.2001 12.4 21 13.9 22.9C12.4 23.5 11.4 24.9 11.4 26.6C11.4 28.7 13 30.4 15 30.6C15.2 34.6 17 38.1 20 40.5V42.7L7.79999 46.5C3.29999 47.8 0.200012 51.9 0.200012 56.5V65.7C0.200012 66.3 0.600012 66.7 1.20001 66.7H55.5C56.1 66.7 56.5 66.3 56.5 65.7V56.5C56.4 51.7 53.3 47.6 48.9 46.4ZM41.7 28.6V24.6C42.6 24.8 43.3 25.6 43.3 26.6C43.3 27.6 42.6 28.4 41.7 28.6ZM13.7 11.1C14.4 7.29999 17 4.70004 21.4 3.40004C24 2.60004 26.4 2.50002 27.6 2.50002C28 2.50002 28.2 2.50002 28.2 2.50002H28.3C28.4 2.50002 41.2 1.80002 42.9 11C43.8 16.1 42.7 19.2 41.6 20.9C41.3 18.4 40.4 14.9 37.5 14.7C34.3 14.5 29.7 16.1 28.3 16.6C27 16.1 22.4 14.6 19.1 14.7C16.1 14.8 15.2 18.3 15 20.9C13.9 19.3 12.8 16.2 13.7 11.1ZM13.4 26.6C13.4 25.6 14.1 24.8 15 24.6V28.6C14 28.4 13.4 27.6 13.4 26.6ZM17 30.1V29.7V23.6V23C17 20.7 17.5 17.1 19.3 17C22.6 16.8 28 18.8 28 18.9C28.2 19 28.5 19 28.7 18.9C28.8 18.9 34.1 16.9 37.4 17C39.1 17.1 39.7 20.5001 39.7 22.8001C39.7 22.9001 39.6 23 39.6 23.1V23.7V29.8001V30.2C39.6 36.5 34.5 41.5 28.3 41.5C22.1 41.4 17 36.3 17 30.1ZM28.3 43.4C30.6 43.4 32.8 42.8001 34.7 41.8001V43.3001L27.8 48.4L21.9 42.9V41.8001C23.8 42.8001 26 43.4 28.3 43.4ZM2.20001 56.4C2.20001 52.7 4.69999 49.4001 8.29999 48.3001L20.7 44.5L26.2 49.7L24.6 50.9C24.3 51.1 24.2 51.4 24.2 51.7V64.6H2.20001V56.4ZM54.4 64.6H26.2V52.2L36.3 44.6L48.3 48.3001C51.9 49.3001 54.4 52.6001 54.4 56.3001V64.6Z" fill="black"/>
<path d="M30.3 53.5H29.5C28.9 53.5 28.5 53.9 28.5 54.5C28.5 55.1 28.9 55.5 29.5 55.5H30.3C30.9 55.5 31.3 55.1 31.3 54.5C31.3 53.9 30.9 53.5 30.3 53.5Z" fill="black"/>
<path d="M30.3 56.7H29.5C28.9 56.7 28.5 57.1 28.5 57.7C28.5 58.3 28.9 58.7 29.5 58.7H30.3C30.9 58.7 31.3 58.3 31.3 57.7C31.3 57.1 30.9 56.7 30.3 56.7Z" fill="black"/>
<path d="M30.3 60H29.5C28.9 60 28.5 60.4 28.5 61C28.5 61.6 28.9 62 29.5 62H30.3C30.9 62 31.3 61.6 31.3 61C31.3 60.4 30.9 60 30.3 60Z" fill="black"/>
</svg>