<svg xmlns="http://www.w3.org/2000/svg" fill="none" viewBox="0.7 0.4 46.7 55.8">
<path d="M47.4 19.1H11.3V23.6H47.4V19.1Z" fill="#1F1613"/>
<path d="M47.4 35.4H11.3V39.9H47.4V35.4Z" fill="#1F1613"/>
<path d="M43.7 51.7H15.1V56.2H43.7V51.7Z" fill="#1F1613"/>
<path d="M46.2 23.5H12.7V35.3H46.2V23.5Z" fill="#CEA74D"/>
<path d="M46.2 39.9H12.7V51.7H46.2V39.9Z" fill="#CEA74D"/>
<path d="M36.8 19.1H0.699951V23.6H36.8V19.1Z" fill="#4E382D"/>
<path d="M36.8 35.4H0.699951V39.9H36.8V35.4Z" fill="#4E382D"/>
<path d="M33 51.7H4.40002V56.2H33V51.7Z" fill="#4E382D"/>
<path d="M35.5 23.5H2V35.3H35.5V23.5Z" fill="#FDCC5F"/>
<path d="M33 25.4H4.40002V33.4H33V25.4Z" fill="white"/>
<path d="M25 27.5H12.5V29.6H25V27.5Z" fill="#4E382D"/>
<path d="M35.5 39.9H2V51.7H35.5V39.9Z" fill="#FDCC5F"/>
<path d="M33 41.8H4.40002V49.8H33V41.8Z" fill="white"/>
<path d="M33 41.8H4.40002V49.8H33V41.8Z" fill="white"/>
<path d="M25 43.8H12.5V45.9H25V43.8Z" fill="#4E382D"/>
<path d="M36.4 17.8V6H35.5H34.6V17.8C32.5 17.9 30.8 18.4 30.6 19.1H35.5H40.4C40.2 18.4 38.5 17.9 36.4 17.8Z" fill="#0B344F"/>
<path d="M41 0.400024H37.1H33.2L31.6 11.6H37.1H42.7L41 0.400024Z" fill="#F8AC2F"/>
<path d="M37.2 0.400024H33.3H29.4L27.7 11.6H33.3H38.8L37.2 0.400024Z" fill="#FEC905"/>
</svg>