<svg xmlns="http://www.w3.org/2000/svg" fill="none" viewBox="0.1 0.3 86.4 82">
<path d="M82.6001 76.5H14.9V82.3H82.6001V76.5Z" fill="#1F1613"/>
<path d="M85.1001 40.4H12.4V55.6H85.1001V40.4Z" fill="#CEA74D"/>
<path d="M85.1001 61.3H12.4V76.5H85.1001V61.3Z" fill="#CEA74D"/>
<path d="M63 76.5H4V82.3H63V76.5Z" fill="#4E382D"/>
<path d="M82.6001 55.6H14.9V61.4H82.6001V55.6Z" fill="#1F1613"/>
<path d="M63 55.6H4V61.4H63V55.6Z" fill="#4E382D"/>
<path d="M82.6001 34.5H14.9V40.3H82.6001V34.5Z" fill="#1F1613"/>
<path d="M63 34.5H4V40.3H63V34.5Z" fill="#4E382D"/>
<path d="M65.4 40.4H1.40002V55.6H65.4V40.4Z" fill="#FDCC5F"/>
<path d="M63 42.9H4V53.2H63V42.9Z" fill="white"/>
<path d="M65.4 61.3H1.40002V76.5H65.4V61.3Z" fill="#FDCC5F"/>
<path d="M63 63.8H4V74.1H63V63.8Z" fill="white"/>
<path d="M63 63.8H4V74.1H63V63.8Z" fill="white"/>
<path d="M86.5 13.7H11.1V19.5H86.5V13.7Z" fill="#1F1613"/>
<path d="M85.1001 19.5H12.4V34.7H85.1001V19.5Z" fill="#CEA74D"/>
<path d="M66.8 13.7H0.0999756V19.5H66.8V13.7Z" fill="#4E382D"/>
<path d="M65.4 19.5H1.40002V34.7H65.4V19.5Z" fill="#FDCC5F"/>
<path d="M63 21.9H4V32.2H63V21.9Z" fill="white"/>
<path d="M63 21.9H4V32.2H63V21.9Z" fill="white"/>
<path d="M38.5 45H28.5V47.7H38.5V45Z" fill="#4E382D"/>
<path d="M38.5 66.3H28.5V69H38.5V66.3Z" fill="#4E382D"/>
<path d="M38.5 23.7H28.5V26.4H38.5V23.7Z" fill="#4E382D"/>
<path d="M77.7 8.40002H45.5V11.5H77.7V8.40002Z" fill="#2A334F"/>
<path d="M77.7 8.80005H71.5V11.1H77.7V8.80005Z" fill="#DCDCDC"/>
<path d="M70.6001 8.40002H43V11.5H70.6001V8.40002Z" fill="#475677"/>
<path d="M74.1001 6.09998H43.4V8.40002H74.1001V6.09998Z" fill="#9D271F"/>
<path d="M74.2 6.5H67.1V8H74.2V6.5Z" fill="#DCDCDC"/>
<path d="M66.1 6.09998H40.9V8.40002H66.1V6.09998Z" fill="#E4372E"/>
<path d="M78.3999 11.5H43.4V13.8H78.3999V11.5Z" fill="#EC6151"/>
<path d="M78.5 11.8H69.5V13.3H78.5V11.8Z" fill="#DCDCDC"/>
<path d="M68.5 11.5H40.9V13.8H68.5V11.5Z" fill="#EE8F33"/>
<path d="M16 8.80005C16 6.10005 13.8 3.90002 11.1 3.90002C8.39998 3.90002 6.19995 6.10005 6.19995 8.80005C6.19995 11.5 8.39998 13.7 11.1 13.7C13.9 13.6 16 11.4 16 8.80005Z" fill="#AE3228"/>
<path d="M6.30005 3.09998L6.09998 2.90002C6.69998 2.50002 7.00005 1.99998 7.30005 1.59998C7.80005 0.999976 8.19998 0.400024 9.09998 0.400024H11.8V0.699951H9.09998C8.29998 0.699951 8 1.20005 7.5 1.80005C7.3 2.20005 6.90005 2.69998 6.30005 3.09998Z" fill="#020203"/>
<path d="M14.5 3.09998C13.9 2.59998 13.6 2.09998 13.3 1.59998C12.9 0.999976 12.6 0.599976 11.9 0.599976H9.19995V0.300049H11.9C12.8 0.300049 13.2 0.800024 13.6 1.40002C13.9 1.80002 14.2 2.30005 14.8 2.80005L14.5 3.09998Z" fill="#020203"/>
<path d="M7.09998 13.7L7.90002 12.1L6.69995 11.8V13.7H7.09998Z" fill="#020203"/>
<path d="M14.3 13.7L14.4 11.8H14.7V13.7H14.3Z" fill="#020203"/>
<path d="M11.2 12.5C9.09995 12.5 7.40002 10.8 7.40002 8.69995C7.40002 6.59995 9.09995 4.90002 11.2 4.90002C13.3 4.90002 15 6.59995 15 8.69995C14.9 10.8 13.3 12.5 11.2 12.5Z" fill="#E9DAAF"/>
<path d="M11.4 5.69995C11.4 5.79995 11.3 5.80005 11.3 5.80005H11C10.9 5.80005 10.9 5.69995 10.9 5.69995V5.40002C10.9 5.30002 11 5.30005 11 5.30005H11.3C11.4 5.30005 11.4 5.40002 11.4 5.40002V5.69995Z" fill="#E94D40"/>
<path d="M8.40002 9C8.40002 9.1 8.30005 9.09998 8.30005 9.09998H8C7.9 9.09998 7.90002 9 7.90002 9V8.69995C7.90002 8.59995 8 8.59998 8 8.59998H8.30005C8.40005 8.59998 8.40002 8.69995 8.40002 8.69995V9Z" fill="#E94D40"/>
<path d="M14.5 9C14.5 9.1 14.4 9.09998 14.4 9.09998H14.1C14 9.09998 14 9 14 9V8.69995C14 8.59995 14.1 8.59998 14.1 8.59998H14.4C14.5 8.59998 14.5 8.69995 14.5 8.69995V9Z" fill="#E94D40"/>
<path d="M11.4 12.1C11.4 12.2 11.3 12.2 11.3 12.2H11C10.9 12.2 10.9 12.1 10.9 12.1V11.8C10.9 11.7 11 11.7 11 11.7H11.3C11.4 11.7 11.4 11.8 11.4 11.8V12.1Z" fill="#E94D40"/>
<path d="M12.7 6.59999C12.6 6.49999 12.5 6.59999 12.5 6.59999L11.3 8.30006H11.2C11.1 8.30006 10.9 8.40001 10.9 8.50001H9.90002C9.80002 8.50001 9.69995 8.59996 9.69995 8.69996C9.69995 8.79996 9.80002 8.90004 9.90002 8.90004H10.9C11 9.00004 11.1 9.00001 11.2 9.00001C11.4 9.00001 11.6 8.79999 11.6 8.59999V8.50001L12.8 6.69996C12.8 6.79996 12.7 6.69999 12.7 6.59999Z" fill="#231F20"/>
<path d="M6.90002 13.7L7.69995 12.1L6.5 11.8V13.7H6.90002Z" fill="#231F20"/>
<path d="M14.1 13.7L13.6 12.5C14.1 12.2 14.5 11.8 14.5 11.8V13.7H14.1Z" fill="#231F20"/>
<path d="M15.1 8.80005C15.1 6.10005 12.9 3.90002 10.2 3.90002C7.49995 3.90002 5.30005 6.10005 5.30005 8.80005C5.30005 11.5 7.49995 13.7 10.2 13.7C12.9 13.6 15.1 11.4 15.1 8.80005Z" fill="#E94D40"/>
<path d="M10.2 12.5C8.09995 12.5 6.40002 10.8 6.40002 8.69995C6.40002 6.59995 8.09995 4.90002 10.2 4.90002C12.3 4.90002 14 6.59995 14 8.69995C14 10.8 12.3 12.5 10.2 12.5Z" fill="#E9DAAF"/>
<path d="M6.09998 3.09998L5.90002 2.90002C6.50002 2.50002 6.79998 1.99998 7.09998 1.59998C7.59998 0.999976 8.00002 0.400024 8.90002 0.400024H11.6V0.699951H8.90002C8.10002 0.699951 7.80005 1.20005 7.30005 1.80005C7.10005 2.20005 6.69998 2.69998 6.09998 3.09998Z" fill="#231F20"/>
<path d="M14.3 3.09998C13.7 2.59998 13.4 2.09998 13.1 1.59998C12.7 0.999976 12.4 0.599976 11.7 0.599976H9V0.300049H11.7C12.6 0.300049 13 0.800024 13.4 1.40002C13.7 1.80002 14 2.30005 14.6 2.80005L14.3 3.09998Z" fill="#231F20"/>
<path d="M6.5 3.19995C6.5 2.89995 6.3 2.69995 6 2.69995C5.7 2.69995 5.5 2.89995 5.5 3.19995C5.5 3.49995 5.7 3.69995 6 3.69995C6.3 3.59995 6.5 3.39995 6.5 3.19995Z" fill="#EA9430"/>
<path d="M8.5 3.6C8.1 2.8 7.10005 2.50005 6.30005 2.90005L5.80005 3.1C5.00005 3.5 4.69997 4.49997 5.09997 5.19997L8.5 3.6Z" fill="#FDC20B"/>
<path d="M8.5 3.59996C8.6 3.79996 7.8 4.29993 7 4.69993C6.1 5.19993 5.29995 5.50003 5.19995 5.30003C5.09995 5.10003 5.69998 4.49996 6.59998 4.09996C7.49998 3.59996 8.4 3.39996 8.5 3.59996Z" fill="#EA9430"/>
<path d="M13.9 3.19995C13.9 2.89995 14.1 2.69995 14.4 2.69995C14.7 2.69995 14.9 2.89995 14.9 3.19995C14.9 3.49995 14.7 3.69995 14.4 3.69995C14.1 3.59995 13.9 3.39995 13.9 3.19995Z" fill="#EA9430"/>
<path d="M11.9 3.6C12.3 2.8 13.3 2.50005 14.1 2.90005L14.6 3.1C15.4 3.5 15.7 4.49997 15.3 5.19997L11.9 3.6Z" fill="#FDC20B"/>
<path d="M11.9 3.59996C11.8 3.79996 12.6 4.29993 13.4 4.69993C14.3 5.19993 15.0999 5.50003 15.1999 5.30003C15.2999 5.10003 14.7 4.49996 13.8 4.09996C13 3.59996 12 3.39996 11.9 3.59996Z" fill="#EA9430"/>
<path d="M10.5 5.69995C10.5 5.79995 10.4 5.80005 10.4 5.80005H10.1C9.99998 5.80005 10 5.69995 10 5.69995V5.40002C10 5.30002 10.1 5.30005 10.1 5.30005H10.4C10.5 5.30005 10.5 5.40002 10.5 5.40002V5.69995Z" fill="#E94D40"/>
<path d="M7.5 9C7.5 9.1 7.40002 9.09998 7.40002 9.09998H7.09998C6.99998 9.09998 7 9 7 9V8.69995C7 8.59995 7.09998 8.59998 7.09998 8.59998H7.40002C7.50002 8.59998 7.5 8.69995 7.5 8.69995V9Z" fill="#E94D40"/>
<path d="M13.6 9C13.6 9.1 13.5 9.09998 13.5 9.09998H13.2C13.1 9.09998 13.1 9 13.1 9V8.69995C13.1 8.59995 13.2 8.59998 13.2 8.59998H13.5C13.6 8.59998 13.6 8.69995 13.6 8.69995V9Z" fill="#E94D40"/>
<path d="M10.5 12.1C10.5 12.2 10.4 12.2 10.4 12.2H10.1C9.99998 12.2 10 12.1 10 12.1V11.8C10 11.7 10.1 11.7 10.1 11.7H10.4C10.5 11.7 10.5 11.8 10.5 11.8V12.1Z" fill="#E94D40"/>
<path d="M11.7 6.59999C11.6 6.49999 11.5 6.59999 11.5 6.59999L10.3 8.30006H10.2C10.1 8.30006 9.90002 8.40001 9.90002 8.50001H8.90002C8.80002 8.50001 8.69995 8.59996 8.69995 8.69996C8.69995 8.79996 8.80002 8.90004 8.90002 8.90004H9.90002C10 9.00004 10.1 9.00001 10.2 9.00001C10.4 9.00001 10.6 8.79999 10.6 8.59999V8.50001L11.8 6.69996C11.8 6.79996 11.8 6.69999 11.7 6.59999Z" fill="#231F20"/>
</svg>