<svg xmlns="http://www.w3.org/2000/svg" fill="none" viewBox="0.4 0.5 113.3 53.3">
<path d="M8.40002 49.3H3.5V53.8H8.40002V49.3Z" fill="#210E0A"/>
<path d="M6.59998 49.3H1.69995V53.8H6.59998V49.3Z" fill="#44160E"/>
<path d="M22.8 49.3H17.9V53.8H22.8V49.3Z" fill="#160906"/>
<path d="M21 49.3H16.1V53.8H21V49.3Z" fill="#37140D"/>
<path d="M113.7 49.3H108.8V53.8H113.7V49.3Z" fill="#160906"/>
<path d="M111.9 49.3H107V53.8H111.9V49.3Z" fill="#37140D"/>
<path d="M101.7 49.3H96.8V53.8H101.7V49.3Z" fill="#210E0A"/>
<path d="M99.9 49.3H95V53.8H99.9V49.3Z" fill="#44160E"/>
<path d="M73.6 29.1C73.6 31.6 71.6 33.7 69 33.7L20.7 36.9C18.2 36.9 16.1 34.9 16.1 32.3L24.4 5.09998C24.4 2.59998 26.4 0.5 29 0.5H79.7C82.2 0.5 69 2.49998 69 5.09998L73.6 29.1Z" fill="#2685B1"/>
<path d="M19.4 17.1H7.80005V50.2H19.4V17.1Z" fill="#299DD1"/>
<path d="M94.6 28.8H1.69995V50.3H94.6V28.8Z" fill="#33AAE2"/>
<path d="M113.6 24.2C113.6 26.7 111.6 28.8 109 28.8H73.5C71 28.8 68.9 26.8 68.9 24.2V5.09998C68.9 2.59998 70.9 0.5 73.5 0.5H109C111.5 0.5 113.6 2.49998 113.6 5.09998V24.2Z" fill="#2685B1"/>
<path d="M11.6 28.8H1V50.3H11.6V28.8Z" fill="#2685B1"/>
<path d="M94.6 28.8H1.40002V31.9H94.6V28.8Z" fill="#2685B1"/>
<path d="M64.1 24.2C64.1 26.7 62.1 28.8 59.5 28.8H24C21.5 28.8 19.4 26.8 19.4 24.2V5.09998C19.4 2.59998 21.4 0.5 24 0.5H59.5C62 0.5 64.1 2.49998 64.1 5.09998V24.2Z" fill="#53BEEE"/>
<path d="M61.1 22.9C61.1 25.1 59.3 26.9 57.1 26.9H26.3C24.1 26.9 22.3 25.1 22.3 22.9V6.40002C22.3 4.20002 24.1 2.40002 26.3 2.40002H57.1C59.3 2.40002 61.1 4.20002 61.1 6.40002V22.9Z" fill="#62C7F2"/>
<path d="M108.7 24.2C108.7 26.7 106.7 28.8 104.1 28.8H68.6C66.1 28.8 64 26.8 64 24.2V5.09998C64 2.59998 66 0.5 68.6 0.5H104.1C106.6 0.5 108.7 2.49998 108.7 5.09998V24.2Z" fill="#53BEEE"/>
<path d="M105.7 22.9C105.7 25.1 103.9 26.9 101.7 26.9H71C68.8 26.9 67 25.1 67 22.9V6.40002C67 4.20002 68.8 2.40002 71 2.40002H101.8C104 2.40002 105.8 4.20002 105.8 6.40002V22.9H105.7Z" fill="#62C7F2"/>
<path d="M102 17.1H94.6V50.2H102V17.1Z" fill="#76CCF0"/>
<path d="M113.6 17.1H102V50.2H113.6V17.1Z" fill="#299DD1"/>
<path d="M7.80005 17.1H0.400024V50.2H7.80005V17.1Z" fill="#76CCF0"/>
</svg>