<svg xmlns="http://www.w3.org/2000/svg" fill="none" viewBox="0.4 0.2 58.5 64.1">
<path d="M22.1 28.9H8.80005V54.2H22.1V28.9Z" fill="#299DD1"/>
<path d="M22.1 28.9H8.80005V35H22.1V28.9Z" fill="#2A95C7"/>
<path d="M58.1 43.4H22L25.6 0.199951H54.5L58.1 43.4Z" fill="#2685B1"/>
<path d="M22 54.2V43.4H58.1V54.2H22Z" fill="#46A9A6"/>
<path d="M3.5 50.3L2.5 64.3H4.30005L9.80005 50.3H3.5Z" fill="#21120B"/>
<path d="M2 50.3L0.900024 64.3H2.69995L8.30005 50.3H2Z" fill="#421F10"/>
<path d="M17.3 50.3L16.2 64.3H18L23.6 50.3H17.3Z" fill="#100906"/>
<path d="M15.7 50.3L14.7 64.3H16.4L22 50.3H15.7Z" fill="#31190F"/>
<path d="M44.9 50.3L45.9 64.3H44.1L38.6 50.3H44.9Z" fill="#21120B"/>
<path d="M43.3 50.3L44.3 64.3H42.6L37 50.3H43.3Z" fill="#421F10"/>
<path d="M57.9 50.3L58.9 64.3H57.2L51.6 50.3H57.9Z" fill="#100906"/>
<path d="M56.6 50.3L57.7 64.3H55.9L50.3 50.3H56.6Z" fill="#31190F"/>
<path d="M52.7 43.4H16.7L20.3 0.199951H51.5L52.7 43.4Z" fill="#53BEEE"/>
<path d="M24.4 3.09998H51.5V0.199951H20.3L16.7 43.4H21.1L24.4 3.09998Z" fill="#62C7F2"/>
<path d="M58.2 28.9H44.9V54.2H58.2V28.9Z" fill="#299DD1"/>
<path d="M58.2 28.9H44.9V35H58.2V28.9Z" fill="#2A95C7"/>
<path d="M0.400024 54.2V43.4H36.5V54.2H0.400024Z" fill="#33AAE2"/>
<path d="M11.4 45.8H36.5V43.4H0.400024V54.2H11.4V45.8Z" fill="#2685B1"/>
<path d="M44.9 28.9H36.5V54.2H44.9V28.9Z" fill="#76CCF0"/>
<path d="M8.80005 28.9H0.400024V54.2H8.80005V28.9Z" fill="#76CCF0"/>
</svg>