<svg xmlns="http://www.w3.org/2000/svg" fill="none" viewBox="0 0.1 70.1 60.2">
<path d="M56.2 14.5H5.19995V17H56.2V14.5Z" fill="#23130C"/>
<path d="M56.2 28.9H5.19995V31.4H56.2V28.9Z" fill="#23130C"/>
<path d="M7.69995 15.7H2.5V31.4H7.69995V15.7Z" fill="#402415"/>
<path d="M56.2 15.7H51V31.4H56.2V15.7Z" fill="#402415"/>
<path d="M56.2 43.3H5.19995V45.8H56.2V43.3Z" fill="#23130C"/>
<path d="M56.2 57.8H5.19995V60.3H56.2V57.8Z" fill="#23130C"/>
<path d="M7.69995 44.5H2.5V60.2H7.69995V44.5Z" fill="#402415"/>
<path d="M56.2 44.5H51V60.2H56.2V44.5Z" fill="#402415"/>
<path d="M48.5 44.7H7.69995V58H48.5V44.7Z" fill="#2E1B11"/>
<path d="M70.1 14.5H19.1V17H70.1V14.5Z" fill="#23130C"/>
<path d="M21.6 1.30005H16.4V17H21.6V1.30005Z" fill="#402415"/>
<path d="M62.4 1.30005H21.6V15.8H62.4V1.30005Z" fill="#2E1B11"/>
<path d="M48.5 15.7H7.69995V29H48.5V15.7Z" fill="#2E1B11"/>
<path d="M62.4 30.1H21.6V43.4H62.4V30.1Z" fill="#2E1B11"/>
<path d="M70.1 0.0999756H64.9V17H70.1V0.0999756Z" fill="#402415"/>
<path d="M70.1 43.3H19.1V45.8H70.1V43.3Z" fill="#23130C"/>
<path d="M21.6 30.1H16.4V45.8H21.6V30.1Z" fill="#402415"/>
<path d="M70.1 28.9H64.9V45.8H70.1V28.9Z" fill="#402415"/>
<path d="M51 14.5H0V17H51V14.5Z" fill="#583017"/>
<path d="M51 28.9H0V31.4H51V28.9Z" fill="#583017"/>
<path d="M2.5 15.7H0V31.4H2.5V15.7Z" fill="#583017"/>
<path d="M51 15.7H48.5V31.4H51V15.7Z" fill="#583017"/>
<path d="M51 43.3H0V45.8H51V43.3Z" fill="#583017"/>
<path d="M51 57.8H0V60.3H51V57.8Z" fill="#583017"/>
<path d="M2.5 44.5H0V60.2H2.5V44.5Z" fill="#583017"/>
<path d="M51 44.5H48.5V60.2H51V44.5Z" fill="#583017"/>
<path d="M64.9 0.0999756H13.9V2.59998H64.9V0.0999756Z" fill="#583017"/>
<path d="M64.9 14.5H13.9V17H64.9V14.5Z" fill="#583017"/>
<path d="M16.4 1.30005H13.9V17H16.4V1.30005Z" fill="#583017"/>
<path d="M64.9 1.30005H62.4V17H64.9V1.30005Z" fill="#583017"/>
<path d="M64.9 28.9H13.9V31.4H64.9V28.9Z" fill="#583017"/>
<path d="M64.9 43.3H13.9V45.8H64.9V43.3Z" fill="#583017"/>
<path d="M16.4 30.1H13.9V45.8H16.4V30.1Z" fill="#583017"/>
<path d="M64.9 30.1H62.4V45.8H64.9V30.1Z" fill="#583017"/>
<path d="M22.4 3.90002H18.2V14.5H22.4V3.90002Z" fill="#0E3654"/>
<path d="M18.2 3.90002H16.4V14.5H18.2V3.90002Z" fill="#145889"/>
<path d="M25.7 3.19995H21.5V14.5H25.7V3.19995Z" fill="#E4372E"/>
<path d="M21.5 3.19995H19.1V14.5H21.5V3.19995Z" fill="#E94D40"/>
<path d="M31 6.40002H25.9V14.5H31V6.40002Z" fill="#198878"/>
<path d="M25.9 6.40002H22.3V14.5H25.9V6.40002Z" fill="#34B4A3"/>
<path d="M47.1 55.7H34.9V56.9H47.1V55.7Z" fill="#62882D"/>
<path d="M47.2 55.9H44.8V56.8H47.2V55.9Z" fill="#DCDCDC"/>
<path d="M44.4 55.7H33.9V56.9H44.4V55.7Z" fill="#7EB034"/>
<path d="M45.8 54.9H34.1V55.8H45.8V54.9Z" fill="#9D271F"/>
<path d="M45.8 55H43.1V55.6H45.8V55Z" fill="#DCDCDC"/>
<path d="M42.7 54.9H33.1V55.8H42.7V54.9Z" fill="#E4372E"/>
<path d="M47.4 56.9H34.1V57.8H47.4V56.9Z" fill="#46AEAA"/>
<path d="M47.4 57H44V57.6H47.4V57Z" fill="#DCDCDC"/>
<path d="M43.6 56.9H33.1V57.8H43.6V56.9Z" fill="#6AC3C7"/>
<path d="M48 52.8H35.8V54H48V52.8Z" fill="#2A334F"/>
<path d="M48.1 53H45.7V53.9H48.1V53Z" fill="#DCDCDC"/>
<path d="M45.3 52.8H34.8V54H45.3V52.8Z" fill="#475677"/>
<path d="M46.7 52H35V52.9H46.7V52Z" fill="#9D271F"/>
<path d="M46.7 52.1H44V52.7H46.7V52.1Z" fill="#DCDCDC"/>
<path d="M43.6 52H34V52.9H43.6V52Z" fill="#E4372E"/>
<path d="M48.3 54H35V54.9H48.3V54Z" fill="#EC6151"/>
<path d="M48.3 54.1H44.9V54.7H48.3V54.1Z" fill="#DCDCDC"/>
<path d="M44.5 54H34V54.9H44.5V54Z" fill="#EE8F33"/>
<path d="M35.1 3.19995H30.9V14.5H35.1V3.19995Z" fill="#F39C15"/>
<path d="M30.8 3.19995H28.4V14.5H30.8V3.19995Z" fill="#FDC20B"/>
<path d="M36.9 3.90002H32.7V14.5H36.9V3.90002Z" fill="#0E3654"/>
<path d="M32.7 3.90002H30.9V14.5H32.7V3.90002Z" fill="#145889"/>
<path d="M38.7 3.90002H34.5V14.5H38.7V3.90002Z" fill="#29401D"/>
<path d="M34.5 3.90002H32.7V14.5H34.5V3.90002Z" fill="#137733"/>
<path d="M55.8 35.3H51.9V43.4H55.8V35.3Z" fill="#4E9DB2"/>
<path d="M52 35.3H49.2V43.4H52V35.3Z" fill="#8ECDDB"/>
<path d="M59.2 32.8H55V43.4H59.2V32.8Z" fill="#0E3654"/>
<path d="M55 32.8H53.2V43.4H55V32.8Z" fill="#EE7566"/>
<path d="M61 32.8H56.8V43.4H61V32.8Z" fill="#29401D"/>
<path d="M56.8 32.8H55V43.4H56.8V32.8Z" fill="#137733"/>
<path d="M23.7 32.8H19.5V43.4H23.7V32.8Z" fill="#29401D"/>
<path d="M19.5 32.8H17.7V43.4H19.5V32.8Z" fill="#137733"/>
<path d="M25.9 35.3H22.3V43.4H25.9V35.3Z" fill="#E15042"/>
<path d="M22.2 35.3H20.7V43.4H22.2V35.3Z" fill="#EE7557"/>
<path d="M28.9 33.5H25.3V43.4H28.9V33.5Z" fill="#8DB9E4"/>
<path d="M25.3 33.5H23.8V43.4H25.3V33.5Z" fill="#C7E7F1"/>
<path d="M31.6 37.4H27.8V43.4H31.6V37.4Z" fill="#17212A"/>
<path d="M27.8 37.4H26.2V43.4H27.8V37.4Z" fill="#233240"/>
<path d="M52.9 10H40.7V12.6H52.9V10Z" fill="#62882D"/>
<path d="M53 10.3H50.6V12.3H53V10.3Z" fill="#DCDCDC"/>
<path d="M50.2 10H39.7V12.6H50.2V10Z" fill="#7EB034"/>
<path d="M51.6 8H39.9V9.90002H51.6V8Z" fill="#9D271F"/>
<path d="M51.6 8.30005H48.9V9.59998H51.6V8.30005Z" fill="#DCDCDC"/>
<path d="M48.5 8H38.9V9.90002H48.5V8Z" fill="#E4372E"/>
<path d="M53.2 12.6H39.9V14.5H53.2V12.6Z" fill="#46AEAA"/>
<path d="M53.2 12.9H49.8V14.2H53.2V12.9Z" fill="#DCDCDC"/>
<path d="M49.4 12.6H38.9V14.5H49.4V12.6Z" fill="#6AC3C7"/>
<path d="M59.2 4.59998H55.5V14.5H59.2V4.59998Z" fill="#198878"/>
<path d="M55.5 4.59998H52.9V14.5H55.5V4.59998Z" fill="#34B4A3"/>
<path d="M60.3 8.5H57.5V14.5H60.3V8.5Z" fill="#BEBDC4"/>
<path d="M57.5 8.5H55.5V14.5H57.5V8.5Z" fill="#ECF0F1"/>
<path d="M30.1 52.4H26.7V57.8H30.1V52.4Z" fill="#E0DDC6"/>
<path d="M27.4 52.4H24V57.8H27.4V52.4Z" fill="#FFFFFB"/>
<path d="M30.1 51H26.7V52.4H30.1V51Z" fill="#F8BE3B"/>
<path d="M27.4 51H24V52.4H27.4V51Z" fill="#F4D03E"/>
<path d="M35.1 32.8H30.9V43.4H35.1V32.8Z" fill="#0E3654"/>
<path d="M30.9 32.8H29.1V43.4H30.9V32.8Z" fill="#145889"/>
<path d="M37.2 37.4H34.4V43.4H37.2V37.4Z" fill="#BEBDC4"/>
<path d="M34.4 37.4H32.4V43.4H34.4V37.4Z" fill="#ECF0F1"/>
<path d="M17.1 57.8H16.3L12.3 49.1H13.1L17.1 57.8Z" fill="#818186"/>
<path d="M14.5 48H6.59998V57.8H14.5V48Z" fill="#BEBDC4"/>
<path d="M14.2 48H6.30005V57.8H14.2V48Z" fill="white"/>
<path d="M13.8 48.3H6.69995V57.4H13.8V48.3Z" fill="#70C6D3"/>
<path d="M13 51.7C12.4 51.8 11.9 52.3 11.6 52.7C11.2 53.1 10.8 53.8 10.7 54.4C10.7 54.4 10.7 54.4 10.8 54.4C11.1 53.8 11.2 53.3 11.6 52.8C11.9 52.5 12.4 51.9 13 51.7Z" fill="#398333"/>
<path d="M9.50001 53.4C9.20001 52.7 8.79996 52.1 8.19996 51.6C8.79996 52.5 9.89996 53.5 9.69996 54.6C9.99996 54.3 9.70001 53.8 9.50001 53.4Z" fill="#398333"/>
<path d="M11.2 50.1C10.8 50.2 10.6 51 10.5 51.3C10.4 51.7 10.3001 52.2 10.3001 52.7C10.3001 52.6 10.2 52.4 10.2 52.3C9.99996 51.8 9.80006 51 9.30006 50.7C9.70006 51.2 9.89999 51.7 10.1 52.4C10.2 52.6 10.2001 52.9 10.3001 53.1C10.3001 53.4 10.3 53.7 10.4 54C10.4 54 10.4 54 10.4 54.1V54.2H10.5C10.5 54.1 10.5 53.9 10.5 53.8C10.5 53.6 10.5 53.4 10.4 53.1C10.4 53 10.4 53 10.4 52.9C10.4 52.5 10.5 52.1 10.5 51.7C10.6 51.2 10.7 50.3 11.2 50.1Z" fill="#398333"/>
<path d="M11.9 50C12 50.1 11.9 50.2 11.8 50.2C11.7 50.2 11.7 50.1 11.6 50.1C11.6 50.1 11.6 50.1 11.6 50C11.6 50 11.6 50 11.5 49.9L11.6 49.8C11.7 49.9 11.8 49.9 11.9 50Z" fill="#DBEFF8"/>
<path d="M11.5 50C11.5 50.1 11.5 50.1 11.5 50C11.5 50.1 11.5 50.2 11.4 50.2C11.3 50.2 11.2 50.2 11.2 50.1C11.2 50.1 11.1 50.1 11.1 50V49.9C11.1 49.9 11.1 49.8 11.2 49.8C11.3 49.9 11.4 49.9 11.5 50Z" fill="#F8A912"/>
<path d="M11.9 50.3C11.9 50.4 11.9 50.4 11.9 50.4C11.8 50.5 11.7 50.4 11.5 50.3L11.4 50.2C11.5 50.2 11.5 50.1 11.5 50.1C11.6 50.1 11.6 50.1 11.7 50.2C11.8 50.2 11.9 50.3 11.9 50.3Z" fill="#DBEFF8"/>
<path d="M11.5 50.4C11.5 50.5 11.4 50.6 11.3 50.6C11.2 50.6 11.2 50.5 11.1 50.5V50.4C11.1 50.4 11.1 50.3 11.2 50.3C11.3 50.3 11.4 50.4 11.4 50.4C11.4 50.2 11.4 50.3 11.5 50.4C11.5 50.3 11.4 50.3 11.5 50.4Z" fill="#DBEFF8"/>
<path d="M11.1 50V50.1C11.1 50.1 11.1 50.1 11.2 50.2L11.1 50.3C11 50.3 10.8 50.3 10.7 50.2C10.6 50.1 10.7001 50 10.8001 50C10.9001 50 11 50 11.1 50Z" fill="#DBEFF8"/>
<path d="M11.2 49.9001C11.1 49.9001 11.1 50 11.1 50C11 50 11 50 10.9 50C10.8 50 10.8 49.9001 10.8 49.9001C10.8 49.8001 10.8 49.8001 10.8 49.8001C10.9 49.7001 11 49.8001 11.2 49.9001C11.1 49.8001 11 49.8001 11.2 49.9001C11.1 49.8001 11.1 49.8001 11.2 49.9001Z" fill="#DBEFF8"/>
<path d="M11.4 49.7V49.8001C11.4 49.8001 11.4 49.9001 11.3 49.9001C11.2 49.9001 11.1 49.8001 11.1 49.8001L11 49.7C11 49.6 11.1 49.5 11.2 49.6C11.3 49.6 11.4 49.7 11.4 49.7Z" fill="#DBEFF8"/>
<path d="M11.6999 52C10.8999 52.6 10.0999 53.8 10.1999 54.8C10.1999 54.9 10.3 54.9 10.3 54.8C10.5 54.3 10.4999 53.9 10.6999 53.4C10.9999 52.9 11.3999 52.5 11.6999 52Z" fill="#3C8133"/>
<path d="M10.5 53.8001C10.4 53.5001 10.4 53.2 10.4 52.9C10.5 52.1 10.9 51.4001 11.3 50.8001C10.5 51.6001 10.1 52.7001 10.4 53.8001H10.5Z" fill="#4EA733"/>
<path d="M12.3 50.9001C12.4 51.0001 12.3 51.2 12.1 51.2C12.1 51.2 12.1 51.2 12 51.2C11.9 51.1 11.8 51.1 11.7 51.1C11.7 51.1 11.7 51 11.6 51L11.5 50.9001C11.6 50.9001 11.6 50.8001 11.6 50.8001C11.6 50.8001 11.6 50.8001 11.7 50.8001C11.9 50.7001 12.2 50.8001 12.3 50.9001Z" fill="#FFF4DE"/>
<path d="M11.7 51C11.7 51 11.7 51.1 11.8 51.1C11.8 51.2 11.7 51.3 11.6 51.3C11.5 51.3 11.3 51.3 11.2 51.2L11.1 51.1C11.1 51 11 51 11 50.9C11 50.8 11.1 50.8 11.2 50.8C11.3 50.8 11.5 50.8 11.6 50.9C11.6 50.9 11.6 50.9 11.7 51Z" fill="#F8BE3B"/>
<path d="M12.3 51.4C12.4 51.5 12.4 51.6 12.3 51.6C12.2 51.7 12 51.6 11.7 51.5C11.7 51.5 11.7 51.5 11.6 51.5C11.5 51.5 11.5 51.4 11.5 51.4C11.5 51.4 11.5 51.4 11.5 51.3C11.6 51.3 11.7 51.2 11.7 51.1C11.8 51.1 11.9 51.1 12 51.2C12 51.2 12 51.2 12.1 51.2C12.2 51.3 12.2 51.3 12.3 51.4Z" fill="#FFF4DE"/>
<path d="M11.7 51.5C11.7 51.7 11.6 51.8 11.4 51.7C11.3 51.7 11.2 51.6 11.1 51.5C11.1 51.4 11 51.4 11 51.3C11 51.2 11.1 51.2 11.1 51.2C11.2 51.3 11.4 51.3 11.5 51.3C11.5 51.3 11.5 51.3 11.5 51.4C11.6 51.4 11.6 51.4 11.7 51.5Z" fill="#FFF4DE"/>
<path d="M11.0001 50.9C11.0001 50.9 11 51 11.1 51.1L11.2 51.2C11.1 51.2 11.1 51.3 11.1 51.3C11.1 51.3 11.1001 51.3 11.0001 51.3C10.8001 51.3 10.5001 51.2 10.4001 51.1C10.3001 51 10.4 50.8 10.6 50.8C10.6 50.8 10.6 50.8 10.7 50.8C10.8 50.8 10.9001 50.8 11.0001 50.9Z" fill="#FFF4DE"/>
<path d="M11.1 50.7C11 50.8 10.9001 50.8001 10.9001 50.9001C10.8001 50.9001 10.7 50.8001 10.6 50.8001C10.6 50.8001 10.6 50.8001 10.5 50.8001C10.4 50.7001 10.3001 50.7 10.3001 50.6C10.2001 50.5 10.2001 50.4001 10.3001 50.4001C10.4001 50.3001 10.6001 50.4 10.9001 50.5C10.9001 50.5 10.9 50.5 11 50.5C11 50.6 11.1 50.6 11.1 50.7Z" fill="#FFF4DE"/>
<path d="M11.6 50.5001C11.6 50.6001 11.7 50.6 11.7 50.7C11.7 50.8 11.6 50.8001 11.6 50.8001C11.5 50.7001 11.3 50.7 11.2 50.7C11.2 50.7 11.2 50.7 11.2 50.6L11.1 50.5001C11.1 50.3001 11.2 50.2001 11.4 50.3001C11.4 50.3001 11.5 50.4001 11.6 50.5001Z" fill="#FFF4DE"/>
<path d="M10.1 52.8C9.79999 52.1 9.29999 51.5 8.59999 51.2C8.59999 51.2 8.49999 51.2 8.59999 51.3C9.29999 51.7 9.60006 52.4 9.80006 53.1C9.90006 53.4 9.90001 53.7 10 54C10 54.3 9.99999 54.7 10.1 55C10.2 55.1 10.4 55.1 10.4 55C10.7 54.2 10.3 53.4 10.1 52.8Z" fill="#3C8133"/>
<path d="M11 51.8001C10.9 51.9001 11 52 11.1 52C11.2 52 11.3001 52 11.3001 52C11.3001 52 11.3001 51.9 11.4001 51.9C11.4001 51.9 11.5 51.9001 11.5 51.8001L11.4001 51.7C11.3001 51.6 11.1 51.7001 11 51.8001Z" fill="#CCE9F5"/>
<path d="M11.5 51.9C11.4 52 11.4 51.9 11.5 51.9C11.4 52 11.5 52.1 11.5 52.1C11.6 52.1 11.7001 52.1 11.8001 52.1C11.8001 52.1 11.9001 52.1 11.9001 52L12 51.9C12 51.8 12.0001 51.8 11.9001 51.8C11.8001 51.8 11.7 51.8 11.5 51.9Z" fill="#F8A912"/>
<path d="M10.9 52.1C10.8 52.2 10.8 52.2 10.8 52.3C10.9 52.4 11 52.4 11.2 52.3C11.3 52.3 11.3 52.2 11.3 52.2C11.2 52.2 11.2 52.1 11.2 52C11.1 52 11 52 11 52C11 52 11 52 10.9 52C11 52.1 11 52.1 10.9 52.1Z" fill="#CCE9F5"/>
<path d="M11.4 52.3C11.4 52.5 11.5 52.5 11.6 52.5C11.7 52.5 11.8 52.5 11.8 52.4L11.9 52.3C11.9 52.2 11.9 52.2 11.8 52.2C11.7 52.2 11.6 52.3 11.5 52.2L11.4 52.3Z" fill="#CCE9F5"/>
<path d="M12 52C12 52 12 52.1 11.9 52.1C11.9 52.1 11.8 52.1 11.8 52.2L11.9 52.3001C12.1 52.4001 12.3 52.3 12.3 52.2C12.4 52.1 12.3 52 12.2 52C12.2 52 12.1 51.9 12 52Z" fill="#CCE9F5"/>
<path d="M11.9 51.8001C12 51.9001 12 51.9 12 52C12.1 52 12.2 52 12.2 52C12.2 52 12.2 52 12.3 52C12.4 52 12.4 51.9001 12.5 51.9001C12.6 51.8001 12.6 51.8 12.6 51.7C12.5 51.6 12.4 51.6 12.2 51.7C12 51.7 11.9 51.7001 11.9 51.8001Z" fill="#CCE9F5"/>
<path d="M11.6 51.6L11.5 51.7C11.5 51.8 11.5 51.8 11.6 51.8C11.7 51.8 11.8 51.7 11.9 51.8L12 51.7C12 51.6 11.9 51.5 11.8 51.5C11.7 51.5 11.7 51.5 11.6 51.6Z" fill="#CCE9F5"/>
<path d="M9.19997 51.3C9.09997 51.4 9.20007 51.5 9.30007 51.5C9.40007 51.5 9.50002 51.5 9.50002 51.5C9.50002 51.5 9.49999 51.4 9.59999 51.4C9.59999 51.4 9.69997 51.4 9.69997 51.3L9.59999 51.2C9.49999 51.2 9.29997 51.2 9.19997 51.3Z" fill="#CCE9F5"/>
<path d="M9.7 51.5C9.6 51.5 9.6 51.5 9.7 51.5C9.6 51.6 9.7 51.7 9.7 51.7C9.8 51.7 9.90005 51.7 10 51.7C10 51.7 10.1 51.7 10.1 51.6L10.2 51.5C10.2 51.4 10.2 51.4 10.1 51.4C10 51.4 9.9 51.4 9.7 51.5Z" fill="#F8A912"/>
<path d="M9.09998 51.7C8.99998 51.8 9 51.8 9 51.9C9.1 52 9.20002 52 9.40002 51.9C9.50002 51.9 9.5 51.8 9.5 51.8C9.4 51.8 9.40002 51.7 9.40002 51.6C9.30002 51.6 9.19995 51.6 9.19995 51.6C9.19995 51.6 9.19998 51.6 9.09998 51.6C9.19998 51.6 9.19998 51.7 9.09998 51.7Z" fill="#CCE9F5"/>
<path d="M9.59998 51.9C9.59998 52.1 9.70005 52.1 9.80005 52.1C9.90005 52.1 10 52.1 10 52L10.1 51.9C10.1 51.8 10.1 51.8 10 51.8C9.9 51.8 9.79995 51.9 9.69995 51.8C9.69995 51.8 9.59998 51.8 9.59998 51.9Z" fill="#CCE9F5"/>
<path d="M10.2 51.5C10.2 51.5 10.2 51.6 10.1 51.6C10.1 51.6 10 51.6 10 51.7L10.1 51.8C10.3 51.9 10.5 51.8 10.5 51.7C10.6 51.6 10.5 51.5 10.4 51.5C10.4 51.5 10.3 51.5 10.2 51.5Z" fill="#CCE9F5"/>
<path d="M10.1 51.4001C10.2 51.5001 10.2 51.5 10.2 51.6C10.3 51.6 10.4 51.6 10.4 51.6C10.4 51.6 10.4 51.6 10.5 51.6C10.6 51.6 10.6 51.5 10.7 51.5C10.8 51.4 10.8 51.4001 10.8 51.3001C10.7 51.2001 10.6 51.2001 10.4 51.3001C10.2 51.3001 10.1 51.3001 10.1 51.4001Z" fill="#CCE9F5"/>
<path d="M9.80005 51.1L9.69995 51.2C9.69995 51.3 9.70005 51.3 9.80005 51.3C9.90005 51.3 9.99998 51.2 10.1 51.3L10.2 51.2C10.2 51.1 10.1 51 10 51C9.9 51 9.90005 51.1 9.80005 51.1Z" fill="#CCE9F5"/>
<path d="M8.69995 51.5C8.79995 51.6 8.69998 51.7 8.59998 51.7C8.49998 51.7 8.50002 51.6 8.40002 51.6C8.40002 51.6 8.40002 51.6 8.40002 51.5C8.40002 51.5 8.40005 51.5 8.30005 51.4L8.40002 51.3C8.40002 51.4 8.59995 51.4 8.69995 51.5Z" fill="#CCE9F5"/>
<path d="M8.30005 51.6C8.30005 51.7 8.29995 51.8 8.19995 51.8C8.09995 51.8 8 51.8 8 51.7C8 51.7 7.90002 51.7 7.90002 51.6V51.5C7.90002 51.5 7.9 51.4 8 51.4C8 51.4 8.10005 51.5 8.30005 51.6C8.30005 51.5 8.20005 51.5 8.30005 51.6Z" fill="#F8A912"/>
<path d="M8.69995 51.8C8.69995 51.9 8.79995 51.9 8.69995 51.9C8.59995 52 8.50005 51.9 8.30005 51.8L8.19995 51.7C8.29995 51.7 8.30005 51.6 8.30005 51.6C8.40005 51.6 8.4 51.6 8.5 51.7C8.6 51.8 8.59995 51.8 8.69995 51.8Z" fill="#CCE9F5"/>
<path d="M8.30005 51.9C8.30005 52 8.19998 52.1 8.09998 52.1C7.99998 52.1 8.00002 52 7.90002 52C7.90002 52 7.90005 51.9 7.80005 51.9C7.80005 51.9 7.80002 51.8 7.90002 51.8C8.00002 51.8 8.09998 51.9 8.09998 51.9C8.19998 51.8 8.20005 51.8 8.30005 51.9Z" fill="#CCE9F5"/>
<path d="M7.80009 51.5V51.6C7.80009 51.6 7.80007 51.6 7.90007 51.7L7.80009 51.8C7.70009 51.8 7.50007 51.8 7.40007 51.7C7.30007 51.6 7.40004 51.5 7.50004 51.5C7.70004 51.5 7.80009 51.5 7.80009 51.5Z" fill="#CCE9F5"/>
<path d="M7.90004 51.4001C7.80004 51.4001 7.80006 51.5 7.80006 51.5C7.70006 51.5 7.69999 51.5 7.59999 51.5C7.49999 51.5 7.50001 51.4001 7.50001 51.4001C7.50001 51.3001 7.40001 51.3001 7.50001 51.3001C7.60001 51.2001 7.70004 51.3001 7.90004 51.4001C7.80004 51.3001 7.80004 51.3001 7.90004 51.4001Z" fill="#CCE9F5"/>
<path d="M8.19995 51.3001V51.4C8.19995 51.4 8.19998 51.5 8.09998 51.5C7.99998 51.5 7.90002 51.4 7.90002 51.4L7.80005 51.3001C7.80005 51.2001 7.9 51.1 8 51.2C8.1 51.2 8.19995 51.2001 8.19995 51.3001Z" fill="#CCE9F5"/>
<path d="M8.40008 50.5C8.30008 50.6 8.40003 50.7 8.60003 50.7C8.70003 50.7 8.7001 50.6 8.8001 50.6C8.8001 50.6 8.8001 50.6 8.8001 50.5C8.8001 50.5 8.80008 50.4 8.90008 50.4C8.90008 50.4 8.8001 50.4 8.8001 50.3C8.6001 50.4 8.50008 50.4 8.40008 50.5Z" fill="#DBEFF8"/>
<path d="M8.80005 50.5C8.80005 50.6 8.80002 50.7 8.90002 50.7C9.00002 50.7 9.09998 50.6 9.09998 50.6C9.09998 50.6 9.09995 50.6 9.19995 50.5V50.4L9.09998 50.3C8.99998 50.3 8.90005 50.4 8.80005 50.5Z" fill="#F8A912"/>
<path d="M8.5 50.8C8.5 50.9 8.5 50.9 8.5 50.9C8.6 50.9 8.70005 50.9 8.80005 50.8L8.90002 50.7C8.80002 50.7 8.80005 50.7 8.80005 50.6C8.70005 50.6 8.69998 50.6 8.59998 50.7C8.49998 50.7 8.5 50.8 8.5 50.8Z" fill="#DBEFF8"/>
<path d="M8.90002 50.8C8.90002 50.9 8.99998 51 9.09998 50.9C9.19998 50.9 9.20005 50.8 9.30005 50.8V50.7C9.30005 50.7 9.29995 50.6 9.19995 50.6C9.09995 50.7 9.1 50.7 9 50.7C8.9 50.7 8.90002 50.7 8.90002 50.8Z" fill="#DBEFF8"/>
<path d="M9.30005 50.4V50.5C9.30005 50.5 9.29995 50.6 9.19995 50.6C9.19995 50.6 9.30005 50.6 9.30005 50.7C9.40005 50.7 9.59998 50.6 9.59998 50.5C9.59998 50.4 9.60002 50.3 9.40002 50.3L9.30005 50.4Z" fill="#DBEFF8"/>
<path d="M9.09998 50.3C9.19998 50.3 9.19995 50.4 9.19995 50.4C9.29995 50.4 9.30002 50.3 9.40002 50.3C9.50002 50.3 9.5 50.2 9.5 50.2C9.5 50.1 9.5 50.1 9.5 50.1C9.4 50.1 9.29995 50.1 9.19995 50.2C9.19995 50.2 9.19998 50.2 9.09998 50.3Z" fill="#DBEFF8"/>
<path d="M8.80005 50.2V50.3C8.80005 50.3 8.80002 50.4 8.90002 50.4C9.00002 50.3 8.99998 50.3 9.09998 50.3C9.09998 50.3 9.09995 50.2 9.19995 50.2C9.19995 50.1 9.1 50.1 9 50.1C8.9 50.1 8.90005 50.1 8.80005 50.2Z" fill="#DBEFF8"/>
<path d="M12.8001 51.7C12.2001 51.6 11.5 52.5 11.2 52.9C11.1 53.1 10.9001 53.3 10.8001 53.5C10.8001 53.4 10.8001 53.2 10.8001 53.1C10.9001 52.8 11 52.4 11.1 52.1C11.4 51.4 11.7001 50.6 12.3001 50.2C12.4001 50.2 12.3 50.1 12.2 50.1C11.8 50.3 11.5001 50.7 11.3001 51.1C11.0001 51.3 10.8 51.7 10.7 52.1V52C10.7 51.9 10.7 51.8 10.7 51.7H10.6C10.6 51.8 10.6 51.9 10.6 52C10.6 52.2 10.6 52.3 10.6 52.5C10.6 52.6 10.5001 52.7 10.5001 52.8C10.3001 53.4 10.2001 54.1 10.3001 54.8H10.4001C10.4001 54.7 10.4001 54.7 10.4001 54.6C10.4001 54.6 10.4001 54.6 10.4001 54.5V54.6C10.4001 54.6 10.5001 54.7 10.5001 54.6C10.5001 54.5 10.5001 54.4 10.5001 54.3C10.6001 54.2 10.6 54 10.6 53.8C10.8 53.5 10.9 53.3 11.1 53.1C11.7 52.5 12.1001 52 12.8001 51.7ZM10.6 54C10.6 54 10.6001 54.1 10.5001 54.1C10.5001 53.7 10.6 53.2 10.7 52.8C10.7 52.9 10.7 53.1 10.7 53.3C10.7 53.5 10.6 53.8 10.6 54ZM10.8001 52.7C10.8001 52.6 10.8001 52.5 10.8001 52.4C11.0001 52 11.2001 51.7 11.4001 51.3C11.3001 51.5 11.2 51.6 11.2 51.8C11 52.1 10.9001 52.4 10.8001 52.7Z" fill="#4EA733"/>
<path d="M13.1 50.1C13.2 50.2 13.1 50.3 13 50.3C12.9 50.3 12.9 50.2 12.8 50.2C12.8 50.2 12.8 50.2 12.8 50.1C12.8 50.1 12.8 50.1 12.7 50L12.8 49.9C12.8 50 13 50 13.1 50.1Z" fill="#FFF4DE"/>
<path d="M12.7 50.2C12.7 50.3 12.7 50.4 12.6 50.4C12.5 50.4 12.4 50.4 12.4 50.3C12.4 50.3 12.3 50.3 12.3 50.2V50.1C12.3 50.1 12.3 50 12.4 50C12.4 50 12.5 50 12.7 50.2C12.7 50.1 12.6 50.1 12.7 50.2Z" fill="#F8BE3B"/>
<path d="M13.1 50.4C13.1 50.5 13.2 50.5 13.1 50.5C13 50.6 12.9 50.5 12.7 50.4L12.6 50.3C12.7 50.3 12.7 50.2 12.7 50.2C12.8 50.2 12.8 50.2 12.9 50.3C13 50.3 13 50.4 13.1 50.4Z" fill="#FFF4DE"/>
<path d="M12.7 50.5C12.7 50.6 12.6 50.7 12.5 50.7C12.4 50.7 12.4 50.6 12.3 50.6V50.5C12.3 50.5 12.3 50.4 12.4 50.4C12.5 50.4 12.6 50.5 12.6 50.5C12.6 50.4 12.6 50.4 12.7 50.5C12.7 50.4 12.6 50.4 12.7 50.5Z" fill="#FFF4DE"/>
<path d="M12.2 50.1V50.2C12.2 50.2 12.2001 50.2 12.3001 50.3L12.2 50.4C12.1 50.4 11.9001 50.4 11.8001 50.3C11.7001 50.2 11.8001 50.1 11.9001 50.1C12.1001 50.1 12.2 50.1 12.2 50.1Z" fill="#FFF4DE"/>
<path d="M12.3 50C12.2 50 12.2 50.1 12.2 50.1C12.1 50.1 12.1 50.1 12 50.1C11.9 50.1 11.9 50 11.9 50C11.9 49.9 11.9 49.9001 11.9 49.9001C12 49.8001 12.1 49.9 12.3 50C12.2 49.9 12.2 49.9 12.3 50C12.3 49.9 12.3 49.9 12.3 50Z" fill="#FFF4DE"/>
<path d="M12.6 49.8001V49.9C12.6 49.9 12.6 50 12.5 50C12.4 50 12.3 49.9 12.3 49.9L12.2 49.8001C12.2 49.7001 12.3 49.6 12.4 49.7C12.5 49.7 12.6 49.8001 12.6 49.8001Z" fill="#FFF4DE"/>
<path d="M8.59998 52.7C9.49998 53.1 10.7 53.8 10.6 54.9C10.6 55 10.5 55 10.5 54.9C10.3 54.5 10.2 54.1 9.90002 53.7C9.60002 53.3 9.09998 53 8.59998 52.7Z" fill="#5BAB31"/>
<path d="M9.40004 51.5C10.1 52.2 10.5 53.2 10.5 54.3C10.4 53.3 10.1 52.3 9.40004 51.5Z" fill="#61AF30"/>
<path d="M8.19993 51.5C8.09993 51.7 8.29998 51.8 8.49998 51.7C8.49998 51.7 8.49996 51.7 8.59996 51.7C8.69996 51.6 8.80001 51.6 8.90001 51.5V51.4C8.90001 51.4 8.89998 51.3 8.99998 51.3C8.89998 51.3 8.90001 51.2 8.90001 51.2C8.90001 51.2 8.90003 51.2 8.80003 51.2C8.50003 51.2 8.29993 51.3 8.19993 51.5Z" fill="#FFF4DE"/>
<path d="M8.80005 51.4V51.5C8.80005 51.6 8.9 51.7 9 51.6C9.1 51.6 9.30005 51.5 9.30005 51.4L9.40002 51.3C9.40002 51.2 9.40002 51.2 9.40002 51.1C9.40002 51 9.29995 51 9.19995 51C9.09995 51 8.90002 51.1 8.90002 51.2C8.90002 51.3 8.90005 51.4 8.80005 51.4Z" fill="#F8BE3B"/>
<path d="M8.30005 52C8.30005 52.1 8.30005 52.2 8.30005 52.2C8.40005 52.3 8.60005 52.2 8.80005 52C8.80005 52 8.80005 52 8.80005 51.9C8.90005 51.8 8.90002 51.8 8.90002 51.7C8.90002 51.7 8.90002 51.7 8.90002 51.6C8.80002 51.6 8.69995 51.6 8.69995 51.5C8.59995 51.5 8.50002 51.6 8.40002 51.7C8.40002 51.7 8.40005 51.7 8.30005 51.8C8.40005 51.8 8.40005 51.9 8.30005 52Z" fill="#FFF4DE"/>
<path d="M8.90002 51.9C8.90002 52.1 9.10005 52.2 9.30005 52.1C9.40005 52 9.5 52 9.5 51.9C9.5 51.8 9.5 51.8 9.5 51.7C9.5 51.6 9.40002 51.6 9.40002 51.6C9.30002 51.7 9.19998 51.8 9.09998 51.8C9.09998 51.8 9.09998 51.8 9.09998 51.9C8.99998 51.8 9.00002 51.9 8.90002 51.9Z" fill="#FFF4DE"/>
<path d="M9.5 51.2C9.5 51.2 9.5 51.3001 9.5 51.4001L9.40002 51.5C9.50002 51.5 9.5 51.6 9.5 51.6C9.5 51.6 9.49998 51.6 9.59998 51.6C9.79998 51.6 9.99998 51.4001 10.1 51.3001C10.2 51.1001 10 51 9.80005 51.1C9.80005 51.1 9.79995 51.1 9.69995 51.1C9.69995 51.1 9.6 51.1 9.5 51.2Z" fill="#FFF4DE"/>
<path d="M9.30005 51C9.30005 51.1 9.30005 51.1 9.30005 51C9.40005 51.1 9.5 51.1 9.5 51.2C9.6 51.1 9.70005 51.1 9.80005 51.1C9.80005 51.1 9.80002 51.1 9.90002 51.1C10 51 9.99998 50.9001 10.1 50.9001C10.1 50.8001 10.1 50.7 10.1 50.7C9.99998 50.6 9.79998 50.7001 9.59998 50.9001C9.59998 50.9001 9.59998 50.9 9.59998 51C9.39998 50.9 9.30005 51 9.30005 51Z" fill="#FFF4DE"/>
<path d="M8.80005 50.9C8.80005 51 8.80005 51 8.80005 51.1C8.80005 51.2 8.90002 51.2 8.90002 51.2C9.00002 51.1 9.09995 51 9.19995 51C9.19995 51 9.19995 51 9.19995 50.9C9.19995 50.8 9.30005 50.8 9.30005 50.7C9.30005 50.5 9.10002 50.5 8.90002 50.6C8.90002 50.7 8.90005 50.8 8.80005 50.9Z" fill="#FFF4DE"/>
<path d="M10.5 54.9C10.2 53.5 10.7 51.7 11.9 50.8C12 50.8 12 50.8 12 50.9C10.8 52 10.8999 53.5 10.6999 54.9C10.5999 55 10.5 55 10.5 54.9Z" fill="#62B22F"/>
<path d="M9.40002 52.3C9.10002 51.6 8.6 51.1 8 50.6C8.1 50.8 8.30002 50.9 8.40002 51C8.80002 51.3 8.99995 51.8 9.19995 52.2C9.39995 52.6 9.59995 53 9.69995 53.5C9.89995 54 9.8 54.4 10 54.9C10.3 54.1 9.70002 53 9.40002 52.3Z" fill="#4EA733"/>
<path d="M11.8 53C11.1 53.1 10.7 54.1 10.6 54.7H10.7C10.8 54 11.2 53.5 11.8 53C11.9 53.1 11.9 53 11.8 53Z" fill="#4EA733"/>
<path d="M9.80006 53.8C9.70006 53.5 9.60004 53.2 9.40004 53C9.60004 53.3 9.70006 53.6 9.80006 54C9.80006 54.2 9.80001 54.5 10 54.8H10.1C9.99999 54.6 9.80006 54.1 9.80006 53.8Z" fill="#4EA733"/>
<path d="M11.4001 53.6C11.1001 53.9 10.7001 54.4 10.8001 54.9C10.8001 54.9 10.8001 54.9 10.9001 54.9C11.0001 54.7 11 54.5 11.1 54.2C11.1 54 11.2001 53.8 11.4001 53.6Z" fill="#4EA733"/>
<path d="M13.3001 51.5C13.2001 51.6 13.1 51.7 13 51.7C12.9 51.7 12.9 51.6 13 51.5C13.1 51.4 13.2001 51.3 13.3001 51.3C13.4001 51.3 13.4001 51.4 13.3001 51.5Z" fill="#FFF4DE"/>
<path d="M13 51.4C13.1 51.5 13.0001 51.6 12.9001 51.6C12.8001 51.7 12.7 51.7 12.6 51.6C12.5 51.5 12.6 51.4 12.7 51.4C12.8 51.4 12.9 51.4 13 51.4Z" fill="#FFF4DE"/>
<path d="M12.6 51.7C12.7 51.7 12.8 51.7 12.8 51.8C12.8 51.9 12.7 52 12.6 52C12.5 52 12.4 52 12.4 51.9C12.4 51.8 12.5 51.7 12.6 51.7Z" fill="#FFF4DE"/>
<path d="M12.6 52C12.7 51.9 12.8 51.8 12.9 51.8C13 51.8 13 51.9 12.9 52C12.8 52.1 12.7 52.2 12.6 52.2C12.6 52.1 12.6 52.1 12.6 52Z" fill="#FFF4DE"/>
<path d="M13 52C12.9 51.9 13 51.8001 13.1 51.8001C13.2 51.7001 13.3001 51.7001 13.4001 51.8001C13.5001 51.9001 13.4001 52 13.3001 52C13.1001 52 13 52 13 52Z" fill="#FFF4DE"/>
<path d="M13.3 51.7C13.2 51.7 13.1 51.7 13.1 51.6C13.1 51.5 13.2 51.4 13.3 51.4C13.4 51.4 13.5 51.4 13.5 51.5C13.5 51.6 13.4 51.7 13.3 51.7Z" fill="#FFF4DE"/>
<path d="M13.1 51.7C13 51.8 12.9 51.8 12.8 51.8C12.7 51.8 12.7 51.7 12.7 51.6C12.8 51.5 12.9 51.5 13 51.5C13.2 51.6 13.2 51.6 13.1 51.7Z" fill="#F8BE3B"/>
<path d="M11.5 53.5C11.5 53.6 11.4001 53.6 11.3001 53.6C11.2001 53.6 11.2001 53.5 11.3001 53.5C11.4001 53.4 11.4 53.4 11.5 53.4C11.6 53.4 11.6 53.4 11.5 53.5Z" fill="#FFF4DE"/>
<path d="M11.3 53.5C11.3 53.5 11.3 53.6 11.3 53.7C11.2 53.7 11.2 53.7 11.1 53.7C11.1 53.7 11.1 53.6 11.1 53.5C11.2 53.4 11.3 53.4 11.3 53.5Z" fill="#FFF4DE"/>
<path d="M11.1 53.7C11.2 53.7 11.3 53.7 11.3 53.7C11.3 53.7 11.2 53.8 11.1 53.8C11 53.8 10.9 53.8 10.9 53.8C10.9 53.7 11 53.7 11.1 53.7Z" fill="#FFF4DE"/>
<path d="M11.1 53.8C11.1 53.7 11.2001 53.7 11.3001 53.7C11.4001 53.7 11.4001 53.8 11.3001 53.8C11.3001 53.9 11.2 53.9 11.1 53.9C11 54 11 53.9 11.1 53.8Z" fill="#FFF4DE"/>
<path d="M11.3 53.9C11.3 53.9 11.3 53.8 11.3 53.7C11.4 53.7 11.4 53.7 11.5 53.7C11.5 53.7 11.5 53.8 11.5 53.9C11.4 53.9 11.3 53.9 11.3 53.9Z" fill="#FFF4DE"/>
<path d="M11.5 53.7C11.4 53.7 11.3 53.7 11.3 53.7C11.3 53.7 11.4 53.6 11.5 53.6C11.6 53.6 11.7 53.6 11.7 53.6C11.7 53.6 11.6 53.7 11.5 53.7Z" fill="#FFF4DE"/>
<path d="M11.4001 53.7C11.4001 53.8 11.3 53.8 11.2 53.8C11.1 53.8 11.1 53.7 11.2 53.7C11.2 53.6 11.3001 53.6 11.4001 53.6C11.4001 53.6 11.4001 53.6 11.4001 53.7Z" fill="#F8BE3B"/>
<path d="M12.3001 52.5C12.2001 52.6 12.0001 52.7 11.9001 52.7C11.8001 52.7 11.8001 52.6 11.9001 52.4C12.0001 52.3 12.2001 52.2 12.3001 52.2C12.4001 52.2 12.4001 52.3 12.3001 52.5Z" fill="#FFF4DE"/>
<path d="M11.9001 52.4C12.0001 52.5 11.9001 52.6 11.8001 52.7C11.7001 52.8 11.5 52.8 11.5 52.7C11.4 52.6 11.5 52.5 11.6 52.4C11.7 52.4 11.8001 52.4 11.9001 52.4Z" fill="#FFF4DE"/>
<path d="M11.5 52.8001C11.7 52.7001 11.8 52.8001 11.8 52.9001C11.8 53.0001 11.7 53.1 11.5 53.2C11.3 53.3 11.2 53.2 11.2 53.1C11.2 52.9 11.3 52.8001 11.5 52.8001Z" fill="#FFF4DE"/>
<path d="M11.5 53.1C11.6 53 11.7001 52.9 11.9001 52.9C12.0001 52.9 12.0001 53 11.9001 53.2C11.8001 53.3 11.7 53.4 11.5 53.4C11.4 53.3 11.4 53.2 11.5 53.1Z" fill="#FFF4DE"/>
<path d="M11.9001 53.1C11.8001 53 11.9 52.9001 12 52.8001C12.1 52.7001 12.3001 52.7001 12.3001 52.8001C12.4001 52.9001 12.3 53 12.2 53.1C12.1 53.2 12.0001 53.2 11.9001 53.1Z" fill="#FFF4DE"/>
<path d="M12.3 52.8001C12.1 52.9001 12 52.8 12 52.7C12 52.6 12.1 52.5001 12.3 52.4001C12.5 52.3001 12.6 52.4 12.6 52.5C12.6 52.6 12.5 52.8001 12.3 52.8001Z" fill="#FFF4DE"/>
<path d="M12.1 52.8C12 52.9 11.9 53 11.8 53C11.7 53 11.7 52.9 11.7 52.8C11.8 52.7 11.9 52.6 12 52.6C12.2 52.6 12.2 52.7 12.1 52.8Z" fill="#F8BE3B"/>
<path d="M8.90007 52.6C9.00007 52.7 9.1 52.9 9.2 52.9C9.3 52.9 9.30009 52.8 9.30009 52.7C9.20009 52.6 9.10004 52.4 9.00004 52.4C8.90004 52.4 8.80007 52.5 8.90007 52.6Z" fill="#FFF4DE"/>
<path d="M9.3001 52.7C9.2001 52.8 9.2001 52.9 9.3001 53C9.4001 53.1 9.50002 53.1 9.60002 53.1C9.70002 53 9.70002 52.9001 9.60002 52.8001C9.60002 52.7001 9.4001 52.6 9.3001 52.7Z" fill="#FFF4DE"/>
<path d="M9.69995 53.1C9.59995 53 9.40002 53 9.40002 53.1C9.40002 53.2 9.49995 53.3001 9.69995 53.4001C9.79995 53.5001 10 53.5001 10 53.4001C9.9 53.3001 9.79995 53.2 9.69995 53.1Z" fill="#FFF4DE"/>
<path d="M9.59998 53.4C9.49998 53.3 9.40005 53.1 9.30005 53.1C9.20005 53.1 9.19995 53.2 9.19995 53.3C9.29995 53.4 9.4 53.6 9.5 53.6C9.7 53.7 9.69998 53.6 9.59998 53.4Z" fill="#FFF4DE"/>
<path d="M9.2 53.4C9.3 53.3 9.3 53.2 9.2 53.1C9.1 53 9.00007 53 8.90007 53C8.80007 53.1 8.80007 53.2 8.90007 53.3C9.00007 53.4 9.1 53.4 9.2 53.4Z" fill="#FFF4DE"/>
<path d="M8.90002 53C9.00002 53.1 9.19995 53.1 9.19995 53C9.19995 52.9 9.10002 52.8 8.90002 52.7C8.70002 52.6 8.59998 52.6 8.59998 52.7C8.59998 52.7 8.70002 52.9 8.90002 53Z" fill="#FFF4DE"/>
<path d="M9.10002 53C9.20002 53.1 9.30007 53.2 9.40007 53.2C9.50007 53.2 9.60004 53.1 9.50004 53C9.40004 52.9 9.3 52.8 9.2 52.8C9.1 52.8 9.00002 52.9 9.10002 53Z" fill="#F8BE3B"/>
<path d="M11.6 53.8C11 53.6 10.7 54.4 10.7 54.8C10.7 54.5 11 53.7 11.6 53.8C11.6 53.9 11.6 53.9 11.6 53.8Z" fill="#55AF37"/>
<path d="M8.90002 53.8C9.50002 53.6 9.80005 54.4 9.80005 54.8C9.70005 54.5 9.50002 53.7 8.90002 53.8C8.90002 53.9 8.90002 53.9 8.90002 53.8Z" fill="#55AF37"/>
<path d="M8.30005 50C8.40005 50 8.50002 50.1 8.40002 50.2C8.30002 50.2 8.29995 50.3 8.19995 50.3H8.09998H8V50.2C8 50.1 8.20005 50 8.30005 50Z" fill="#FFF4DE"/>
<path d="M8.09998 50.3C8.29998 50.3 8.29995 50.4 8.19995 50.5C8.19995 50.6 8.1 50.6 8 50.7H7.90002C7.80002 50.7 7.80005 50.7 7.80005 50.7C7.80005 50.7 7.80005 50.6 7.80005 50.5C7.80005 50.4 7.9 50.4 8 50.3C8 50.4 8.09998 50.3 8.09998 50.3Z" fill="#F8BE3B"/>
<path d="M8.59998 50.2C8.69998 50.2 8.69995 50.2 8.69995 50.3C8.69995 50.4 8.60002 50.5 8.40002 50.6C8.30002 50.6 8.30005 50.6 8.30005 50.6C8.30005 50.6 8.29995 50.6 8.19995 50.6C8.19995 50.5 8.19995 50.4 8.19995 50.4C8.19995 50.4 8.30002 50.3 8.40002 50.3C8.50002 50.2 8.49998 50.2 8.59998 50.2Z" fill="#FFF4DE"/>
<path d="M8.40002 50.5C8.50002 50.6 8.50002 50.7 8.40002 50.8C8.30002 50.9 8.29995 50.9 8.19995 50.9C8.09995 50.9 8.09998 50.9 8.09998 50.9V50.8C8.19998 50.8 8.30005 50.7 8.30005 50.6C8.30005 50.6 8.30002 50.6 8.40002 50.6C8.30002 50.6 8.40002 50.6 8.40002 50.5Z" fill="#FFF4DE"/>
<path d="M7.80009 50.7H7.90007H8.00004V50.8C7.90004 50.9 7.8 51 7.7 51.1C7.6 51.1 7.50002 51 7.60002 50.9C7.70002 50.8 7.70009 50.8 7.80009 50.7Z" fill="#FFF4DE"/>
<path d="M7.69995 50.5C7.79995 50.6 7.79995 50.6 7.69995 50.5C7.69995 50.6 7.69995 50.7 7.69995 50.7C7.59995 50.7 7.59998 50.8 7.59998 50.9C7.49998 50.9 7.50002 50.9 7.40002 50.9C7.30002 50.9 7.30005 50.9 7.30005 50.8C7.30005 50.7 7.39998 50.6 7.59998 50.5C7.59998 50.6 7.69995 50.5 7.69995 50.5Z" fill="#FFF4DE"/>
<path d="M7.8001 50.2C7.9001 50.2 7.90007 50.2 7.90007 50.2V50.3C7.80007 50.3 7.7 50.4 7.7 50.5H7.60002C7.50002 50.4 7.50002 50.3 7.60002 50.2C7.60002 50.2 7.7001 50.2 7.8001 50.2Z" fill="#FFF4DE"/>
<path d="M10.8 52C10.8 52.2 10.7 52.3 10.5 52.3C10.4 52.3 10.3 52.1 10.3 52C10.3 51.8 10.4 51.7 10.6 51.7C10.7 51.7 10.8 51.8 10.8 52Z" fill="#FFF4DE"/>
<path d="M10.3001 52C10.4001 52.1 10.5001 52.3001 10.4001 52.4001C10.3001 52.5001 10.2 52.5001 10 52.4001C9.90004 52.3001 9.80007 52.1 9.90007 52C9.90007 51.9 10.1001 51.9 10.3001 52Z" fill="#FFF4DE"/>
<path d="M10.0001 52.4001C10.2001 52.3001 10.3001 52.4 10.4001 52.5C10.5001 52.6 10.4 52.8001 10.2 52.8001C10 52.9001 9.9001 52.8 9.8001 52.7C9.7001 52.6 9.80005 52.5001 10.0001 52.4001Z" fill="#FFF4DE"/>
<path d="M10.2 52.8C10.2 52.6 10.3 52.5 10.5 52.5C10.6 52.5 10.7 52.7 10.7 52.8C10.7 53 10.6 53.1 10.4 53.1C10.3 53.2 10.2 53 10.2 52.8Z" fill="#FFF4DE"/>
<path d="M10.7 52.9001C10.6 52.8001 10.5 52.6 10.6 52.5C10.7 52.4 10.8 52.4 11 52.5C11.1 52.6 11.2 52.8001 11.1 52.9001C11 53.0001 10.8 53.0001 10.7 52.9001Z" fill="#FFF4DE"/>
<path d="M11 52.4001C10.8 52.5001 10.7 52.4001 10.6 52.3001C10.5 52.2001 10.6001 52 10.8001 52C11.0001 51.9 11.1 52 11.2 52.1C11.2 52.2 11.1 52.4001 11 52.4001Z" fill="#FFF4DE"/>
<path d="M10.7 52.4C10.7 52.5 10.6 52.6 10.4 52.6C10.3 52.6 10.2 52.5 10.2 52.3C10.2 52.2 10.3 52.1 10.5 52.1C10.7 52.2 10.8 52.3 10.7 52.4Z" fill="#F8BE3B"/>
<path d="M10.3 53.5C10.3 53.6 10.2 53.7 10.2 53.6C10.1 53.6 10.1 53.5001 10.1 53.4001C10.1 53.3001 10.2 53.2001 10.2 53.3001C10.3 53.3001 10.3 53.4 10.3 53.5Z" fill="#FFF4DE"/>
<path d="M10.1 53.5C10.2 53.6 10.2 53.6 10.2 53.7C10.2 53.8 10.1 53.8 10 53.7C9.9 53.6 9.90002 53.6 9.90002 53.5C9.90002 53.4 9.99998 53.4 10.1 53.5Z" fill="#FFF4DE"/>
<path d="M9.90002 53.7C10 53.7 10.1 53.7 10.1 53.7C10.1 53.8 10.1 53.8 10 53.9C9.9 53.9 9.80005 53.9 9.80005 53.9C9.80005 53.8 9.80002 53.7 9.90002 53.7Z" fill="#FFF4DE"/>
<path d="M10 53.9001C10 53.8001 10.1 53.7001 10.1 53.8001C10.2 53.8001 10.2 53.9 10.2 54C10.2 54.1 10.1 54.2 10.1 54.1C10.1 54.1 10 54.0001 10 53.9001Z" fill="#FFF4DE"/>
<path d="M10.3 53.9001C10.2 53.8001 10.2 53.8 10.2 53.7C10.2 53.6 10.3 53.6 10.4 53.7C10.5 53.8 10.5 53.8001 10.5 53.9001C10.5 54.0001 10.4 54.0001 10.3 53.9001Z" fill="#FFF4DE"/>
<path d="M10.4 53.7C10.3 53.7 10.2 53.7 10.2 53.7C10.2 53.6 10.2 53.6 10.3 53.5C10.4 53.5 10.5 53.5 10.5 53.5C10.6 53.6 10.5 53.7 10.4 53.7Z" fill="#FFF4DE"/>
<path d="M10.3 53.7C10.3 53.8 10.2 53.8 10.2 53.8C10.1 53.8 10.1 53.7 10.1 53.7C10.1 53.6 10.2 53.6 10.2 53.6C10.3 53.6 10.3 53.6 10.3 53.7Z" fill="#F8BE3B"/>
<path d="M9.09998 53.3C8.79998 52.8 8.40002 52.4 7.90002 52.2C7.90002 52.2 8 52.2 8 52.3C8.9 52.9 9.60005 53.9 9.80005 55C9.70005 54.3 9.39998 53.8 9.09998 53.3Z" fill="#4EA733"/>
<path d="M7.50004 51.8C7.60004 51.9 7.7 52 7.7 52C7.8 52 7.80009 51.9 7.80009 51.8C7.70009 51.7 7.60002 51.6 7.60002 51.6C7.50002 51.7 7.40004 51.7 7.50004 51.8Z" fill="#FFF4DE"/>
<path d="M7.8001 51.9001C7.7001 51.9001 7.7001 52 7.8001 52.1C7.9001 52.2 8.00002 52.2 8.10002 52.2C8.20002 52.2 8.20002 52.1 8.10002 52C8.00002 51.9 7.9001 51.8001 7.8001 51.9001Z" fill="#FFF4DE"/>
<path d="M8.09998 52.2C7.99998 52.1 7.90002 52.1 7.90002 52.2C7.90002 52.3 7.99998 52.4001 8.09998 52.4001C8.19998 52.5001 8.30005 52.5001 8.30005 52.4001C8.30005 52.4001 8.19998 52.3 8.09998 52.2Z" fill="#FFF4DE"/>
<path d="M8 52.5C7.9 52.4 7.80005 52.3 7.80005 52.3C7.70005 52.3 7.69995 52.4 7.69995 52.5C7.69995 52.6 7.90002 52.7 7.90002 52.7C8.10002 52.6 8.1 52.6 8 52.5Z" fill="#FFF4DE"/>
<path d="M7.7 52.4C7.8 52.4 7.8 52.3 7.7 52.2C7.6 52.1 7.50007 52.1 7.40007 52.1C7.30007 52.1 7.30007 52.2 7.40007 52.3C7.50007 52.4 7.7 52.5 7.7 52.4Z" fill="#FFF4DE"/>
<path d="M7.40002 52.1C7.50002 52.2 7.59998 52.2 7.59998 52.1C7.59998 52 7.50002 51.9001 7.40002 51.9001C7.30002 51.8001 7.19995 51.8001 7.19995 51.9001C7.19995 51.9001 7.30002 52 7.40002 52.1Z" fill="#FFF4DE"/>
<path d="M7.59998 52.1C7.59998 52.2 7.80005 52.3 7.80005 52.3C7.90005 52.3 7.90002 52.2 7.90002 52.1C7.90002 52 7.79995 51.9 7.69995 51.9C7.59995 52 7.59998 52 7.59998 52.1Z" fill="#F8BE3B"/>
<path d="M10.8 51.8C10.7 51.1 10.4 50.1 9.90002 49.6H9.80005C10.2 50.1 10.5 51 10.6 51.6C10.7 51.7 10.7 51.8 10.8 51.8Z" fill="#4EA733"/>
<path d="M10.5 49.2C10.6 49.2 10.7 49.3 10.6 49.5C10.5 49.5 10.4 49.6 10.4 49.6H10.3H10.2C10.2 49.5 10.2 49.5 10.2 49.5C10.2 49.3 10.4 49.2 10.5 49.2Z" fill="#FFF4DE"/>
<path d="M10.3 49.6C10.5 49.7 10.5 49.7 10.4 49.8C10.3 49.9 10.2 49.9 10.1 50H10C9.9 50 9.90002 50 9.90002 50C9.90002 50 9.90002 49.9 9.90002 49.8C10 49.7 10.1 49.7 10.2 49.6C10.2 49.6 10.2 49.6 10.3 49.6Z" fill="#F8BE3B"/>
<path d="M10.8 49.5C10.9 49.5 10.9 49.5 10.9 49.6C10.9 49.7 10.8 49.8 10.6 49.9C10.6 49.9 10.6 49.9 10.5 49.9C10.4 49.9 10.4 49.9 10.3 49.9C10.3 49.9 10.3 49.9 10.2 49.9C10.3 49.8 10.2 49.7 10.2 49.7C10.3 49.7 10.3 49.6 10.4 49.6C10.4 49.6 10.4 49.6 10.5 49.6C10.7 49.5 10.8 49.5 10.8 49.5Z" fill="#FFF4DE"/>
<path d="M10.6 49.9C10.7 50 10.7 50.1 10.6 50.2C10.5 50.3 10.4 50.3 10.3 50.3C10.2 50.3 10.2 50.3 10.1 50.2V50.1C10.2 50.1 10.3 50 10.4 49.9C10.4 49.9 10.4 49.9 10.5 49.9C10.5 49.9 10.5 49.9 10.6 49.9Z" fill="#FFF4DE"/>
<path d="M9.90007 50H10H10.1C10.1 50.1 10.1 50.1 10.1 50.1C10 50.2 9.8 50.4 9.7 50.4C9.6 50.4 9.50002 50.3 9.60002 50.1C9.70002 50.1 9.80007 50.1 9.90007 50Z" fill="#FFF4DE"/>
<path d="M9.80005 49.8C9.90005 49.8 9.90005 49.8 9.80005 49.8C9.80005 49.9 9.80005 50 9.80005 50C9.70005 50 9.69998 50.1 9.59998 50.2C9.59998 50.2 9.6 50.2 9.5 50.2C9.4 50.2 9.30005 50.2 9.30005 50.2C9.20005 50.2 9.19995 50.2 9.19995 50.1C9.19995 50 9.3 49.9 9.5 49.8C9.5 49.8 9.49998 49.8 9.59998 49.8C9.69998 49.8 9.80005 49.8 9.80005 49.8Z" fill="#FFF4DE"/>
<path d="M9.90007 49.4C10.0001 49.4 10 49.4 10.1 49.5V49.6C10 49.6 9.9001 49.7 9.8001 49.8C9.8001 49.8 9.8 49.8 9.7 49.8C9.7 49.8 9.60005 49.8 9.50005 49.8C9.40005 49.7 9.40005 49.6 9.50005 49.5C9.70005 49.4 9.80007 49.4 9.90007 49.4Z" fill="#FFF4DE"/>
<path d="M11.4 57.2L11.5 54.7H9L9.09998 57.2H11.4Z" fill="#E52926"/>
<path d="M9 55.2L9.09998 55.6H11.5V55.2H9Z" fill="#FFF4DE"/>
<path d="M9.09998 39.4C9.09998 40.9 8.10002 42.1 6.90002 42.1C5.70002 42.1 4.69995 40.9 4.69995 39.4C4.69995 37.9 5.70002 36.7 6.90002 36.7C8.20002 36.7 9.09998 37.9 9.09998 39.4Z" fill="#A1B41D"/>
<path d="M6.90002 37.3C6.90002 37.4 6.79995 37.5 6.69995 37.5C6.59995 37.5 6.5 37.4 6.5 37.3C6.5 37.2 6.59995 37.1 6.69995 37.1C6.79995 37.1 6.90002 37.2 6.90002 37.3Z" fill="#B2C70B"/>
<path d="M5.80005 38.2C5.80005 38.3 5.69998 38.4 5.59998 38.4C5.49998 38.4 5.40002 38.3 5.40002 38.2C5.40002 38.1 5.49998 38 5.59998 38C5.69998 38 5.80005 38.1 5.80005 38.2Z" fill="#B2C70B"/>
<path d="M7.80005 38.1C7.80005 38.2 7.69998 38.3 7.59998 38.3C7.49998 38.3 7.40002 38.2 7.40002 38.1C7.40002 38 7.49998 37.9 7.59998 37.9C7.69998 37.9 7.80005 38 7.80005 38.1Z" fill="#B2C70B"/>
<path d="M6.69995 39C6.69995 39.1 6.6 39.2 6.5 39.2C6.4 39.2 6.30005 39.1 6.30005 39C6.30005 38.9 6.4 38.8 6.5 38.8C6.6 38.8 6.69995 38.9 6.69995 39Z" fill="#B2C70B"/>
<path d="M5.59998 39.9C5.59998 40 5.50002 40.1 5.40002 40.1C5.30002 40.1 5.19995 40 5.19995 39.9C5.19995 39.8 5.30002 39.7 5.40002 39.7C5.50002 39.7 5.59998 39.8 5.59998 39.9Z" fill="#B2C70B"/>
<path d="M8.59998 38.9001C8.59998 39.0001 8.50002 39.1 8.40002 39.1C8.30002 39.1 8.19995 39.0001 8.19995 38.9001C8.19995 38.8001 8.30002 38.7 8.40002 38.7C8.50002 38.6 8.59998 38.7001 8.59998 38.9001Z" fill="#B2C70B"/>
<path d="M7.5 40.0001C7.5 40.1001 7.40005 40.2 7.30005 40.2C7.20005 40.2 7.09998 40.1001 7.09998 40.0001C7.09998 39.9001 7.20005 39.8001 7.30005 39.8001C7.40005 39.7001 7.5 39.8001 7.5 40.0001Z" fill="#B2C70B"/>
<path d="M8.80005 40.2C8.80005 40.3 8.69998 40.4001 8.59998 40.4001C8.49998 40.4001 8.40002 40.3 8.40002 40.2C8.40002 40.1 8.49998 40.0001 8.59998 40.0001C8.69998 39.9001 8.80005 40 8.80005 40.2Z" fill="#B2C70B"/>
<path d="M6.5 40.6C6.5 40.7 6.40005 40.8001 6.30005 40.8001C6.20005 40.8001 6.09998 40.7 6.09998 40.6C6.09998 40.5 6.20005 40.4001 6.30005 40.4001C6.50005 40.3001 6.5 40.4 6.5 40.6Z" fill="#B2C70B"/>
<path d="M10 40.1H6V43.3H10V40.1Z" fill="#9CA6C2"/>
<path d="M7.90002 40.1H3.90002V43.3H7.90002V40.1Z" fill="#B4BFD9"/>
<path d="M58.6 27.2C58.2 26.8 57.1 26.5 57.2 25.7C57.2 25.4 57.5001 25.1 57.9001 25.1C58.1001 25.1 58.4001 25.5 58.3001 25.7C58.2001 25.9 58.0001 25.8 57.9001 25.7C57.6001 25.5 57.5 25 57.5 24.6C57.5 24.4 57.7 23.8 58 23.9C58.2 23.9 58.2 24.2 58.2 24.3C57.9 23.9 58.5001 23 58.9001 22.8C59.2001 22.6 59.5 22.7 59.7 23C59.7 23.1 59.9001 23.4 59.8001 23.5C59.7001 23.3 59.8001 23.1 59.8001 22.9C60.0001 22.5 60.3 22 60.7 21.9C61.1 21.8 61.5 22 61.7 22.4C61.7 22.6 61.8 22.9 61.6 23C61.5 22.8 61.7 22.5 61.7 22.4C61.9 22 62.2 21.6 62.6 21.5C63.3 21.5 63.5 22.6 63 23C62.9 22.6 63.4001 22 63.8001 22.2C64.4001 22.4 63.9001 23.5 63.8001 23.8C63.9001 23.7 64 23.5 64.1 23.5C64.4 23.4 64.6 23.8 64.6 24.1C64.7 24.5 64.7 24.9 64.5 25.2C64.4 25.3 64.3 25.6 64.1 25.6C64.2 25.5 64.3001 25.6 64.4001 25.7C64.5001 26 64.4 26.4 64.2 26.6C63.9 27 63.3001 27.3 62.9001 27.6C62.4001 28 61.8 28.3 61.1 28.3C60.3 28.3 59.4 28.1 58.7 27.8C58.3 27.7 57.7001 27.6 57.4001 27.3C57.1001 27.1 57.2001 26.8 57.3001 26.5C57.5001 26.1 57.8 26.1 58.1 26.3L58.6 27.2Z" fill="#7EB034"/>
<path d="M61.3 28.1C61 28 60.6999 27.5 60.5999 27.3C60.4999 27 60.3 25.9 60.8 25.9C60.8 26 60.8 26.1 60.8 26.2C60.7 25.8 61.1 25.2 61.4 25C61.6 24.9 61.7 24.8 61.8 25C61.8 25.1 61.8 25.3 61.8 25.3C61.8 25 62.1 24.5 62.5 24.5C62.9 24.5 63.1 25.2 63 25.5C62.9 25.2 63.3999 24.6 63.6999 24.7C64.0999 24.8 63.9999 25.8 63.6999 26C63.5999 25.7 64.1 25.7 64.3 25.8C64.6 26.1 64.8999 26.8 64.6999 27.2C64.4999 27.8 63.6 28.1 63 28.2C62.5 28.3 61.8 28.3 61.3 28C60.8 27.7 60.8 27.2 61 26.7L61.3 28.1Z" fill="#B4CE4B"/>
<path d="M58.3 28.1C57.7 27.8 57.4 26.9 57.6 26.3C57.8 25.7 58.4 26.5 58 26.5C57.8 26.5 57.4 26.2 57.3 26C57.1 25.7 57.0999 25.3 57.1999 25C57.3999 24.3 57.6 25.1999 57.4 25.1999C57.3 25.0999 57.3 24.7999 57.3 24.6999C57.3 24.1999 57.5 23.8 57.9 23.6C58.2 23.3 58.7 23.2 59.1 23.5C59.3 23.7 59.3999 23.9999 59.1999 24.1999C59.0999 24.2999 59 24.2999 59 24.1999C58.9 23.8999 59.4999 23.7 59.6999 23.6C60.2999 23.6 60.6 24.6 60.1 24.9C60.1 24.8 60.3 24.6999 60.5 24.6999C60.9 24.6999 61 25.1 61 25.4C61 26 60.5 26.8 59.8 26.8C59.9 26.7 60.2 26.7 60.3 26.8C60.6 27 60.3 27.4999 60.1 27.6999C59.8 28.0999 59.1999 28.4 58.6999 28.4C58.2999 28.3 57.8 28 57.8 27.5L58.3 28.1Z" fill="#A1B41D"/>
<path d="M65.1 26.8H59.6V28.9H65.1V26.8Z" fill="#9CA6C2"/>
<path d="M62.3 26.8H56.8V28.9H62.3V26.8Z" fill="#B4BFD9"/>
<path d="M25.3 18.7H22.6V28.9H25.3V18.7Z" fill="#7CBA52"/>
<path d="M28.7 22.5H23.9V28.9H28.7V22.5Z" fill="#06151F"/>
<path d="M30 20.9H27V28.9H30V20.9Z" fill="#B3C4C0"/>
<path d="M29.9 21.6H28.2V28.9H29.9V21.6Z" fill="#2A7D90"/>
<path d="M32.1 20.5H30.9V28.9H32.1V20.5Z" fill="#CA1517"/>
<path d="M22.6 18.7H19.9V28.9H22.6V18.7Z" fill="#A0C863"/>
<path d="M24 22.5H22.6V28.9H24V22.5Z" fill="#0B344F"/>
<path d="M27 20.9H26V28.9H27V20.9Z" fill="#DEEFEC"/>
<path d="M28.2 21.6H27V28.9H28.2V21.6Z" fill="#3DBDD9"/>
<path d="M30.4 20.5H29.2V28.9H30.4V20.5Z" fill="#514E71"/>
<path d="M34.5 20.5H30.4V28.9H34.5V20.5Z" fill="#38354D"/>
<path d="M40 19.2H36.4V28.9H40V19.2Z" fill="#CE9E11"/>
<path d="M36.5 19.2H33.7V28.9H36.5V19.2Z" fill="#FCC016"/>
<path d="M44.1 19.5H40.2V29H44.1V19.5Z" fill="#454A1B"/>
<path d="M40.2 19.5H37.6V29H40.2V19.5Z" fill="#778125"/>
<path d="M45.1 21.5H41.8V28.9H45.1V21.5Z" fill="#C01818"/>
<path d="M41.8 21.5H40.2V28.9H41.8V21.5Z" fill="#E52926"/>
<path d="M46.8 24H43.5V28.9H46.8V24Z" fill="#0C2030"/>
<path d="M43.5 24H41.8V28.9H43.5V24Z" fill="#094466"/>
<path d="M18.3 24.4H6.09998V27H18.3V24.4Z" fill="#62882D"/>
<path d="M18.4 24.7H16V26.7H18.4V24.7Z" fill="#DCDCDC"/>
<path d="M15.7 24.4H5.19995V27H15.7V24.4Z" fill="#7EB034"/>
<path d="M17 22.4H5.30005V24.3H17V22.4Z" fill="#9D271F"/>
<path d="M17 22.7H14.3V24H17V22.7Z" fill="#DCDCDC"/>
<path d="M14 22.4H4.40002V24.3H14V22.4Z" fill="#E4372E"/>
<path d="M18.6 27H5.30005V28.9H18.6V27Z" fill="#46AEAA"/>
<path d="M18.6 27.3H15.2V28.6H18.6V27.3Z" fill="#DCDCDC"/>
<path d="M14.9 27H4.40002V28.9H14.9V27Z" fill="#6AC3C7"/>
</svg>