<svg xmlns="http://www.w3.org/2000/svg" fill="none" viewBox="0 0.1 120.5 115.1">
<path d="M95.6 94.2H90.9V115.2H95.6V94.2Z" fill="#23130C"/>
<path d="M92.3 94.2H87.6V115.2H92.3V94.2Z" fill="#3D1E0F"/>
<path d="M13 94.2H8.30005V115.2H13V94.2Z" fill="#23130C"/>
<path d="M9.59998 94.2H4.90002V115.2H9.59998V94.2Z" fill="#3D1E0F"/>
<path d="M117.7 94.2H113V115.2H117.7V94.2Z" fill="#1A120E"/>
<path d="M114.4 94.2H109.7V115.2H114.4V94.2Z" fill="#23130C"/>
<path d="M35.9 94.2H31.2V115.2H35.9V94.2Z" fill="#1A120E"/>
<path d="M32.6 94.2H27.9V115.2H32.6V94.2Z" fill="#23130C"/>
<path d="M120.5 0.0999756H77.1V109.7H120.5V0.0999756Z" fill="#23130C"/>
<path d="M51.1 0.0999756H46.2H0V109.7H46.2H51.1H97.3V0.0999756H51.1Z" fill="#421F10"/>
<path d="M92.3 35.3H51.1V104.8H92.3V35.3Z" fill="#6A2D0D"/>
<path d="M92.3 5.59998H51.1V30.1H92.3V5.59998Z" fill="#6A2D0D"/>
<path d="M46.1 35.3H4.90002V104.8H46.1V35.3Z" fill="#6A2D0D"/>
<path d="M46.1 5.59998H4.90002V30.1H46.1V5.59998Z" fill="#6A2D0D"/>
<path d="M57.3 54.2H54.1V66.4H57.3V54.2Z" fill="#F8AC2F"/>
<path d="M43.2 54.2H40V66.4H43.2V54.2Z" fill="#F8AC2F"/>
<path d="M54.9 15.3H53.3V22.7H54.9V15.3Z" fill="#F8AC2F"/>
<path d="M44 15.3H42.4V22.7H44V15.3Z" fill="#F8AC2F"/>
</svg>