<svg xmlns="http://www.w3.org/2000/svg" fill="none" viewBox="0.1 0 38.4 64.3">
<path d="M16.3 41.2H13.7V64.3H16.3V41.2Z" fill="#090606"/>
<path d="M38.1 41.2H35.5V64.3H38.1V41.2Z" fill="#090606"/>
<path d="M5.30005 41.2H2.69995V64.3H5.30005V41.2Z" fill="#090606"/>
<path d="M27.2 41.2H24.6V64.3H27.2V41.2Z" fill="#090606"/>
<path d="M14.5 32.9V19.8H37.1V32.9H38.5V3.59998C38.5 1.59998 32.8 0 25.8 0C18.8 0 13.1 1.59998 13.1 3.59998V32.9H14.5ZM14.5 10.9H37.1V14.6H14.5V10.9Z" fill="#090606"/>
<path d="M15.7 8.59998H13V36.2H15.7V8.59998Z" fill="#090606"/>
<path d="M38.4 8.59998H35.7V36.2H38.4V8.59998Z" fill="#090606"/>
<path d="M13.5 32.9V19.8H36.1V32.9H37.5V3.59998C37.5 1.59998 31.8 0 24.8 0C17.8 0 12.1 1.59998 12.1 3.59998V32.9H13.5ZM13.5 10.9H36.1V14.6H13.5V10.9Z" fill="#292B2F"/>
<path d="M14.8 8.59998H12.1V36.2H14.8V8.59998Z" fill="#292B2F"/>
<path d="M37.5 8.59998H34.8V36.2H37.5V8.59998Z" fill="#292B2F"/>
<path d="M14.8 41.2H12.2V64.3H14.8V41.2Z" fill="#1F2124"/>
<path d="M36.6 41.2H34V64.3H36.6V41.2Z" fill="#1F2124"/>
<path d="M38.2 40.1H11.5V42.4H38.2V40.1Z" fill="#090606"/>
<path d="M38.4 35.8H13V40.1H38.4V35.8Z" fill="#801810"/>
<path d="M3.80005 41.2H1.19995V64.3H3.80005V41.2Z" fill="#292B2F"/>
<path d="M25.7 41.2H23.1V64.3H25.7V41.2Z" fill="#292B2F"/>
<path d="M26.8 40.1H0.0999756V42.4H26.8V40.1Z" fill="#292B2F"/>
<path d="M26.2 35.8H0.800049V40.1H26.2V35.8Z" fill="#BA1818"/>
<path d="M35.4 25.1H14.3V29.9H35.4V25.1Z" fill="#292B2F"/>
</svg>