<svg xmlns="http://www.w3.org/2000/svg" fill="none" viewBox="0.9 0.2 44.34 70.1">
<path d="M17.3 68.9C17.3 68.1 16.7 67.5 15.9 67.5C15.1 67.5 14.5 68.1 14.5 68.9C14.5 69.7 15.1 70.3 15.9 70.3C16.7 70.3 17.3 69.7 17.3 68.9Z" fill="#808181"/>
<path d="M15.9 67.5H15.6V70.2H15.9V67.5Z" fill="#808181"/>
<path d="M17 68.9C17 68.1 16.4 67.5 15.6 67.5C14.8 67.5 14.2 68.1 14.2 68.9C14.2 69.7 14.8 70.3 15.6 70.3C16.4 70.3 17 69.7 17 68.9Z" fill="#B4B4B4"/>
<path d="M27.9 68.9C27.9 68.1 27.3 67.5 26.5 67.5C25.7 67.5 25.1 68.1 25.1 68.9C25.1 69.7 25.7 70.3 26.5 70.3C27.3 70.3 27.9 69.7 27.9 68.9Z" fill="#808181"/>
<path d="M26.5 67.5H26.2V70.2H26.5V67.5Z" fill="#808181"/>
<path d="M27.6 68.9C27.6 68.1 27 67.5 26.2 67.5C25.4 67.5 24.8 68.1 24.8 68.9C24.8 69.7 25.4 70.3 26.2 70.3C27 70.3 27.6 69.7 27.6 68.9Z" fill="#B4B4B4"/>
<path d="M34.9 68.9C34.9 68.1 34.3 67.5 33.5 67.5C32.7 67.5 32.1 68.1 32.1 68.9C32.1 69.7 32.7 70.3 33.5 70.3C34.3 70.3 34.9 69.7 34.9 68.9Z" fill="#5D5D5D"/>
<path d="M33.5 67.5H33.2V70.2H33.5V67.5Z" fill="#5D5D5D"/>
<path d="M31.8 68.9C31.8 68.1 32.4 67.5 33.2 67.5C34 67.5 34.6 68.1 34.6 68.9C34.6 69.7 34 70.3 33.2 70.3C32.4 70.3 31.8 69.7 31.8 68.9Z" fill="#808181"/>
<path d="M29.9 54.2H24.2V67.4H29.9V54.2Z" fill="#1D1F21"/>
<path d="M15 43.1H10.9V47.2H15V43.1Z" fill="#2F3337"/>
<path d="M14.4 43.1H10.3V47.2H14.4V43.1Z" fill="#484D53"/>
<path d="M15.9999 40.5C15.1999 39.7 13.0999 39.6 12.4999 39.6C11.7999 39.6 9.79995 39.7 8.99995 40.5C7.99995 41.5 8.49999 42.7 9.29999 43C9.99999 43.2 11.2999 43.3 12.5999 43.3C13.8999 43.3 15.2 43.2 15.9 43C16.4 42.7 16.9999 41.5 15.9999 40.5Z" fill="#4AB5B2"/>
<path d="M41.6 43.1H37.5V47.2H41.6V43.1Z" fill="#2F3337"/>
<path d="M41 43.1H36.9V47.2H41V43.1Z" fill="#484D53"/>
<path d="M42.5999 40.5C41.7999 39.7 39.6999 39.6 39.0999 39.6C38.3999 39.6 36.3999 39.7 35.5999 40.5C34.5999 41.5 35.1 42.7 35.9 43C36.6 43.2 37.8999 43.3 39.1999 43.3C40.4999 43.3 41.7999 43.2 42.4999 43C42.9999 42.7 43.5999 41.5 42.5999 40.5Z" fill="#4AB5B2"/>
<path d="M25 54.2H19.3V67.4H25V54.2Z" fill="#393C41"/>
<path d="M35.3 67.5H20.8V69H35.3V67.5Z" fill="#1D1F21"/>
<path d="M28.3 67.5H13.8V69H28.3V67.5Z" fill="#393C41"/>
<path d="M34.8 29.2H26.9V47.2H34.8V29.2Z" fill="#1C1E20"/>
<path d="M32.7 29.2H24.8V47.2H32.7V29.2Z" fill="#383D41"/>
<path d="M45.1999 25.8C45.6999 31 40.9999 35.2 34.6999 35.2H28.0999C21.7999 35.2 17.0999 31 17.5999 25.8L19.1999 9.59998C19.6999 4.39998 25.2 0.199951 31.4 0.199951C37.6 0.199951 43.0999 4.39998 43.5999 9.59998L45.1999 25.8Z" fill="#4AB5B2"/>
<path d="M42.0999 25.8C42.5999 31 37.8999 35.2 31.5999 35.2H25C18.7 35.2 14 31 14.5 25.8L16.0999 9.59998C16.5999 4.39998 22.1 0.199951 28.3 0.199951C34.5 0.199951 40 4.39998 40.5 9.59998L42.0999 25.8Z" fill="#6AC3C7"/>
<path d="M35.9 43.1H31.8V45.7H35.9V43.1Z" fill="#2F3337"/>
<path d="M35.3 43.1H31.2V45.7H35.3V43.1Z" fill="#484D53"/>
<path d="M39 39.6H33.2V43.3H39V39.6Z" fill="#4AB5B2"/>
<path d="M36.8 40.5C36 39.7 33.9 39.6 33.3 39.6C32.6 39.6 30.6 39.7 29.8 40.5C28.8 41.5 29.3 42.7 30.1 43C30.8 43.2 32.1 43.3 33.4 43.3C34.7 43.3 35.9999 43.2 36.6999 43C37.1999 42.7 37.8 41.5 36.8 40.5Z" fill="#78C8D0"/>
<path d="M9.30005 43.1H5.19995V45.7H9.30005V43.1Z" fill="#2F3337"/>
<path d="M8.69995 43.1H4.59998V45.7H8.69995V43.1Z" fill="#484D53"/>
<path d="M12.4 39.6H6.59998V43.3H12.4V39.6Z" fill="#4AB5B2"/>
<path d="M10.1999 40.5C9.3999 39.7 7.2999 39.6 6.6999 39.6C5.9999 39.6 3.9999 39.7 3.1999 40.5C2.1999 41.5 2.69995 42.7 3.49995 43C4.19995 43.2 5.49999 43.3 6.79999 43.3C8.09999 43.3 9.39992 43.2 10.0999 43C10.5999 42.7 11.1999 41.5 10.1999 40.5Z" fill="#78C8D0"/>
<path d="M43.1 50.1C43.1 52.3 41.3 54.2 39 54.2H15.4C13.2 54.2 11.3 52.4 11.3 50.1V49.8C11.3 47.6 13.1 45.7 15.4 45.7H39C41.2 45.7 43.1 47.5 43.1 49.8V50.1Z" fill="#4AB5B2"/>
<path d="M32.7 50.1C32.7 52.3 30.9 54.2 28.6 54.2H5C2.8 54.2 0.900024 52.4 0.900024 50.1V49.8C0.900024 47.6 2.7 45.7 5 45.7H28.6C30.8 45.7 32.7 47.5 32.7 49.8V50.1Z" fill="#78C8D0"/>
</svg>