<svg xmlns="http://www.w3.org/2000/svg" fill="none" viewBox="0.3 0.1 69.6 88">
<path d="M59.8 26.5H43.5V30.1H59.8V26.5Z" fill="#62882D"/>
<path d="M59.7 27H56.6001V29.7H59.7V27Z" fill="#DCDCDC"/>
<path d="M56.2 26.5H42.2V30.1H56.2V26.5Z" fill="#7EB034"/>
<path d="M58 23.8H42.3999V26.5H58V23.8Z" fill="#9D271F"/>
<path d="M58 24.3H54.3999V26.1H58V24.3Z" fill="#DCDCDC"/>
<path d="M53.8999 23.8H41.1001V26.5H53.8999V23.8Z" fill="#E4372E"/>
<path d="M60.1001 30.1H42.3999V32.8H60.1001V30.1Z" fill="#46AEAA"/>
<path d="M60.1001 30.6H55.6001V32.4H60.1001V30.6Z" fill="#DCDCDC"/>
<path d="M55.1001 30.1H41.1001V32.8H55.1001V30.1Z" fill="#6AC3C7"/>
<path d="M61.8 77.4H39.1001V79.6H61.8V77.4Z" fill="#62882D"/>
<path d="M61.8 77.7H57.3999V79.3H61.8V77.7Z" fill="#DCDCDC"/>
<path d="M56.8 77.4H37.3V79.6H56.8V77.4Z" fill="#7EB034"/>
<path d="M59.3 75.8H37.6001V77.4H59.3V75.8Z" fill="#9D271F"/>
<path d="M59.3 76H54.3V77.1H59.3V76Z" fill="#DCDCDC"/>
<path d="M53.6001 75.8H35.8V77.4H53.6001V75.8Z" fill="#E4372E"/>
<path d="M62.3 79.5H37.6001V81.1H62.3V79.5Z" fill="#46AEAA"/>
<path d="M62.3 79.8H56V80.9H62.3V79.8Z" fill="#DCDCDC"/>
<path d="M55.3 79.5H35.8V81.1H55.3V79.5Z" fill="#6AC3C7"/>
<path d="M63.5 72H40.8V74.2H63.5V72Z" fill="#2A334F"/>
<path d="M63.5 72.3H59.1001V73.9H63.5V72.3Z" fill="#DCDCDC"/>
<path d="M58.5 72H39V74.2H58.5V72Z" fill="#475677"/>
<path d="M61 70.4H39.3V72H61V70.4Z" fill="#9D271F"/>
<path d="M61 70.7H56V71.8H61V70.7Z" fill="#DCDCDC"/>
<path d="M55.3 70.4H37.5V72H55.3V70.4Z" fill="#E4372E"/>
<path d="M64 74.2H39.3V75.8H64V74.2Z" fill="#EC6151"/>
<path d="M64 74.4H57.7V75.5H64V74.4Z" fill="#DCDCDC"/>
<path d="M57 74.2H37.5V75.8H57V74.2Z" fill="#EE8F33"/>
<path d="M67.5 26.7H64.6001V88.1H67.5V26.7Z" fill="#CEA74D"/>
<path d="M54.8999 32.5H0.300049V35H54.8999V32.5Z" fill="white"/>
<path d="M54.8999 48.7H0.300049V51.2H54.8999V48.7Z" fill="white"/>
<path d="M54.8999 64.9H0.300049V67.4H54.8999V64.9Z" fill="white"/>
<path d="M54.8999 81.2H0.300049V83.7H54.8999V81.2Z" fill="white"/>
<path d="M67.6001 32.5H54.8999V35H67.6001V32.5Z" fill="#BFC0C2"/>
<path d="M67.6001 48.7H54.8999V51.2H67.6001V48.7Z" fill="#BFC0C2"/>
<path d="M67.6001 64.9H54.8999V67.4H67.6001V64.9Z" fill="#BFC0C2"/>
<path d="M67.6001 81.2H54.8999V83.7H67.6001V81.2Z" fill="#BFC0C2"/>
<path d="M69.8999 26.7H67V88.1H69.8999V26.7Z" fill="#A3843C"/>
<path d="M54.8999 26.7H52.6001V88.1H54.8999V26.7Z" fill="#FDCC5F"/>
<path d="M57.2 26.7H54.8999V88.1H57.2V26.7Z" fill="#CEA74D"/>
<path d="M2.6001 26.7H0.300049V88.1H2.6001V26.7Z" fill="#FDCC5F"/>
<path d="M5 26.7H2.69995V88.1H5V26.7Z" fill="#CEA74D"/>
<path d="M12 38.1H7.80005V48.7H12V38.1Z" fill="#29401D"/>
<path d="M7.80005 38.1H6V48.7H7.80005V38.1Z" fill="#137733"/>
<path d="M14.1001 40.6H10.5V48.7H14.1001V40.6Z" fill="#E15042"/>
<path d="M10.5 40.6H9V48.7H10.5V40.6Z" fill="#EE7557"/>
<path d="M17.1001 38.8H13.5V48.7H17.1001V38.8Z" fill="#8DB9E4"/>
<path d="M13.5 38.8H12V48.7H13.5V38.8Z" fill="#C7E7F1"/>
<path d="M19.8999 42.7H16.1001V48.7H19.8999V42.7Z" fill="#17212A"/>
<path d="M16 42.7H14.3999V48.7H16V42.7Z" fill="#233240"/>
<path d="M23.3 38.1H19.1001V48.7H23.3V38.1Z" fill="#0E3654"/>
<path d="M19.1001 38.1H17.3V48.7H19.1001V38.1Z" fill="#145889"/>
<path d="M25.3999 42.7H22.6001V48.7H25.3999V42.7Z" fill="#BEBDC4"/>
<path d="M22.6001 42.7H20.6001V48.7H22.6001V42.7Z" fill="#ECF0F1"/>
<path d="M30 40.6H26.1001V48.7H30V40.6Z" fill="#4E9DB2"/>
<path d="M26.1001 40.6H23.3V48.7H26.1001V40.6Z" fill="#8ECDDB"/>
<path d="M33.3 38.1H29.1001V48.7H33.3V38.1Z" fill="#0E3654"/>
<path d="M29.1001 38.1H27.3V48.7H29.1001V38.1Z" fill="#EE7566"/>
<path d="M35.1001 35.4H30.8999V48.7H35.1001V35.4Z" fill="#38354D"/>
<path d="M30.8999 35.4H29.1001V48.7H30.8999V35.4Z" fill="#514E71"/>
<path d="M26.3 58.2H8.19995V62H26.3V58.2Z" fill="#1F1F20"/>
<path d="M26.3 58.7H22.8V61.6H26.3V58.7Z" fill="#DCDCDC"/>
<path d="M22.3 58.2H6.80005V62H22.3V58.2Z" fill="#404040"/>
<path d="M24.3 55.4H7V58.3H24.3V55.4Z" fill="#22569D"/>
<path d="M24.3 55.8H20.3V57.7H24.3V55.8Z" fill="#DCDCDC"/>
<path d="M19.8 55.4H5.6001V58.3H19.8V55.4Z" fill="#3F74B9"/>
<path d="M26.7 62.1H7V65H26.7V62.1Z" fill="#F0816E"/>
<path d="M26.6001 62.6H21.6001V64.5H26.6001V62.6Z" fill="#DCDCDC"/>
<path d="M21.1001 62.1H5.6001V65H21.1001V62.1Z" fill="#F7B178"/>
<path d="M11.2 69H8.30005V81.2H11.2V69Z" fill="#7CBA52"/>
<path d="M15 73.5H9.80005V81.1H15V73.5Z" fill="#06151F"/>
<path d="M16.3999 71.7H13.2V81.2H16.3999V71.7Z" fill="#B3C4C0"/>
<path d="M16.3 72.5H14.5V81.2H16.3V72.5Z" fill="#2A7D90"/>
<path d="M18.7 71.1H17.3999V81.2H18.7V71.1Z" fill="#CA1517"/>
<path d="M8.19995 69H5.30005V81.2H8.19995V69Z" fill="#A0C863"/>
<path d="M9.80005 73.5H8.30005V81.1H9.80005V73.5Z" fill="#0B344F"/>
<path d="M13.1001 71.7H12V81.2H13.1001V71.7Z" fill="#DEEFEC"/>
<path d="M14.5 72.5H13.2V81.2H14.5V72.5Z" fill="#3DBDD9"/>
<path d="M16.8 71.1H15.5V81.2H16.8V71.1Z" fill="#514E71"/>
<path d="M21.3 71.1H16.8V81.2H21.3V71.1Z" fill="#38354D"/>
<path d="M25 69.6H21.1001V81.2H25V69.6Z" fill="#CE9E11"/>
<path d="M21.1001 69.6H18.1001V81.2H21.1001V69.6Z" fill="#FCC016"/>
<path d="M31.7 69.9H27.5V81.2H31.7V69.9Z" fill="#454A1B"/>
<path d="M27.3999 69.9H24.6001V81.2H27.3999V69.9Z" fill="#778125"/>
<path d="M32.8 72.4H29.2V81.2H32.8V72.4Z" fill="#C01818"/>
<path d="M29.3 72.4H27.5V81.2H29.3V72.4Z" fill="#E52926"/>
<path d="M34.7 75.3H31.1001V81.2H34.7V75.3Z" fill="#0C2030"/>
<path d="M31 75.3H29.2V81.2H31V75.3Z" fill="#094466"/>
<path d="M22.1999 9.00001C21.9999 8.00001 21.4999 6.80004 20.6999 5.90004C20.6999 5.80004 20.6999 5.60004 20.6999 5.40004C20.6999 5.00004 20.7 4.59996 20.6 4.19996C20.5 3.99996 20.4 3.89996 20.3 3.69996C20.1 2.69996 19.4 1.69999 18.6 1.09999C17.7 0.399987 16.7999 0.20006 15.6999 0.30006C15.0999 0.30006 14.4 0.500036 13.8 0.400036C13.1 0.400036 12.3999 0.299962 11.6999 0.199962C11.5999 0.199962 11.4998 0.199962 11.3998 0.199962C9.89984 -3.76999e-05 8.19999 0.0999867 6.79999 0.599987C5.99999 0.899987 5.19994 1.50006 4.99994 2.30006C4.29994 3.20006 4.10004 4.30001 4.10004 5.50001C4.10004 5.90001 3.79984 6.30006 3.39984 6.30006C1.79984 6.40006 0.699893 8.70006 2.19989 9.80006C2.59989 10.1001 2.79994 10.7 2.49994 11.1C1.89994 11.8 1.89984 12.8 2.39984 13.6C2.99984 14.6 3.99984 14.3 4.89984 14.9C5.39984 15.3 5.60004 15.9 6.10004 16.2C6.60004 16.5 7.09989 16.9 7.69989 17.1C8.49989 17.5 9.19994 17.4 9.99994 17.1C10.4999 16.9 10.8998 16.6 11.3998 16.4C11.4998 16.4 11.6 16.4001 11.6 16.3001H11.6999C11.7999 16.3001 11.7998 16.3001 11.8998 16.3001C11.9998 16.3001 12 16.3001 12.1 16.3001C12.2 16.3001 12.2 16.3001 12.3 16.3001C12.4 16.3001 12.4999 16.3 12.6999 16.4C12.8999 16.5 13.1999 16.5 13.4999 16.5C14.1999 16.8 15.0998 16.5 15.8998 16C16.4998 15.6 16.9999 15.1 17.4999 14.6C18.1999 13.8 19.2 13.6 20.1 13.1C21.8 12.6 22.3999 10.7 22.1999 9.00001Z" fill="#3C8133"/>
<path d="M33.6 16.3C33.4 15.5 32.9998 14.8999 32.3998 14.4999C31.9998 13.6999 31.1998 12.9 30.8998 12.4C30.1998 11.4 29 10.9 27.8 10.8C27.7 10.8 27.5999 10.8 27.4999 10.8C26.2999 10.7 24.9998 10.5999 23.8998 11.1999C23.6998 11.2999 23.3999 11.4999 23.1999 11.6999C23.0999 11.7999 22.9999 11.8 22.9999 11.9C22.7999 12.1 22.5998 12.3999 22.3998 12.6999C22.2998 12.7999 22.1999 12.8999 21.9999 12.9999C20.4999 13.7999 21 15.4999 21.1 16.6999C21.2 17.3999 21.1999 18.2 21.4999 18.8C21.8999 19.5 22.7 19.6999 23.3 19.9999C24.3 20.4999 24.9999 21.4 25.9999 21.9C26.3999 22.1 26.8998 22.2 27.3998 22.3H27.4999C27.7999 22.3 28.0998 22.4 28.3998 22.4C29.9998 22.5 31.3 22.2 32.3 20.9C33.4 19.6 33.9 17.8 33.6 16.3Z" fill="#3C8133"/>
<path d="M13.6001 12.6C13.6001 12.9 13.3999 13.1 13.1999 13.1C12.9999 13.1 12.7999 12.8 12.8999 12.6C12.8999 12.3 13.1 12.1 13.3 12.1C13.5 12.1 13.6001 12.4 13.6001 12.6Z" fill="#FFF4DE"/>
<path d="M12.8 12.6C13 12.8 13.0999 12.9999 12.9999 13.1999C12.8999 13.3999 12.5998 13.3999 12.3998 13.1999C12.1998 12.9999 12.0999 12.8 12.1999 12.6C12.1999 12.4 12.5 12.4 12.8 12.6Z" fill="#FFF4DE"/>
<path d="M12.2999 13.3001C12.5999 13.2001 12.7998 13.2 12.8998 13.4C12.9998 13.6 12.8 13.8 12.6 14C12.3 14.1 12.0999 14.1 11.9999 13.9C11.8999 13.7 11.9999 13.4001 12.2999 13.3001Z" fill="#FFF4DE"/>
<path d="M12.6999 14C12.6999 13.7 12.9001 13.5 13.1001 13.5C13.3001 13.5 13.4999 13.8 13.3999 14C13.3999 14.3 13.2 14.5 13 14.5C12.8 14.6 12.5999 14.3 12.6999 14Z" fill="#FFF4DE"/>
<path d="M13.4999 14.1C13.2999 13.9 13.2 13.7 13.3 13.5C13.4 13.3 13.6998 13.3 13.8998 13.5C14.0998 13.7 14.2 13.9 14.1 14.1C14 14.2 13.6999 14.3 13.4999 14.1Z" fill="#FFF4DE"/>
<path d="M13.9999 13.4C13.6999 13.5 13.4998 13.5 13.3998 13.3C13.2998 13.1 13.3998 12.8999 13.6998 12.6999C13.9998 12.5999 14.1999 12.6 14.2999 12.8C14.3999 13 14.1999 13.3 13.9999 13.4Z" fill="#FFF4DE"/>
<path d="M13.6001 13.4C13.6001 13.6 13.4001 13.8 13.1001 13.8C12.9001 13.8 12.7 13.6 12.7 13.3C12.7 13.1 12.9 12.9 13.2 12.9C13.4 12.9 13.6001 13.1 13.6001 13.4Z" fill="#F8BE3B"/>
<path d="M13.5 30.6C14.5 30.9 15.8001 30.9 16.8001 30.9C18.6001 31 20.3 30.9 22 30.6C21.4 30.2 20.6 28.9 21.5 25.5C22.8 20.5 19.9001 18.9 17.8001 18.1C15.7001 17.3 10 15.7 10.5 13.2C11 10.7 13.8001 9.30005 13.1001 8.30005C12.5001 7.30005 9.89992 6.30005 9.89992 5.30005C9.89992 4.30005 11.2 3.69995 11.2 3.69995L11.1001 3.59998C11.0001 3.69998 8.60001 4.89995 10 6.19995C11.4 7.49995 12.8999 7.99998 12.3999 9.09998C11.7999 10.2 9.80006 11 9.30006 14.2C8.80006 17.3 15 17.8 17 19.6C19.1 21.4 16.2 29.6 13.5 30.6Z" fill="#7C4526"/>
<path d="M16 27.8C16.3 27.3 16.6 26.8 16.7 26.2C16.6 26.7 16.3 27.3 16 27.8Z" fill="#7C4526"/>
<path d="M21.4999 25.5C22.7999 20.5 19.9 18.9 17.8 18.1C16 17.4 11.6999 16.2 10.6999 14.3C10.6999 14.2 10.6 14.2 10.6 14.1C10.4 13.7 10.4 13.3 10.6 12.8C10.9 11.9 11.5 11.1 11.6 10.9C11.5 11.1 9.69986 12.3 10.1999 14.4C10.7999 16.6 13.2999 17 14.6999 17.5C16.5999 18.2 18.8 19.8 19.3 21.2C20.1 23.3 19.6998 25.6 18.8998 27.7C18.3998 29 17.4999 30 16.4999 30.8C16.5999 30.8 16.6998 30.8 16.8998 30.8C18.6998 30.9 20.4 30.8 22.1 30.5C21.4 30.1 20.5999 28.9 21.4999 25.5Z" fill="#703E23"/>
<path d="M8.19995 12.1C7.99995 12.2 7.79995 12.3 7.69995 12.2C7.39995 12 6.69995 11.9 6.69995 11.9C6.69995 11.9 7.2001 11.9 7.6001 12.3C7.9001 12.5 8.10005 12.4 8.30005 12.3L8.19995 12.1Z" fill="#7C4526"/>
<path d="M10 5.80005C8.6 6.00005 8.5 5.90002 8.5 5.90002L7.80005 4.40002L7.8999 4.30005C7.9999 4.40005 8.6001 5.69995 8.6001 5.69995C8.6001 5.69995 9.29995 5.6 9.69995 5.5L10 5.80005Z" fill="#7C4526"/>
<path d="M14.4 8.19995C13.4 7.49995 13.5001 7.30005 13.5001 7.30005L14.0001 6H14.1002C14.1002 6.1 13.6002 7.19995 13.6002 7.19995C13.6002 7.19995 14.1 7.49995 14.4 7.69995V8.19995Z" fill="#7C4526"/>
<path d="M25 17.3C23.8 17 23.8 16.9 23.8 16.9L23.7 15.5H23.8C23.8 15.6 23.8999 16.8 23.8999 16.8C23.8999 16.8 24.9 16.9 25.2 17L25 17.3Z" fill="#7C4526"/>
<path d="M24.1001 19.4C25.3001 19.8 25.3 19.6 25.3 19.6L26.8 19L26.7 18.9C26.6 19 25.2 19.4 25.2 19.4C25.2 19.4 24.2999 19 23.8999 18.9L24.1001 19.4Z" fill="#7C4526"/>
<path d="M14.3999 17.3C14.3999 17.1 14.5 15.1 15 14.7C15.4 14.4 16.1 14.6 16.8 14.8C17.4 15 18 15.2 18.3 15.1C18.6 14.9 19.3 14.1 19.3 13.7H19.3999C19.3999 14.2 18.8999 15.1 18.3999 15.3C17.9999 15.5 17.4 15.3 16.7 15.1C16.1 14.9 15.4001 14.7 15.1001 15C14.8001 15.3 14.7999 16.7 14.8999 17.5L14.3999 17.3Z" fill="#703E23"/>
<path d="M16.6 14.8H16.1998C16.1998 14.7 16.2 14.5 16.1 14.4C16 14 15.8999 13.7 15.9999 13.4C16.0999 13.1 16.5999 13.1 16.9999 13C17.2999 12.9 17.9999 12.6 17.9999 12.5H18.1C17.8 12.9 17.3998 13 16.8998 13.2C16.5998 13.3 16.3999 13.4 16.2999 13.5C16.1999 13.6 16.4 14.4 16.6 14.8Z" fill="#703E23"/>
<path d="M9.8999 12.4L9.69995 12.8C9.59995 12.8 9.39995 12.7 9.19995 12.7C8.79995 12.7 8.39995 12.7 8.19995 12.5C7.99995 12.3 8.1001 11.9 8.1001 11.4C8.1001 11.1 7.9999 10.4 7.8999 10.3V10.2C8.1999 10.6 8.20005 11 8.30005 11.5C8.30005 11.8 8.4 12.1 8.5 12.2C8.6 12.6 9.4999 12.5 9.8999 12.4Z" fill="#7C4526"/>
<path d="M11.7 2.90002C11.7 3.20002 11.5 3.40002 11.3 3.40002C11.1 3.40002 10.8999 3.20002 10.8999 2.90002C10.8999 2.60002 11.1 2.40002 11.3 2.40002C11.5 2.40002 11.7 2.60002 11.7 2.90002Z" fill="#FFF4DE"/>
<path d="M10.8998 2.90002C11.0998 3.10002 11.2 3.29999 11.1 3.49999C11 3.69999 10.6999 3.69999 10.4999 3.49999C10.2999 3.29999 10.2 3.10002 10.3 2.90002C10.3 2.80002 10.5998 2.70002 10.8998 2.90002Z" fill="#FFF4DE"/>
<path d="M10.3999 3.6C10.6999 3.5 10.9 3.49997 11 3.69997C11.1 3.89997 11 4.10007 10.7 4.30007C10.5 4.40007 10.2001 4.39997 10.1001 4.19997C10.1001 3.99997 10.1999 3.7 10.3999 3.6Z" fill="#FFF4DE"/>
<path d="M10.8 4.30005C10.8 4.00005 11 3.80005 11.2 3.80005C11.4 3.80005 11.6001 4.00005 11.6001 4.30005C11.6001 4.60005 11.4 4.80005 11.2 4.80005C11 4.90005 10.8 4.60005 10.8 4.30005Z" fill="#FFF4DE"/>
<path d="M11.6999 4.4C11.4999 4.2 11.3999 4.00002 11.4999 3.80002C11.5999 3.60002 11.9 3.60002 12.1 3.80002C12.3 4.00002 12.4 4.2 12.3 4.4C12.2 4.5 11.8999 4.5 11.6999 4.4Z" fill="#FFF4DE"/>
<path d="M12.1 3.6C11.8 3.7 11.5999 3.70002 11.4999 3.50002C11.3999 3.30002 11.4999 3.10005 11.7999 2.90005C12.0999 2.80005 12.2998 2.80002 12.3998 3.00002C12.4998 3.20002 12.4 3.5 12.1 3.6Z" fill="#FFF4DE"/>
<path d="M11.7 3.59998C11.7 3.79998 11.5 4 11.2 4C11 4 10.8 3.8 10.8 3.5C10.8 3.3 11 3.09998 11.3 3.09998C11.5 3.19998 11.7 3.39998 11.7 3.59998Z" fill="#F8BE3B"/>
<path d="M18.2 11.8C18.2 12.1 18 12.3 17.8 12.3C17.6 12.3 17.3999 12.1 17.3999 11.8C17.3999 11.5 17.6 11.3 17.8 11.3C18.1 11.2 18.2 11.5 18.2 11.8Z" fill="#FFF4DE"/>
<path d="M17.3998 11.7C17.5998 11.9 17.7 12.1001 17.6 12.3001C17.5 12.5001 17.1999 12.5001 16.9999 12.3001C16.7999 12.1001 16.7 11.9 16.8 11.7C16.8 11.6 17.0998 11.6 17.3998 11.7Z" fill="#FFF4DE"/>
<path d="M16.8999 12.5C17.1999 12.4 17.4 12.4 17.5 12.6C17.6 12.8 17.5 13.1 17.2 13.2C16.9 13.3 16.7001 13.3 16.6001 13.1C16.6001 12.9 16.6999 12.6 16.8999 12.5Z" fill="#FFF4DE"/>
<path d="M17.4 13.2C17.4 12.9 17.6002 12.7 17.8002 12.7C18.0002 12.7 18.2001 12.9 18.2001 13.2C18.2001 13.5 18.0002 13.7 17.8002 13.7C17.5002 13.7 17.3 13.5 17.4 13.2Z" fill="#FFF4DE"/>
<path d="M18.1999 13.1999C17.9999 12.9999 17.8999 12.8 17.9999 12.6C18.0999 12.4 18.4 12.4 18.6 12.6C18.8 12.8 18.9 12.9999 18.8 13.1999C18.7 13.2999 18.3999 13.3999 18.1999 13.1999Z" fill="#FFF4DE"/>
<path d="M18.6 12.5C18.3 12.6 18.0999 12.6 17.9999 12.4C17.8999 12.2 17.9999 11.9001 18.2999 11.8001C18.5999 11.7001 18.7998 11.7 18.8998 11.9C18.9998 12.1 18.9 12.4 18.6 12.5Z" fill="#FFF4DE"/>
<path d="M18.2 12.5C18.2 12.7 18 12.9 17.7 12.9C17.5 12.9 17.3 12.7 17.3 12.4C17.3 12.2 17.5 12 17.8 12C18 12.1 18.2 12.3 18.2 12.5Z" fill="#F8BE3B"/>
<path d="M8.5 9.30005C8.5 9.50005 8.3001 9.69995 8.1001 9.69995C7.9001 9.69995 7.80005 9.49995 7.80005 9.19995C7.80005 8.99995 7.99995 8.80005 8.19995 8.80005C8.39995 8.90005 8.5 9.10005 8.5 9.30005Z" fill="#FFF4DE"/>
<path d="M7.79998 9.3001C7.99998 9.4001 8.09993 9.7001 7.99993 9.8001C7.89993 10.0001 7.69993 10.0001 7.49993 9.8001C7.29993 9.7001 7.19998 9.4001 7.29998 9.3001C7.29998 9.2001 7.59998 9.2001 7.79998 9.3001Z" fill="#FFF4DE"/>
<path d="M7.39983 9.90005C7.59983 9.80005 7.89983 9.80002 7.89983 10C7.99983 10.2 7.89988 10.4 7.69988 10.5C7.49988 10.6 7.19988 10.6 7.19988 10.4C7.09988 10.2 7.19983 10 7.39983 9.90005Z" fill="#FFF4DE"/>
<path d="M7.80003 10.5C7.80003 10.3 7.99993 10.1 8.19993 10.1C8.39993 10.1 8.49998 10.3 8.49998 10.6C8.49998 10.8 8.30008 11 8.10008 11C7.90008 11 7.70003 10.8 7.80003 10.5Z" fill="#FFF4DE"/>
<path d="M8.49993 10.5C8.29993 10.4 8.19998 10.1 8.29998 9.99998C8.39998 9.79998 8.59998 9.79998 8.79998 9.99998C8.99998 10.1 9.09993 10.4 8.99993 10.5C8.89993 10.6 8.69993 10.7 8.49993 10.5Z" fill="#FFF4DE"/>
<path d="M8.79998 9.90005C8.59998 10 8.29998 10.0001 8.29998 9.80007C8.19998 9.60007 8.29993 9.40007 8.49993 9.30007C8.69993 9.20007 8.99993 9.20005 8.99993 9.40005C9.19993 9.60005 8.99998 9.80005 8.79998 9.90005Z" fill="#FFF4DE"/>
<path d="M8.5 9.90001C8.5 10.1 8.3001 10.2999 8.1001 10.1999C7.9001 10.1999 7.69995 10 7.69995 9.80003C7.69995 9.60003 7.9001 9.39998 8.1001 9.49998C8.3001 9.49998 8.5 9.70001 8.5 9.90001Z" fill="#F8BE3B"/>
<path d="M7 11.3C7 11.5 6.8001 11.7 6.6001 11.7C6.4001 11.7 6.30005 11.5 6.30005 11.2C6.30005 11 6.49995 10.8 6.69995 10.8C6.89995 10.9 7.1 11.1 7 11.3Z" fill="#FFF4DE"/>
<path d="M6.29998 11.3001C6.49998 11.4001 6.59993 11.7001 6.49993 11.8001C6.39993 12.0001 6.19993 12.0001 5.99993 11.8001C5.79993 11.7001 5.69998 11.4001 5.79998 11.3001C5.89998 11.2001 6.09998 11.2001 6.29998 11.3001Z" fill="#FFF4DE"/>
<path d="M6 12C6.2 11.9 6.5 11.9 6.5 12.1C6.6 12.3 6.50005 12.5 6.30005 12.6C6.10005 12.7 5.80005 12.7 5.80005 12.5C5.80005 12.3 5.8 12.1 6 12Z" fill="#FFF4DE"/>
<path d="M6.30005 12.6C6.30005 12.4 6.49995 12.2 6.69995 12.2C6.89995 12.2 7 12.4 7 12.7C7 12.9 6.8001 13.1 6.6001 13.1C6.4001 13 6.30005 12.8 6.30005 12.6Z" fill="#FFF4DE"/>
<path d="M6.99993 12.6C6.79993 12.5 6.69998 12.2 6.79998 12.1C6.89998 11.9 7.09998 11.9 7.29998 12.1C7.49998 12.2 7.59993 12.5 7.49993 12.6C7.49993 12.7 7.19993 12.7 6.99993 12.6Z" fill="#FFF4DE"/>
<path d="M7.39979 12C7.19979 12.1 6.89979 12.1 6.89979 11.9C6.79979 11.7 6.89999 11.5 7.09999 11.4C7.29999 11.3 7.59999 11.3 7.59999 11.5C7.69999 11.6 7.59979 11.9 7.39979 12Z" fill="#FFF4DE"/>
<path d="M7.10008 12C7.10008 12.2 6.89993 12.4 6.69993 12.3C6.49993 12.3 6.29989 12.1 6.39989 11.9C6.39989 11.7 6.60003 11.5 6.80003 11.6C6.90003 11.6 7.10008 11.8 7.10008 12Z" fill="#F8BE3B"/>
<path d="M24 14.1C24 14.4 23.8001 14.6 23.6001 14.6C23.4001 14.6 23.2 14.4 23.2 14.1C23.2 13.8 23.4001 13.6 23.6001 13.6C23.9001 13.6 24.1 13.8 24 14.1Z" fill="#FFF4DE"/>
<path d="M23.1999 14.1C23.3999 14.3 23.4998 14.5 23.3998 14.7C23.2998 14.9 23 14.9 22.8 14.7C22.6 14.5 22.5 14.3 22.6 14.1C22.7 14 22.9999 14 23.1999 14.1Z" fill="#FFF4DE"/>
<path d="M22.7999 14.8001C23.0999 14.7001 23.2998 14.7 23.3998 14.9C23.4998 15.1 23.4 15.3 23.1 15.5C22.8 15.6 22.5999 15.6 22.4999 15.4C22.3999 15.2 22.4999 15.0001 22.7999 14.8001Z" fill="#FFF4DE"/>
<path d="M23.2 15.6C23.2 15.3 23.4001 15.1 23.6001 15.1C23.8001 15.1 24 15.3 24 15.6C24 15.9 23.8001 16.1 23.6001 16.1C23.3001 16.1 23.2 15.8 23.2 15.6Z" fill="#FFF4DE"/>
<path d="M23.9999 15.6C23.7999 15.4 23.7 15.2 23.8 15C23.9 14.8 24.1998 14.8 24.3998 15C24.5998 15.2 24.7 15.4 24.6 15.6C24.6 15.7 24.2999 15.7 23.9999 15.6Z" fill="#FFF4DE"/>
<path d="M24.4999 14.9C24.2999 15 23.9998 15 23.8998 14.8C23.7998 14.6 23.8998 14.2999 24.1998 14.1999C24.3998 14.0999 24.6999 14.1 24.7999 14.3C24.7999 14.5 24.6999 14.7 24.4999 14.9Z" fill="#FFF4DE"/>
<path d="M24.1001 14.9C24.1001 15.1 23.9001 15.3 23.6001 15.3C23.4001 15.3 23.2 15.1 23.2 14.8C23.2 14.6 23.4 14.4 23.7 14.4C23.9 14.4 24.1001 14.6 24.1001 14.9Z" fill="#F8BE3B"/>
<path d="M12.8999 9.19995L13 8.5C13 8.4 12.6 8.60002 15.7 7.40002L16.1001 5.40002H16.2L16 7.59998C16.1 7.59998 13.0999 9.09995 12.8999 9.19995Z" fill="#7C4526"/>
<path d="M16.8 4.5C16.8 4.8 16.5999 5 16.3999 5C16.1999 5 16 4.8 16 4.5C16 4.2 16.1999 4 16.3999 4C16.5999 4 16.8 4.2 16.8 4.5Z" fill="#FFF4DE"/>
<path d="M15.8998 4.49999C16.0998 4.69999 16.2 4.89997 16.1 5.09997C16 5.29997 15.6999 5.29997 15.4999 5.09997C15.2999 4.89997 15.2 4.69999 15.3 4.49999C15.4 4.39999 15.6998 4.29999 15.8998 4.49999Z" fill="#FFF4DE"/>
<path d="M15.4999 5.19993C15.7999 5.09993 16 5.10002 16.1 5.30002C16.2 5.50002 16.0999 5.7 15.7999 5.9C15.5999 6 15.2998 6.00002 15.1998 5.80002C15.0998 5.60002 15.1999 5.29993 15.4999 5.19993Z" fill="#FFF4DE"/>
<path d="M15.8999 5.90002C15.8999 5.60002 16.1 5.40002 16.3 5.40002C16.5 5.40002 16.7 5.60002 16.7 5.90002C16.7 6.20002 16.5 6.40002 16.3 6.40002C16.1 6.50002 15.8999 6.20002 15.8999 5.90002Z" fill="#FFF4DE"/>
<path d="M16.6999 5.9C16.4999 5.7 16.3999 5.50002 16.4999 5.30002C16.5999 5.10002 16.9 5.10002 17.1 5.30002C17.3 5.50002 17.4 5.7 17.3 5.9C17.3 6.1 16.9999 6.1 16.6999 5.9Z" fill="#FFF4DE"/>
<path d="M17.1999 5.19997C16.9999 5.29997 16.7 5.3 16.6 5.1C16.5 4.9 16.5998 4.60002 16.8998 4.50002C17.1998 4.40002 17.3999 4.4 17.4999 4.6C17.4999 4.8 17.3999 5.09997 17.1999 5.19997Z" fill="#FFF4DE"/>
<path d="M16.8 5.19995C16.8 5.39995 16.6 5.59998 16.3 5.59998C16.1 5.59998 15.8999 5.39998 15.8999 5.09998C15.8999 4.89998 16.0999 4.69995 16.3999 4.69995C16.5999 4.79995 16.8 4.99995 16.8 5.19995Z" fill="#F8BE3B"/>
<path d="M19.8999 13.6C19.8999 13.9 19.7 14.1 19.5 14.1C19.3 14.1 19.1001 13.8 19.1001 13.6C19.1001 13.3 19.3 13.1 19.5 13.1C19.7 13.1 19.8999 13.3 19.8999 13.6Z" fill="#FFF4DE"/>
<path d="M18.9999 13.6C19.1999 13.8 19.2998 14 19.1998 14.2C19.0998 14.4 18.8 14.4 18.6 14.2C18.4 14 18.2998 13.8 18.3998 13.6C18.4998 13.5 18.7999 13.5 18.9999 13.6Z" fill="#FFF4DE"/>
<path d="M18.6 14.3001C18.9 14.2001 19.0998 14.2 19.1998 14.4C19.2998 14.6 19.1998 14.9 18.8998 15C18.5998 15.1 18.3999 15.1 18.2999 14.9C18.1999 14.7 18.3 14.5001 18.6 14.3001Z" fill="#FFF4DE"/>
<path d="M19 15.1C19 14.8 19.1999 14.6 19.3999 14.6C19.5999 14.6 19.8 14.9 19.8 15.1C19.8 15.4 19.5999 15.6 19.3999 15.6C19.1999 15.6 19 15.3 19 15.1Z" fill="#FFF4DE"/>
<path d="M19.8 15.1C19.6 14.9 19.5 14.7 19.6 14.5C19.7 14.3 19.9999 14.3 20.1999 14.5C20.3999 14.7 20.4998 14.9 20.3998 15.1C20.3998 15.2 20.1 15.2 19.8 15.1Z" fill="#FFF4DE"/>
<path d="M20.2999 14.3001C19.9999 14.4001 19.7998 14.4 19.6998 14.2C19.5998 14 19.6999 13.7 19.9999 13.6C20.2999 13.5 20.5 13.5 20.6 13.7C20.7 14 20.4999 14.2001 20.2999 14.3001Z" fill="#FFF4DE"/>
<path d="M19.8999 14.4C19.8999 14.6 19.6999 14.8 19.3999 14.8C19.1999 14.8 19 14.6 19 14.3C19 14.1 19.2 13.9 19.5 13.9C19.7 13.9 19.8999 14.1 19.8999 14.4Z" fill="#F8BE3B"/>
<path d="M20.3999 20.8L20.2 19.7L23.8999 18.9L25.5 16L28.1001 16.1V16.3H25.7L24.2 19.4L20.3999 20.8Z" fill="#703E23"/>
<path d="M28.3999 15.4C28.3999 15.7 28.2 15.9 28 15.9C27.8 15.9 27.6001 15.7 27.6001 15.4C27.6001 15.1 27.8 14.9 28 14.9C28.3 14.9 28.3999 15.1 28.3999 15.4Z" fill="#FFF4DE"/>
<path d="M27.6 15.4C27.8 15.6 27.9 15.8 27.8 16C27.7 16.2 27.3999 16.2 27.1999 16C26.9999 15.8 26.8999 15.6 26.9999 15.4C27.0999 15.2 27.3 15.2 27.6 15.4Z" fill="#FFF4DE"/>
<path d="M27.1998 16.1C27.3998 16 27.6999 16 27.7999 16.2C27.8999 16.4 27.7999 16.6001 27.4999 16.8001C27.1999 16.9001 26.9998 16.9 26.8998 16.7C26.7998 16.5 26.8998 16.2 27.1998 16.1Z" fill="#FFF4DE"/>
<path d="M27.6001 16.8C27.6001 16.5 27.8 16.3 28 16.3C28.2 16.3 28.3999 16.5 28.3999 16.8C28.3999 17.1 28.2 17.3 28 17.3C27.7 17.3 27.6001 17.1 27.6001 16.8Z" fill="#FFF4DE"/>
<path d="M28.3998 16.8C28.1998 16.6 28.0999 16.3999 28.1999 16.1999C28.2999 15.9999 28.6 15.9999 28.8 16.1999C29 16.3999 29.0999 16.6 28.9999 16.8C28.8999 17 28.5998 17 28.3998 16.8Z" fill="#FFF4DE"/>
<path d="M28.7999 16.1C28.5999 16.2 28.2998 16.2 28.1998 16C28.0998 15.8 28.1999 15.5 28.4999 15.4C28.7999 15.3 29 15.3 29.1 15.5C29.2 15.7 29.0999 16 28.7999 16.1Z" fill="#FFF4DE"/>
<path d="M28.3999 16.1C28.3999 16.3 28.1999 16.5 27.8999 16.5C27.6999 16.5 27.5 16.3 27.5 16C27.5 15.8 27.7 15.6 28 15.6C28.3 15.7 28.3999 15.9 28.3999 16.1Z" fill="#F8BE3B"/>
<path d="M8.3999 3.59998C8.3999 3.89998 8.2 4.09998 8 4.09998C7.8 4.09998 7.6001 3.89998 7.6001 3.59998C7.6001 3.29998 7.8 3.09998 8 3.09998C8.3 3.09998 8.3999 3.39998 8.3999 3.59998Z" fill="#FFF4DE"/>
<path d="M7.60003 3.60002C7.80003 3.80002 7.89998 4 7.79998 4.2C7.69998 4.4 7.39988 4.4 7.19988 4.2C6.99988 4 6.89993 3.80002 6.99993 3.60002C7.09993 3.50002 7.40003 3.50002 7.60003 3.60002Z" fill="#FFF4DE"/>
<path d="M7.19985 4.40005C7.49985 4.30005 7.69994 4.30002 7.79994 4.50002C7.89994 4.70002 7.79989 4.9 7.49989 5.1C7.19989 5.2 6.9998 5.20002 6.8998 5.00002C6.7998 4.70002 6.89985 4.50005 7.19985 4.40005Z" fill="#FFF4DE"/>
<path d="M7.6001 5.09998C7.6001 4.79998 7.8 4.59998 8 4.59998C8.2 4.59998 8.3999 4.89998 8.3999 5.09998C8.3999 5.39998 8.2 5.59998 8 5.59998C7.7 5.59998 7.6001 5.39998 7.6001 5.09998Z" fill="#FFF4DE"/>
<path d="M8.39983 5.09995C8.19983 4.89995 8.09988 4.69998 8.19988 4.49998C8.29988 4.29998 8.59998 4.29998 8.79998 4.49998C8.99998 4.69998 9.09993 4.89995 8.99993 5.09995C8.89993 5.19995 8.59983 5.19995 8.39983 5.09995Z" fill="#FFF4DE"/>
<path d="M8.79994 4.4C8.49994 4.5 8.29985 4.50002 8.19985 4.30002C8.09985 4.10002 8.19989 3.79993 8.49989 3.69993C8.79989 3.59993 8.99999 3.60002 9.09999 3.80002C9.19999 4.00002 9.09994 4.2 8.79994 4.4Z" fill="#FFF4DE"/>
<path d="M8.3999 4.40002C8.3999 4.60002 8.1999 4.80005 7.8999 4.80005C7.6999 4.80005 7.5 4.60005 7.5 4.30005C7.5 4.10005 7.7 3.90002 8 3.90002C8.3 3.90002 8.3999 4.10002 8.3999 4.40002Z" fill="#F8BE3B"/>
<path d="M14.3 5.30005C14.3 5.50005 14.1 5.69995 14 5.69995C13.8 5.69995 13.7 5.50005 13.7 5.30005C13.7 5.10005 13.9 4.90002 14 4.90002C14.2 5.00002 14.3 5.10005 14.3 5.30005Z" fill="#FFF4DE"/>
<path d="M13.6999 5.3001C13.8999 5.4001 13.9998 5.6001 13.8998 5.8001C13.7998 5.9001 13.5998 6.0001 13.3998 5.8001C13.1998 5.7001 13.0999 5.5001 13.1999 5.3001C13.2999 5.2001 13.4999 5.2001 13.6999 5.3001Z" fill="#FFF4DE"/>
<path d="M13.3998 5.90005C13.5998 5.80005 13.7998 5.80002 13.8998 6.00002C13.9998 6.10002 13.8999 6.30005 13.6999 6.40005C13.4999 6.50005 13.2999 6.50007 13.1999 6.30007C13.0999 6.20007 13.1998 6.00005 13.3998 5.90005Z" fill="#FFF4DE"/>
<path d="M13.7 6.40002C13.7 6.20002 13.9 6 14 6C14.2 6 14.3 6.20002 14.3 6.40002C14.3 6.60002 14.1 6.80005 14 6.80005C13.8 6.80005 13.7 6.70002 13.7 6.40002Z" fill="#FFF4DE"/>
<path d="M14.3 6.40002C14.1 6.30002 14 6.10002 14.1 5.90002C14.2 5.80002 14.4 5.70002 14.6 5.90002C14.8 6.00002 14.9 6.20002 14.8 6.40002C14.7 6.60002 14.5 6.60002 14.3 6.40002Z" fill="#FFF4DE"/>
<path d="M14.6 5.90005C14.4 6.00005 14.2 6.00007 14.1 5.80007C14 5.70007 14.1 5.50005 14.3 5.40005C14.5 5.30005 14.7 5.30002 14.8 5.50002C14.9 5.60002 14.8 5.80005 14.6 5.90005Z" fill="#FFF4DE"/>
<path d="M14.3 5.90002C14.3 6.10002 14.1 6.19995 14 6.19995C13.8 6.19995 13.7 6.00002 13.7 5.90002C13.7 5.70002 13.9 5.59998 14 5.59998C14.2 5.59998 14.3 5.70002 14.3 5.90002Z" fill="#F8BE3B"/>
<path d="M27.1001 18.6C27.1001 18.8 26.9 19 26.8 19C26.6 19 26.5 18.8 26.5 18.6C26.5 18.4 26.7 18.2 26.8 18.2C27 18.2 27.2001 18.4 27.1001 18.6Z" fill="#FFF4DE"/>
<path d="M26.5 18.6C26.7 18.7 26.7001 18.9 26.6001 19.1C26.5001 19.2 26.3001 19.2 26.1001 19.1C25.9001 19 25.9 18.8 26 18.6C26.1 18.4 26.3 18.4 26.5 18.6Z" fill="#FFF4DE"/>
<path d="M26.1999 19.1C26.3999 19 26.5999 19.1 26.6999 19.2C26.7999 19.3 26.6999 19.5 26.4999 19.6C26.2999 19.7 26.0999 19.6 25.9999 19.5C25.8999 19.4 25.9999 19.2 26.1999 19.1Z" fill="#FFF4DE"/>
<path d="M26.3999 19.7C26.3999 19.5 26.6 19.3 26.7 19.3C26.9 19.3 27 19.5 27 19.7C27 19.9 26.8 20.1 26.7 20.1C26.5 20.1 26.3999 19.9 26.3999 19.7Z" fill="#FFF4DE"/>
<path d="M27.1001 19.7C26.9001 19.6 26.9 19.4 27 19.2C27.1 19.1 27.3 19.1 27.5 19.2C27.7 19.3 27.7001 19.5 27.6001 19.7C27.5001 19.8 27.2001 19.8 27.1001 19.7Z" fill="#FFF4DE"/>
<path d="M27.3998 19.2C27.1998 19.3 26.9998 19.2 26.8998 19.1C26.7998 19 26.9 18.8 27.1 18.7C27.3 18.6 27.5 18.7001 27.6 18.8001C27.7 18.9001 27.5998 19.1 27.3998 19.2Z" fill="#FFF4DE"/>
<path d="M27.1001 19.2C27.1001 19.4 26.9 19.5 26.7 19.5C26.5 19.5 26.3999 19.3 26.3999 19.1C26.3999 18.9 26.6 18.8 26.8 18.8C27 18.8 27.1001 19 27.1001 19.2Z" fill="#F8BE3B"/>
<path d="M14.5 26H24.6001L23.2 32.5H15.8999L14.5 26Z" fill="#E7E6E6"/>
<path d="M14.5 26H24.6001L24.3 27.6H14.8999L14.5 26Z" fill="#9D271F"/>
<path d="M11.5 26H21.6001L20.2 32.5H12.8999L11.5 26Z" fill="#FFFBE3"/>
<path d="M11.5 26H21.6001L21.3 27.6H11.8L11.5 26Z" fill="#E4372E"/>
<path d="M15.6 23C15.5 22.5 15.1999 22.2 14.9999 21.7C14.7999 21.3 15 21 15.1 20.6C15.4 20.1 14.9999 19.3001 14.4999 18.8001C14.2999 18.7001 14.1999 18.6 13.9999 18.5C13.8999 18.5 13.9 18.4 13.8 18.4C13.6 18.3 13.5 18.3001 13.3 18.3001C12.9 18.3001 12.5999 18.4001 12.1999 18.3001C10.3999 16.9001 8.19989 18.2 6.69989 19.7C5.79989 20.6 4.60003 22.8 5.60003 23.9C5.80003 24.6 6.30003 25.1 7.10003 25.4C7.30003 25.5 7.39998 25.7 7.29998 25.9C6.89998 26.6 7.69989 27.7001 8.69989 27.3001C8.99989 27.2001 9.29994 27.3 9.49994 27.5C9.69994 27.9 10.1999 28.2 10.6999 28.2C11.3999 28.2 11.5 27.7 12.1 27.4C12.4 27.3 12.8 27.3 13.1 27.2C13.4 27.1 13.6999 26.9001 13.9999 26.8001C14.3999 26.5001 14.5999 26.2001 14.6999 25.8001C14.7999 25.3001 14.6999 24.8 15.1999 24.4C15.6999 24.2 15.7 23.5 15.6 23Z" fill="#4EA733"/>
<path d="M10.5 22.1C9.5 22.7 9.3999 22.6 9.3999 22.6L8.5 21.7V21.6C8.6 21.6 9.3999 22.5 9.3999 22.5C9.3999 22.5 9.79995 22.2 10.2 22L10.5 22.1Z" fill="#7C4526"/>
<path d="M18 24.9C17.7 24.5 15.9999 22.3 15.3999 22.2C15.0999 22.2 14.7999 22.5 14.3999 22.9C13.8999 23.3 13.5 23.7 13 23.7C12 23.7 9.8999 22.4 9.8999 21.3H10C10 22.1 12.2001 23.3 13.1001 23.3C13.4001 23.3 13.8 22.9 14.2 22.5C14.7 22 15.1 21.7 15.5 21.8C16.4 21.9 18.3 23.7 18.5 24L18 24.9Z" fill="#7C4526"/>
<path d="M10.8999 26.2H10.8C10.8 26.1 10.9 24.7 11.2 24.4C11.4 24.2 11.8 24 12.2 23.9C12.5 23.8 13 23.7 13 23.5L13.7 23.4C13.7 23.8 12.8 24.1 12.3 24.2C12 24.3 11.4999 24.3 11.3999 24.5C11.1999 24.7 10.8999 25.7 10.8999 26.2Z" fill="#7C4526"/>
<path d="M11 22.6C11.6 22 11.7 21.8 11.7 21.7C11.8 21.5 11.6 21 11.5 20.8H11.6001C11.7001 20.9 11.9999 21.5 11.8999 21.8C11.8999 22 11.6 22.4 11.2 22.9L11 22.6Z" fill="#7C4526"/>
<path d="M12.1001 19.4C12.1001 19.7 11.9 19.9 11.7 19.9C11.5 19.9 11.3 19.6 11.3 19.4C11.3 19.1 11.5 18.9 11.7 18.9C12 18.9 12.1001 19.1 12.1001 19.4Z" fill="#FFF4DE"/>
<path d="M11.3 19.4001C11.5 19.6001 11.5999 19.8 11.4999 20C11.3999 20.2 11.0998 20.2 10.8998 20C10.6998 19.8 10.5999 19.6001 10.6999 19.4001C10.7999 19.3001 11 19.3001 11.3 19.4001Z" fill="#FFF4DE"/>
<path d="M10.8998 20.1C11.1998 20 11.3999 20 11.4999 20.2C11.5999 20.4 11.4999 20.6001 11.1999 20.8001C10.8999 20.9001 10.7 20.9 10.6 20.7C10.5 20.5 10.5998 20.3 10.8998 20.1Z" fill="#FFF4DE"/>
<path d="M11.3 20.9C11.3 20.6 11.5 20.4 11.7 20.4C11.9 20.4 12.1001 20.6 12.1001 20.9C12.1001 21.2 11.9 21.4 11.7 21.4C11.4 21.4 11.3 21.1 11.3 20.9Z" fill="#FFF4DE"/>
<path d="M12.1 20.9C11.9 20.7 11.7998 20.5 11.8998 20.3C11.9998 20.1 12.2999 20.1 12.4999 20.3C12.6999 20.5 12.7998 20.7 12.6998 20.9C12.5998 21 12.3 21 12.1 20.9Z" fill="#FFF4DE"/>
<path d="M12.4999 20.1C12.1999 20.2 11.9998 20.2 11.8998 20C11.7998 19.8 11.8998 19.5 12.1998 19.4C12.4998 19.3 12.6999 19.3 12.7999 19.5C12.8999 19.8 12.7999 20 12.4999 20.1Z" fill="#FFF4DE"/>
<path d="M12.1001 20.2C12.1001 20.4 11.9001 20.6 11.6001 20.6C11.4001 20.6 11.2 20.4 11.2 20.1C11.2 19.9 11.4 19.7 11.7 19.7C12 19.7 12.1001 19.9 12.1001 20.2Z" fill="#F8BE3B"/>
<path d="M8.8999 20.7C8.8999 21 8.7 21.2 8.5 21.2C8.3 21.2 8.1001 21 8.1001 20.7C8.1001 20.4 8.3 20.2 8.5 20.2C8.8 20.2 8.9999 20.4 8.8999 20.7Z" fill="#FFF4DE"/>
<path d="M8.10003 20.6999C8.30003 20.8999 8.39998 21.1 8.29998 21.3C8.19998 21.5 7.89988 21.5 7.69988 21.3C7.49988 21.1 7.39993 20.8999 7.49993 20.6999C7.59993 20.4999 7.90003 20.4999 8.10003 20.6999Z" fill="#FFF4DE"/>
<path d="M7.69985 21.4C7.99985 21.3 8.19994 21.3 8.29994 21.5C8.39994 21.7 8.29989 21.9 7.99989 22.1C7.69989 22.2 7.4998 22.2 7.3998 22C7.2998 21.8 7.39985 21.5 7.69985 21.4Z" fill="#FFF4DE"/>
<path d="M8.1001 22.1C8.1001 21.8 8.3 21.6 8.5 21.6C8.7 21.6 8.8999 21.8 8.8999 22.1C8.8999 22.4 8.7 22.6 8.5 22.6C8.2 22.6 8.1001 22.4 8.1001 22.1Z" fill="#FFF4DE"/>
<path d="M8.89983 22.1C8.69983 21.9 8.59988 21.7 8.69988 21.5C8.79988 21.3 9.09998 21.3 9.29998 21.5C9.49998 21.7 9.59993 21.9 9.49993 22.1C9.39993 22.3 9.19983 22.3 8.89983 22.1Z" fill="#FFF4DE"/>
<path d="M9.3998 21.4C9.0998 21.5 8.89994 21.5 8.79994 21.3C8.69994 21.1 8.79999 20.7999 9.09999 20.6999C9.39999 20.5999 9.59985 20.6 9.69985 20.8C9.69985 21 9.5998 21.3 9.3998 21.4Z" fill="#FFF4DE"/>
<path d="M8.8999 21.4C8.8999 21.6 8.6999 21.8 8.3999 21.8C8.1999 21.8 8 21.6 8 21.3C8 21.1 8.2 20.9 8.5 20.9C8.8 21 8.9999 21.2 8.8999 21.4Z" fill="#F8BE3B"/>
<path d="M11.2 25.4C11.2 25.7 11 25.9 10.8 25.9C10.6 25.9 10.3999 25.6 10.3999 25.4C10.3999 25.1 10.6 24.9 10.8 24.9C11.1 24.8 11.2 25.1 11.2 25.4Z" fill="#FFF4DE"/>
<path d="M10.3998 25.3001C10.5998 25.5001 10.7 25.7001 10.6 25.9001C10.5 26.1001 10.1999 26.1001 9.99993 25.9001C9.79993 25.7001 9.69998 25.5001 9.79998 25.3001C9.89998 25.2001 10.0998 25.2001 10.3998 25.3001Z" fill="#FFF4DE"/>
<path d="M9.99989 26.1C10.1999 26 10.5 26 10.6 26.2C10.7 26.4 10.5999 26.7001 10.2999 26.8001C9.99994 26.9001 9.79985 26.9 9.69985 26.7C9.59985 26.5 9.69989 26.2 9.99989 26.1Z" fill="#FFF4DE"/>
<path d="M10.3999 26.8C10.3999 26.5 10.6 26.3 10.8 26.3C11 26.3 11.2 26.6 11.2 26.8C11.2 27.1 11 27.3 10.8 27.3C10.5 27.3 10.3999 27.1 10.3999 26.8Z" fill="#FFF4DE"/>
<path d="M11.1999 26.8C10.9999 26.6 10.8999 26.3999 10.9999 26.1999C11.0999 25.9999 11.4 25.9999 11.6 26.1999C11.8 26.3999 11.9 26.6 11.8 26.8C11.7 26.9 11.3999 27 11.1999 26.8Z" fill="#FFF4DE"/>
<path d="M11.6 26.1C11.3 26.2 11.0999 26.2 10.9999 26C10.8999 25.8 10.9999 25.5 11.2999 25.4C11.5999 25.3 11.7998 25.3 11.8998 25.5C11.9998 25.7 11.9 26 11.6 26.1Z" fill="#FFF4DE"/>
<path d="M11.2 26.1C11.2 26.3 11 26.5 10.7 26.5C10.5 26.5 10.3 26.3 10.3 26C10.3 25.8 10.5 25.6 10.8 25.6C11.1 25.7 11.2 25.9 11.2 26.1Z" fill="#F8BE3B"/>
</svg>