<svg xmlns="http://www.w3.org/2000/svg" fill="none" viewBox="0.8 0.6 92.7 50.6">
<path d="M23.9 51.2H21.5L26.1 36.4H31.8L23.9 51.2Z" fill="#DCDCDC"/>
<path d="M88.8999 13.6H21.5V36.4H88.8999V13.6Z" fill="#DCDCDC"/>
<path d="M72.8 13.6H5.40002V36.4H72.8V13.6Z" fill="#FBFCFD"/>
<path d="M3.19995 51.2H0.800049L5.40002 36.4H11.1L3.19995 51.2Z" fill="#FBFCFD"/>
<path d="M91.2 51.2H93.5L89 36.4H83.2L91.2 51.2Z" fill="#DCDCDC"/>
<path d="M75 51.2H77.3999L72.8 36.4H67.1001L75 51.2Z" fill="#FBFCFD"/>
<path d="M37.6001 17.9H9.5V32.1H37.6001V17.9Z" fill="#FDCC5F"/>
<path d="M68.7 17.9H40.6001V32.1H68.7V17.9Z" fill="#FDCC5F"/>
<path d="M27.2 19.9H19.8V22.1H27.2V19.9Z" fill="#4E382D"/>
<path d="M58.3999 19.9H51V22.1H58.3999V19.9Z" fill="#4E382D"/>
<path d="M38.6001 9.09998H11.1V11.7H38.6001V9.09998Z" fill="#62882D"/>
<path d="M38.6001 9.40002H33.3V11.4H38.6001V9.40002Z" fill="#DCDCDC"/>
<path d="M32.6 9.09998H9V11.7H32.6V9.09998Z" fill="#7EB034"/>
<path d="M35.6 7.09998H9.30005V9H35.6V7.09998Z" fill="#9D271F"/>
<path d="M35.6 7.40002H29.5V8.69995H35.6V7.40002Z" fill="#DCDCDC"/>
<path d="M28.7 7.09998H7.09998V9H28.7V7.09998Z" fill="#E4372E"/>
<path d="M39.2 11.7H9.30005V13.7H39.2V11.7Z" fill="#46AEAA"/>
<path d="M39.2 12H31.5V13.3H39.2V12Z" fill="#DCDCDC"/>
<path d="M30.7 11.7H7.09998V13.7H30.7V11.7Z" fill="#6AC3C7"/>
<path d="M40.6001 2.59998H13.1V5.19995H40.6001V2.59998Z" fill="#2A334F"/>
<path d="M40.6001 2.90002H35.3V4.90002H40.6001V2.90002Z" fill="#DCDCDC"/>
<path d="M34.6 2.59998H11V5.19995H34.6V2.59998Z" fill="#475677"/>
<path d="M37.6001 0.599976H11.3V2.59998H37.6001V0.599976Z" fill="#9D271F"/>
<path d="M37.6001 0.900024H31.5V2.19995H37.6001V0.900024Z" fill="#DCDCDC"/>
<path d="M30.8 0.599976H9.19995V2.59998H30.8V0.599976Z" fill="#E4372E"/>
<path d="M41.2 5.19995H11.3V7.09998H41.2V5.19995Z" fill="#EC6151"/>
<path d="M41.3 5.5H33.6V6.80005H41.3V5.5Z" fill="#DCDCDC"/>
<path d="M32.8 5.19995H9.19995V7.09998H32.8V5.19995Z" fill="#EE8F33"/>
</svg>