<svg xmlns="http://www.w3.org/2000/svg" fill="none" viewBox="0.4 0.3 104.3 76.9">
<path d="M104.7 29.6H21.2V33.9H104.7V29.6Z" fill="#DCDCDC"/>
<path d="M101.7 33.9H83.4V77.2H101.7V33.9Z" fill="#C5C5C4"/>
<path d="M42.3 31.7H20V60.8H42.3V31.7Z" fill="#C5C5C4"/>
<path d="M24.4 31.7H6.59998V77.1H24.4V31.7Z" fill="#C5C5C4"/>
<path d="M30.2 31.7H2.59998V60.8H30.2V31.7Z" fill="#F0F0F0"/>
<path d="M6.90002 31.7H2.59998V77.1H6.90002V31.7Z" fill="#F0F0F0"/>
<path d="M84.4 31.7H80.1V77.1H84.4V31.7Z" fill="#F0F0F0"/>
<path d="M86.6 29.6H0.400024V33.9H86.6V29.6Z" fill="white"/>
<path d="M19.7 38.9H13.3V40.3H19.7V38.9Z" fill="#FEC905"/>
<path d="M19.7 50.4H13.3V51.8H19.7V50.4Z" fill="#FEC905"/>
<path d="M27.6 47.2H4.09998V36.2H27.6V47.2ZM5.40002 45.9H26.3V37.5H5.40002V45.9Z" fill="#C5C5C4"/>
<path d="M27.6 59.2H4.09998V48.2H27.6V59.2ZM5.40002 57.9H26.3V49.5H5.40002V57.9Z" fill="#C5C5C4"/>
<path d="M73.3 28.8H52.5V29.6H73.3V28.8Z" fill="#27292B"/>
<path d="M67.5 1.5H53.3V28.8H67.5V1.5Z" fill="#27292B"/>
<path d="M79 0.300049H41V24.8H79V0.300049Z" fill="#27292B"/>
<path d="M65.6 1.5H51.4V28.8H65.6V1.5Z" fill="#36383D"/>
<path d="M67.8 28.8H47V29.6H67.8V28.8Z" fill="#393C41"/>
<path d="M77.5 0.300049H39.5V24.8H77.5V0.300049Z" fill="#393C41"/>
<path d="M75.7 2.19995H41.4V22.9H75.7V2.19995Z" fill="#76CCF0"/>
<path d="M74.8 5.90002H47.8V21.9H74.8V5.90002Z" fill="white"/>
<path d="M74.7 3.19995H41.9V5H74.7V3.19995Z" fill="white"/>
<path d="M46.6 5.90002H41.9V10H46.6V5.90002Z" fill="white"/>
<path d="M46.6 17.9H41.9V22H46.6V17.9Z" fill="white"/>
<path d="M46.6 11.9H41.9V16H46.6V11.9Z" fill="white"/>
</svg>