<svg xmlns="http://www.w3.org/2000/svg" fill="none" viewBox="0.7 0.2 105.8 52.7">
<path d="M24.3 13.7H6V52.9H24.3V19C24.3 16 27.2 13.7 24.3 13.7Z" fill="#CA3328"/>
<path d="M24.3 44.1H6V52.8H24.3V44.1Z" fill="#B32D23"/>
<path d="M106.3 29.7V13.9C106.3 6.40002 100.2 0.199951 92.6 0.199951H42C34.5 0.199951 28.3 6.30002 28.3 13.9V29.7H106.3Z" fill="#9F271F"/>
<path d="M101 29.7V13.9C101 6.40002 94.9 0.199951 87.3 0.199951H36.7C29.2 0.199951 23 6.30002 23 13.9V29.7H101Z" fill="#E94D40"/>
<path d="M26.6 17.4C26.6 9.90002 32.7 3.69995 40.3 3.69995H90.9C93.8 3.69995 96.4001 4.59998 98.6001 6.09998C96.1001 2.49998 92 0.199951 87.4 0.199951H36.8C29.3 0.199951 23.1 6.30002 23.1 13.9V29.7H26.6V17.4Z" fill="#EB5C4F"/>
<path d="M35.6 17.1C35.6 15.9 34.6 14.9 33.4 14.9C32.2 14.9 31.2 15.9 31.2 17.1C31.2 18.3 32.2 19.3 33.4 19.3C34.6 19.3 35.6 18.3 35.6 17.1Z" fill="#9F271F"/>
<path d="M46.5 17.1C46.5 15.9 45.5 14.9 44.3 14.9C43.1 14.9 42.1 15.9 42.1 17.1C42.1 18.3 43.1 19.3 44.3 19.3C45.5 19.3 46.5 18.3 46.5 17.1Z" fill="#9F271F"/>
<path d="M57.4 17.1C57.4 15.9 56.4 14.9 55.2 14.9C54 14.9 53 15.9 53 17.1C53 18.3 54 19.3 55.2 19.3C56.4 19.3 57.4 18.3 57.4 17.1Z" fill="#9F271F"/>
<path d="M68.2 17.1C68.2 15.9 67.2 14.9 66 14.9C64.8 14.9 63.8 15.9 63.8 17.1C63.8 18.3 64.8 19.3 66 19.3C67.3 19.3 68.2 18.3 68.2 17.1Z" fill="#9F271F"/>
<path d="M79.1 17.1C79.1 15.9 78.1 14.9 76.9 14.9C75.7 14.9 74.7 15.9 74.7 17.1C74.7 18.3 75.7 19.3 76.9 19.3C78.2 19.3 79.1 18.3 79.1 17.1Z" fill="#9F271F"/>
<path d="M90 17.1C90 15.9 89 14.9 87.8 14.9C86.6 14.9 85.6 15.9 85.6 17.1C85.6 18.3 86.6 19.3 87.8 19.3C89 19.3 90 18.3 90 17.1Z" fill="#9F271F"/>
<path d="M38.9 12.8C40.1151 12.8 41.1 11.815 41.1 10.6C41.1 9.38495 40.1151 8.40002 38.9 8.40002C37.685 8.40002 36.7 9.38495 36.7 10.6C36.7 11.815 37.685 12.8 38.9 12.8Z" fill="#9F271F"/>
<path d="M51.9 10.6C51.9 9.39998 50.9 8.40002 49.7 8.40002C48.5 8.40002 47.5 9.39998 47.5 10.6C47.5 11.8 48.5 12.8 49.7 12.8C50.9 12.8 51.9 11.8 51.9 10.6Z" fill="#9F271F"/>
<path d="M62.8 10.6C62.8 9.39998 61.8 8.40002 60.6 8.40002C59.4 8.40002 58.4 9.39998 58.4 10.6C58.4 11.8 59.4 12.8 60.6 12.8C61.8 12.8 62.8 11.8 62.8 10.6Z" fill="#9F271F"/>
<path d="M73.7 10.6C73.7 9.39998 72.7 8.40002 71.5 8.40002C70.3 8.40002 69.3 9.39998 69.3 10.6C69.3 11.8 70.3 12.8 71.5 12.8C72.7 12.8 73.7 11.8 73.7 10.6Z" fill="#9F271F"/>
<path d="M82.4 12.8C83.6151 12.8 84.6 11.815 84.6 10.6C84.6 9.38495 83.6151 8.40002 82.4 8.40002C81.185 8.40002 80.2 9.38495 80.2 10.6C80.2 11.815 81.185 12.8 82.4 12.8Z" fill="#9F271F"/>
<path d="M41 23.7C41 22.5 40 21.5 38.8 21.5C37.6 21.5 36.6 22.5 36.6 23.7C36.6 24.9 37.6 25.9 38.8 25.9C40.1 25.9 41 24.9 41 23.7Z" fill="#9F271F"/>
<path d="M51.9 23.7C51.9 22.5 50.9 21.5 49.7 21.5C48.5 21.5 47.5 22.5 47.5 23.7C47.5 24.9 48.5 25.9 49.7 25.9C50.9 25.9 51.9 24.9 51.9 23.7Z" fill="#9F271F"/>
<path d="M62.8 23.7C62.8 22.5 61.8 21.5 60.6 21.5C59.4 21.5 58.4 22.5 58.4 23.7C58.4 24.9 59.4 25.9 60.6 25.9C61.8 25.9 62.8 24.9 62.8 23.7Z" fill="#9F271F"/>
<path d="M73.7 23.7C73.7 22.5 72.7 21.5 71.5 21.5C70.3 21.5 69.3 22.5 69.3 23.7C69.3 24.9 70.3 25.9 71.5 25.9C72.7 25.9 73.7 24.9 73.7 23.7Z" fill="#9F271F"/>
<path d="M84.6 23.7C84.6 22.5 83.6 21.5 82.4 21.5C81.2 21.5 80.2 22.5 80.2 23.7C80.2 24.9 81.2 25.9 82.4 25.9C83.6 25.9 84.6 24.9 84.6 23.7Z" fill="#9F271F"/>
<path d="M106.3 29.2H28.4V49.1H106.3V29.2Z" fill="#A23740"/>
<path d="M106.3 29.2H28.4V49.1H106.3V29.2Z" fill="#A23740"/>
<path d="M87 29.2H9.09998V49.1H87V29.2Z" fill="#EA525F"/>
<path d="M87 29.2H9.09998V50H87V29.2Z" fill="#E4372E"/>
<path d="M87 43.6H9.09998V45.4H87V43.6Z" fill="#B32D23"/>
<path d="M17.1 50V31.9H87.1V29.2H9.09998V50H17.1Z" fill="#B32D23"/>
<path d="M101.2 13.7H88.2L90 18.2L91.4 52.9H106.5V19C106.5 16 104.1 13.7 101.2 13.7Z" fill="#CA3328"/>
<path d="M93.5 52.8V19C93.5 16.1 91.1 13.7 88.2 13.7C85.3 13.7 82.9 16.1 82.9 19V52.8H93.5Z" fill="#ED6A5F"/>
<path d="M11.3 52.8V19C11.3 16.1 8.9 13.7 6 13.7C3.1 13.7 0.699951 16.1 0.699951 19V52.8H11.3Z" fill="#ED6A5F"/>
</svg>