<svg xmlns="http://www.w3.org/2000/svg" fill="none" viewBox="0.3 0.7 74.1 52.6">
<path d="M23.8 14.1H5.5V53.3H23.8V19.5C23.8 16.5 26.8 14.1 23.8 14.1Z" fill="#CA3328"/>
<path d="M23.8 44.6H5.5V53.3H23.8V44.6Z" fill="#B32D23"/>
<path d="M74.2 30.2V14.4C74.2 6.90002 68.1 0.699951 60.5 0.699951H41.6C34.1 0.699951 27.9 6.80002 27.9 14.4V30.2H74.2Z" fill="#9F271F"/>
<path d="M68.9 30.2V14.4C68.9 6.90002 62.8 0.699951 55.2 0.699951H36.3C28.8 0.699951 22.6 6.80002 22.6 14.4V30.2H68.9Z" fill="#E94D40"/>
<path d="M26.2 17.9C26.2 10.4 32.3 4.19995 39.9 4.19995H58.8C61.7 4.19995 64.3 5.09998 66.5 6.59998C64 2.99998 59.9 0.699951 55.3 0.699951H36.4C28.9 0.699951 22.7 6.80002 22.7 14.4V30.2H26.2V17.9Z" fill="#EB5C4F"/>
<path d="M74.2 29.6H27.9V49.5H74.2V29.6Z" fill="#A23740"/>
<path d="M74.2 29.6H27.9V49.5H74.2V29.6Z" fill="#A23740"/>
<path d="M55 29.6H8.69995V49.5H55V29.6Z" fill="#EA525F"/>
<path d="M55 29.6H8.69995V53.2H55V29.6Z" fill="#E4372E"/>
<path d="M55 44.1H8.69995V45.9H55V44.1Z" fill="#B32D23"/>
<path d="M16.7 53.1V32.7H54.9V29.6H8.69995V53.1H16.7Z" fill="#B32D23"/>
<path d="M69.1 14.1H56.1L57.9 18.6L59.3 53.3H74.4V19.5C74.4 16.5 72 14.1 69.1 14.1Z" fill="#CA3328"/>
<path d="M61.4 53.3V19.5C61.4 16.6 59 14.2 56.1 14.2C53.2 14.2 50.8 16.6 50.8 19.5V53.3H61.4Z" fill="#ED6A5F"/>
<path d="M10.9 53.3V19.5C10.9 16.6 8.49998 14.2 5.59998 14.2C2.69998 14.2 0.300049 16.6 0.300049 19.5V53.3H10.9Z" fill="#ED6A5F"/>
</svg>