<svg xmlns="http://www.w3.org/2000/svg" fill="none" viewBox="0.8 0.5 71.1 63.3">
<path d="M43.3 23H34.7V39.9H43.3V23Z" fill="#231F20"/>
<path d="M9.40002 23H0.800049V39.9H9.40002V23Z" fill="#231F20"/>
<path d="M37.2 23H0.800049V25.5H37.2V23Z" fill="#393C41"/>
<path d="M37.2 37.4H0.800049V39.9H37.2V37.4Z" fill="#393C41"/>
<path d="M3.30005 24.2H0.800049V39.9H3.30005V24.2Z" fill="#393C41"/>
<path d="M37.2 24.2H34.7V39.9H37.2V24.2Z" fill="#393C41"/>
<path d="M71.9 46.9H63.3V63.8H71.9V46.9Z" fill="#231F20"/>
<path d="M36.7 46.9H28.1V63.8H36.7V46.9Z" fill="#231F20"/>
<path d="M65.8 46.9H28.1V49.4H65.8V46.9Z" fill="#393C41"/>
<path d="M65.8 61.3H28.1V63.8H65.8V61.3Z" fill="#393C41"/>
<path d="M30.6 48.1H28.1V63.8H30.6V48.1Z" fill="#393C41"/>
<path d="M65.8 48.1H63.3V63.8H65.8V48.1Z" fill="#393C41"/>
<path d="M9.40002 46.9H0.800049V63.8H9.40002V46.9Z" fill="#231F20"/>
<path d="M23.5 46.9H14.9V63.8H23.5V46.9Z" fill="#231F20"/>
<path d="M17.3 46.9H0.800049V49.4H17.3V46.9Z" fill="#393C41"/>
<path d="M17.3 61.3H0.800049V63.8H17.3V61.3Z" fill="#393C41"/>
<path d="M3.30005 48.1H0.800049V63.8H3.30005V48.1Z" fill="#393C41"/>
<path d="M17.4 48.1H14.9V63.8H17.4V48.1Z" fill="#393C41"/>
<path d="M57.9 2.5H46.8V40H57.9V2.5Z" fill="#231F20"/>
<path d="M71.9 2.5H63.3V40H71.9V2.5Z" fill="#231F20"/>
<path d="M65.8 2.5H46.8V5H65.8V2.5Z" fill="#393C41"/>
<path d="M65.8 37.4H46.8V39.9H65.8V37.4Z" fill="#393C41"/>
<path d="M49.3 3.59998H46.8V39.9H49.3V3.59998Z" fill="#393C41"/>
<path d="M65.8 3.59998H63.3V39.9H65.8V3.59998Z" fill="#393C41"/>
<path d="M33.6 0.5H9.40002V18.1H33.6V0.5Z" fill="#242629"/>
<path d="M32.9 0.5H8.69995V18.1H32.9V0.5Z" fill="#383D41"/>
<path d="M30.6 2.5H10.9V16.2H30.6V2.5Z" fill="#F5F5F5"/>
<path d="M12.1 14.6L17.2 5.80005L22.2 14.6H12.1Z" fill="#F18724"/>
<path d="M23.0704 3.72706L17.8561 9.52795L23.6569 14.7422L28.8712 8.94131L23.0704 3.72706Z" fill="#6AC3C7"/>
<path d="M28.8 7.19995C28.8 8.99995 27.3 10.4 25.6 10.4C23.8 10.4 22.4 8.89995 22.4 7.19995C22.4 5.39995 23.9 4 25.6 4C27.4 4 28.8 5.39995 28.8 7.19995Z" fill="#FEC905"/>
<path d="M7.3001 53.4C7.8001 54 7.80007 54.6999 7.40007 55.0999C7.00007 55.4999 6.3001 55.2999 5.8001 54.6999C5.3001 54.0999 5.3 53.4 5.7 53C6.1 52.7 6.8001 52.9 7.3001 53.4Z" fill="#86B027"/>
<path d="M5.40002 54.6C5.10002 54.6 4.80005 54.3 4.80005 54C4.80005 53.6 5.00002 53.3 5.40002 53.3C5.70002 53.3 6 53.6 6 53.9C6 54.3 5.70002 54.6 5.40002 54.6Z" fill="#86B027"/>
<path d="M6.5 52.5C6.5 52.4 6.5 52.4 6.5 52.5C6.6 52.5 6.5 52.4 6.5 52.5Z" fill="#86B027"/>
<path d="M5.60002 55C5.50002 55 5.50002 55 5.60002 55C5.50002 54.9 5.50002 54.9 5.60002 55Z" fill="#86B027"/>
<path d="M12.8001 53.7C12.1001 54.6 11 54.9 10.4 54.4C9.70004 53.9 9.80002 52.8 10.5 51.9C11.2 51 12.3 50.7 12.9 51.2C13.5 51.6 13.5001 52.8 12.8001 53.7Z" fill="#67922E"/>
<path d="M11.3 51.8C11 51.8 10.7 51.5 10.7 51.2C10.7 50.8 10.9 50.5 11.3 50.5C11.6 50.5 11.9 50.8 11.9 51.1C11.9 51.5 11.6 51.8 11.3 51.8Z" fill="#67922E"/>
<path d="M13.4 53.3C13.4 53.4 13.3 53.4 13.4 53.3Z" fill="#67922E"/>
<path d="M12.1 55.9C12.1 57.8 11 59.4 9.5 59.4C8.1 59.4 6.90002 57.8 6.90002 55.9C6.90002 54 8 52.4 9.5 52.4C10.9 52.4 12.1 54 12.1 55.9Z" fill="#739E2D"/>
<path d="M8.30005 52.4001C8.40005 52.3001 8.30005 52.3001 8.30005 52.4001Z" fill="#739E2D"/>
<path d="M12.9 57.7H8.40002V61.3H12.9V57.7Z" fill="#AD3328"/>
<path d="M10.4 57.7H5.90002V61.3H10.4V57.7Z" fill="#E94A38"/>
<path d="M36.4 51.1H33.7V61.3H36.4V51.1Z" fill="#7CBA52"/>
<path d="M39.8 54.9H35V61.3H39.8V54.9Z" fill="#06151F"/>
<path d="M41.2 53.3H38.2V61.3H41.2V53.3Z" fill="#B3C4C0"/>
<path d="M41.1 54H39.4V61.3H41.1V54Z" fill="#2A7D90"/>
<path d="M43.2 52.9H42.1V61.3H43.2V52.9Z" fill="#CA1517"/>
<path d="M33.7 51.1H31V61.3H33.7V51.1Z" fill="#A0C863"/>
<path d="M35.1 54.9H33.7V61.3H35.1V54.9Z" fill="#0B344F"/>
<path d="M38.1 53.3H37.1V61.3H38.1V53.3Z" fill="#DEEFEC"/>
<path d="M39.4 54H38.2V61.3H39.4V54Z" fill="#3DBDD9"/>
<path d="M41.5 52.9H40.4V61.3H41.5V52.9Z" fill="#514E71"/>
<path d="M45.6 52.9H41.5V61.3H45.6V52.9Z" fill="#38354D"/>
<path d="M49 51.6H45.4V61.3H49V51.6Z" fill="#CE9E11"/>
<path d="M45.5 51.6H42.7V61.3H45.5V51.6Z" fill="#FCC016"/>
<path d="M55.2 51.8H51.3V61.3H55.2V51.8Z" fill="#454A1B"/>
<path d="M51.3 51.8H48.7V61.3H51.3V51.8Z" fill="#778125"/>
<path d="M56.2 53.9H52.9V61.3H56.2V53.9Z" fill="#C01818"/>
<path d="M52.9 53.9H51.3V61.3H52.9V53.9Z" fill="#E52926"/>
<path d="M57.9 56.4H54.6V61.3H57.9V56.4Z" fill="#0C2030"/>
<path d="M54.6 56.4H52.9V61.3H54.6V56.4Z" fill="#094466"/>
<path d="M18.4 32.9H6.19995V35.5H18.4V32.9Z" fill="#62882D"/>
<path d="M18.5 33.2H16.1V35.2H18.5V33.2Z" fill="#DCDCDC"/>
<path d="M15.8 32.9H5.30005V35.5H15.8V32.9Z" fill="#7EB034"/>
<path d="M17.1 30.9H5.40002V32.8H17.1V30.9Z" fill="#9D271F"/>
<path d="M17.1 31.2H14.4V32.5H17.1V31.2Z" fill="#DCDCDC"/>
<path d="M14.1 30.9H4.5V32.8H14.1V30.9Z" fill="#E4372E"/>
<path d="M18.7 35.5H5.40002V37.4H18.7V35.5Z" fill="#46AEAA"/>
<path d="M18.7 35.8H15.3V37.1H18.7V35.8Z" fill="#DCDCDC"/>
<path d="M15 35.5H4.5V37.4H15V35.5Z" fill="#6AC3C7"/>
<path d="M56.8 26.8C56.5 24 56.2 20.8 56.1 17.6C56.3 17.5 56.5 16.8 56.5 15.9C56.5 15 56.3 14.2 56 14.2C55.7 14.2 55.5 15 55.5 15.9C55.5 16.8 55.7 17.5 55.9 17.6C56 20.8 56.3 24.1 56.6 26.8H56.8Z" fill="#AAADD8"/>
<path d="M57 26.3C56.2 23.4 54.8 20.8999 53.7 19.1999C53.9 18.9999 53.6 18.3 53.1 17.5C52.5 16.7 51.9 16.3 51.7 16.4C51.5 16.6 51.8001 17.2999 52.3001 18.0999C52.8001 18.6999 53.2 19.0999 53.5 19.1999C54.5 20.8999 56.0001 23.5 56.8001 26.3H57Z" fill="#AAADD8"/>
<path d="M62.3 15.8C62.1 15.6 61.5 15.7999 60.9 16.1999C60.3 16.5999 60 17.2 60.1 17.4C57.5 19.9 56.5 23.7 56.2 27H56.3C56.6 23.7 57.6 19.9 60.2 17.5C60.4 17.6 61 17.4 61.5 17C62.1 16.6 62.5 16 62.3 15.8Z" fill="#AAADD8"/>
<path d="M57.7 29.8C57.6 27.8 57.4 26.1 57.1 25.2H56.1C55.8 26.1 55.6 27.8 55.5 29.8C54 30.3 52.9 31.9 52.9 33.7C52.9 35.1 53.5 36.3 54.4 37H58.8C59.7 36.3 60.3 35 60.3 33.7C60.3 31.9 59.2 30.3 57.7 29.8Z" fill="#44BABC"/>
<path d="M57.8 25.3C57.8 25.6 57.6 25.8 57.3 25.8H55.9C55.6 25.8 55.4 25.6 55.4 25.3C55.4 25 55.6 24.8 55.9 24.8H57.3C57.6 24.8 57.8 25 57.8 25.3Z" fill="#44BABC"/>
<path d="M59.3 37.2C59.3 37.3 59.2 37.4 59.1 37.4H54C53.9 37.4 53.8 37.3 53.8 37.2C53.8 37.1 53.9 37 54 37H59.1C59.2 37.1 59.3 37.1 59.3 37.2Z" fill="#44BABC"/>
<path d="M31.5 34C31.5 32.1 30 30.6 28.1 30.6C26.2 30.6 24.7 32.1 24.7 34C24.7 35.9 26.2 37.4 28.1 37.4C30 37.4 31.5 35.8 31.5 34Z" fill="#AE3228"/>
<path d="M24.8 30.1L24.7 29.9C25.1 29.6 25.3 29.3 25.5 29C25.8 28.6 26.1 28.2 26.7 28.2H28.6V28.4H26.7C26.2 28.4 25.9 28.7 25.6 29.1C25.4 29.5 25.2 29.8 24.8 30.1Z" fill="#020203"/>
<path d="M30.4 30.1C30 29.7 29.7 29.4 29.6 29.1C29.3 28.7 29.2 28.4 28.6 28.4H26.7V28.2H28.6C29.2 28.2 29.5 28.5 29.7 29C29.9 29.3 30.1 29.6 30.5 30L30.4 30.1Z" fill="#020203"/>
<path d="M25.3 37.4L25.8 36.3L25 36.1V37.4H25.3Z" fill="#020203"/>
<path d="M30.2 37.4L30.4 36.1H30.5V37.4H30.2Z" fill="#020203"/>
<path d="M28.1 36.6C26.7 36.6 25.5 35.4 25.5 34C25.5 32.6 26.7 31.4 28.1 31.4C29.5 31.4 30.7 32.6 30.7 34C30.7 35.4 29.5 36.6 28.1 36.6Z" fill="#E9DAAF"/>
<path d="M28.3 31.9L28 32C28 32 27.9 32 27.9 31.9V31.7C27.9 31.7 27.9 31.6 28 31.6H28.2C28.2 31.6 28.3 31.6 28.3 31.7V31.9Z" fill="#E94D40"/>
<path d="M26.2 34.1C26.2 34.2 26.2 34.2 26.2 34.1L25.9 34.2C25.9 34.2 25.8 34.2 25.8 34.1V33.9C25.8 33.9 25.8 33.8 25.9 33.8H26.1C26.1 33.8 26.2 33.8 26.2 33.9V34.1Z" fill="#E94D40"/>
<path d="M30.4 34.1C30.4 34.2 30.4 34.2 30.4 34.1L30.1 34.2C30.1 34.2 30 34.2 30 34.1V33.9C30 33.9 30 33.8 30.1 33.8H30.3C30.3 33.8 30.4 33.8 30.4 33.9V34.1Z" fill="#E94D40"/>
<path d="M28.3 36.3L28 36.4C28 36.4 27.9 36.4 27.9 36.3V36.1C27.9 36.1 27.9 36 28 36H28.2C28.2 36 28.3 36 28.3 36.1V36.3Z" fill="#E94D40"/>
<path d="M29.1 32.5C29 32.5 29 32.5 28.9 32.5L28.1 33.7C28.1 33.7 28.1 33.7 28 33.7C27.9 33.7 27.8 33.8 27.8 33.8H27.1C27 33.8 26.9 33.9 26.9 34C26.9 34.1 27 34.2 27.1 34.2H27.8C27.8 34.2 27.9 34.3 28 34.3C28.1 34.3 28.3 34.2 28.3 34V33.9L29.1 32.7C29.2 32.6 29.2 32.5 29.1 32.5Z" fill="#231F20"/>
<path d="M25.2 37.4L25.7 36.3L24.9 36.1V37.4H25.2Z" fill="#231F20"/>
<path d="M30.1 37.4L29.7 36.6C30 36.4 30.3 36.1 30.3 36.1V37.4H30.1Z" fill="#231F20"/>
<path d="M30.8 34C30.8 32.1 29.3 30.6 27.4 30.6C25.5 30.6 24 32.1 24 34C24 35.9 25.5 37.4 27.4 37.4C29.3 37.4 30.8 35.8 30.8 34Z" fill="#E94D40"/>
<path d="M27.4 36.6C26 36.6 24.8 35.4 24.8 34C24.8 32.6 26 31.4 27.4 31.4C28.8 31.4 30 32.6 30 34C30.1 35.4 28.9 36.6 27.4 36.6Z" fill="#E9DAAF"/>
<path d="M24.6 30.1L24.5 29.9C24.9 29.6 25.1 29.3 25.3 29C25.6 28.6 25.9 28.2 26.5 28.2H28.4V28.4H26.5C26 28.4 25.7 28.7 25.4 29.1C25.3 29.5 25 29.8 24.6 30.1Z" fill="#231F20"/>
<path d="M30.3 30.1C29.9 29.7 29.6 29.4 29.5 29.1C29.2 28.7 29.1 28.4 28.5 28.4H26.6V28.2H28.5C29.1 28.2 29.4 28.5 29.6 29C29.8 29.3 30 29.6 30.4 30L30.3 30.1Z" fill="#231F20"/>
<path d="M24.9 30.1C24.9 29.9 24.7 29.8 24.6 29.8C24.4 29.8 24.3 30 24.3 30.1C24.3 30.3 24.5 30.4 24.6 30.4C24.8 30.4 24.9 30.3 24.9 30.1Z" fill="#EA9430"/>
<path d="M26.3 30.4C26 29.8 25.4 29.6 24.8 29.9L24.4999 30.1C23.9999 30.4 23.6999 31 23.9999 31.6L26.3 30.4Z" fill="#FDC20B"/>
<path d="M26.3 30.4001C26.4 30.5001 25.7999 30.8 25.1999 31.2C24.5999 31.5 24.1 31.7 24 31.6C23.9 31.5 24.4 31.1 25 30.7C25.6 30.4 26.2 30.3001 26.3 30.4001Z" fill="#EA9430"/>
<path d="M30 30.1C30 29.9 30.2 29.8 30.3 29.8C30.5 29.8 30.6 30 30.6 30.1C30.6 30.3 30.4 30.4 30.3 30.4C30.1 30.4 30 30.3 30 30.1Z" fill="#EA9430"/>
<path d="M28.6 30.4C28.9 29.8 29.5 29.6 30.1 29.9L30.4 30.1C30.9 30.4 31.2 31 30.9 31.6L28.6 30.4Z" fill="#FDC20B"/>
<path d="M28.6 30.4001C28.5 30.5001 29.0999 30.8 29.6999 31.2C30.2999 31.5 30.8 31.7 30.9 31.6C31 31.5 30.5 31.1 29.9 30.7C29.3 30.4 28.7 30.3001 28.6 30.4001Z" fill="#EA9430"/>
<path d="M27.6 31.9L27.3 32C27.3 32 27.2 32 27.2 31.9V31.7C27.2 31.7 27.2 31.6 27.3 31.6H27.5C27.5 31.6 27.6 31.6 27.6 31.7V31.9Z" fill="#E94D40"/>
<path d="M25.5 34.1C25.5 34.2 25.5 34.2 25.5 34.1L25.2 34.2C25.2 34.2 25.1 34.2 25.1 34.1V33.9C25.1 33.9 25.1 33.8 25.2 33.8H25.4C25.4 33.8 25.5 33.8 25.5 33.9V34.1Z" fill="#E94D40"/>
<path d="M29.8 34.1C29.8 34.2 29.7 34.2 29.8 34.1L29.5 34.2C29.5 34.2 29.4 34.2 29.4 34.1V33.9C29.4 33.9 29.4 33.8 29.5 33.8H29.7C29.7 33.8 29.8 33.8 29.8 33.9V34.1Z" fill="#E94D40"/>
<path d="M27.6 36.3L27.3 36.4C27.3 36.4 27.2 36.4 27.2 36.3V36.1C27.2 36.1 27.2 36 27.3 36H27.5C27.5 36 27.6 36 27.6 36.1V36.3Z" fill="#E94D40"/>
<path d="M28.5 32.5C28.4 32.5 28.4 32.5 28.3 32.5L27.5 33.7C27.5 33.7 27.5 33.7 27.4 33.7C27.3 33.7 27.2 33.8 27.2 33.8H26.5C26.4 33.8 26.3 33.9 26.3 34C26.3 34.1 26.4 34.2 26.5 34.2H27.2C27.2 34.2 27.3 34.3 27.4 34.3C27.5 34.3 27.7 34.2 27.7 34V33.9L28.5 32.7C28.5 32.6 28.5 32.5 28.5 32.5Z" fill="#231F20"/>
</svg>