<svg xmlns="http://www.w3.org/2000/svg" fill="none" viewBox="0.8 0.9 72.8 66.6">
<path d="M23.7 16.8H5V19.3H23.7V16.8Z" fill="#BEC4C8"/>
<path d="M14.3 33.1H10.1V47.1H14.3V33.1Z" fill="#BEC4C8"/>
<path d="M39.9 24.1H21.2V26.6H39.9V24.1Z" fill="#BEC4C8"/>
<path d="M52.1 48.3H47.9V67.5H52.1V48.3Z" fill="#BEC4C8"/>
<path d="M10.5 19.3H2V35H10.5V19.3Z" fill="#BEC4C8"/>
<path d="M64.5 47.1V26.5V25.2V24H46.3V6.40002V3.90002H24.2V5.09998H18.2V32.4H5V34.9H22.5H26.7V26.4H42.1H46.3H56.1V47H52.6V49.5H65.1V67.4H73.6V49.5V48.2V47H64.5V47.1ZM37.8 24.1H26.7V19.3V6.5H37.8V24.1Z" fill="#BEC4C8"/>
<path d="M19.5 16.8H0.800049V19.3H19.5V16.8Z" fill="white"/>
<path d="M19.5 32.5H0.800049V35H19.5V32.5Z" fill="white"/>
<path d="M3.30005 19.3H0.800049V35H3.30005V19.3Z" fill="white"/>
<path d="M19.5 19.3H17V35H19.5V19.3Z" fill="white"/>
<path d="M57.3 24.1H18.3V26.6H57.3V24.1Z" fill="white"/>
<path d="M55.1 44.6H7.69995V47.1H55.1V44.6Z" fill="white"/>
<path d="M10.2 33.1H7.69995V47.1H10.2V33.1Z" fill="white"/>
<path d="M57.3 25.2H54.8V47.1H57.3V25.2Z" fill="white"/>
<path d="M39.1 4H17V6.5H39.1V4Z" fill="white"/>
<path d="M35.7 24.1H17V26.6H35.7V24.1Z" fill="white"/>
<path d="M19.5 5.19995H17V26.6H19.5V5.19995Z" fill="white"/>
<path d="M39.1 5.19995H36.6V26.6H39.1V5.19995Z" fill="white"/>
<path d="M66.3 47.1H45.4V49.6H66.3V47.1Z" fill="white"/>
<path d="M64.1 65H45.4V67.5H64.1V65Z" fill="white"/>
<path d="M47.9 48.3H45.4V67.5H47.9V48.3Z" fill="white"/>
<path d="M66.4 48.3H63.9V67.5H66.4V48.3Z" fill="white"/>
<path d="M34.9 19.5H22.7V22.1H34.9V19.5Z" fill="#62882D"/>
<path d="M35 19.8H32.6V21.8H35V19.8Z" fill="#DCDCDC"/>
<path d="M32.2 19.5H21.7V22.1H32.2V19.5Z" fill="#7EB034"/>
<path d="M33.6 17.6H21.9V19.5H33.6V17.6Z" fill="#9D271F"/>
<path d="M33.6 17.9H30.9V19.2H33.6V17.9Z" fill="#DCDCDC"/>
<path d="M30.5 17.6H20.9V19.5H30.5V17.6Z" fill="#E4372E"/>
<path d="M35.2 22.1H21.9V24H35.2V22.1Z" fill="#46AEAA"/>
<path d="M35.2 22.4H31.8V23.7H35.2V22.4Z" fill="#DCDCDC"/>
<path d="M31.4 22.1H20.9V24H31.4V22.1Z" fill="#6AC3C7"/>
<path d="M54.7 54.5H50.5V65.1H54.7V54.5Z" fill="#0E3654"/>
<path d="M50.6 54.5H48.8V65.1H50.6V54.5Z" fill="#145889"/>
<path d="M7 30.7C7.2 29.6 7.09998 28.4 7.09998 27.3C7.09998 26.7 7.09998 25.2 7.59998 24.8C8.09998 25.3 8 26.8 8 27.4C8 28.6 7.80005 29.8 7.30005 30.8V30.7H7Z" fill="#B1CC37"/>
<path d="M5.09998 30.9C5.09998 29.8 5.20005 28.8 5.30005 27.7C5.40005 27.1 5.29998 26.2 5.59998 25.7C6.09998 26.2 7.00002 30.1 5.90002 30.2L5.09998 30.9Z" fill="#A1B41D"/>
<path d="M9.19995 30.1C9.19995 29.2 9.30005 28.2 9.30005 27.3C9.30005 27.2 9.19998 26.1 9.59998 26.1C9.89998 26.1 10.4 28.4 10.4 28.6C10.4 29.1 10.3 29.4 10.1 29.8C9.99998 30 9.80005 30.3 9.80005 30.5L9.19995 30.1Z" fill="#7EB034"/>
<path d="M6.30005 31.5C6.30005 30.6 6.40002 29.6 6.40002 28.7C6.40002 28.6 6.29995 27.5 6.69995 27.5C6.99995 27.5 7.5 29.8 7.5 30C7.5 30.5 7.39995 30.8 7.19995 31.2C7.09995 31.4 6.90002 31.7 6.90002 31.9L6.30005 31.5Z" fill="#7EB034"/>
<path d="M9.19996 30.4C9.19996 29.9 9.89999 25.2 9.09999 25.4C8.79999 26.1 9.00001 27.1 9.00001 27.9C9.00001 28.4 8.89999 29.2 9.09999 29.6L9.19996 30.4Z" fill="#A1B41D"/>
<path d="M7.00001 31.6C7.00001 31.1 7.70004 26.4 6.90004 26.6C6.60004 27.3 6.80006 28.3 6.80006 29.1C6.80006 29.6 6.70004 30.4 6.90004 30.8L7.00001 31.6Z" fill="#A1B41D"/>
<path d="M7.59998 30.5001C7.79998 30.2001 7.69998 29.7001 7.59998 29.3001C7.59998 28.6001 7.59998 27.9 7.59998 27.2C7.59998 26.9 7.60005 26.5001 7.80005 26.4001C8.40005 26.0001 8.59995 26.7 8.69995 27.1C8.79995 27.7 8.79995 28.4 8.69995 29.1C8.59995 29.7 8.40002 30.2001 8.40002 30.8001L7.59998 30.5001Z" fill="#A1B41D"/>
<path d="M4.80003 30.3C4.80003 29 4.39993 27.6 4.69993 26.3C5.19993 26.4 5.30003 27 5.30003 27.4C5.40003 28.1 5.49996 28.8 5.59996 29.4C5.69996 29.9 5.60003 30.7 5.80003 31.2L4.80003 30.3Z" fill="#7EB034"/>
<path d="M8.40003 29.8C8.40003 28.5 8.00005 27.1 8.30005 25.8C8.80005 25.9 8.90003 26.5 8.90003 26.9C9.00003 27.6 9.09995 28.3 9.19995 28.9C9.29995 29.4 9.20003 30.2 9.40003 30.7L8.40003 29.8Z" fill="#7EB034"/>
<path d="M6.09996 30.2C6.19996 30 6.09996 29.7 6.09996 29.5C5.99996 28.9 5.99998 28.4 5.99998 27.8C5.99998 27.2 5.9 26.2 6.4 25.7C6.9 26.2 6.79993 27.5 6.69993 28.1C6.69993 28.8 6.59996 29.4 6.59996 30.1C6.59996 30.7 6.69996 31.4 6.59996 32L6.09996 30.2Z" fill="#B4CE4B"/>
<path d="M10.6 29.3H6.59998V32.5H10.6V29.3Z" fill="#9D271F"/>
<path d="M8.19995 29.3H4.19995V32.5H8.19995V29.3Z" fill="#E4372E"/>
<path d="M58.1 53.7H53.9V65H58.1V53.7Z" fill="#E4372E"/>
<path d="M53.8 53.7H51.4V65H53.8V53.7Z" fill="#E94D40"/>
<path d="M62.6 56.9H57.5V65H62.6V56.9Z" fill="#198878"/>
<path d="M57.5 56.9H53.9V65H57.5V56.9Z" fill="#34B4A3"/>
<path d="M25.8 40.1H13.6V42.7H25.8V40.1Z" fill="#1F1F20"/>
<path d="M25.9 40.4H23.5V42.4H25.9V40.4Z" fill="#DCDCDC"/>
<path d="M23.2 40.1H12.7V42.7H23.2V40.1Z" fill="#404040"/>
<path d="M24.5 38.1H12.8V40H24.5V38.1Z" fill="#22569D"/>
<path d="M24.5 38.4H21.8V39.7H24.5V38.4Z" fill="#DCDCDC"/>
<path d="M21.5 38.1H11.9V40H21.5V38.1Z" fill="#3F74B9"/>
<path d="M26.1 42.7H12.8V44.6H26.1V42.7Z" fill="#F0816E"/>
<path d="M26.1 43H22.7V44.3H26.1V43Z" fill="#DCDCDC"/>
<path d="M22.4 42.7H11.9V44.6H22.4V42.7Z" fill="#F7B178"/>
<path d="M46.6 38.1H35.3V44.6H46.6V38.1Z" fill="#92A4C7"/>
<path d="M46.6 38.1H35.3V38.7H46.6V38.1Z" fill="#72809C"/>
<path d="M47.5 36.5H34.4V38.2H47.5V36.5Z" fill="#9FB3DA"/>
<path d="M42.1 38.1H30.8V44.6H42.1V38.1Z" fill="#BBCEEC"/>
<path d="M42.1 38.1H30.8V38.7H42.1V38.1Z" fill="#A7BAE1"/>
<path d="M43 36.5H29.9V38.2H43V36.5Z" fill="#BBCEEC"/>
<path d="M53.4 13.5C53.1 10.7 52.8 7.50005 52.7 4.30005C52.9 4.20005 53.1 3.49998 53.1 2.59998C53.1 1.69998 52.9 0.900024 52.6 0.900024C52.3 0.900024 52.1 1.69998 52.1 2.59998C52.1 3.49998 52.3 4.20005 52.5 4.30005C52.6 7.50005 52.9 10.8 53.2 13.5H53.4Z" fill="#482A37"/>
<path d="M53.6 13C52.8 10.1 51.4001 7.59999 50.3001 5.89999C50.5001 5.69999 50.2 4.99992 49.7 4.19992C49.1 3.39992 48.5001 2.99994 48.3001 3.09994C48.1001 3.29994 48.4001 4.00001 48.9001 4.80001C49.4001 5.40001 49.8 5.79999 50.1 5.89999C51.1 7.59999 52.6001 10.2 53.4001 13H53.6Z" fill="#482A37"/>
<path d="M58.9 2.49997C58.7 2.29997 58.1 2.49999 57.5 2.89999C56.9 3.29999 56.6 3.89994 56.7 4.09994C54.1 6.59994 53.1 10.3999 52.8 13.6999H52.9C53.2 10.3999 54.2 6.59992 56.8 4.19992C57 4.29992 57.6 4.09992 58.1 3.69992C58.7 3.19992 59.1 2.69997 58.9 2.49997Z" fill="#482A37"/>
<path d="M54.3 16.5C54.2 14.5 54 12.8 53.7 11.9H52.7C52.4 12.8 52.2 14.5 52.1 16.5C50.6 17 49.5 18.6 49.5 20.4C49.5 21.8 50.1 23 51 23.7H55.4C56.3 23 56.9 21.7 56.9 20.4C56.9 18.6 55.8 17 54.3 16.5Z" fill="#E52926"/>
<path d="M54.4 12C54.4 12.3 54.2 12.5 53.9 12.5H52.5C52.2 12.5 52 12.3 52 12C52 11.7 52.2 11.5 52.5 11.5H53.9C54.2 11.5 54.4 11.7 54.4 12Z" fill="#DB0D15"/>
<path d="M55.9 23.9C55.9 24 55.8 24.1 55.7 24.1H50.6C50.5 24.1 50.4 24 50.4 23.9C50.4 23.8 50.5 23.7 50.6 23.7H55.7C55.8 23.7 55.9 23.8 55.9 23.9Z" fill="#DB0D15"/>
</svg>