<svg xmlns="http://www.w3.org/2000/svg" fill="none" viewBox="0.7 0.1 72.8 58.1">
<path d="M66.5 33.4H53.7L48 23.6L54.3999 12.5L47.3 0.0999756H27.5L22.4 11.2H10.2L3.09998 23.6L10.2 36H22L28.1 47.1H41.2L47.6001 58.2H66.3999L73.5 45.8L66.5 33.4ZM34.5 2.69995H41.7L47.3999 12.5L41.7 22.3H34.5L28.8 12.5L34.5 2.69995ZM9.59998 23.6L15.3 13.8H23.6L27.6 23.6L22.8 33.4H15.3L9.59998 23.6ZM28.8 34.7L34.5 24.9H41.7L47.3999 34.7L41.7 44.5H34.5L28.8 34.7ZM61.3999 55.6H53.7L48 45.8L53.7 36H61.3999L67.1001 45.8L61.3999 55.6Z" fill="#DCDCDC"/>
<path d="M61.3 51.1H49.3999V53.7H61.3V51.1Z" fill="#62882D"/>
<path d="M61.3999 51.4H59.1001V53.4H61.3999V51.4Z" fill="#DCDCDC"/>
<path d="M58.7 51.1H48.5V53.7H58.7V51.1Z" fill="#7EB034"/>
<path d="M60.1001 49.1H48.7V51H60.1001V49.1Z" fill="#9D271F"/>
<path d="M60 49.4H57.3999V50.7H60V49.4Z" fill="#DCDCDC"/>
<path d="M57.1001 49.1H47.7V51H57.1001V49.1Z" fill="#E4372E"/>
<path d="M61.7 53.7H48.7V55.6H61.7V53.7Z" fill="#46AEAA"/>
<path d="M61.6001 54H58.3V55.3H61.6001V54Z" fill="#DCDCDC"/>
<path d="M57.8999 53.7H47.7V55.6H57.8999V53.7Z" fill="#6AC3C7"/>
<path d="M41.3 47.1H27L19.9 34.7L27 22.3H41.3L48.3999 34.7L41.3 47.1ZM28.5 44.5H39.8L45.5 34.7L39.8 24.9H28.5L22.8 34.7L28.5 44.5Z" fill="white"/>
<path d="M22.1 36H7.80005L0.699951 23.6L7.80005 11.2H22.1L29.2 23.6L22.1 36ZM9.30005 33.4H20.6L26.3 23.6L20.6 13.8H9.30005L3.59998 23.6L9.30005 33.4Z" fill="white"/>
<path d="M60.5 58.2H46.2L39.1 45.8L46.2 33.4H60.5L67.6001 45.8L60.5 58.2ZM47.7 55.6H59L64.7 45.8L59 36H47.7L42 45.8L47.7 55.6Z" fill="white"/>
<path d="M41.3 24.9H27L19.9 12.5L27 0.0999756H41.3L48.3999 12.5L41.3 24.9ZM28.5 22.4H39.8L45.5 12.6L39.8 2.80005H28.5L22.8 12.6L28.5 22.4Z" fill="white"/>
<path d="M55.8999 25.4C55.6999 25.2 55.4999 22.3 51.8999 22.5C51.8999 22.5 51.5999 26.1 55.3999 26.9C56.2999 27.2 55.8999 25.4 55.8999 25.4Z" fill="#5C802D"/>
<path d="M57.8001 27.4C58.0001 27.2 60.5 26.3 59.5 23.1C59.5 23.1 56.2001 23.6 56.3001 27.3C56.4001 28.2 57.8001 27.4 57.8001 27.4Z" fill="#5C802D"/>
<path d="M57.0001 27.9C57.0001 27.6 58.9001 24.9 55.7001 22.5C55.7001 22.5 52.8001 25.3 55.5001 28.8C56.1001 29.8 57.0001 27.9 57.0001 27.9Z" fill="#768427"/>
<path d="M52.8998 29.6C50.1998 27.8 50.6 24.5 50.6 24.5C55.3 24.4 55.4 28.2 55.6 28.5C55.6 28.5 55.6999 29.1 55.6999 29.6H52.8998Z" fill="#88A127"/>
<path d="M58.3999 29.6H55.3C56.1 25.4 60.1001 25.6 60.1001 25.6C60.3001 28 59.2999 29.1 58.3999 29.6Z" fill="#8BA235"/>
<path d="M52.8 28.7H60.2L59.2 33.4H53.8L52.8 28.7Z" fill="#E7E6E6"/>
<path d="M52.8 28.7H60.2L59.8999 29.9H53.1001L52.8 28.7Z" fill="#3B918F"/>
<path d="M50.6001 28.7H58L57 33.4H51.6001L50.6001 28.7Z" fill="#FFFBE3"/>
<path d="M50.6001 28.7H58L57.7 29.9H50.8999L50.6001 28.7Z" fill="#6AC3C7"/>
<path d="M19.9 9.19995H7.69995V10.4H19.9V9.19995Z" fill="#62882D"/>
<path d="M20 9.40002H17.6V10.3H20V9.40002Z" fill="#DCDCDC"/>
<path d="M17.3 9.19995H6.80005V10.4H17.3V9.19995Z" fill="#7EB034"/>
<path d="M18.6 8.40002H6.90002V9.30005H18.6V8.40002Z" fill="#9D271F"/>
<path d="M18.6 8.5H15.9V9.09998H18.6V8.5Z" fill="#DCDCDC"/>
<path d="M15.6 8.40002H6V9.30005H15.6V8.40002Z" fill="#E4372E"/>
<path d="M20.2 10.4H6.90002V11.3H20.2V10.4Z" fill="#46AEAA"/>
<path d="M20.2 10.5H16.8V11.1H20.2V10.5Z" fill="#DCDCDC"/>
<path d="M16.5 10.4H6V11.3H16.5V10.4Z" fill="#6AC3C7"/>
<path d="M20.8 6.30005H8.59998V7.5H20.8V6.30005Z" fill="#2A334F"/>
<path d="M20.9 6.5H18.5V7.40002H20.9V6.5Z" fill="#DCDCDC"/>
<path d="M18.2 6.30005H7.69995V7.5H18.2V6.30005Z" fill="#475677"/>
<path d="M19.5 5.5H7.80005V6.40002H19.5V5.5Z" fill="#9D271F"/>
<path d="M19.5 5.59998H16.8V6.19995H19.5V5.59998Z" fill="#DCDCDC"/>
<path d="M16.5 5.5H6.90002V6.40002H16.5V5.5Z" fill="#E4372E"/>
<path d="M21.1 7.5H7.80005V8.40002H21.1V7.5Z" fill="#EC6151"/>
<path d="M21.1 7.59998H17.7V8.19995H21.1V7.59998Z" fill="#DCDCDC"/>
<path d="M17.4 7.5H6.90002V8.40002H17.4V7.5Z" fill="#EE8F33"/>
<path d="M32.1999 36.7C32.6999 37.3 32.7 38 32.3 38.4C31.9 38.8 31.1999 38.6 30.6999 38C30.1999 37.4 30.2 36.7001 30.6 36.3001C31 35.9001 31.6999 36.1 32.1999 36.7Z" fill="#86B027"/>
<path d="M30.4 37.8C30.1 37.8 29.8 37.5 29.8 37.2C29.8 36.8 30 36.5 30.4 36.5C30.7 36.5 31 36.8 31 37.1C30.9 37.5 30.7 37.8 30.4 37.8Z" fill="#86B027"/>
<path d="M29.8001 37.9C29.7001 37.9 29.7001 37.9 29.8001 37.9C29.7001 37.8 29.7001 37.8 29.8001 37.9C29.8001 37.8 29.8001 37.8 29.8001 37.9Z" fill="#86B027"/>
<path d="M37.7 36.9001C37 37.8001 35.9001 38.1 35.3001 37.6C34.6001 37.1 34.7 36 35.4 35.1C36.1 34.2 37.2001 33.9001 37.8001 34.4001C38.5001 34.9001 38.4 36.0001 37.7 36.9001Z" fill="#67922E"/>
<path d="M36.3 35C36 35 35.7 34.7 35.7 34.4C35.7 34 35.9 33.7 36.3 33.7C36.6 33.7 36.9 34 36.9 34.3C36.8 34.7 36.6 35 36.3 35Z" fill="#67922E"/>
<path d="M36.2 33.3001C36.3 33.3001 36.3 33.2001 36.2 33.3001Z" fill="#67922E"/>
<path d="M37 39.2C37 41.1 35.9 42.7 34.4 42.7C33 42.7 31.8 41.1 31.8 39.2C31.8 37.3 32.9 35.7 34.4 35.7C35.8 35.7 37 37.2 37 39.2Z" fill="#739E2D"/>
<path d="M32.5 36.1C32.6 36 32.6 36 32.5 36.1Z" fill="#739E2D"/>
<path d="M32.2 40.4C32.3 40.5 32.3 40.5 32.2 40.4Z" fill="#739E2D"/>
<path d="M37.9 41H33.4V44.6H37.9V41Z" fill="#AD3328"/>
<path d="M35.3 41H30.8V44.6H35.3V41Z" fill="#E94A38"/>
<path d="M15 23.7H11.4V33.4H15V23.7Z" fill="#B3C4C0"/>
<path d="M14.8 24.6H12.8V33.5H14.8V24.6Z" fill="#2A7D90"/>
<path d="M11.4 23.7H10.2V33.4H11.4V23.7Z" fill="#DEEFEC"/>
<path d="M12.9 24.6H11.4V33.5H12.9V24.6Z" fill="#3DBDD9"/>
<path d="M15.5 23.2H14.1V33.5H15.5V23.2Z" fill="#514E71"/>
<path d="M20.5 23.2H15.5V33.5H20.5V23.2Z" fill="#38354D"/>
</svg>