<svg xmlns="http://www.w3.org/2000/svg" fill="none" viewBox="0.1 0.7 74.6 55.6">
<path d="M74.7 30.2C74.7 32.7 72.7001 34.8 70.1001 34.8H34.6C32.1 34.8 30 32.8 30 30.2V5.30005C30 2.80005 32 0.699951 34.6 0.699951H70.1001C72.6001 0.699951 74.7 2.70005 74.7 5.30005V30.2Z" fill="#CDCCCC"/>
<path d="M65.1001 0.699951H34.8H29.6H29.4C26 0.699951 23.2 2.70005 23.2 5.30005V35.6C23.2 38.1 26 40.2 29.4 40.2L29.6 34.8H34.8H65.1001C67.6001 34.8 69.7 32.8 69.7 30.2V5.30005C69.7 2.80005 67.6001 0.699951 65.1001 0.699951Z" fill="#F0F0F0"/>
<path d="M23.2 23.1H11.6V56.2H23.2V23.1Z" fill="#CDCCCC"/>
<path d="M55.6001 34.8H5.40002V56.3H55.6001V34.8Z" fill="#F0F0F0"/>
<path d="M55.6001 48.2H5.40002V50.1H55.6001V48.2Z" fill="#DCDCDC"/>
<path d="M15.3 34.8H4.69995V56.3H15.3V34.8Z" fill="#DCDCDC"/>
<path d="M55.6001 34.8H5.19995V37.9H55.6001V34.8Z" fill="#DCDCDC"/>
<path d="M63 23.1H55.6001V56.2H63V23.1Z" fill="white"/>
<path d="M74.6001 23.1H63V56.2H74.6001V23.1Z" fill="#DCDCDC"/>
<path d="M74.6001 29.6H63V56.2H74.6001V29.6Z" fill="#CDCCCC"/>
<path d="M11.6 23.1H4.19995V56.2H11.6V23.1Z" fill="white"/>
<path d="M67.1001 23.1H55.6001V29.6H67.1001V23.1Z" fill="white"/>
<path d="M11.6 23.1H0.0999756V29.6H11.6V23.1Z" fill="white"/>
</svg>