<svg xmlns="http://www.w3.org/2000/svg" fill="none" viewBox="0.2 0.4 93.5 113.9">
<path d="M79.5 81.6H73.3V114.3H79.5V81.6Z" fill="#C5C5C4"/>
<path d="M76.3999 81.6H70.2V114.3H76.3999V81.6Z" fill="#FBFCFD"/>
<path d="M93.7 81.6H87.5V114.3H93.7V81.6Z" fill="#C5C5C4"/>
<path d="M90.6001 81.6H84.3999V114.3H90.6001V81.6Z" fill="#A6A6A6"/>
<path d="M25.6001 81.6H19.3999V114.3H25.6001V81.6Z" fill="#C5C5C4"/>
<path d="M22.5 81.6H16.3V114.3H22.5V81.6Z" fill="#A6A6A6"/>
<path d="M9.5 81.6H3.30005V114.3H9.5V81.6Z" fill="#C5C5C4"/>
<path d="M6.3999 81.6H0.199951V114.3H6.3999V81.6Z" fill="#FBFCFD"/>
<path d="M57.5 0.400024H53.6001H5.30005V110.4H53.6001H57.5H93.6001V0.400024H57.5Z" fill="#C5C5C4"/>
<path d="M74.1001 0.400024H1.80005V110.4H74.1001V0.400024Z" fill="#B8B8B8"/>
<path d="M40.2 0.400024H36.3H0.199951V110.4H36.3H40.2H76.3V0.400024H40.2ZM73.1001 106.8H40H36.3999H3.30005V4H36.3999H40H73.1001V106.8Z" fill="#FBFCFD"/>
<path d="M74.1001 69.8H1.80005V106.8H74.1001V69.8Z" fill="#FBFCFD"/>
<path d="M74.1001 23.7H1.80005V27.3H74.1001V23.7Z" fill="#FBFCFD"/>
<path d="M74.1001 46.9H1.80005V50.5H74.1001V46.9Z" fill="#FBFCFD"/>
<path d="M35.3999 107.4H2.5V73.5H35.3999V107.4ZM3.8999 106.1H34.2V74.8H3.8999V106.1Z" fill="#C5C5C4"/>
<path d="M73.3999 107.4H40.5V73.5H73.3999V107.4ZM41.8 106.1H72.1001V74.8H41.8V106.1Z" fill="#C5C5C4"/>
<path d="M31.8 90.5C31.8 89.3 30.8001 88.3 29.6001 88.3C28.4001 88.3 27.3999 89.3 27.3999 90.5C27.3999 91.7 28.4001 92.7 29.6001 92.7C30.8001 92.6 31.8 91.7 31.8 90.5Z" fill="#FEC905"/>
<path d="M48.6001 90.5C48.6001 89.3 47.5999 88.3 46.3999 88.3C45.1999 88.3 44.2 89.3 44.2 90.5C44.2 91.7 45.1999 92.7 46.3999 92.7C47.5999 92.6 48.6001 91.7 48.6001 90.5Z" fill="#FEC905"/>
<path d="M65.2 66.5C65.6 64.6 65.3 62.4 65.5 60.5C65.6 59.5 65.3999 56.7 66.3999 56.1C67.1999 57 67.1001 59.6 67.1001 60.7C67.1001 62.8 66.6999 64.9 65.8999 66.8C65.8999 66.7 65.8 66.6 65.8 66.6L65.2 66.5Z" fill="#B1CC37"/>
<path d="M61.8 66.9C61.8 65 62.0001 63.1 62.1001 61.2C62.2001 60.1 62.1001 58.6 62.6001 57.6C63.5001 58.6 65.1001 65.5 63.1001 65.7L61.8 66.9Z" fill="#A1B41D"/>
<path d="M69 65.5C69 63.8 69.2001 62.2 69.1001 60.5C69.1001 60.2 69 58.4 69.5 58.4C70 58.4 70.7999 62.4 70.8999 62.9C70.9999 63.8 70.7999 64.3 70.3999 65.1C70.1999 65.5 69.8 65.9 69.8 66.3L69 65.5Z" fill="#7EB034"/>
<path d="M64 67.9C64 66.2 64.2001 64.6 64.1001 62.9C64.1001 62.6 64 60.8 64.5 60.8C65 60.8 65.7999 64.8 65.8999 65.3C65.9999 66.2 65.7999 66.7 65.3999 67.5C65.1999 67.9 64.8 68.3 64.8 68.7L64 67.9Z" fill="#7EB034"/>
<path d="M69 66C69.1 65.1 70.3001 56.7 68.8001 57C68.3001 58.3 68.5001 60.1 68.6001 61.5C68.6001 62.3 68.4999 63.8 68.8999 64.5L69 66Z" fill="#A1B41D"/>
<path d="M65.1001 68C65.2001 67.1 66.3999 58.7 64.8999 59C64.3999 60.3 64.6 62.1 64.7 63.5C64.7 64.3 64.6 65.8 65 66.5L65.1001 68Z" fill="#A1B41D"/>
<path d="M66.3 66.1C66.6 65.5 66.3999 64.6 66.3999 64C66.2999 62.8 66.2999 61.5001 66.3999 60.3001C66.3999 59.8001 66.4 59.1001 66.8 58.8001C67.9 58.1001 68.1999 59.3 68.3999 60.1C68.5999 61.2 68.5999 62.5 68.3999 63.6C68.2999 64.6 67.9 65.6 67.8 66.7L66.3 66.1Z" fill="#A1B41D"/>
<path d="M61.1998 65.8C61.1998 63.4 60.4999 61 60.9999 58.7C61.9999 58.9 62 59.9 62.1 60.7C62.2 61.9 62.3999 63.1 62.4999 64.3C62.5999 65.2 62.3998 66.6 62.8998 67.4L61.1998 65.8Z" fill="#7EB034"/>
<path d="M67.7999 64.9C67.7999 62.5 67.1 60.1 67.6 57.8C68.6 58 68.5998 59 68.6998 59.8C68.7998 61 69 62.2 69.1 63.4C69.2 64.3 68.9999 65.7 69.4999 66.5L67.7999 64.9Z" fill="#7EB034"/>
<path d="M63.6001 65.6C63.8001 65.3 63.6001 64.7 63.6001 64.3C63.5001 63.3 63.4 62.3 63.3 61.3C63.3 60.2 63 58.4 64 57.6C64.9 58.4 64.6001 60.8 64.6001 61.9C64.6001 63.1 64.5 64.2 64.5 65.4C64.5 66.4 64.6999 67.8 64.3999 68.8L63.6001 65.6Z" fill="#B4CE4B"/>
<path d="M71.5 64H64.3999V69.8H71.5V64Z" fill="#9D271F"/>
<path d="M67.3 64H60.2V69.8H67.3V64Z" fill="#E4372E"/>
<path d="M57.6001 30.4C57.6001 30.5 57.5 30.7 57.3 30.7H56.3999C56.1999 30.7 56.1001 30.6 56.1001 30.4L56 28.8C56 28.7 56.1 28.5 56.3 28.5H57.5C57.6 28.5 57.8 28.6 57.8 28.8L57.6001 30.4Z" fill="#FBC791"/>
<path d="M59.3999 36.6C59.3999 35.5 58.7 34.6 57.7 34.3V33.1V32.8V30.3C57.8 30.3 57.8999 30.2 57.8999 30.1V29.8C57.8999 29.7 57.8 29.6 57.7 29.6H56C55.9 29.6 55.7 29.7 55.7 29.8V30.1C55.7 30.2 55.8 30.3 56 30.3V32.8V33.1V34.3C55 34.6 54.3 35.6 54.3 36.6V46.1C54.3 46.1 54.3 46.1 54.3 46.2C54.3 46.6 54.6 46.9 55 46.9H58.5C58.9 46.9 59.2 46.6 59.2 46.2V46.1V36.6H59.3999Z" fill="#075D5F"/>
<path d="M59.2 38.7H54.6001V42.6H59.2V38.7Z" fill="#FEFCED"/>
<path d="M57.5 39.8L56.8999 39.2V39.1H56.8V39.2L56.2 39.8L56.3 39.9L56.8 39.4V39.9H56.8999V39.4L57.5 39.9V39.8Z" fill="#583017"/>
<path d="M56.3 40.1C56.3 40.3 56.2 40.4 56 40.4C55.8 40.4 55.7 40.3 55.7 40.1C55.7 39.9 55.8 39.8 56 39.8C56.2 39.8 56.3 39.9 56.3 40.1Z" fill="#364A5E"/>
<path d="M56.8999 40.1C56.8999 40.3 56.8001 40.4 56.6001 40.4C56.4001 40.4 56.3 40.3 56.3 40.1C56.3 39.9 56.4001 39.8 56.6001 39.8C56.8001 39.8 56.8999 39.9 56.8999 40.1Z" fill="#364A5E"/>
<path d="M57.5 40.1C57.5 40.3 57.4 40.4 57.2 40.4C57 40.4 56.8999 40.3 56.8999 40.1C56.8999 39.9 57 39.8 57.2 39.8C57.3 39.8 57.5 39.9 57.5 40.1Z" fill="#364A5E"/>
<path d="M58.1001 40.1C58.1001 40.3 58 40.4 57.8 40.4C57.6 40.4 57.5 40.3 57.5 40.1C57.5 39.9 57.6 39.8 57.8 39.8C58 39.8 58.1001 39.9 58.1001 40.1Z" fill="#364A5E"/>
<path d="M56.6001 40.6C56.6001 40.8 56.5 40.9 56.3 40.9C56.1 40.9 56 40.8 56 40.6C56 40.4 56.1 40.3 56.3 40.3C56.5 40.3 56.6001 40.4 56.6001 40.6Z" fill="#364A5E"/>
<path d="M57.2 40.6C57.2 40.8 57.0999 40.9 56.8999 40.9C56.6999 40.9 56.6001 40.8 56.6001 40.6C56.6001 40.4 56.6999 40.3 56.8999 40.3C56.9999 40.3 57.2 40.4 57.2 40.6Z" fill="#364A5E"/>
<path d="M57.8 40.6C57.8 40.8 57.7 40.9 57.5 40.9C57.3 40.9 57.2 40.8 57.2 40.6C57.2 40.4 57.3 40.3 57.5 40.3C57.6 40.3 57.8 40.4 57.8 40.6Z" fill="#364A5E"/>
<path d="M56.8999 41.1C56.8999 41.3 56.8001 41.4 56.6001 41.4C56.4001 41.4 56.3 41.3 56.3 41.1C56.3 40.9 56.4001 40.8 56.6001 40.8C56.8001 40.9 56.8999 41 56.8999 41.1Z" fill="#364A5E"/>
<path d="M57.5 41.1C57.5 41.3 57.4 41.4 57.2 41.4C57 41.4 56.8999 41.3 56.8999 41.1C56.8999 40.9 57 40.8 57.2 40.8C57.3 40.9 57.5 41 57.5 41.1Z" fill="#364A5E"/>
<path d="M57.2 41.7C57.2 41.9 57.0999 42 56.8999 42C56.6999 42 56.6001 41.9 56.6001 41.7C56.6001 41.5 56.6999 41.4 56.8999 41.4C56.9999 41.4 57.2 41.5 57.2 41.7Z" fill="#364A5E"/>
<path d="M68 30.5C68 30.7 67.9 30.8 67.7 30.8H66.8C66.6 30.8 66.5 30.7 66.5 30.5L66.3999 28.8C66.3999 28.6 66.5 28.5 66.7 28.5H67.8999C68.0999 28.5 68.2 28.6 68.2 28.8L68 30.5Z" fill="#F28B2D"/>
<path d="M70.2 45.7V37.5C70.2 35.6 69 34.1 68.5 33.1C68.3 32.7 68.2 31.7 68.2 30.8V30.4H68.3C68.6 30.4 68.8 30.2 68.8 29.9C68.8 29.6 68.6 29.4 68.3 29.4H67.3H66.3C66 29.4 65.8 29.6 65.8 29.9C65.8 30.2 66 30.4 66.3 30.4H66.3999V30.8C66.3999 31.7 66.3001 32.6 66.1001 33.1C65.6001 34.1 64.3999 35.6 64.3999 37.5V45.7V46.2C64.3999 46.9 65 46.9 65.2 46.9H65.8H67.3H68.8H69.3999C69.5999 46.9 70.2 46.9 70.2 46.2V45.7Z" fill="#053839"/>
<path d="M69.8999 39H64.6001V43.6H69.8999V39Z" fill="#FEFCED"/>
<path d="M68.1001 40.3L67.3999 39.6V39.5H67.2V39.6L66.5 40.3L66.6001 40.4L67.2 39.8V40.4H67.3999V39.8L68 40.4L68.1001 40.3Z" fill="#583017"/>
<path d="M66.6001 40.6C66.6001 40.8 66.5 40.9 66.3 40.9C66.1 40.9 66 40.8 66 40.6C66 40.4 66.2 40.3 66.3 40.3C66.5 40.3 66.6001 40.4 66.6001 40.6Z" fill="#364A5E"/>
<path d="M67.3 40.6C67.3 40.8 67.1 40.9 67 40.9C66.8 40.9 66.7 40.8 66.7 40.6C66.7 40.4 66.9 40.3 67 40.3C67.1 40.3 67.3 40.4 67.3 40.6Z" fill="#364A5E"/>
<path d="M68 40.6C68 40.8 67.8 40.9 67.7 40.9C67.5 40.9 67.3999 40.8 67.3999 40.6C67.3999 40.4 67.6 40.3 67.7 40.3C67.8 40.3 68 40.4 68 40.6Z" fill="#364A5E"/>
<path d="M68.6001 40.6C68.6001 40.8 68.4 40.9 68.3 40.9C68.2 40.9 68 40.8 68 40.6C68 40.4 68.2 40.3 68.3 40.3C68.4 40.3 68.6001 40.4 68.6001 40.6Z" fill="#364A5E"/>
<path d="M66.8999 41.2C66.8999 41.4 66.7001 41.5 66.6001 41.5C66.4001 41.5 66.3 41.4 66.3 41.2C66.3 41 66.5001 40.9 66.6001 40.9C66.8001 40.9 66.8999 41 66.8999 41.2Z" fill="#364A5E"/>
<path d="M67.6001 41.2C67.6001 41.4 67.4 41.5 67.3 41.5C67.1 41.5 67 41.4 67 41.2C67 41 67.2 40.9 67.3 40.9C67.5 40.9 67.6001 41 67.6001 41.2Z" fill="#364A5E"/>
<path d="M68.3 41.2C68.3 41.4 68.1 41.5 68 41.5C67.8 41.5 67.7 41.4 67.7 41.2C67.7 41 67.9 40.9 68 40.9C68.2 40.9 68.3 41 68.3 41.2Z" fill="#364A5E"/>
<path d="M67.3 41.8C67.3 42 67.1 42.1 67 42.1C66.8 42.1 66.7 41.9 66.7 41.8C66.7 41.6 66.9 41.5 67 41.5C67.1 41.5 67.3 41.6 67.3 41.8Z" fill="#364A5E"/>
<path d="M68 41.8C68 42 67.8 42.1 67.7 42.1C67.5 42.1 67.3999 41.9 67.3999 41.8C67.3999 41.6 67.6 41.5 67.7 41.5C67.8 41.5 68 41.6 68 41.8Z" fill="#364A5E"/>
<path d="M67.6001 42.4C67.6001 42.6 67.4 42.7 67.3 42.7C67.1 42.7 67 42.6 67 42.4C67 42.2 67.2 42.1 67.3 42.1C67.5 42.1 67.6001 42.3 67.6001 42.4Z" fill="#364A5E"/>
<path d="M6.89999 69.3C6.89999 69.2 6.89999 68.8 6.89999 68.8V66.5C6.89999 66.5 6.90009 66.2 7.00009 66C7.10009 65.8 7.20004 65.7 7.20004 65.7C7.80004 65.2 9.30014 65.4 9.30014 63.7C9.30014 63.1 8.20019 61.8 8.10019 61.4H6.80014H5.50009C5.40009 61.9 4.30014 63.1 4.30014 63.7C4.20014 65.4 5.80014 65.3 6.30014 65.7C6.40014 65.8 6.50009 65.9 6.50009 66C6.60009 66.2 6.60019 66.5 6.60019 66.5V68.8C6.60019 68.8 6.60019 69.2 6.60019 69.3C6.60019 69.4 5.60019 69.6 5.60019 69.8H6.70004H7.80014C7.90014 69.7 6.99999 69.5 6.89999 69.3Z" fill="#6AC3C7"/>
<path d="M6.89999 69.3C6.89999 69.2 6.89999 68.8 6.89999 68.8V66.5C6.89999 66.5 6.90009 66.2 7.00009 66C7.10009 65.8 7.20004 65.7 7.20004 65.7C7.80004 65.2 9.30014 65.4 9.30014 63.7C9.30014 63.1 8.20019 61.8 8.10019 61.4H6.80014H5.50009C5.40009 61.9 4.30014 63.1 4.30014 63.7C4.20014 65.4 5.80014 65.3 6.30014 65.7C6.40014 65.8 6.50009 65.9 6.50009 66C6.60009 66.2 6.60019 66.5 6.60019 66.5V68.8C6.60019 68.8 6.60019 69.2 6.60019 69.3C6.60019 69.4 5.60019 69.6 5.60019 69.8H6.70004H7.80014C7.90014 69.7 6.99999 69.5 6.89999 69.3Z" fill="#6AC3C7"/>
<path d="M16.3001 65.6C17.3001 65.3 17.9001 64.7 17.5001 63.6C16.8001 61.5 17.5001 60.7 17.5001 60.7H15.8001H14.1002C14.1002 60.7 14.8002 61.5 14.1002 63.6C13.7002 64.7 14.3001 65.4 15.3001 65.6C15.4001 65.6 15.5002 65.7 15.6002 65.9C15.6002 66.1 15.6002 66.4 15.6002 66.4V68.7C15.6002 68.7 15.6002 69.1 15.6002 69.2C15.6002 69.3 14.6002 69.5 14.6002 69.7H15.7H16.8001C16.8001 69.6 15.9001 69.4 15.8001 69.2C15.8001 69.1 15.8001 68.7 15.8001 68.7V66.4C15.8001 66.4 15.8001 66.1 15.8001 65.9C16.1001 65.8 16.2001 65.6 16.3001 65.6Z" fill="#76CCF0"/>
<path d="M21 66.8C21.5 66.4 22.7 65.9 22.7 64.5C22.7 63.3 21.9999 62.5 21.8999 62.3H20.6001H19.3C19.2 62.5 18.3999 63.3 18.3999 64.5C18.3999 65.9 19.7 66.4 20.2 66.8C20.3 66.9 20.3999 67 20.3999 67.1C20.4999 67.3 20.5 67.6 20.5 67.6V68.9C20.5 68.9 20.5 69.3 20.5 69.4C20.5 69.5 19.6001 69.7 19.6001 69.8H20.7H21.8C21.8 69.7 20.8999 69.5 20.8999 69.4C20.8999 69.3 20.8999 68.9 20.8999 68.9V67.6C20.8999 67.6 20.9 67.3 21 67.1C20.8 67 20.9 66.9 21 66.8Z" fill="#64C3EE"/>
<path d="M21 66.8C21.5 66.4 22.7 65.9 22.7 64.5C22.7 63.3 21.9999 62.5 21.8999 62.3H20.6001H19.3C19.2 62.5 18.3999 63.3 18.3999 64.5C18.3999 65.9 19.7 66.4 20.2 66.8C20.3 66.9 20.3999 67 20.3999 67.1C20.4999 67.3 20.5 67.6 20.5 67.6V68.9C20.5 68.9 20.5 69.3 20.5 69.4C20.5 69.5 19.6001 69.7 19.6001 69.8H20.7H21.8C21.8 69.7 20.8999 69.5 20.8999 69.4C20.8999 69.3 20.8999 68.9 20.8999 68.9V67.6C20.8999 67.6 20.9 67.3 21 67.1C20.8 67 20.9 66.9 21 66.8Z" fill="#64C3EE"/>
<path d="M13.2 62.9H10.4C10.5 63.1 10.4002 63.6 10.1002 64.6C9.70015 65.7 10.3001 66.4 11.3001 66.6C11.4001 66.6 11.5002 66.7 11.6002 66.9C11.6002 67.1 11.6002 67.4 11.6002 67.4V68.8C11.6002 68.8 11.6002 69.2 11.6002 69.3C11.6002 69.4 10.6002 69.6 10.6002 69.8H12.9C12.9 69.7 12 69.5 11.9 69.3C11.9 69.2 11.9 68.8 11.9 68.8V67.4C11.9 67.4 11.9 67.1 11.9 66.9C11.9 66.7 12.1 66.6 12.2 66.6C13.2 66.3 13.8 65.6 13.4 64.6C13.2 63.6 13.1 63.1 13.2 62.9Z" fill="#3F8EA9"/>
<path d="M25.6001 69.3C25.6001 69.2 25.6001 68.8 25.6001 68.8V66.5C25.6001 66.5 25.6 66.2 25.7 66C25.8 65.8 25.8999 65.7 25.8999 65.7C26.4999 65.2 27.2001 64.8 27.1001 63.7C27.1001 63.3 26.8 61.8 26.7 61.4H25.3999H24.1001C24.0001 61.9 23.8 63.3 23.7 63.7C23.6 64.8 24.3999 65.3 24.8999 65.7C24.9999 65.8 25.1001 65.9 25.1001 66C25.2001 66.2 25.2 66.5 25.2 66.5V68.8C25.2 68.8 25.2 69.2 25.2 69.3C25.2 69.4 24.2 69.6 24.2 69.8H25.3001H26.3999C26.5999 69.7 25.7001 69.5 25.6001 69.3Z" fill="#6AC3C7"/>
<path d="M34.8 68.6H32.3V69.4H34.8V68.6Z" fill="#2F1A10"/>
<path d="M31 69.8C31.1 69.4 32.2 69.2 33.5 69.2C34.8 69.2 36 69.5 36 69.8H31Z" fill="#2F1A10"/>
<path d="M29.8002 60.4C30.0002 60.9 30.8001 62.2 31.5001 63C31.5001 63 30.9002 63.5 30.8002 63.4C30.3002 62.8 29.6002 61.7 29.6002 61.7C29.1002 61 28.8 60.2 28.9 59.3C28.9 58.4 29.8002 57.5 30.8002 57.5C31.7002 57.5 32.8001 58.1 33.0001 59C33.2001 59.6 32.7001 59.6 32.5001 59.5C32.4001 58.9 31.5002 58.3 31.1002 58.3C29.7002 58.2 29.4002 59.4 29.8002 60.4Z" fill="#2F1A10"/>
<path d="M37.3999 60.4C37.1999 60.9 36.3999 62.2 35.6999 63C35.6999 63 36.2999 63.5 36.3999 63.4C36.8999 62.8 37.6001 61.7 37.6001 61.7C38.1001 61 38.4 60.2 38.3 59.3C38.3 58.4 37.3999 57.5 36.3999 57.5C35.4999 57.5 34.3999 58.1 34.1999 59C33.9999 59.6 34.4999 59.6 34.6999 59.5C34.7999 58.9 35.7001 58.3 36.1001 58.3C37.4001 58.2 37.7999 59.4 37.3999 60.4Z" fill="#2F1A10"/>
<path d="M35.8999 62.7C34.9999 61.9 34.7 62 34.7 60.6C34.7 60.5 34.7 60.1 34.7 60.1V54.8H32.3999V60.1C32.3999 60.1 32.3999 60.5 32.3999 60.6C32.2999 62.1 32.1 61.9 31.2 62.7C30.4 63.4 29.8 64.4 29.8 65.6C29.8 67.6 31.5001 69.3 33.6001 69.3C35.7001 69.3 37.3999 67.7 37.3999 65.6C37.2999 64.4 36.6999 63.5 35.8999 62.7Z" fill="#583017"/>
<path d="M32.7 64.2L33.5 63.5V63.3H33.7V63.5L34.5 64.2L34.3 64.4L33.7 63.7V64.4H33.5V63.7L32.8 64.4L32.7 64.2Z" fill="#F4DDBB"/>
<path d="M34.3999 65.1C34.3999 65.3 34.6 65.5 34.8 65.5C35 65.5 35.2 65.3 35.2 65.1C35.2 64.9 35 64.7 34.8 64.7C34.5 64.7 34.3999 64.9 34.3999 65.1Z" fill="#F4DDBB"/>
<path d="M33.6001 65.1C33.6001 65.3 33.8 65.5 34 65.5C34.2 65.5 34.3999 65.3 34.3999 65.1C34.3999 64.9 34.2 64.7 34 64.7C33.7 64.7 33.6001 64.9 33.6001 65.1Z" fill="#F4DDBB"/>
<path d="M32.8 65.1C32.8 65.3 33 65.5 33.2 65.5C33.4 65.5 33.6001 65.3 33.6001 65.1C33.6001 64.9 33.4 64.7 33.2 64.7C33 64.7 32.8 64.9 32.8 65.1Z" fill="#F4DDBB"/>
<path d="M32 65.1C32 65.3 32.1999 65.5 32.3999 65.5C32.5999 65.5 32.8 65.3 32.8 65.1C32.8 64.9 32.5999 64.7 32.3999 64.7C32.1999 64.7 32 64.9 32 65.1Z" fill="#F4DDBB"/>
<path d="M34 65.8C34 66 34.1999 66.2 34.3999 66.2C34.5999 66.2 34.8 66 34.8 65.8C34.8 65.6 34.5999 65.4 34.3999 65.4C34.0999 65.4 34 65.6 34 65.8Z" fill="#F4DDBB"/>
<path d="M33.2 65.8C33.2 66 33.4001 66.2 33.6001 66.2C33.8001 66.2 34 66 34 65.8C34 65.6 33.8001 65.4 33.6001 65.4C33.4001 65.4 33.2 65.6 33.2 65.8Z" fill="#F4DDBB"/>
<path d="M32.3999 65.8C32.3999 66 32.6 66.2 32.8 66.2C33 66.2 33.2 66 33.2 65.8C33.2 65.6 33 65.4 32.8 65.4C32.6 65.4 32.3999 65.6 32.3999 65.8Z" fill="#F4DDBB"/>
<path d="M34 64.4C34 64.6 34.1999 64.8 34.3999 64.8C34.5999 64.8 34.8 64.6 34.8 64.4C34.8 64.2 34.5999 64 34.3999 64C34.0999 64 34 64.1 34 64.4Z" fill="#F4DDBB"/>
<path d="M33.2 64.4C33.2 64.6 33.4001 64.8 33.6001 64.8C33.8001 64.8 34 64.6 34 64.4C34 64.2 33.8001 64 33.6001 64C33.4001 64 33.2 64.1 33.2 64.4Z" fill="#F4DDBB"/>
<path d="M32.3999 64.4C32.3999 64.6 32.6 64.8 32.8 64.8C33 64.8 33.2 64.6 33.2 64.4C33.2 64.2 33 64 32.8 64C32.6 64 32.3999 64.1 32.3999 64.4Z" fill="#F4DDBB"/>
<path d="M33.6001 66.5C33.6001 66.7 33.8 66.9 34 66.9C34.2 66.9 34.3999 66.7 34.3999 66.5C34.3999 66.3 34.2 66.1 34 66.1C33.7 66.1 33.6001 66.3 33.6001 66.5Z" fill="#F4DDBB"/>
<path d="M32.8 66.5C32.8 66.7 33 66.9 33.2 66.9C33.4 66.9 33.6001 66.7 33.6001 66.5C33.6001 66.3 33.4 66.1 33.2 66.1C33 66.1 32.8 66.3 32.8 66.5Z" fill="#F4DDBB"/>
<path d="M33.2 67.2C33.2 67.4 33.4001 67.6 33.6001 67.6C33.8001 67.6 34 67.4 34 67.2C34 67 33.8001 66.8 33.6001 66.8C33.4001 66.9 33.2 67 33.2 67.2Z" fill="#F4DDBB"/>
<path d="M35 55C35 55.2 34.8001 55.4 34.6001 55.4H32.6001C32.4001 55.4 32.2 55.2 32.2 55V54.8C32.2 54.6 32.4001 54.4 32.6001 54.4H34.6001C34.8001 54.4 35 54.6 35 54.8V55Z" fill="#583017"/>
<path d="M5.5 10.7C5.8 12.2 8.4999 13.6 12.3999 14.3H24.7C28.6 13.6 31.3001 12.3 31.6001 10.7H5.5Z" fill="#FCC016"/>
<path d="M5.5 12.5C5.8 14 8.4999 15.4 12.3999 16.1H24.7C28.6 15.4 31.3001 14.1 31.6001 12.5H5.5Z" fill="#A1B41D"/>
<path d="M6.19995 42.3C6.19995 43.7 7.09995 44.9 8.19995 44.9C8.39995 44.9 8.60005 44.8 8.80005 44.8L8.8999 47H15L15.6001 38.3H8.30005L8.3999 39.9C8.2999 39.9 8.2001 39.9 8.1001 39.9C7.1001 39.7 6.19995 40.9 6.19995 42.3ZM6.69995 42.3C6.69995 41.3 7.39995 40.4 8.19995 40.4C8.29995 40.4 8.4 40.4 8.5 40.4L8.69995 44C8.49995 44.1 8.3001 44.1 8.1001 44.1C7.4001 44.2 6.69995 43.3 6.69995 42.3Z" fill="#A1B41D"/>
<path d="M16.3999 42.3C16.3999 43.7 17.2999 44.9 18.3999 44.9C18.5999 44.9 18.8 44.8 19 44.8L19.1001 47H25.2L25.8 38.3H18.5L18.6001 39.9C18.5001 39.9 18.4 39.9 18.3 39.9C17.3 39.7 16.3999 40.9 16.3999 42.3ZM16.8999 42.3C16.8999 41.3 17.5999 40.4 18.3999 40.4C18.4999 40.4 18.6 40.4 18.7 40.4L18.8999 44C18.6999 44.1 18.5 44.1 18.3 44.1C17.6 44.2 16.8999 43.3 16.8999 42.3Z" fill="#FCC016"/>
<path d="M26.7 42.3C26.7 43.7 27.6 44.9 28.7 44.9C28.9 44.9 29.1 44.8 29.3 44.8L29.5 47H35.6001L36.2 38.3H28.8999L29 39.9C28.9 39.9 28.8 39.9 28.7 39.9C27.6 39.7 26.7 40.9 26.7 42.3ZM27.3 42.3C27.3 41.3 28 40.4 28.8 40.4C28.9 40.4 29.0001 40.4 29.1001 40.4L29.3 44C29.1 44.1 28.9 44.1 28.7 44.1C27.9 44.2 27.3 43.3 27.3 42.3Z" fill="#E84515"/>
<path d="M5.5 14.2C5.8 15.8 8.4999 17.1 12.3999 17.8H24.7C28.6 17.1 31.3001 15.8 31.6001 14.2H5.5Z" fill="#E84515"/>
<path d="M5.5 16C5.8 17.5 8.4999 18.9 12.3999 19.6H24.7C28.6 18.9 31.3001 17.6 31.6001 16H5.5Z" fill="#FCC016"/>
<path d="M5.5 18.3C5.8 19.8 8.4999 21.2 12.3999 21.9H24.7C28.6 21.2 31.3001 19.9 31.6001 18.3H5.5Z" fill="#E84515"/>
<path d="M5.5 20.1C5.8 21.6 8.4999 23 12.3999 23.7H24.7C28.6 23 31.3001 21.7 31.6001 20.1H5.5Z" fill="#A1B41D"/>
<path d="M36.6002 14.2C36.5002 14.4 36.4 14.6 36.4 14.8C36.3 14.7 36.2002 14.7 36.1002 14.6C35.6002 14.4 34.8 14.3 34.7 15.6C34.5 16.9 35.2001 17.6 36.0001 17.9C36.1001 18 36.3 18 36.4 18C36.5 18.5 36.8001 18.9 37.0001 19.2L36.9 19.5L39.4 20.6L39.5001 20.3C41.1001 20.2 42.7002 19 43.6002 17.1L36.6002 14.2ZM36.1002 17.5C35.3002 17.2 35.0002 16.6 35.1002 15.7C35.2002 15.3 35.3001 15.1 35.3001 15.1C35.4001 15 35.6001 15.1 35.8001 15.2C36.0001 15.3 36.1 15.4 36.2 15.4C36.1 16.2 36.0002 16.9 36.1002 17.5C36.1002 17.6 36.1002 17.6 36.1002 17.5Z" fill="#E84515"/>
<path d="M43.6001 19.4C43.5001 19.4 43.3 19.4 43.2 19.4C43.2 19.2 43.2 19 43.3 18.7H35.7C35.7 20.8 36.7001 22.5 38.1001 23.3V23.6H40.8V23.3C41.2 23.1 41.5999 22.8 41.8999 22.4C42.0999 22.4 42.1999 22.4 42.3999 22.4C43.1999 22.4 44.1 22 44.5 20.8C44.9 19.6 44.2001 19.4 43.6001 19.4ZM44.1001 20.7C43.8001 21.6 43.3 22 42.5 22H42.3999C42.7999 21.4 43.1 20.8 43.2 20C43.3 20 43.5 19.9 43.7 19.9C43.9 19.9 44.1 20 44.2 20C44.2 20.1 44.2001 20.3 44.1001 20.7Z" fill="#FCC016"/>
<path d="M47.4 14.2C47.3 14.4 47.2 14.6 47.2 14.8C47.1 14.7 47 14.7 46.9 14.6C46.4 14.4 45.6001 14.3 45.5001 15.6C45.3001 16.9 46.0001 17.6 46.8001 17.9C46.9001 18 47.1 18 47.2 18C47.3 18.5 47.6001 18.9 47.8001 19.2L47.7 19.5L50.2 20.6L50.3001 20.3C51.9001 20.2 53.5 19 54.4 17.1L47.4 14.2ZM46.9 17.5C46.2 17.2 45.8 16.6 45.9 15.7C46 15.3 46.1002 15.1 46.1002 15.1C46.2002 15 46.4002 15.1 46.6002 15.2C46.8002 15.3 46.9001 15.4 47.0001 15.4C46.9001 16.2 46.9 16.9 46.9 17.5C47 17.6 46.9 17.6 46.9 17.5Z" fill="#A1B41D"/>
<path d="M54.5 19.4C54.4 19.4 54.2001 19.4 54.1001 19.4C54.1001 19.2 54.1 19 54.2 18.7H46.6001C46.6001 20.8 47.6 22.5 49 23.3V23.6H51.7V23.3C52.1 23.1 52.5 22.8 52.8 22.4C53 22.4 53.1 22.4 53.3 22.4C54.1 22.4 54.9999 22 55.3999 20.8C55.7999 19.6 55.1 19.4 54.5 19.4ZM54.8999 20.7C54.5999 21.6 54.1 22 53.3 22H53.2C53.6 21.4 53.9 20.8 54 20C54.1 20 54.3 19.9 54.5 19.9C54.7 19.9 54.9 20 55 20C55 20.1 54.9999 20.3 54.8999 20.7Z" fill="#E84515"/>
<path d="M61.2 23.7H67.7C69.6 22.5 70.8999 20.2 70.8999 17.6C70.8999 13.7 67.9999 10.5 64.3999 10.5C60.7999 10.5 57.8999 13.7 57.8999 17.6C57.9999 20.2 59.3 22.4 61.2 23.7Z" fill="#74A9C8"/>
<path d="M70.3 11.7C70.3 12.5 69.8 13.1 69.2 13.1H59.7C59.1 13.1 58.6001 12.5 58.6001 11.7C58.6001 10.9 59.1 10.3 59.7 10.3H69.2C69.8 10.3 70.3 10.9 70.3 11.7Z" fill="#A1B41D"/>
<path d="M69 20.1C69 20.2 68.9 20.4 68.7 20.4H60.3C60.1 20.4 60 20.3 60 20.1V15.4C60 15.2 60.1 15.1 60.3 15.1H68.7C68.9 15.1 69 15.2 69 15.4V20.1Z" fill="#A1B41D"/>
</svg>