<svg xmlns="http://www.w3.org/2000/svg" fill="none" viewBox="0.2 0.8 63.7 48.4">
<path d="M39.2 9.40002H36.6001H3.6001V49.2H36.6001H39.2H63.8999V9.40002H39.2Z" fill="#C5C5C4"/>
<path d="M50.6001 9.40002H49.8999H2.3999H1.30005H0.199951V49.2H52.1001V9.40002H50.6001Z" fill="#FBFCFD"/>
<path d="M49.2 12.2H3.1001V20.6H49.2V12.2Z" fill="#DCDCDC"/>
<path d="M23.8999 25.1H3.1001V46.4H23.8999V25.1Z" fill="#DCDCDC"/>
<path d="M49.2 25.1H28.3999V46.4H49.2V25.1Z" fill="#DCDCDC"/>
<path d="M22.6001 3.40002H6.3999V6.80005H22.6001V3.40002Z" fill="#62882D"/>
<path d="M22.5 3.80005H19.3999V6.40002H22.5V3.80005Z" fill="#DCDCDC"/>
<path d="M19 3.40002H5.1001V6.80005H19V3.40002Z" fill="#7EB034"/>
<path d="M20.8 0.800049H5.30005V3.40002H20.8V0.800049Z" fill="#9D271F"/>
<path d="M20.8 1.30005H17.2V3H20.8V1.30005Z" fill="#DCDCDC"/>
<path d="M16.7 0.800049H4V3.40002H16.7V0.800049Z" fill="#E4372E"/>
<path d="M22.8999 6.90002H5.30005V9.5H22.8999V6.90002Z" fill="#46AEAA"/>
<path d="M22.8999 7.30005H18.3999V9H22.8999V7.30005Z" fill="#DCDCDC"/>
<path d="M17.8999 6.90002H4V9.5H17.8999V6.90002Z" fill="#6AC3C7"/>
<path d="M22.2 33.2H20.5V38.3H22.2V33.2Z" fill="#F8AC2F"/>
<path d="M31.7 33.2H30V38.3H31.7V33.2Z" fill="#F8AC2F"/>
<path d="M28.7 14H23.6001V15.7H28.7V14Z" fill="#F8AC2F"/>
</svg>