<svg xmlns="http://www.w3.org/2000/svg" fill="none" viewBox="0.5 0.7 108.1 111.6">
<path d="M61.6 0.699951H56.5H3.5V112.3H56.5H61.6H108.6V0.699951H61.6ZM97.6 107.6H54.5H56.6H13.5V5.40002H56.6H61.2H97.5V107.6H97.6Z" fill="#C5C5C4"/>
<path d="M51.3 33.5H41.6V110.4H51.3V33.5Z" fill="#C5C5C4"/>
<path d="M52.6 0.699951H47.5H0.5V112.3H47.5H52.6H99.6V0.699951H52.6ZM95.5 107.6H52.4H47.8H4.69995V5.40002H47.8H52.4H95.5V107.6Z" fill="#FBFCFD"/>
<path d="M96.8 31.1H1.59998V35.8H96.8V31.1Z" fill="#FBFCFD"/>
<path d="M41.6 56.5H1.59998V61.2H41.6V56.5Z" fill="#FBFCFD"/>
<path d="M41.6 83H1.59998V87.7H41.6V83Z" fill="#FBFCFD"/>
<path d="M96.7 69.5H37.6V74.2H96.7V69.5Z" fill="#FBFCFD"/>
<path d="M42.3 31.1H37.6V110.3H42.3V31.1Z" fill="#FBFCFD"/>
<path d="M51.3 54H45.2V69.4H51.3V54Z" fill="#0E3654"/>
<path d="M45.1 54H42.5V69.4H45.1V54Z" fill="#145889"/>
<path d="M56.1 53H50V69.4H56.1V53Z" fill="#E4372E"/>
<path d="M50 53H46.5V69.4H50V53Z" fill="#E94D40"/>
<path d="M63.8 57.6H56.4V69.3H63.8V57.6Z" fill="#198878"/>
<path d="M56.4 57.6H51.2V69.3H56.4V57.6Z" fill="#34B4A3"/>
<path d="M69.7 53H63.6V69.4H69.7V53Z" fill="#F39C15"/>
<path d="M63.6 53H60.1V69.4H63.6V53Z" fill="#FDC20B"/>
<path d="M72.3 54H66.2V69.4H72.3V54Z" fill="#0E3654"/>
<path d="M66.2 54H63.6V69.4H66.2V54Z" fill="#145889"/>
<path d="M75 54H68.9V69.4H75V54Z" fill="#29401D"/>
<path d="M68.8 54H66.2V69.4H68.8V54Z" fill="#137733"/>
<path d="M30.5 96.4H25.1V107.6H30.5V96.4Z" fill="#4E9DB2"/>
<path d="M25.1 96.4H21.3V107.6H25.1V96.4Z" fill="#8ECDDB"/>
<path d="M35.1 92.9H29.3V107.5H35.1V92.9Z" fill="#0E3654"/>
<path d="M29.3 92.9H26.8V107.5H29.3V92.9Z" fill="#EE7566"/>
<path d="M37.5 92.9H31.7V107.5H37.5V92.9Z" fill="#29401D"/>
<path d="M31.8 92.9H29.3V107.5H31.8V92.9Z" fill="#137733"/>
<path d="M92.9 62.7H75.1V66.5H92.9V62.7Z" fill="#62882D"/>
<path d="M92.9 63.2H89.5V66.1H92.9V63.2Z" fill="#DCDCDC"/>
<path d="M89 62.7H73.7V66.5H89V62.7Z" fill="#7EB034"/>
<path d="M90.9 59.9H73.9V62.7H90.9V59.9Z" fill="#9D271F"/>
<path d="M90.9 60.4H87V62.3H90.9V60.4Z" fill="#DCDCDC"/>
<path d="M86.6 59.9H72.6V62.7H86.6V59.9Z" fill="#E4372E"/>
<path d="M93.3 66.5H73.9V69.3H93.3V66.5Z" fill="#46AEAA"/>
<path d="M93.3 67H88.3V68.9H93.3V67Z" fill="#DCDCDC"/>
<path d="M87.9 66.5H72.6V69.3H87.9V66.5Z" fill="#6AC3C7"/>
<path d="M91.5 59.9H90.4L84.9 48H86L91.5 59.9Z" fill="#818186"/>
<path d="M87.8 46.4H76.9V59.9H87.8V46.4Z" fill="#BEBDC4"/>
<path d="M87.4 46.4H76.5V59.9H87.4V46.4Z" fill="white"/>
<path d="M86.9 46.9H77.1V59.5H86.9V46.9Z" fill="#70C6D3"/>
<path d="M85.8 51.6C85 51.7 84.3 52.4 83.8 53C83.2 53.6 82.7 54.5 82.6 55.4C82.6 55.4 82.7 55.5 82.7 55.4C83.1 54.6 83.3 53.9 83.8 53.2C84.2 52.7 85 51.8 85.8 51.6Z" fill="#398333"/>
<path d="M81 53.9C80.6 53 80 52.1 79.2 51.4C79.2 51.4 79.1 51.4 79.1 51.5C79.9 52.7 81.4 54.1 81.2 55.7C81.2 55.7 81.2 55.7 81.3 55.7C81.7 55.2 81.3 54.4 81 53.9Z" fill="#398333"/>
<path d="M83.3 49.3C82.7 49.4 82.5 50.5 82.4 51C82.3 51.6 82.1 52.2 82.1 52.9C82 52.7 82 52.5 81.9 52.4C81.7 51.6 81.4 50.6 80.7 50.2C80.7 50.2 80.6 50.2 80.6 50.3C81.2 51 81.5 51.7 81.8 52.6C81.9 52.9 82 53.2 82.1 53.6C82.1 54 82.1 54.4 82.2 54.8V54.9C82.2 55 82.2 55 82.3 55.1C82.3 55.2 82.4 55.1 82.4 55.1C82.4 54.9 82.4 54.7 82.4 54.5C82.4 54.2 82.4 53.9 82.3 53.6C82.3 53.5 82.3 53.4 82.3 53.3C82.3 52.8 82.4 52.2 82.5 51.7C82.5 50.9 82.7 49.7 83.3 49.3Z" fill="#398333"/>
<path d="M84.3 49.2C84.4 49.3 84.3 49.4 84.1 49.5C84.1 49.5 84.1 49.5 84 49.5C83.9 49.5 83.8 49.4001 83.7 49.4001V49.3001L83.6 49.2C83.7 49.2 83.7 49.1 83.7 49.1C84 49 84.2 49.1 84.3 49.2Z" fill="#DBEFF8"/>
<path d="M83.7 49.3C83.8 49.3 83.8 49.3 83.7 49.3C83.8 49.5 83.7 49.5 83.6 49.6C83.5 49.6 83.4001 49.6 83.3001 49.5L83.2 49.4C83.2 49.4 83.1 49.3 83.2 49.3C83.2 49.2 83.3 49.1999 83.4 49.1999C83.4 49.0999 83.5 49.1 83.7 49.3C83.7 49.2 83.7 49.2 83.7 49.3Z" fill="#F8A912"/>
<path d="M84.3 49.6C84.4 49.7 84.4 49.7 84.3 49.8C84.2 49.9 84 49.8 83.8 49.7C83.8 49.7 83.8 49.7 83.7 49.7C83.6 49.7 83.6 49.6 83.6 49.6C83.6 49.6 83.6 49.6 83.6 49.5C83.7 49.5 83.8 49.4 83.8 49.3C83.9 49.3 84 49.3 84.1 49.4C84.1 49.4 84.1 49.4 84.2 49.4C84.2 49.5 84.2 49.6 84.3 49.6Z" fill="#DBEFF8"/>
<path d="M83.8 49.7C83.8 49.9 83.7 50 83.5 49.9C83.4 49.9 83.3 49.8 83.3 49.7C83.3 49.6 83.2 49.6 83.2 49.5C83.2 49.4 83.2 49.4 83.3 49.4C83.4 49.5 83.5 49.5 83.6 49.5C83.6 49.5 83.6 49.5 83.6 49.6C83.7 49.6 83.7 49.7 83.8 49.7Z" fill="#DBEFF8"/>
<path d="M83.1 49.2V49.3L83.2 49.4C83.1 49.4 83.1 49.5 83.1 49.5C83.1 49.5 83.1001 49.5 83.0001 49.5C82.8001 49.5 82.6001 49.5 82.5001 49.3C82.4001 49.2 82.5 49.1 82.7 49C82.7 49 82.7001 49 82.8001 49C83.0001 49.2 83 49.2 83.1 49.2Z" fill="#DBEFF8"/>
<path d="M83.3001 49C83.3001 49.1 83.3001 49.1 83.3001 49C83.2001 49.1 83.2 49.1 83.1 49.2C83 49.2 82.9001 49.2 82.8001 49.2C82.8001 49.2 82.8 49.2 82.7 49.2C82.6 49.2 82.6 49.1 82.5 49C82.4 48.9 82.4 48.9001 82.5 48.8001C82.6 48.7001 82.8 48.8001 83 48.9001C83 48.9001 83 48.9001 83.1 48.9001C83.2 48.9001 83.2001 49 83.3001 49Z" fill="#DBEFF8"/>
<path d="M83.7 48.8C83.7 48.9 83.8 48.9 83.8 49C83.8 49.1 83.8 49.1 83.7 49.1C83.6 49 83.5 49 83.4 49C83.4 49 83.4 49 83.4 48.9L83.3 48.8C83.3 48.7 83.4 48.6 83.6 48.6C83.5 48.7 83.6 48.8 83.7 48.8Z" fill="#DBEFF8"/>
<path d="M84 52C82.9 52.8 81.8 54.5 82 55.9C82 56 82.2 56 82.2 55.9C82.4 55.3 82.5001 54.6 82.8001 54C83.1001 53.3 83.6 52.6 84 52C84.1 52 84.1 52 84 52Z" fill="#3C8133"/>
<path d="M82.4001 54.4C82.3001 54 82.3001 53.6 82.3001 53.2C82.4001 52.1 83 51.2 83.6 50.4C83.6 50.4 83.6 50.3 83.5 50.3C82.4 51.4 81.9 53 82.2 54.4H82.4001Z" fill="#4EA733"/>
<path d="M84.8 50.4001C84.9 50.6001 84.8 50.8001 84.5 50.8001H84.4C84.3 50.7001 84.1 50.7 84 50.7C84 50.7 84 50.6 83.9 50.5C83.9 50.4 83.8 50.4001 83.7 50.4001C83.8 50.4001 83.8 50.3 83.9 50.2H84C84.3 50.1 84.7 50.2001 84.8 50.4001Z" fill="#FFF4DE"/>
<path d="M84 50.5C84 50.6 84.1 50.6 84.1 50.7C84.1 50.8 84 50.9 83.8 51C83.6 51 83.4 50.9 83.3 50.8C83.2 50.8 83.2 50.7 83.1 50.7C83 50.6 83 50.5 83 50.5C83 50.4 83.1 50.3 83.3 50.3C83.5 50.3 83.7 50.4 83.8 50.5C83.9 50.4 83.9 50.5 84 50.5Z" fill="#F8BE3B"/>
<path d="M84.8 51.1C84.9 51.2 84.9 51.3 84.8 51.4C84.7 51.5 84.3 51.4 84 51.3C84 51.3 83.9 51.3 83.9 51.2C83.8 51.1 83.7 51.1 83.7 51C83.7 51 83.7 50.9 83.6 50.9C83.8 50.9 83.9 50.8 83.9 50.6C84 50.6 84.2 50.7 84.3 50.7C84.3 50.7 84.4 50.7 84.4 50.8C84.7 51 84.8 51 84.8 51.1Z" fill="#FFF4DE"/>
<path d="M84 51.2C84 51.5 83.8 51.6 83.5 51.5C83.3 51.5 83.2 51.4 83.1 51.2C83 51.1 83 51 83 50.9C83 50.9 83 50.9 83 50.8C83 50.7 83.1 50.6 83.2 50.6C83.4 50.7 83.6 50.8 83.7 50.8C83.7 50.8 83.7 50.9 83.8 50.9C83.8 51.1 83.9 51.2 84 51.2Z" fill="#FFF4DE"/>
<path d="M83 50.4C83 50.5 83 50.5 83.1 50.6C83.1 50.7 83.2001 50.7 83.3001 50.7C83.2001 50.7 83.2 50.8 83.1 50.9H83C82.7 50.9 82.4 50.8 82.2 50.6C82.1 50.4 82.2 50.2 82.5 50.2H82.6C82.7 50.3 82.9 50.4 83 50.4Z" fill="#FFF4DE"/>
<path d="M83.2 50.1C83.3 50.2 83.3 50.1 83.2 50.1C83.3 50.2 83.3 50.2 83.2 50.1C83.1 50.2 83 50.3 83 50.4C82.9 50.3 82.7 50.3 82.6 50.3H82.5C82.4 50.2 82.3 50.1 82.2 50C82.1 49.9 82.1 49.7999 82.2 49.6999C82.3 49.5999 82.7 49.6 83 49.8C83 49.8 83.1 49.8 83.1 49.9C83.1 50 83.2 50.1 83.2 50.1Z" fill="#FFF4DE"/>
<path d="M83.9 49.8C84 49.9 84 50 84 50.1C84 50.1 84 50.1 84 50.2C84 50.3 83.9 50.4 83.8 50.4C83.6 50.3 83.4 50.2 83.3 50.2C83.3 50.2 83.3 50.1 83.2 50.1C83.2 50 83.1 50 83 49.9C83 49.9 83 49.9 83 49.8C83 49.6 83.2 49.5 83.5 49.5C83.6 49.6 83.8 49.7 83.9 49.8Z" fill="#FFF4DE"/>
<path d="M81.8 53.1C81.4 52.1 80.7 51.4 79.8 50.8C79.7 50.8 79.7 50.9 79.7 50.9C80.6 51.4 81.1 52.4 81.4 53.4C81.5 53.8 81.6 54.2 81.7 54.7C81.8 55.1 81.7 55.6 81.9 56C82 56.2 82.3 56.2 82.3 56C82.6 55.1 82.2 53.9 81.8 53.1Z" fill="#3C8133"/>
<path d="M83.0999 51.6C82.9999 51.7 83 51.9 83.3 51.9C83.3 51.9 83.3 51.9 83.4 51.9C83.5 51.9 83.5999 51.9 83.6999 51.9C83.6999 51.9 83.7 51.8 83.8 51.8L83.9 51.7C83.8 51.7 83.8 51.6 83.8 51.5C83.8 51.5 83.7999 51.5 83.6999 51.5C83.4999 51.5 83.1999 51.5 83.0999 51.6Z" fill="#CCE9F5"/>
<path d="M83.7 51.8L83.6 51.9C83.6 52 83.6 52.1 83.7 52.1C83.8 52.1 84 52.1 84.1 52.1C84.2 52.1 84.2 52 84.2 52C84.3 52 84.3 51.9 84.3 51.8C84.3 51.7 84.3 51.6 84.1 51.6C84 51.6 83.8 51.6 83.7 51.6C83.8 51.8 83.7 51.8 83.7 51.8Z" fill="#F8A912"/>
<path d="M83 52.1C82.9 52.2 82.9 52.3 82.9 52.3C83 52.4 83.2 52.4 83.5 52.3C83.5 52.3 83.5 52.3 83.6 52.3C83.7 52.3 83.7 52.2 83.8 52.2C83.8 52.2 83.8 52.2 83.9 52.1C83.8 52.1 83.7 52 83.8 51.9C83.7 51.9 83.6 51.9 83.5 51.9C83.5 51.9 83.5 51.9 83.4 51.9C83.1 52 83 52.1 83 52.1Z" fill="#CCE9F5"/>
<path d="M83.6 52.4C83.5 52.4 83.5 52.4 83.6 52.4C83.5 52.6 83.7001 52.7 83.9001 52.7C84.0001 52.7 84.1 52.6 84.2 52.6C84.3 52.5 84.3001 52.5 84.3001 52.4C84.3001 52.3 84.3 52.3 84.2 52.2C84.1 52.3 83.9001 52.3 83.8001 52.2C83.8001 52.2 83.8 52.2 83.7 52.3C83.7 52.3 83.6 52.3 83.6 52.4Z" fill="#CCE9F5"/>
<path d="M84.4 51.9C84.4 52 84.4 52 84.3 52.1L84.2 52.2C84.3 52.2 84.3 52.3 84.3 52.4C84.3 52.4 84.3 52.4 84.4 52.4C84.6 52.5 84.9 52.4 85 52.3C85.1 52.2 85.1 52 84.8 52C84.8 52 84.8 52 84.7 52C84.6 51.9 84.5 51.9 84.4 51.9Z" fill="#CCE9F5"/>
<path d="M84.3 51.7C84.4 51.8 84.4 51.9 84.4 52C84.5 52 84.6 52 84.7 52C84.7 52 84.7 52 84.8 52C84.9 52 85 51.9001 85 51.9001C85.1 51.8001 85.1 51.7 85.1 51.7C85 51.6 84.8 51.6 84.5 51.7C84.5 51.7 84.5 51.7 84.4 51.7C84.4 51.6 84.3 51.6 84.3 51.7Z" fill="#CCE9F5"/>
<path d="M83.9 51.4001C83.8 51.4001 83.8 51.5 83.8 51.6C83.8 51.7 83.8 51.7001 83.9 51.8001C84 51.7001 84.2 51.7001 84.3 51.8001C84.3 51.8001 84.3 51.8 84.4 51.7C84.4 51.7 84.5 51.6 84.6 51.6C84.6 51.4 84.5 51.3001 84.3 51.3001C84.1 51.2001 84 51.3001 83.9 51.4001Z" fill="#CCE9F5"/>
<path d="M80.6 51C80.5 51.1 80.5 51.3 80.7 51.3C80.7 51.3 80.7001 51.3 80.8001 51.3C80.9001 51.3 81 51.3 81.1 51.3C81.1 51.3 81.1 51.2 81.2 51.2L81.3001 51.1C81.2001 51.1 81.2 51 81.2 50.9C81.2 50.9 81.2 50.9 81.1 50.9C81 50.9 80.7 50.9 80.6 51Z" fill="#CCE9F5"/>
<path d="M81.2 51.3L81.1 51.4C81.1 51.5 81.1 51.6 81.2 51.6C81.3 51.6 81.5 51.6 81.6 51.6C81.7 51.6 81.7 51.5 81.7 51.5C81.8 51.4 81.8 51.4 81.8 51.3C81.8 51.2 81.8 51.2 81.6 51.1C81.5 51.1 81.3 51.1 81.2 51.1C81.3 51.2 81.3 51.2 81.2 51.3Z" fill="#F8A912"/>
<path d="M80.5 51.6C80.4 51.7 80.4 51.8 80.4 51.8C80.5 51.9 80.7 51.9 81 51.8C81 51.8 81 51.8 81.1 51.8C81.2 51.8 81.2 51.7 81.3 51.7C81.3 51.7 81.3 51.7 81.4 51.6C81.3 51.6 81.2 51.5 81.3 51.4C81.2 51.4 81.1 51.4 81 51.4C81 51.4 81 51.4 80.9 51.4C80.6 51.5 80.5 51.5 80.5 51.6Z" fill="#CCE9F5"/>
<path d="M81.1 51.8C81 52 81.2 52.1 81.4 52.1C81.5 52.1 81.5999 52 81.6999 52C81.7999 51.9 81.8 51.9 81.8 51.8C81.8 51.7 81.7999 51.7 81.6999 51.6C81.5999 51.7 81.4 51.7 81.3 51.6C81.3 51.6 81.2999 51.6 81.1999 51.7C81.1999 51.7 81.2 51.7 81.1 51.8Z" fill="#CCE9F5"/>
<path d="M82 51.3C82 51.4 82 51.4 81.9 51.5L81.8 51.6C81.9 51.6 81.9 51.7 81.9 51.8C81.9 51.8 81.9 51.8 82 51.8C82.2 51.9 82.5 51.8 82.6 51.7C82.7 51.6 82.7 51.4 82.4 51.4C82.4 51.4 82.4 51.4 82.3 51.4C82.2 51.3 82.1 51.3 82 51.3Z" fill="#CCE9F5"/>
<path d="M81.8 51.1C81.9 51.2 81.9 51.3001 81.9 51.3001C82 51.3001 82.1 51.3001 82.2 51.3001C82.2 51.3001 82.2 51.3001 82.3 51.3001C82.4 51.3001 82.5 51.2 82.5 51.2C82.6 51.1 82.6 51 82.6 51C82.5 50.9 82.3 50.9 82 51C82 51 82 51 81.9 51C81.9 51 81.9 51 81.8 51.1Z" fill="#CCE9F5"/>
<path d="M81.4 50.8001C81.3 50.9001 81.3 50.9 81.3 51C81.3 51.1 81.3 51.1 81.4 51.2C81.5 51.1 81.7 51.1 81.8 51.2C81.8 51.2 81.8 51.2 81.9 51.1C81.9 51.1 82 51 82.1 51C82.1 50.8 82 50.7 81.8 50.7C81.6 50.6 81.5 50.7001 81.4 50.8001Z" fill="#CCE9F5"/>
<path d="M79.8 51.3C79.9 51.4 79.8 51.5 79.6 51.5C79.6 51.5 79.6 51.5 79.5 51.5C79.4 51.5 79.3 51.4 79.2 51.4V51.3L79.1 51.2C79.2 51.2 79.2 51.1 79.2 51.1C79.5 51.1 79.7 51.2 79.8 51.3Z" fill="#CCE9F5"/>
<path d="M79.3001 51.4V51.5C79.3001 51.6 79.3 51.7 79.1 51.7C79 51.7 78.9001 51.7 78.8001 51.6L78.7 51.5C78.7 51.4 78.6 51.4 78.7 51.4C78.7 51.3 78.8 51.3001 78.9 51.3001C79 51.2001 79.1001 51.2 79.3001 51.4C79.3001 51.3 79.2001 51.3 79.3001 51.4Z" fill="#F8A912"/>
<path d="M79.8 51.7C79.9 51.8 79.9 51.8 79.8 51.9C79.7 52 79.5 51.9 79.3 51.8C79.3 51.8 79.3 51.8 79.2 51.8C79.1 51.8 79.1 51.7 79.1 51.7C79.1 51.7 79.1 51.7 79.1 51.6C79.2 51.6 79.3 51.5 79.3 51.4C79.4 51.4 79.5 51.4 79.6 51.5C79.6 51.5 79.6 51.5 79.7 51.5C79.7 51.6 79.8 51.7 79.8 51.7Z" fill="#CCE9F5"/>
<path d="M79.3 51.8C79.3 52 79.2 52.1 79 52C78.9 52 78.8 51.9 78.8 51.8C78.8 51.7 78.7 51.7 78.7 51.6C78.7 51.5 78.7 51.5 78.8 51.5C78.9 51.6 79 51.6 79.1 51.6C79.1 51.6 79.1 51.6 79.1 51.7C79.2 51.7 79.3 51.8 79.3 51.8Z" fill="#CCE9F5"/>
<path d="M78.7 51.3V51.4L78.8001 51.5C78.7001 51.5 78.7 51.6 78.7 51.6C78.5 51.6 78.3 51.6 78.2 51.4C78.1 51.3 78.2001 51.2 78.4001 51.2C78.4001 51.2 78.4 51.2 78.5 51.2C78.5 51.3 78.6 51.3 78.7 51.3Z" fill="#CCE9F5"/>
<path d="M78.8001 51.1C78.7001 51.2 78.7 51.2001 78.6 51.3001C78.5 51.3001 78.4001 51.3001 78.3001 51.3001C78.3001 51.3001 78.3 51.3001 78.2 51.3001C78.1 51.3001 78.1 51.2 78 51.1C77.9 51 77.9 51.0001 78 50.9001C78.1 50.8001 78.3 50.9 78.5 51C78.5 51 78.5 51 78.6 51C78.7 51.1 78.8001 51.1 78.8001 51.1Z" fill="#CCE9F5"/>
<path d="M79.2 51C79.2 51.1 79.3 51.1 79.3 51.2C79.3 51.3 79.3 51.3 79.2 51.3C79.1 51.2 79 51.2 78.9 51.2C78.9 51.2 78.9 51.2 78.9 51.1L78.8 51C78.8 50.9 78.9 50.8 79.1 50.8C79.1 50.8 79.2 50.9 79.2 51Z" fill="#CCE9F5"/>
<path d="M79.5001 49.9C79.4001 50 79.5 50.1 79.7 50.1C79.7 50.1 79.7001 50.1 79.8001 50.1C79.9001 50 80.0001 50 80.0001 50V49.9C80.0001 49.9 80 49.8 80.1 49.8C80 49.8 80.0001 49.7 80.0001 49.7C80.0001 49.7 80.0001 49.7 79.9001 49.7C79.8001 49.7 79.6001 49.8 79.5001 49.9Z" fill="#DBEFF8"/>
<path d="M80.1 49.9V50C80.1 50.1 80.2 50.1 80.3 50.1C80.4 50.1 80.5 50 80.6 49.9L80.7 49.8C80.7 49.7 80.7 49.7 80.7 49.7C80.7 49.6 80.6 49.6 80.5 49.6C80.4 49.6 80.3 49.7 80.2 49.8C80.1 49.8 80.1 49.9 80.1 49.9Z" fill="#F8A912"/>
<path d="M79.6 50.4C79.6 50.5 79.6 50.6 79.6 50.6C79.7 50.7 79.9 50.6 80.1 50.5L80.2 50.4C80.2 50.4 80.2 50.4 80.2 50.3C80.1 50.3 80 50.2 80 50.2C79.9 50.2 79.8 50.3 79.8 50.3C79.7 50.2 79.6 50.3 79.6 50.4Z" fill="#DBEFF8"/>
<path d="M80.1 50.4C80.1 50.6 80.3 50.6 80.4 50.6C80.5 50.6 80.6 50.5 80.6 50.4C80.6 50.3 80.6 50.3 80.6 50.2C80.6 50.1 80.5 50.1 80.5 50.1C80.4 50.2 80.3 50.2 80.2 50.3C80.2 50.3 80.2 50.3 80.2 50.4C80.2 50.3 80.1 50.3 80.1 50.4Z" fill="#DBEFF8"/>
<path d="M80.7 49.8V49.9C80.7 49.9 80.7 50 80.6 50C80.7 50 80.7 50.1 80.7 50.1C80.7 50.1 80.7 50.1 80.8 50.1C81 50.1 81.2 50 81.3 49.9C81.4 49.8 81.3 49.7 81.1 49.7C81.1 49.7 81.1 49.7 81 49.7C80.8 49.7 80.7 49.7 80.7 49.8Z" fill="#DBEFF8"/>
<path d="M80.5 49.6C80.5 49.7 80.5 49.7 80.5 49.6C80.6 49.7 80.7 49.7001 80.7 49.8001C80.8 49.8001 80.9 49.7 80.9 49.7C81 49.6 81 49.6001 81.1 49.5001C81.1 49.4001 81.1 49.3001 81.1 49.3001C81 49.2001 80.8 49.3001 80.6 49.5001C80.5 49.5001 80.5 49.6 80.5 49.6Z" fill="#DBEFF8"/>
<path d="M80.1 49.5C80.1 49.6 80.1 49.6 80.1 49.7C80.1 49.8 80.2 49.8001 80.2 49.8001C80.3 49.7001 80.4 49.7 80.5 49.6C80.5 49.6 80.5 49.6 80.5 49.5L80.6 49.4001C80.6 49.3001 80.4 49.2001 80.3 49.3001C80.2 49.3001 80.1 49.4 80.1 49.5Z" fill="#DBEFF8"/>
<path d="M85.5 51.6C84.6 51.4 83.8 52.7001 83.4 53.3001C83.2 53.5001 83 53.8 82.8 54.2C82.8 54 82.8 53.8 82.8 53.6C82.9 53.1 83.1 52.7 83.3 52.2C83.7 51.3 84.2 50.2 85 49.6C85.1 49.5 85 49.4 84.9 49.5C84.4 49.8 84 50.3001 83.7 50.9001C83.7 50.9001 83.7 50.9001 83.6 50.9001C83.2 51.2001 82.9 51.7 82.8 52.2C82.8 52.1 82.8 52.1 82.8 52C82.8 51.9 82.8 51.7 82.8 51.6C82.7 51.6 82.7 51.6 82.6 51.6C82.6 51.8 82.6 51.9 82.7 52.1C82.7 52.3 82.7 52.5 82.7 52.7C82.7 52.9 82.6 53 82.6 53.2C82.4 54 82.2 55.0001 82.4 55.9001C82.4 56.0001 82.5 55.9001 82.5 55.9001C82.5 55.8001 82.5 55.7 82.5 55.6V55.5C82.5 55.5 82.5 55.5 82.6 55.5C82.6 55.6 82.6 55.6 82.6 55.7C82.6 55.8 82.7 55.8 82.7 55.7C82.7 55.5 82.7 55.4 82.7 55.2C82.8 55 82.8 54.8 82.9 54.6C83.1 54.2 83.4 53.9 83.6 53.6C84 52.6 84.6 51.9 85.5 51.6C85.6 51.6 85.6 51.6 85.5 51.6ZM82.4 54.7C82.4 54.8 82.3 54.8001 82.3 54.9001C82.3 54.3001 82.4 53.7 82.6 53.1C82.6 53.3 82.6 53.5 82.6 53.7C82.6 54.1 82.5 54.4 82.4 54.7ZM82.8 52.9001C82.8 52.8001 82.8 52.6 82.8 52.5C83 52 83.3 51.5 83.6 51C83.5 51.2 83.4 51.5 83.3 51.7C83.1 52.1 83 52.5001 82.8 52.9001Z" fill="#4EA733"/>
<path d="M85.9 49.3C86 49.4 85.9 49.5 85.7 49.5C85.7 49.5 85.7 49.5 85.6 49.5C85.5 49.5 85.4 49.4 85.3 49.4V49.3L85.2 49.2C85.3 49.2 85.3 49.1 85.3 49.1C85.3 49.1 85.3 49.1 85.4 49.1C85.6 49.2 85.8 49.2 85.9 49.3Z" fill="#FFF4DE"/>
<path d="M85.4 49.4001C85.4 49.5001 85.4 49.5001 85.4 49.4001C85.5 49.6001 85.4001 49.7 85.3001 49.7C85.2001 49.7 85.1 49.7 85 49.6L84.9 49.5C84.9 49.4 84.8 49.4001 84.9 49.4001C84.9 49.3001 85 49.3001 85.1 49.3001C85 49.2001 85.2 49.3001 85.4 49.4001C85.3 49.4001 85.3 49.4001 85.4 49.4001Z" fill="#F8BE3B"/>
<path d="M85.9 49.8C86 49.9 86 49.9 85.9 50C85.8 50.1 85.6 50 85.4 49.9C85.4 49.9 85.4 49.9 85.3 49.9C85.2 49.9 85.2 49.8 85.2 49.8C85.2 49.8 85.2 49.8 85.2 49.7C85.3 49.7 85.4 49.6 85.4 49.5C85.5 49.5 85.6 49.5 85.7 49.6C85.7 49.6 85.7 49.6 85.8 49.6C85.8 49.7 85.9 49.7 85.9 49.8Z" fill="#FFF4DE"/>
<path d="M85.4 49.9C85.4 50.1 85.3 50.2 85.1 50.1C85 50.1 84.9 50 84.9 49.9C84.9 49.8 84.8 49.8 84.8 49.7C84.8 49.6 84.8 49.6 84.9 49.6C85 49.7 85.1 49.7 85.2 49.7C85.2 49.7 85.2 49.7 85.2 49.8C85.3 49.8 85.3 49.8 85.4 49.9Z" fill="#FFF4DE"/>
<path d="M84.8001 49.4V49.5L84.9001 49.6C84.8001 49.6 84.8001 49.7 84.8001 49.7C84.6001 49.7 84.4001 49.7 84.3001 49.5C84.2001 49.4 84.3001 49.3 84.5001 49.3C84.5001 49.3 84.5 49.3 84.6 49.3C84.6 49.3 84.7001 49.3 84.8001 49.4Z" fill="#FFF4DE"/>
<path d="M84.9001 49.2C84.8001 49.3 84.8 49.3001 84.7 49.4001C84.6 49.4001 84.5001 49.4001 84.4001 49.4001C84.4001 49.4001 84.4001 49.4001 84.3001 49.4001C84.2001 49.4001 84.2 49.3 84.1 49.2C84 49.1 84 49.1 84.1 49C84.2 48.9 84.4 49 84.6 49.1C84.6 49.1 84.6 49.1 84.7 49.1C84.8 49.1 84.9001 49.1 84.9001 49.2Z" fill="#FFF4DE"/>
<path d="M85.3 49C85.3 49.1 85.4 49.1 85.4 49.2C85.4 49.3 85.4 49.3 85.3 49.3C85.2 49.2 85.1 49.2 85 49.2C85 49.2 85 49.2 85 49.1L84.9 49C84.9 48.9 85 48.8 85.2 48.8C85.2 48.9 85.2 48.9 85.3 49Z" fill="#FFF4DE"/>
<path d="M79.8 52.9C81 53.4 82.6 54.5 82.6 56C82.6 56.1 82.5 56.1 82.4 56.1C82.1 55.5 81.9 55 81.5 54.5C81 53.9 80.3 53.4 79.6 53.1C79.7 53 79.7 52.9 79.8 52.9Z" fill="#5BAB31"/>
<path d="M80.8001 51.3C81.8001 52.3 82.4001 53.7 82.3001 55.2C82.3001 53.8 81.8001 52.4 80.8001 51.3Z" fill="#61AF30"/>
<path d="M79.2 51.3C79.1 51.5 79.3 51.6 79.6 51.6H79.7C79.8 51.5 80 51.4 80.1 51.4C80.1 51.4 80.1 51.3 80.1 51.2C80.1 51.1 80.2 51.1 80.2 51C80.1 51 80 50.9 80 50.8H79.9C79.6 50.9 79.3 51.1 79.2 51.3Z" fill="#FFF4DE"/>
<path d="M80.1 51.2C80.1 51.3 80.1 51.3001 80.1 51.4001C80.1 51.5001 80.2 51.6 80.4 51.6C80.6 51.6 80.8 51.5001 80.9 51.3001C80.9 51.2001 81 51.2 81 51.1C81 51 81 50.9001 81 50.9001C81 50.8001 80.9 50.7001 80.7 50.8001C80.5 50.8001 80.3 50.9 80.2 51.1C80.1 51.1 80.1 51.1 80.1 51.2Z" fill="#F8BE3B"/>
<path d="M79.4001 51.9C79.3001 52 79.3001 52.1 79.4001 52.2C79.5001 52.3 79.9 52.1 80.1 51.9C80.1 51.9 80.1 51.9 80.2 51.8C80.3 51.7 80.3001 51.6 80.4001 51.6V51.5C80.2001 51.5 80.1 51.4 80.1 51.3C80 51.3 79.9 51.4 79.7 51.5C79.7 51.5 79.7 51.5 79.6 51.6C79.5 51.7 79.4001 51.9 79.4001 51.9Z" fill="#FFF4DE"/>
<path d="M80.2 51.9C80.3 52.2 80.5 52.3 80.7 52.1C80.8 52 81 51.9 81 51.8C81 51.7 81.1 51.6 81 51.5C81 51.5 81 51.5 81 51.4C81 51.3 80.9 51.3 80.8 51.2C80.7 51.3 80.5 51.5 80.3 51.5V51.6C80.3 51.7 80.3 51.8 80.2 51.9Z" fill="#FFF4DE"/>
<path d="M81 50.8C81 50.9 81 50.9 81 51C81 51.1 80.9 51.1 80.9 51.2C81 51.2 81.1 51.3 81.1 51.4H81.2C81.5 51.4 81.8 51.2 81.9 51C82 50.8 81.8 50.7 81.5 50.7H81.4C81.3 50.7 81.1 50.8 81 50.8Z" fill="#FFF4DE"/>
<path d="M80.7 50.6C80.9 50.7 81 50.7 81 50.8C81.1 50.7 81.2 50.7 81.4 50.6C81.4 50.6 81.5 50.6 81.5 50.5C81.6 50.4 81.7 50.2999 81.7 50.1999C81.8 50.0999 81.8 50 81.7 49.9C81.6 49.8 81.2 49.9999 81 50.1999C81 50.1999 81 50.2 80.9 50.3C80.8 50.5 80.7 50.5 80.7 50.6Z" fill="#FFF4DE"/>
<path d="M80 50.5C80 50.6 79.9 50.7001 80 50.8001C80 50.8001 80 50.8001 80 50.9001C80 51.0001 80.1 51 80.2 51.1C80.3 51 80.5 50.8001 80.7 50.8001V50.7C80.7 50.6 80.8 50.5 80.9 50.5C80.9 50.5 80.9 50.5001 80.9 50.4001C80.9 50.2001 80.6 50.1 80.4 50.2C80.2 50.2 80.1 50.3 80 50.5Z" fill="#FFF4DE"/>
<path d="M82.4 56C82 54 82.7 51.6001 84.3 50.3001C84.4 50.2001 84.5 50.4001 84.4 50.4001C82.8 51.9001 82.8999 54 82.5999 56C82.5999 56.1 82.4 56.1 82.4 56Z" fill="#62B22F"/>
<path d="M80.9 52.4C80.4 51.4 79.8 50.7 79 50.1C79.1 50.3 79.4 50.5 79.6 50.6C80.1 51 80.5001 51.6 80.8001 52.2C81.1001 52.8 81.3 53.3 81.5 53.9C81.7 54.5 81.7 55.2 81.9 55.8H82C82.1 54.8 81.3 53.4 80.9 52.4Z" fill="#4EA733"/>
<path d="M84.2 53.4C83.2 53.6 82.7 54.9 82.6 55.7C82.6 55.8 82.7 55.8 82.7 55.7C82.8 54.8 83.4 54 84.2 53.4Z" fill="#4EA733"/>
<path d="M81.4 54.5C81.3 54.1 81.1001 53.7 80.8001 53.5C80.8001 53.5 80.7001 53.5 80.8001 53.6C81.1001 54 81.3001 54.5 81.3001 55C81.3001 55.3 81.3 55.8 81.5 56H81.6C81.6 55.5 81.5 54.9 81.4 54.5Z" fill="#4EA733"/>
<path d="M83.6 54.2C83.1 54.6 82.7 55.4 82.7 56H82.8C82.9 55.7 82.9 55.4 83.1 55.1C83.2 54.8 83.4 54.5 83.6 54.2Z" fill="#4EA733"/>
<path d="M86.2 51.2C86.1 51.3 85.9001 51.4 85.8001 51.4C85.7001 51.4 85.7001 51.3 85.8001 51.1C85.9001 51 86.1 50.9 86.2 50.9C86.3 51 86.3 51.1 86.2 51.2Z" fill="#FFF4DE"/>
<path d="M85.8001 51.2C85.9001 51.3 85.8 51.4 85.7 51.5C85.6 51.6 85.4001 51.6 85.3001 51.5C85.2001 51.4 85.3001 51.3 85.4001 51.2C85.5001 51.1 85.7001 51.1 85.8001 51.2Z" fill="#FFF4DE"/>
<path d="M85.3 51.5C85.5 51.4 85.6 51.5 85.6 51.6C85.6 51.7 85.4 51.8001 85.3 51.9001C85.1 52.0001 85 51.9001 85 51.8001C85 51.7001 85.2 51.6 85.3 51.5Z" fill="#FFF4DE"/>
<path d="M85.3001 51.9C85.4001 51.8 85.6 51.7 85.7 51.7C85.8 51.7 85.8 51.8 85.7 52C85.6 52.1 85.4001 52.2 85.3001 52.2C85.2001 52.2 85.2001 52 85.3001 51.9Z" fill="#FFF4DE"/>
<path d="M85.8001 51.9001C85.7001 51.8001 85.8001 51.7 85.9001 51.6C86.0001 51.5 86.2001 51.5 86.3001 51.6C86.4001 51.7 86.3 51.8001 86.2 51.9001C86.1 52.0001 85.8001 52.0001 85.8001 51.9001Z" fill="#FFF4DE"/>
<path d="M86.2 51.6C86 51.7 85.9 51.6 85.9 51.5C85.9 51.4 86.1 51.3 86.2 51.2C86.4 51.1 86.5 51.2001 86.5 51.3001C86.5 51.4001 86.4 51.5 86.2 51.6Z" fill="#FFF4DE"/>
<path d="M86 51.6C85.9 51.7 85.7 51.8 85.6 51.8C85.5 51.8 85.4 51.7 85.5 51.6C85.6 51.5 85.8001 51.4 85.9001 51.4C86.0001 51.4 86.1 51.5 86 51.6Z" fill="#F8BE3B"/>
<path d="M83.8001 54C83.7001 54.1 83.6 54.2 83.5 54.2C83.4 54.2 83.4 54.1 83.5 54C83.6 53.9 83.7001 53.8 83.8001 53.8C83.8001 53.9 83.8001 53.9 83.8001 54Z" fill="#FFF4DE"/>
<path d="M83.5 54C83.6 54.1 83.5 54.2 83.4 54.2C83.3 54.3 83.2 54.3 83.2 54.2C83.1 54.1 83.2001 54 83.3001 54C83.3001 54 83.4 54 83.5 54Z" fill="#FFF4DE"/>
<path d="M83.1 54.3C83.2 54.3 83.3 54.3 83.3 54.4C83.3 54.5 83.2 54.6 83.1 54.6C83 54.6 82.9 54.6 82.9 54.6C82.9 54.4 83 54.3 83.1 54.3Z" fill="#FFF4DE"/>
<path d="M83.1 54.5C83.2 54.4 83.3 54.3 83.4 54.3C83.5 54.3 83.5 54.4 83.4 54.5C83.3 54.6 83.2 54.7 83.1 54.7C83.1 54.7 83.1 54.6 83.1 54.5Z" fill="#FFF4DE"/>
<path d="M83.4001 54.5C83.3001 54.4 83.4 54.3001 83.5 54.3001C83.6 54.2001 83.7 54.2001 83.7 54.3001C83.8 54.4001 83.7 54.4 83.6 54.5C83.6 54.6 83.5001 54.6 83.4001 54.5Z" fill="#FFF4DE"/>
<path d="M83.8 54.3C83.7 54.3 83.6 54.3 83.6 54.2C83.6 54.1 83.7 54 83.8 54C83.9 54 84 54 84 54.1C84 54.2 83.9 54.3 83.8 54.3Z" fill="#FFF4DE"/>
<path d="M83.6 54.3C83.5 54.4 83.4 54.4 83.3 54.4C83.2 54.4 83.2 54.3 83.2 54.2C83.3 54.1 83.4 54.1 83.5 54.1C83.6 54.1 83.7 54.2 83.6 54.3Z" fill="#F8BE3B"/>
<path d="M84.9 52.6C84.8 52.8 84.6 52.9 84.4 52.9C84.3 52.9 84.2 52.7 84.4 52.6C84.5 52.4 84.7 52.3 84.9 52.3C85 52.3 85 52.4 84.9 52.6Z" fill="#FFF4DE"/>
<path d="M84.3 52.6C84.4 52.7 84.3999 52.9 84.1999 53C83.9999 53.1 83.7999 53.1 83.6999 53C83.5999 52.9 83.6 52.7 83.8 52.6C84 52.5 84.2 52.5 84.3 52.6Z" fill="#FFF4DE"/>
<path d="M83.7 53C83.9 52.9 84.1 53 84.1 53.1C84.1 53.2 83.9 53.4001 83.7 53.4001C83.5 53.5001 83.3 53.4001 83.3 53.3001C83.3 53.3001 83.5 53.1 83.7 53Z" fill="#FFF4DE"/>
<path d="M83.7 53.5C83.8 53.3 84 53.2 84.2 53.2C84.3 53.2 84.4 53.4 84.2 53.5C84.1 53.7 83.9 53.8 83.7 53.8C83.6 53.8 83.6 53.7 83.7 53.5Z" fill="#FFF4DE"/>
<path d="M84.3001 53.5C84.2001 53.4 84.2 53.2 84.4 53.1C84.6 53 84.8 53 84.9 53.1C85 53.2 85.0001 53.4 84.8001 53.5C84.6001 53.6 84.4001 53.6 84.3001 53.5Z" fill="#FFF4DE"/>
<path d="M84.9 53.1C84.7 53.2 84.5 53.1 84.5 53C84.5 52.9 84.7 52.7 84.9 52.6C85.1 52.5 85.3 52.6 85.3 52.7C85.3 52.9 85.1 53 84.9 53.1Z" fill="#FFF4DE"/>
<path d="M84.6 53.1C84.5 53.2 84.3 53.4001 84.1 53.3001C83.9 53.3001 83.9 53.2001 84 53.0001C84.1 52.8001 84.3 52.7001 84.5 52.8001C84.7 52.8001 84.7 52.9 84.6 53.1Z" fill="#F8BE3B"/>
<path d="M80.1999 52.8C80.2999 53 80.5 53.2 80.6 53.2C80.7 53.2 80.7999 53.1 80.6999 52.9C80.5999 52.7 80.4 52.5 80.3 52.5C80.1 52.5 80.0999 52.6 80.1999 52.8Z" fill="#FFF4DE"/>
<path d="M80.7 52.9001C80.6 53.0001 80.6 53.2001 80.7 53.3001C80.8 53.4001 81 53.5001 81.1 53.4001C81.2 53.3001 81.2 53.1 81.1 53C81.1 52.9 80.9 52.8001 80.7 52.9001Z" fill="#FFF4DE"/>
<path d="M81.2 53.5C81 53.4 80.8 53.4 80.8 53.5C80.8 53.6 80.9 53.8001 81.2 53.9001C81.4 54.0001 81.6 54.0001 81.6 53.9001C81.6 53.8001 81.4 53.6 81.2 53.5Z" fill="#FFF4DE"/>
<path d="M81.2 53.9C81.1 53.7 80.9001 53.5 80.8001 53.5C80.7001 53.5 80.6 53.6 80.7 53.8C80.8 54 81 54.2 81.1 54.2C81.2 54.3 81.2 54.1 81.2 53.9Z" fill="#FFF4DE"/>
<path d="M80.6 53.8001C80.7 53.7001 80.7 53.5001 80.6 53.4001C80.5 53.3001 80.3 53.2001 80.2 53.3001C80.1 53.4001 80.1 53.6 80.2 53.7C80.3 53.9 80.5 53.9001 80.6 53.8001Z" fill="#FFF4DE"/>
<path d="M80.1 53.3001C80.3 53.4001 80.5 53.4001 80.5 53.3001C80.5 53.2001 80.4 53.0001 80.1 52.9001C79.9 52.8001 79.7 52.8001 79.7 52.9001C79.7 53.0001 79.9 53.2001 80.1 53.3001Z" fill="#FFF4DE"/>
<path d="M80.4001 53.4C80.5001 53.6 80.7001 53.7 80.8001 53.7C81.0001 53.7 81.0001 53.6 81.0001 53.4C80.9001 53.2 80.7 53.1 80.6 53.1C80.4 53.1 80.3001 53.2 80.4001 53.4Z" fill="#F8BE3B"/>
<path d="M83.8 54.4999C83 54.1999 82.5 55.3 82.6 55.9C82.7 55.4 83 54.2999 83.8 54.4999Z" fill="#55AF37"/>
<path d="M80.2 54.4999C81 54.1999 81.5001 55.3 81.4001 55.9C81.3001 55.4 81 54.2999 80.2 54.4999C80.1 54.5999 80.1 54.4999 80.2 54.4999Z" fill="#55AF37"/>
<path d="M79.3 49.1C79.5 49.1 79.5 49.2 79.4 49.4C79.3 49.5 79.2 49.5 79.2 49.6H79.1H79C79 49.5 79 49.5 78.9 49.4C78.9 49.4 78.9 49.4 78.9 49.3C79 49.3 79.2 49.2 79.3 49.1Z" fill="#FFF4DE"/>
<path d="M79 49.7H79.1C79.2 49.7 79.2 49.8 79.2 50C79.1 50.1 79.0001 50.2 78.9001 50.2C78.8001 50.2 78.8001 50.2 78.8001 50.2C78.7001 50.2 78.7 50.2 78.6 50.1C78.5 50.1 78.5 50 78.6 49.9C78.7 49.8 78.8001 49.7 78.9001 49.7H79Z" fill="#F8BE3B"/>
<path d="M79.7 49.4C79.8 49.4 79.9 49.4 79.9 49.5C79.9 49.6 79.7 49.8 79.5 49.9C79.5 49.9 79.5 49.9 79.4 49.9C79.3 49.9 79.3 49.9 79.2 49.9C79.2 49.9 79.2 49.9 79.1 49.9C79.2 49.8 79.1 49.7 79 49.6C79.1 49.5 79.1 49.5 79.2 49.4C79.2 49.4 79.2 49.4 79.3 49.4C79.6 49.4 79.7 49.4 79.7 49.4Z" fill="#FFF4DE"/>
<path d="M79.5 50C79.7 50.1 79.7 50.3 79.5 50.4C79.4 50.5 79.3 50.5 79.2 50.5C79.1 50.5 79.1 50.5 79 50.4C79 50.4 78.9 50.3 78.9 50.2C79 50.2 79.1 50.1 79.2 50C79.2 50 79.2 50 79.3 50C79.3 50 79.4 50 79.5 50Z" fill="#FFF4DE"/>
<path d="M78.6 50.2C78.6 50.2 78.7001 50.3 78.8001 50.3H78.9C78.9 50.4 78.9 50.4 79 50.5C79 50.5 79 50.5 79 50.6C78.9 50.8 78.7 50.9 78.5 51C78.3 51 78.3 50.9 78.4 50.7C78.4 50.7 78.4 50.7 78.4 50.6C78.4 50.3 78.5 50.3 78.6 50.2Z" fill="#FFF4DE"/>
<path d="M78.5 50C78.6 50 78.6 50 78.5 50C78.5 50.1 78.5 50.2 78.6 50.3C78.5 50.4 78.4 50.4 78.4 50.5C78.4 50.5 78.4 50.5 78.3 50.5C78.2 50.5 78.1 50.6 78 50.6C77.9 50.6 77.8 50.6 77.8 50.5C77.8 50.4 78 50.2 78.2 50.1C78.2 50.1 78.2 50.1 78.3 50.1C78.4 50 78.5 50 78.5 50Z" fill="#FFF4DE"/>
<path d="M78.6 49.5C78.7 49.5 78.7001 49.5 78.8001 49.5C78.9001 49.5 78.9001 49.6 78.9001 49.7C78.8001 49.7 78.7 49.8 78.6 49.9C78.6 49.9 78.6 49.9 78.5 49.9C78.4 49.9 78.4001 49.9 78.3001 49.9C78.2001 49.8 78.2001 49.6 78.3001 49.5C78.4001 49.5 78.5 49.5 78.6 49.5Z" fill="#FFF4DE"/>
<path d="M82.7 52C82.7 52.2 82.5 52.4 82.3 52.4C82.1 52.4 82 52.2 82 51.9C82 51.7 82.2 51.5 82.4 51.5C82.6 51.5 82.7 51.7 82.7 52Z" fill="#FFF4DE"/>
<path d="M82.0001 51.9001C82.2001 52.0001 82.3 52.3001 82.2 52.4001C82.1 52.5001 81.9 52.5001 81.7 52.4001C81.5 52.3001 81.4001 52.0001 81.5001 51.9001C81.6001 51.8001 81.8001 51.8001 82.0001 51.9001Z" fill="#FFF4DE"/>
<path d="M81.6 52.5C81.8 52.4 82 52.5 82.1 52.6C82.2 52.8 82.1 53 81.8 53.1C81.6 53.2 81.4 53.1 81.3 53C81.3 52.8 81.4 52.6 81.6 52.5Z" fill="#FFF4DE"/>
<path d="M82 53.1C82 52.9 82.2 52.7 82.4 52.7C82.6 52.7 82.6999 52.9 82.6999 53.2C82.6999 53.4 82.5 53.6 82.3 53.6C82.1 53.6 81.9 53.4 82 53.1Z" fill="#FFF4DE"/>
<path d="M82.7 53.2C82.5 53.1 82.4001 52.8 82.5001 52.7C82.6001 52.6 82.8001 52.6 83.0001 52.7C83.2001 52.8 83.3 53.1 83.2 53.2C83.1 53.3 82.8 53.3 82.7 53.2Z" fill="#FFF4DE"/>
<path d="M83 52.6C82.8 52.7 82.6 52.6 82.5 52.5C82.4 52.3 82.5001 52.1 82.8001 52C83.0001 51.9 83.2001 52 83.3001 52.1C83.4001 52.3 83.2 52.5 83 52.6Z" fill="#FFF4DE"/>
<path d="M82.7 52.6C82.7 52.8 82.5 52.9 82.3 52.9C82.1 52.9 82 52.7 82 52.5C82 52.3 82.2 52.2 82.4 52.2C82.6 52.2 82.7 52.4 82.7 52.6Z" fill="#F8BE3B"/>
<path d="M82.1 54C82.1 54.1 82.0001 54.2 81.9001 54.2C81.8001 54.2 81.7001 54.1 81.8001 54C81.8001 53.9 81.9 53.8 82 53.8C82.1 53.8 82.1 53.9 82.1 54Z" fill="#FFF4DE"/>
<path d="M81.7 54C81.8 54.1 81.8 54.2001 81.8 54.3001C81.7 54.4001 81.6 54.4001 81.5 54.3001C81.4 54.2001 81.4 54.1 81.4 54C81.5 53.9 81.6 53.9 81.7 54Z" fill="#FFF4DE"/>
<path d="M81.6 54.3001C81.7 54.2001 81.8 54.3001 81.9 54.4001C81.9 54.5001 81.9001 54.6 81.8001 54.6C81.7001 54.6 81.6 54.6 81.5 54.5C81.4 54.5 81.4 54.3001 81.6 54.3001Z" fill="#FFF4DE"/>
<path d="M81.7 54.6C81.7 54.5 81.8 54.4 81.9 54.4C82 54.4 82.1 54.5 82 54.6C82 54.7 81.9 54.8 81.8 54.8C81.8 54.8 81.7 54.7 81.7 54.6Z" fill="#FFF4DE"/>
<path d="M82.1 54.6C82 54.5 82 54.4001 82 54.3001C82.1 54.2001 82.2 54.2001 82.3 54.3001C82.4 54.4001 82.4 54.5 82.4 54.6C82.3 54.7 82.2 54.7 82.1 54.6Z" fill="#FFF4DE"/>
<path d="M82.3 54.3C82.2 54.3 82.1 54.3 82 54.2C82 54.1 82 54 82.1 54C82.2 54 82.3 54 82.4 54.1C82.4 54.2 82.4 54.3 82.3 54.3Z" fill="#FFF4DE"/>
<path d="M82.1 54.3C82.1 54.4 82 54.5 81.9 54.5C81.8 54.5 81.7 54.4 81.7 54.3C81.7 54.2 81.8 54.1 81.9 54.1C82 54.1 82.1 54.2 82.1 54.3Z" fill="#F8BE3B"/>
<path d="M80.4 53.8C80 53.1 79.4 52.6 78.7 52.2C78.7 52.2 78.8 52.2 78.8 52.3C80.1 53.1 81 54.5 81.2 56H81.3C81.3 55.2 80.8 54.5 80.4 53.8Z" fill="#4EA733"/>
<path d="M78.2 51.8C78.3 52 78.4 52.1 78.5 52.1C78.6 52.1 78.6 52 78.6 51.8C78.5 51.7 78.4001 51.5 78.3001 51.5C78.2001 51.5 78.1 51.6 78.2 51.8Z" fill="#FFF4DE"/>
<path d="M78.6 51.8C78.5 51.9 78.5 52 78.6 52.1C78.7 52.2 78.9001 52.2 78.9001 52.2C79.0001 52.1 79.0001 52 78.9001 51.9C78.9001 51.8 78.7 51.8 78.6 51.8Z" fill="#FFF4DE"/>
<path d="M79 52.2C78.8 52.1 78.7 52.1 78.7 52.2C78.7 52.3 78.8 52.4 79 52.5C79.2 52.6 79.3 52.6 79.3 52.5C79.3 52.5 79.2 52.3 79 52.2Z" fill="#FFF4DE"/>
<path d="M79 52.6C78.9 52.4 78.8 52.3 78.7 52.3C78.6 52.3 78.6 52.4 78.6 52.6C78.7 52.8 78.8 52.9 78.9 52.9C79 52.9 79 52.8 79 52.6Z" fill="#FFF4DE"/>
<path d="M78.5 52.5C78.6 52.4 78.6 52.3 78.5 52.2C78.4 52.1 78.2 52.1 78.2 52.1C78.1 52.2 78.1 52.3 78.2 52.4C78.3 52.6 78.4 52.6 78.5 52.5Z" fill="#FFF4DE"/>
<path d="M78.1 52.1C78.3 52.2 78.4 52.2 78.4 52.1C78.4 52 78.3 51.9001 78.1 51.8001C77.9 51.7001 77.8 51.7001 77.8 51.8001C77.9 51.9001 78 52 78.1 52.1Z" fill="#FFF4DE"/>
<path d="M78.4001 52.2C78.5001 52.3 78.6 52.4001 78.7 52.5001C78.8 52.5001 78.9001 52.4001 78.8001 52.3001C78.7001 52.2001 78.6 52.1001 78.5 52.0001C78.4 51.9001 78.3001 52 78.4001 52.2Z" fill="#F8BE3B"/>
<path d="M82.8 51.7C82.6 50.8 82.2 49.3 81.6 48.6C81.6 48.6 81.5 48.6 81.5 48.7C82.1 49.4 82.4 50.6 82.6 51.5C82.6 51.5 82.7 51.7 82.8 51.7Z" fill="#4EA733"/>
<path d="M82.4 48.1C82.6 48.1 82.6 48.3 82.5 48.5C82.5 48.5 82.5 48.5 82.5 48.6C82.4 48.6 82.3 48.7 82.2 48.8H82.1C82 48.8 82 48.8 81.9 48.8C81.9 48.7 81.9 48.7 81.9 48.6C81.9 48.6 81.9 48.6 81.9 48.5C82 48.3 82.2 48.1 82.4 48.1Z" fill="#FFF4DE"/>
<path d="M82 48.7C82.1 48.7 82.1 48.7 82.1 48.7C82.2 48.8 82.2 48.9 82.1 49C82 49.1 81.9 49.2 81.7 49.2C81.6 49.2 81.6 49.2 81.5 49.2C81.4 49.2 81.4001 49.2 81.3001 49.1C81.2001 49 81.2001 49 81.3001 48.8C81.4001 48.7 81.5 48.6 81.7 48.6C81.9 48.7 82 48.7 82 48.7Z" fill="#F8BE3B"/>
<path d="M82.8 48.5C82.9 48.5 83 48.6 83 48.6C83 48.7 82.8 48.9 82.5 49C82.5 49 82.5 49 82.4 49C82.3 49 82.2 49 82.2 49H82.1C82.2 48.9 82.2 48.8 82.1 48.7C82.2 48.6 82.3 48.6 82.4 48.5C82.4 48.5 82.4 48.5 82.5 48.5C82.6 48.5 82.8 48.5 82.8 48.5Z" fill="#FFF4DE"/>
<path d="M82.5 49C82.7 49.1 82.7 49.3 82.5 49.5C82.4 49.6 82.3 49.6 82.1 49.6C82 49.6 81.9 49.6 81.9 49.5C81.9 49.4 81.8 49.4 81.9 49.3C82 49.3 82.2001 49.2 82.3001 49.1C82.3001 49.1 82.3 49.1 82.4 49.1C82.3 49.1 82.4 49 82.5 49Z" fill="#FFF4DE"/>
<path d="M81.5 49.2C81.5 49.2 81.5999 49.3 81.6999 49.3C81.7999 49.3 81.8 49.3 81.9 49.3C81.9 49.4 81.9 49.4 81.9 49.5C81.9 49.5 81.9 49.5 81.9 49.6C81.8 49.8 81.5 50 81.3 49.9C81.1 49.9 81.0999 49.7 81.1999 49.5C81.1999 49.5 81.1999 49.5 81.1999 49.4C81.2999 49.4 81.4 49.3 81.5 49.2Z" fill="#FFF4DE"/>
<path d="M81.4 48.9C81.5 49 81.5 49 81.4 48.9C81.4 49 81.4 49.1 81.5 49.2C81.4 49.3 81.3 49.3 81.3 49.4C81.3 49.4 81.3 49.4 81.2 49.4C81.1 49.4 81 49.5 80.9 49.4C80.8 49.4 80.7 49.3 80.7 49.3C80.7 49.2 80.9 49 81.2 48.9C81.2 48.9 81.2 48.9 81.3 48.9H81.4Z" fill="#FFF4DE"/>
<path d="M81.6 48.4C81.7 48.4 81.8001 48.4 81.8001 48.5C81.8001 48.6 81.9001 48.6 81.8001 48.7C81.7001 48.7 81.5 48.8 81.4 48.9C81.4 48.9 81.4001 48.9 81.3001 48.9C81.2001 48.9 81.2 48.9 81.1 48.9C81 48.8 81 48.6 81.2 48.5C81.3 48.4 81.4 48.4 81.6 48.4Z" fill="#FFF4DE"/>
<path d="M83.6 59.1L83.8 55.6H80.3L80.5 59.1H83.6Z" fill="#E52926"/>
<path d="M80.3 56.4L80.4 56.9H83.7V56.4H80.3Z" fill="#FFF4DE"/>
<path d="M86.1 92.9C85.6 89.1 85.2 84.6 85.1 80.1C85.4 79.9 85.6 78.9 85.6 77.8C85.6 76.5 85.3 75.4 84.9 75.4C84.5 75.4 84.2 76.5 84.2 77.8C84.2 79 84.5 80 84.8 80.2C84.9 84.6 85.3 89.1 85.8 92.9H86.1Z" fill="#404040"/>
<path d="M86.5 92.3001C85.4 88.4001 83.4 84.8001 82 82.4001C82.3 82.2001 81.9 81.2 81.1 80.1C80.3 79.1 79.4 78.4 79.1 78.6C78.8 78.8 79.2 79.8001 80 80.9001C80.6 81.7001 81.2999 82.3001 81.6999 82.4001C83.0999 84.7001 85.0999 88.3 86.1999 92.2H86.5V92.3001Z" fill="#404040"/>
<path d="M93.8 77.8001C93.6 77.5001 92.7 77.8 91.9 78.4C91.1 79 90.6 79.7 90.8 80C87.2 83.4 85.9 88.7001 85.4 93.3001H85.6C86 88.8001 87.4 83.5 90.9 80.2C91.2 80.3 92 80 92.7 79.5C93.5 78.8 94 78.1001 93.8 77.8001Z" fill="#404040"/>
<path d="M87.3 97.1C87.2 94.3 86.9 92 86.5 90.7H85.1C84.7 92 84.4 94.3 84.3 97.1C82.2 97.8 80.7 100 80.7 102.5C80.7 104.4 81.5 106 82.8 107.1H88.8C90.1 106.1 90.9 104.4 90.9 102.5C91 100 89.4 97.8 87.3 97.1Z" fill="#44BABC"/>
<path d="M87.5 90.9C87.5 91.3 87.2 91.6 86.8 91.6H84.8C84.4 91.6 84.1 91.3 84.1 90.9C84.1 90.5 84.4 90.2 84.8 90.2H86.8C87.2 90.2 87.5 90.5 87.5 90.9Z" fill="#44BABC"/>
<path d="M89.6 107.3C89.6 107.4 89.5 107.5 89.4 107.5H82.4C82.3 107.5 82.2 107.4 82.2 107.3C82.2 107.2 82.3 107.1 82.4 107.1H89.4C89.5 107.1 89.6 107.2 89.6 107.3Z" fill="#44BABC"/>
<path d="M28.9 74.9H8V79.5H28.9V74.9Z" fill="#62882D"/>
<path d="M28.9 75.5H24.9V79H28.9V75.5Z" fill="#DCDCDC"/>
<path d="M24.3 74.9H6.30005V79.5H24.3V74.9Z" fill="#7EB034"/>
<path d="M26.6 71.5H6.59998V75H26.6V71.5Z" fill="#9D271F"/>
<path d="M26.6 72H22V74.3H26.6V72Z" fill="#DCDCDC"/>
<path d="M21.3 71.5H4.90002V75H21.3V71.5Z" fill="#E4372E"/>
<path d="M29.4 79.6H6.59998V83.1H29.4V79.6Z" fill="#46AEAA"/>
<path d="M29.3 80.2H23.5V82.5H29.3V80.2Z" fill="#DCDCDC"/>
<path d="M22.9 79.6H4.90002V83.1H22.9V79.6Z" fill="#6AC3C7"/>
<path d="M85.4 23.2H64.2V27.7H85.4V23.2Z" fill="#1F1F20"/>
<path d="M85.5 23.8H81.4V27.2H85.5V23.8Z" fill="#DCDCDC"/>
<path d="M80.8 23.2H62.6V27.7H80.8V23.2Z" fill="#404040"/>
<path d="M83.1 19.8H62.8V23.2H83.1V19.8Z" fill="#22569D"/>
<path d="M83.1 20.4H78.4V22.7H83.1V20.4Z" fill="#DCDCDC"/>
<path d="M77.9 19.8H61.2V23.2H77.9V19.8Z" fill="#3F74B9"/>
<path d="M85.9 27.7H62.8V31.1H85.9V27.7Z" fill="#F0816E"/>
<path d="M85.9 28.3H80V30.5H85.9V28.3Z" fill="#DCDCDC"/>
<path d="M79.4 27.7H61.2V31.1H79.4V27.7Z" fill="#F7B178"/>
<path d="M33.1 52.7H10.3V54.9H33.1V52.7Z" fill="#62882D"/>
<path d="M33.1 52.9H28.7V54.5H33.1V52.9Z" fill="#DCDCDC"/>
<path d="M28.1 52.7H8.5V54.9H28.1V52.7Z" fill="#7EB034"/>
<path d="M30.6 51.1H8.80005V52.7H30.6V51.1Z" fill="#9D271F"/>
<path d="M30.6 51.3H25.6V52.4H30.6V51.3Z" fill="#DCDCDC"/>
<path d="M24.9 51.1H7V52.7H24.9V51.1Z" fill="#E4372E"/>
<path d="M33.6 54.8H8.80005V56.4H33.6V54.8Z" fill="#46AEAA"/>
<path d="M33.7 55.1H27.3V56.2H33.7V55.1Z" fill="#DCDCDC"/>
<path d="M26.6 54.8H7V56.4H26.6V54.8Z" fill="#6AC3C7"/>
<path d="M34.8 47.3H12V49.5H34.8V47.3Z" fill="#2A334F"/>
<path d="M34.8 47.5H30.4V49.1H34.8V47.5Z" fill="#DCDCDC"/>
<path d="M29.8 47.3H10.2V49.5H29.8V47.3Z" fill="#475677"/>
<path d="M32.3 45.7H10.5V47.3H32.3V45.7Z" fill="#9D271F"/>
<path d="M32.2 45.9H27.2V47H32.2V45.9Z" fill="#DCDCDC"/>
<path d="M26.6 45.7H8.69995V47.3H26.6V45.7Z" fill="#E4372E"/>
<path d="M35.3 49.4H10.5V51H35.3V49.4Z" fill="#EC6151"/>
<path d="M35.3 49.7H28.9V50.8H35.3V49.7Z" fill="#DCDCDC"/>
<path d="M28.3 49.4H8.69995V51H28.3V49.4Z" fill="#EE8F33"/>
<path d="M17.1 11.8H12V31.1H17.1V11.8Z" fill="#7CBA52"/>
<path d="M23.7 19H14.6V31.1H23.7V19Z" fill="#06151F"/>
<path d="M26.1 16H20.5V31.1H26.1V16Z" fill="#B3C4C0"/>
<path d="M25.8 17.3H22.7V31.1H25.8V17.3Z" fill="#2A7D90"/>
<path d="M30 15.2H27.8V31.2H30V15.2Z" fill="#CA1517"/>
<path d="M12 11.8H6.90002V31.1H12V11.8Z" fill="#A0C863"/>
<path d="M14.6 19H12V31.1H14.6V19Z" fill="#0B344F"/>
<path d="M20.4 16H18.5V31.1H20.4V16Z" fill="#DEEFEC"/>
<path d="M22.8 17.3H20.5V31.1H22.8V17.3Z" fill="#3DBDD9"/>
<path d="M26.8 15.2H24.6V31.2H26.8V15.2Z" fill="#514E71"/>
<path d="M34.5 15.2H26.8V31.2H34.5V15.2Z" fill="#38354D"/>
<path d="M41 12.8H34.2V31.1H41V12.8Z" fill="#CE9E11"/>
<path d="M34.3 12.8H29.1V31.1H34.3V12.8Z" fill="#FCC016"/>
<path d="M52.6 13.2H45.3V31.1H52.6V13.2Z" fill="#454A1B"/>
<path d="M45.2 13.2H40.3V31.1H45.2V13.2Z" fill="#778125"/>
<path d="M54.6 17.1H48.3V31.1H54.6V17.1Z" fill="#C01818"/>
<path d="M48.4 17.1H45.3V31.1H48.4V17.1Z" fill="#E52926"/>
<path d="M57.8 21.8H51.5V31.1H57.8V21.8Z" fill="#0C2030"/>
<path d="M51.4 21.8H48.3V31.1H51.4V21.8Z" fill="#094466"/>
<path d="M29.8 74.7C30.3 75.3 30.4 76.1 29.9 76.5C29.5 76.9 28.7 76.7 28.2 76.1C27.7 75.5 27.6 74.7001 28.1 74.3001C28.6 73.9001 29.3 74.1 29.8 74.7Z" fill="#86B027"/>
<path d="M27.9 75.9C27.6 75.9 27.3 75.6 27.2 75.2C27.2 74.8 27.4 74.5 27.8 74.5C28.1 74.5 28.4 74.8 28.5 75.2C28.5 75.6 28.2 75.9 27.9 75.9Z" fill="#86B027"/>
<path d="M28.5 76.7C28.4 76.7 28.4 76.6 28.5 76.7L29 76C29 76 29 76 29 76.1L28.5 76.7Z" fill="#86B027"/>
<path d="M35.7 75C35 75.9 33.8 76.3 33.1 75.7C32.4 75.2 32.5 74 33.2 73C33.9 72.1 35.1001 71.7001 35.8001 72.3001C36.4001 72.8001 36.4 74 35.7 75Z" fill="#67922E"/>
<path d="M34.1 73C33.8 73 33.5 72.7 33.4 72.3C33.4 71.9 33.6 71.6 34 71.6C34.3 71.6 34.6 71.9 34.7 72.3C34.7 72.6 34.5 73 34.1 73Z" fill="#67922E"/>
<path d="M36.3 72.4C36.4 72.4 36.4 72.4 36.3 72.4C36.4 72.5 36.4 72.5 36.3 72.4Z" fill="#67922E"/>
<path d="M34.9 77.4C34.9 79.4 33.7 81.1 32.2 81.1C30.7 81.1 29.5 79.4 29.5 77.4C29.5 75.4 30.7 73.7 32.2 73.7C33.7 73.7 34.9 75.3 34.9 77.4Z" fill="#739E2D"/>
<path d="M30.9 73.6C31 73.6 31 73.5 30.9 73.6Z" fill="#739E2D"/>
<path d="M34.5 77.6C34.4 77.6 34.4 77.5 34.5 77.6C34.5 77.5 34.4 77.5 34.5 77.6Z" fill="#739E2D"/>
<path d="M35.9 79.3H31.1V83.1H35.9V79.3Z" fill="#AD3328"/>
<path d="M33.2 79.3H28.4V83.1H33.2V79.3Z" fill="#E94A38"/>
<path d="M73.7 98.6H58.1V107.6H73.7V98.6Z" fill="#92A4C7"/>
<path d="M73.7 98.6H58.1V99.5H73.7V98.6Z" fill="#72809C"/>
<path d="M75 96.3H56.9V98.6H75V96.3Z" fill="#9FB3DA"/>
<path d="M67.6 98.6H52V107.6H67.6V98.6Z" fill="#BBCEEC"/>
<path d="M67.6 98.6H52V99.5H67.6V98.6Z" fill="#A7BAE1"/>
<path d="M68.8 96.3H50.7V98.6H68.8V96.3Z" fill="#BBCEEC"/>
</svg>