<svg xmlns="http://www.w3.org/2000/svg" fill="none" viewBox="0.5 0.2 117.2 55.6">
<path d="M117.7 29.7C117.7 32.2 115.7 34.3 113.1 34.3H77.6001C75.1001 34.3 73 32.3 73 29.7V4.80005C73 2.30005 75.0001 0.199951 77.6001 0.199951H113.1C115.6 0.199951 117.7 2.20005 117.7 4.80005V29.7Z" fill="#CDCCCC"/>
<path d="M108.2 0.300049H77.8999H72.7H29.7C26.3 0.300049 23.5 2.30002 23.5 4.90002V35.2C23.5 37.7 26.3 39.8 29.7 39.8L72.7 34.4H77.8999H108.2C110.7 34.4 112.8 32.4 112.8 29.8V4.90002C112.8 2.30002 110.7 0.300049 108.2 0.300049Z" fill="#F0F0F0"/>
<path d="M39.5 7.09998H36.3999V29H39.5V7.09998Z" fill="#DCDCDC"/>
<path d="M31.8 7.09998H28.8V29H31.8V7.09998Z" fill="#DCDCDC"/>
<path d="M54.6001 7.09998H51.6001V29H54.6001V7.09998Z" fill="#DCDCDC"/>
<path d="M47 7.09998H44V29H47V7.09998Z" fill="#DCDCDC"/>
<path d="M69.7 7.09998H66.7V29H69.7V7.09998Z" fill="#DCDCDC"/>
<path d="M62.3 7.09998H59.2V29H62.3V7.09998Z" fill="#DCDCDC"/>
<path d="M84.8999 7.09998H81.8999V29H84.8999V7.09998Z" fill="#DCDCDC"/>
<path d="M92.5 7.09998H89.5V29H92.5V7.09998Z" fill="#DCDCDC"/>
<path d="M77.3 7.09998H74.3V29H77.3V7.09998Z" fill="#DCDCDC"/>
<path d="M100.1 7.09998H97.1001V29H100.1V7.09998Z" fill="#DCDCDC"/>
<path d="M107.7 7.09998H104.7V29H107.7V7.09998Z" fill="#DCDCDC"/>
<path d="M23.5 22.7H11.8999V55.8H23.5V22.7Z" fill="#CDCCCC"/>
<path d="M98.7 34.3H5.80005V55.8H98.7V34.3Z" fill="#F0F0F0"/>
<path d="M98.7 47.8H5.80005V49.7H98.7V47.8Z" fill="#DCDCDC"/>
<path d="M15.7 34.3H5.1001V55.8H15.7V34.3Z" fill="#DCDCDC"/>
<path d="M98.7 34.3H5.5V37.4H98.7V34.3Z" fill="#DCDCDC"/>
<path d="M106.1 22.7H98.7V55.8H106.1V22.7Z" fill="white"/>
<path d="M117.7 22.7H106.1V55.8H117.7V22.7Z" fill="#DCDCDC"/>
<path d="M117.7 29.2H106.1V55.8H117.7V29.2Z" fill="#CDCCCC"/>
<path d="M11.8999 22.7H4.5V55.8H11.8999V22.7Z" fill="white"/>
<path d="M110.2 22.7H98.7V29.2H110.2V22.7Z" fill="white"/>
<path d="M12 22.7H0.5V29.2H12V22.7Z" fill="white"/>
</svg>