<svg xmlns="http://www.w3.org/2000/svg" fill="none" viewBox="0.8 0.4 96.9 58.8">
<path d="M65.5 28.9H58.8V59.2H65.5V28.9Z" fill="#312019"/>
<path d="M60.7 28.9H54V59.2H60.7V28.9Z" fill="#4E382D"/>
<path d="M15.6 28.9H8.90002V59.2H15.6V28.9Z" fill="#312019"/>
<path d="M10.9 28.9H4.19995V59.2H10.9V28.9Z" fill="#4E382D"/>
<path d="M94.8 28.9H88V59.2H94.8V28.9Z" fill="#1A120E"/>
<path d="M90 28.9H83.3V59.2H90V28.9Z" fill="#312019"/>
<path d="M44.9 28.9H38.2V59.2H44.9V28.9Z" fill="#1A120E"/>
<path d="M40.1 28.9H33.4V59.2H40.1V28.9Z" fill="#312019"/>
<path d="M97.7 25.7H24V28.8H97.7V25.7Z" fill="#CDCCCC"/>
<path d="M97.7 28.9H24V35.8H97.7V28.9Z" fill="#312019"/>
<path d="M67.9 28.9H0.800049V35.8H67.9V28.9Z" fill="#4E382D"/>
<path d="M67.9 25.7H0.800049V28.8H67.9V25.7Z" fill="#F8F7F7"/>
<path d="M46.7 3.19995C46.7 3.39995 46.5 3.59998 46.3 3.59998H45C44.8 3.59998 44.6 3.39995 44.6 3.19995L44.4 0.800049C44.4 0.600049 44.6 0.400024 44.8 0.400024H46.6C46.8 0.400024 47 0.600049 47 0.800049L46.7 3.19995Z" fill="#4C2E1A"/>
<path d="M50 14.9C49.9 12.1 48 10 47.3 8.5C46.7 7.4 46.8 3.99998 46.9 2.59998C47.1 2.59998 47.3 2.39995 47.3 2.19995V1.69995C47.3 1.49995 47.1 1.30005 46.9 1.30005H44.4C44.2 1.30005 44 1.49995 44 1.69995V2.19995C44 2.39995 44.2 2.59998 44.4 2.59998C44.5 3.99998 44.6 7.4 44 8.5C43.2 10 41.4 12.1 41.3 14.9C41.1 19 41.6 24.8 41.6 24.8V24.9C41.7 25.3 42.0999 25.7 42.6999 25.7H48.6999C49.2999 25.7 49.7 25.4 49.8 24.9V24.8C49.8 24.9 50.2 19.1 50 14.9Z" fill="#316470"/>
<path d="M41.5 20.3C41.4 18.2 41.4 16.5 41.5 15.1H49.8001C49.9001 16.5 49.8001 18.3 49.8001 20.3H41.5Z" fill="#F4DDBB"/>
<path d="M45.8 15.7L45.9 15.8C45.6 16.1 45.6 17 45.7 17.1H45.6C45.6 17.1 45.5 16.8 45.5 16.6C45.6 16.2 45.6 15.9 45.8 15.7Z" fill="#7EB034"/>
<path d="M45.6 19.6C45.7 19.6 45.9 19.4 45.9 19.4H46V19.2C46 19.2 46.1 19.3 46.2 19.3V19.1C46.2 19 46.4 19.3 46.4 19.2V18.8C46.4 18.8 46.5 18.9 46.6 18.9C46.7 18.9 46.6 18.6 46.6 18.6H46.7C46.7 18.6 46.5 18.4 46.6 18.4C46.5 18.3 46.2 18.1 46.3 18C46.5 17.9 46.8 18.3 46.8 18.3V18.2C46.9 18.3 47.1 18.4 47.1 18.3L47.2 18.2C47.4 18.2 47.5 18.2 47.5 18.2C47.5 18.1 47.3 17.9 47.3 17.9C47.4 17.9 47.5 17.8 47.5 17.8L47.2 17.6C47.3 17.6 47.4 17.5 47.4 17.5C47.4 17.4 47 17.3 47 17.3C47.1 17.3 47.2 17.2 47.2 17.2C47.2 17.1 46.7 17 46.7 17C46.8 17 47.1 16.7 47.1 16.7C47.1 16.6 47 16.6 46.8 16.6C46.6 16.6 46.4 16.7 46.3 16.7C46.3 16.7 46.5 16.4 46.4 16.3C46.3 16.3 46.1 16.5 46 16.5C46 16.5 46 16.4 45.9 16.4L45.8 16.6L45.7 16.5C45.7 16.5 45.7 16.8 45.6 16.9C45.5 17 45.4 17.1 45.3 17.1L45.6 19.6Z" fill="#76A32F"/>
<path d="M43.5 17.6C43.5 17.6 43.6 17.7 43.7 17.7C43.7 17.7 43.5 17.9 43.5 18C43.5 18.1 43.7 18 43.8 18C43.8 18 43.8 18.1 43.9 18.1C43.9 18.1 44.1 18 44.2 18V18.1C44.3 18.1 44.6 17.7 44.7 17.8C44.8 17.9 44.5 18.1 44.4 18.2L44.3 18.4C44.3 18.4 44.3 18.4 44.4 18.4C44.4 18.4 44.3 18.7 44.4 18.7L44.6 18.6V19C44.6 19 44.8 18.8 44.8 18.9C44.8 19 44.8 19.1 44.8 19.1L45 19V19.2H45.1C45.1 19.2 45.2 19.4 45.4 19.4V16.6C45.4 16.6 45.2 16.5 45.1 16.4C45 16.3 45 16.1 45 16L44.9 16.1C44.8 16.1 44.8 15.9 44.8 15.9C44.8 15.9 44.8 16 44.7 16C44.7 16 44.4 15.8 44.3 15.8L44.4 16.2C44.4 16.2 44.1 16.1 43.9 16.1C43.7 16.1 43.7 16.2 43.6 16.2C43.6 16.3 43.9 16.5 44 16.5C44 16.5 43.5 16.6 43.5 16.7C43.5 16.8 43.6 16.8 43.7 16.8C43.7 16.8 43.3 16.9 43.3 17C43.3 17 43.4 17.1 43.5 17.1C43.8 17.4 43.5 17.5 43.5 17.6Z" fill="#7EB034"/>
<path opacity="0.5" d="M43.7 18C44.4 17.4 44.8 17.2 45.6 16.9C45.6 16.9 45.6 16.9 45.7 16.9V17.5V18C45.3 18.2 45.1 18.6 45.1 18.8C45.1 18.8 45.2 18.6 45.3 18.5C45.4 18.3 45.6 18.2 45.7 18.1V18.7C45.5 18.8 45.4 19 45.3 19.2C45.4 19 45.5 18.9 45.7 18.7C45.8 18.8 46 19 46.1 19.2C46 19 45.9 18.8 45.7 18.7V18.1C46 18.3 46.2 18.6 46.3 18.9C46.2 18.6 45.9 18.3 45.7 18.1V17.6L45.8 17.7C46.1 17.9 46.5 18.3 46.6 18.7C46.5 18.2 46.1 17.9 45.7 17.7L45.6 17.6V17C45.6 17 45.6 17 45.7 17C46 17.1 46.3 17.2 46.5 17.4C46.8 17.6 47.2 17.8 47.5 18.1C47.3 17.9 47 17.7 46.8 17.6C46.9 17.5 47.1 17.5 47.3 17.5C47.3 17.5 47.3 17.5 47.2 17.5C47 17.5 46.8 17.5 46.7 17.6C46.6 17.5 46.5 17.5 46.4 17.4C46.5 17.3 46.8 17.2 47 17.2C46.7 17.2 46.5 17.3 46.3 17.5C46.1 17.4 45.8 17.3 45.5 17.2C46.2 17.2 46.5 17 46.9 16.9C46.9 16.9 47 16.9 47 16.8C47 16.8 46.9 16.8 46.9 16.9C46.6 17 46.2 17.2 45.5 17.2C45.5 17.2 45.5 17.2 45.4 17.2H45.3C44.6 17.2 44.3 17 43.9 16.9C43.9 16.9 43.8 16.9 43.8 16.8C43.8 16.8 43.9 16.8 43.9 16.9C44.2 17 44.6 17.2 45.2 17.2C44.9 17.3 44.7 17.4 44.4 17.5C44.2 17.3 43.9 17.2 43.7 17.2C44 17.2 44.2 17.3 44.3 17.4C44.2 17.5 44.1 17.5 44 17.6C43.9 17.5 43.7 17.5 43.5 17.5C43.5 17.5 43.5 17.5 43.4 17.5C43.6 17.5 43.8 17.5 43.9 17.6C44.1 17.5 43.9 17.7 43.7 18C43.7 17.9 43.7 17.9 43.7 18Z" fill="#7EB034"/>
<path d="M52.5 22C53.1 21.5 54.5 20.8 54.5 19.1C54.5 17.6 53.6 16.7 53.5 16.4H51.9H50.3C50.2 16.7 49.3 17.7 49.3 19.2C49.3 20.9 50.9 21.5 51.5 22C51.6 22.1 51.7 22.2 51.8 22.4C51.9 22.6 51.9 22.9 51.9 22.9V24.5C51.9 24.5 51.9 25 51.9 25.1C51.9 25.2 50.8 25.5 50.8 25.6H52.1H53.4C53.4 25.4 52.3 25.2 52.3 25.1C52.3 25 52.3 24.5 52.3 24.5V22.9C52.3 22.9 52.3 22.6 52.4 22.3C52.3 22.3 52.4 22.1 52.5 22Z" fill="#86CEE3"/>
<path d="M52.5 22C53.1 21.5 54.5 20.8 54.5 19.1C54.5 17.6 53.6 16.7 53.5 16.4H51.9H50.3C50.2 16.7 49.3 17.7 49.3 19.2C49.3 20.9 50.9 21.5 51.5 22C51.6 22.1 51.7 22.2 51.8 22.4C51.9 22.6 51.9 22.9 51.9 22.9V24.5C51.9 24.5 51.9 25 51.9 25.1C51.9 25.2 50.8 25.5 50.8 25.6H52.1H53.4C53.4 25.4 52.3 25.2 52.3 25.1C52.3 25 52.3 24.5 52.3 24.5V22.9C52.3 22.9 52.3 22.6 52.4 22.3C52.3 22.3 52.4 22.1 52.5 22Z" fill="#C7E7F1"/>
<path d="M51 21.6C51.1 21.7 51.5 21.9 52 21.9C52.4 21.9 52.8001 21.6 52.9001 21.6C53.6001 21.1 54.4001 20.5 54.4001 19.1C54.4001 18.6 54.3 18.1 54.1 17.8L49.6 17.9C49.5 18.3 49.3001 18.7 49.4001 19.3C49.4001 20.6 50.3 21.2 51 21.6Z" fill="#FAB720"/>
</svg>