<svg xmlns="http://www.w3.org/2000/svg" fill="none" viewBox="0.9 0.9 116.7 51">
<path d="M12.1 1H41.9L34.7 51.8H12.1V1Z" fill="#E79700"/>
<path d="M22.4 51.8V7.19995C22.4 3.69995 25.2 1 28.6 1C32 1 34.8 3.79995 34.8 7.19995V51.8H22.4Z" fill="#E79700"/>
<path d="M110.1 20L46.6 29.5V1H110.1V20Z" fill="#8F8B87"/>
<path d="M111 29.5L107.5 0.900024H40.9C37.5 0.900024 34.7 3.69998 34.7 7.09998V51.7H47.2V29.4H111V29.5Z" fill="#F8AA1F"/>
<path d="M42.6 5.90002C42.6 4.70002 41.6 3.69995 40.4 3.69995C39.2 3.69995 38.2 4.70002 38.2 5.90002C38.2 7.10002 39.2 8.09998 40.4 8.09998C41.6 8.09998 42.6 7.10002 42.6 5.90002Z" fill="#E79700"/>
<path d="M53.5 5.90002C53.5 4.70002 52.5 3.69995 51.3 3.69995C50.1 3.69995 49.1 4.70002 49.1 5.90002C49.1 7.10002 50.1 8.09998 51.3 8.09998C52.5 8.09998 53.5 7.10002 53.5 5.90002Z" fill="#E79700"/>
<path d="M64.3 5.90002C64.3 4.70002 63.3 3.69995 62.1 3.69995C60.9 3.69995 59.9 4.70002 59.9 5.90002C59.9 7.10002 60.9 8.09998 62.1 8.09998C63.4 8.09998 64.3 7.10002 64.3 5.90002Z" fill="#E79700"/>
<path d="M75.2 5.90002C75.2 4.70002 74.2 3.69995 73 3.69995C71.8 3.69995 70.8 4.70002 70.8 5.90002C70.8 7.10002 71.8 8.09998 73 8.09998C74.2 8.09998 75.2 7.10002 75.2 5.90002Z" fill="#E79700"/>
<path d="M86.1 5.90002C86.1 4.70002 85.1 3.69995 83.9 3.69995C82.7 3.69995 81.7 4.70002 81.7 5.90002C81.7 7.10002 82.7 8.09998 83.9 8.09998C85.1 8.09998 86.1 7.10002 86.1 5.90002Z" fill="#E79700"/>
<path d="M97 5.90002C97 4.70002 96 3.69995 94.8 3.69995C93.6 3.69995 92.6 4.70002 92.6 5.90002C92.6 7.10002 93.6 8.09998 94.8 8.09998C96 8.09998 97 7.10002 97 5.90002Z" fill="#E79700"/>
<path d="M42.6 19C42.6 17.8 41.6 16.8 40.4 16.8C39.2 16.8 38.2 17.8 38.2 19C38.2 20.2 39.2 21.2 40.4 21.2C41.6 21.2 42.6 20.2 42.6 19Z" fill="#E79700"/>
<path d="M53.5 19C53.5 17.8 52.5 16.8 51.3 16.8C50.1 16.8 49.1 17.8 49.1 19C49.1 20.2 50.1 21.2 51.3 21.2C52.5 21.2 53.5 20.2 53.5 19Z" fill="#E79700"/>
<path d="M64.3 19C64.3 17.8 63.3 16.8 62.1 16.8C60.9 16.8 59.9 17.8 59.9 19C59.9 20.2 60.9 21.2 62.1 21.2C63.4 21.2 64.3 20.2 64.3 19Z" fill="#E79700"/>
<path d="M75.2 19C75.2 17.8 74.2 16.8 73 16.8C71.8 16.8 70.8 17.8 70.8 19C70.8 20.2 71.8 21.2 73 21.2C74.2 21.2 75.2 20.2 75.2 19Z" fill="#E79700"/>
<path d="M86.1 19C86.1 17.8 85.1 16.8 83.9 16.8C82.7 16.8 81.7 17.8 81.7 19C81.7 20.2 82.7 21.2 83.9 21.2C85.1 21.2 86.1 20.2 86.1 19Z" fill="#E79700"/>
<path d="M97 19C97 17.8 96 16.8 94.8 16.8C93.6 16.8 92.6 17.8 92.6 19C92.6 20.2 93.6 21.2 94.8 21.2C96 21.2 97 20.2 97 19Z" fill="#E79700"/>
<path d="M48 12.5C48 11.3 47 10.3 45.8 10.3C44.6 10.3 43.6 11.3 43.6 12.5C43.6 13.7 44.6 14.7 45.8 14.7C47 14.7 48 13.7 48 12.5Z" fill="#E79700"/>
<path d="M58.9 12.5C58.9 11.3 57.9 10.3 56.7 10.3C55.5 10.3 54.5 11.3 54.5 12.5C54.5 13.7 55.5 14.7 56.7 14.7C57.9 14.7 58.9 13.7 58.9 12.5Z" fill="#E79700"/>
<path d="M69.8 12.5C69.8 11.3 68.8 10.3 67.6 10.3C66.4 10.3 65.4 11.3 65.4 12.5C65.4 13.7 66.4 14.7 67.6 14.7C68.8 14.7 69.8 13.7 69.8 12.5Z" fill="#E79700"/>
<path d="M80.7 12.5C80.7 11.3 79.7 10.3 78.5 10.3C77.3 10.3 76.3 11.3 76.3 12.5C76.3 13.7 77.3 14.7 78.5 14.7C79.7 14.7 80.7 13.7 80.7 12.5Z" fill="#E79700"/>
<path d="M91.5 12.5C91.5 11.3 90.5 10.3 89.3 10.3C88.1 10.3 87.1 11.3 87.1 12.5C87.1 13.7 88.1 14.7 89.3 14.7C90.6 14.7 91.5 13.7 91.5 12.5Z" fill="#E79700"/>
<path d="M102.4 12.5C102.4 11.3 101.4 10.3 100.2 10.3C99 10.3 98 11.3 98 12.5C98 13.7 99 14.7 100.2 14.7C101.5 14.7 102.4 13.7 102.4 12.5Z" fill="#E79700"/>
<path d="M48 25.6C48 24.4 47 23.4 45.8 23.4C44.6 23.4 43.6 24.4 43.6 25.6C43.6 26.8 44.6 27.8 45.8 27.8C47 27.8 48 26.8 48 25.6Z" fill="#E79700"/>
<path d="M58.9 25.6C58.9 24.4 57.9 23.4 56.7 23.4C55.5 23.4 54.5 24.4 54.5 25.6C54.5 26.8 55.5 27.8 56.7 27.8C57.9 27.8 58.9 26.8 58.9 25.6Z" fill="#E79700"/>
<path d="M69.8 25.6C69.8 24.4 68.8 23.4 67.6 23.4C66.4 23.4 65.4 24.4 65.4 25.6C65.4 26.8 66.4 27.8 67.6 27.8C68.8 27.8 69.8 26.8 69.8 25.6Z" fill="#E79700"/>
<path d="M80.7 25.6C80.7 24.4 79.7 23.4 78.5 23.4C77.3 23.4 76.3 24.4 76.3 25.6C76.3 26.8 77.3 27.8 78.5 27.8C79.7 27.8 80.7 26.8 80.7 25.6Z" fill="#E79700"/>
<path d="M91.5 25.6C91.5 24.4 90.5 23.4 89.3 23.4C88.1 23.4 87.1 24.4 87.1 25.6C87.1 26.8 88.1 27.8 89.3 27.8C90.6 27.8 91.5 26.8 91.5 25.6Z" fill="#E79700"/>
<path d="M102.4 25.6C102.4 24.4 101.4 23.4 100.2 23.4C99 23.4 98 24.4 98 25.6C98 26.8 99 27.8 100.2 27.8C101.5 27.8 102.4 26.8 102.4 25.6Z" fill="#E79700"/>
<path d="M85.3 29.5H10.1V39H85.3V29.5Z" fill="#FAB71D"/>
<path d="M85.3 42.3H10.1V51.8H85.3V42.3Z" fill="#FAB71D"/>
<path d="M85.2 39.1H7.90002V42.3H85.2V39.1Z" fill="#E79700"/>
<path d="M85.2 44.5H7.90002V45.1H85.2V44.5Z" fill="#E79700"/>
<path d="M105.2 51.8V7.19995C105.2 3.69995 108 1 111.4 1C114.9 1 117.6 3.79995 117.6 7.19995V51.8H105.2Z" fill="#E79700"/>
<path d="M111.5 1H94.9V51.9H111.5V1Z" fill="#E79700"/>
<path d="M85.2 7.80005C85.2 11.6 88.3 14.7 92.1 14.7H97.7C101.5 14.7 104.6 11.6 104.6 7.80005C104.6 4.00005 101.5 0.900024 97.7 0.900024H92.1C88.3 1.00002 85.2 4.00005 85.2 7.80005Z" fill="#FEC905"/>
<path d="M85.2 51.8V7.19995C85.2 3.69995 88 1 91.4 1C94.9 1 97.6 3.79995 97.6 7.19995V51.8H85.2Z" fill="#FEC905"/>
<path d="M20.3 7.80005C20.3 11.6 17.2 14.7 13.4 14.7H7.80005C4.00005 14.7 0.900024 11.6 0.900024 7.80005C0.900024 4.00005 4.00005 0.900024 7.80005 0.900024H13.4C17.3 1.00002 20.3 4.00005 20.3 7.80005Z" fill="#FEC905"/>
<path d="M20.3 51.8V7.19995C20.3 3.69995 17.5 1 14.1 1C10.6 1 7.90002 3.79995 7.90002 7.19995V51.8H20.3Z" fill="#FEC905"/>
<path d="M17.2 7.80005C17.2 10.4 15.1 12.5 12.5 12.5H8.69995C6.09995 12.5 4 10.4 4 7.80005C4 5.20005 6.09995 3.09998 8.69995 3.09998H12.5C15.1 3.19998 17.2 5.30005 17.2 7.80005Z" fill="#F8AA1F"/>
<path d="M101.5 7.80005C101.5 10.4 99.4 12.5 96.8 12.5H93C90.4 12.5 88.3 10.4 88.3 7.80005C88.3 5.20005 90.4 3.09998 93 3.09998H96.8C99.4 3.19998 101.5 5.30005 101.5 7.80005Z" fill="#F8AA1F"/>
</svg>