<svg xmlns="http://www.w3.org/2000/svg" fill="none" viewBox="0.7 0.4 69.4 53.8">
<path d="M8.5 49.7H3.6001V54.2H8.5V49.7Z" fill="#210E0A"/>
<path d="M6.69995 49.7H1.80005V54.2H6.69995V49.7Z" fill="#441D0F"/>
<path d="M50.7 49.7H45.8V54.2H50.7V49.7Z" fill="#210E0A"/>
<path d="M48.8999 49.7H44V54.2H48.8999V49.7Z" fill="#441D0F"/>
<path d="M26.8999 49.7H22V54.2H26.8999V49.7Z" fill="#210E0A"/>
<path d="M25.1001 49.7H20.2V54.2H25.1001V49.7Z" fill="#3D150E"/>
<path d="M69.2 49.7H64.3V54.2H69.2V49.7Z" fill="#210E0A"/>
<path d="M67.3999 49.7H62.5V54.2H67.3999V49.7Z" fill="#3D150E"/>
<path d="M28.1001 22.1H7.6001V51.2H28.1001V22.1Z" fill="#E79700"/>
<path d="M28.1001 19.5H7.6001V22.1H28.1001V19.5Z" fill="#210E0A"/>
<path d="M28.2 35.6V3.59998C28.2 1.79998 29.5999 0.400024 31.3999 0.400024H66.8999C68.6999 0.400024 70.1001 1.79998 70.1001 3.59998V35.6H28.2Z" fill="#E79700"/>
<path d="M22.2 35.6V3.59998C22.2 1.79998 23.5999 0.400024 25.3999 0.400024H60.8999C62.6999 0.400024 64.1001 1.79998 64.1001 3.59998V35.6H22.2Z" fill="#F8AA1F"/>
<path d="M23.8 5.59998C23.8 3.89998 25.2 2.40002 27 2.40002H62.5C63.1 2.40002 63.6 2.50005 64 2.80005C63.7 1.40005 62.3999 0.400024 60.8999 0.400024H25.3999C23.5999 0.400024 22.2 1.79998 22.2 3.59998V35.6H23.7V5.59998H23.8Z" fill="#FAB73B"/>
<path d="M59.8999 31.1C59.8999 33.6 57.9 35.5 55.5 35.5H33.8999C31.3999 35.5 29.5 33.5 29.5 31.1V10.2C29.5 7.69995 31.4999 5.80005 33.8999 5.80005H55.5C58 5.80005 59.8999 7.79995 59.8999 10.2V31.1Z" fill="#A1B41D"/>
<path d="M55.1001 31.1C55.1001 33.6 53.1 35.5 50.7 35.5H29.1001C26.6001 35.5 24.7 33.5 24.7 31.1V10.2C24.7 7.69995 26.7001 5.80005 29.1001 5.80005H50.7C53.2 5.80005 55.1001 7.79995 55.1001 10.2V31.1Z" fill="#B4CE4B"/>
<path d="M43.1001 35.6H1.30005V42.7H43.1001V35.6Z" fill="#FAB71D"/>
<path d="M43.1001 40.5H1.30005V47.6H43.1001V40.5Z" fill="#E79700"/>
<path d="M43.1001 44.1H1.30005V51.2H43.1001V44.1Z" fill="#FAB71D"/>
<path d="M10 37.6H43.1001V35.6H1.30005V51.2H10V37.6Z" fill="#C78210"/>
<path d="M70 22.1H49.5V51.2H70V22.1Z" fill="#E79700"/>
<path d="M70 19.5H49.5V22.1H70V19.5Z" fill="#210E0A"/>
<path d="M7.69995 22.1H1.30005V51.2H7.69995V22.1Z" fill="#FEC905"/>
<path d="M8.19995 19.5H0.699951V22.1H8.19995V19.5Z" fill="#3D150E"/>
<path d="M49.5 22.1H43.1001V51.2H49.5V22.1Z" fill="#FEC905"/>
<path d="M50 19.5H42.5V22.1H50V19.5Z" fill="#3D150E"/>
</svg>