<svg width="52" height="53" viewBox="0 0 52 53" fill="none" xmlns="http://www.w3.org/2000/svg">
<path d="M50.972 25.5512C50.6151 19.6616 48.2057 13.7721 43.7439 9.31027C39.1037 4.75925 33.3033 2.34988 27.4138 1.99294C26.2537 1.90371 25.0044 1.90371 23.8443 2.08218C18.1333 2.61759 12.6006 4.93772 8.31733 9.31027C4.03401 13.5936 1.62465 19.1262 1.08924 24.8373C1 25.9974 1 27.2466 1 28.4067C1.35694 34.2963 3.76631 40.1858 8.22809 44.6476C12.6899 49.1094 18.5794 51.608 24.469 51.8757C25.6291 51.9649 26.8784 51.9649 28.0384 51.7865C33.6603 51.3403 39.1929 48.9309 43.5654 44.5584C47.8488 40.2751 50.2581 34.7425 50.7935 29.0314C50.972 27.9605 50.972 26.7112 50.972 25.5512Z" fill="white"/>
<path d="M51.472 25.5512V25.536L51.4711 25.5209C51.1073 19.5183 48.6517 13.511 44.0975 8.9567L44.094 8.9533C39.3668 4.31698 33.4536 1.85902 27.4481 1.4941C26.2698 1.40369 24.9871 1.40211 23.783 1.58574C17.9739 2.13342 12.3333 4.4971 7.96196 8.95853C3.59235 13.329 1.13694 18.9717 0.591419 24.7906L0.591349 24.7906L0.590708 24.7989C0.499998 25.9782 0.499999 27.2433 0.5 28.3968V28.4067V28.4219L0.500916 28.437C0.864711 34.4396 3.32031 40.4469 7.87454 45.0012C12.4232 49.5499 18.4278 52.0997 24.4385 52.3748C25.6145 52.4649 26.8945 52.4663 28.0962 52.2835C33.8281 51.8243 39.4655 49.3654 43.919 44.9119C48.2853 40.5456 50.7408 34.9091 51.2897 29.0957C51.472 27.988 51.472 26.7125 51.472 25.5752V25.5512ZM40.8025 12.1624C44.4049 15.7648 46.3978 20.3341 46.8561 25.102C42.1741 24.7136 37.5273 22.6431 33.9246 19.0404C30.3245 15.4402 28.3318 10.8744 27.8718 6.10966C32.6366 6.56963 37.2024 8.56229 40.8025 12.1624ZM11.1695 41.7955C7.56712 38.1931 5.57421 33.6238 5.11587 28.8559C9.79787 29.2443 14.4447 31.3148 18.0474 34.9175C21.6475 38.5177 23.6402 43.0835 24.1002 47.8482C19.3355 47.3883 14.7696 45.3956 11.1695 41.7955ZM40.8003 41.7977C37.4412 45.1558 33.114 47.2177 28.679 47.7537C28.208 41.9261 25.7645 36.134 21.3424 31.7118C16.8378 27.2072 11.129 24.7574 5.29994 24.3675C5.82999 19.8554 7.81132 15.6055 11.1716 12.1603C14.5307 8.80215 18.858 6.74024 23.293 6.20418C23.764 12.0318 26.2075 17.8239 30.6296 22.2461C35.1342 26.7506 40.843 29.2005 46.6721 29.5904C46.142 34.1025 44.1607 38.3524 40.8003 41.7977Z" fill="black" stroke="white"/>
<path d="M27.3984 2.19238L27.4017 2.19257C33.244 2.54665 38.9982 4.93632 43.6031 9.45233C48.026 13.8755 50.4165 19.7152 50.772 25.5572C50.772 26.7197 50.7712 27.949 50.5963 28.9985L50.5951 29.0056L50.5944 29.0127C50.0631 34.6803 47.6724 40.1686 43.424 44.417C39.0857 48.7552 33.5979 51.1446 28.0226 51.5871L28.0153 51.5877L28.008 51.5888C26.8678 51.7642 25.6348 51.7648 24.4843 51.6763L24.4843 51.6762L24.4781 51.6759C18.638 51.4105 12.7958 48.9324 8.36952 44.5062C3.94623 40.0829 1.55548 34.243 1.2 28.4006C1.2 27.2413 1.20026 26.0029 1.28852 24.8543C1.82017 19.1873 4.21082 13.6996 8.45875 9.45169L8.45876 9.4517L8.4602 9.45023C12.7068 5.11521 18.1935 2.81282 23.863 2.2813L23.863 2.28165L23.8748 2.27985C25.015 2.10443 26.248 2.10386 27.3984 2.19238ZM47.3919 25.8401L47.6179 25.8522L47.6021 25.6264C47.242 20.495 45.1709 15.5408 41.2975 11.6674C37.4241 7.79408 32.4699 5.72296 27.3385 5.36286L27.1089 5.34675L27.125 5.57637C27.4851 10.7078 29.5562 15.662 33.4296 19.5353C37.3017 23.4074 42.3455 25.5698 47.3919 25.8401ZM4.58013 28.1178L4.35407 28.1057L4.36992 28.3315C4.73002 33.4629 6.80114 38.4171 10.6745 42.2904C14.5479 46.1638 19.5021 48.2349 24.6335 48.595L24.8631 48.6111L24.847 48.3815C24.4869 43.2501 22.4158 38.2959 18.5424 34.4226C14.6703 30.5505 9.6265 28.3881 4.58013 28.1178ZM41.2975 42.2904L41.2992 42.2887C44.9007 38.5972 46.9728 34.0034 47.4233 29.139L47.4426 28.9303L47.2332 28.9208C41.3926 28.6553 35.6397 26.2662 31.1246 21.7511C26.6998 17.3263 24.3089 11.4838 23.9547 5.63951L23.9422 5.43306L23.7363 5.45249C18.9601 5.90308 14.2766 8.06537 10.6745 11.6674L10.6728 11.6692C7.07135 15.3607 4.99916 19.9545 4.54875 24.8188L4.52943 25.0276L4.73882 25.0371C10.5794 25.3026 16.3323 27.6917 20.8474 32.2068C25.2722 36.6316 27.6631 42.4741 28.0173 48.3184L28.0298 48.5248L28.2357 48.5054C33.0119 48.0548 37.6954 45.8925 41.2975 42.2904Z" fill="black" stroke="white" stroke-width="0.4"/>
</svg>
