<svg width="50" height="51" viewBox="0 0 50 51" fill="none" xmlns="http://www.w3.org/2000/svg">
<path d="M28.2971 1.49209C25.2099 1.0614 21.9866 1.22942 18.7884 2.08639C5.9955 5.51423 -1.60541 18.6825 1.82244 31.4754C5.25028 44.2683 18.4185 51.8692 31.2114 48.4413C44.0043 45.0135 51.6052 31.8452 48.1774 19.0523C45.6065 9.45768 37.5588 2.78415 28.2971 1.49209Z" fill="white"/>
<path d="M28.3662 0.996887C25.2138 0.557118 21.9231 0.728817 18.659 1.60342C5.5993 5.10275 -2.15983 18.5452 1.33947 31.6048C4.8388 44.6645 18.2813 52.4236 31.3408 48.9243C44.4005 45.425 52.1596 31.9825 48.6603 18.9229C46.0356 9.12729 37.8195 2.31568 28.3662 0.996887ZM28.0226 3.51307C36.4958 4.69039 43.8483 10.7938 46.203 19.5818C49.3428 31.2997 42.3999 43.3271 30.682 46.4669C18.964 49.6067 6.93665 42.6639 3.79685 30.946C0.657023 19.228 7.5999 7.2006 19.3178 4.0608C22.2483 3.27558 25.1992 3.12077 28.0226 3.51307Z" fill="black" stroke="white"/>
<path d="M47.2288 18.5037L2.3653 30.5268L2.7653 32.0239L47.6345 20.0009L47.2288 18.5037Z" fill="black"/>
<path d="M19.4112 2.18353L18.5655 3.48069C26.706 8.80356 31.7361 15.268 33.7086 22.6295C35.6811 29.9911 34.6034 38.3018 30.3085 47.3613L31.7086 48.0242C36.118 38.7231 37.2904 30.0095 35.2058 22.2295C33.1211 14.4495 27.7889 7.66151 19.4112 2.18353Z" fill="black"/>
<path d="M37.6515 6.21214C36.8331 8.75243 34.8657 12.4034 32.0686 14.6523C29.2714 16.9012 25.6676 17.8051 21.2855 15.2751C16.4446 12.4802 12.4984 11.6563 9.74252 11.5551C6.9866 11.4539 5.34818 12.1037 5.34818 12.1037L5.93104 13.538C5.93104 13.538 7.18035 13.0117 9.68538 13.1037C12.1904 13.1956 15.8743 13.9335 20.5141 16.6123C25.5821 19.5383 29.8924 18.3887 33.04 15.858C36.1876 13.3273 38.2219 9.49207 39.1258 6.68644L37.6515 6.21214Z" fill="black"/>
<path d="M36.6115 29.1896C32.6202 28.5718 28.3154 29.7159 25.3827 34.7954C22.7039 39.4353 19.8889 41.9205 17.7655 43.2527C15.6421 44.5848 14.2912 44.7498 14.2912 44.7498L13.5254 44.8584L13.7369 46.3899L14.5026 46.287C14.5026 46.287 16.2465 46.0268 18.5827 44.5612C20.9188 43.0957 23.9307 40.4135 26.7256 35.5725C29.2656 31.1731 32.8303 30.172 36.3772 30.7211C39.924 31.2701 43.4498 33.4447 45.4287 35.2354L46.0059 35.7554L47.0459 34.6068L46.4688 34.0868C44.2831 32.109 40.6027 29.8074 36.6115 29.1896Z" fill="black"/>
</svg>
