<svg width="78" height="73" viewBox="0 0 78 73" fill="none" xmlns="http://www.w3.org/2000/svg">
<path d="M18.3402 19.7412C20.2361 20.0446 22.8146 20.0446 25.393 19.9687C27.5923 19.8929 29.9432 19.8171 31.915 20.0446C33.2801 20.1962 34.1901 19.1345 34.4176 17.997C34.6451 16.5561 33.9626 14.8118 31.1566 14.2051C29.6399 13.9018 27.289 13.9776 24.7105 14.0535C24.5588 14.0535 24.4072 14.0535 24.2555 14.0535C23.6488 14.0535 23.1938 13.5985 23.2696 12.9918C23.3455 12.5367 23.7246 12.1576 24.2555 12.1576C24.4072 12.1576 24.5588 12.1576 24.6347 12.1576C26.6064 12.0817 28.4265 12.0059 29.8674 12.0817C30.4741 12.1576 31.005 12.2334 31.5358 12.3092C33.6592 12.7642 35.0243 13.9018 35.7068 15.1152C37.8303 15.646 39.7262 16.2527 40.8637 16.7836C44.2006 18.1487 46.5515 13.9776 43.5939 11.7784C40.7121 9.5791 30.2466 2.60212 24.7105 2.60212C22.2079 2.60212 18.2644 3.20882 14.5484 4.27053C13.9417 4.4222 13.335 4.27053 12.88 3.89135L10.9841 2.29877C10.3774 1.84375 9.54316 1.91959 9.0123 2.45045L3.32455 9.27576C2.79369 9.88245 2.94536 10.7167 3.55206 11.2475C4.76545 12.2334 6.7372 13.7501 8.48145 15.0393C12.1216 17.6936 16.2168 19.4379 18.3402 19.7412Z" fill="white"/>
<path d="M24.4072 36.5011C25.4962 36.5011 26.379 35.6184 26.379 34.5294C26.379 33.4404 25.4962 32.5576 24.4072 32.5576C23.3182 32.5576 22.4354 33.4404 22.4354 34.5294C22.4354 35.6184 23.3182 36.5011 24.4072 36.5011Z" fill="white"/>
<path d="M38.5128 36.5011C39.6017 36.5011 40.4845 35.6184 40.4845 34.5294C40.4845 33.4404 39.6017 32.5576 38.5128 32.5576C37.4238 32.5576 36.541 33.4404 36.541 34.5294C36.541 35.6184 37.4238 36.5011 38.5128 36.5011Z" fill="white"/>
<path d="M31.46 36.5011C32.5489 36.5011 33.4317 35.6184 33.4317 34.5294C33.4317 33.4404 32.5489 32.5576 31.46 32.5576C30.371 32.5576 29.4882 33.4404 29.4882 34.5294C29.4882 35.6184 30.371 36.5011 31.46 36.5011Z" fill="white"/>
<path d="M31.46 26.7941C32.5489 26.7941 33.4317 25.9113 33.4317 24.8223C33.4317 23.7333 32.5489 22.8505 31.46 22.8505C30.371 22.8505 29.4882 23.7333 29.4882 24.8223C29.4882 25.9113 30.371 26.7941 31.46 26.7941Z" fill="white"/>
<path d="M35.0243 31.6476C36.1133 31.6476 36.9961 30.7648 36.9961 29.6758C36.9961 28.5869 36.1133 27.7041 35.0243 27.7041C33.9354 27.7041 33.0526 28.5869 33.0526 29.6758C33.0526 30.7648 33.9354 31.6476 35.0243 31.6476Z" fill="white"/>
<path d="M27.9715 31.6476C29.0604 31.6476 29.9432 30.7648 29.9432 29.6758C29.9432 28.5869 29.0604 27.7041 27.9715 27.7041C26.8825 27.7041 25.9997 28.5869 25.9997 29.6758C25.9997 30.7648 26.8825 31.6476 27.9715 31.6476Z" fill="white"/>
<path d="M31.1566 51.5168C19.4778 51.5168 12.5766 49.5451 10.984 48.2559C12.5008 47.0425 19.4019 45.0707 31.1566 45.0707C38.437 45.0707 43.8972 45.8291 47.3099 46.7391L49.3575 43.2506C42.6838 41.2789 32.825 41.203 31.1566 41.203C28.654 41.203 6.81302 41.3547 6.81302 48.4075C6.81302 49.7726 7.64722 50.8343 9.01229 51.7444C10.074 60.0864 15.4584 66.3808 31.1566 66.3808C32.9009 66.3808 34.4934 66.305 36.0102 66.1533C36.086 66.0017 36.086 65.9258 36.1619 65.7742L45.1106 50.3035C41.7738 50.986 37.0719 51.5168 31.1566 51.5168Z" fill="white"/>
<path d="M74.6111 38.8521C74.3078 38.6246 73.9286 38.473 73.5494 38.5488L68.7717 39.2313L71.7293 34.6811C72.1085 34.1503 71.9568 33.4677 71.5018 33.0127L71.3501 32.861C70.8951 32.406 70.1367 32.406 69.6817 32.7852L65.5107 36.1979L65.6624 31.3443C65.6624 30.9651 65.5107 30.5859 65.2073 30.2826C64.6765 29.7517 63.8423 29.9034 63.3873 30.3584C63.2356 30.5101 63.1598 30.6618 63.0839 30.8134L61.2638 36.8045C61.4155 36.8804 61.4913 36.9562 61.643 37.1079L68.2408 43.0232C68.3167 43.099 68.4683 43.2507 68.5442 43.3265L74.3078 40.8997C75.142 40.5964 75.3695 39.4588 74.6111 38.8521Z" fill="white"/>
<path d="M60.0504 38.9279C58.2304 37.2595 55.2727 37.7145 53.9835 39.838L53.0735 41.4305L59.2162 46.8908C59.5954 47.1941 59.5954 47.8008 59.2921 48.18L58.9129 48.635C58.6096 49.0142 58.0029 49.0142 57.6237 48.7109L51.8601 43.554L44.0489 56.8254L47.5374 60.0106C47.9166 60.3139 47.9166 60.9206 47.6132 61.2998L47.234 61.7548C46.9307 62.134 46.324 62.134 45.9448 61.8306L42.8355 59.0247L38.2095 66.9117C37.0719 68.8076 39.4229 70.9311 41.1671 69.566L55.6519 58.873L51.5567 55.157C51.1776 54.8537 51.1776 54.247 51.4809 53.8678L51.9359 53.4128C52.2393 53.0336 52.846 53.0336 53.2251 53.3369L57.6995 57.3563L66.3449 50.986C68.3925 49.4692 68.4683 46.5874 66.6483 44.919L60.0504 38.9279Z" fill="white"/>
<mask id="path-11-outside-1_2_257" maskUnits="userSpaceOnUse" x="0" y="-1" width="78" height="74" fill="black">
<rect fill="white" y="-1" width="78" height="74"/>
<path fill-rule="evenodd" clip-rule="evenodd" d="M25.393 19.9687C22.8146 20.0446 20.2361 20.0446 18.3402 19.7412C16.2168 19.4379 12.1216 17.6936 8.48145 15.0393C6.7372 13.7501 4.76545 12.2334 3.55206 11.2475C2.94536 10.7167 2.79369 9.88245 3.32455 9.27576L9.0123 2.45045C9.54316 1.91959 10.3774 1.84375 10.9841 2.29877L12.88 3.89135C13.335 4.27053 13.9417 4.4222 14.5484 4.27053C18.2644 3.20882 22.2079 2.60212 24.7105 2.60212C30.2466 2.60212 40.7121 9.5791 43.5939 11.7784C46.5515 13.9776 44.2006 18.1487 40.8637 16.7836C39.7262 16.2527 37.8303 15.646 35.7068 15.1152C35.0243 13.9018 33.6592 12.7642 31.5358 12.3092C31.005 12.2334 30.4741 12.1576 29.8674 12.0817C28.4855 12.009 26.7549 12.0758 24.8761 12.1482L24.6347 12.1576H24.2555C23.7246 12.1576 23.3455 12.5367 23.2696 12.9918C23.1938 13.5985 23.6488 14.0535 24.2555 14.0535H24.7105L24.8538 14.0493C27.3759 13.975 29.668 13.9074 31.1566 14.2051C33.9626 14.8118 34.6451 16.5561 34.4176 17.997C34.1901 19.1345 33.2801 20.1962 31.915 20.0446C29.9432 19.8171 27.5923 19.8929 25.393 19.9687ZM26.379 34.5294C26.379 35.6184 25.4962 36.5011 24.4072 36.5011C23.3182 36.5011 22.4354 35.6184 22.4354 34.5294C22.4354 33.4404 23.3182 32.5576 24.4072 32.5576C25.4962 32.5576 26.379 33.4404 26.379 34.5294ZM38.5128 36.5011C39.6017 36.5011 40.4845 35.6184 40.4845 34.5294C40.4845 33.4404 39.6017 32.5576 38.5128 32.5576C37.4238 32.5576 36.541 33.4404 36.541 34.5294C36.541 35.6184 37.4238 36.5011 38.5128 36.5011ZM33.4317 34.5294C33.4317 35.6184 32.5489 36.5011 31.46 36.5011C30.371 36.5011 29.4882 35.6184 29.4882 34.5294C29.4882 33.4404 30.371 32.5576 31.46 32.5576C32.5489 32.5576 33.4317 33.4404 33.4317 34.5294ZM31.46 26.7941C32.5489 26.7941 33.4317 25.9113 33.4317 24.8223C33.4317 23.7333 32.5489 22.8505 31.46 22.8505C30.371 22.8505 29.4882 23.7333 29.4882 24.8223C29.4882 25.9113 30.371 26.7941 31.46 26.7941ZM36.9961 29.6758C36.9961 30.7648 36.1133 31.6476 35.0243 31.6476C33.9354 31.6476 33.0526 30.7648 33.0526 29.6758C33.0526 28.5869 33.9354 27.7041 35.0243 27.7041C36.1133 27.7041 36.9961 28.5869 36.9961 29.6758ZM27.9715 31.6476C29.0604 31.6476 29.9432 30.7648 29.9432 29.6758C29.9432 28.5869 29.0604 27.7041 27.9715 27.7041C26.8825 27.7041 25.9997 28.5869 25.9997 29.6758C25.9997 30.7648 26.8825 31.6476 27.9715 31.6476ZM10.984 48.2559C12.5766 49.5451 19.4778 51.5168 31.1566 51.5168C37.0719 51.5168 41.7738 50.986 45.1106 50.3035L36.1619 65.7742C36.1239 65.85 36.105 65.9069 36.086 65.9637C36.0671 66.0206 36.0481 66.0775 36.0102 66.1533C34.4934 66.305 32.9009 66.3808 31.1566 66.3808C15.4584 66.3808 10.074 60.0864 9.01228 51.7444C7.64722 50.8343 6.81302 49.7726 6.81302 48.4075C6.81302 41.3547 28.654 41.203 31.1566 41.203C32.825 41.203 42.6838 41.2789 49.3575 43.2506L47.3099 46.7391C43.8972 45.8291 38.437 45.0707 31.1566 45.0707C19.4019 45.0707 12.5008 47.0425 10.984 48.2559ZM74.6111 38.8521C74.3078 38.6246 73.9286 38.473 73.5494 38.5488L68.7717 39.2313L71.7293 34.6811C72.1085 34.1503 71.9568 33.4677 71.5018 33.0127L71.3501 32.861C70.8951 32.406 70.1367 32.406 69.6817 32.7852L65.5107 36.1979L65.6624 31.3443C65.6624 30.9651 65.5107 30.5859 65.2073 30.2826C64.6765 29.7517 63.8423 29.9034 63.3873 30.3584C63.2356 30.5101 63.1598 30.6618 63.0839 30.8134L61.2638 36.8045C61.4155 36.8804 61.4913 36.9562 61.643 37.1079L68.2408 43.0232L68.5442 43.3265L74.3078 40.8997C75.142 40.5964 75.3695 39.4588 74.6111 38.8521ZM53.9835 39.838C55.2727 37.7145 58.2304 37.2595 60.0504 38.9279L66.6483 44.919C68.4683 46.5874 68.3925 49.4692 66.3449 50.986L57.6995 57.3563L53.2251 53.3369C52.846 53.0336 52.2393 53.0336 51.9359 53.4128L51.4809 53.8678C51.1776 54.247 51.1776 54.8537 51.5567 55.157L55.6519 58.873L41.1671 69.566C39.4229 70.9311 37.0719 68.8076 38.2095 66.9117L42.8355 59.0247L45.9448 61.8306C46.324 62.134 46.9307 62.134 47.234 61.7548L47.6132 61.2998C47.9166 60.9206 47.9166 60.3139 47.5374 60.0106L44.0489 56.8254L51.8601 43.554L57.6237 48.7109C58.0029 49.0142 58.6096 49.0142 58.9129 48.635L59.2921 48.18C59.5954 47.8008 59.5954 47.1941 59.2162 46.8908L53.0735 41.4305L53.9835 39.838Z"/>
</mask>
<path d="M18.3402 19.7412L18.6562 17.7663L18.6397 17.7637L18.6231 17.7613L18.3402 19.7412ZM25.393 19.9687L25.4518 21.9679L25.462 21.9675L25.393 19.9687ZM8.48145 15.0393L7.29264 16.6477L7.3031 16.6554L8.48145 15.0393ZM3.55206 11.2475L2.23505 12.7527L2.26253 12.7767L2.29087 12.7997L3.55206 11.2475ZM3.32455 9.27576L4.8297 10.5928L4.84557 10.5746L4.86099 10.5561L3.32455 9.27576ZM9.0123 2.45045L7.59809 1.03624L7.53394 1.10039L7.47586 1.17008L9.0123 2.45045ZM10.9841 2.29877L12.2704 0.767365L12.2282 0.731878L12.1841 0.698775L10.9841 2.29877ZM12.88 3.89135L11.5936 5.42277L11.5996 5.42779L12.88 3.89135ZM14.5484 4.27053L15.0335 6.21082L15.0658 6.20273L15.0978 6.19358L14.5484 4.27053ZM43.5939 11.7784L42.3805 13.3683L42.3904 13.3758L42.4005 13.3833L43.5939 11.7784ZM40.8637 16.7836L40.018 18.596L40.0618 18.6164L40.1065 18.6347L40.8637 16.7836ZM35.7068 15.1152L33.9637 16.0957L34.386 16.8465L35.2218 17.0555L35.7068 15.1152ZM31.5358 12.3092L31.9549 10.3536L31.8872 10.3391L31.8187 10.3293L31.5358 12.3092ZM29.8674 12.0817L30.1155 10.0972L30.0442 10.0883L29.9725 10.0845L29.8674 12.0817ZM24.8761 12.1482L24.9532 14.1468L24.9533 14.1468L24.8761 12.1482ZM24.6347 12.1576V14.1576H24.6732L24.7117 14.1561L24.6347 12.1576ZM23.2696 12.9918L21.2968 12.663L21.2901 12.7032L21.2851 12.7437L23.2696 12.9918ZM24.7105 14.0535V16.0535H24.7399L24.7694 16.0526L24.7105 14.0535ZM24.8538 14.0493L24.9126 16.0484L24.9127 16.0484L24.8538 14.0493ZM31.1566 14.2051L31.5793 12.2503L31.5641 12.247L31.5489 12.244L31.1566 14.2051ZM34.4176 17.997L36.3788 18.3892L36.3868 18.3492L36.3931 18.3089L34.4176 17.997ZM31.915 20.0446L31.6858 22.0314L31.6941 22.0323L31.915 20.0446ZM10.984 48.2559L9.73465 46.6941L7.794 48.2466L9.72564 49.8103L10.984 48.2559ZM45.1106 50.3035L46.8418 51.3049L49.0704 47.4521L44.7098 48.344L45.1106 50.3035ZM36.1619 65.7742L34.4306 64.7727L34.4002 64.8254L34.373 64.8797L36.1619 65.7742ZM36.086 65.9637L34.1887 65.3313L34.1886 65.3313L36.086 65.9637ZM36.0102 66.1533L36.2092 68.1434L37.3061 68.0337L37.799 67.0478L36.0102 66.1533ZM9.01228 51.7444L10.9963 51.4918L10.8811 50.5865L10.1217 50.0802L9.01228 51.7444ZM49.3575 43.2506L51.0823 44.263L52.377 42.0573L49.9241 41.3326L49.3575 43.2506ZM47.3099 46.7391L46.7945 48.6716L48.2646 49.0636L49.0347 47.7515L47.3099 46.7391ZM73.5494 38.5488L73.8322 40.5287L73.8872 40.5208L73.9416 40.51L73.5494 38.5488ZM74.6111 38.8521L75.8605 37.2904L75.8361 37.2709L75.8111 37.2521L74.6111 38.8521ZM68.7717 39.2313L67.0948 38.1413L64.6945 41.8341L69.0545 41.2112L68.7717 39.2313ZM71.7293 34.6811L70.1018 33.5186L70.0763 33.5543L70.0524 33.5911L71.7293 34.6811ZM71.5018 33.0127L72.916 31.5985L72.916 31.5984L71.5018 33.0127ZM71.3501 32.861L69.9359 34.2752L69.936 34.2753L71.3501 32.861ZM69.6817 32.7852L70.9482 34.3331L70.9552 34.3274L70.9621 34.3216L69.6817 32.7852ZM65.5107 36.1979L63.5117 36.1354L63.3743 40.5299L66.7772 37.7458L65.5107 36.1979ZM65.6624 31.3443L67.6614 31.4068L67.6624 31.3755V31.3443H65.6624ZM63.3873 30.3584L61.973 28.9442L61.973 28.9442L63.3873 30.3584ZM63.0839 30.8134L61.2951 29.919L61.2194 30.0703L61.1703 30.2321L63.0839 30.8134ZM61.2638 36.8045L59.3502 36.2232L58.8595 37.8384L60.3694 38.5934L61.2638 36.8045ZM61.643 37.1079L60.2288 38.5221L60.2673 38.5606L60.3079 38.597L61.643 37.1079ZM68.2408 43.0232L69.655 41.6089L69.6165 41.5704L69.5759 41.534L68.2408 43.0232ZM68.5442 43.3265L67.13 44.7407L68.0809 45.6916L69.3203 45.1698L68.5442 43.3265ZM74.3078 40.8997L73.6243 39.0201L73.5775 39.0372L73.5316 39.0565L74.3078 40.8997ZM60.0504 38.9279L58.699 40.4023L58.706 40.4086L60.0504 38.9279ZM53.9835 39.838L52.2739 38.8L52.2602 38.8227L52.247 38.8457L53.9835 39.838ZM66.6483 44.919L67.9997 43.4447L67.9927 43.4384L66.6483 44.919ZM66.3449 50.986L67.5313 52.5961L67.5354 52.5931L66.3449 50.986ZM57.6995 57.3563L56.363 58.8441L57.5747 59.9326L58.8859 58.9664L57.6995 57.3563ZM53.2251 53.3369L54.5617 51.8491L54.5192 51.8109L54.4745 51.7752L53.2251 53.3369ZM51.9359 53.4128L53.3501 54.827L53.4285 54.7486L53.4977 54.6621L51.9359 53.4128ZM51.4809 53.8678L50.0667 52.4536L49.9884 52.5319L49.9192 52.6184L51.4809 53.8678ZM51.5567 55.157L52.9007 53.6759L52.8547 53.6341L52.8061 53.5953L51.5567 55.157ZM55.6519 58.873L56.8398 60.4821L58.8037 59.0323L56.9959 57.3919L55.6519 58.873ZM41.1671 69.566L39.9793 67.9569L39.9566 67.9736L39.9345 67.991L41.1671 69.566ZM38.2095 66.9117L39.9245 67.9407L39.9296 67.9322L39.9346 67.9236L38.2095 66.9117ZM42.8355 59.0247L44.1754 57.5399L42.3526 55.8949L41.1104 58.0128L42.8355 59.0247ZM45.9448 61.8306L44.6049 63.3154L44.649 63.3552L44.6954 63.3924L45.9448 61.8306ZM47.234 61.7548L45.6976 60.4744L45.6848 60.4898L45.6723 60.5054L47.234 61.7548ZM47.6132 61.2998L49.1497 62.5802L49.1625 62.5648L49.175 62.5492L47.6132 61.2998ZM47.5374 60.0106L46.1888 61.4875L46.237 61.5315L46.288 61.5723L47.5374 60.0106ZM44.0489 56.8254L42.3253 55.8109L41.5026 57.2088L42.7004 58.3024L44.0489 56.8254ZM51.8601 43.554L53.1937 42.0635L51.3746 40.4359L50.1365 42.5395L51.8601 43.554ZM57.6237 48.7109L56.2901 50.2014L56.3312 50.2382L56.3743 50.2726L57.6237 48.7109ZM58.9129 48.635L57.3765 47.3547L57.3637 47.37L57.3512 47.3856L58.9129 48.635ZM59.2921 48.18L60.8285 49.4604L60.8413 49.445L60.8538 49.4294L59.2921 48.18ZM59.2162 46.8908L57.8875 48.3856L57.9263 48.4201L57.9669 48.4525L59.2162 46.8908ZM53.0735 41.4305L51.337 40.4383L50.5319 41.8472L51.7447 42.9254L53.0735 41.4305ZM18.0242 21.7161C20.1289 22.0529 22.8816 22.0435 25.4518 21.9679L25.3342 17.9696C22.7476 18.0457 20.3434 18.0363 18.6562 17.7663L18.0242 21.7161ZM7.3031 16.6554C11.0939 19.4195 15.4949 21.3551 18.0574 21.7211L18.6231 17.7613C16.9387 17.5207 13.1493 15.9678 9.65979 13.4233L7.3031 16.6554ZM2.29087 12.7997C3.53503 13.8106 5.53248 15.3467 7.29266 16.6477L9.67023 13.431C7.94192 12.1536 5.99586 10.6562 4.81324 9.69528L2.29087 12.7997ZM1.81939 7.95875C0.398742 9.58235 0.99574 11.6683 2.23505 12.7527L4.86907 9.74236C4.88816 9.75907 4.96931 9.84171 4.99371 10.0222C5.00618 10.1145 5.00126 10.2226 4.96829 10.3338C4.93483 10.4466 4.88088 10.5343 4.8297 10.5928L1.81939 7.95875ZM7.47586 1.17008L1.78811 7.99539L4.86099 10.5561L10.5487 3.73082L7.47586 1.17008ZM12.1841 0.698775C10.7532 -0.37439 8.80774 -0.173415 7.59809 1.03624L10.4265 3.86466C10.2786 4.0126 10.0016 4.0619 9.78406 3.89878L12.1841 0.698775ZM14.1664 2.35994L12.2704 0.767365L9.69768 3.83018L11.5936 5.42276L14.1664 2.35994ZM14.0633 2.33025C14.0679 2.32909 14.0867 2.32647 14.1118 2.33233C14.1354 2.33784 14.1519 2.34785 14.1603 2.3549L11.5996 5.42779C12.5349 6.20721 13.795 6.52043 15.0335 6.21082L14.0633 2.33025ZM24.7105 0.602122C21.9703 0.602122 17.8359 1.25121 13.9989 2.34748L15.0978 6.19358C18.6929 5.16642 22.4455 4.60212 24.7105 4.60212V0.602122ZM44.8072 10.1885C43.2912 9.03148 39.8714 6.68255 36.1119 4.61338C34.2296 3.57738 32.2245 2.59058 30.3042 1.85799C28.4185 1.13865 26.457 0.602122 24.7105 0.602122V4.60212C25.732 4.60212 27.1548 4.93772 28.8785 5.59528C30.5675 6.23961 32.3969 7.13451 34.1832 8.11767C37.7609 10.0868 41.0148 12.326 42.3805 13.3683L44.8072 10.1885ZM40.1065 18.6347C42.745 19.7141 45.2293 18.5903 46.3389 16.5864C47.451 14.578 47.0832 11.8807 44.7873 10.1734L42.4005 13.3833C42.7795 13.6651 42.8924 13.9277 42.9274 14.0934C42.9665 14.2784 42.936 14.4746 42.8395 14.6488C42.7428 14.8235 42.5959 14.9471 42.4319 15.0066C42.2879 15.0588 42.0289 15.0994 41.621 14.9325L40.1065 18.6347ZM35.2218 17.0555C37.3071 17.5768 39.0557 18.1469 40.018 18.596L41.7095 14.9712C40.3967 14.3586 38.3535 13.7153 36.1919 13.1749L35.2218 17.0555ZM31.1168 14.2648C32.7254 14.6095 33.5846 15.4217 33.9637 16.0957L37.45 14.1347C36.464 12.3819 34.5931 10.9189 31.9549 10.3536L31.1168 14.2648ZM29.6193 14.0663C30.2063 14.1396 30.721 14.2131 31.253 14.2891L31.8187 10.3293C31.289 10.2537 30.7419 10.1755 30.1155 10.0972L29.6193 14.0663ZM24.9533 14.1468C26.8639 14.073 28.4916 14.0121 29.7623 14.079L29.9725 10.0845C28.4795 10.0059 26.6459 10.0785 24.799 10.1497L24.9533 14.1468ZM24.7117 14.1561L24.9532 14.1468L24.7991 10.1497L24.5576 10.159L24.7117 14.1561ZM24.2555 14.1576H24.6347V10.1576H24.2555V14.1576ZM25.2424 13.3206C25.1714 13.7467 24.7844 14.1576 24.2555 14.1576V10.1576C22.6649 10.1576 21.5195 11.3268 21.2968 12.663L25.2424 13.3206ZM24.2555 12.0535C24.4549 12.0535 24.7289 12.133 24.9566 12.3726C25.1979 12.6266 25.289 12.9613 25.2542 13.2398L21.2851 12.7437C21.042 14.6878 22.5954 16.0535 24.2555 16.0535V12.0535ZM24.7105 12.0535H24.2555V16.0535H24.7105V12.0535ZM24.7949 12.0501L24.6517 12.0543L24.7694 16.0526L24.9126 16.0484L24.7949 12.0501ZM31.5489 12.244C29.7808 11.8904 27.2069 11.9791 24.7949 12.0501L24.9127 16.0484C27.5449 15.9708 29.5553 15.9245 30.7644 16.1663L31.5489 12.244ZM36.3931 18.3089C36.5736 17.1657 36.4017 15.8184 35.5536 14.6279C34.7018 13.432 33.3373 12.6304 31.5793 12.2503L30.734 16.16C31.7819 16.3865 32.1617 16.7604 32.2957 16.9486C32.4335 17.1421 32.4891 17.3873 32.4421 17.6851L36.3931 18.3089ZM31.6941 22.0323C34.4536 22.3389 36.0284 20.1409 36.3788 18.3892L32.4565 17.6048C32.4149 17.8124 32.3167 17.9614 32.2459 18.0258C32.231 18.0394 32.22 18.047 32.2135 18.0508C32.2074 18.0546 32.2041 18.0557 32.2031 18.0561C32.2024 18.0563 32.1993 18.0574 32.1917 18.0582C32.1841 18.059 32.1663 18.0602 32.1359 18.0568L31.6941 22.0323ZM25.462 21.9675C27.698 21.8904 29.891 21.8243 31.6858 22.0314L32.1442 18.0578C29.9955 17.8098 27.4867 17.8954 25.3241 17.9699L25.462 21.9675ZM24.4072 38.5011C26.6007 38.5011 28.379 36.7229 28.379 34.5294H24.379C24.379 34.5301 24.3789 34.5286 24.3795 34.5258C24.3801 34.5231 24.3809 34.5203 24.382 34.5178C24.384 34.513 24.3861 34.5105 24.3872 34.5094C24.3883 34.5083 24.3908 34.5062 24.3956 34.5042C24.3981 34.5031 24.4009 34.5022 24.4036 34.5017C24.4065 34.5011 24.4079 34.5011 24.4072 34.5011V38.5011ZM20.4354 34.5294C20.4354 36.7229 22.2137 38.5011 24.4072 38.5011V34.5011C24.4065 34.5011 24.4079 34.5011 24.4108 34.5017C24.4135 34.5022 24.4163 34.5031 24.4188 34.5042C24.4236 34.5062 24.4261 34.5083 24.4272 34.5094C24.4283 34.5105 24.4304 34.513 24.4324 34.5178C24.4335 34.5203 24.4343 34.5231 24.4349 34.5258C24.4355 34.5286 24.4354 34.5301 24.4354 34.5294H20.4354ZM24.4072 30.5576C22.2137 30.5576 20.4354 32.3358 20.4354 34.5294H24.4354C24.4354 34.5287 24.4355 34.5301 24.4349 34.533C24.4343 34.5357 24.4335 34.5385 24.4324 34.541C24.4304 34.5458 24.4283 34.5483 24.4272 34.5494C24.4261 34.5505 24.4236 34.5525 24.4188 34.5546C24.4163 34.5557 24.4135 34.5565 24.4108 34.5571C24.4079 34.5577 24.4065 34.5576 24.4072 34.5576V30.5576ZM28.379 34.5294C28.379 32.3358 26.6007 30.5576 24.4072 30.5576V34.5576C24.4079 34.5576 24.4065 34.5577 24.4036 34.5571C24.4009 34.5565 24.3981 34.5557 24.3956 34.5546C24.3908 34.5525 24.3883 34.5505 24.3872 34.5494C24.3861 34.5483 24.384 34.5458 24.382 34.541C24.3809 34.5385 24.3801 34.5357 24.3795 34.533C24.3789 34.5301 24.379 34.5287 24.379 34.5294H28.379ZM38.4845 34.5294C38.4845 34.5301 38.4845 34.5286 38.4851 34.5258C38.4856 34.5231 38.4865 34.5203 38.4875 34.5178C38.4896 34.513 38.4917 34.5105 38.4928 34.5094C38.4939 34.5083 38.4963 34.5062 38.5011 34.5042C38.5037 34.5031 38.5065 34.5022 38.5092 34.5017C38.512 34.5011 38.5134 34.5011 38.5128 34.5011V38.5011C40.7063 38.5011 42.4845 36.7229 42.4845 34.5294H38.4845ZM38.5128 34.5576C38.5134 34.5576 38.512 34.5577 38.5092 34.5571C38.5065 34.5565 38.5037 34.5557 38.5011 34.5546C38.4963 34.5525 38.4939 34.5505 38.4928 34.5494C38.4917 34.5483 38.4896 34.5458 38.4875 34.541C38.4865 34.5385 38.4856 34.5357 38.4851 34.533C38.4845 34.5301 38.4845 34.5287 38.4845 34.5294H42.4845C42.4845 32.3358 40.7063 30.5576 38.5128 30.5576V34.5576ZM38.541 34.5294C38.541 34.5287 38.541 34.5301 38.5405 34.533C38.5399 34.5357 38.539 34.5385 38.538 34.541C38.5359 34.5458 38.5338 34.5483 38.5327 34.5494C38.5316 34.5505 38.5292 34.5525 38.5244 34.5546C38.5218 34.5557 38.519 34.5565 38.5163 34.5571C38.5135 34.5577 38.5121 34.5576 38.5128 34.5576V30.5576C36.3192 30.5576 34.541 32.3358 34.541 34.5294H38.541ZM38.5128 34.5011C38.5121 34.5011 38.5135 34.5011 38.5163 34.5017C38.519 34.5022 38.5218 34.5031 38.5244 34.5042C38.5292 34.5062 38.5316 34.5083 38.5327 34.5094C38.5338 34.5105 38.5359 34.513 38.538 34.5178C38.539 34.5203 38.5399 34.5231 38.5405 34.5258C38.541 34.5286 38.541 34.5301 38.541 34.5294H34.541C34.541 36.7229 36.3192 38.5011 38.5128 38.5011V34.5011ZM31.46 38.5011C33.6535 38.5011 35.4317 36.7229 35.4317 34.5294H31.4317C31.4317 34.5301 31.4317 34.5286 31.4323 34.5258C31.4328 34.5231 31.4337 34.5203 31.4348 34.5178C31.4368 34.513 31.4389 34.5105 31.44 34.5094C31.4411 34.5083 31.4435 34.5062 31.4484 34.5042C31.4509 34.5031 31.4537 34.5022 31.4564 34.5017C31.4592 34.5011 31.4606 34.5011 31.46 34.5011V38.5011ZM27.4882 34.5294C27.4882 36.7229 29.2664 38.5011 31.46 38.5011V34.5011C31.4593 34.5011 31.4607 34.5011 31.4635 34.5017C31.4663 34.5022 31.469 34.5031 31.4716 34.5042C31.4764 34.5062 31.4788 34.5083 31.4799 34.5094C31.481 34.5105 31.4831 34.513 31.4852 34.5178C31.4863 34.5203 31.4871 34.5231 31.4877 34.5258C31.4883 34.5286 31.4882 34.5301 31.4882 34.5294H27.4882ZM31.46 30.5576C29.2664 30.5576 27.4882 32.3358 27.4882 34.5294H31.4882C31.4882 34.5287 31.4883 34.5301 31.4877 34.533C31.4871 34.5357 31.4863 34.5385 31.4852 34.541C31.4831 34.5458 31.481 34.5483 31.4799 34.5494C31.4788 34.5505 31.4764 34.5525 31.4716 34.5546C31.469 34.5557 31.4663 34.5565 31.4635 34.5571C31.4607 34.5577 31.4593 34.5576 31.46 34.5576V30.5576ZM35.4317 34.5294C35.4317 32.3358 33.6535 30.5576 31.46 30.5576V34.5576C31.4606 34.5576 31.4592 34.5577 31.4564 34.5571C31.4537 34.5565 31.4509 34.5557 31.4484 34.5546C31.4435 34.5525 31.4411 34.5505 31.44 34.5494C31.4389 34.5483 31.4368 34.5458 31.4348 34.541C31.4337 34.5385 31.4328 34.5357 31.4323 34.533C31.4317 34.5301 31.4317 34.5287 31.4317 34.5294H35.4317ZM31.4317 24.8223C31.4317 24.823 31.4317 24.8216 31.4323 24.8187C31.4328 24.816 31.4337 24.8132 31.4348 24.8107C31.4368 24.8059 31.4389 24.8034 31.44 24.8023C31.4411 24.8012 31.4435 24.7991 31.4484 24.7971C31.4509 24.796 31.4537 24.7952 31.4564 24.7946C31.4592 24.794 31.4606 24.7941 31.46 24.7941V28.7941C33.6535 28.7941 35.4317 27.0158 35.4317 24.8223H31.4317ZM31.46 24.8505C31.4606 24.8505 31.4592 24.8506 31.4564 24.85C31.4537 24.8494 31.4509 24.8486 31.4484 24.8475C31.4435 24.8455 31.4411 24.8434 31.44 24.8423C31.4389 24.8412 31.4368 24.8387 31.4348 24.8339C31.4337 24.8314 31.4328 24.8286 31.4323 24.8259C31.4317 24.823 31.4317 24.8216 31.4317 24.8223H35.4317C35.4317 22.6288 33.6535 20.8505 31.46 20.8505V24.8505ZM31.4882 24.8223C31.4882 24.8216 31.4883 24.823 31.4877 24.8259C31.4871 24.8286 31.4863 24.8314 31.4852 24.8339C31.4831 24.8387 31.481 24.8412 31.4799 24.8423C31.4788 24.8434 31.4764 24.8455 31.4716 24.8475C31.469 24.8486 31.4663 24.8494 31.4635 24.85C31.4607 24.8506 31.4593 24.8505 31.46 24.8505V20.8505C29.2664 20.8505 27.4882 22.6288 27.4882 24.8223H31.4882ZM31.46 24.7941C31.4593 24.7941 31.4607 24.794 31.4635 24.7946C31.4663 24.7952 31.469 24.796 31.4716 24.7971C31.4764 24.7991 31.4788 24.8012 31.4799 24.8023C31.481 24.8034 31.4831 24.8059 31.4852 24.8107C31.4863 24.8132 31.4871 24.816 31.4877 24.8187C31.4883 24.8216 31.4882 24.823 31.4882 24.8223H27.4882C27.4882 27.0158 29.2664 28.7941 31.46 28.7941V24.7941ZM35.0243 33.6476C37.2179 33.6476 38.9961 31.8694 38.9961 29.6758H34.9961C34.9961 29.6765 34.996 29.6751 34.9966 29.6723C34.9972 29.6696 34.998 29.6668 34.9991 29.6642C35.0012 29.6594 35.0032 29.657 35.0044 29.6559C35.0055 29.6548 35.0079 29.6527 35.0127 29.6506C35.0153 29.6496 35.018 29.6487 35.0208 29.6481C35.0236 29.6476 35.025 29.6476 35.0243 29.6476V33.6476ZM31.0526 29.6758C31.0526 31.8694 32.8308 33.6476 35.0243 33.6476V29.6476C35.0236 29.6476 35.0251 29.6476 35.0279 29.6481C35.0306 29.6487 35.0334 29.6496 35.0359 29.6506C35.0408 29.6527 35.0432 29.6548 35.0443 29.6559C35.0454 29.657 35.0475 29.6594 35.0495 29.6642C35.0506 29.6668 35.0515 29.6695 35.052 29.6723C35.0526 29.6751 35.0526 29.6765 35.0526 29.6758H31.0526ZM35.0243 25.7041C32.8308 25.7041 31.0526 27.4823 31.0526 29.6758H35.0526C35.0526 29.6752 35.0526 29.6766 35.052 29.6794C35.0515 29.6821 35.0506 29.6849 35.0495 29.6874C35.0475 29.6923 35.0454 29.6947 35.0443 29.6958C35.0432 29.6969 35.0408 29.699 35.0359 29.701C35.0334 29.7021 35.0306 29.703 35.0279 29.7035C35.0251 29.7041 35.0236 29.7041 35.0243 29.7041V25.7041ZM38.9961 29.6758C38.9961 27.4823 37.2179 25.7041 35.0243 25.7041V29.7041C35.025 29.7041 35.0236 29.7041 35.0208 29.7035C35.018 29.703 35.0153 29.7021 35.0127 29.701C35.0079 29.699 35.0055 29.6969 35.0044 29.6958C35.0032 29.6947 35.0012 29.6923 34.9991 29.6874C34.998 29.6849 34.9972 29.6821 34.9966 29.6794C34.996 29.6766 34.9961 29.6752 34.9961 29.6758H38.9961ZM27.9432 29.6758C27.9432 29.6765 27.9432 29.6751 27.9438 29.6723C27.9443 29.6696 27.9452 29.6668 27.9463 29.6642C27.9483 29.6594 27.9504 29.657 27.9515 29.6559C27.9526 29.6548 27.955 29.6527 27.9599 29.6506C27.9624 29.6496 27.9652 29.6487 27.9679 29.6481C27.9707 29.6476 27.9722 29.6476 27.9715 29.6476V33.6476C30.165 33.6476 31.9432 31.8694 31.9432 29.6758H27.9432ZM27.9715 29.7041C27.9722 29.7041 27.9707 29.7041 27.9679 29.7035C27.9652 29.703 27.9624 29.7021 27.9599 29.701C27.955 29.699 27.9526 29.6969 27.9515 29.6958C27.9504 29.6947 27.9483 29.6923 27.9463 29.6874C27.9452 29.6849 27.9443 29.6821 27.9438 29.6794C27.9432 29.6766 27.9432 29.6752 27.9432 29.6758H31.9432C31.9432 27.4823 30.165 25.7041 27.9715 25.7041V29.7041ZM27.9997 29.6758C27.9997 29.6752 27.9998 29.6766 27.9992 29.6794C27.9986 29.6821 27.9977 29.6849 27.9967 29.6874C27.9946 29.6923 27.9925 29.6947 27.9914 29.6958C27.9903 29.6969 27.9879 29.699 27.9831 29.701C27.9805 29.7021 27.9778 29.703 27.975 29.7035C27.9722 29.7041 27.9708 29.7041 27.9715 29.7041V25.7041C25.7779 25.7041 23.9997 27.4823 23.9997 29.6758H27.9997ZM27.9715 29.6476C27.9708 29.6476 27.9722 29.6476 27.975 29.6481C27.9778 29.6487 27.9805 29.6496 27.9831 29.6506C27.9879 29.6527 27.9903 29.6548 27.9914 29.6559C27.9925 29.657 27.9946 29.6594 27.9967 29.6642C27.9977 29.6668 27.9986 29.6695 27.9992 29.6723C27.9998 29.6751 27.9997 29.6765 27.9997 29.6758H23.9997C23.9997 31.8694 25.7779 33.6476 27.9715 33.6476V29.6476ZM31.1566 49.5168C25.4248 49.5168 20.9086 49.0326 17.6675 48.4061C16.0452 48.0926 14.7645 47.7477 13.8222 47.4201C12.8272 47.0743 12.3646 46.8002 12.2424 46.7014L9.72564 49.8103C10.3998 50.3561 11.397 50.8119 12.5089 51.1984C13.6734 51.6032 15.1465 51.9929 16.9084 52.3335C20.4357 53.0152 25.2096 53.5168 31.1566 53.5168V49.5168ZM44.7098 48.344C41.5242 48.9956 36.9586 49.5168 31.1566 49.5168V53.5168C37.1852 53.5168 42.0233 52.9763 45.5114 52.2629L44.7098 48.344ZM37.8931 66.7756L46.8418 51.3049L43.3794 49.302L34.4306 64.7727L37.8931 66.7756ZM37.9834 66.5962C37.9859 66.5886 37.9873 66.5844 37.9886 66.5807C37.9897 66.5774 37.9901 66.5762 37.99 66.5763C37.9899 66.5769 37.9875 66.5837 37.9835 66.594C37.9794 66.6047 37.9743 66.6173 37.9683 66.6311C37.9622 66.6448 37.9563 66.6574 37.9507 66.6686L34.373 64.8797C34.2677 65.0903 34.2121 65.261 34.1887 65.3313L37.9834 66.5962ZM37.799 67.0478C37.9043 66.8372 37.96 66.6665 37.9834 66.5962L34.1886 65.3313C34.1861 65.3389 34.1847 65.3431 34.1835 65.3468C34.1823 65.3501 34.1819 65.3513 34.182 65.3512C34.1822 65.3506 34.1845 65.3438 34.1885 65.3335C34.1926 65.3228 34.1977 65.3102 34.2038 65.2964C34.2098 65.2827 34.2157 65.2701 34.2213 65.2589L37.799 67.0478ZM31.1566 68.3808C32.9596 68.3808 34.6191 68.3024 36.2092 68.1434L35.8112 64.1633C34.3678 64.3076 32.8421 64.3808 31.1566 64.3808V68.3808ZM7.02829 51.9969C7.60674 56.5418 9.40494 60.7566 13.3853 63.7829C17.3093 66.7665 23.0772 68.3808 31.1566 68.3808V64.3808C23.5379 64.3808 18.7644 62.8479 15.8063 60.5988C12.9044 58.3924 11.4795 55.2889 10.9963 51.4918L7.02829 51.9969ZM4.81302 48.4075C4.81302 50.7448 6.29322 52.3353 7.90289 53.4085L10.1217 50.0802C9.00122 49.3333 8.81302 48.8004 8.81302 48.4075H4.81302ZM31.1566 39.203C29.8851 39.203 23.6683 39.2398 17.7318 40.1854C14.7836 40.6549 11.7469 41.3716 9.39622 42.5049C7.14352 43.5909 4.81302 45.4282 4.81302 48.4075H8.81302C8.81302 47.8604 9.21264 47.034 11.1333 46.108C12.9561 45.2292 15.536 44.5855 18.3609 44.1356C23.9705 43.2421 29.9255 43.203 31.1566 43.203V39.203ZM49.9241 41.3326C42.9321 39.2668 32.7903 39.203 31.1566 39.203V43.203C32.8597 43.203 42.4355 43.291 48.7908 45.1687L49.9241 41.3326ZM49.0347 47.7515L51.0823 44.263L47.6326 42.2382L45.585 45.7267L49.0347 47.7515ZM31.1566 47.0707C38.3162 47.0707 43.5946 47.8183 46.7945 48.6716L47.8252 44.8067C44.1998 43.8399 38.5577 43.0707 31.1566 43.0707V47.0707ZM12.2334 49.8176C12.3313 49.7393 12.7739 49.4779 13.7676 49.1395C14.7031 48.8209 15.9815 48.4822 17.6053 48.1729C20.8494 47.555 25.3865 47.0707 31.1566 47.0707V43.0707C25.1721 43.0707 20.3813 43.5723 16.8569 44.2436C15.0965 44.5789 13.6305 44.9606 12.4782 45.353C11.384 45.7256 10.3952 46.1657 9.73465 46.6941L12.2334 49.8176ZM73.9416 40.51C73.7447 40.5493 73.589 40.5199 73.5064 40.4939C73.4304 40.4699 73.402 40.4453 73.4111 40.4521L75.8111 37.2521C75.2638 36.8417 74.3093 36.3572 73.1572 36.5876L73.9416 40.51ZM69.0545 41.2112L73.8322 40.5287L73.2666 36.5689L68.4888 37.2514L69.0545 41.2112ZM70.0524 33.5911L67.0948 38.1413L70.4486 40.3213L73.4062 35.7711L70.0524 33.5911ZM70.0876 34.4269C70.0483 34.3876 69.98 34.2988 69.9539 34.1369C69.924 33.9515 69.962 33.7144 70.1018 33.5186L73.3568 35.8436C74.454 34.3075 73.8627 32.5452 72.916 31.5985L70.0876 34.4269ZM69.936 34.2753L70.0876 34.427L72.916 31.5984L72.7643 31.4468L69.936 34.2753ZM70.9621 34.3216C70.7762 34.4766 70.5881 34.5135 70.4534 34.5093C70.309 34.5048 70.109 34.4483 69.9359 34.2752L72.7643 31.4468C71.5422 30.2247 69.6116 30.2402 68.4013 31.2488L70.9621 34.3216ZM66.7772 37.7458L70.9482 34.3331L68.4152 31.2373L64.2442 34.6499L66.7772 37.7458ZM63.6633 31.2818L63.5117 36.1354L67.5097 36.2603L67.6614 31.4068L63.6633 31.2818ZM63.7931 31.6968C63.7334 31.637 63.6624 31.5122 63.6624 31.3443H67.6624C67.6624 30.418 67.288 29.5348 66.6216 28.8684L63.7931 31.6968ZM64.8015 31.7726C64.6945 31.8796 64.576 31.9318 64.4397 31.9435C64.2688 31.9581 64.0017 31.9054 63.7931 31.6968L66.6216 28.8684C65.0917 27.3385 62.9716 27.9456 61.973 28.9442L64.8015 31.7726ZM64.8728 31.7079C64.8827 31.688 64.8894 31.6746 64.8957 31.6621C64.9017 31.6503 64.9056 31.6429 64.9082 31.638C64.9133 31.6284 64.911 31.6333 64.9031 31.6459C64.8947 31.6594 64.8812 31.6796 64.8626 31.7035C64.8438 31.7275 64.8232 31.7509 64.8015 31.7726L61.973 28.9442C61.5691 29.3482 61.3713 29.7666 61.2951 29.919L64.8728 31.7079ZM63.1775 37.3859L64.9976 31.3948L61.1703 30.2321L59.3502 36.2232L63.1775 37.3859ZM63.0572 35.6937C62.9166 35.553 62.635 35.2541 62.1583 35.0157L60.3694 38.5934C60.3462 38.5818 60.3117 38.563 60.2712 38.5365C60.2303 38.5098 60.1969 38.4841 60.1731 38.4642C60.1521 38.4468 60.1434 38.4377 60.1549 38.4488C60.1688 38.4622 60.1872 38.4805 60.2288 38.5221L63.0572 35.6937ZM69.5759 41.534L62.9781 35.6188L60.3079 38.597L66.9057 44.5123L69.5759 41.534ZM69.9584 41.9123L69.655 41.6089L66.8266 44.4374L67.13 44.7407L69.9584 41.9123ZM73.5316 39.0565L67.7681 41.4832L69.3203 45.1698L75.0839 42.743L73.5316 39.0565ZM73.3617 40.4139C72.8922 40.0382 73.0028 39.2461 73.6243 39.0201L74.9912 42.7793C77.2811 41.9466 77.8468 38.8794 75.8605 37.2904L73.3617 40.4139ZM61.4019 37.4536C58.6258 34.9089 54.199 35.6293 52.2739 38.8L55.6931 40.8759C56.3464 39.7998 57.8349 39.6102 58.699 40.4022L61.4019 37.4536ZM67.9927 43.4384L61.3949 37.4473L58.706 40.4086L65.3038 46.3997L67.9927 43.4384ZM67.5354 52.5931C70.6262 50.3036 70.7159 45.9346 67.9997 43.4447L65.2968 46.3933C66.2207 47.2403 66.1588 48.6349 65.1544 49.3789L67.5354 52.5931ZM58.8859 58.9664L67.5313 52.5961L65.1585 49.3759L56.5131 55.7462L58.8859 58.9664ZM51.8886 54.8248L56.363 58.8441L59.036 55.8684L54.5617 51.8491L51.8886 54.8248ZM53.4977 54.6621C53.2234 55.0049 52.8636 55.108 52.632 55.1173C52.4109 55.1261 52.1799 55.062 51.9758 54.8987L54.4745 51.7752C53.4481 50.9541 51.528 50.721 50.3742 52.1634L53.4977 54.6621ZM52.8951 55.282L53.3501 54.827L50.5217 51.9985L50.0667 52.4536L52.8951 55.282ZM52.8061 53.5953C53.1489 53.8695 53.252 54.2293 53.2613 54.4609C53.2701 54.682 53.206 54.913 53.0426 55.1172L49.9192 52.6184C49.098 53.6448 48.865 55.5649 50.3073 56.7187L52.8061 53.5953ZM56.9959 57.3919L52.9007 53.6759L50.2128 56.6381L54.3079 60.3541L56.9959 57.3919ZM42.3549 71.175L56.8398 60.4821L54.4641 57.2639L39.9793 67.9569L42.3549 71.175ZM36.4945 65.8827C35.3537 67.784 36.0162 69.8202 37.2697 70.9483C38.5288 72.0815 40.6365 72.5209 42.3997 71.141L39.9345 67.991C39.9182 68.0037 39.9089 68.0088 39.9071 68.0097C39.9053 68.0106 39.9086 68.0088 39.9165 68.0064C39.9244 68.004 39.9341 68.0019 39.9449 68.0008C39.9555 67.9998 39.9649 67.9998 39.9726 68.0004C39.9879 68.0017 39.9914 68.0047 39.9839 68.0013C39.9758 67.9977 39.9615 67.9895 39.9455 67.9751C39.9296 67.9608 39.9184 67.946 39.9119 67.935C39.9058 67.9244 39.9069 67.9225 39.9086 67.931C39.9094 67.9354 39.9102 67.9415 39.9103 67.9489C39.9104 67.9563 39.9098 67.9632 39.9089 67.9687C39.9079 67.9742 39.9071 67.9756 39.9083 67.9723C39.9095 67.969 39.9138 67.9584 39.9245 67.9407L36.4945 65.8827ZM41.1104 58.0128L36.4843 65.8998L39.9346 67.9236L44.5607 60.0365L41.1104 58.0128ZM47.2847 60.3459L44.1754 57.5399L41.4956 60.5095L44.6049 63.3154L47.2847 60.3459ZM45.6723 60.5054C45.9465 60.1626 46.3064 60.0595 46.5379 60.0503C46.759 60.0414 46.99 60.1055 47.1942 60.2689L44.6954 63.3924C45.7218 64.2135 47.6419 64.4465 48.7958 63.0042L45.6723 60.5054ZM46.0768 60.0194L45.6976 60.4744L48.7705 63.0352L49.1497 62.5802L46.0768 60.0194ZM46.288 61.5723C45.9452 61.2981 45.8421 60.9382 45.8329 60.7067C45.824 60.4856 45.8881 60.2546 46.0515 60.0504L49.175 62.5492C49.9961 61.5228 50.2291 59.6027 48.7868 58.4488L46.288 61.5723ZM42.7004 58.3024L46.1888 61.4875L48.8859 58.5336L45.3974 55.3484L42.7004 58.3024ZM50.1365 42.5395L42.3253 55.8109L45.7725 57.8399L53.5837 44.5684L50.1365 42.5395ZM58.9573 47.2204L53.1937 42.0635L50.5265 45.0445L56.2901 50.2014L58.9573 47.2204ZM57.3512 47.3856C57.6254 47.0429 57.9852 46.9398 58.2168 46.9305C58.4379 46.9217 58.6689 46.9858 58.8731 47.1491L56.3743 50.2726C57.4007 51.0937 59.3208 51.3267 60.4746 49.8844L57.3512 47.3856ZM57.7556 46.8996L57.3765 47.3547L60.4493 49.9154L60.8285 49.4604L57.7556 46.8996ZM57.9669 48.4525C57.6241 48.1783 57.521 47.8185 57.5117 47.5869C57.5029 47.3658 57.567 47.1348 57.7303 46.9306L60.8538 49.4294C61.6749 48.403 61.908 46.4829 60.4656 45.3291L57.9669 48.4525ZM51.7447 42.9254L57.8875 48.3856L60.545 45.396L54.4022 39.9357L51.7447 42.9254ZM52.247 38.8457L51.337 40.4383L54.81 42.4228L55.72 40.8302L52.247 38.8457Z" fill="black" mask="url(#path-11-outside-1_2_257)"/>
</svg>
