<svg width="76" height="62" viewBox="0 0 76 62" fill="none" xmlns="http://www.w3.org/2000/svg">
<path d="M74.5161 9.56474L71.5591 3.35385C71.0711 2.35719 70.2086 1.59407 69.1599 1.2311C68.1112 0.868132 66.9615 0.934784 65.9618 1.41651C64.962 1.89823 64.1935 2.75591 63.8239 3.80229C63.4543 4.84866 63.5137 5.99876 63.9891 7.0015L65.7444 10.6038L61.3119 12.0848C61.4743 11.5375 61.5608 10.9706 61.569 10.3998C61.5701 9.42115 61.3435 8.45563 60.9072 7.57961C60.4709 6.70358 59.8368 5.94106 59.055 5.35234C58.2732 4.76362 57.3651 4.36483 56.4027 4.18751C55.4402 4.01019 54.4496 4.05919 53.5094 4.33064C52.5691 4.60209 51.7049 5.08855 50.985 5.75156C50.2651 6.41458 49.7093 7.23596 49.3616 8.15077C49.0139 9.06558 48.8837 10.0487 48.9814 11.0225C49.0791 11.9963 49.402 12.934 49.9245 13.7615L43.8889 14.9173C42.6438 15.1578 41.5371 15.8638 40.7942 16.8915C40.0513 17.9193 39.7281 19.1916 39.8903 20.4493L41.0558 29.4262C41.1217 29.9356 41.2883 30.4267 41.5458 30.8711C41.8034 31.3155 42.1467 31.7043 42.5559 32.0148C42.965 32.3252 43.4318 32.5513 43.9291 32.6797C44.4265 32.8081 44.9443 32.8363 45.4527 32.7627C45.961 32.6891 46.4496 32.5151 46.8901 32.2509C47.3305 31.9867 47.7141 31.6376 48.0183 31.2238C48.3226 30.81 48.5416 30.3398 48.6625 29.8407C48.7834 29.3415 48.8038 28.8232 48.7225 28.3161L47.7456 22.2072L49.9886 21.7352L50.789 33.8365L49.0982 43.6266L42.7557 45.3742C42.1748 45.5339 41.6315 45.8077 41.1577 46.1797C40.6838 46.5518 40.2888 47.0145 39.9959 47.5409C39.7029 48.0673 39.5178 48.6469 39.4513 49.2456C39.3849 49.8444 39.4384 50.4504 39.6089 51.0283C39.7793 51.6061 40.0632 52.1442 40.444 52.6111C40.8247 53.0779 41.2947 53.4642 41.8265 53.7474C42.3583 54.0305 42.9411 54.2049 43.541 54.2602C44.1409 54.3155 44.7459 54.2507 45.3204 54.0696L53.0232 51.6432C54.4007 51.2106 55.6347 50.4116 56.593 49.3317C57.5513 48.2517 58.1979 46.9315 58.4636 45.5123L59.6755 39.0768L63.9465 45.4168L60.2228 54.4079C59.9803 54.9936 59.857 55.6219 59.8602 56.2559C59.8634 56.8899 59.993 57.5169 60.2414 58.1002C60.4898 58.6835 60.8521 59.2114 61.307 59.653C61.7619 60.0946 62.3002 60.4411 62.8906 60.6721C63.481 60.9032 64.1116 61.0141 64.7454 60.9986C65.3792 60.983 66.0035 60.8412 66.5819 60.5814C67.1602 60.3216 67.6809 59.9492 68.1136 59.4857C68.5462 59.0223 68.8821 58.4773 69.1016 57.8825L72.8666 47.6742C73.2048 46.7596 73.3375 45.7818 73.2554 44.8102C73.1733 43.8385 72.8784 42.8968 72.3916 42.0519C71.9899 41.1315 65.1405 30.0503 65.4139 29.314L63.9607 19.2941L71.7708 16.3668C72.4133 16.1204 72.9983 15.7444 73.4891 15.262C73.98 14.7797 74.3662 14.2014 74.6238 13.5632C74.8814 12.9251 75.0047 12.2407 74.9862 11.5528C74.9677 10.8649 74.8076 10.1881 74.5161 9.56474Z" fill="white"/>
<path d="M33.2341 45.3742L26.8909 43.6266L25.2001 33.8365L25.9999 21.7352L28.2429 22.2072L27.2658 28.3162C27.1849 28.8231 27.2056 29.3411 27.3267 29.84C27.4477 30.3389 27.6667 30.8088 27.971 31.2223C28.2752 31.6358 28.6586 31.9848 29.0989 32.2488C29.5392 32.5129 30.0275 32.6868 30.5356 32.7604C31.0437 32.834 31.5613 32.806 32.0584 32.6778C32.5556 32.5496 33.0222 32.3239 33.4314 32.0138C33.8405 31.7037 34.1839 31.3154 34.4416 30.8713C34.6994 30.4273 34.8663 29.9365 34.9326 29.4275L36.0988 20.4493C36.2608 19.1913 35.9372 17.9188 35.194 16.8911C34.4507 15.8633 33.3437 15.1574 32.0982 14.9173L26.0638 13.7614C26.5863 12.934 26.9092 11.9963 27.0069 11.0225C27.1046 10.0487 26.9744 9.06558 26.6267 8.15078C26.2789 7.23599 25.7232 6.41462 25.0033 5.75163C24.2834 5.08863 23.4192 4.60218 22.4789 4.33073C21.5387 4.05929 20.5482 4.01028 19.5857 4.1876C18.6232 4.36492 17.7152 4.7637 16.9334 5.35241C16.1517 5.94112 15.5175 6.70362 15.0812 7.57963C14.6449 8.45563 14.4183 9.42113 14.4194 10.3998C14.4275 10.9706 14.5141 11.5377 14.6766 12.0849L10.244 10.6038L11.9993 7.00011C12.4737 5.99747 12.5323 4.84792 12.1624 3.80223C11.7924 2.75654 11.024 1.89956 10.0247 1.41824C9.02537 0.936912 7.87626 0.870304 6.82802 1.23294C5.77978 1.59558 4.91748 2.35803 4.42922 3.35398L1.47166 9.56475C1.18017 10.1882 1.02023 10.865 1.0018 11.553C0.983369 12.241 1.10685 12.9254 1.36455 13.5636C1.62225 14.2017 2.00863 14.78 2.49962 15.2623C2.99061 15.7445 3.57568 16.1205 4.21836 16.3668L12.0277 19.2941C11.7489 20.4326 10.7598 30.105 10.0402 30.855L3.59811 42.052C3.11061 42.8966 2.81524 43.8383 2.73303 44.8101C2.65083 45.7818 2.78379 46.7598 3.12247 47.6743L6.88748 57.8825C9.26194 63.8173 18.0651 60.4129 15.7662 54.4078L12.0432 45.4168L16.3116 39.0782L17.5236 45.5124C17.7896 46.9317 18.4366 48.2519 19.3952 49.3319C20.3539 50.4118 21.5881 51.2107 22.9658 51.6432L30.6681 54.0697C36.5233 55.7527 39.0547 47.1481 33.2341 45.3742Z" fill="white"/>
<mask id="path-3-outside-1_2_299" maskUnits="userSpaceOnUse" x="38.4237" y="0" width="38" height="62" fill="black">
<rect fill="white" x="38.4237" width="38" height="62"/>
<path d="M74.5161 9.56474L71.5591 3.35385C71.0711 2.35719 70.2086 1.59407 69.1599 1.2311C68.1112 0.868132 66.9615 0.934784 65.9618 1.41651C64.962 1.89823 64.1935 2.75591 63.8239 3.80229C63.4543 4.84866 63.5137 5.99876 63.9891 7.00151L65.7444 10.6038L61.3119 12.0848C61.4743 11.5375 61.5608 10.9706 61.569 10.3998C61.5701 9.42115 61.3435 8.45564 60.9072 7.57961C60.4709 6.70358 59.8368 5.94107 59.055 5.35234C58.2732 4.76362 57.3651 4.36483 56.4026 4.18751C55.4402 4.01019 54.4496 4.05919 53.5094 4.33064C52.5691 4.60209 51.7049 5.08855 50.985 5.75157C50.2651 6.41458 49.7093 7.23596 49.3616 8.15077C49.0139 9.06558 48.8837 10.0487 48.9814 11.0225C49.0791 11.9963 49.402 12.934 49.9245 13.7615L43.8889 14.9173C42.6438 15.1578 41.5371 15.8638 40.7942 16.8915C40.0513 17.9193 39.7281 19.1916 39.8903 20.4493L41.0558 29.4262C41.1217 29.9356 41.2883 30.4267 41.5458 30.8711C41.8034 31.3155 42.1467 31.7043 42.5559 32.0148C42.965 32.3252 43.4318 32.5513 43.9291 32.6797C44.4265 32.8081 44.9443 32.8363 45.4527 32.7627C45.961 32.6891 46.4496 32.5151 46.8901 32.2509C47.3305 31.9867 47.7141 31.6376 48.0183 31.2238C48.3226 30.81 48.5416 30.3398 48.6625 29.8407C48.7834 29.3415 48.8038 28.8232 48.7225 28.3161L47.7456 22.2072L49.9886 21.7352L50.789 33.8365L49.0982 43.6266L42.7557 45.3742C42.1748 45.5339 41.6315 45.8077 41.1577 46.1797C40.6838 46.5518 40.2888 47.0145 39.9959 47.5409C39.7029 48.0673 39.5178 48.6469 39.4513 49.2456C39.3849 49.8444 39.4384 50.4504 39.6089 51.0283C39.7793 51.6061 40.0632 52.1442 40.444 52.6111C40.8247 53.0779 41.2947 53.4642 41.8265 53.7474C42.3583 54.0305 42.9411 54.2049 43.541 54.2602C44.1409 54.3155 44.7459 54.2507 45.3204 54.0696L53.0232 51.6432C54.4007 51.2106 55.6347 50.4116 56.593 49.3317C57.5513 48.2517 58.1979 46.9315 58.4636 45.5123L59.6755 39.0768L63.9465 45.4168L60.2228 54.4079C59.9803 54.9936 59.857 55.6219 59.8602 56.2559C59.8634 56.8899 59.993 57.5169 60.2414 58.1002C60.4898 58.6835 60.8521 59.2114 61.307 59.653C61.7618 60.0946 62.3002 60.4411 62.8906 60.6721C63.481 60.9032 64.1116 61.0141 64.7454 60.9986C65.3792 60.983 66.0035 60.8412 66.5819 60.5814C67.1602 60.3217 67.6809 59.9492 68.1136 59.4857C68.5462 59.0223 68.8821 58.4773 69.1016 57.8825L72.8666 47.6742C73.2048 46.7596 73.3375 45.7818 73.2554 44.8102C73.1733 43.8385 72.8784 42.8968 72.3916 42.0519C71.9899 41.1315 65.1405 30.0504 65.4139 29.314L63.9607 19.2941L71.7708 16.3668C72.4133 16.1204 72.9983 15.7444 73.4891 15.262C73.98 14.7797 74.3662 14.2014 74.6238 13.5632C74.8814 12.9251 75.0047 12.2407 74.9862 11.5528C74.9677 10.8649 74.8076 10.1881 74.5161 9.56474ZM55.2523 6.72646C56.2195 6.73718 57.1434 7.12892 57.8236 7.81665C58.5037 8.50439 58.8852 9.43263 58.8852 10.3999C58.8852 11.3671 58.5037 12.2954 57.8235 12.9831C57.1433 13.6708 56.2193 14.0625 55.2521 14.0732C54.285 14.0625 53.361 13.6707 52.6809 12.983C52.0007 12.2953 51.6192 11.367 51.6193 10.3998C51.6193 9.43251 52.0008 8.50429 52.6809 7.81657C53.3611 7.12885 54.2851 6.73715 55.2523 6.72646ZM72.1877 12.5785C72.0679 12.8793 71.8863 13.1516 71.6546 13.3777C71.4229 13.6038 71.1463 13.7787 70.8427 13.8912L62.0362 17.1928C61.7537 17.2985 61.5158 17.4978 61.3622 17.7575C61.2087 18.0173 61.1486 18.3217 61.1921 18.6203L62.799 29.6946C62.9259 30.5677 63.2167 31.4089 63.6561 32.174L70.0993 43.371C70.3931 43.8802 70.5711 44.4479 70.6206 45.0337C70.6701 45.6195 70.5899 46.2091 70.3858 46.7604L66.6208 56.9686C66.5198 57.2294 66.3684 57.4677 66.1751 57.6698C65.9819 57.8719 65.7506 58.0339 65.4946 58.1464C65.2386 58.2589 64.9629 58.3198 64.6833 58.3255C64.4037 58.3312 64.1257 58.2817 63.8654 58.1797C63.605 58.0778 63.3673 57.9254 63.1659 57.7314C62.9645 57.5373 62.8034 57.3054 62.6919 57.049C62.5804 56.7926 62.5205 56.5166 62.5159 56.237C62.5112 55.9574 62.5618 55.6797 62.6648 55.4197L66.6595 45.773C66.7429 45.5714 66.7751 45.3522 66.7532 45.1351C66.7314 44.9181 66.6562 44.7097 66.5343 44.5288L60.0691 34.9298C59.9204 34.7163 59.7123 34.5511 59.4707 34.4547C59.229 34.3583 58.9644 34.3349 58.7095 34.3874C58.4547 34.4398 58.2208 34.5659 58.0369 34.75C57.853 34.934 57.7272 35.168 57.6749 35.4229L55.8666 45.0218C55.689 45.9708 55.2565 46.8536 54.6156 47.5758C53.9746 48.2979 53.1494 48.832 52.2281 49.1211L44.5252 51.5476C44.2868 51.619 44.0366 51.6426 43.789 51.6171C43.5414 51.5915 43.3014 51.5174 43.0825 51.3988C42.8637 51.2802 42.6705 51.1196 42.5139 50.9261C42.3573 50.7327 42.2405 50.5102 42.1701 50.2714C42.0998 50.0327 42.0772 49.7824 42.1039 49.535C42.1305 49.2875 42.2057 49.0478 42.3253 48.8295C42.4448 48.6112 42.6062 48.4186 42.8004 48.2629C42.9945 48.1071 43.2175 47.9913 43.4566 47.922L50.6084 45.9524C50.8502 45.8859 51.0681 45.7519 51.2366 45.566C51.405 45.3802 51.5171 45.1502 51.5596 44.903C51.5596 44.903 53.444 33.9229 53.4376 33.8184L52.6021 21.185L53.9578 20.8997C54.2963 20.823 54.5911 20.6163 54.7785 20.3241C54.9658 20.0319 55.0308 19.6778 54.9592 19.3381C54.8877 18.9985 54.6854 18.7006 54.3961 18.5088C54.1068 18.317 53.7537 18.2468 53.413 18.3131L45.9696 19.88C45.6375 19.95 45.345 20.145 45.1528 20.4247C44.9605 20.7044 44.8833 21.0473 44.937 21.3824L46.1128 28.7343C46.1571 29.0562 46.0724 29.3825 45.877 29.6421C45.6816 29.9016 45.3915 30.0734 45.07 30.1199C44.7484 30.1664 44.4215 30.0839 44.1606 29.8903C43.8997 29.6967 43.726 29.4078 43.6772 29.0866L42.5104 20.1085C42.4348 19.5186 42.5867 18.9219 42.9353 18.44C43.2839 17.958 43.8031 17.627 44.3871 17.5142L52.3661 15.9861C53.297 16.4884 54.3427 16.7396 55.4002 16.715C56.4577 16.6903 57.4906 16.3907 58.3971 15.8456L68.0122 12.6328C68.1897 12.5719 68.3524 12.4741 68.4894 12.3459C68.6265 12.2176 68.7349 12.0618 68.8074 11.8887C68.8799 11.7156 68.915 11.5291 68.9103 11.3414C68.9056 11.1538 68.8612 10.9693 68.7801 10.8L66.3652 5.84368C66.2728 5.65565 66.2196 5.45082 66.2087 5.2416C66.1978 5.03238 66.2296 4.82314 66.302 4.62654C66.4102 4.34114 66.5995 4.09358 66.8465 3.91427C67.0935 3.73495 67.3875 3.63169 67.6924 3.61716C67.9973 3.60264 68.2998 3.67749 68.5627 3.83251C68.8257 3.98754 69.0376 4.21599 69.1725 4.4898L72.1308 10.7006C72.2712 10.9922 72.3488 11.31 72.3586 11.6335C72.3684 11.957 72.3102 12.279 72.1877 12.5785Z"/>
</mask>
<path d="M74.5161 9.56474L71.5591 3.35385C71.0711 2.35719 70.2086 1.59407 69.1599 1.2311C68.1112 0.868132 66.9615 0.934784 65.9618 1.41651C64.962 1.89823 64.1935 2.75591 63.8239 3.80229C63.4543 4.84866 63.5137 5.99876 63.9891 7.00151L65.7444 10.6038L61.3119 12.0848C61.4743 11.5375 61.5608 10.9706 61.569 10.3998C61.5701 9.42115 61.3435 8.45564 60.9072 7.57961C60.4709 6.70358 59.8368 5.94107 59.055 5.35234C58.2732 4.76362 57.3651 4.36483 56.4026 4.18751C55.4402 4.01019 54.4496 4.05919 53.5094 4.33064C52.5691 4.60209 51.7049 5.08855 50.985 5.75157C50.2651 6.41458 49.7093 7.23596 49.3616 8.15077C49.0139 9.06558 48.8837 10.0487 48.9814 11.0225C49.0791 11.9963 49.402 12.934 49.9245 13.7615L43.8889 14.9173C42.6438 15.1578 41.5371 15.8638 40.7942 16.8915C40.0513 17.9193 39.7281 19.1916 39.8903 20.4493L41.0558 29.4262C41.1217 29.9356 41.2883 30.4267 41.5458 30.8711C41.8034 31.3155 42.1467 31.7043 42.5559 32.0148C42.965 32.3252 43.4318 32.5513 43.9291 32.6797C44.4265 32.8081 44.9443 32.8363 45.4527 32.7627C45.961 32.6891 46.4496 32.5151 46.8901 32.2509C47.3305 31.9867 47.7141 31.6376 48.0183 31.2238C48.3226 30.81 48.5416 30.3398 48.6625 29.8407C48.7834 29.3415 48.8038 28.8232 48.7225 28.3161L47.7456 22.2072L49.9886 21.7352L50.789 33.8365L49.0982 43.6266L42.7557 45.3742C42.1748 45.5339 41.6315 45.8077 41.1577 46.1797C40.6838 46.5518 40.2888 47.0145 39.9959 47.5409C39.7029 48.0673 39.5178 48.6469 39.4513 49.2456C39.3849 49.8444 39.4384 50.4504 39.6089 51.0283C39.7793 51.6061 40.0632 52.1442 40.444 52.6111C40.8247 53.0779 41.2947 53.4642 41.8265 53.7474C42.3583 54.0305 42.9411 54.2049 43.541 54.2602C44.1409 54.3155 44.7459 54.2507 45.3204 54.0696L53.0232 51.6432C54.4007 51.2106 55.6347 50.4116 56.593 49.3317C57.5513 48.2517 58.1979 46.9315 58.4636 45.5123L59.6755 39.0768L63.9465 45.4168L60.2228 54.4079C59.9803 54.9936 59.857 55.6219 59.8602 56.2559C59.8634 56.8899 59.993 57.5169 60.2414 58.1002C60.4898 58.6835 60.8521 59.2114 61.307 59.653C61.7618 60.0946 62.3002 60.4411 62.8906 60.6721C63.481 60.9032 64.1116 61.0141 64.7454 60.9986C65.3792 60.983 66.0035 60.8412 66.5819 60.5814C67.1602 60.3217 67.6809 59.9492 68.1136 59.4857C68.5462 59.0223 68.8821 58.4773 69.1016 57.8825L72.8666 47.6742C73.2048 46.7596 73.3375 45.7818 73.2554 44.8102C73.1733 43.8385 72.8784 42.8968 72.3916 42.0519C71.9899 41.1315 65.1405 30.0504 65.4139 29.314L63.9607 19.2941L71.7708 16.3668C72.4133 16.1204 72.9983 15.7444 73.4891 15.262C73.98 14.7797 74.3662 14.2014 74.6238 13.5632C74.8814 12.9251 75.0047 12.2407 74.9862 11.5528C74.9677 10.8649 74.8076 10.1881 74.5161 9.56474ZM55.2523 6.72646C56.2195 6.73718 57.1434 7.12892 57.8236 7.81665C58.5037 8.50439 58.8852 9.43263 58.8852 10.3999C58.8852 11.3671 58.5037 12.2954 57.8235 12.9831C57.1433 13.6708 56.2193 14.0625 55.2521 14.0732C54.285 14.0625 53.361 13.6707 52.6809 12.983C52.0007 12.2953 51.6192 11.367 51.6193 10.3998C51.6193 9.43251 52.0008 8.50429 52.6809 7.81657C53.3611 7.12885 54.2851 6.73715 55.2523 6.72646ZM72.1877 12.5785C72.0679 12.8793 71.8863 13.1516 71.6546 13.3777C71.4229 13.6038 71.1463 13.7787 70.8427 13.8912L62.0362 17.1928C61.7537 17.2985 61.5158 17.4978 61.3622 17.7575C61.2087 18.0173 61.1486 18.3217 61.1921 18.6203L62.799 29.6946C62.9259 30.5677 63.2167 31.4089 63.6561 32.174L70.0993 43.371C70.3931 43.8802 70.5711 44.4479 70.6206 45.0337C70.6701 45.6195 70.5899 46.2091 70.3858 46.7604L66.6208 56.9686C66.5198 57.2294 66.3684 57.4677 66.1751 57.6698C65.9819 57.8719 65.7506 58.0339 65.4946 58.1464C65.2386 58.2589 64.9629 58.3198 64.6833 58.3255C64.4037 58.3312 64.1257 58.2817 63.8654 58.1797C63.605 58.0778 63.3673 57.9254 63.1659 57.7314C62.9645 57.5373 62.8034 57.3054 62.6919 57.049C62.5804 56.7926 62.5205 56.5166 62.5159 56.237C62.5112 55.9574 62.5618 55.6797 62.6648 55.4197L66.6595 45.773C66.7429 45.5714 66.7751 45.3522 66.7532 45.1351C66.7314 44.9181 66.6562 44.7097 66.5343 44.5288L60.0691 34.9298C59.9204 34.7163 59.7123 34.5511 59.4707 34.4547C59.229 34.3583 58.9644 34.3349 58.7095 34.3874C58.4547 34.4398 58.2208 34.5659 58.0369 34.75C57.853 34.934 57.7272 35.168 57.6749 35.4229L55.8666 45.0218C55.689 45.9708 55.2565 46.8536 54.6156 47.5758C53.9746 48.2979 53.1494 48.832 52.2281 49.1211L44.5252 51.5476C44.2868 51.619 44.0366 51.6426 43.789 51.6171C43.5414 51.5915 43.3014 51.5174 43.0825 51.3988C42.8637 51.2802 42.6705 51.1196 42.5139 50.9261C42.3573 50.7327 42.2405 50.5102 42.1701 50.2714C42.0998 50.0327 42.0772 49.7824 42.1039 49.535C42.1305 49.2875 42.2057 49.0478 42.3253 48.8295C42.4448 48.6112 42.6062 48.4186 42.8004 48.2629C42.9945 48.1071 43.2175 47.9913 43.4566 47.922L50.6084 45.9524C50.8502 45.8859 51.0681 45.7519 51.2366 45.566C51.405 45.3802 51.5171 45.1502 51.5596 44.903C51.5596 44.903 53.444 33.9229 53.4376 33.8184L52.6021 21.185L53.9578 20.8997C54.2963 20.823 54.5911 20.6163 54.7785 20.3241C54.9658 20.0319 55.0308 19.6778 54.9592 19.3381C54.8877 18.9985 54.6854 18.7006 54.3961 18.5088C54.1068 18.317 53.7537 18.2468 53.413 18.3131L45.9696 19.88C45.6375 19.95 45.345 20.145 45.1528 20.4247C44.9605 20.7044 44.8833 21.0473 44.937 21.3824L46.1128 28.7343C46.1571 29.0562 46.0724 29.3825 45.877 29.6421C45.6816 29.9016 45.3915 30.0734 45.07 30.1199C44.7484 30.1664 44.4215 30.0839 44.1606 29.8903C43.8997 29.6967 43.726 29.4078 43.6772 29.0866L42.5104 20.1085C42.4348 19.5186 42.5867 18.9219 42.9353 18.44C43.2839 17.958 43.8031 17.627 44.3871 17.5142L52.3661 15.9861C53.297 16.4884 54.3427 16.7396 55.4002 16.715C56.4577 16.6903 57.4906 16.3907 58.3971 15.8456L68.0122 12.6328C68.1897 12.5719 68.3524 12.4741 68.4894 12.3459C68.6265 12.2176 68.7349 12.0618 68.8074 11.8887C68.8799 11.7156 68.915 11.5291 68.9103 11.3414C68.9056 11.1538 68.8612 10.9693 68.7801 10.8L66.3652 5.84368C66.2728 5.65565 66.2196 5.45082 66.2087 5.2416C66.1978 5.03238 66.2296 4.82314 66.302 4.62654C66.4102 4.34114 66.5995 4.09358 66.8465 3.91427C67.0935 3.73495 67.3875 3.63169 67.6924 3.61716C67.9973 3.60264 68.2998 3.67749 68.5627 3.83251C68.8257 3.98754 69.0376 4.21599 69.1725 4.4898L72.1308 10.7006C72.2712 10.9922 72.3488 11.31 72.3586 11.6335C72.3684 11.957 72.3102 12.279 72.1877 12.5785Z" fill="black"/>
<path d="M74.5161 9.56474L71.5591 3.35385C71.0711 2.35719 70.2086 1.59407 69.1599 1.2311C68.1112 0.868132 66.9615 0.934784 65.9618 1.41651C64.962 1.89823 64.1935 2.75591 63.8239 3.80229C63.4543 4.84866 63.5137 5.99876 63.9891 7.00151L65.7444 10.6038L61.3119 12.0848C61.4743 11.5375 61.5608 10.9706 61.569 10.3998C61.5701 9.42115 61.3435 8.45564 60.9072 7.57961C60.4709 6.70358 59.8368 5.94107 59.055 5.35234C58.2732 4.76362 57.3651 4.36483 56.4026 4.18751C55.4402 4.01019 54.4496 4.05919 53.5094 4.33064C52.5691 4.60209 51.7049 5.08855 50.985 5.75157C50.2651 6.41458 49.7093 7.23596 49.3616 8.15077C49.0139 9.06558 48.8837 10.0487 48.9814 11.0225C49.0791 11.9963 49.402 12.934 49.9245 13.7615L43.8889 14.9173C42.6438 15.1578 41.5371 15.8638 40.7942 16.8915C40.0513 17.9193 39.7281 19.1916 39.8903 20.4493L41.0558 29.4262C41.1217 29.9356 41.2883 30.4267 41.5458 30.8711C41.8034 31.3155 42.1467 31.7043 42.5559 32.0148C42.965 32.3252 43.4318 32.5513 43.9291 32.6797C44.4265 32.8081 44.9443 32.8363 45.4527 32.7627C45.961 32.6891 46.4496 32.5151 46.8901 32.2509C47.3305 31.9867 47.7141 31.6376 48.0183 31.2238C48.3226 30.81 48.5416 30.3398 48.6625 29.8407C48.7834 29.3415 48.8038 28.8232 48.7225 28.3161L47.7456 22.2072L49.9886 21.7352L50.789 33.8365L49.0982 43.6266L42.7557 45.3742C42.1748 45.5339 41.6315 45.8077 41.1577 46.1797C40.6838 46.5518 40.2888 47.0145 39.9959 47.5409C39.7029 48.0673 39.5178 48.6469 39.4513 49.2456C39.3849 49.8444 39.4384 50.4504 39.6089 51.0283C39.7793 51.6061 40.0632 52.1442 40.444 52.6111C40.8247 53.0779 41.2947 53.4642 41.8265 53.7474C42.3583 54.0305 42.9411 54.2049 43.541 54.2602C44.1409 54.3155 44.7459 54.2507 45.3204 54.0696L53.0232 51.6432C54.4007 51.2106 55.6347 50.4116 56.593 49.3317C57.5513 48.2517 58.1979 46.9315 58.4636 45.5123L59.6755 39.0768L63.9465 45.4168L60.2228 54.4079C59.9803 54.9936 59.857 55.6219 59.8602 56.2559C59.8634 56.8899 59.993 57.5169 60.2414 58.1002C60.4898 58.6835 60.8521 59.2114 61.307 59.653C61.7618 60.0946 62.3002 60.4411 62.8906 60.6721C63.481 60.9032 64.1116 61.0141 64.7454 60.9986C65.3792 60.983 66.0035 60.8412 66.5819 60.5814C67.1602 60.3217 67.6809 59.9492 68.1136 59.4857C68.5462 59.0223 68.8821 58.4773 69.1016 57.8825L72.8666 47.6742C73.2048 46.7596 73.3375 45.7818 73.2554 44.8102C73.1733 43.8385 72.8784 42.8968 72.3916 42.0519C71.9899 41.1315 65.1405 30.0504 65.4139 29.314L63.9607 19.2941L71.7708 16.3668C72.4133 16.1204 72.9983 15.7444 73.4891 15.262C73.98 14.7797 74.3662 14.2014 74.6238 13.5632C74.8814 12.9251 75.0047 12.2407 74.9862 11.5528C74.9677 10.8649 74.8076 10.1881 74.5161 9.56474ZM55.2523 6.72646C56.2195 6.73718 57.1434 7.12892 57.8236 7.81665C58.5037 8.50439 58.8852 9.43263 58.8852 10.3999C58.8852 11.3671 58.5037 12.2954 57.8235 12.9831C57.1433 13.6708 56.2193 14.0625 55.2521 14.0732C54.285 14.0625 53.361 13.6707 52.6809 12.983C52.0007 12.2953 51.6192 11.367 51.6193 10.3998C51.6193 9.43251 52.0008 8.50429 52.6809 7.81657C53.3611 7.12885 54.2851 6.73715 55.2523 6.72646ZM72.1877 12.5785C72.0679 12.8793 71.8863 13.1516 71.6546 13.3777C71.4229 13.6038 71.1463 13.7787 70.8427 13.8912L62.0362 17.1928C61.7537 17.2985 61.5158 17.4978 61.3622 17.7575C61.2087 18.0173 61.1486 18.3217 61.1921 18.6203L62.799 29.6946C62.9259 30.5677 63.2167 31.4089 63.6561 32.174L70.0993 43.371C70.3931 43.8802 70.5711 44.4479 70.6206 45.0337C70.6701 45.6195 70.5899 46.2091 70.3858 46.7604L66.6208 56.9686C66.5198 57.2294 66.3684 57.4677 66.1751 57.6698C65.9819 57.8719 65.7506 58.0339 65.4946 58.1464C65.2386 58.2589 64.9629 58.3198 64.6833 58.3255C64.4037 58.3312 64.1257 58.2817 63.8654 58.1797C63.605 58.0778 63.3673 57.9254 63.1659 57.7314C62.9645 57.5373 62.8034 57.3054 62.6919 57.049C62.5804 56.7926 62.5205 56.5166 62.5159 56.237C62.5112 55.9574 62.5618 55.6797 62.6648 55.4197L66.6595 45.773C66.7429 45.5714 66.7751 45.3522 66.7532 45.1351C66.7314 44.9181 66.6562 44.7097 66.5343 44.5288L60.0691 34.9298C59.9204 34.7163 59.7123 34.5511 59.4707 34.4547C59.229 34.3583 58.9644 34.3349 58.7095 34.3874C58.4547 34.4398 58.2208 34.5659 58.0369 34.75C57.853 34.934 57.7272 35.168 57.6749 35.4229L55.8666 45.0218C55.689 45.9708 55.2565 46.8536 54.6156 47.5758C53.9746 48.2979 53.1494 48.832 52.2281 49.1211L44.5252 51.5476C44.2868 51.619 44.0366 51.6426 43.789 51.6171C43.5414 51.5915 43.3014 51.5174 43.0825 51.3988C42.8637 51.2802 42.6705 51.1196 42.5139 50.9261C42.3573 50.7327 42.2405 50.5102 42.1701 50.2714C42.0998 50.0327 42.0772 49.7824 42.1039 49.535C42.1305 49.2875 42.2057 49.0478 42.3253 48.8295C42.4448 48.6112 42.6062 48.4186 42.8004 48.2629C42.9945 48.1071 43.2175 47.9913 43.4566 47.922L50.6084 45.9524C50.8502 45.8859 51.0681 45.7519 51.2366 45.566C51.405 45.3802 51.5171 45.1502 51.5596 44.903C51.5596 44.903 53.444 33.9229 53.4376 33.8184L52.6021 21.185L53.9578 20.8997C54.2963 20.823 54.5911 20.6163 54.7785 20.3241C54.9658 20.0319 55.0308 19.6778 54.9592 19.3381C54.8877 18.9985 54.6854 18.7006 54.3961 18.5088C54.1068 18.317 53.7537 18.2468 53.413 18.3131L45.9696 19.88C45.6375 19.95 45.345 20.145 45.1528 20.4247C44.9605 20.7044 44.8833 21.0473 44.937 21.3824L46.1128 28.7343C46.1571 29.0562 46.0724 29.3825 45.877 29.6421C45.6816 29.9016 45.3915 30.0734 45.07 30.1199C44.7484 30.1664 44.4215 30.0839 44.1606 29.8903C43.8997 29.6967 43.726 29.4078 43.6772 29.0866L42.5104 20.1085C42.4348 19.5186 42.5867 18.9219 42.9353 18.44C43.2839 17.958 43.8031 17.627 44.3871 17.5142L52.3661 15.9861C53.297 16.4884 54.3427 16.7396 55.4002 16.715C56.4577 16.6903 57.4906 16.3907 58.3971 15.8456L68.0122 12.6328C68.1897 12.5719 68.3524 12.4741 68.4894 12.3459C68.6265 12.2176 68.7349 12.0618 68.8074 11.8887C68.8799 11.7156 68.915 11.5291 68.9103 11.3414C68.9056 11.1538 68.8612 10.9693 68.7801 10.8L66.3652 5.84368C66.2728 5.65565 66.2196 5.45082 66.2087 5.2416C66.1978 5.03238 66.2296 4.82314 66.302 4.62654C66.4102 4.34114 66.5995 4.09358 66.8465 3.91427C67.0935 3.73495 67.3875 3.63169 67.6924 3.61716C67.9973 3.60264 68.2998 3.67749 68.5627 3.83251C68.8257 3.98754 69.0376 4.21599 69.1725 4.4898L72.1308 10.7006C72.2712 10.9922 72.3488 11.31 72.3586 11.6335C72.3684 11.957 72.3102 12.279 72.1877 12.5785Z" stroke="white" stroke-width="2" mask="url(#path-3-outside-1_2_299)"/>
<mask id="path-4-outside-2_2_299" maskUnits="userSpaceOnUse" x="0" y="0.00205994" width="38" height="62" fill="black">
<rect fill="white" y="0.00205994" width="38" height="62"/>
<path d="M33.2341 45.3742L26.8909 43.6266L25.2001 33.8365L25.9999 21.7352L28.2429 22.2072L27.2658 28.3162C27.1849 28.8231 27.2056 29.3411 27.3267 29.84C27.4477 30.3389 27.6667 30.8088 27.971 31.2223C28.2752 31.6359 28.6586 31.9848 29.0989 32.2488C29.5392 32.5129 30.0275 32.6868 30.5356 32.7604C31.0437 32.8341 31.5613 32.806 32.0584 32.6778C32.5556 32.5496 33.0222 32.3239 33.4314 32.0138C33.8405 31.7037 34.1839 31.3154 34.4416 30.8714C34.6994 30.4273 34.8663 29.9365 34.9326 29.4275L36.0988 20.4493C36.2608 19.1913 35.9372 17.9188 35.194 16.8911C34.4507 15.8633 33.3437 15.1574 32.0982 14.9173L26.0638 13.7614C26.5863 12.934 26.9092 11.9963 27.0069 11.0225C27.1046 10.0487 26.9744 9.06558 26.6267 8.15078C26.2789 7.23599 25.7232 6.41462 25.0033 5.75163C24.2834 5.08863 23.4192 4.60218 22.4789 4.33073C21.5387 4.05929 20.5482 4.01028 19.5857 4.1876C18.6232 4.36492 17.7152 4.7637 16.9334 5.35241C16.1517 5.94112 15.5175 6.70362 15.0812 7.57963C14.6449 8.45564 14.4183 9.42113 14.4194 10.3998C14.4275 10.9706 14.5141 11.5377 14.6766 12.0849L10.244 10.6038L11.9993 7.00011C12.4737 5.99747 12.5323 4.84792 12.1624 3.80223C11.7924 2.75654 11.024 1.89956 10.0247 1.41824C9.02537 0.936912 7.87626 0.870304 6.82802 1.23294C5.77978 1.59558 4.91748 2.35803 4.42922 3.35398L1.47166 9.56475C1.18017 10.1882 1.02023 10.865 1.0018 11.553C0.983369 12.241 1.10685 12.9254 1.36455 13.5636C1.62225 14.2017 2.00863 14.78 2.49962 15.2623C2.99061 15.7445 3.57568 16.1205 4.21836 16.3668L12.0277 19.2941C11.7489 20.4326 10.7598 30.105 10.0402 30.855L3.59811 42.052C3.11061 42.8966 2.81524 43.8383 2.73303 44.8101C2.65083 45.7818 2.78379 46.7598 3.12247 47.6743L6.88748 57.8825C9.26194 63.8173 18.0651 60.413 15.7662 54.4078L12.0432 45.4168L16.3116 39.0782L17.5236 45.5124C17.7896 46.9317 18.4366 48.2519 19.3952 49.3319C20.3539 50.4118 21.5881 51.2107 22.9658 51.6432L30.6681 54.0697C36.5233 55.7527 39.0547 47.1481 33.2341 45.3742ZM20.7361 6.72647C21.7033 6.73718 22.6273 7.12892 23.3074 7.81665C23.9876 8.50439 24.3691 9.43263 24.369 10.3999C24.369 11.3671 23.9875 12.2954 23.3074 12.9831C22.6272 13.6708 21.7032 14.0625 20.736 14.0732C19.7688 14.0625 18.8449 13.6707 18.1647 12.983C17.4846 12.2953 17.1031 11.367 17.1031 10.3998C17.1031 9.43252 17.4846 8.5043 18.1648 7.81658C18.845 7.12886 19.7689 6.73715 20.7361 6.72647ZM33.7742 50.4764C33.5934 50.9122 33.2554 51.2642 32.8273 51.4626C32.3991 51.6611 31.9121 51.6914 31.4626 51.5477L23.7597 49.1211C22.8384 48.8321 22.0132 48.298 21.3723 47.5758C20.7315 46.8537 20.2992 45.9708 20.1218 45.0218L18.3135 35.4228C18.2611 35.1678 18.135 34.9339 17.951 34.7498C17.767 34.5657 17.533 34.4397 17.2781 34.3872C17.0232 34.3347 16.7584 34.3582 16.5167 34.4546C16.2749 34.5511 16.0667 34.7163 15.9179 34.9298L9.45405 44.5288C9.33228 44.7098 9.25718 44.9182 9.23545 45.1353C9.21372 45.3524 9.24603 45.5715 9.32949 45.773L13.3242 55.4198C13.4273 55.6799 13.4779 55.9578 13.4733 56.2375C13.4686 56.5173 13.4088 56.7933 13.2972 57.0499C13.1856 57.3064 13.0244 57.5384 12.823 57.7325C12.6215 57.9266 12.3836 58.079 12.1231 58.181C11.8626 58.2829 11.5845 58.3324 11.3048 58.3266C11.0251 58.3209 10.7493 58.2599 10.4932 58.1472C10.2371 58.0346 10.0058 57.8725 9.8125 57.6702C9.61922 57.4679 9.46779 57.2295 9.3669 56.9685L5.60258 46.7604C5.39843 46.2091 5.31827 45.6195 5.3678 45.0337C5.41733 44.4479 5.59533 43.8802 5.88913 43.371L12.3317 32.1728C12.7722 31.4082 13.0633 30.5667 13.1894 29.6933L14.797 18.6203C14.8402 18.3218 14.78 18.0174 14.6265 17.7578C14.473 17.4981 14.2353 17.2988 13.9528 17.1928L5.14634 13.8912C4.84345 13.7776 4.56746 13.6023 4.33588 13.3764C4.1043 13.1505 3.92218 12.879 3.80107 12.579C3.67996 12.279 3.6225 11.9571 3.63234 11.6338C3.64218 11.3104 3.7191 10.9926 3.85822 10.7006L6.81585 4.48963C6.99895 4.12359 7.31872 3.84428 7.70606 3.71206C8.0934 3.57983 8.51722 3.60531 8.88593 3.78298C9.25464 3.96066 9.53865 4.27626 9.67658 4.66161C9.81452 5.04695 9.79531 5.47109 9.62311 5.84239L7.20757 10.8C7.12654 10.9693 7.08228 11.1539 7.07769 11.3416C7.0731 11.5293 7.10829 11.7158 7.18095 11.8889C7.25361 12.0621 7.36208 12.2178 7.49925 12.346C7.63641 12.4742 7.79916 12.572 7.97679 12.6328L17.5909 15.8452C18.5002 16.3825 19.5322 16.6776 20.5882 16.7022C21.6441 16.7268 22.6888 16.4802 23.6222 15.9859L31.6013 17.5142C32.1853 17.6269 32.7044 17.9579 33.053 18.4399C33.4015 18.9219 33.5533 19.5186 33.4773 20.1085L32.3112 29.0868C32.2626 29.4081 32.0888 29.6972 31.8279 29.8909C31.5669 30.0845 31.2399 30.1671 30.9183 30.1206C30.5966 30.0741 30.3065 29.9022 30.1111 29.6424C29.9158 29.3827 29.8311 29.0563 29.8756 28.7343L31.0514 21.3825C31.1054 21.0474 31.0283 20.7043 30.836 20.4246C30.6437 20.1448 30.3511 19.9498 30.0189 19.8801L22.5754 18.3132C22.2355 18.2488 21.8839 18.3202 21.5961 18.5121C21.3082 18.704 21.1071 19.0011 21.0358 19.3396C20.9645 19.6781 21.0288 20.0311 21.2148 20.3228C21.4009 20.6144 21.6938 20.8216 22.0308 20.8997L23.3865 21.185L22.5516 33.8184C22.5451 33.9229 24.4289 44.903 24.4289 44.903C24.4714 45.1502 24.5835 45.3802 24.7519 45.566C24.9204 45.7519 25.1383 45.8859 25.3801 45.9524L32.5326 47.922C32.791 47.9945 33.0311 48.121 33.237 48.293C33.443 48.4651 33.6101 48.6788 33.7274 48.9202C33.8447 49.1616 33.9096 49.425 33.9176 49.6933C33.9257 49.9615 33.8768 50.2284 33.7742 50.4764Z"/>
</mask>
<path d="M33.2341 45.3742L26.8909 43.6266L25.2001 33.8365L25.9999 21.7352L28.2429 22.2072L27.2658 28.3162C27.1849 28.8231 27.2056 29.3411 27.3267 29.84C27.4477 30.3389 27.6667 30.8088 27.971 31.2223C28.2752 31.6359 28.6586 31.9848 29.0989 32.2488C29.5392 32.5129 30.0275 32.6868 30.5356 32.7604C31.0437 32.8341 31.5613 32.806 32.0584 32.6778C32.5556 32.5496 33.0222 32.3239 33.4314 32.0138C33.8405 31.7037 34.1839 31.3154 34.4416 30.8714C34.6994 30.4273 34.8663 29.9365 34.9326 29.4275L36.0988 20.4493C36.2608 19.1913 35.9372 17.9188 35.194 16.8911C34.4507 15.8633 33.3437 15.1574 32.0982 14.9173L26.0638 13.7614C26.5863 12.934 26.9092 11.9963 27.0069 11.0225C27.1046 10.0487 26.9744 9.06558 26.6267 8.15078C26.2789 7.23599 25.7232 6.41462 25.0033 5.75163C24.2834 5.08863 23.4192 4.60218 22.4789 4.33073C21.5387 4.05929 20.5482 4.01028 19.5857 4.1876C18.6232 4.36492 17.7152 4.7637 16.9334 5.35241C16.1517 5.94112 15.5175 6.70362 15.0812 7.57963C14.6449 8.45564 14.4183 9.42113 14.4194 10.3998C14.4275 10.9706 14.5141 11.5377 14.6766 12.0849L10.244 10.6038L11.9993 7.00011C12.4737 5.99747 12.5323 4.84792 12.1624 3.80223C11.7924 2.75654 11.024 1.89956 10.0247 1.41824C9.02537 0.936912 7.87626 0.870304 6.82802 1.23294C5.77978 1.59558 4.91748 2.35803 4.42922 3.35398L1.47166 9.56475C1.18017 10.1882 1.02023 10.865 1.0018 11.553C0.983369 12.241 1.10685 12.9254 1.36455 13.5636C1.62225 14.2017 2.00863 14.78 2.49962 15.2623C2.99061 15.7445 3.57568 16.1205 4.21836 16.3668L12.0277 19.2941C11.7489 20.4326 10.7598 30.105 10.0402 30.855L3.59811 42.052C3.11061 42.8966 2.81524 43.8383 2.73303 44.8101C2.65083 45.7818 2.78379 46.7598 3.12247 47.6743L6.88748 57.8825C9.26194 63.8173 18.0651 60.413 15.7662 54.4078L12.0432 45.4168L16.3116 39.0782L17.5236 45.5124C17.7896 46.9317 18.4366 48.2519 19.3952 49.3319C20.3539 50.4118 21.5881 51.2107 22.9658 51.6432L30.6681 54.0697C36.5233 55.7527 39.0547 47.1481 33.2341 45.3742ZM20.7361 6.72647C21.7033 6.73718 22.6273 7.12892 23.3074 7.81665C23.9876 8.50439 24.3691 9.43263 24.369 10.3999C24.369 11.3671 23.9875 12.2954 23.3074 12.9831C22.6272 13.6708 21.7032 14.0625 20.736 14.0732C19.7688 14.0625 18.8449 13.6707 18.1647 12.983C17.4846 12.2953 17.1031 11.367 17.1031 10.3998C17.1031 9.43252 17.4846 8.5043 18.1648 7.81658C18.845 7.12886 19.7689 6.73715 20.7361 6.72647ZM33.7742 50.4764C33.5934 50.9122 33.2554 51.2642 32.8273 51.4626C32.3991 51.6611 31.9121 51.6914 31.4626 51.5477L23.7597 49.1211C22.8384 48.8321 22.0132 48.298 21.3723 47.5758C20.7315 46.8537 20.2992 45.9708 20.1218 45.0218L18.3135 35.4228C18.2611 35.1678 18.135 34.9339 17.951 34.7498C17.767 34.5657 17.533 34.4397 17.2781 34.3872C17.0232 34.3347 16.7584 34.3582 16.5167 34.4546C16.2749 34.5511 16.0667 34.7163 15.9179 34.9298L9.45405 44.5288C9.33228 44.7098 9.25718 44.9182 9.23545 45.1353C9.21372 45.3524 9.24603 45.5715 9.32949 45.773L13.3242 55.4198C13.4273 55.6799 13.4779 55.9578 13.4733 56.2375C13.4686 56.5173 13.4088 56.7933 13.2972 57.0499C13.1856 57.3064 13.0244 57.5384 12.823 57.7325C12.6215 57.9266 12.3836 58.079 12.1231 58.181C11.8626 58.2829 11.5845 58.3324 11.3048 58.3266C11.0251 58.3209 10.7493 58.2599 10.4932 58.1472C10.2371 58.0346 10.0058 57.8725 9.8125 57.6702C9.61922 57.4679 9.46779 57.2295 9.3669 56.9685L5.60258 46.7604C5.39843 46.2091 5.31827 45.6195 5.3678 45.0337C5.41733 44.4479 5.59533 43.8802 5.88913 43.371L12.3317 32.1728C12.7722 31.4082 13.0633 30.5667 13.1894 29.6933L14.797 18.6203C14.8402 18.3218 14.78 18.0174 14.6265 17.7578C14.473 17.4981 14.2353 17.2988 13.9528 17.1928L5.14634 13.8912C4.84345 13.7776 4.56746 13.6023 4.33588 13.3764C4.1043 13.1505 3.92218 12.879 3.80107 12.579C3.67996 12.279 3.6225 11.9571 3.63234 11.6338C3.64218 11.3104 3.7191 10.9926 3.85822 10.7006L6.81585 4.48963C6.99895 4.12359 7.31872 3.84428 7.70606 3.71206C8.0934 3.57983 8.51722 3.60531 8.88593 3.78298C9.25464 3.96066 9.53865 4.27626 9.67658 4.66161C9.81452 5.04695 9.79531 5.47109 9.62311 5.84239L7.20757 10.8C7.12654 10.9693 7.08228 11.1539 7.07769 11.3416C7.0731 11.5293 7.10829 11.7158 7.18095 11.8889C7.25361 12.0621 7.36208 12.2178 7.49925 12.346C7.63641 12.4742 7.79916 12.572 7.97679 12.6328L17.5909 15.8452C18.5002 16.3825 19.5322 16.6776 20.5882 16.7022C21.6441 16.7268 22.6888 16.4802 23.6222 15.9859L31.6013 17.5142C32.1853 17.6269 32.7044 17.9579 33.053 18.4399C33.4015 18.9219 33.5533 19.5186 33.4773 20.1085L32.3112 29.0868C32.2626 29.4081 32.0888 29.6972 31.8279 29.8909C31.5669 30.0845 31.2399 30.1671 30.9183 30.1206C30.5966 30.0741 30.3065 29.9022 30.1111 29.6424C29.9158 29.3827 29.8311 29.0563 29.8756 28.7343L31.0514 21.3825C31.1054 21.0474 31.0283 20.7043 30.836 20.4246C30.6437 20.1448 30.3511 19.9498 30.0189 19.8801L22.5754 18.3132C22.2355 18.2488 21.8839 18.3202 21.5961 18.5121C21.3082 18.704 21.1071 19.0011 21.0358 19.3396C20.9645 19.6781 21.0288 20.0311 21.2148 20.3228C21.4009 20.6144 21.6938 20.8216 22.0308 20.8997L23.3865 21.185L22.5516 33.8184C22.5451 33.9229 24.4289 44.903 24.4289 44.903C24.4714 45.1502 24.5835 45.3802 24.7519 45.566C24.9204 45.7519 25.1383 45.8859 25.3801 45.9524L32.5326 47.922C32.791 47.9945 33.0311 48.121 33.237 48.293C33.443 48.4651 33.6101 48.6788 33.7274 48.9202C33.8447 49.1616 33.9096 49.425 33.9176 49.6933C33.9257 49.9615 33.8768 50.2284 33.7742 50.4764Z" fill="black"/>
<path d="M33.2341 45.3742L26.8909 43.6266L25.2001 33.8365L25.9999 21.7352L28.2429 22.2072L27.2658 28.3162C27.1849 28.8231 27.2056 29.3411 27.3267 29.84C27.4477 30.3389 27.6667 30.8088 27.971 31.2223C28.2752 31.6359 28.6586 31.9848 29.0989 32.2488C29.5392 32.5129 30.0275 32.6868 30.5356 32.7604C31.0437 32.8341 31.5613 32.806 32.0584 32.6778C32.5556 32.5496 33.0222 32.3239 33.4314 32.0138C33.8405 31.7037 34.1839 31.3154 34.4416 30.8714C34.6994 30.4273 34.8663 29.9365 34.9326 29.4275L36.0988 20.4493C36.2608 19.1913 35.9372 17.9188 35.194 16.8911C34.4507 15.8633 33.3437 15.1574 32.0982 14.9173L26.0638 13.7614C26.5863 12.934 26.9092 11.9963 27.0069 11.0225C27.1046 10.0487 26.9744 9.06558 26.6267 8.15078C26.2789 7.23599 25.7232 6.41462 25.0033 5.75163C24.2834 5.08863 23.4192 4.60218 22.4789 4.33073C21.5387 4.05929 20.5482 4.01028 19.5857 4.1876C18.6232 4.36492 17.7152 4.7637 16.9334 5.35241C16.1517 5.94112 15.5175 6.70362 15.0812 7.57963C14.6449 8.45564 14.4183 9.42113 14.4194 10.3998C14.4275 10.9706 14.5141 11.5377 14.6766 12.0849L10.244 10.6038L11.9993 7.00011C12.4737 5.99747 12.5323 4.84792 12.1624 3.80223C11.7924 2.75654 11.024 1.89956 10.0247 1.41824C9.02537 0.936912 7.87626 0.870304 6.82802 1.23294C5.77978 1.59558 4.91748 2.35803 4.42922 3.35398L1.47166 9.56475C1.18017 10.1882 1.02023 10.865 1.0018 11.553C0.983369 12.241 1.10685 12.9254 1.36455 13.5636C1.62225 14.2017 2.00863 14.78 2.49962 15.2623C2.99061 15.7445 3.57568 16.1205 4.21836 16.3668L12.0277 19.2941C11.7489 20.4326 10.7598 30.105 10.0402 30.855L3.59811 42.052C3.11061 42.8966 2.81524 43.8383 2.73303 44.8101C2.65083 45.7818 2.78379 46.7598 3.12247 47.6743L6.88748 57.8825C9.26194 63.8173 18.0651 60.413 15.7662 54.4078L12.0432 45.4168L16.3116 39.0782L17.5236 45.5124C17.7896 46.9317 18.4366 48.2519 19.3952 49.3319C20.3539 50.4118 21.5881 51.2107 22.9658 51.6432L30.6681 54.0697C36.5233 55.7527 39.0547 47.1481 33.2341 45.3742ZM20.7361 6.72647C21.7033 6.73718 22.6273 7.12892 23.3074 7.81665C23.9876 8.50439 24.3691 9.43263 24.369 10.3999C24.369 11.3671 23.9875 12.2954 23.3074 12.9831C22.6272 13.6708 21.7032 14.0625 20.736 14.0732C19.7688 14.0625 18.8449 13.6707 18.1647 12.983C17.4846 12.2953 17.1031 11.367 17.1031 10.3998C17.1031 9.43252 17.4846 8.5043 18.1648 7.81658C18.845 7.12886 19.7689 6.73715 20.7361 6.72647ZM33.7742 50.4764C33.5934 50.9122 33.2554 51.2642 32.8273 51.4626C32.3991 51.6611 31.9121 51.6914 31.4626 51.5477L23.7597 49.1211C22.8384 48.8321 22.0132 48.298 21.3723 47.5758C20.7315 46.8537 20.2992 45.9708 20.1218 45.0218L18.3135 35.4228C18.2611 35.1678 18.135 34.9339 17.951 34.7498C17.767 34.5657 17.533 34.4397 17.2781 34.3872C17.0232 34.3347 16.7584 34.3582 16.5167 34.4546C16.2749 34.5511 16.0667 34.7163 15.9179 34.9298L9.45405 44.5288C9.33228 44.7098 9.25718 44.9182 9.23545 45.1353C9.21372 45.3524 9.24603 45.5715 9.32949 45.773L13.3242 55.4198C13.4273 55.6799 13.4779 55.9578 13.4733 56.2375C13.4686 56.5173 13.4088 56.7933 13.2972 57.0499C13.1856 57.3064 13.0244 57.5384 12.823 57.7325C12.6215 57.9266 12.3836 58.079 12.1231 58.181C11.8626 58.2829 11.5845 58.3324 11.3048 58.3266C11.0251 58.3209 10.7493 58.2599 10.4932 58.1472C10.2371 58.0346 10.0058 57.8725 9.8125 57.6702C9.61922 57.4679 9.46779 57.2295 9.3669 56.9685L5.60258 46.7604C5.39843 46.2091 5.31827 45.6195 5.3678 45.0337C5.41733 44.4479 5.59533 43.8802 5.88913 43.371L12.3317 32.1728C12.7722 31.4082 13.0633 30.5667 13.1894 29.6933L14.797 18.6203C14.8402 18.3218 14.78 18.0174 14.6265 17.7578C14.473 17.4981 14.2353 17.2988 13.9528 17.1928L5.14634 13.8912C4.84345 13.7776 4.56746 13.6023 4.33588 13.3764C4.1043 13.1505 3.92218 12.879 3.80107 12.579C3.67996 12.279 3.6225 11.9571 3.63234 11.6338C3.64218 11.3104 3.7191 10.9926 3.85822 10.7006L6.81585 4.48963C6.99895 4.12359 7.31872 3.84428 7.70606 3.71206C8.0934 3.57983 8.51722 3.60531 8.88593 3.78298C9.25464 3.96066 9.53865 4.27626 9.67658 4.66161C9.81452 5.04695 9.79531 5.47109 9.62311 5.84239L7.20757 10.8C7.12654 10.9693 7.08228 11.1539 7.07769 11.3416C7.0731 11.5293 7.10829 11.7158 7.18095 11.8889C7.25361 12.0621 7.36208 12.2178 7.49925 12.346C7.63641 12.4742 7.79916 12.572 7.97679 12.6328L17.5909 15.8452C18.5002 16.3825 19.5322 16.6776 20.5882 16.7022C21.6441 16.7268 22.6888 16.4802 23.6222 15.9859L31.6013 17.5142C32.1853 17.6269 32.7044 17.9579 33.053 18.4399C33.4015 18.9219 33.5533 19.5186 33.4773 20.1085L32.3112 29.0868C32.2626 29.4081 32.0888 29.6972 31.8279 29.8909C31.5669 30.0845 31.2399 30.1671 30.9183 30.1206C30.5966 30.0741 30.3065 29.9022 30.1111 29.6424C29.9158 29.3827 29.8311 29.0563 29.8756 28.7343L31.0514 21.3825C31.1054 21.0474 31.0283 20.7043 30.836 20.4246C30.6437 20.1448 30.3511 19.9498 30.0189 19.8801L22.5754 18.3132C22.2355 18.2488 21.8839 18.3202 21.5961 18.5121C21.3082 18.704 21.1071 19.0011 21.0358 19.3396C20.9645 19.6781 21.0288 20.0311 21.2148 20.3228C21.4009 20.6144 21.6938 20.8216 22.0308 20.8997L23.3865 21.185L22.5516 33.8184C22.5451 33.9229 24.4289 44.903 24.4289 44.903C24.4714 45.1502 24.5835 45.3802 24.7519 45.566C24.9204 45.7519 25.1383 45.8859 25.3801 45.9524L32.5326 47.922C32.791 47.9945 33.0311 48.121 33.237 48.293C33.443 48.4651 33.6101 48.6788 33.7274 48.9202C33.8447 49.1616 33.9096 49.425 33.9176 49.6933C33.9257 49.9615 33.8768 50.2284 33.7742 50.4764Z" stroke="white" stroke-width="2" mask="url(#path-4-outside-2_2_299)"/>
</svg>
