<svg width="85" height="55" viewBox="0 0 85 55" fill="none" xmlns="http://www.w3.org/2000/svg">
<path d="M77.6815 8.67963H75.2876V6.58394C75.2876 5.30872 74.7817 4.0856 73.8808 3.18306C72.9799 2.28052 71.7577 1.77231 70.4825 1.76999H64.1954C62.9202 1.77231 61.698 2.28052 60.7971 3.18306C59.8962 4.0856 59.3902 5.30872 59.3902 6.58394V15.2385H56.2423V12.3449C56.2462 11.4352 55.9753 10.5455 55.465 9.79233C54.9547 9.03919 54.2289 8.45772 53.3825 8.12411C52.5362 7.7905 51.6088 7.72029 50.7218 7.92268C49.8349 8.12507 49.0298 8.59063 48.4119 9.25836C47.9923 8.80238 47.4826 8.4384 46.9151 8.18943C46.3476 7.94046 45.7346 7.81191 45.1149 7.81191C44.4952 7.81191 43.8823 7.94046 43.3148 8.18943C42.7473 8.4384 42.2376 8.80238 41.818 9.25836C41.3983 8.80238 40.8886 8.4384 40.3211 8.18943C39.7536 7.94046 39.1407 7.81191 38.521 7.81191C37.9013 7.81191 37.2883 7.94046 36.7208 8.18943C36.1533 8.4384 35.6436 8.80238 35.224 9.25836C34.6101 8.5762 33.8026 8.0977 32.9094 7.88684C32.0162 7.67597 31.08 7.74279 30.2258 8.07836C29.3716 8.41393 28.6402 9.00225 28.1294 9.76468C27.6186 10.5271 27.3527 11.4273 27.3673 12.3449V15.2385H25.0875V6.58394C25.0877 5.32076 24.5913 4.10812 23.7055 3.20756C22.8197 2.30701 21.6155 1.7907 20.3525 1.76999H14.0654C12.7902 1.77231 11.568 2.28052 10.6671 3.18306C9.76617 4.0856 9.2602 5.30872 9.2602 6.58394V8.67963H6.86637C5.44383 8.68195 4.08022 9.24808 3.07434 10.254C2.06845 11.2599 1.50232 12.6235 1.5 14.046V29.8295C1.50232 31.252 2.06845 32.6156 3.07434 33.6215C4.08022 34.6274 5.44383 35.1935 6.86637 35.1958H9.2602V37.3003C9.26252 38.574 9.76952 39.7949 10.6702 40.6955C11.5708 41.5962 12.7917 42.1032 14.0654 42.1055H20.3525C21.6262 42.1032 22.847 41.5962 23.7477 40.6955C24.6483 39.7949 25.1553 38.574 25.1576 37.3003V28.6194H27.3673V29.4963C27.3613 31.3997 27.9432 33.2585 29.0334 34.8188L30.6117 37.046V52.4547C30.6117 52.8035 30.7503 53.1381 30.9969 53.3847C31.2436 53.6314 31.5782 53.77 31.927 53.77H50.6479C50.9968 53.77 51.3313 53.6314 51.578 53.3847C51.8246 53.1381 51.9632 52.8035 51.9632 52.4547V37.1951L53.4714 35.6869C54.3477 34.8193 55.0436 33.7869 55.5192 32.6492C55.9948 31.5115 56.2405 30.2909 56.2423 29.0578V28.6194H59.4253V37.2828C59.4275 38.5504 59.9297 39.766 60.8228 40.6657C61.7159 41.5653 62.9278 42.0764 64.1954 42.0879H70.4474C71.7211 42.0856 72.942 41.5786 73.8426 40.678C74.7432 39.7773 75.2502 38.5565 75.2526 37.2828V35.1783H77.6464C79.0689 35.176 80.4325 34.6099 81.4384 33.604C82.4443 32.5981 83.0104 31.2345 83.0128 29.8119V14.0285C83.0059 12.615 82.4425 11.2612 81.4447 10.26C80.4469 9.25893 79.0949 8.69115 77.6815 8.67963ZM56.2072 18.176C56.2072 18.0796 56.2072 17.9743 56.2072 17.8691H59.4165V25.9888H56.2423V18.974C56.2409 18.7068 56.2204 18.4402 56.1809 18.176H56.2072Z" fill="white"/>
<mask id="path-2-outside-1_2_310" maskUnits="userSpaceOnUse" x="0.5" y="0.769989" width="84" height="54" fill="black">
<rect fill="white" x="0.5" y="0.769989" width="84" height="54"/>
<path d="M77.6815 8.67963H75.2876V6.58394C75.2876 5.30872 74.7817 4.0856 73.8808 3.18306C72.9799 2.28052 71.7577 1.77231 70.4825 1.76999H64.1954C62.9202 1.77231 61.698 2.28052 60.7971 3.18306C59.8962 4.0856 59.3902 5.30872 59.3902 6.58394V15.2385H56.2423V12.3449C56.2462 11.4352 55.9753 10.5455 55.465 9.79233C54.9547 9.03919 54.2289 8.45772 53.3825 8.12411C52.5362 7.7905 51.6088 7.72029 50.7218 7.92268C49.8349 8.12507 49.0298 8.59063 48.4119 9.25836C47.9923 8.80238 47.4826 8.4384 46.9151 8.18943C46.3476 7.94046 45.7346 7.81191 45.1149 7.81191C44.4952 7.81191 43.8823 7.94046 43.3148 8.18943C42.7473 8.4384 42.2376 8.80238 41.818 9.25836C41.3983 8.80238 40.8886 8.4384 40.3211 8.18943C39.7536 7.94046 39.1407 7.81191 38.521 7.81191C37.9013 7.81191 37.2883 7.94046 36.7208 8.18943C36.1533 8.4384 35.6436 8.80238 35.224 9.25836C34.6101 8.5762 33.8026 8.0977 32.9094 7.88684C32.0162 7.67597 31.08 7.74279 30.2258 8.07836C29.3716 8.41393 28.6402 9.00225 28.1294 9.76468C27.6186 10.5271 27.3527 11.4273 27.3673 12.3449V15.2385H25.0875V6.58394C25.0877 5.32076 24.5913 4.10812 23.7055 3.20756C22.8197 2.30701 21.6155 1.7907 20.3525 1.76999H14.0654C12.7902 1.77231 11.568 2.28052 10.6671 3.18306C9.76617 4.0856 9.2602 5.30872 9.2602 6.58394V8.67963H6.86637C5.44383 8.68195 4.08022 9.24808 3.07434 10.254C2.06845 11.2599 1.50232 12.6235 1.5 14.046V29.8295C1.50232 31.252 2.06845 32.6156 3.07434 33.6215C4.08022 34.6274 5.44383 35.1935 6.86637 35.1958H9.2602V37.3003C9.26252 38.574 9.76952 39.7949 10.6702 40.6955C11.5708 41.5962 12.7917 42.1032 14.0654 42.1055H20.3525C21.6262 42.1032 22.847 41.5962 23.7477 40.6955C24.6483 39.7949 25.1553 38.574 25.1576 37.3003V28.6194H27.3673V29.4963C27.3613 31.3997 27.9432 33.2585 29.0334 34.8188L30.6117 37.046V52.4547C30.6117 52.8035 30.7503 53.1381 30.9969 53.3847C31.2436 53.6314 31.5782 53.77 31.927 53.77H50.6479C50.9968 53.77 51.3313 53.6314 51.578 53.3847C51.8246 53.1381 51.9632 52.8035 51.9632 52.4547V37.1951L53.4714 35.6869C54.3477 34.8193 55.0436 33.7869 55.5192 32.6492C55.9948 31.5115 56.2405 30.2909 56.2423 29.0578V28.6194H59.4253V37.2828C59.4275 38.5504 59.9297 39.766 60.8228 40.6657C61.7159 41.5653 62.9278 42.0764 64.1954 42.0879H70.4474C71.7211 42.0856 72.942 41.5786 73.8426 40.678C74.7432 39.7773 75.2502 38.5565 75.2526 37.2828V35.1783H77.6464C79.0689 35.176 80.4325 34.6099 81.4384 33.604C82.4443 32.5981 83.0104 31.2345 83.0128 29.8119V14.0285C83.0059 12.615 82.4425 11.2612 81.4447 10.26C80.4469 9.25893 79.0949 8.69115 77.6815 8.67963ZM80.4173 29.8119C80.4173 30.5375 80.129 31.2334 79.616 31.7464C79.1029 32.2595 78.407 32.5477 77.6815 32.5477H75.2876V11.3102H77.6815C78.407 11.3102 79.1029 11.5984 79.616 12.1115C80.129 12.6246 80.4173 13.3204 80.4173 14.046V29.8119ZM72.6571 37.2828C72.6571 37.5683 72.6008 37.8511 72.4915 38.1149C72.3822 38.3788 72.2221 38.6185 72.0201 38.8204C71.8182 39.0224 71.5785 39.1825 71.3146 39.2918C71.0508 39.4011 70.768 39.4574 70.4825 39.4574H64.1954C63.9098 39.4574 63.627 39.4011 63.3632 39.2918C63.0994 39.1825 62.8596 39.0224 62.6577 38.8204C62.4558 38.6185 62.2956 38.3788 62.1863 38.1149C62.077 37.8511 62.0208 37.5683 62.0208 37.2828V6.59271C62.0196 6.30599 62.075 6.02184 62.1836 5.7565C62.2923 5.49116 62.4521 5.24982 62.6541 5.04626C62.856 4.8427 63.096 4.6809 63.3605 4.57012C63.625 4.45933 63.9087 4.40171 64.1954 4.40056H70.4474C71.0249 4.40288 71.578 4.63394 71.9856 5.04315C72.3932 5.45236 72.622 6.00639 72.622 6.58394V37.274L72.6571 37.2828ZM49.3326 36.6427V51.1394H33.2423V36.6427C33.2448 36.3753 33.1619 36.1142 33.0055 35.8973L31.2518 33.3281C30.4515 32.2126 30.0137 30.8779 29.9979 29.505V28.6282H35.4344C35.381 28.9705 35.3546 29.3164 35.3555 29.6629C35.3148 30.0117 35.4143 30.3624 35.6322 30.6379C35.8501 30.9133 36.1685 31.0909 36.5173 31.1316C36.8662 31.1723 37.2169 31.0727 37.4923 30.8549C37.7678 30.637 37.9454 30.3186 37.9861 29.9698L38.4859 27.7601C38.7107 27.3531 39.0079 26.9906 39.3628 26.6903C41.9407 24.3579 47.7367 24.2965 49.7448 24.4719C49.9153 24.4888 50.0875 24.4717 50.2515 24.4217C50.4154 24.3717 50.5678 24.2897 50.6999 24.1804C50.832 24.0712 50.9411 23.9368 51.021 23.7852C51.1008 23.6335 51.1499 23.4676 51.1653 23.2969C51.1997 22.9518 51.0964 22.6072 50.878 22.3379C50.6596 22.0686 50.3437 21.8964 49.999 21.8588L43.6243 21.1398H43.5191C41.7653 21.0872 40.757 20.4032 40.3273 18.9827C40.2331 18.6733 40.2134 18.346 40.2698 18.0275C40.3262 17.709 40.457 17.4084 40.6517 17.1501C40.8458 16.8799 41.1011 16.6595 41.3968 16.5071C41.6925 16.3547 42.0202 16.2745 42.3528 16.2732H50.9987C51.6963 16.2732 52.3654 16.5504 52.8588 17.0437C53.3521 17.537 53.6292 18.2061 53.6292 18.9038V29.0578C53.6268 29.9434 53.4497 30.8197 53.1082 31.6367C52.7666 32.4537 52.2673 33.1954 51.6388 33.8192L49.736 35.7044C49.4839 35.9523 49.3391 36.2892 49.3326 36.6427ZM25.1226 17.8691H27.4287C27.4761 18.7564 27.7847 19.6098 28.3157 20.3223C28.8467 21.0347 29.5764 21.5742 30.4132 21.8731C31.2499 22.172 32.1563 22.217 33.0185 22.0022C33.8807 21.7875 34.6602 21.3227 35.2591 20.6663C35.6746 21.12 36.1781 21.4845 36.7388 21.7377C37.2995 21.9909 37.9058 22.1276 38.521 22.1394C38.7226 22.1394 38.9156 22.1394 39.1172 22.0868C39.4878 22.4597 39.9137 22.7732 40.3799 23.0163C39.3367 23.4231 38.3768 24.0174 37.5477 24.77C37.1286 25.1436 36.7575 25.5677 36.4428 26.0327H25.1226V17.8691ZM31.927 10.4421C32.4316 10.4421 32.9156 10.6426 33.2725 10.9994C33.6293 11.3563 33.8298 11.8403 33.8298 12.3449V17.6061C33.797 18.0872 33.5828 18.5381 33.2304 18.8673C32.878 19.1966 32.4137 19.3797 31.9314 19.3797C31.4491 19.3797 30.9848 19.1966 30.6323 18.8673C30.2799 18.5381 30.0657 18.0872 30.033 17.6061V12.3449C30.033 11.8418 30.2322 11.3591 30.5872 11.0025C30.9421 10.6459 31.4239 10.4444 31.927 10.4421ZM53.6117 12.3449V14.3704C52.8141 13.9007 51.9067 13.6496 50.9811 13.6427H49.8149V12.3449C49.7972 12.0848 49.8332 11.8237 49.9206 11.5781C50.008 11.3324 50.1449 11.1073 50.3229 10.9168C50.501 10.7262 50.7162 10.5743 50.9554 10.4705C51.1946 10.3666 51.4525 10.313 51.7133 10.313C51.9741 10.313 52.232 10.3666 52.4712 10.4705C52.7104 10.5743 52.9256 10.7262 53.1037 10.9168C53.2817 11.1073 53.4186 11.3324 53.506 11.5781C53.5934 11.8237 53.6294 12.0848 53.6117 12.3449ZM47.0177 12.3449V13.6427H43.2209V12.3449C43.2032 12.0848 43.2392 11.8237 43.3266 11.5781C43.414 11.3324 43.5509 11.1073 43.729 10.9168C43.907 10.7262 44.1223 10.5743 44.3614 10.4705C44.6006 10.3666 44.8586 10.313 45.1193 10.313C45.3801 10.313 45.638 10.3666 45.8772 10.4705C46.1164 10.5743 46.3317 10.7262 46.5097 10.9168C46.6877 11.1073 46.8247 11.3324 46.9121 11.5781C46.9994 11.8237 47.0354 12.0848 47.0177 12.3449ZM40.4237 12.3449V14.0372C39.6577 14.3631 38.992 14.8866 38.4947 15.5542C38.0961 16.0727 37.8118 16.6697 37.6607 17.306C37.5096 17.9423 37.4949 18.6034 37.6178 19.2458C37.3117 19.0881 37.0549 18.8493 36.8755 18.5554C36.6961 18.2616 36.601 17.924 36.6006 17.5797V12.3186C36.583 12.0584 36.6189 11.7974 36.7063 11.5518C36.7937 11.3061 36.9307 11.081 37.1087 10.8905C37.2867 10.6999 37.502 10.548 37.7411 10.4442C37.9803 10.3403 38.2383 10.2867 38.499 10.2867C38.7598 10.2867 39.0178 10.3403 39.2569 10.4442C39.4961 10.548 39.7114 10.6999 39.8894 10.8905C40.0674 11.081 40.2044 11.3061 40.2918 11.5518C40.3792 11.7974 40.4151 12.0584 40.3974 12.3186L40.4237 12.3449ZM56.2072 18.176C56.2072 18.0796 56.2072 17.9743 56.2072 17.8691H59.4165V25.9888H56.2423V18.974C56.2409 18.7068 56.2204 18.4402 56.1809 18.176H56.2072ZM14.118 39.4574C13.5413 39.4574 12.9881 39.2283 12.5803 38.8204C12.1725 38.4126 11.9434 37.8595 11.9434 37.2828V6.59271C11.9434 6.01516 12.1722 5.46113 12.5798 5.05192C12.9873 4.64271 13.5404 4.41165 14.118 4.40933H20.3525C20.93 4.41165 21.4831 4.64271 21.8907 5.05192C22.2982 5.46113 22.5271 6.01516 22.5271 6.59271V37.2828C22.5271 37.8595 22.298 38.4126 21.8901 38.8204C21.4823 39.2283 20.9292 39.4574 20.3525 39.4574H14.118ZM4.13058 29.8119V14.0285C4.13058 13.3029 4.41881 12.607 4.93187 12.094C5.44493 11.5809 6.14079 11.2927 6.86637 11.2927H9.2602V32.5477H6.86637C6.14079 32.5477 5.44493 32.2595 4.93187 31.7464C4.41881 31.2334 4.13058 30.5375 4.13058 29.8119Z"/>
</mask>
<path d="M77.6815 8.67963H75.2876V6.58394C75.2876 5.30872 74.7817 4.0856 73.8808 3.18306C72.9799 2.28052 71.7577 1.77231 70.4825 1.76999H64.1954C62.9202 1.77231 61.698 2.28052 60.7971 3.18306C59.8962 4.0856 59.3902 5.30872 59.3902 6.58394V15.2385H56.2423V12.3449C56.2462 11.4352 55.9753 10.5455 55.465 9.79233C54.9547 9.03919 54.2289 8.45772 53.3825 8.12411C52.5362 7.7905 51.6088 7.72029 50.7218 7.92268C49.8349 8.12507 49.0298 8.59063 48.4119 9.25836C47.9923 8.80238 47.4826 8.4384 46.9151 8.18943C46.3476 7.94046 45.7346 7.81191 45.1149 7.81191C44.4952 7.81191 43.8823 7.94046 43.3148 8.18943C42.7473 8.4384 42.2376 8.80238 41.818 9.25836C41.3983 8.80238 40.8886 8.4384 40.3211 8.18943C39.7536 7.94046 39.1407 7.81191 38.521 7.81191C37.9013 7.81191 37.2883 7.94046 36.7208 8.18943C36.1533 8.4384 35.6436 8.80238 35.224 9.25836C34.6101 8.5762 33.8026 8.0977 32.9094 7.88684C32.0162 7.67597 31.08 7.74279 30.2258 8.07836C29.3716 8.41393 28.6402 9.00225 28.1294 9.76468C27.6186 10.5271 27.3527 11.4273 27.3673 12.3449V15.2385H25.0875V6.58394C25.0877 5.32076 24.5913 4.10812 23.7055 3.20756C22.8197 2.30701 21.6155 1.7907 20.3525 1.76999H14.0654C12.7902 1.77231 11.568 2.28052 10.6671 3.18306C9.76617 4.0856 9.2602 5.30872 9.2602 6.58394V8.67963H6.86637C5.44383 8.68195 4.08022 9.24808 3.07434 10.254C2.06845 11.2599 1.50232 12.6235 1.5 14.046V29.8295C1.50232 31.252 2.06845 32.6156 3.07434 33.6215C4.08022 34.6274 5.44383 35.1935 6.86637 35.1958H9.2602V37.3003C9.26252 38.574 9.76952 39.7949 10.6702 40.6955C11.5708 41.5962 12.7917 42.1032 14.0654 42.1055H20.3525C21.6262 42.1032 22.847 41.5962 23.7477 40.6955C24.6483 39.7949 25.1553 38.574 25.1576 37.3003V28.6194H27.3673V29.4963C27.3613 31.3997 27.9432 33.2585 29.0334 34.8188L30.6117 37.046V52.4547C30.6117 52.8035 30.7503 53.1381 30.9969 53.3847C31.2436 53.6314 31.5782 53.77 31.927 53.77H50.6479C50.9968 53.77 51.3313 53.6314 51.578 53.3847C51.8246 53.1381 51.9632 52.8035 51.9632 52.4547V37.1951L53.4714 35.6869C54.3477 34.8193 55.0436 33.7869 55.5192 32.6492C55.9948 31.5115 56.2405 30.2909 56.2423 29.0578V28.6194H59.4253V37.2828C59.4275 38.5504 59.9297 39.766 60.8228 40.6657C61.7159 41.5653 62.9278 42.0764 64.1954 42.0879H70.4474C71.7211 42.0856 72.942 41.5786 73.8426 40.678C74.7432 39.7773 75.2502 38.5565 75.2526 37.2828V35.1783H77.6464C79.0689 35.176 80.4325 34.6099 81.4384 33.604C82.4443 32.5981 83.0104 31.2345 83.0128 29.8119V14.0285C83.0059 12.615 82.4425 11.2612 81.4447 10.26C80.4469 9.25893 79.0949 8.69115 77.6815 8.67963ZM80.4173 29.8119C80.4173 30.5375 80.129 31.2334 79.616 31.7464C79.1029 32.2595 78.407 32.5477 77.6815 32.5477H75.2876V11.3102H77.6815C78.407 11.3102 79.1029 11.5984 79.616 12.1115C80.129 12.6246 80.4173 13.3204 80.4173 14.046V29.8119ZM72.6571 37.2828C72.6571 37.5683 72.6008 37.8511 72.4915 38.1149C72.3822 38.3788 72.2221 38.6185 72.0201 38.8204C71.8182 39.0224 71.5785 39.1825 71.3146 39.2918C71.0508 39.4011 70.768 39.4574 70.4825 39.4574H64.1954C63.9098 39.4574 63.627 39.4011 63.3632 39.2918C63.0994 39.1825 62.8596 39.0224 62.6577 38.8204C62.4558 38.6185 62.2956 38.3788 62.1863 38.1149C62.077 37.8511 62.0208 37.5683 62.0208 37.2828V6.59271C62.0196 6.30599 62.075 6.02184 62.1836 5.7565C62.2923 5.49116 62.4521 5.24982 62.6541 5.04626C62.856 4.8427 63.096 4.6809 63.3605 4.57012C63.625 4.45933 63.9087 4.40171 64.1954 4.40056H70.4474C71.0249 4.40288 71.578 4.63394 71.9856 5.04315C72.3932 5.45236 72.622 6.00639 72.622 6.58394V37.274L72.6571 37.2828ZM49.3326 36.6427V51.1394H33.2423V36.6427C33.2448 36.3753 33.1619 36.1142 33.0055 35.8973L31.2518 33.3281C30.4515 32.2126 30.0137 30.8779 29.9979 29.505V28.6282H35.4344C35.381 28.9705 35.3546 29.3164 35.3555 29.6629C35.3148 30.0117 35.4143 30.3624 35.6322 30.6379C35.8501 30.9133 36.1685 31.0909 36.5173 31.1316C36.8662 31.1723 37.2169 31.0727 37.4923 30.8549C37.7678 30.637 37.9454 30.3186 37.9861 29.9698L38.4859 27.7601C38.7107 27.3531 39.0079 26.9906 39.3628 26.6903C41.9407 24.3579 47.7367 24.2965 49.7448 24.4719C49.9153 24.4888 50.0875 24.4717 50.2515 24.4217C50.4154 24.3717 50.5678 24.2897 50.6999 24.1804C50.832 24.0712 50.9411 23.9368 51.021 23.7852C51.1008 23.6335 51.1499 23.4676 51.1653 23.2969C51.1997 22.9518 51.0964 22.6072 50.878 22.3379C50.6596 22.0686 50.3437 21.8964 49.999 21.8588L43.6243 21.1398H43.5191C41.7653 21.0872 40.757 20.4032 40.3273 18.9827C40.2331 18.6733 40.2134 18.346 40.2698 18.0275C40.3262 17.709 40.457 17.4084 40.6517 17.1501C40.8458 16.8799 41.1011 16.6595 41.3968 16.5071C41.6925 16.3547 42.0202 16.2745 42.3528 16.2732H50.9987C51.6963 16.2732 52.3654 16.5504 52.8588 17.0437C53.3521 17.537 53.6292 18.2061 53.6292 18.9038V29.0578C53.6268 29.9434 53.4497 30.8197 53.1082 31.6367C52.7666 32.4537 52.2673 33.1954 51.6388 33.8192L49.736 35.7044C49.4839 35.9523 49.3391 36.2892 49.3326 36.6427ZM25.1226 17.8691H27.4287C27.4761 18.7564 27.7847 19.6098 28.3157 20.3223C28.8467 21.0347 29.5764 21.5742 30.4132 21.8731C31.2499 22.172 32.1563 22.217 33.0185 22.0022C33.8807 21.7875 34.6602 21.3227 35.2591 20.6663C35.6746 21.12 36.1781 21.4845 36.7388 21.7377C37.2995 21.9909 37.9058 22.1276 38.521 22.1394C38.7226 22.1394 38.9156 22.1394 39.1172 22.0868C39.4878 22.4597 39.9137 22.7732 40.3799 23.0163C39.3367 23.4231 38.3768 24.0174 37.5477 24.77C37.1286 25.1436 36.7575 25.5677 36.4428 26.0327H25.1226V17.8691ZM31.927 10.4421C32.4316 10.4421 32.9156 10.6426 33.2725 10.9994C33.6293 11.3563 33.8298 11.8403 33.8298 12.3449V17.6061C33.797 18.0872 33.5828 18.5381 33.2304 18.8673C32.878 19.1966 32.4137 19.3797 31.9314 19.3797C31.4491 19.3797 30.9848 19.1966 30.6323 18.8673C30.2799 18.5381 30.0657 18.0872 30.033 17.6061V12.3449C30.033 11.8418 30.2322 11.3591 30.5872 11.0025C30.9421 10.6459 31.4239 10.4444 31.927 10.4421ZM53.6117 12.3449V14.3704C52.8141 13.9007 51.9067 13.6496 50.9811 13.6427H49.8149V12.3449C49.7972 12.0848 49.8332 11.8237 49.9206 11.5781C50.008 11.3324 50.1449 11.1073 50.3229 10.9168C50.501 10.7262 50.7162 10.5743 50.9554 10.4705C51.1946 10.3666 51.4525 10.313 51.7133 10.313C51.9741 10.313 52.232 10.3666 52.4712 10.4705C52.7104 10.5743 52.9256 10.7262 53.1037 10.9168C53.2817 11.1073 53.4186 11.3324 53.506 11.5781C53.5934 11.8237 53.6294 12.0848 53.6117 12.3449ZM47.0177 12.3449V13.6427H43.2209V12.3449C43.2032 12.0848 43.2392 11.8237 43.3266 11.5781C43.414 11.3324 43.5509 11.1073 43.729 10.9168C43.907 10.7262 44.1223 10.5743 44.3614 10.4705C44.6006 10.3666 44.8586 10.313 45.1193 10.313C45.3801 10.313 45.638 10.3666 45.8772 10.4705C46.1164 10.5743 46.3317 10.7262 46.5097 10.9168C46.6877 11.1073 46.8247 11.3324 46.9121 11.5781C46.9994 11.8237 47.0354 12.0848 47.0177 12.3449ZM40.4237 12.3449V14.0372C39.6577 14.3631 38.992 14.8866 38.4947 15.5542C38.0961 16.0727 37.8118 16.6697 37.6607 17.306C37.5096 17.9423 37.4949 18.6034 37.6178 19.2458C37.3117 19.0881 37.0549 18.8493 36.8755 18.5554C36.6961 18.2616 36.601 17.924 36.6006 17.5797V12.3186C36.583 12.0584 36.6189 11.7974 36.7063 11.5518C36.7937 11.3061 36.9307 11.081 37.1087 10.8905C37.2867 10.6999 37.502 10.548 37.7411 10.4442C37.9803 10.3403 38.2383 10.2867 38.499 10.2867C38.7598 10.2867 39.0178 10.3403 39.2569 10.4442C39.4961 10.548 39.7114 10.6999 39.8894 10.8905C40.0674 11.081 40.2044 11.3061 40.2918 11.5518C40.3792 11.7974 40.4151 12.0584 40.3974 12.3186L40.4237 12.3449ZM56.2072 18.176C56.2072 18.0796 56.2072 17.9743 56.2072 17.8691H59.4165V25.9888H56.2423V18.974C56.2409 18.7068 56.2204 18.4402 56.1809 18.176H56.2072ZM14.118 39.4574C13.5413 39.4574 12.9881 39.2283 12.5803 38.8204C12.1725 38.4126 11.9434 37.8595 11.9434 37.2828V6.59271C11.9434 6.01516 12.1722 5.46113 12.5798 5.05192C12.9873 4.64271 13.5404 4.41165 14.118 4.40933H20.3525C20.93 4.41165 21.4831 4.64271 21.8907 5.05192C22.2982 5.46113 22.5271 6.01516 22.5271 6.59271V37.2828C22.5271 37.8595 22.298 38.4126 21.8901 38.8204C21.4823 39.2283 20.9292 39.4574 20.3525 39.4574H14.118ZM4.13058 29.8119V14.0285C4.13058 13.3029 4.41881 12.607 4.93187 12.094C5.44493 11.5809 6.14079 11.2927 6.86637 11.2927H9.2602V32.5477H6.86637C6.14079 32.5477 5.44493 32.2595 4.93187 31.7464C4.41881 31.2334 4.13058 30.5375 4.13058 29.8119Z" fill="black"/>
<path d="M77.6815 8.67963H75.2876V6.58394C75.2876 5.30872 74.7817 4.0856 73.8808 3.18306C72.9799 2.28052 71.7577 1.77231 70.4825 1.76999H64.1954C62.9202 1.77231 61.698 2.28052 60.7971 3.18306C59.8962 4.0856 59.3902 5.30872 59.3902 6.58394V15.2385H56.2423V12.3449C56.2462 11.4352 55.9753 10.5455 55.465 9.79233C54.9547 9.03919 54.2289 8.45772 53.3825 8.12411C52.5362 7.7905 51.6088 7.72029 50.7218 7.92268C49.8349 8.12507 49.0298 8.59063 48.4119 9.25836C47.9923 8.80238 47.4826 8.4384 46.9151 8.18943C46.3476 7.94046 45.7346 7.81191 45.1149 7.81191C44.4952 7.81191 43.8823 7.94046 43.3148 8.18943C42.7473 8.4384 42.2376 8.80238 41.818 9.25836C41.3983 8.80238 40.8886 8.4384 40.3211 8.18943C39.7536 7.94046 39.1407 7.81191 38.521 7.81191C37.9013 7.81191 37.2883 7.94046 36.7208 8.18943C36.1533 8.4384 35.6436 8.80238 35.224 9.25836C34.6101 8.5762 33.8026 8.0977 32.9094 7.88684C32.0162 7.67597 31.08 7.74279 30.2258 8.07836C29.3716 8.41393 28.6402 9.00225 28.1294 9.76468C27.6186 10.5271 27.3527 11.4273 27.3673 12.3449V15.2385H25.0875V6.58394C25.0877 5.32076 24.5913 4.10812 23.7055 3.20756C22.8197 2.30701 21.6155 1.7907 20.3525 1.76999H14.0654C12.7902 1.77231 11.568 2.28052 10.6671 3.18306C9.76617 4.0856 9.2602 5.30872 9.2602 6.58394V8.67963H6.86637C5.44383 8.68195 4.08022 9.24808 3.07434 10.254C2.06845 11.2599 1.50232 12.6235 1.5 14.046V29.8295C1.50232 31.252 2.06845 32.6156 3.07434 33.6215C4.08022 34.6274 5.44383 35.1935 6.86637 35.1958H9.2602V37.3003C9.26252 38.574 9.76952 39.7949 10.6702 40.6955C11.5708 41.5962 12.7917 42.1032 14.0654 42.1055H20.3525C21.6262 42.1032 22.847 41.5962 23.7477 40.6955C24.6483 39.7949 25.1553 38.574 25.1576 37.3003V28.6194H27.3673V29.4963C27.3613 31.3997 27.9432 33.2585 29.0334 34.8188L30.6117 37.046V52.4547C30.6117 52.8035 30.7503 53.1381 30.9969 53.3847C31.2436 53.6314 31.5782 53.77 31.927 53.77H50.6479C50.9968 53.77 51.3313 53.6314 51.578 53.3847C51.8246 53.1381 51.9632 52.8035 51.9632 52.4547V37.1951L53.4714 35.6869C54.3477 34.8193 55.0436 33.7869 55.5192 32.6492C55.9948 31.5115 56.2405 30.2909 56.2423 29.0578V28.6194H59.4253V37.2828C59.4275 38.5504 59.9297 39.766 60.8228 40.6657C61.7159 41.5653 62.9278 42.0764 64.1954 42.0879H70.4474C71.7211 42.0856 72.942 41.5786 73.8426 40.678C74.7432 39.7773 75.2502 38.5565 75.2526 37.2828V35.1783H77.6464C79.0689 35.176 80.4325 34.6099 81.4384 33.604C82.4443 32.5981 83.0104 31.2345 83.0128 29.8119V14.0285C83.0059 12.615 82.4425 11.2612 81.4447 10.26C80.4469 9.25893 79.0949 8.69115 77.6815 8.67963ZM80.4173 29.8119C80.4173 30.5375 80.129 31.2334 79.616 31.7464C79.1029 32.2595 78.407 32.5477 77.6815 32.5477H75.2876V11.3102H77.6815C78.407 11.3102 79.1029 11.5984 79.616 12.1115C80.129 12.6246 80.4173 13.3204 80.4173 14.046V29.8119ZM72.6571 37.2828C72.6571 37.5683 72.6008 37.8511 72.4915 38.1149C72.3822 38.3788 72.2221 38.6185 72.0201 38.8204C71.8182 39.0224 71.5785 39.1825 71.3146 39.2918C71.0508 39.4011 70.768 39.4574 70.4825 39.4574H64.1954C63.9098 39.4574 63.627 39.4011 63.3632 39.2918C63.0994 39.1825 62.8596 39.0224 62.6577 38.8204C62.4558 38.6185 62.2956 38.3788 62.1863 38.1149C62.077 37.8511 62.0208 37.5683 62.0208 37.2828V6.59271C62.0196 6.30599 62.075 6.02184 62.1836 5.7565C62.2923 5.49116 62.4521 5.24982 62.6541 5.04626C62.856 4.8427 63.096 4.6809 63.3605 4.57012C63.625 4.45933 63.9087 4.40171 64.1954 4.40056H70.4474C71.0249 4.40288 71.578 4.63394 71.9856 5.04315C72.3932 5.45236 72.622 6.00639 72.622 6.58394V37.274L72.6571 37.2828ZM49.3326 36.6427V51.1394H33.2423V36.6427C33.2448 36.3753 33.1619 36.1142 33.0055 35.8973L31.2518 33.3281C30.4515 32.2126 30.0137 30.8779 29.9979 29.505V28.6282H35.4344C35.381 28.9705 35.3546 29.3164 35.3555 29.6629C35.3148 30.0117 35.4143 30.3624 35.6322 30.6379C35.8501 30.9133 36.1685 31.0909 36.5173 31.1316C36.8662 31.1723 37.2169 31.0727 37.4923 30.8549C37.7678 30.637 37.9454 30.3186 37.9861 29.9698L38.4859 27.7601C38.7107 27.3531 39.0079 26.9906 39.3628 26.6903C41.9407 24.3579 47.7367 24.2965 49.7448 24.4719C49.9153 24.4888 50.0875 24.4717 50.2515 24.4217C50.4154 24.3717 50.5678 24.2897 50.6999 24.1804C50.832 24.0712 50.9411 23.9368 51.021 23.7852C51.1008 23.6335 51.1499 23.4676 51.1653 23.2969C51.1997 22.9518 51.0964 22.6072 50.878 22.3379C50.6596 22.0686 50.3437 21.8964 49.999 21.8588L43.6243 21.1398H43.5191C41.7653 21.0872 40.757 20.4032 40.3273 18.9827C40.2331 18.6733 40.2134 18.346 40.2698 18.0275C40.3262 17.709 40.457 17.4084 40.6517 17.1501C40.8458 16.8799 41.1011 16.6595 41.3968 16.5071C41.6925 16.3547 42.0202 16.2745 42.3528 16.2732H50.9987C51.6963 16.2732 52.3654 16.5504 52.8588 17.0437C53.3521 17.537 53.6292 18.2061 53.6292 18.9038V29.0578C53.6268 29.9434 53.4497 30.8197 53.1082 31.6367C52.7666 32.4537 52.2673 33.1954 51.6388 33.8192L49.736 35.7044C49.4839 35.9523 49.3391 36.2892 49.3326 36.6427ZM25.1226 17.8691H27.4287C27.4761 18.7564 27.7847 19.6098 28.3157 20.3223C28.8467 21.0347 29.5764 21.5742 30.4132 21.8731C31.2499 22.172 32.1563 22.217 33.0185 22.0022C33.8807 21.7875 34.6602 21.3227 35.2591 20.6663C35.6746 21.12 36.1781 21.4845 36.7388 21.7377C37.2995 21.9909 37.9058 22.1276 38.521 22.1394C38.7226 22.1394 38.9156 22.1394 39.1172 22.0868C39.4878 22.4597 39.9137 22.7732 40.3799 23.0163C39.3367 23.4231 38.3768 24.0174 37.5477 24.77C37.1286 25.1436 36.7575 25.5677 36.4428 26.0327H25.1226V17.8691ZM31.927 10.4421C32.4316 10.4421 32.9156 10.6426 33.2725 10.9994C33.6293 11.3563 33.8298 11.8403 33.8298 12.3449V17.6061C33.797 18.0872 33.5828 18.5381 33.2304 18.8673C32.878 19.1966 32.4137 19.3797 31.9314 19.3797C31.4491 19.3797 30.9848 19.1966 30.6323 18.8673C30.2799 18.5381 30.0657 18.0872 30.033 17.6061V12.3449C30.033 11.8418 30.2322 11.3591 30.5872 11.0025C30.9421 10.6459 31.4239 10.4444 31.927 10.4421ZM53.6117 12.3449V14.3704C52.8141 13.9007 51.9067 13.6496 50.9811 13.6427H49.8149V12.3449C49.7972 12.0848 49.8332 11.8237 49.9206 11.5781C50.008 11.3324 50.1449 11.1073 50.3229 10.9168C50.501 10.7262 50.7162 10.5743 50.9554 10.4705C51.1946 10.3666 51.4525 10.313 51.7133 10.313C51.9741 10.313 52.232 10.3666 52.4712 10.4705C52.7104 10.5743 52.9256 10.7262 53.1037 10.9168C53.2817 11.1073 53.4186 11.3324 53.506 11.5781C53.5934 11.8237 53.6294 12.0848 53.6117 12.3449ZM47.0177 12.3449V13.6427H43.2209V12.3449C43.2032 12.0848 43.2392 11.8237 43.3266 11.5781C43.414 11.3324 43.5509 11.1073 43.729 10.9168C43.907 10.7262 44.1223 10.5743 44.3614 10.4705C44.6006 10.3666 44.8586 10.313 45.1193 10.313C45.3801 10.313 45.638 10.3666 45.8772 10.4705C46.1164 10.5743 46.3317 10.7262 46.5097 10.9168C46.6877 11.1073 46.8247 11.3324 46.9121 11.5781C46.9994 11.8237 47.0354 12.0848 47.0177 12.3449ZM40.4237 12.3449V14.0372C39.6577 14.3631 38.992 14.8866 38.4947 15.5542C38.0961 16.0727 37.8118 16.6697 37.6607 17.306C37.5096 17.9423 37.4949 18.6034 37.6178 19.2458C37.3117 19.0881 37.0549 18.8493 36.8755 18.5554C36.6961 18.2616 36.601 17.924 36.6006 17.5797V12.3186C36.583 12.0584 36.6189 11.7974 36.7063 11.5518C36.7937 11.3061 36.9307 11.081 37.1087 10.8905C37.2867 10.6999 37.502 10.548 37.7411 10.4442C37.9803 10.3403 38.2383 10.2867 38.499 10.2867C38.7598 10.2867 39.0178 10.3403 39.2569 10.4442C39.4961 10.548 39.7114 10.6999 39.8894 10.8905C40.0674 11.081 40.2044 11.3061 40.2918 11.5518C40.3792 11.7974 40.4151 12.0584 40.3974 12.3186L40.4237 12.3449ZM56.2072 18.176C56.2072 18.0796 56.2072 17.9743 56.2072 17.8691H59.4165V25.9888H56.2423V18.974C56.2409 18.7068 56.2204 18.4402 56.1809 18.176H56.2072ZM14.118 39.4574C13.5413 39.4574 12.9881 39.2283 12.5803 38.8204C12.1725 38.4126 11.9434 37.8595 11.9434 37.2828V6.59271C11.9434 6.01516 12.1722 5.46113 12.5798 5.05192C12.9873 4.64271 13.5404 4.41165 14.118 4.40933H20.3525C20.93 4.41165 21.4831 4.64271 21.8907 5.05192C22.2982 5.46113 22.5271 6.01516 22.5271 6.59271V37.2828C22.5271 37.8595 22.298 38.4126 21.8901 38.8204C21.4823 39.2283 20.9292 39.4574 20.3525 39.4574H14.118ZM4.13058 29.8119V14.0285C4.13058 13.3029 4.41881 12.607 4.93187 12.094C5.44493 11.5809 6.14079 11.2927 6.86637 11.2927H9.2602V32.5477H6.86637C6.14079 32.5477 5.44493 32.2595 4.93187 31.7464C4.41881 31.2334 4.13058 30.5375 4.13058 29.8119Z" stroke="white" stroke-width="2" mask="url(#path-2-outside-1_2_310)"/>
</svg>
