<svg width="68" height="69" viewBox="0 0 68 69" fill="none" xmlns="http://www.w3.org/2000/svg">
<path d="M34.007 66.56L34.0086 66.56C42.6237 66.5489 50.8826 63.1211 56.9737 57.0287C63.0648 50.9363 66.4907 42.6766 66.5 34.0616V34.06C66.5 27.6318 64.5937 21.348 61.0223 16.0032C57.4508 10.6585 52.3746 6.49287 46.4356 4.03323C40.4966 1.57358 33.9616 0.930385 27.657 2.18497C21.3524 3.43956 15.5615 6.53558 11.0166 11.0815C6.47163 15.6274 3.37685 21.419 2.12362 27.7238C0.870395 34.0287 1.515 40.5636 3.97592 46.502C6.43684 52.4405 10.6035 57.5158 15.9491 61.0861C21.2946 64.6564 27.5788 66.5613 34.007 66.56ZM18.178 10.3788C22.8632 7.24929 28.3713 5.57953 34.0056 5.58064C41.5559 5.59095 48.794 8.59485 54.1329 13.9337C59.472 19.2728 62.4759 26.5113 62.486 34.062C62.4869 39.6959 60.8172 45.2037 57.6879 49.8887C54.5583 54.5741 50.1094 58.2262 44.904 60.3831C39.6987 62.5399 33.9705 63.1045 28.4442 62.0056C22.9179 60.9067 17.8416 58.1935 13.8573 54.2093C9.87312 50.2251 7.15997 45.1488 6.06103 39.6224C4.96209 34.0961 5.52674 28.368 7.68357 23.1626C9.84039 17.9572 13.4925 13.5084 18.178 10.3788Z" fill="black" stroke="white" stroke-width="3"/>
<path d="M34.0085 64.414C50.7725 64.414 64.3625 50.824 64.3625 34.06C64.3625 17.296 50.7725 3.70601 34.0085 3.70601C17.2444 3.70601 3.6545 17.296 3.6545 34.06C3.6545 50.824 17.2444 64.414 34.0085 64.414Z" fill="white"/>
<mask id="mask0_2_336" style="mask-type:luminance" maskUnits="userSpaceOnUse" x="3" y="3" width="62" height="62">
<path d="M34.0085 64.414C50.7725 64.414 64.3625 50.824 64.3625 34.06C64.3625 17.296 50.7725 3.70601 34.0085 3.70601C17.2444 3.70601 3.6545 17.296 3.6545 34.06C3.6545 50.824 17.2444 64.414 34.0085 64.414Z" fill="white"/>
</mask>
<g mask="url(#mask0_2_336)">
<path d="M18.1907 12.4583C18.1244 12.4557 18.0593 12.4401 17.999 12.4123C17.9388 12.3846 17.8846 12.3452 17.8396 12.2965C17.7945 12.2477 17.7596 12.1906 17.7366 12.1284C17.7137 12.0661 17.7033 12 17.706 11.9337C17.706 11.7743 17.8321 7.99581 18.8282 6.08333C18.8903 5.96928 18.994 5.88356 19.1176 5.84398C19.2413 5.8044 19.3755 5.81402 19.4923 5.87084C19.6075 5.93169 19.6944 6.03532 19.7341 6.15948C19.7738 6.28363 19.7633 6.41841 19.7048 6.53489C18.8216 8.24151 18.6954 11.9137 18.6954 11.9536C18.6954 12.0874 18.6422 12.2158 18.5476 12.3104C18.4529 12.4051 18.3246 12.4583 18.1907 12.4583Z" fill="black"/>
<path d="M5.25489 23.1429C5.14176 23.1446 5.03135 23.1083 4.94137 23.0397C4.85139 22.9711 4.78706 22.8743 4.75872 22.7647C4.73038 22.6552 4.73967 22.5393 4.78509 22.4357C4.83051 22.3321 4.90944 22.2467 5.00919 22.1933C6.35705 21.5289 7.79247 21.0594 9.27243 20.7988C9.33783 20.7875 9.40483 20.7891 9.46959 20.8037C9.53435 20.8182 9.59562 20.8454 9.64988 20.8836C9.70414 20.9219 9.75035 20.9704 9.78585 21.0265C9.82135 21.0826 9.84546 21.1451 9.8568 21.2105C9.86813 21.2759 9.86648 21.3429 9.85192 21.4077C9.83737 21.4725 9.8102 21.5337 9.77197 21.588C9.73373 21.6422 9.68519 21.6884 9.6291 21.7239C9.57302 21.7595 9.51049 21.7836 9.44508 21.7949C8.07728 22.0409 6.74994 22.4744 5.50059 23.0832C5.42592 23.1257 5.34078 23.1464 5.25489 23.1429Z" fill="black"/>
<path d="M27.9722 15.2938C27.8625 15.2953 27.7553 15.261 27.6669 15.1961C27.5784 15.1312 27.5135 15.0392 27.482 14.9342C27.4505 14.8291 27.4541 14.7166 27.4922 14.6138C27.5303 14.5109 27.6009 14.4233 27.6933 14.3641C27.8859 14.2379 32.4015 11.3294 41.4525 10.1739C41.5184 10.1655 41.5853 10.1702 41.6493 10.1878C41.7133 10.2053 41.7733 10.2352 41.8257 10.2759C41.8781 10.3167 41.922 10.3673 41.9548 10.425C41.9877 10.4827 42.0088 10.5463 42.017 10.6122C42.034 10.7459 41.9975 10.881 41.9154 10.9879C41.8333 11.0949 41.7123 11.1651 41.5787 11.1833C32.7601 12.3055 28.2976 15.1676 28.2511 15.2075C28.169 15.2638 28.0718 15.2939 27.9722 15.2938Z" fill="black"/>
<path d="M50.6896 33.4092H50.59C50.525 33.3958 50.4632 33.3697 50.4083 33.3323C50.3535 33.295 50.3065 33.2472 50.2701 33.1917C50.2337 33.1362 50.2086 33.074 50.1963 33.0088C50.1839 32.9436 50.1846 32.8766 50.1982 32.8116C52.0442 23.9996 51.7255 19.5703 51.7189 19.5305C51.7083 19.3966 51.7513 19.264 51.8385 19.1619C51.9257 19.0598 52.0498 18.9965 52.1837 18.9859C52.3175 18.9754 52.4501 19.0184 52.5522 19.1056C52.6543 19.1928 52.7177 19.3169 52.7282 19.4508C52.7282 19.6301 53.0735 24.046 51.1876 33.0241C51.1595 33.1346 51.0951 33.2326 51.0049 33.3024C50.9147 33.3722 50.8037 33.4098 50.6896 33.4092Z" fill="black"/>
<path d="M37.4151 37.4998C37.2924 37.5013 37.1738 37.4562 37.083 37.3736C29.2073 30.4542 24.9574 26.9413 24.9176 26.9081C24.8658 26.8664 24.8229 26.8146 24.7915 26.756C24.76 26.6974 24.7406 26.6331 24.7344 26.5669C24.7282 26.5006 24.7354 26.4338 24.7554 26.3704C24.7755 26.307 24.808 26.2482 24.8511 26.1976C24.893 26.1461 24.9445 26.1033 25.0029 26.0718C25.0613 26.0403 25.1253 26.0205 25.1913 26.0137C25.2573 26.007 25.3239 26.0132 25.3875 26.0323C25.4511 26.0513 25.5103 26.0826 25.5617 26.1245C25.6015 26.1644 29.8648 29.6839 37.7471 36.6166C37.7974 36.6598 37.8387 36.7126 37.8683 36.7719C37.898 36.8313 37.9155 36.8959 37.9198 36.9621C37.9241 37.0283 37.9152 37.0947 37.8935 37.1574C37.8718 37.22 37.8379 37.2778 37.7936 37.3272C37.7464 37.3812 37.6882 37.4245 37.6229 37.4543C37.5577 37.4841 37.4868 37.4996 37.4151 37.4998Z" fill="black"/>
<path d="M12.2474 44.5853C12.1191 44.5856 11.9955 44.537 11.9018 44.4494C11.808 44.3618 11.7512 44.2418 11.7427 44.1138C11.5459 39.562 12.1161 35.0094 13.4294 30.6468C13.4499 30.5835 13.4827 30.525 13.5258 30.4744C13.5689 30.4238 13.6216 30.3822 13.6808 30.352C13.74 30.3218 13.8046 30.3036 13.8708 30.2983C13.9371 30.293 14.0037 30.3009 14.0669 30.3214C14.1302 30.3419 14.1887 30.3746 14.2393 30.4177C14.2899 30.4609 14.3314 30.5135 14.3617 30.5727C14.3919 30.6319 14.4101 30.6965 14.4154 30.7627C14.4206 30.829 14.4128 30.8956 14.3923 30.9589C13.1316 35.2023 12.5775 39.6241 12.7521 44.0474C12.7566 44.1137 12.748 44.1802 12.7267 44.2432C12.7054 44.3062 12.6719 44.3643 12.6281 44.4143C12.5843 44.4643 12.531 44.5051 12.4714 44.5344C12.4118 44.5638 12.3469 44.5811 12.2806 44.5853H12.2474Z" fill="black"/>
<path d="M22.2946 54.5992C22.1697 54.6021 22.0482 54.5586 21.9536 54.4772C21.8589 54.3957 21.7978 54.282 21.7821 54.1581C21.7664 54.0342 21.7972 53.9089 21.8686 53.8064C21.9399 53.7039 22.0468 53.6315 22.1684 53.6031C22.2481 53.6031 30.1769 51.5579 35.5624 49.0278C35.6832 48.9734 35.8205 48.9687 35.9447 49.0147C36.069 49.0606 36.1702 49.1536 36.2264 49.2735C36.2543 49.3332 36.27 49.3978 36.2727 49.4636C36.2754 49.5294 36.265 49.595 36.2422 49.6568C36.2193 49.7186 36.1844 49.7752 36.1396 49.8234C36.0947 49.8715 36.0407 49.9104 35.9807 49.9376C30.5156 52.5141 22.4938 54.5859 22.4141 54.5859L22.2946 54.5992Z" fill="black"/>
<path d="M46.3068 62.9265C46.2477 62.939 46.1866 62.939 46.1275 62.9265C46.064 62.903 46.0059 62.867 45.9566 62.8206C45.9074 62.7742 45.8679 62.7184 45.8406 62.6564C45.8134 62.5944 45.7989 62.5276 45.798 62.46C45.797 62.3923 45.8098 62.3251 45.8353 62.2624C46.716 59.845 47.1655 57.2917 47.1634 54.7188C47.1617 54.6525 47.173 54.5865 47.1967 54.5246C47.2205 54.4627 47.2562 54.4061 47.3018 54.358C47.3475 54.3099 47.4021 54.2712 47.4627 54.2443C47.5233 54.2173 47.5886 54.2025 47.6548 54.2008C47.7859 54.2024 47.9114 54.2543 48.0053 54.3457C48.0992 54.4372 48.1544 54.5612 48.1595 54.6922C48.1636 57.3977 47.687 60.0823 46.7517 62.621C46.7155 62.7098 46.654 62.786 46.575 62.8403C46.4959 62.8946 46.4027 62.9245 46.3068 62.9265Z" fill="black"/>
<path d="M35.589 65.2972H35.496C29.2207 64.1085 22.8789 60.3367 22.6 60.1773C22.4847 60.1086 22.4013 59.9969 22.3683 59.8668C22.3353 59.7366 22.3554 59.5987 22.4241 59.4834C22.4927 59.368 22.6044 59.2847 22.7346 59.2517C22.8647 59.2187 23.0026 59.2387 23.118 59.3074C23.1844 59.3472 29.5925 63.1523 35.6819 64.3011C35.8134 64.3269 35.9295 64.4033 36.0053 64.5138C36.081 64.6243 36.1104 64.7602 36.087 64.8921C36.0639 65.0069 36.0016 65.1101 35.9107 65.184C35.8198 65.2579 35.7061 65.2979 35.589 65.2972Z" fill="black"/>
<path d="M56.4137 44.2798H56.0817C56.0154 44.2746 55.9508 44.2563 55.8916 44.2261C55.8324 44.196 55.7797 44.1544 55.7365 44.1038C55.6493 44.0017 55.6063 43.8691 55.6169 43.7353C55.6274 43.6014 55.6908 43.4773 55.7929 43.3901C55.895 43.3029 56.0275 43.2599 56.1614 43.2704C56.1614 43.2704 59.1165 43.4564 63.6055 41.3712C63.7257 41.327 63.8582 41.3295 63.9766 41.3782C64.0951 41.427 64.191 41.5185 64.2453 41.6345C64.2995 41.7506 64.3082 41.8828 64.2697 42.0049C64.2312 42.1271 64.1481 42.2304 64.0371 42.2943C60.1059 44.1072 57.3301 44.2798 56.4137 44.2798Z" fill="black"/>
<path d="M64.5019 31.3174C64.3905 31.3184 64.2818 31.2825 64.1929 31.2152C64.104 31.1479 64.0399 31.0531 64.0105 30.9456C62.8102 26.5514 60.506 22.5373 57.3169 19.2848C57.2232 19.1902 57.1706 19.0626 57.1706 18.9295C57.1706 18.7964 57.2232 18.6687 57.3169 18.5742C57.4081 18.4756 57.5344 18.4168 57.6686 18.4106C57.8028 18.4044 57.9341 18.4512 58.034 18.541C61.3678 21.915 63.7661 26.0983 64.9933 30.68C65.0262 30.8102 65.0071 30.9481 64.9402 31.0645C64.8733 31.181 64.7638 31.2669 64.6347 31.3042L64.5019 31.3174Z" fill="black"/>
<path d="M52.2302 19.5836C54.043 19.5172 57.795 19.0457 57.795 19.0457C57.9278 17.4387 58.0606 15.566 58.0606 15.566C54.1116 10.4312 48.6254 6.6923 42.4022 4.89467C41.7381 8.36104 41.074 10.7384 41.074 10.7384C45.3457 12.9129 49.1389 15.9203 52.2302 19.5836Z" fill="black"/>
<path d="M9.23258 21.3234C9.23258 21.3234 9.79039 25.0089 13.881 30.9721C17.6144 29.2569 21.4618 27.8013 25.3957 26.6159C26.0424 22.5858 26.9586 18.6036 28.1382 14.6961C28.1382 14.6961 24.725 12.279 18.2239 11.6813C18.204 11.6813 13.5821 13.886 9.23258 21.3234Z" fill="black"/>
<path d="M50.756 32.5858C46.2809 34.2386 41.7052 35.6049 37.0565 36.6764C37.0565 36.6764 36.1866 45.2626 35.403 49.6454C35.403 49.6454 40.835 54.3735 47.688 54.9246C47.688 54.9246 53.9036 49.9641 56.3208 43.7419C56.3473 43.7685 55.7165 38.5689 50.756 32.5858Z" fill="black"/>
<path d="M12.2474 44.0806C10.505 45.1487 8.62344 45.971 6.65606 46.5243L6.50996 46.9161C9.18575 52.6165 13.5607 57.3488 19.0341 60.4628L19.6516 60.2238C19.6516 60.2238 21.9957 60.0378 23.0383 59.8386C22.6873 57.9141 22.5802 55.9529 22.7196 54.0016C22.7196 54.0016 15.9528 49.4395 12.2474 44.0806Z" fill="black"/>
</g>
</svg>
