<svg width="61" height="60" viewBox="0 0 61 60" fill="none" xmlns="http://www.w3.org/2000/svg">
<path d="M36.0007 3.00061H52.0007C52.5537 3.00061 53.0007 2.55261 53.0007 2.00061C53.0007 1.44861 52.5537 1.00061 52.0007 1.00061H36.0007C35.4477 1.00061 35.0007 1.44861 35.0007 2.00061C35.0007 2.55261 35.4477 3.00061 36.0007 3.00061Z" fill="black"/>
<path d="M46.0007 8.00061C46.0007 8.55261 46.4477 9.00061 47.0007 9.00061H55.0007C55.5537 9.00061 56.0007 8.55261 56.0007 8.00061C56.0007 7.44861 55.5537 7.00061 55.0007 7.00061H47.0007C46.4477 7.00061 46.0007 7.44861 46.0007 8.00061Z" fill="black"/>
<path d="M58.0007 13.0006H46.0007C45.4477 13.0006 45.0007 13.4486 45.0007 14.0006C45.0007 14.5526 45.4477 15.0006 46.0007 15.0006H58.0007C58.5537 15.0006 59.0007 14.5526 59.0007 14.0006C59.0007 13.4486 58.5537 13.0006 58.0007 13.0006Z" fill="black"/>
<path d="M56.0007 3.00061H58.0007C58.5537 3.00061 59.0007 2.55261 59.0007 2.00061C59.0007 1.44861 58.5537 1.00061 58.0007 1.00061H56.0007C55.4477 1.00061 55.0007 1.44861 55.0007 2.00061C55.0007 2.55261 55.4477 3.00061 56.0007 3.00061Z" fill="black"/>
<path d="M41.0007 7.00061C40.4477 7.00061 40.0007 7.44861 40.0007 8.00061C40.0007 8.55261 40.4477 9.00061 41.0007 9.00061H43.0007C43.5537 9.00061 44.0007 8.55261 44.0007 8.00061C44.0007 7.44861 43.5537 7.00061 43.0007 7.00061H41.0007Z" fill="black"/>
<path d="M57.4857 39.1436L52.7237 42.0006H31.4117L46.8447 25.8476C47.6107 25.0996 48.0207 24.1066 47.9997 23.0486C47.9787 22.0036 47.5357 21.0406 46.7687 20.3336C46.7647 20.3296 46.7637 20.3246 46.7597 20.3206C46.7567 20.3176 46.7537 20.3176 46.7507 20.3146C46.7417 20.3056 46.7347 20.2956 46.7257 20.2866L39.5797 13.7236L28.5287 1.33462C28.1607 0.921616 27.5297 0.886616 27.1167 1.25362C26.4807 1.82169 23.6196 1.29216 22.0627 1.25362C20.0007 1.20256 15.0007 1.25362 13.7297 1.31562C13.3497 0.912616 12.7177 0.894616 12.3157 1.27262C11.9137 1.65062 11.8947 2.28362 12.2727 2.68662L29.5157 21.0166L22.9137 33.1386C22.7247 33.4866 22.4297 33.7636 22.0627 33.9416L19.0197 35.4116C17.4247 36.1826 16.4347 37.7376 16.4347 39.4716C16.4347 40.4086 16.7287 41.2796 17.2307 42.0026H7.27769L2.51469 39.1456C2.03969 38.8606 1.42569 39.0146 1.14269 39.4886C0.858688 39.9626 1.01169 40.5766 1.48569 40.8606L6.48569 43.8606C6.64169 43.9516 6.81869 44.0006 7.00069 44.0006H10.0007V47.8126C8.21069 48.8516 7.00069 50.7856 7.00069 53.0006C7.00069 56.3096 9.69169 59.0006 13.0007 59.0006C16.3097 59.0006 19.0007 56.3096 19.0007 53.0006C19.0007 50.8706 17.8827 49.0016 16.2057 47.9366L18.5667 44.0006H21.0897H27.7827H41.4347L43.7967 47.9366C42.1187 49.0016 41.0007 50.8706 41.0007 53.0006C41.0007 56.3096 43.6917 59.0006 47.0007 59.0006C50.3097 59.0006 53.0007 56.3096 53.0007 53.0006C53.0007 50.7856 51.7907 48.8516 50.0007 47.8126V44.0006H53.0007C53.1827 44.0006 53.3597 43.9516 53.5157 43.8576L58.5157 40.8576C58.9897 40.5736 59.1427 39.9596 58.8587 39.4856C58.5747 39.0116 57.9607 38.8576 57.4857 39.1436Z" fill="white"/>
<mask id="path-7-outside-1_2_440" maskUnits="userSpaceOnUse" x="0" y="0" width="61" height="61" fill="black">
<rect fill="white" width="61" height="61"/>
<path d="M57.4857 39.1436L52.7237 42.0006H31.4117L46.8447 25.8476C47.6107 25.0996 48.0207 24.1066 47.9997 23.0486C47.9787 22.0036 47.5357 21.0406 46.7687 20.3336C46.7647 20.3296 46.7637 20.3246 46.7597 20.3206C46.7567 20.3176 46.7537 20.3176 46.7507 20.3146C46.7417 20.3056 46.7347 20.2956 46.7257 20.2866L39.5797 13.7236L28.5287 1.33462C28.1607 0.921616 27.5297 0.886616 27.1167 1.25362C26.7047 1.62162 26.6687 2.25362 27.0367 2.66562L37.5907 14.4976C35.4167 17.3836 32.2827 19.0556 30.9847 19.6586L13.7297 1.31562C13.3497 0.912616 12.7177 0.894616 12.3157 1.27262C11.9137 1.65062 11.8947 2.28362 12.2727 2.68662L29.5157 21.0166L22.9137 33.1386C22.7247 33.4866 22.4297 33.7636 22.0627 33.9416L19.0197 35.4116C17.4247 36.1826 16.4347 37.7376 16.4347 39.4716C16.4347 40.4086 16.7287 41.2796 17.2307 42.0026H7.27769L2.51469 39.1456C2.03969 38.8606 1.42569 39.0146 1.14269 39.4886C0.858688 39.9626 1.01169 40.5766 1.48569 40.8606L6.48569 43.8606C6.64169 43.9516 6.81869 44.0006 7.00069 44.0006H10.0007V47.8126C8.21069 48.8516 7.00069 50.7856 7.00069 53.0006C7.00069 56.3096 9.69169 59.0006 13.0007 59.0006C16.3097 59.0006 19.0007 56.3096 19.0007 53.0006C19.0007 50.8706 17.8827 49.0016 16.2057 47.9366L18.5667 44.0006H21.0897H27.7827H41.4347L43.7967 47.9366C42.1187 49.0016 41.0007 50.8706 41.0007 53.0006C41.0007 56.3096 43.6917 59.0006 47.0007 59.0006C50.3097 59.0006 53.0007 56.3096 53.0007 53.0006C53.0007 50.7856 51.7907 48.8516 50.0007 47.8126V44.0006H53.0007C53.1827 44.0006 53.3597 43.9516 53.5157 43.8576L58.5157 40.8576C58.9897 40.5736 59.1427 39.9596 58.8587 39.4856C58.5747 39.0116 57.9607 38.8576 57.4857 39.1436ZM13.0007 57.0006C10.7947 57.0006 9.00069 55.2066 9.00069 53.0006C9.00069 50.7946 10.7947 49.0006 13.0007 49.0006C15.2067 49.0006 17.0007 50.7946 17.0007 53.0006C17.0007 55.2066 15.2067 57.0006 13.0007 57.0006ZM14.3407 47.1566C13.9087 47.0576 13.4617 47.0006 13.0007 47.0006C12.6597 47.0006 12.3267 47.0356 12.0007 47.0906V44.0006H16.2347L14.3407 47.1566ZM21.0897 42.0006C19.6257 42.0006 18.4357 40.8646 18.4357 39.4696C18.4357 38.5106 18.9937 37.6446 19.8907 37.2106L22.9337 35.7406C23.6797 35.3796 24.2797 34.8096 24.6697 34.0946L25.0027 33.4826L25.8707 33.9006C26.0107 33.9676 26.1587 34.0006 26.3047 34.0006C26.6767 34.0006 27.0337 33.7926 27.2057 33.4356C27.4457 32.9386 27.2377 32.3406 26.7397 32.1006L25.9607 31.7246L26.5427 30.6556L27.3467 31.0446C27.4877 31.1126 27.6357 31.1456 27.7817 31.1456C28.1537 31.1456 28.5107 30.9376 28.6827 30.5806C28.9227 30.0836 28.7147 29.4856 28.2177 29.2456L27.5007 28.8966L28.0827 27.8276L28.8267 28.1866C28.9667 28.2546 29.1147 28.2866 29.2607 28.2866C29.6327 28.2866 29.9897 28.0786 30.1617 27.7216C30.4017 27.2246 30.1937 26.6266 29.6957 26.3866L29.0407 26.0696L29.6227 25.0006L30.3047 25.3306C30.4447 25.3986 30.5927 25.4306 30.7387 25.4306C31.1107 25.4306 31.4677 25.2226 31.6397 24.8656C31.8797 24.3686 31.6717 23.7706 31.1737 23.5306L30.5797 23.2436L31.4477 21.6496C32.6107 21.1486 36.3457 19.3536 39.0207 15.9286L44.5987 21.0516L39.2967 26.2906C38.9037 26.6786 38.9007 27.3116 39.2887 27.7046C39.4847 27.9016 39.7427 28.0006 40.0007 28.0006C40.2547 28.0006 40.5087 27.9046 40.7037 27.7116L45.9037 22.5736C45.9577 22.7396 45.9957 22.9096 45.9997 23.0886C46.0107 23.5916 45.8117 24.0656 45.4387 24.4246C45.4297 24.4336 45.4197 24.4436 45.4117 24.4526L29.1787 41.4446C28.8137 41.7986 28.3047 42.0006 27.7827 42.0006H21.0897ZM47.0007 57.0006C44.7947 57.0006 43.0007 55.2066 43.0007 53.0006C43.0007 50.7946 44.7947 49.0006 47.0007 49.0006C49.2067 49.0006 51.0007 50.7946 51.0007 53.0006C51.0007 55.2066 49.2067 57.0006 47.0007 57.0006ZM48.0007 47.0906C47.6747 47.0356 47.3417 47.0006 47.0007 47.0006C46.5397 47.0006 46.0927 47.0576 45.6607 47.1566L43.7667 44.0006H48.0007V47.0906Z"/>
</mask>
<path d="M57.4857 39.1436L52.7237 42.0006H31.4117L46.8447 25.8476C47.6107 25.0996 48.0207 24.1066 47.9997 23.0486C47.9787 22.0036 47.5357 21.0406 46.7687 20.3336C46.7647 20.3296 46.7637 20.3246 46.7597 20.3206C46.7567 20.3176 46.7537 20.3176 46.7507 20.3146C46.7417 20.3056 46.7347 20.2956 46.7257 20.2866L39.5797 13.7236L28.5287 1.33462C28.1607 0.921616 27.5297 0.886616 27.1167 1.25362C26.7047 1.62162 26.6687 2.25362 27.0367 2.66562L37.5907 14.4976C35.4167 17.3836 32.2827 19.0556 30.9847 19.6586L13.7297 1.31562C13.3497 0.912616 12.7177 0.894616 12.3157 1.27262C11.9137 1.65062 11.8947 2.28362 12.2727 2.68662L29.5157 21.0166L22.9137 33.1386C22.7247 33.4866 22.4297 33.7636 22.0627 33.9416L19.0197 35.4116C17.4247 36.1826 16.4347 37.7376 16.4347 39.4716C16.4347 40.4086 16.7287 41.2796 17.2307 42.0026H7.27769L2.51469 39.1456C2.03969 38.8606 1.42569 39.0146 1.14269 39.4886C0.858688 39.9626 1.01169 40.5766 1.48569 40.8606L6.48569 43.8606C6.64169 43.9516 6.81869 44.0006 7.00069 44.0006H10.0007V47.8126C8.21069 48.8516 7.00069 50.7856 7.00069 53.0006C7.00069 56.3096 9.69169 59.0006 13.0007 59.0006C16.3097 59.0006 19.0007 56.3096 19.0007 53.0006C19.0007 50.8706 17.8827 49.0016 16.2057 47.9366L18.5667 44.0006H21.0897H27.7827H41.4347L43.7967 47.9366C42.1187 49.0016 41.0007 50.8706 41.0007 53.0006C41.0007 56.3096 43.6917 59.0006 47.0007 59.0006C50.3097 59.0006 53.0007 56.3096 53.0007 53.0006C53.0007 50.7856 51.7907 48.8516 50.0007 47.8126V44.0006H53.0007C53.1827 44.0006 53.3597 43.9516 53.5157 43.8576L58.5157 40.8576C58.9897 40.5736 59.1427 39.9596 58.8587 39.4856C58.5747 39.0116 57.9607 38.8576 57.4857 39.1436ZM13.0007 57.0006C10.7947 57.0006 9.00069 55.2066 9.00069 53.0006C9.00069 50.7946 10.7947 49.0006 13.0007 49.0006C15.2067 49.0006 17.0007 50.7946 17.0007 53.0006C17.0007 55.2066 15.2067 57.0006 13.0007 57.0006ZM14.3407 47.1566C13.9087 47.0576 13.4617 47.0006 13.0007 47.0006C12.6597 47.0006 12.3267 47.0356 12.0007 47.0906V44.0006H16.2347L14.3407 47.1566ZM21.0897 42.0006C19.6257 42.0006 18.4357 40.8646 18.4357 39.4696C18.4357 38.5106 18.9937 37.6446 19.8907 37.2106L22.9337 35.7406C23.6797 35.3796 24.2797 34.8096 24.6697 34.0946L25.0027 33.4826L25.8707 33.9006C26.0107 33.9676 26.1587 34.0006 26.3047 34.0006C26.6767 34.0006 27.0337 33.7926 27.2057 33.4356C27.4457 32.9386 27.2377 32.3406 26.7397 32.1006L25.9607 31.7246L26.5427 30.6556L27.3467 31.0446C27.4877 31.1126 27.6357 31.1456 27.7817 31.1456C28.1537 31.1456 28.5107 30.9376 28.6827 30.5806C28.9227 30.0836 28.7147 29.4856 28.2177 29.2456L27.5007 28.8966L28.0827 27.8276L28.8267 28.1866C28.9667 28.2546 29.1147 28.2866 29.2607 28.2866C29.6327 28.2866 29.9897 28.0786 30.1617 27.7216C30.4017 27.2246 30.1937 26.6266 29.6957 26.3866L29.0407 26.0696L29.6227 25.0006L30.3047 25.3306C30.4447 25.3986 30.5927 25.4306 30.7387 25.4306C31.1107 25.4306 31.4677 25.2226 31.6397 24.8656C31.8797 24.3686 31.6717 23.7706 31.1737 23.5306L30.5797 23.2436L31.4477 21.6496C32.6107 21.1486 36.3457 19.3536 39.0207 15.9286L44.5987 21.0516L39.2967 26.2906C38.9037 26.6786 38.9007 27.3116 39.2887 27.7046C39.4847 27.9016 39.7427 28.0006 40.0007 28.0006C40.2547 28.0006 40.5087 27.9046 40.7037 27.7116L45.9037 22.5736C45.9577 22.7396 45.9957 22.9096 45.9997 23.0886C46.0107 23.5916 45.8117 24.0656 45.4387 24.4246C45.4297 24.4336 45.4197 24.4436 45.4117 24.4526L29.1787 41.4446C28.8137 41.7986 28.3047 42.0006 27.7827 42.0006H21.0897ZM47.0007 57.0006C44.7947 57.0006 43.0007 55.2066 43.0007 53.0006C43.0007 50.7946 44.7947 49.0006 47.0007 49.0006C49.2067 49.0006 51.0007 50.7946 51.0007 53.0006C51.0007 55.2066 49.2067 57.0006 47.0007 57.0006ZM48.0007 47.0906C47.6747 47.0356 47.3417 47.0006 47.0007 47.0006C46.5397 47.0006 46.0927 47.0576 45.6607 47.1566L43.7667 44.0006H48.0007V47.0906Z" fill="black"/>
<path d="M57.4857 39.1436L52.7237 42.0006H31.4117L46.8447 25.8476C47.6107 25.0996 48.0207 24.1066 47.9997 23.0486C47.9787 22.0036 47.5357 21.0406 46.7687 20.3336C46.7647 20.3296 46.7637 20.3246 46.7597 20.3206C46.7567 20.3176 46.7537 20.3176 46.7507 20.3146C46.7417 20.3056 46.7347 20.2956 46.7257 20.2866L39.5797 13.7236L28.5287 1.33462C28.1607 0.921616 27.5297 0.886616 27.1167 1.25362C26.7047 1.62162 26.6687 2.25362 27.0367 2.66562L37.5907 14.4976C35.4167 17.3836 32.2827 19.0556 30.9847 19.6586L13.7297 1.31562C13.3497 0.912616 12.7177 0.894616 12.3157 1.27262C11.9137 1.65062 11.8947 2.28362 12.2727 2.68662L29.5157 21.0166L22.9137 33.1386C22.7247 33.4866 22.4297 33.7636 22.0627 33.9416L19.0197 35.4116C17.4247 36.1826 16.4347 37.7376 16.4347 39.4716C16.4347 40.4086 16.7287 41.2796 17.2307 42.0026H7.27769L2.51469 39.1456C2.03969 38.8606 1.42569 39.0146 1.14269 39.4886C0.858688 39.9626 1.01169 40.5766 1.48569 40.8606L6.48569 43.8606C6.64169 43.9516 6.81869 44.0006 7.00069 44.0006H10.0007V47.8126C8.21069 48.8516 7.00069 50.7856 7.00069 53.0006C7.00069 56.3096 9.69169 59.0006 13.0007 59.0006C16.3097 59.0006 19.0007 56.3096 19.0007 53.0006C19.0007 50.8706 17.8827 49.0016 16.2057 47.9366L18.5667 44.0006H21.0897H27.7827H41.4347L43.7967 47.9366C42.1187 49.0016 41.0007 50.8706 41.0007 53.0006C41.0007 56.3096 43.6917 59.0006 47.0007 59.0006C50.3097 59.0006 53.0007 56.3096 53.0007 53.0006C53.0007 50.7856 51.7907 48.8516 50.0007 47.8126V44.0006H53.0007C53.1827 44.0006 53.3597 43.9516 53.5157 43.8576L58.5157 40.8576C58.9897 40.5736 59.1427 39.9596 58.8587 39.4856C58.5747 39.0116 57.9607 38.8576 57.4857 39.1436ZM13.0007 57.0006C10.7947 57.0006 9.00069 55.2066 9.00069 53.0006C9.00069 50.7946 10.7947 49.0006 13.0007 49.0006C15.2067 49.0006 17.0007 50.7946 17.0007 53.0006C17.0007 55.2066 15.2067 57.0006 13.0007 57.0006ZM14.3407 47.1566C13.9087 47.0576 13.4617 47.0006 13.0007 47.0006C12.6597 47.0006 12.3267 47.0356 12.0007 47.0906V44.0006H16.2347L14.3407 47.1566ZM21.0897 42.0006C19.6257 42.0006 18.4357 40.8646 18.4357 39.4696C18.4357 38.5106 18.9937 37.6446 19.8907 37.2106L22.9337 35.7406C23.6797 35.3796 24.2797 34.8096 24.6697 34.0946L25.0027 33.4826L25.8707 33.9006C26.0107 33.9676 26.1587 34.0006 26.3047 34.0006C26.6767 34.0006 27.0337 33.7926 27.2057 33.4356C27.4457 32.9386 27.2377 32.3406 26.7397 32.1006L25.9607 31.7246L26.5427 30.6556L27.3467 31.0446C27.4877 31.1126 27.6357 31.1456 27.7817 31.1456C28.1537 31.1456 28.5107 30.9376 28.6827 30.5806C28.9227 30.0836 28.7147 29.4856 28.2177 29.2456L27.5007 28.8966L28.0827 27.8276L28.8267 28.1866C28.9667 28.2546 29.1147 28.2866 29.2607 28.2866C29.6327 28.2866 29.9897 28.0786 30.1617 27.7216C30.4017 27.2246 30.1937 26.6266 29.6957 26.3866L29.0407 26.0696L29.6227 25.0006L30.3047 25.3306C30.4447 25.3986 30.5927 25.4306 30.7387 25.4306C31.1107 25.4306 31.4677 25.2226 31.6397 24.8656C31.8797 24.3686 31.6717 23.7706 31.1737 23.5306L30.5797 23.2436L31.4477 21.6496C32.6107 21.1486 36.3457 19.3536 39.0207 15.9286L44.5987 21.0516L39.2967 26.2906C38.9037 26.6786 38.9007 27.3116 39.2887 27.7046C39.4847 27.9016 39.7427 28.0006 40.0007 28.0006C40.2547 28.0006 40.5087 27.9046 40.7037 27.7116L45.9037 22.5736C45.9577 22.7396 45.9957 22.9096 45.9997 23.0886C46.0107 23.5916 45.8117 24.0656 45.4387 24.4246C45.4297 24.4336 45.4197 24.4436 45.4117 24.4526L29.1787 41.4446C28.8137 41.7986 28.3047 42.0006 27.7827 42.0006H21.0897ZM47.0007 57.0006C44.7947 57.0006 43.0007 55.2066 43.0007 53.0006C43.0007 50.7946 44.7947 49.0006 47.0007 49.0006C49.2067 49.0006 51.0007 50.7946 51.0007 53.0006C51.0007 55.2066 49.2067 57.0006 47.0007 57.0006ZM48.0007 47.0906C47.6747 47.0356 47.3417 47.0006 47.0007 47.0006C46.5397 47.0006 46.0927 47.0576 45.6607 47.1566L43.7667 44.0006H48.0007V47.0906Z" stroke="white" stroke-width="2" mask="url(#path-7-outside-1_2_440)"/>
<path d="M47.0007 55.0006C48.1053 55.0006 49.0007 54.1052 49.0007 53.0006C49.0007 51.896 48.1053 51.0006 47.0007 51.0006C45.8961 51.0006 45.0007 51.896 45.0007 53.0006C45.0007 54.1052 45.8961 55.0006 47.0007 55.0006Z" fill="black"/>
<path d="M13.0007 55.0006C14.1053 55.0006 15.0007 54.1052 15.0007 53.0006C15.0007 51.896 14.1053 51.0006 13.0007 51.0006C11.8961 51.0006 11.0007 51.896 11.0007 53.0006C11.0007 54.1052 11.8961 55.0006 13.0007 55.0006Z" fill="black"/>
</svg>
