<svg xmlns="http://www.w3.org/2000/svg" fill="none" viewBox="0.42 0.9 56.6 83.5">
<path d="M10.1 51.4C10.4 51.4 10.8 51.5 11.2 51.5C9.70003 52.7 8.50004 54.3 8.00004 55.9V56L1.00004 81.5C0.700036 82.4 1.30003 83.4 2.20003 83.7C2.40003 83.7 2.50003 83.8 2.70003 83.8C3.50003 83.8 4.20004 83.3 4.40004 82.5L11.4 57C12.2 54.6 15.2 52.5 18.2 52.2C17.7 52.9 17.3 53.7 17.1 54.5L13.3 73C13.2 73.7 13.6 74.4 14.3 74.6C14.4 74.6 14.5 74.6 14.6 74.6C15.2 74.6 15.8 74.2 15.9 73.5L19.7 55.1C20 54 20.8 52.9 21.7 52.3C23.9 52.4 26.3 52.4 28.6 52.4C31 52.4 33.3 52.4 35.6 52.3C36.5 52.9 37.3 54 37.6 55.1L41.4 73.6C41.5 74.2 42.1 74.7 42.7 74.7C42.8 74.7 42.9 74.7 43 74.7C43.7 74.6 44.2 73.9 44 73.1L40.2 54.6C40 53.8 39.6 53 39.2 52.3C42.1 52.6 45.2 54.7 46 57.1L53 82.6C53.2 83.4 53.9 83.9 54.7 83.9C54.9 83.9 55 83.9 55.2 83.8C56.1 83.5 56.7 82.6 56.4 81.6L49.4 56.1V56C48.8 54.3 47.7 52.8 46.2 51.6C46.6 51.6 46.9 51.5 47.3 51.5C53.6 50.6 56.2 49.4 56.5 47.3C56.8 44.8 53.7 43.6 50.7 42.7C41.2 40 39.8 38.2 39.6 37.5C39.4 36.6 41.4 34.6 43.2 32.9C45.4 30.7 48.2 28.1 49.9 24.7C53.3 17.9 51.9 13.2 50.2 10.4C46.1 3.80002 36.2 1.40002 28.9 1.40002C21.6 1.40002 11.7 3.70002 7.60003 10.4C5.90003 13.2 4.50004 17.9 7.90004 24.7C9.40004 27.7 11.6 30.1 13.6 32.3C15.5 34.4 17.5 36.5 17.1 37.7C16.9 38.6 15.2 40.4 7.00004 42.7C3.90004 43.6 0.800037 44.8 1.20004 47.3C1.20004 49.3 3.80003 50.5 10.1 51.4Z" fill="white"/>
<path d="M10.1 51.4C10.4 51.4 10.8 51.5 11.2 51.5C9.70003 52.7 8.50004 54.3 8.00004 55.9V56L1.00004 81.5C0.700036 82.4 1.30003 83.4 2.20003 83.7C2.40003 83.7 2.50003 83.8 2.70003 83.8C3.50003 83.8 4.20004 83.3 4.40004 82.5L11.4 57C12.2 54.6 15.2 52.5 18.2 52.2C17.7 52.9 17.3 53.7 17.1 54.5L13.3 73C13.2 73.7 13.6 74.4 14.3 74.6C14.4 74.6 14.5 74.6 14.6 74.6C15.2 74.6 15.8 74.2 15.9 73.5L19.7 55.1C20 54 20.8 52.9 21.7 52.3C23.9 52.4 26.3 52.4 28.6 52.4C31 52.4 33.3 52.4 35.6 52.3C36.5 52.9 37.3 54 37.6 55.1L41.4 73.6C41.5 74.2 42.1 74.7 42.7 74.7C42.8 74.7 42.9 74.7 43 74.7C43.7 74.6 44.2 73.9 44 73.1L40.2 54.6C40 53.8 39.6 53 39.2 52.3C42.1 52.6 45.2 54.7 46 57.1L53 82.6C53.2 83.4 53.9 83.9 54.7 83.9C54.9 83.9 55 83.9 55.2 83.8C56.1 83.5 56.7 82.6 56.4 81.6L49.4 56.1V56C48.8 54.3 47.7 52.8 46.2 51.6C46.6 51.6 46.9 51.5 47.3 51.5C53.6 50.6 56.2 49.4 56.5 47.3C56.8 44.8 53.7 43.6 50.7 42.7C41.2 40 39.8 38.2 39.6 37.5C39.4 36.6 41.4 34.6 43.2 32.9C45.4 30.7 48.2 28.1 49.9 24.7C53.3 17.9 51.9 13.2 50.2 10.4C46.1 3.80002 36.2 1.40002 28.9 1.40002C21.6 1.40002 11.7 3.70002 7.60003 10.4C5.90003 13.2 4.50004 17.9 7.90004 24.7C9.40004 27.7 11.6 30.1 13.6 32.3C15.5 34.4 17.5 36.5 17.1 37.7C16.9 38.6 15.2 40.4 7.00004 42.7C3.90004 43.6 0.800037 44.8 1.20004 47.3C1.20004 49.3 3.80003 50.5 10.1 51.4ZM7.70003 46C15.6 43.7 19.3 41.5 20.2 38.6C21.1 35.5 18.7 32.9 15.9 29.9C14.1 27.9 12 25.7 10.7 23.1C8.60003 18.8 8.40004 15.2 10.3 12.2C13.4 7.20003 21.8 4.90002 28.6 4.90002C35.4 4.90002 43.8 7.20003 46.9 12.2C48.7 15.2 48.6 18.8 46.5 23.1C45.1 26 42.7 28.3 40.5 30.4C37.7 33.1 35.2 35.5 36 38.4C36.7 41.4 40.5 43.5 49.5 46.1C50.6 46.4 51.4 46.7 51.9 46.9C49.9 47.6 45.4 48.4 38.7 48.8C38.6 48.8 38.4 48.8 38.3 48.8C38.1 48.8 38 48.8 37.9 48.9C35.2 49 32.1 49.1 28.7 49.1C25.3 49.1 22.2 49 19.5 48.9C19.4 48.9 19.2 48.8 19.1 48.8C19 48.8 18.8 48.8 18.7 48.8C12 48.4 7.50004 47.6 5.50004 46.9C5.80004 46.6 6.50003 46.3 7.70003 46Z" fill="black" stroke="white"/>
</svg>