<svg xmlns="http://www.w3.org/2000/svg" fill="none" viewBox="0.8 0.7 66.4 86.7">
<path d="M0.899979 82.7999H3.79999V87.3999H14.5V82.7999H53.6V87.3999H64.3V82.7999H67.2V0.699951H0.799988V82.7999H0.899979Z" fill="white"/>
<path d="M3.99999 82.7999V82.5999H3.79999H0.999988V0.899951H67V82.5999H64.3H64.1V82.7999V87.1999H53.8V82.7999V82.5999H53.6H14.5H14.3V82.7999V87.1999H3.99999V82.7999ZM12.7 85.7999H12.9V85.5999V82.7999V82.5999H12.7H5.59999H5.39999V82.7999V85.5999V85.7999H5.59999H12.7ZM62.6 85.7999H62.8V85.5999V82.7999V82.5999H62.6H55.5H55.3V82.7999V85.5999V85.7999H55.5H62.6ZM2.79999 2.29994H2.59999V2.49994V80.9999V81.1999H2.79999H65.5H65.7V80.9999V2.49994V2.29994H65.5H2.79999Z" fill="black" stroke="white" stroke-width="0.4"/>
<path d="M59.7 8.29993H8.59998V26.5999H59.7V8.29993ZM57.8 24.7999H10.4V10.0999H57.8V24.7999Z" fill="black"/>
<path d="M59.7 56.8999H8.59998V75.1999H59.7V56.8999ZM57.8 73.3999H10.4V58.6999H57.8V73.3999Z" fill="black"/>
<path d="M59.7 32.1H8.59998V50.5H59.7V32.1ZM57.8 48.7H10.4V34H57.8V48.7Z" fill="black"/>
<path d="M41 39.9999H39.2V42.2H29.7V39.9999H27.8V43.9999H41V39.9999Z" fill="black"/>
<path d="M41 64.4999H39.2V66.5999H29.7V64.4999H27.8V68.4999H41V64.4999Z" fill="black"/>
<path d="M41 16.2H39.2V18.3999H29.7V16.2H27.8V20.2H41V16.2Z" fill="black"/>
</svg>