<svg xmlns="http://www.w3.org/2000/svg" fill="none" viewBox="0.8 0.5 75.3 75.3">
<path d="M75.2 34.5001H68.8V1.40009C68.7 0.900085 68.3 0.500061 67.8 0.500061H9.10001C8.60001 0.500061 8.20001 0.900085 8.20001 1.40009V34.5001H1.70001C1.20001 34.5001 0.799988 34.9001 0.799988 35.4001V69.4001V74.9001C0.799988 75.4001 1.20001 75.8 1.70001 75.8H75.2C75.7 75.8 76.1 75.4001 76.1 74.9001V69.4001V58.0001V46.7001V35.4001C76.1 34.9001 75.8 34.5001 75.2 34.5001Z" fill="white"/>
<path d="M68.4 34.5001V34.9001H68.8H75.2C75.4063 34.9001 75.5182 34.9657 75.5811 35.0339C75.6488 35.1073 75.7 35.2278 75.7 35.4001V46.7001V58.0001V69.4001V74.9001C75.7 75.1792 75.4791 75.4 75.2 75.4H1.70001C1.42089 75.4 1.19999 75.1791 1.19999 74.9001V69.4001V35.4001C1.19999 35.121 1.42093 34.9001 1.70001 34.9001H8.20001H8.60001V34.5001V1.40009C8.60001 1.12098 8.82094 0.900061 9.10001 0.900061H67.8C68.0595 0.900061 68.3186 1.10768 68.4 1.44339V34.5001ZM74.3 57.5H74.7V57.1V47.6V47.2H74.3H39.4H39V47.6V57.1V57.5H39.4H74.3ZM39.4 58.5001H39V58.9001V68.4001V68.8001H39.4H74.3H74.7V68.4001V58.9001V58.5001H74.3H39.4ZM74.3 46.2001H74.7V45.8V36.3V35.9H74.3H67.9H39.4H39V36.3V45.8V46.2001H39.4H74.3ZM10 1.90005H9.6V2.30005V34.5001V34.9001H10H38.5H67H67.4V34.5001V2.30005V1.90005H67H10ZM38 36.4001V36.0001H37.6H9.10001H3.10001H2.70001H2.60001V36.4001H2.30001V68.4001V68.8001H2.70001H37.6H38V68.4001V58.0001V46.8V36.4001ZM2.20001 74.0001V74.4001H2.60001H73.8H74.2H74.3V74.0001H74.6V70.3V69.9H74.2H38.4H2.60001H2.20001V70.3V74.0001Z" fill="white" stroke="black" stroke-width="0.8"/>
<path d="M41.3 15.6C41.5 15.6 41.8 15.5001 42 15.3001L49.8 7.50007C50.2 7.10007 50.2 6.60009 49.8 6.20009C49.4 5.80009 48.9 5.80009 48.5 6.20009L40.7 14.0001C40.3 14.4001 40.3 14.9001 40.7 15.3001C40.8 15.6001 41 15.6 41.3 15.6Z" fill="black"/>
<path d="M48.4 21.9001C48 22.3001 48 22.8001 48.4 23.2001C48.6 23.4001 48.9 23.5001 49.1 23.5001C49.3 23.5001 49.6 23.4001 49.8 23.2001L57.6 15.4001C58 15.0001 58 14.5 57.6 14.1C57.2 13.7 56.7 13.7 56.3 14.1L48.4 21.9001Z" fill="black"/>
<path d="M42 21.9001C42.2 22.1001 42.5 22.2001 42.7 22.2001C42.9 22.2001 43.2 22.1001 43.4 21.9001L56.4 8.9001C56.8 8.5001 56.8 8.00005 56.4 7.60005C56 7.20005 55.4999 7.20005 55.0999 7.60005L42.1 20.5001C41.6 20.9001 41.6 21.5001 42 21.9001Z" fill="black"/>
<path d="M61.5 38.2001H52.3C51.8 38.2001 51.4 38.6 51.4 39.1C51.4 39.6 51.8 40.0001 52.3 40.0001H61.5C62 40.0001 62.4 39.6 62.4 39.1C62.4 38.6 62 38.2001 61.5 38.2001Z" fill="black"/>
<path d="M31.1 40.0001C30.6 40.0001 30.2 40.4001 30.2 40.9001V55.6C30.2 56.1 30.6 56.5001 31.1 56.5001C31.6 56.5001 32 56.1 32 55.6V41.0001C32.1 40.4001 31.6 40.0001 31.1 40.0001Z" fill="black"/>
<path d="M52.3 51.0001H61.5C62 51.0001 62.4 50.6 62.4 50.1C62.4 49.6 62 49.2001 61.5 49.2001H52.3C51.8 49.2001 51.4 49.6 51.4 50.1C51.4 50.6 51.7 51.0001 52.3 51.0001Z" fill="black"/>
<path d="M61.5 60.2001H52.3C51.8 60.2001 51.4 60.6 51.4 61.1C51.4 61.6 51.8 62.0001 52.3 62.0001H61.5C62 62.0001 62.4 61.6 62.4 61.1C62.4 60.6 62 60.2001 61.5 60.2001Z" fill="black"/>
</svg>