<svg xmlns="http://www.w3.org/2000/svg" fill="none" viewBox="0.3 0.5 63.4 69.1">
<path fill-rule="evenodd" clip-rule="evenodd" d="M8.31444 20.1448C10.62 9.1964 20.3966 0.900024 31.9999 0.900024C43.7409 0.900024 53.6115 9.39438 55.7643 20.5355C56.4814 20.1322 57.3104 19.9 58.2 19.9C60.9 19.9 63.2 22.1 63.2 24.9C63.2 24.967 63.1987 25.0337 63.1962 25.1H63.3C63.3791 38.7947 54.5602 50.4214 42.2996 54.6727L41.089 66.4H47.6999V69.2H40.8H23.2H16.3999V66.4H22.9109L21.6989 54.6583C9.46709 50.3809 0.699951 38.7111 0.699951 25.1H0.748637C0.716569 24.8717 0.699951 24.638 0.699951 24.4C0.699951 21.6 2.89995 19.4 5.69995 19.4C6.64822 19.4 7.54716 19.6714 8.31444 20.1448ZM25.8 66.4H38.3L39.3873 55.5263C37.0173 56.0975 34.5432 56.4 32 56.4C29.4911 56.4 27.0517 56.1035 24.7144 55.544L25.8 66.4ZM8.08329 28.7895C7.36908 29.1796 6.55455 29.4 5.69995 29.4C5.02038 29.4 4.36614 29.2607 3.76755 29.0074C5.68129 42.8695 17.6251 53.6 32 53.6C46.1991 53.6 58.0262 43.1303 60.1577 29.5145C59.5589 29.7632 58.8981 29.9 58.2 29.9C57.3527 29.9 56.5448 29.6834 55.835 29.2995C53.8455 40.6196 43.958 49.3 31.9999 49.3C19.9535 49.3 9.8759 40.3579 8.08329 28.7895Z" fill="white"/>
<mask id="path-2-inside-1_7_52" fill="white">
<path fill-rule="evenodd" clip-rule="evenodd" d="M8.31444 20.1448C10.62 9.1964 20.3966 0.900024 31.9999 0.900024C43.7409 0.900024 53.6115 9.39438 55.7643 20.5355C56.4814 20.1322 57.3104 19.9 58.2 19.9C60.9 19.9 63.2 22.1 63.2 24.9C63.2 24.967 63.1987 25.0337 63.1962 25.1H63.3C63.3791 38.7947 54.5602 50.4214 42.2996 54.6727L41.089 66.4H47.6999V69.2H40.8H23.2H16.3999V66.4H22.9109L21.6989 54.6583C9.46709 50.3809 0.699951 38.7111 0.699951 25.1H0.748637C0.716569 24.8717 0.699951 24.638 0.699951 24.4C0.699951 21.6 2.89995 19.4 5.69995 19.4C6.64822 19.4 7.54716 19.6714 8.31444 20.1448ZM25.8 66.4H38.3L39.3873 55.5263C37.0173 56.0975 34.5432 56.4 32 56.4C29.4911 56.4 27.0517 56.1035 24.7144 55.544L25.8 66.4ZM10.6018 25.3894C10.6661 25.0704 10.6999 24.7396 10.6999 24.4C10.6999 24.152 10.6819 23.9086 10.6471 23.6711C11.3848 12.5347 20.6801 3.70004 31.9999 3.70004C43.3221 3.70004 52.6189 12.5383 53.3532 23.6779C53.253 24.0709 53.2 24.4806 53.2 24.9C53.2 25.3522 53.2599 25.7886 53.3719 26.2027C52.796 37.4923 43.4301 46.5 31.9999 46.5C20.2965 46.5 10.7573 37.0566 10.6018 25.3894ZM8.08329 28.7895C7.36908 29.1796 6.55455 29.4 5.69995 29.4C5.02038 29.4 4.36614 29.2607 3.76755 29.0074C5.68129 42.8695 17.6251 53.6 32 53.6C46.1991 53.6 58.0262 43.1303 60.1577 29.5145C59.5589 29.7632 58.8981 29.9 58.2 29.9C57.3527 29.9 56.5448 29.6834 55.835 29.2995C53.8455 40.6196 43.958 49.3 31.9999 49.3C19.9535 49.3 9.8759 40.3579 8.08329 28.7895ZM56.1999 25.1C56.1999 25.2433 56.1987 25.3863 56.1962 25.529C56.4719 26.4011 57.3026 27 58.2 27C59.4 27 60.3 26 60.3 24.9C60.4 23.8 59.4 22.8 58.2 22.8C57.2201 22.8 56.4402 23.4668 56.1871 24.3104C56.1956 24.5726 56.1999 24.8359 56.1999 25.1ZM16.3999 25.1H19.1999C19.1999 18 24.9999 12.3 32.0999 12.2V9.40002C23.3999 9.40002 16.3999 16.5 16.3999 25.1ZM3.59995 24.3C3.59995 23.2 4.49995 22.2 5.69995 22.2C6.89995 22.2 7.79995 23.2 7.79995 24.3C7.79995 25.4 6.79995 26.4 5.69995 26.4C4.59995 26.4 3.59995 25.4 3.59995 24.3Z"/>
</mask>
<path fill-rule="evenodd" clip-rule="evenodd" d="M8.31444 20.1448C10.62 9.1964 20.3966 0.900024 31.9999 0.900024C43.7409 0.900024 53.6115 9.39438 55.7643 20.5355C56.4814 20.1322 57.3104 19.9 58.2 19.9C60.9 19.9 63.2 22.1 63.2 24.9C63.2 24.967 63.1987 25.0337 63.1962 25.1H63.3C63.3791 38.7947 54.5602 50.4214 42.2996 54.6727L41.089 66.4H47.6999V69.2H40.8H23.2H16.3999V66.4H22.9109L21.6989 54.6583C9.46709 50.3809 0.699951 38.7111 0.699951 25.1H0.748637C0.716569 24.8717 0.699951 24.638 0.699951 24.4C0.699951 21.6 2.89995 19.4 5.69995 19.4C6.64822 19.4 7.54716 19.6714 8.31444 20.1448ZM25.8 66.4H38.3L39.3873 55.5263C37.0173 56.0975 34.5432 56.4 32 56.4C29.4911 56.4 27.0517 56.1035 24.7144 55.544L25.8 66.4ZM10.6018 25.3894C10.6661 25.0704 10.6999 24.7396 10.6999 24.4C10.6999 24.152 10.6819 23.9086 10.6471 23.6711C11.3848 12.5347 20.6801 3.70004 31.9999 3.70004C43.3221 3.70004 52.6189 12.5383 53.3532 23.6779C53.253 24.0709 53.2 24.4806 53.2 24.9C53.2 25.3522 53.2599 25.7886 53.3719 26.2027C52.796 37.4923 43.4301 46.5 31.9999 46.5C20.2965 46.5 10.7573 37.0566 10.6018 25.3894ZM8.08329 28.7895C7.36908 29.1796 6.55455 29.4 5.69995 29.4C5.02038 29.4 4.36614 29.2607 3.76755 29.0074C5.68129 42.8695 17.6251 53.6 32 53.6C46.1991 53.6 58.0262 43.1303 60.1577 29.5145C59.5589 29.7632 58.8981 29.9 58.2 29.9C57.3527 29.9 56.5448 29.6834 55.835 29.2995C53.8455 40.6196 43.958 49.3 31.9999 49.3C19.9535 49.3 9.8759 40.3579 8.08329 28.7895ZM56.1999 25.1C56.1999 25.2433 56.1987 25.3863 56.1962 25.529C56.4719 26.4011 57.3026 27 58.2 27C59.4 27 60.3 26 60.3 24.9C60.4 23.8 59.4 22.8 58.2 22.8C57.2201 22.8 56.4402 23.4668 56.1871 24.3104C56.1956 24.5726 56.1999 24.8359 56.1999 25.1ZM16.3999 25.1H19.1999C19.1999 18 24.9999 12.3 32.0999 12.2V9.40002C23.3999 9.40002 16.3999 16.5 16.3999 25.1ZM3.59995 24.3C3.59995 23.2 4.49995 22.2 5.69995 22.2C6.89995 22.2 7.79995 23.2 7.79995 24.3C7.79995 25.4 6.79995 26.4 5.69995 26.4C4.59995 26.4 3.59995 25.4 3.59995 24.3Z" fill="black"/>
<path d="M8.31444 20.1448L8.1044 20.4852L8.58861 20.784L8.70586 20.2273L8.31444 20.1448ZM55.7643 20.5355L55.3716 20.6114L55.4768 21.1562L55.9604 20.8842L55.7643 20.5355ZM63.1962 25.1L62.7965 25.085L62.7808 25.5H63.1962V25.1ZM63.3 25.1L63.6999 25.0977L63.6976 24.7H63.3V25.1ZM42.2996 54.6727L42.1685 54.2948L41.9278 54.3783L41.9017 54.6317L42.2996 54.6727ZM41.089 66.4L40.6911 66.359L40.6456 66.8H41.089V66.4ZM47.6999 66.4H48.0999V66H47.6999V66.4ZM47.6999 69.2V69.6H48.0999V69.2H47.6999ZM16.3999 69.2H15.9999V69.6H16.3999V69.2ZM16.3999 66.4V66H15.9999V66.4H16.3999ZM22.9109 66.4V66.8H23.3544L23.3088 66.359L22.9109 66.4ZM21.6989 54.6583L22.0968 54.6172L22.0707 54.3646L21.8309 54.2807L21.6989 54.6583ZM0.699951 25.1V24.7H0.299951V25.1H0.699951ZM0.748637 25.1V25.5H1.20874L1.14475 25.0444L0.748637 25.1ZM38.3 66.4V66.8H38.662L38.698 66.4398L38.3 66.4ZM25.8 66.4L25.402 66.4398L25.438 66.8H25.8V66.4ZM39.3873 55.5263L39.7854 55.5661L39.8414 55.0054L39.2936 55.1374L39.3873 55.5263ZM24.7144 55.544L24.8075 55.155L24.2604 55.024L24.3164 55.5838L24.7144 55.544ZM10.6018 25.3894L10.2097 25.3104L10.2013 25.3522L10.2019 25.3948L10.6018 25.3894ZM10.6471 23.6711L10.248 23.6446L10.2452 23.687L10.2513 23.729L10.6471 23.6711ZM53.3532 23.6779L53.7408 23.7767L53.7565 23.7151L53.7523 23.6516L53.3532 23.6779ZM53.3719 26.2027L53.7713 26.2231L53.7746 26.1597L53.758 26.0984L53.3719 26.2027ZM8.08329 28.7895L8.47857 28.7283L8.39136 28.1655L7.89155 28.4385L8.08329 28.7895ZM3.76755 29.0074L3.92339 28.639L3.27503 28.3648L3.3713 29.0621L3.76755 29.0074ZM60.1577 29.5145L60.5529 29.5764L60.6632 28.8713L60.0042 29.1451L60.1577 29.5145ZM55.835 29.2995L56.0253 28.9477L55.5371 28.6837L55.441 29.2303L55.835 29.2995ZM56.1962 25.529L55.7962 25.522L55.7951 25.5873L55.8148 25.6496L56.1962 25.529ZM60.3 24.9L59.9016 24.8638L59.9 24.8819V24.9H60.3ZM56.1871 24.3104L55.804 24.1954L55.7852 24.2581L55.7873 24.3234L56.1871 24.3104ZM19.1999 25.1V25.5H19.5999V25.1H19.1999ZM16.3999 25.1H15.9999V25.5H16.3999V25.1ZM32.0999 12.2L32.1055 12.6L32.4999 12.5944V12.2H32.0999ZM32.0999 9.40002H32.4999V9.00002H32.0999V9.40002ZM31.9999 0.500024C20.2027 0.500024 10.2666 8.93363 7.92302 20.0624L8.70586 20.2273C10.9734 9.45918 20.5905 1.30002 31.9999 1.30002V0.500024ZM56.157 20.4596C53.9688 9.13478 43.937 0.500024 31.9999 0.500024V1.30002C43.5447 1.30002 53.2543 9.65398 55.3716 20.6114L56.157 20.4596ZM58.2 19.5C57.2397 19.5 56.3435 19.7508 55.5682 20.1869L55.9604 20.8842C56.6194 20.5135 57.3811 20.3 58.2 20.3V19.5ZM63.6 24.9C63.6 21.8739 61.1156 19.5 58.2 19.5V20.3C60.6843 20.3 62.8 22.3261 62.8 24.9H63.6ZM63.5959 25.1151C63.5986 25.0438 63.6 24.9721 63.6 24.9H62.8C62.8 24.962 62.7988 25.0237 62.7965 25.085L63.5959 25.1151ZM63.3 24.7H63.1962V25.5H63.3V24.7ZM42.4306 55.0507C54.8462 50.7456 63.7801 38.9707 63.6999 25.0977L62.9 25.1023C62.9781 38.6186 54.2741 50.0972 42.1685 54.2948L42.4306 55.0507ZM41.4869 66.4411L42.6975 54.7138L41.9017 54.6317L40.6911 66.359L41.4869 66.4411ZM47.6999 66H41.089V66.8H47.6999V66ZM48.0999 69.2V66.4H47.2999V69.2H48.0999ZM40.8 69.6H47.6999V68.8H40.8V69.6ZM23.2 69.6H40.8V68.8H23.2V69.6ZM16.3999 69.6H23.2V68.8H16.3999V69.6ZM15.9999 66.4V69.2H16.7999V66.4H15.9999ZM22.9109 66H16.3999V66.8H22.9109V66ZM21.301 54.6994L22.5131 66.4411L23.3088 66.359L22.0968 54.6172L21.301 54.6994ZM0.299951 25.1C0.299951 38.8864 9.17961 50.7042 21.5669 55.0359L21.8309 54.2807C9.75457 50.0577 1.09995 38.5358 1.09995 25.1H0.299951ZM0.748637 24.7H0.699951V25.5H0.748637V24.7ZM0.299951 24.4C0.299951 24.6567 0.317872 24.9089 0.352524 25.1557L1.14475 25.0444C1.11526 24.8345 1.09995 24.6194 1.09995 24.4H0.299951ZM5.69995 19C2.67903 19 0.299951 21.3791 0.299951 24.4H1.09995C1.09995 21.8209 3.12086 19.8 5.69995 19.8V19ZM8.52448 19.8044C7.6965 19.2935 6.72522 19 5.69995 19V19.8C6.57122 19.8 7.39781 20.0493 8.1044 20.4852L8.52448 19.8044ZM38.3 66H25.8V66.8H38.3V66ZM38.698 66.4398L39.7854 55.5661L38.9893 55.4865L37.902 66.3602L38.698 66.4398ZM39.2936 55.1374C36.9541 55.7013 34.5114 56 32 56V56.8C34.575 56.8 37.0806 56.4937 39.4811 55.9152L39.2936 55.1374ZM32 56C29.5228 56 27.1146 55.7073 24.8075 55.155L24.6213 55.933C26.9889 56.4998 29.4595 56.8 32 56.8V56ZM24.3164 55.5838L25.402 66.4398L26.198 66.3602L25.1124 55.5042L24.3164 55.5838ZM10.2999 24.4C10.2999 24.713 10.2688 25.0173 10.2097 25.3104L10.994 25.4684C11.0635 25.1235 11.0999 24.7662 11.0999 24.4H10.2999ZM10.2513 23.729C10.2833 23.9474 10.2999 24.1714 10.2999 24.4H11.0999C11.0999 24.1325 11.0805 23.8698 11.0429 23.6131L10.2513 23.729ZM31.9999 3.30004C20.4679 3.30004 10.9995 12.2996 10.248 23.6446L11.0462 23.6975C11.7701 12.7698 20.8922 4.10004 31.9999 4.10004V3.30004ZM53.7523 23.6516C53.0042 12.3033 43.5343 3.30004 31.9999 3.30004V4.10004C43.1099 4.10004 52.2335 12.7734 52.9541 23.7042L53.7523 23.6516ZM53.6 24.9C53.6 24.5145 53.6487 24.1379 53.7408 23.7767L52.9656 23.5791C52.8573 24.0039 52.8 24.4468 52.8 24.9H53.6ZM53.758 26.0984C53.6552 25.718 53.6 25.3166 53.6 24.9H52.8C52.8 25.3877 52.8647 25.8593 52.9857 26.3071L53.758 26.0984ZM31.9999 46.9C43.6443 46.9 53.1847 37.7242 53.7713 26.2231L52.9724 26.1824C52.4074 37.2604 43.2159 46.1 31.9999 46.1V46.9ZM10.2019 25.3948C10.3602 37.2804 20.0774 46.9 31.9999 46.9V46.1C20.5157 46.1 11.1543 36.8328 11.0018 25.3841L10.2019 25.3948ZM5.69995 29.8C6.62388 29.8 7.50409 29.5617 8.27502 29.1406L7.89155 28.4385C7.23408 28.7976 6.48523 29 5.69995 29V29.8ZM3.6117 29.3758C4.25823 29.6493 4.96536 29.8 5.69995 29.8V29C5.07539 29 4.47405 28.872 3.92339 28.639L3.6117 29.3758ZM32 53.2C17.8279 53.2 6.05064 42.62 4.16379 28.9527L3.3713 29.0621C5.31194 43.119 17.4222 54 32 54V53.2ZM59.7625 29.4526C57.6609 42.8773 45.9986 53.2 32 53.2V54C46.3996 54 58.3914 43.3834 60.5529 29.5764L59.7625 29.4526ZM58.2 30.3C58.9508 30.3 59.6638 30.1528 60.3111 29.8839L60.0042 29.1451C59.4541 29.3737 58.8454 29.5 58.2 29.5V30.3ZM55.6447 29.6514C56.4109 30.0657 57.2839 30.3 58.2 30.3V29.5C57.4214 29.5 56.6787 29.301 56.0253 28.9477L55.6447 29.6514ZM31.9999 49.7C44.1566 49.7 54.2067 40.8757 56.2289 29.3688L55.441 29.2303C53.4844 40.3635 43.7594 48.9 31.9999 48.9V49.7ZM7.688 28.8508C9.51024 40.6103 19.7524 49.7 31.9999 49.7V48.9C20.1545 48.9 10.2416 40.1054 8.47857 28.7283L7.688 28.8508ZM56.5961 25.536C56.5986 25.391 56.5999 25.2457 56.5999 25.1H55.7999C55.7999 25.241 55.7987 25.3816 55.7962 25.522L56.5961 25.536ZM58.2 26.6C57.4761 26.6 56.8004 26.1132 56.5776 25.4085L55.8148 25.6496C56.1434 26.689 57.1292 27.4 58.2 27.4V26.6ZM59.9 24.9C59.9 25.7916 59.1668 26.6 58.2 26.6V27.4C59.6331 27.4 60.7 26.2085 60.7 24.9H59.9ZM58.2 23.2C59.2013 23.2 59.9771 24.033 59.9016 24.8638L60.6983 24.9362C60.8228 23.567 59.5986 22.4 58.2 22.4V23.2ZM56.5702 24.4253C56.7769 23.7364 57.4114 23.2 58.2 23.2V22.4C57.0287 22.4 56.1035 23.1972 55.804 24.1954L56.5702 24.4253ZM56.5999 25.1C56.5999 24.8315 56.5955 24.5639 56.5869 24.2974L55.7873 24.3234C55.7957 24.5813 55.7999 24.8402 55.7999 25.1H56.5999ZM19.1999 24.7H16.3999V25.5H19.1999V24.7ZM32.0943 11.8001C24.7829 11.9031 18.7999 17.7741 18.7999 25.1H19.5999C19.5999 18.226 25.2169 12.697 32.1055 12.6L32.0943 11.8001ZM31.6999 9.40002V12.2H32.4999V9.40002H31.6999ZM16.7999 25.1C16.7999 16.7193 23.6225 9.80002 32.0999 9.80002V9.00002C23.1773 9.00002 15.9999 16.2808 15.9999 25.1H16.7999ZM5.69995 21.8C4.26678 21.8 3.19995 22.9916 3.19995 24.3H3.99995C3.99995 23.4085 4.73312 22.6 5.69995 22.6V21.8ZM8.19995 24.3C8.19995 22.9916 7.13312 21.8 5.69995 21.8V22.6C6.66678 22.6 7.39995 23.4085 7.39995 24.3H8.19995ZM5.69995 26.8C7.02086 26.8 8.19995 25.6209 8.19995 24.3H7.39995C7.39995 25.1791 6.57903 26 5.69995 26V26.8ZM3.19995 24.3C3.19995 25.6209 4.37903 26.8 5.69995 26.8V26C4.82086 26 3.99995 25.1791 3.99995 24.3H3.19995Z" fill="white" mask="url(#path-2-inside-1_7_52)"/>
</svg>