<svg xmlns="http://www.w3.org/2000/svg" fill="none" viewBox="0.4 0 65.7 65.5">
<path d="M8.90002 59.4001C6.90002 59.4001 5.30002 57.8 5.30002 55.8V41.1C2.50002 40.5 0.400024 38 0.400024 35.2V30.3C0.400024 26.9 3.10003 24.2 6.50003 24.2H11.4C14.8 24.2 17.5 26.9 17.5 30.3V44.85V59.4001H8.90002Z" fill="white"/>
<path d="M57.5 59.4001H49V30.3C49 26.9 51.7 24.2 55.1 24.2H60C63.4 24.2 66.1 26.9 66.1 30.3V35.2C66.1 38.1 64.1 40.6 61.2 41.1V55.8C61.1 57.8 59.5 59.4001 57.5 59.4001Z" fill="white"/>
<path d="M51.4001 59.4001H15V42.4001H17.4C17.4 43.1001 17.9 43.6 18.6 43.6H47.7C48.4 43.6 48.9001 43.1001 48.9001 42.4001H51.3V59.4001H51.4001Z" fill="white"/>
<path d="M47.8 46H18.7C16.7 46 15.1 44.4001 15.1 42.4001V40C15.1 36.6 17.8 33.9001 21.2 33.9001H45.5C48.9 33.9001 51.6 36.6 51.6 40V42.4001C51.4 44.4001 49.8 46 47.8 46Z" fill="white"/>
<path d="M49 40C49 38 47.4001 36.4001 45.4001 36.4001H21.1C19.1 36.4001 17.5 38 17.5 40H15V30.3C15 28.3 13.4 26.7 11.4 26.7H9.00003V18.2C9.00003 8.10004 17.2 3.05176e-05 27.2 3.05176e-05H39.3C49.4 3.05176e-05 57.5 8.20004 57.5 18.2V26.7H55.1C53.1 26.7 51.5 28.3 51.5 30.3V40H49Z" fill="white"/>
<path d="M15 65.5H11.4C10.1 65.5 9.00003 64.4 9.00003 63.1V57H17.5V63.1C17.4 64.4 16.3 65.5 15 65.5Z" fill="white"/>
<path d="M55.1 65.5H51.5C50.2 65.5 49.1 64.4 49.1 63.1V57H57.6V63.1C57.5 64.4 56.4 65.5 55.1 65.5Z" fill="white"/>
<path d="M5.70002 41.1V40.7766L5.38383 40.7089C2.75818 40.1462 0.800024 37.8013 0.800024 35.2V30.3C0.800024 27.1209 3.32094 24.6 6.50003 24.6H11.4C14.5791 24.6 17.1 27.1209 17.1 30.3V59H8.90002C7.12094 59 5.70002 57.5791 5.70002 55.8V41.1ZM6.50003 39.1H7.30004V55.7C7.30004 56.6209 7.9791 57.3 8.90002 57.3H15H15.4V56.9V30.2C15.4 27.9791 13.6209 26.2 11.4 26.2H6.50003C4.27911 26.2 2.50002 27.9791 2.50002 30.2V35.1C2.50002 37.3209 4.27911 39.1 6.50003 39.1Z" fill="white" stroke="black" stroke-width="0.8"/>
<path d="M57.5 59H49.4V30.3C49.4 27.1209 51.9209 24.6 55.1 24.6H60C63.1791 24.6 65.7 27.1209 65.7 30.3V35.2C65.7 37.914 63.8318 40.2403 61.132 40.7058L60.8 40.763V41.1V55.7897C60.7054 57.5837 59.2724 59 57.5 59ZM51 57V57.4H51.4H57.5C58.4209 57.4 59.1 56.7209 59.1 55.8V39.2H59.9C62.1209 39.2 63.9 37.4209 63.9 35.2V30.3C63.9 28.0791 62.1209 26.3 59.9 26.3H55C52.7791 26.3 51 28.0791 51 30.3V57Z" fill="white" stroke="black" stroke-width="0.8"/>
<path d="M49.2549 42.8H50.9V59H15.4V42.8H17.0451C17.2111 43.5109 17.8185 44 18.6 44H47.7C48.4815 44 49.0889 43.5109 49.2549 42.8ZM49 57.4H49.4V57V45.9V45.3877L48.903 45.512C48.4937 45.6143 48.1422 45.7 47.8 45.7H18.7C18.3578 45.7 18.0063 45.6143 17.597 45.512L17.1 45.3877V45.9V57H17.4V57.4H17.5H17.9H49Z" fill="white" stroke="black" stroke-width="0.8"/>
<path d="M21.5 36V35.9H21.1C18.8791 35.9 17.1 37.6791 17.1 39.9V42.3C17.1 43.2209 17.7791 43.9 18.7 43.9H47.8C48.7209 43.9 49.4 43.2209 49.4 42.3V40C49.4 37.7791 47.621 36 45.4001 36H21.5ZM47.8 45.6H18.7C16.921 45.6 15.5 44.1791 15.5 42.4V40C15.5 36.8209 18.021 34.3 21.2 34.3H45.5C48.6791 34.3 51.2 36.8209 51.2 40V42.3796C51.0099 44.1884 49.5663 45.6 47.8 45.6Z" fill="white" stroke="black" stroke-width="0.8"/>
<path d="M48.7501 35.4123L49.4 35.9322V35.1V30.2C49.4 27.0209 51.9209 24.5 55.1 24.5H55.5V24.1V18C55.5 9.07909 48.2209 1.80001 39.3 1.80001H27.2C18.2791 1.80001 11 9.07909 11 18V24.1V24.5H11.4C14.5791 24.5 17.1 27.0209 17.1 30.2V35.1V35.9322L17.7499 35.4123C18.6696 34.6765 19.8781 34.3 21.1 34.3H45.4C46.6219 34.3 47.8304 34.6765 48.7501 35.4123ZM51.1 39.6H49.3806C49.182 37.5693 47.4859 36 45.4 36H21.1C19.0142 36 17.318 37.5693 17.1194 39.6H15.4V30.3C15.4 28.0791 13.6209 26.3 11.4 26.3H9.4V18.2C9.4 8.32236 17.4195 0.4 27.2 0.4H39.3C49.1776 0.4 57.1 8.41949 57.1 18.2V26.3H55.1C52.8791 26.3 51.1 28.0791 51.1 30.3V39.6Z" fill="white" stroke="black" stroke-width="0.8"/>
<path d="M29.1 13.9C29.1 14.6732 28.4732 15.3 27.7 15.3C26.9268 15.3 26.3 14.6732 26.3 13.9C26.3 13.1268 26.9269 12.5 27.7 12.5C28.4732 12.5 29.1 13.1268 29.1 13.9Z" fill="white" stroke="black" stroke-width="0.8"/>
<path d="M40.1 13.9C40.1 14.6732 39.4732 15.3 38.7 15.3C37.9268 15.3 37.3 14.6732 37.3 13.9C37.3 13.1268 37.9269 12.5 38.7 12.5C39.4732 12.5 40.1 13.1268 40.1 13.9Z" fill="white" stroke="black" stroke-width="0.8"/>
<path d="M29.1 24.8C29.1 25.5732 28.4732 26.2 27.7 26.2C26.9268 26.2 26.3 25.5732 26.3 24.8C26.3 24.0268 26.9268 23.4 27.7 23.4C28.4732 23.4 29.1 24.0268 29.1 24.8Z" fill="white" stroke="black" stroke-width="0.8"/>
<path d="M40.1 24.8C40.1 25.5732 39.4732 26.2 38.7 26.2C37.9268 26.2 37.3 25.5732 37.3 24.8C37.3 24.0268 37.9268 23.4 38.7 23.4C39.4732 23.4 40.1 24.0268 40.1 24.8Z" fill="white" stroke="black" stroke-width="0.8"/>
<path d="M11.4 59H11V59.4V63V63.4H11.4H15H15.4V63V59.4V59H15H11.4ZM15 65.1H11.4C10.3209 65.1 9.4 64.1791 9.4 63.1V57.4H17.1V63.0839C17.0075 64.1868 16.0688 65.1 15 65.1Z" fill="white" stroke="black" stroke-width="0.8"/>
<path d="M51.4 59H51V59.4V63V63.4H51.4H55H55.4V63V59.4V59H55H51.4ZM55.1 65.1H51.5C50.4209 65.1 49.5 64.1791 49.5 63.1V57.4H57.2V63.0839C57.1075 64.1868 56.1688 65.1 55.1 65.1Z" fill="white" stroke="black" stroke-width="0.8"/>
</svg>