<svg xmlns="http://www.w3.org/2000/svg" fill="none" viewBox="0.5 0.6 82.1 64.2">
<path d="M2.1 10.6H4.5V49C4.5 49.9 5.2 50.6 6.1 50.6H9.2V63.2C9.2 64.1 9.9 64.8 10.8 64.8H14.7C15.4 64.8 16.1 64.3 16.3 63.6L19.1 50.7H63.1L65.9 63.6C66.1 64.3 66.7 64.8 67.5 64.8H71.4C72.3 64.8 73 64.1 73 63.2V50.6H77.1C78 50.6 78.7 49.9 78.7 49V10.6H81C81.9 10.6 82.6 9.9 82.6 9V2.20001C82.6 1.30001 81.9 0.599976 81 0.599976H2.1C1.2 0.599976 0.5 1.30001 0.5 2.20001V9C0.6 9.9 1.3 10.6 2.1 10.6Z" fill="white"/>
<path d="M5 10.6V10.1H4.5H2.1C1.60882 10.1 1.08741 9.65343 1 8.97037V2.20001C1 1.57614 1.47616 1.09998 2.1 1.09998H81C81.6238 1.09998 82.1 1.57614 82.1 2.20001V9C82.1 9.62385 81.6239 10.1 81 10.1H78.7H78.2V10.6V49C78.2 49.6238 77.7239 50.1 77.1 50.1H73H72.5V50.6V63.2C72.5 63.8239 72.0239 64.3 71.4 64.3H67.5C66.9384 64.3 66.5301 63.964 66.3849 63.4769L63.5886 50.594L63.5031 50.2H63.1H19.1H18.6969L18.6114 50.594L15.8152 63.4765C15.6731 63.9472 15.1802 64.3 14.7 64.3H10.8C10.1761 64.3 9.7 63.8239 9.7 63.2V50.6V50.1H9.2H6.1C5.47613 50.1 5 49.6238 5 49V10.6ZM75.8 10.6V10.1015L75.3016 10.1L43.3016 10L42.8 9.99844V10.5V17.5V18H43.3H75.3H75.8V17.5V10.6ZM39.6 18H40.1V17.5V10.5V10H39.6H7.6H7.1V10.5V17.5V18H7.6H39.6ZM7.6 20.1H7.1V20.6V47.4V47.9H7.6H39.6H40.1V47.4V20.6V20.1H39.6H7.6ZM13.4 62H13.8027L13.8885 61.6066L16.2885 50.6066L16.4209 50H15.8H12.3H11.8V50.5V61.5V62H12.3H13.4ZM69.6 62.1H70.1V61.6V50.6V50.1H69.6H66.1H65.4791L65.6115 50.7066L68.0115 61.7066L68.0973 62.1H68.5H69.6ZM42.8 47.4V47.9H43.3H71.2H75.3H75.8V47.4V20.6V20.1H75.3H43.3H42.8V20.6V47.4ZM3.7 3.29999H3.2V3.79999V7.5V8H3.7H79.6H80.1V7.5V3.79999V3.29999H79.6H3.7Z" fill="white" stroke="black"/>
</svg>