<svg xmlns="http://www.w3.org/2000/svg" fill="none" viewBox="0.96 0.2 82.95 82.9">
<path d="M82.5 47.2H67.9C67.3 47.2 66.7 46.8 66.6 46.2C66.4 45.6 66.7 45 67.2 44.6L76.3 39.1C76.5 39 76.8 38.9 77 38.9H82.5C83.3 38.9 83.9 39.5 83.9 40.3V45.8C83.9 46.6 83.3 47.2 82.5 47.2Z" fill="white"/>
<path d="M17.2 47.2H2.50003C1.70003 47.2 1.10004 46.6 1.10004 45.8V40.3C1.10004 39.5 1.70003 38.9 2.50003 38.9H6.60004C6.90004 38.9 7.10002 39 7.40002 39.1C7.60002 39.2 9.30003 40.1 17.8 44.5C18.4 44.8 18.7 45.4 18.5 46.1C18.3 46.7 17.8 47.2 17.2 47.2Z" fill="white"/>
<path fill-rule="evenodd" clip-rule="evenodd" d="M35.6 22.3H25.9C25.4 22.3 25 22.1 24.7 21.7C24.4 21.3 24.4 20.7999 24.6 20.3999L25 19.3999C27.2 12.4 27.2 9.69997 27.2 1.59999V1.59996C27.2 0.79996 27.8 0.199951 28.6 0.199951H45.2C46 0.199951 46.6 0.79996 46.6 1.59996V1.6C46.6 9.69997 46.6 12.4 48.8 19.3999L49.2 20.3999C49.4 20.7999 49.4 21.3 49.1 21.7C48.9 22.1 48.5 22.3 48 22.3H38.4V33.4H46.6C49.9206 33.4 52.7067 35.7671 53.3568 38.9H60.4V16.8C60.4 16 61 15.4 61.8 15.4H70.1C70.9 15.4 71.5 16 71.5 16.8V22.2999H78.4C79.2 22.2999 79.8 22.8999 79.8 23.6999V40.2999C79.8 40.9999 79.2 41.6999 78.4 41.6999H77.3571L72.7265 44.4H74.2C74.5 44.4 74.8 44.5 75 44.7C77.3 46.4 79.3 51.5 78.3 58.4C77.5 64 78.7 68.9 79.6 71.4C79.6 71.4 79.6 71.5 79.7 71.6L83.8 81.2C84 81.6 83.9 82.1 83.7 82.5C83.4 82.8 83 83.1 82.5 83.1H81.1C79.5 83.1 78.1 82.4 76.8 81.1C71.8 75.9 70 61.8 70.1 58.2C70.2787 52.3937 68.2231 49.3802 66.6419 47.9478L44.6001 60.8C44.4001 60.9 44.1 61 43.9 61C43.7001 61 43.5001 60.9 43.3001 60.8L43.3 60.8L35.4832 56.7655C35.3555 56.7277 35.2278 56.6638 35.1001 56.6L35.1001 56.5999L24 50.8999C23.8999 50.8499 23.8061 50.781 23.7216 50.6996C21.8356 49.7339 19.9772 48.7749 18.2116 47.862C16.7679 49.1297 14.5263 52.1052 14.7 58.1C14.8 61.7 13 75.8 8.00002 81C6.80002 82.4 5.40002 83.1 3.80002 83.1H2.40001C1.90001 83.1 1.50001 82.9 1.20001 82.5C0.900015 82.1 0.900024 81.6 1.10002 81.2L5.20001 71.6C5.20001 71.5 5.20002 71.5 5.30002 71.4C6.10002 68.9 7.40002 64 6.60002 58.4C5.60002 51.4 7.60001 46.4 9.90001 44.7C10.1 44.5 10.4 44.4 10.7 44.4H11.5118C5.30004 41.1996 5.30005 41.182 5.30005 40.3C5.30005 39.5 5.90004 38.9 6.70004 38.9H20.5432C21.1934 35.7671 23.9795 33.4 27.3 33.4H35.6V22.3Z" fill="white"/>
<path d="M23.2128 38.8297L23.1114 39.1H23.4H50.5H50.7886L50.6873 38.8297C50.0617 37.1615 48.4934 35.9 46.6 35.9H27.3C25.4067 35.9 23.8384 37.1615 23.2128 38.8297ZM52.2 41.5H21.8C21.1105 41.5 20.6 40.9895 20.6 40.3C20.6 36.6104 23.6105 33.6 27.3 33.6H46.6C50.2896 33.6 53.3 36.6104 53.3 40.3C53.3 40.5946 53.1726 40.898 52.9642 41.1283C52.756 41.3584 52.4819 41.5 52.2 41.5Z" fill="black" stroke="white" stroke-width="0.4"/>
<path d="M37 35.9C36.3105 35.9 35.8 35.3895 35.8 34.7V21C35.8 20.3104 36.3105 19.8 37 19.8C37.6896 19.8 38.2 20.3104 38.2 21V34.8C38.2 35.0818 38.0584 35.356 37.8283 35.5642C37.5981 35.7725 37.2946 35.9 37 35.9Z" fill="black" stroke="white" stroke-width="0.4"/>
<path d="M24.7789 20.4894L24.7826 20.4819L24.7857 20.4742L25.1857 19.4742L25.1885 19.4672L25.1908 19.4599C27.4 12.4306 27.4 9.70633 27.4 1.60024V1.59996C27.4 0.910417 27.9105 0.399951 28.6 0.399951H45.2C45.8896 0.399951 46.4 0.910417 46.4 1.59996V1.60023C46.4 9.70632 46.4 12.4306 48.6092 19.4599L48.6115 19.4672L48.6143 19.4742L49.0143 20.4742L49.0174 20.4819L49.0211 20.4894C49.1922 20.8316 49.1883 21.2489 48.94 21.58L48.9292 21.5944L48.9211 21.6105C48.7635 21.9258 48.4452 22.1 48 22.1H25.9C25.463 22.1 25.1222 21.9296 24.86 21.58C24.6118 21.2489 24.6078 20.8316 24.7789 20.4894ZM27.7089 19.5411L27.6292 19.8H27.9H46H46.2708L46.1912 19.5411C44.1997 13.0688 44.1 9.99157 44.1 2.99995V2.79995H43.9H30.1H29.9V2.99995C29.9 9.88847 29.7009 13.0669 27.7089 19.5411Z" fill="black" stroke="white" stroke-width="0.4"/>
<path d="M24.7918 51.0222L24.791 51.0218C21.8409 49.5154 18.9312 48.0095 16.3074 46.6516C14.7511 45.8461 13.2954 45.0927 11.9916 44.4222C8.68487 42.7187 7.04815 41.8752 6.23422 41.3449C5.82553 41.0786 5.65454 40.9096 5.57664 40.7739C5.50382 40.647 5.50005 40.5315 5.50005 40.3C5.50005 39.6104 6.0105 39.1 6.70004 39.1H77C77.5269 39.1 78.0226 39.4517 78.1028 39.9328L78.1053 39.9483L78.1103 39.9632C78.2728 40.4509 78.041 40.9657 77.5863 41.3348L44.505 60.6239C44.3167 60.7171 44.0532 60.8 43.9 60.8C43.7564 60.8 43.6011 60.7269 43.3895 60.6211L43.385 60.6188L43.3648 60.6083L43.2851 60.5672L42.974 60.4066L41.7933 59.7972L37.5793 57.6222L24.7918 51.0222ZM12.2 41.5L12.1077 41.8774C19.408 45.6775 33.3083 52.8777 43.8086 58.2778L43.9061 58.328L44.0009 58.2727L72.1009 41.8727L72.7395 41.5H72H12.2Z" fill="black" stroke="white" stroke-width="0.4"/>
<path d="M66.7973 46.1671L66.7947 46.1516L66.7897 46.1367C66.627 45.6487 66.8595 45.1333 67.3149 44.7642L76.3964 39.2754C76.5846 39.1825 76.8472 39.1 77 39.1H82.5C83.1895 39.1 83.7 39.6104 83.7 40.3V45.8C83.7 46.4895 83.1895 47 82.5 47H67.9C67.3731 47 66.8775 46.6482 66.7973 46.1671ZM72.7943 44.2302L72.2 44.6H72.9H81.2H81.4V44.4V41.6V41.4H81.2H77.4H77.3428L77.2943 41.4302L72.7943 44.2302Z" fill="black" stroke="white" stroke-width="0.4"/>
<path d="M17.7081 44.6776L17.7081 44.6776L17.7106 44.6789C18.2271 44.9371 18.479 45.4393 18.3089 46.0408C18.124 46.5911 17.6816 47 17.2 47H2.50003C1.81049 47 1.30004 46.4895 1.30004 45.8V40.3C1.30004 39.6104 1.81049 39.1 2.50003 39.1H6.60004C6.79998 39.1 6.9368 39.1488 7.14079 39.2215C7.19576 39.2411 7.25561 39.2625 7.32289 39.2851C7.38348 39.3158 7.53441 39.3946 7.84731 39.5579C8.82494 40.0682 11.3837 41.4038 17.7081 44.6776ZM3.60003 44.4V44.6H3.80003H11.5L11.5934 44.2231C10.1015 43.4357 9.02323 42.8723 8.23675 42.4614C7.12112 41.8784 6.59255 41.6022 6.30293 41.4285L6.25542 41.4H6.20003H3.80003H3.60003V41.6V44.4Z" fill="black" stroke="white" stroke-width="0.4"/>
<path d="M66.2894 45.3789L66.2963 45.3754L66.3029 45.3715L67.2961 44.7755C67.4844 44.6825 67.7471 44.6 67.9 44.6H74.2C74.4603 44.6 74.7046 44.6874 74.8586 44.8414L74.8691 44.8519L74.8811 44.8608C75.9823 45.6747 77.0392 47.328 77.695 49.6542C78.3492 51.9749 78.5984 54.9464 78.1021 58.3713L78.102 58.3717C77.2985 63.9959 78.497 68.9168 79.4034 71.4443C79.4035 71.4447 79.4035 71.4451 79.4036 71.4454C79.4066 71.4669 79.4123 71.4943 79.4228 71.5257C79.441 71.5804 79.4734 71.6458 79.5297 71.7105L83.6161 81.2785L83.6157 81.2787L83.6211 81.2894C83.7758 81.5988 83.7128 82.0124 83.5353 82.3816C83.2495 82.6621 82.9064 82.9 82.5 82.9H81.1C79.5671 82.9 78.2156 82.2323 76.9428 80.9599C75.718 79.6856 74.68 77.8557 73.8146 75.7581C72.9497 73.6619 72.2621 71.3107 71.7324 69.0052C70.6723 64.3905 70.2506 59.9835 70.2999 58.2058C70.5018 51.6407 67.8719 48.5789 66.22 47.34C65.8704 47.0777 65.7 46.737 65.7 46.3C65.7 45.8862 65.9473 45.5499 66.2894 45.3789ZM69.705 47L69.2721 46.9892L69.5445 47.3258C71.2126 49.3863 72.7985 52.7385 72.6001 58.2928L72.6001 58.2943C72.5494 60.0682 73.0032 64.2118 73.9927 68.4455C74.488 70.5646 75.119 72.7129 75.8914 74.6037C76.6625 76.4914 77.5806 78.1377 78.6569 79.2397L78.6586 79.2414C79.1658 79.7486 79.6924 80.1749 80.3367 80.3897L80.762 80.5315L80.5834 80.1203L77.2963 72.5498C77.2899 72.5083 77.2758 72.4709 77.2559 72.4377C77.2365 72.4054 77.2129 72.3801 77.1993 72.3664L77.1904 72.3388C76.2942 69.5506 74.9044 64.1849 75.7979 58.1292L75.7981 58.1278C76.2011 55.2561 76.0509 52.8566 75.6326 51.0059C75.2155 49.1607 74.5281 47.8452 73.8414 47.1586L73.7849 47.102L73.705 47.1L69.705 47Z" fill="black" stroke="white" stroke-width="0.4"/>
<path d="M1.27891 81.2894L1.27923 81.2896L1.28395 81.2785L5.38394 71.6785L5.40001 71.6409V71.6C5.40001 71.5935 5.40002 71.588 5.40004 71.5833C5.40934 71.5735 5.42218 71.5606 5.44144 71.5414L5.47573 71.5071L5.49051 71.4609C6.29403 68.9499 7.60432 64.0158 6.79801 58.3717C6.30153 54.8963 6.55088 51.9247 7.20494 49.617C7.8604 47.3043 8.91695 45.6753 10.0189 44.8608L10.0309 44.8519L10.0414 44.8414C10.1954 44.6874 10.4397 44.6 10.7 44.6H17.1C17.2436 44.6 17.3989 44.673 17.6106 44.7789L18.6106 45.2789C18.9527 45.4499 19.2 45.7862 19.2 46.2C19.2 46.6358 19.0306 46.9758 18.6829 47.2378C17.329 48.1765 14.2982 51.1398 14.5001 58.1058C14.5494 59.8835 14.1277 64.2905 13.0676 68.9052C12.538 71.2107 11.8503 73.5619 10.9854 75.6581C10.1197 77.7565 9.08124 79.5869 7.85585 80.8613L7.85562 80.8611L7.84817 80.8698C6.67972 82.233 5.33242 82.9 3.80002 82.9H2.40001C1.96297 82.9 1.62225 82.7296 1.36001 82.38C1.11176 82.049 1.10783 81.6316 1.27891 81.2894ZM7.81028 72.2367L7.80002 72.2675V72.3C7.80002 72.3537 7.79906 72.3792 7.79349 72.4015C7.78959 72.4171 7.78241 72.4347 7.75859 72.4586L7.7317 72.4854L7.71656 72.5203L4.41657 80.1203L4.22296 80.5662L4.6743 80.3857C5.20071 80.1751 5.72327 79.8596 6.34145 79.2414L6.34309 79.2397C7.41945 78.1377 8.3375 76.4914 9.1086 74.6037C9.88099 72.7129 10.512 70.5646 11.0073 68.4455C11.9968 64.2118 12.4506 60.0682 12.3999 58.2943L12.3999 58.2928C12.2016 52.7396 13.8867 49.2892 15.5524 47.3295L15.8325 47H15.4H11.4H11.3172L11.2586 47.0585C10.5733 47.7438 9.86032 49.0577 9.43023 50.9046C8.99918 52.7556 8.8489 55.1551 9.30177 58.0268C9.99638 64.187 8.7043 69.5547 7.81028 72.2367Z" fill="black" stroke="white" stroke-width="0.4"/>
<path d="M24.0914 50.722L24.0914 50.722L24.0895 50.721C23.9291 50.6409 23.7796 50.4948 23.6696 50.3189C23.5593 50.1424 23.5 49.9537 23.5 49.7999C23.5 49.3368 23.6861 48.9305 23.9895 48.7788L24.0018 48.7727L24.0132 48.7649L37.7132 39.3648L37.7284 39.3544L37.7415 39.3414C37.8036 39.2792 37.8859 39.2421 37.9983 39.2217C38.1148 39.2005 38.246 39.1999 38.4 39.1999H60.5C61.0269 39.1999 61.5226 39.5517 61.6028 40.0328L61.6054 40.0483L61.6103 40.0632C61.773 40.5514 61.5404 41.0669 61.0847 41.436L36.442 56.501C36.2976 56.5065 36.1745 56.5311 36.0659 56.5528L36.0608 56.5538C35.9349 56.579 35.8278 56.5999 35.7 56.5999C35.5567 56.5999 35.4016 56.5271 35.1906 56.4216C35.1902 56.4214 35.1899 56.4212 35.1895 56.4211L24.0914 50.722ZM27.1871 49.3349L26.9111 49.5237L27.208 49.6775L35.5081 53.9775L35.6079 54.0292L35.704 53.9708L55.604 41.8708L56.2139 41.4999H55.5H38.7H38.6382L38.5871 41.5349L27.1871 49.3349Z" fill="black" stroke="white" stroke-width="0.4"/>
<path d="M63 38.9V39.1H63.2H68.7H68.9V38.9V18.2V18H68.7H63.2H63V18.2V38.9ZM70.1 41.5H61.8C61.1105 41.5 60.6 40.9895 60.6 40.3V16.8C60.6 16.1104 61.1105 15.6 61.8 15.6H70.1C70.7896 15.6 71.3 16.1104 71.3 16.8V40.3C71.3 40.8988 70.7805 41.5 70.1 41.5Z" fill="black" stroke="white" stroke-width="0.4"/>
<path d="M71.3 38.8999V39.0999H71.5H77H77.2V38.8999V25.0999V24.8999H77H71.5H71.3V25.0999V38.8999ZM78.4 41.4999H70.1C69.4105 41.4999 68.9 40.9895 68.9 40.2999V23.6999C68.9 23.0104 69.4105 22.4999 70.1 22.4999H78.4C79.0896 22.4999 79.6 23.0104 79.6 23.6999V40.2999C79.6 40.8988 79.0805 41.4999 78.4 41.4999Z" fill="black" stroke="white" stroke-width="0.4"/>
</svg>