<svg width="80" height="80" viewBox="0 0 80 80" fill="none" xmlns="http://www.w3.org/2000/svg">
<path d="M40 73.3333C19.0967 73.3333 3.33337 59 3.33337 40C3.33337 21 19.0967 6.66667 40 6.66667C40.6317 6.66667 41.2467 6.68501 41.8767 6.72001C43.435 6.79177 44.9175 7.41291 46.0617 8.47334C46.6984 9.06656 47.209 9.7819 47.5634 10.5767C47.9175 11.3716 48.1082 12.2296 48.1237 13.0996C48.1392 13.9697 47.9795 14.834 47.6539 15.641C47.3282 16.4479 46.8434 17.181 46.2284 17.7967L41.895 22.13C40.9977 23.0283 40.3869 24.1723 40.1395 25.4177C39.8924 26.663 40.0197 27.9537 40.5059 29.1267C40.9919 30.2997 41.8147 31.3022 42.8704 32.0075C43.926 32.713 45.167 33.0897 46.4367 33.09C46.59 33.09 46.7434 33.09 46.8967 33.0733L65.8684 31.7217C66.05 31.7083 66.2484 31.7017 66.445 31.7017C66.8299 31.7018 67.2142 31.7297 67.595 31.785L69.7017 32.085C71.6107 32.348 73.3625 33.2855 74.64 34.7282C75.9177 36.1708 76.6365 38.0232 76.6667 39.95C76.6809 45.1143 75.4435 50.2053 73.0605 54.787C70.6775 59.3687 67.2199 63.3048 62.9834 66.2583C62.9299 66.2963 62.8742 66.3315 62.8167 66.3633L55.5834 70.3133C55.5292 70.3425 55.4737 70.3685 55.4167 70.3917C50.5179 72.365 45.2814 73.3642 40 73.3333Z" fill="#EAEFF0"/>
<path d="M69.7017 32.0833L67.595 31.7833C67.2142 31.728 66.8299 31.7002 66.445 31.7C66.2484 31.7 66.05 31.7 65.8684 31.72L64.7017 31.8033C59.8855 41.05 52.8037 48.9248 44.1179 54.6915C35.4322 60.4582 25.4262 63.9285 15.035 64.7783C22.1019 70.4587 30.9345 73.4855 40 73.3333C45.2802 73.3638 50.5155 72.3647 55.4134 70.3917C55.4704 70.3685 55.5259 70.3423 55.58 70.3133L62.8134 66.3633C62.8709 66.3315 62.9265 66.2963 62.98 66.2583C67.217 63.3052 70.6755 59.3692 73.059 54.7875C75.4427 50.2058 76.6805 45.1147 76.6667 39.95C76.6369 38.0228 75.9182 36.1702 74.6405 34.7272C73.363 33.2842 71.611 32.3463 69.7017 32.0833Z" fill="#CDD3D3"/>
<path d="M18.3333 40C21.555 40 24.1667 37.3883 24.1667 34.1667C24.1667 30.945 21.555 28.3333 18.3333 28.3333C15.1117 28.3333 12.5 30.945 12.5 34.1667C12.5 37.3883 15.1117 40 18.3333 40Z" fill="#FD3730"/>
<path d="M22.5 56.6667C25.7216 56.6667 28.3333 54.055 28.3333 50.8333C28.3333 47.6117 25.7216 45 22.5 45C19.2783 45 16.6666 47.6117 16.6666 50.8333C16.6666 54.055 19.2783 56.6667 22.5 56.6667Z" fill="#FAC100"/>
<path d="M40 65C43.2216 65 45.8333 62.3883 45.8333 59.1667C45.8333 55.945 43.2216 53.3333 40 53.3333C36.7783 53.3333 34.1666 55.945 34.1666 59.1667C34.1666 62.3883 36.7783 65 40 65Z" fill="#00CF66"/>
<path d="M40 65C41.1815 65.0038 42.3363 64.6475 43.3101 63.9787C44.2841 63.3097 45.0311 62.3598 45.4516 61.2555C45.8721 60.1513 45.9463 58.9452 45.664 57.7978C45.3816 56.6505 44.7565 55.6163 43.8716 54.8333C40.8263 56.847 37.6075 58.585 34.2533 60.0267C34.456 61.4068 35.1476 62.6683 36.2025 63.5812C37.2573 64.494 38.605 64.9977 40 65Z" fill="#00B157"/>
<path d="M58.3333 76.6667C57.408 76.6668 56.5187 76.3073 55.8533 75.6643C55.1878 75.0213 54.7982 74.1448 54.7667 73.22L53.3333 31.8333C53.311 31.1628 53.4238 30.4947 53.665 29.8687C53.9063 29.2427 54.271 28.6717 54.7375 28.1895C55.204 27.7075 55.7628 27.3242 56.3807 27.0625C56.9983 26.801 57.6625 26.6663 58.3333 26.6667C59.0042 26.6663 59.6683 26.801 60.286 27.0625C60.9038 27.3242 61.4627 27.7075 61.9292 28.1895C62.3957 28.6717 62.7605 29.2427 63.0017 29.8687C63.2428 30.4947 63.3557 31.1628 63.3333 31.8333L61.9067 73.2167C61.876 74.1433 61.4858 75.0215 60.8188 75.6655C60.1518 76.3093 59.2605 76.6685 58.3333 76.6667Z" fill="#FFD188"/>
<path d="M58.3333 26.6667C57.7641 26.6727 57.2003 26.7768 56.6666 26.975C57.6666 27.325 58.5291 27.9848 59.1285 28.8585C59.728 29.7322 60.0333 30.7743 60 31.8333L58.5716 73.2167C58.5485 73.8433 58.3601 74.4527 58.0256 74.983C57.691 75.5133 57.2221 75.9458 56.6666 76.2367C57.1991 76.5258 57.7968 76.6738 58.4028 76.6662C59.0086 76.6585 59.6025 76.4955 60.1275 76.1928C60.6525 75.8903 61.0911 75.458 61.4015 74.9375C61.7118 74.4172 61.8835 73.8257 61.9 73.22L63.3333 31.8333C63.3556 31.1628 63.2428 30.4947 63.0016 29.8687C62.7603 29.2427 62.3956 28.6717 61.9291 28.1895C61.4626 27.7075 60.9038 27.3242 60.286 27.0625C59.6683 26.801 59.0041 26.6663 58.3333 26.6667Z" fill="#F9A06F"/>
<path d="M56.6666 3.33333C56.6666 8.33333 51.6666 11.6667 51.6666 18.3333C51.6666 20.1015 52.369 21.7972 53.6193 23.0473C54.8695 24.2977 56.5651 25 58.3333 25C60.1015 25 61.7971 24.2977 63.0473 23.0473C64.2976 21.7972 65 20.1015 65 18.3333C65 10 56.6666 3.33333 56.6666 3.33333Z" fill="#E67244"/>
<path d="M52.295 21.1217C52.9294 22.5018 54.0167 23.6235 55.3765 24.3005C56.7362 24.9775 58.2867 25.1692 59.7704 24.8435C61.254 24.5178 62.5817 23.6947 63.533 22.5105C64.4842 21.3263 65.0019 19.8523 65 18.3333C64.9842 16.723 64.6927 15.1271 64.1384 13.615C62.7652 15.5934 61.0099 17.2767 58.9759 18.566C56.9417 19.8552 54.6702 20.7242 52.295 21.1217Z" fill="#C6512B"/>
</svg>
