<svg width="80" height="80" viewBox="0 0 80 80" fill="none" xmlns="http://www.w3.org/2000/svg">
<g clip-path="url(#clip0_7_398)">
<path d="M35.4763 35.5086C37.7683 33.8259 40.1315 32.2011 42.501 30.5721C49.2689 25.9196 57.301 20.0932 62.6323 13.8293C62.3697 13.4502 62.2483 12.991 62.2891 12.5317C62.3299 12.0724 62.5304 11.6419 62.8557 11.315C63.2251 10.947 63.7252 10.7404 64.2466 10.7404C64.768 10.7404 65.2681 10.947 65.6374 11.315L68.6849 14.3625C69.032 14.7102 69.2366 15.1751 69.2582 15.666C69.2798 16.1568 69.117 16.638 68.8018 17.0148C68.4866 17.3917 68.0417 17.6369 67.5548 17.7023C67.0679 17.7677 66.5741 17.6486 66.1706 17.3682C59.9063 22.7003 54.0814 30.7305 49.4283 37.4989C47.7901 39.8819 46.1564 42.2584 44.4633 44.5626L43.9115 44.1581L44.464 44.5643C44.4344 44.6045 44.4006 44.6414 44.3632 44.6743L21.4636 68.1517C19.9208 69.7331 17.6837 69.4767 15.6376 68.2935C14.8294 67.819 14.0859 67.242 13.4256 66.577L13.9077 66.0922L13.4228 66.577C12.7575 65.9158 12.1806 65.1713 11.7064 64.3621C10.523 62.3164 10.2672 60.0788 11.8484 58.5365L35.3648 35.5993L35.3634 35.5979C35.3978 35.5643 35.4355 35.5344 35.4761 35.5086H35.4763Z" fill="#F1B642"/>
<path d="M35.7307 35.3223C37.9429 33.7057 40.2189 32.1409 42.5009 30.5721C43.1509 30.1252 43.8114 29.6676 44.4826 29.1995L50.8003 35.5172C50.3327 36.1867 49.8754 36.8471 49.4282 37.4983C47.8595 39.7807 46.2948 42.0571 44.6777 44.2693L35.7307 35.3223Z" fill="#F04D4D"/>
<path d="M49.6343 25.4873C52.4262 23.3997 55.2066 21.1717 57.742 18.8473L61.1532 22.2583C58.8282 24.7937 56.6004 27.5742 54.5126 30.3662L49.6343 25.4873Z" fill="#F04D4D"/>
<path d="M59.2745 17.3992C59.6957 16.9887 60.1076 16.5757 60.5103 16.1602L63.8399 19.4895C63.4244 19.8916 63.0114 20.3036 62.6009 20.7253L59.2752 17.3996L59.2745 17.3992Z" fill="#F04D4D"/>
<path d="M47.4412 67.9702C50.8812 67.9702 53.6698 65.1816 53.6698 61.7416C53.6698 58.3017 50.8812 55.5131 47.4412 55.5131C44.0013 55.5131 41.2126 58.3017 41.2126 61.7416C41.2126 65.1816 44.0013 67.9702 47.4412 67.9702Z" fill="#E6E6E6"/>
<path fill-rule="evenodd" clip-rule="evenodd" d="M50.8597 56.5347C51.095 56.6893 51.3195 56.8597 51.5318 57.0446C51.4206 57.2198 51.3161 57.3989 51.2182 57.5818L51.5812 57.7557C51.634 57.7776 51.6817 57.8101 51.7215 57.8511C51.7613 57.8921 51.7923 57.9407 51.8126 57.9941C51.833 58.0475 51.8423 58.1044 51.8399 58.1615C51.8375 58.2186 51.8235 58.2746 51.7987 58.3261C51.774 58.3776 51.739 58.4235 51.6959 58.461C51.6529 58.4985 51.6026 58.5269 51.5482 58.5443C51.4938 58.5617 51.4364 58.5679 51.3795 58.5625C51.3227 58.557 51.2675 58.54 51.2174 58.5125L50.8517 58.3368C50.7054 58.6834 50.5814 59.039 50.4805 59.4014L50.8779 59.4908C50.9867 59.5155 51.0812 59.5823 51.1407 59.6767C51.2002 59.7711 51.2198 59.8852 51.1951 59.994C51.1704 60.1028 51.1035 60.1974 51.0092 60.2569C50.9148 60.3164 50.8006 60.3359 50.6918 60.3112L50.2938 60.2209C50.2299 60.5846 50.1888 60.9519 50.1706 61.3206H50.5798C50.6902 61.3224 50.7954 61.3675 50.8727 61.4462C50.9501 61.5249 50.9935 61.6308 50.9935 61.7411C50.9935 61.8515 50.9501 61.9574 50.8727 62.0361C50.7954 62.1147 50.6902 62.1598 50.5798 62.1616H50.1706C50.1886 62.5305 50.2298 62.8979 50.2938 63.2616L50.6918 63.1712C50.8006 63.1466 50.9148 63.1661 51.0091 63.2256C51.1035 63.2851 51.1704 63.3796 51.195 63.4884C51.2197 63.5972 51.2002 63.7113 51.1407 63.8057C51.0812 63.9 50.9867 63.9669 50.8779 63.9916L50.4802 64.0815C50.5817 64.4437 50.7058 64.7992 50.8516 65.1459L51.218 64.97C51.2678 64.9461 51.3219 64.9322 51.377 64.9292C51.4322 64.9261 51.4874 64.934 51.5396 64.9523C51.5917 64.9707 51.6397 64.9991 51.6808 65.036C51.7219 65.0729 51.7554 65.1175 51.7793 65.1673C51.8034 65.2172 51.8175 65.2714 51.8206 65.3267C51.8237 65.382 51.8159 65.4374 51.7975 65.4896C51.7791 65.5419 51.7506 65.59 51.7136 65.6312C51.6765 65.6724 51.6317 65.7058 51.5817 65.7296L51.2187 65.9038C51.3165 66.0861 51.4209 66.2645 51.532 66.439C51.3197 66.6238 51.0953 66.7941 50.8602 66.9487C50.7173 66.7269 50.5839 66.4992 50.4602 66.2655L50.0651 66.4551C50.015 66.4826 49.9598 66.4997 49.9029 66.5052C49.846 66.5106 49.7886 66.5045 49.7342 66.487C49.6798 66.4696 49.6295 66.4412 49.5863 66.4037C49.5432 66.3661 49.5082 66.3202 49.4835 66.2687C49.4587 66.2172 49.4447 66.1611 49.4424 66.104C49.44 66.0469 49.4493 65.9899 49.4697 65.9365C49.49 65.8831 49.5211 65.8344 49.5609 65.7934C49.6008 65.7524 49.6485 65.72 49.7013 65.6981L50.0933 65.5098C49.921 65.1057 49.7761 64.6904 49.6597 64.2668L49.2369 64.3629C49.1823 64.3771 49.1255 64.3801 49.0697 64.3719C49.014 64.3637 48.9604 64.3444 48.9123 64.315C48.8642 64.2857 48.8224 64.247 48.7895 64.2013C48.7567 64.1555 48.7333 64.1036 48.7209 64.0486C48.7084 63.9937 48.7072 63.9368 48.7172 63.8813C48.7272 63.8258 48.7482 63.7729 48.779 63.7258C48.8099 63.6786 48.8498 63.6381 48.8966 63.6067C48.9434 63.5753 48.9961 63.5536 49.0514 63.5429L49.4742 63.4472C49.3972 63.0225 49.3491 62.593 49.3301 62.1617H48.898C48.7877 62.1599 48.6825 62.1148 48.6051 62.0362C48.5277 61.9575 48.4844 61.8516 48.4844 61.7412C48.4844 61.6309 48.5277 61.525 48.6051 61.4463C48.6825 61.3676 48.7877 61.3225 48.898 61.3207H49.3301C49.3491 60.8895 49.3972 60.4601 49.4742 60.0355L49.0514 59.9395C48.9447 59.9129 48.8526 59.8456 48.7949 59.7519C48.7372 59.6582 48.7186 59.5457 48.7429 59.4384C48.7673 59.3311 48.8327 59.2377 48.9251 59.1781C49.0176 59.1185 49.1297 59.0975 49.2374 59.1196L49.6578 59.2155C49.7748 58.7922 49.9202 58.3772 50.0931 57.9735L49.7011 57.7852C49.648 57.7635 49.5998 57.7312 49.5597 57.6902C49.5195 57.6492 49.4881 57.6004 49.4675 57.5469C49.4469 57.4933 49.4375 57.4361 49.4398 57.3788C49.4421 57.3214 49.4561 57.2652 49.481 57.2135C49.5059 57.1617 49.5411 57.1157 49.5845 57.0781C49.6278 57.0405 49.6784 57.0121 49.7331 56.9948C49.7878 56.9775 49.8455 56.9716 49.9026 56.9774C49.9597 56.9832 50.015 57.0006 50.0651 57.0286L50.4602 57.2182C50.5835 56.985 50.7169 56.7573 50.8602 56.535L50.8597 56.5347Z" fill="#F04D4D"/>
<path fill-rule="evenodd" clip-rule="evenodd" d="M44.0228 66.9486C43.7876 66.794 43.5632 66.6237 43.351 66.4388C43.462 66.2644 43.5663 66.086 43.6642 65.9038L43.3013 65.7296C43.2513 65.7058 43.2064 65.6723 43.1694 65.6311C43.1324 65.5898 43.1038 65.5417 43.0855 65.4894C43.0671 65.4371 43.0593 65.3817 43.0624 65.3264C43.0655 65.271 43.0796 65.2169 43.1037 65.167C43.1276 65.1172 43.161 65.0725 43.2022 65.0357C43.2433 64.9988 43.2913 64.9704 43.3434 64.952C43.3956 64.9337 43.4508 64.9259 43.506 64.9289C43.5611 64.9319 43.6152 64.9458 43.665 64.9697L44.0314 65.1455C44.1773 64.7989 44.3015 64.4434 44.403 64.0813L44.0053 63.9913C43.951 63.9796 43.8995 63.9572 43.8539 63.9255C43.8083 63.8937 43.7694 63.8532 43.7395 63.8064C43.7096 63.7595 43.6893 63.7072 43.6798 63.6524C43.6702 63.5977 43.6716 63.5416 43.6839 63.4874C43.6962 63.4332 43.7191 63.3819 43.7513 63.3366C43.7835 63.2913 43.8243 63.2528 43.8715 63.2234C43.9186 63.194 43.9712 63.1742 44.026 63.1652C44.0808 63.1562 44.1369 63.1582 44.191 63.171L44.5892 63.2613C44.6533 62.8976 44.6944 62.5302 44.7124 62.1614H44.3032C44.1917 62.1614 44.0848 62.1171 44.0059 62.0382C43.9271 61.9594 43.8828 61.8524 43.8828 61.7409C43.8828 61.6294 43.9271 61.5225 44.0059 61.4436C44.0848 61.3648 44.1917 61.3205 44.3032 61.3205H44.7124C44.6943 60.9516 44.6532 60.5842 44.5892 60.2205L44.191 60.3109C44.1369 60.3237 44.0808 60.3256 44.026 60.3166C43.9712 60.3076 43.9186 60.2879 43.8715 60.2584C43.8243 60.229 43.7835 60.1905 43.7513 60.1452C43.7191 60.0999 43.6962 60.0487 43.6839 59.9945C43.6716 59.9403 43.6702 59.8842 43.6798 59.8294C43.6893 59.7747 43.7096 59.7223 43.7395 59.6755C43.7694 59.6286 43.8083 59.5881 43.8539 59.5564C43.8995 59.5247 43.951 59.5023 44.0053 59.4905L44.4026 59.4009C44.3015 59.0386 44.1776 58.683 44.0314 58.3364L43.6656 58.5121C43.6156 58.5396 43.5604 58.5566 43.5036 58.5621C43.4467 58.5676 43.3893 58.5614 43.3349 58.5439C43.2805 58.5265 43.2302 58.4981 43.1872 58.4606C43.1441 58.4231 43.1091 58.3772 43.0843 58.3257C43.0596 58.2742 43.0456 58.2182 43.0432 58.1612C43.0408 58.1041 43.0501 58.0471 43.0704 57.9937C43.0908 57.9404 43.1218 57.8917 43.1616 57.8507C43.2014 57.8097 43.2491 57.7773 43.3019 57.7553L43.6647 57.5814C43.567 57.3985 43.4625 57.2195 43.3512 57.0442C43.5635 56.8593 43.7881 56.689 44.0234 56.5343C44.1661 56.7562 44.2992 56.984 44.4228 57.2175L44.8172 57.0286C44.8673 57.0011 44.9224 56.9841 44.9793 56.9786C45.0362 56.9732 45.0935 56.9793 45.1479 56.9968C45.2023 57.0142 45.2526 57.0426 45.2957 57.0801C45.3388 57.1176 45.3737 57.1635 45.3985 57.215C45.4232 57.2665 45.4372 57.3225 45.4396 57.3796C45.442 57.4366 45.4327 57.4936 45.4124 57.547C45.392 57.6004 45.361 57.649 45.3212 57.69C45.2814 57.731 45.2337 57.7635 45.181 57.7854L44.7891 57.9738C44.9617 58.3776 45.1071 58.7925 45.2243 59.2158L45.6447 59.1199C45.7524 59.0982 45.8642 59.1194 45.9564 59.179C46.0486 59.2387 46.1138 59.332 46.1381 59.4391C46.1623 59.5462 46.1437 59.6585 46.0863 59.7521C46.0288 59.8456 45.937 59.913 45.8306 59.9398L45.4077 60.0357C45.4851 60.4604 45.5335 60.8899 45.5529 61.3212H45.9846C46.0961 61.3212 46.2031 61.3655 46.2819 61.4443C46.3608 61.5232 46.4051 61.6301 46.4051 61.7416C46.4051 61.8531 46.3608 61.9601 46.2819 62.0389C46.2031 62.1178 46.0961 62.1621 45.9846 62.1621H45.5529C45.5337 62.5933 45.4855 63.0227 45.4085 63.4474L45.8314 63.5433C45.8863 63.5544 45.9385 63.5764 45.9848 63.608C46.0311 63.6395 46.0707 63.68 46.1011 63.7271C46.1316 63.7741 46.1523 63.8268 46.1621 63.882C46.1719 63.9372 46.1705 63.9937 46.1582 64.0484C46.1458 64.1031 46.1226 64.1547 46.0899 64.2003C46.0573 64.2458 46.0159 64.2844 45.9681 64.3138C45.9204 64.3431 45.8672 64.3626 45.8118 64.3711C45.7564 64.3796 45.6999 64.3769 45.6455 64.3632L45.2227 64.2673C45.1062 64.6909 44.9613 65.1062 44.7892 65.5103L45.1811 65.6988C45.2339 65.7206 45.2818 65.753 45.3217 65.794C45.3616 65.835 45.3928 65.8837 45.4132 65.9371C45.4336 65.9905 45.443 66.0476 45.4406 66.1047C45.4382 66.1619 45.4242 66.218 45.3994 66.2695C45.3746 66.3211 45.3396 66.367 45.2964 66.4046C45.2533 66.4421 45.2029 66.4705 45.1484 66.4879C45.0939 66.5053 45.0365 66.5114 44.9795 66.5058C44.9226 66.5002 44.8674 66.4831 44.8173 66.4554L44.4221 66.266C44.299 66.4993 44.1658 66.7271 44.0227 66.9492L44.0228 66.9486Z" fill="#F04D4D"/>
</g>
<defs>
<clipPath id="clip0_7_398">
<rect width="80" height="80" fill="white"/>
</clipPath>
</defs>
</svg>
