<svg width="80" height="80" viewBox="0 0 80 80" fill="none" xmlns="http://www.w3.org/2000/svg">
<path d="M40 76.6667C60.2505 76.6667 76.6667 60.2505 76.6667 40C76.6667 19.7495 60.2505 3.33334 40 3.33334C19.7495 3.33334 3.33337 19.7495 3.33337 40C3.33337 60.2505 19.7495 76.6667 40 76.6667Z" fill="#F87600"/>
<path d="M46.9833 67.9367C39.9544 67.9437 33.0873 65.8272 27.2818 61.8647C21.4764 57.902 17.0034 52.2781 14.4489 45.7298C11.8944 39.1815 11.3776 32.0143 12.9662 25.1673C14.5548 18.3203 18.1748 12.1128 23.3516 7.35834C18.1968 9.98314 13.7366 13.7908 10.3356 18.47C6.93464 23.1492 4.68952 28.5668 3.78387 34.28C2.87824 39.9933 3.33779 45.8396 5.12496 51.3413C6.91214 56.8428 9.97616 61.8432 14.0665 65.9335C18.1568 70.0238 23.1571 73.0878 28.6588 74.875C34.1603 76.6621 40.0068 77.1216 45.7199 76.216C51.4331 75.3105 56.8508 73.0653 61.5299 69.6643C66.2091 66.2633 70.0168 61.8031 72.6416 56.6483C69.3814 60.2065 65.4168 63.0475 60.9996 64.9908C56.5823 66.9341 51.8091 67.9373 46.9833 67.9367Z" fill="#E55C00"/>
<path d="M63.5667 23.43C65.354 21.232 66.7894 18.7698 67.8217 16.1317C66.9947 15.1688 66.1185 14.2493 65.1967 13.3767L64.9484 14.3C64.0577 16.9175 62.6789 19.3427 60.885 21.4467C57.8784 25.515 54.5 30.0933 54.0884 38.3333H41.6667V3.37501C41.1134 3.35001 40.5584 3.33334 40 3.33334C39.4417 3.33334 38.8867 3.35001 38.3334 3.37501V38.3333H25.9117C25.5067 30.0933 22.1217 25.515 19.115 21.4467C17.3212 19.3427 15.9424 16.9175 15.0517 14.3L14.8034 13.3767C13.8816 14.2493 13.0054 15.1688 12.1784 16.1317C13.2107 18.7698 14.6461 21.232 16.4334 23.43C19.2567 27.245 22.1334 31.225 22.5384 38.3333H3.37504C3.35004 38.8867 3.33337 39.4417 3.33337 40C3.33337 40.5583 3.35004 41.1133 3.37504 41.6667H22.5417C22.1367 48.775 19.26 52.755 16.4367 56.5717C14.6485 58.7685 13.213 61.2302 12.1817 63.8683C13.0088 64.8312 13.8849 65.7507 14.8067 66.6233L15.055 65.7017C15.9458 63.084 17.3239 60.6585 19.1167 58.5533C22.1167 54.485 25.51 49.9083 25.915 41.6667H38.3334V76.625C38.8867 76.65 39.4417 76.6667 40 76.6667C40.5584 76.6667 41.1134 76.65 41.6667 76.625V41.6667H54.0884C54.4934 49.9083 57.8784 54.485 60.8867 58.5533C62.6795 60.6585 64.0577 63.084 64.9484 65.7017L65.1967 66.6233C66.1185 65.7507 66.9947 64.8312 67.8217 63.8683C66.7904 61.2302 65.3549 58.7685 63.5667 56.5717C60.7434 52.755 57.8667 48.775 57.4617 41.6667H76.6284C76.6534 41.1133 76.67 40.5583 76.67 40C76.67 39.4417 76.6534 38.8867 76.6284 38.3333H57.4617C57.8667 31.225 60.7434 27.245 63.5667 23.43Z" fill="#2D4A60"/>
<path d="M64.9483 65.7017L65.1966 66.6233C66.1184 65.7507 66.9946 64.8312 67.8216 63.8683C67.5568 63.1133 67.2399 62.3777 66.8733 61.6667C65.9666 62.3 65.0304 62.8912 64.0649 63.44C64.4316 64.1637 64.7274 64.921 64.9483 65.7017Z" fill="#263F52"/>
<path d="M12.51 38.3333H3.37504C3.35004 38.8867 3.33337 39.4417 3.33337 40C3.33337 40.5583 3.35004 41.1133 3.37504 41.6667H13.1884C12.9084 40.5755 12.6823 39.4645 12.51 38.3333Z" fill="#263F52"/>
<path d="M15.0517 65.7017C15.9424 63.084 17.3205 60.6585 19.1133 58.5533C19.69 57.775 20.28 56.965 20.855 56.1283C20.0772 55.2528 19.3483 54.3422 18.6683 53.3967C17.95 54.5033 17.1917 55.5467 16.4333 56.5717C14.6452 58.7685 13.2097 61.2302 12.1783 63.8683C13.0054 64.8312 13.8816 65.7507 14.8033 66.6233L15.0517 65.7017Z" fill="#263F52"/>
<path d="M41.6667 76.625V67.49C40.5367 67.3167 39.4255 67.0905 38.3334 66.8117V76.625C38.8867 76.65 39.4417 76.6667 40 76.6667C40.5584 76.6667 41.1134 76.65 41.6667 76.625Z" fill="#263F52"/>
<path d="M14.8033 13.3767C13.8816 14.2493 13.0054 15.1688 12.1783 16.1317C12.7356 17.6722 13.4783 19.139 14.39 20.5C14.8796 19.2405 15.4422 18.0107 16.075 16.8167C15.6459 16.0163 15.3029 15.1727 15.0517 14.3L14.8033 13.3767Z" fill="#263F52"/>
</svg>
