<svg width="80" height="80" viewBox="0 0 80 80" fill="none" xmlns="http://www.w3.org/2000/svg">
<path d="M44.9241 34.9386C44.4726 34.9386 44.0257 34.7411 43.7218 34.3612C43.1911 33.6977 43.2986 32.7297 43.9621 32.1988L59.3468 19.8911C60.0104 19.3602 60.9783 19.468 61.5092 20.1314C62.04 20.7949 61.9324 21.7629 61.2689 22.2938L45.8843 34.6015C45.6004 34.8283 45.2611 34.9386 44.9241 34.9386Z" fill="#3C3B3D"/>
<path d="M64.8717 42.0154H59.4871C58.6377 42.0154 57.9486 41.3266 57.9486 40.4771V32.7848C57.9486 31.9351 58.6377 31.2463 59.4871 31.2463H64.8717C67.8408 31.2463 70.2563 33.6619 70.2563 36.6309C70.2563 38.0697 69.6965 39.422 68.6794 40.4386C67.6629 41.4554 66.3108 42.0154 64.8717 42.0154ZM61.0255 38.9386H64.8717C65.4886 38.9386 66.0681 38.6986 66.5038 38.2629C66.9395 37.8272 67.1794 37.2477 67.1794 36.6309C67.1794 35.3585 66.1441 34.3232 64.8717 34.3232H61.0255V38.9386Z" fill="#B3B3B3"/>
<path d="M21.5384 42.0154H16.1538C13.1847 42.0154 10.7692 39.5999 10.7692 36.6309C10.7692 35.192 11.3292 33.8397 12.3459 32.8229C13.3627 31.8063 14.715 31.2463 16.1538 31.2463H21.5384C22.3881 31.2463 23.0769 31.9351 23.0769 32.7848V40.4769C23.0769 41.3266 22.3881 42.0154 21.5384 42.0154ZM16.1538 34.3232C15.5369 34.3232 14.9572 34.5632 14.5216 34.9988C14.0859 35.4343 13.8461 36.0142 13.8461 36.6309C13.8461 37.9034 14.8813 38.9386 16.1538 38.9386H19.9999V34.3232H16.1538Z" fill="#B3B3B3"/>
<path d="M31.6733 18.2574C31.1029 18.2574 30.5549 17.9388 30.2887 17.3914L29.2795 15.316C28.651 14.0214 28.5639 12.5605 29.0339 11.2016C29.5042 9.84201 30.4758 8.7474 31.7696 8.11924C32.5101 7.75955 33.301 7.57709 34.1199 7.57709C36.1687 7.57709 38.0706 8.76663 38.9652 10.6077L39.9743 12.6828C40.1526 13.0497 40.1781 13.4726 40.0447 13.8583C39.9113 14.244 39.6304 14.5608 39.2633 14.7392L32.3449 18.1023C32.1282 18.2076 31.899 18.2574 31.6733 18.2574ZM34.1199 10.6539C33.7706 10.6539 33.4321 10.7323 33.1138 10.8869C32.5593 11.1562 32.1432 11.6251 31.9418 12.2074C31.7402 12.79 31.7776 13.4163 32.047 13.9712L32.3832 14.6625L36.5343 12.6446L36.1978 11.9529C35.8084 11.1514 35.0124 10.6539 34.1199 10.6539Z" fill="#B3B3B3"/>
<path d="M16.1538 11.2463C17.4291 11.2463 18.4615 12.2786 18.4615 13.554C18.4615 14.8277 17.4291 15.8617 16.1538 15.8617C14.8799 15.8617 13.8461 14.8277 13.8461 13.554C13.8461 12.2786 14.8799 11.2463 16.1538 11.2463Z" fill="#D7DEED"/>
<path d="M70.7692 54.3231C72.4692 54.3231 73.8461 55.7 73.8461 57.4C73.8461 59.0984 72.4692 60.4769 70.7692 60.4769C69.0707 60.4769 67.6923 59.0984 67.6923 57.4C67.6923 55.7 69.0707 54.3231 70.7692 54.3231Z" fill="#D7DEED"/>
<path d="M9.99995 66.6308C11.2753 66.6308 12.3076 67.6631 12.3076 68.9385C12.3076 70.2123 11.2753 71.2462 9.99995 71.2462C8.72611 71.2462 7.69226 70.2123 7.69226 68.9385C7.69226 67.6631 8.72611 66.6308 9.99995 66.6308Z" fill="#D7DEED"/>
<path d="M18.4661 58.9385H61.5338C61.3291 66.6185 55.0384 72.7847 47.3076 72.7847H32.6922C24.963 72.7847 18.6707 66.6185 18.4661 58.9385Z" fill="#414A56"/>
<path d="M69.1523 19.9908C69.2061 20.1523 69.2307 20.3152 69.2307 20.4769C69.2307 21.1214 68.823 21.7215 68.1784 21.9352C68.0169 21.9892 67.8523 22.0154 67.6907 22.0154C67.0475 22.0154 66.4477 21.6077 66.2323 20.9629C66.1784 20.8014 66.1538 20.6385 66.1538 20.4769C66.1538 19.8323 66.5615 19.2322 67.2061 19.0169C68.0123 18.7477 68.883 19.1846 69.1523 19.9908Z" fill="#D7DEED"/>
<path d="M69.1507 44.6062C69.2045 44.7677 69.2307 44.9322 69.2307 45.0938C69.2307 45.7369 68.823 46.3369 68.1784 46.5522C68.0168 46.6062 67.8538 46.6306 67.6922 46.6306C67.0476 46.6306 66.4476 46.2231 66.2322 45.5783C66.1784 45.4168 66.1522 45.2539 66.1522 45.0922C66.1522 44.4477 66.5615 43.8475 67.2061 43.6323C68.0107 43.3646 68.883 43.8 69.1507 44.6062Z" fill="#D7DEED"/>
<path d="M67.6138 67.6831C67.6677 67.8431 67.6923 68.0075 67.6923 68.1675C67.6923 68.8121 67.2846 69.4138 66.64 69.6275C66.4784 69.6814 66.3138 69.7075 66.1523 69.7075C65.509 69.7075 64.9092 69.3 64.6938 68.6552C64.64 68.4937 64.6154 68.3308 64.6154 68.1691C64.6154 67.5246 65.023 66.9244 65.6677 66.7092C66.4738 66.44 67.3446 66.8769 67.6138 67.6831Z" fill="#D7DEED"/>
<path d="M61.5385 38.9386V58.5539C61.5385 58.6833 61.5369 58.8108 61.5339 58.9385H18.4662C18.4631 58.8108 18.4615 58.6833 18.4615 58.5539V38.9386V31.2463H46.1539H61.5385V38.9386Z" fill="#57606F"/>
<path d="M56.923 12.4125L18.1815 31.2463C15.9523 26.6615 17.863 21.1371 22.4477 18.9078L30.7492 14.8725L37.6677 11.5095L44.5861 8.14647C45.8861 7.5157 47.2601 7.2157 48.614 7.2157C52.0369 7.21539 55.3261 9.1277 56.923 12.4125Z" fill="#414A56"/>
<path d="M12.2292 50.76C12.283 50.92 12.3076 51.0844 12.3076 51.2444C12.3076 51.8891 11.8999 52.4908 11.2553 52.7044C11.0938 52.7583 10.9292 52.7844 10.7676 52.7844C10.1246 52.7844 9.52456 52.3769 9.30917 51.7321C9.25533 51.5706 9.23071 51.4077 9.23071 51.246C9.23071 50.6015 9.6384 50.0014 10.283 49.7861C11.0892 49.5169 11.9599 49.9538 12.2292 50.76Z" fill="#D7DEED"/>
<path d="M9.15227 18.4523C9.20612 18.6139 9.23073 18.7768 9.23073 18.9385C9.23073 19.5829 8.82304 20.1831 8.17842 20.3968C8.01689 20.4508 7.85227 20.4769 7.69073 20.4769C7.04765 20.4769 6.44765 20.0693 6.23227 19.4245C6.17842 19.2629 6.15381 19.1 6.15381 18.9385C6.15381 18.2939 6.5615 17.6937 7.20612 17.4785C8.01227 17.2093 8.88304 17.6462 9.15227 18.4523Z" fill="#D7DEED"/>
</svg>
