<svg width="80" height="80" viewBox="0 0 80 80" fill="none" xmlns="http://www.w3.org/2000/svg">
<path d="M16.1499 22.05L16.0999 22" stroke="black" stroke-width="2" stroke-linecap="round" stroke-linejoin="round"/>
<path d="M21.575 16.625L21.525 16.575" stroke="black" stroke-width="2" stroke-linecap="round" stroke-linejoin="round"/>
<path d="M15.2125 8.48747C14.2578 7.5327 12.9628 6.99631 11.6125 6.99631C10.2622 6.99631 8.96725 7.5327 8.01248 8.48747C7.05769 9.44225 6.5213 10.7372 6.5213 12.0875C6.5213 13.4377 7.05769 14.7327 8.01248 15.6875L9.54998 17.225C9.66618 17.3421 9.80443 17.4351 9.95675 17.4986C10.1091 17.562 10.2725 17.5947 10.4375 17.5947C10.6025 17.5947 10.7659 17.562 10.9182 17.4986C11.0705 17.4351 11.2088 17.3421 11.325 17.225L16.75 11.8C16.871 11.6834 16.9671 11.5436 17.0329 11.3889C17.0986 11.2343 17.1325 11.068 17.1325 10.9C17.1325 10.7319 17.0986 10.5656 17.0329 10.411C16.9671 10.2564 16.871 10.1166 16.75 9.99997L15.2125 8.48747Z" fill="#C5C9F7"/>
<path d="M71.5124 64.7875L69.9999 63.25C69.8837 63.1329 69.7454 63.0399 69.5932 62.9764C69.4408 62.9129 69.2774 62.8802 69.1124 62.8802C68.9474 62.8802 68.7841 62.9129 68.6317 62.9764C68.4794 63.0399 68.3412 63.1329 68.2249 63.25L62.7999 68.675C62.6828 68.7913 62.5898 68.9295 62.5263 69.0818C62.4628 69.2341 62.4302 69.3975 62.4302 69.5625C62.4302 69.7275 62.4628 69.8909 62.5263 70.0433C62.5898 70.1955 62.6828 70.3338 62.7999 70.45L64.3374 71.9875C65.2922 72.9423 66.5872 73.4786 67.9374 73.4786C69.2877 73.4786 70.5827 72.9423 71.5374 71.9875C72.4922 71.0328 73.0285 69.7378 73.0285 68.3875C73.0285 67.0373 72.4922 65.7423 71.5374 64.7875H71.5124Z" fill="#C5C9F7"/>
<path d="M33.7499 27.0375C33.6336 26.9204 33.4954 26.8274 33.3431 26.7639C33.1908 26.7005 33.0274 26.6677 32.8624 26.6677C32.6974 26.6677 32.534 26.7005 32.3816 26.7639C32.2294 26.8274 32.0911 26.9204 31.9749 27.0375L26.5624 32.5C26.4453 32.6162 26.3523 32.7545 26.2888 32.9069C26.2253 33.0591 26.1926 33.2225 26.1926 33.3875C26.1926 33.5525 26.2253 33.7159 26.2888 33.8682C26.3523 34.0206 26.4453 34.1589 26.5624 34.275L45.7749 53.45C45.8911 53.5672 46.0294 53.6602 46.1816 53.7236C46.334 53.7871 46.4974 53.8197 46.6624 53.8197C46.8274 53.8197 46.9907 53.7871 47.1431 53.7236C47.2954 53.6602 47.4336 53.5672 47.5499 53.45L52.9749 48.025C53.092 47.9089 53.185 47.7706 53.2485 47.6182C53.312 47.4659 53.3446 47.3025 53.3446 47.1375C53.3446 46.9725 53.312 46.8091 53.2485 46.6569C53.185 46.5045 53.092 46.3662 52.9749 46.25L33.7499 27.0375Z" fill="#C5C9F7"/>
<path d="M73.05 54.5125C72.0632 53.5271 70.7257 52.9735 69.3312 52.9735C67.9367 52.9735 66.5993 53.5271 65.6125 54.5125L54.5125 65.6125C53.5262 66.6071 52.9755 67.9528 52.9812 69.3534C52.9871 70.754 53.5492 72.095 54.5437 73.0813C55.5384 74.0675 56.884 74.6184 58.2846 74.6125C59.6852 74.6066 61.0262 74.0446 62.0125 73.05L73.1125 61.95C74.0898 60.955 74.632 59.6129 74.6203 58.2184C74.6086 56.8237 74.0437 55.4909 73.05 54.5125Z" fill="#1689FC"/>
<path d="M18.05 6.94999L6.95003 18.05C5.95547 19.0445 5.39673 20.3935 5.39673 21.8C5.39673 23.2065 5.95547 24.5554 6.95003 25.55C7.94459 26.5445 9.29352 27.1032 10.7 27.1032C12.1066 27.1032 13.4555 26.5445 14.45 25.55L25.55 14.45C26.5363 13.4554 27.0871 12.1098 27.0813 10.7091C27.0754 9.30847 26.5134 7.9675 25.5188 6.98124C24.5243 5.99496 23.1786 5.44416 21.7779 5.45002C20.3773 5.45589 19.0363 6.01792 18.05 7.01249V6.94999Z" fill="#1689FC"/>
<path d="M28.75 7.66253L7.66253 28.75C6.67626 29.7446 6.12547 31.0903 6.13133 32.4909C6.13718 33.8915 6.69922 35.2325 7.69378 36.2188C8.68835 37.205 10.034 37.7559 11.4346 37.75C12.8352 37.7441 14.1762 37.1821 15.1625 36.1875L36.125 15.1C36.9577 14.0936 37.3864 12.8135 37.3277 11.5086C37.269 10.2037 36.7271 8.96731 35.8074 8.03979C34.8876 7.11226 33.6557 6.55994 32.3515 6.4902C31.0471 6.42048 29.7634 6.83834 28.75 7.66253Z" fill="#17ACE8"/>
<path d="M72.3375 43.875C71.3508 42.8895 70.0133 42.336 68.6187 42.336C67.2242 42.336 65.8867 42.8895 64.8999 43.875L43.8749 64.9C42.9464 65.8978 42.4412 67.2169 42.4657 68.5796C42.4902 69.9424 43.0424 71.2425 44.0062 72.2063C44.9699 73.17 46.2701 73.7224 47.6328 73.7467C48.9956 73.7712 50.3147 73.266 51.3124 72.3375L72.3375 51.3125C73.323 50.3258 73.8765 48.9883 73.8765 47.5938C73.8765 46.1993 73.323 44.8618 72.3375 43.875Z" fill="#17ACE8"/>
<path d="M46.5125 8.60004C45.5259 7.61459 44.1884 7.06108 42.7937 7.06108C41.3992 7.06108 40.0617 7.61459 39.075 8.60004L8.60003 39.075C8.11168 39.5675 7.72511 40.1514 7.46238 40.7931C7.19966 41.435 7.06592 42.1224 7.06883 42.8159C7.07468 44.2165 7.63672 45.5575 8.63128 46.5437C9.62585 47.53 10.9715 48.0809 12.3721 48.075C13.0656 48.0721 13.7519 47.9326 14.3915 47.6645C15.0311 47.3964 15.6116 47.005 16.1 46.5125L46.5125 16.0375C47.498 15.0509 48.0515 13.7133 48.0515 12.3188C48.0515 10.9243 47.498 9.58675 46.5125 8.60004Z" fill="#1689FC"/>
<path d="M71.3999 33.4875C70.4132 32.502 69.0757 31.9485 67.6811 31.9485C66.2866 31.9485 64.9491 32.502 63.9624 33.4875L33.4873 63.9625C32.5011 64.957 31.9503 66.3026 31.9562 67.7034C31.9621 69.104 32.5241 70.445 33.5186 71.4313C34.5132 72.4175 35.8588 72.9684 37.2595 72.9625C38.6601 72.9566 40.0011 72.3945 40.9874 71.4L71.3999 40.925C71.8972 40.4354 72.2922 39.8516 72.5618 39.2078C72.8315 38.564 72.9704 37.873 72.9704 37.175C72.9704 36.477 72.8315 35.786 72.5618 35.1423C72.2922 34.4984 71.8972 33.9146 71.3999 33.425V33.4875Z" fill="#1689FC"/>
</svg>
