<svg width="80" height="80" viewBox="0 0 80 80" fill="none" xmlns="http://www.w3.org/2000/svg">
<path d="M40 76.6667C60.2505 76.6667 76.6667 60.2505 76.6667 40C76.6667 19.7495 60.2505 3.33333 40 3.33333C19.7495 3.33333 3.33337 19.7495 3.33337 40C3.33337 60.2505 19.7495 76.6667 40 76.6667Z" fill="#EAEFF0"/>
<path d="M46.9834 67.9367C39.9545 67.9437 33.0874 65.8272 27.282 61.8647C21.4765 57.902 17.0035 52.2782 14.449 45.7298C11.8945 39.1815 11.3777 32.0143 12.9663 25.1673C14.5549 18.3203 18.1749 12.1128 23.3517 7.35835C18.197 9.98315 13.7367 13.7908 10.3357 18.47C6.93476 23.1492 4.68964 28.5668 3.78399 34.28C2.87836 39.9933 3.33791 45.8397 5.12508 51.3413C6.91224 56.8428 9.97628 61.8432 14.0666 65.9335C18.1569 70.0238 23.1572 73.0878 28.6589 74.875C34.1604 76.6622 40.0069 77.1217 45.72 76.216C51.4332 75.3105 56.851 73.0653 61.53 69.6643C66.2092 66.2633 70.0169 61.8032 72.6417 56.6483C69.3815 60.2065 65.4169 63.0475 60.9997 64.9908C56.5824 66.9342 51.8092 67.9373 46.9834 67.9367Z" fill="#CDD3D3"/>
<path d="M55.2833 37.1667C55.3126 37.0332 55.3338 36.8978 55.3466 36.7617L65 33.6317C65.0943 33.7388 65.1956 33.8397 65.3033 33.9333L76.6033 42.15C76.6533 41.45 76.67 40.7167 76.67 40C76.6845 31.5138 73.7438 23.2875 68.3533 16.7333L64.0366 30.0333C64.0056 30.1742 63.9828 30.3167 63.9683 30.46L54.3333 33.59C54.2328 33.4757 54.1255 33.3677 54.0116 33.2667L42.05 24.5767C41.9266 24.5027 41.7986 24.437 41.6666 24.38V14.2633C41.7988 14.2068 41.927 14.1411 42.05 14.0667L53.3666 5.85002C44.7715 2.49443 35.2285 2.49443 26.6333 5.85002L37.95 14.0667C38.073 14.1411 38.2011 14.2068 38.3333 14.2633V24.38C38.2001 24.4368 38.071 24.5025 37.9466 24.5767L25.985 33.2667C25.8711 33.3677 25.7638 33.4757 25.6633 33.59L16.035 30.46C16.0205 30.3167 15.9977 30.1742 15.9666 30.0333L11.65 16.7333C6.2594 23.2875 3.31887 31.5138 3.3333 40C3.3333 40.7167 3.34997 41.45 3.39997 42.15L14.7 33.9333C14.8069 33.8393 14.9071 33.738 15 33.63L24.65 36.7667C24.6628 36.9028 24.684 37.0382 24.7133 37.1717L29.2833 51.2333C29.3416 51.3702 29.4096 51.5027 29.4866 51.63L23.5283 59.8333C23.3871 59.8013 23.2441 59.7785 23.1 59.765H9.11664C14.091 67.5343 21.8086 73.1457 30.7333 75.4817L26.4166 62.1817C26.3596 62.0505 26.2945 61.923 26.2216 61.8L32.1933 53.5783C32.3296 53.609 32.4676 53.6312 32.6066 53.645H47.3933C47.5323 53.6312 47.6703 53.609 47.8066 53.5783L53.7783 61.8C53.7048 61.9227 53.6396 62.0502 53.5833 62.1817L49.2666 75.4817C58.1913 73.1457 65.909 67.5343 70.8833 59.765H56.9C56.7558 59.7785 56.6128 59.8013 56.4716 59.8333L50.51 51.63C50.5866 51.502 50.6546 51.3688 50.7133 51.2317L55.2833 37.1667Z" fill="#2D4A60"/>
<path d="M23.9667 59.2317L23.5284 59.835C23.3872 59.803 23.2442 59.7802 23.1 59.7667H9.1167C14.091 67.536 21.8087 73.1473 30.7334 75.4833L26.4167 62.1833C26.3597 62.0522 26.2945 61.9247 26.2217 61.8017L26.5767 61.3117C25.6734 60.6595 24.8034 59.9662 23.9667 59.2317Z" fill="#263F52"/>
<path d="M69.3584 59.7667C64.3684 63.9699 58.2942 66.6807 51.8334 67.5884L49.2667 75.4834C58.1914 73.1474 65.9091 67.536 70.8834 59.7667H69.3584Z" fill="#263F52"/>
<path d="M11.65 16.7333C6.2594 23.2875 3.31887 31.5138 3.3333 40C3.3333 40.7167 3.34997 41.45 3.39997 42.15L12.2016 35.75C12.1316 34.845 12.0633 33.9383 12.0633 33.0167C12.0632 29.5445 12.5852 26.092 13.6116 22.775L11.65 16.7333Z" fill="#263F52"/>
</svg>
