<svg width="80" height="80" viewBox="0 0 80 80" fill="none" xmlns="http://www.w3.org/2000/svg">
<path d="M40.7018 38.6358V21.0919C40.7018 17.6182 43.5439 14.7761 47.0176 14.7761C50.4913 14.7761 53.3334 17.6182 53.3334 21.0919V26.0042C53.3334 29.0919 55.8597 31.6182 58.9474 31.6182C62.0351 31.6182 64.5614 29.0919 64.5614 26.0042V3.54807" stroke="#38454F" stroke-width="2" stroke-miterlimit="10" stroke-linecap="round"/>
<path d="M63.4961 77.854C61.6674 77.8849 55.8442 77.4779 50.4239 75.986C44.0884 74.2428 36.2189 74.2498 29.8807 75.986C24.4182 77.4821 19.3249 77.8863 16.8084 77.854C7.21684 77.7305 0 68.0982 0 58.2442C0 47.4596 8.82386 38.6344 19.6098 38.6344H60.6961C71.4807 38.6358 80 47.4596 80 58.2442C80 68.0982 73.0877 77.6912 63.4961 77.854Z" fill="#CBD4D8"/>
<path d="M37.8948 44.2498H44.3958" stroke="#AFB6BB" stroke-width="2" stroke-miterlimit="10" stroke-linecap="round"/>
<path d="M50.5263 62.4954C52.8517 62.4954 54.7369 60.6103 54.7369 58.2849C54.7369 55.9595 52.8517 54.0744 50.5263 54.0744C48.2009 54.0744 46.3158 55.9595 46.3158 58.2849C46.3158 60.6103 48.2009 62.4954 50.5263 62.4954Z" fill="#43B05C"/>
<path d="M70.1755 62.4954C72.5009 62.4954 74.386 60.6103 74.386 58.2849C74.386 55.9595 72.5009 54.0744 70.1755 54.0744C67.8501 54.0744 65.965 55.9595 65.965 58.2849C65.965 60.6103 67.8501 62.4954 70.1755 62.4954Z" fill="#DD352E"/>
<path d="M60.3509 72.32C62.6763 72.32 64.5614 70.4349 64.5614 68.1095C64.5614 65.7841 62.6763 63.899 60.3509 63.899C58.0255 63.899 56.1404 65.7841 56.1404 68.1095C56.1404 70.4349 58.0255 72.32 60.3509 72.32Z" fill="#EBBA16"/>
<path d="M60.3509 52.6709C62.6763 52.6709 64.5614 50.7858 64.5614 48.4604C64.5614 46.1349 62.6763 44.2498 60.3509 44.2498C58.0255 44.2498 56.1404 46.1349 56.1404 48.4604C56.1404 50.7858 58.0255 52.6709 60.3509 52.6709Z" fill="#366DB6"/>
<path d="M30.8772 54.0744H25.2631V48.4604H16.8421V54.0744H11.228V62.4955H16.8421V68.1095H25.2631V62.4955H30.8772V54.0744Z" fill="#38454F"/>
</svg>
