<svg width="80" height="80" viewBox="0 0 80 80" fill="none" xmlns="http://www.w3.org/2000/svg">
<path d="M65.675 16.1C62.336 12.7845 57.946 10.7362 53.2602 10.3073C48.5743 9.87836 43.8854 11.0957 40.0001 13.75C36.1199 11.0784 31.4259 9.85176 26.7349 10.2834C22.0438 10.7151 17.6526 12.7778 14.3251 16.1125C10.9289 19.5383 8.86368 24.0615 8.49949 28.8716C8.13529 33.6818 9.49592 38.4644 12.3376 42.3625C12.9418 43.17 13.6018 43.9344 14.3126 44.65L39.1126 69.45C39.1942 69.513 39.2822 69.5675 39.3751 69.6125C39.4241 69.657 39.4787 69.6949 39.5375 69.725C39.6843 69.785 39.8416 69.8149 40.0001 69.8125C40.1626 69.8145 40.3239 69.7848 40.4751 69.725L40.6251 69.6125C40.7194 69.5704 40.8078 69.5158 40.8875 69.45L65.675 44.65C66.3923 43.9404 67.0527 43.1756 67.65 42.3625C70.513 38.4734 71.8879 33.6873 71.5257 28.8716C71.1633 24.056 69.0877 19.5294 65.675 16.1125V16.1Z" fill="#EE283B"/>
<path d="M63.0375 31.6375C62.706 31.6375 62.388 31.5059 62.1536 31.2714C61.9191 31.037 61.7875 30.719 61.7875 30.3875C61.7875 29.0212 61.518 27.6685 60.9944 26.4066C60.4708 25.1447 59.7034 23.9985 58.7363 23.0336C57.769 22.0687 56.6209 21.3041 55.3578 20.7835C54.0946 20.263 52.7411 19.9967 51.375 20C51.0435 20 50.7255 19.8684 50.4911 19.6339C50.2566 19.3995 50.125 19.0815 50.125 18.75C50.125 18.4185 50.2566 18.1005 50.4911 17.8661C50.7255 17.6317 51.0435 17.5 51.375 17.5C53.0704 17.4934 54.7504 17.8221 56.3184 18.4671C57.8864 19.1121 59.3114 20.0607 60.5114 21.2585C61.7114 22.4561 62.6628 23.8792 63.3109 25.446C63.9589 27.0127 64.2908 28.6921 64.2875 30.3875C64.2875 30.719 64.1558 31.037 63.9214 31.2714C63.6869 31.5059 63.369 31.6375 63.0375 31.6375Z" fill="white"/>
</svg>
