<svg width="80" height="80" viewBox="0 0 80 80" fill="none" xmlns="http://www.w3.org/2000/svg">
<path d="M41.6667 10H11.6667C9.45738 10.0026 7.3393 10.8815 5.77707 12.4437C4.21484 14.0059 3.33602 16.124 3.33337 18.3333V38.3333C3.33602 40.5427 4.21484 42.6607 5.77707 44.223C7.3393 45.7852 9.45738 46.664 11.6667 46.6667H13.3334V52.155C13.3331 52.6496 13.4796 53.1332 13.7543 53.5445C14.029 53.9559 14.4196 54.2765 14.8765 54.4658C15.3335 54.6551 15.8363 54.7046 16.3214 54.608C16.8065 54.5115 17.2521 54.2732 17.6017 53.9233L24.8567 46.6667H41.6667C43.876 46.664 45.9941 45.7852 47.5563 44.223C49.1186 42.6607 49.9974 40.5427 50 38.3333V18.3333C49.9974 16.124 49.1186 14.0059 47.5563 12.4437C45.9941 10.8815 43.876 10.0026 41.6667 10Z" fill="#EAEFF0"/>
<path d="M6.10171 12.175C5.23386 12.9497 4.53884 13.8984 4.06188 14.9594C3.58492 16.0205 3.3367 17.17 3.33337 18.3333V38.3333C3.33602 40.5427 4.21484 42.6607 5.77707 44.223C7.3393 45.7852 9.45738 46.664 11.6667 46.6667H13.3334V52.155C13.3332 52.6496 13.4797 53.1332 13.7543 53.5445C14.029 53.9558 14.4196 54.2765 14.8765 54.4658C15.3335 54.6551 15.8363 54.7046 16.3214 54.608C16.8065 54.5115 17.2521 54.2732 17.6017 53.9233L24.8567 46.6667H41.6667C43.7268 46.6625 45.7112 45.8899 47.2317 44.5L6.10171 12.175Z" fill="#D9E1E2"/>
<path d="M36.5168 37.6433L28.1834 19.31C28.0509 19.019 27.8374 18.7723 27.5684 18.5993C27.2995 18.4263 26.9865 18.3344 26.6668 18.3344C26.347 18.3344 26.034 18.4263 25.7651 18.5993C25.4961 18.7723 25.2827 19.019 25.1501 19.31L16.8168 37.6433C16.6453 38.0437 16.6375 38.4953 16.7948 38.9015C16.9522 39.3076 17.2623 39.636 17.6587 39.8163C18.0552 39.9967 18.5065 40.0147 18.9161 39.8665C19.3256 39.7183 19.6609 39.4156 19.8501 39.0233L22.4368 33.3333H30.8968L33.4834 39.0233C33.6159 39.3145 33.8293 39.5614 34.0982 39.7346C34.3671 39.9078 34.6802 39.9999 35.0001 40C35.2383 40.0008 35.4737 39.9496 35.6901 39.85C36.0923 39.6669 36.4053 39.3316 36.5603 38.9178C36.7153 38.504 36.6996 38.0456 36.5168 37.6433ZM23.9518 30L26.6668 24.0283L29.3818 30H23.9518Z" fill="#2D4A60"/>
<path d="M23.9518 30L25.2251 27.2L22.5268 25.08L16.8168 37.6433C16.6453 38.0437 16.6375 38.4953 16.7948 38.9014C16.9522 39.3076 17.2623 39.636 17.6587 39.8163C18.0552 39.9967 18.5065 40.0147 18.9161 39.8665C19.3256 39.7183 19.6609 39.4156 19.8501 39.0233L22.4368 33.3333H30.8968L33.4834 39.0233C33.6159 39.3145 33.8293 39.5614 34.0982 39.7346C34.3671 39.9078 34.6802 39.9999 35.0001 40C35.2383 40.0008 35.4737 39.9496 35.6901 39.85C35.8898 39.76 36.0698 39.6314 36.2198 39.4717C36.3698 39.3121 36.4869 39.1244 36.5643 38.9194C36.6417 38.7145 36.6779 38.4963 36.6709 38.2773C36.6639 38.0584 36.6138 37.8429 36.5234 37.6433L35.4134 35.2L28.7884 30H23.9518Z" fill="#263F52"/>
<path d="M38.3333 28.3333H68.3333C70.5427 28.336 72.6607 29.2148 74.223 30.777C75.7852 32.3393 76.664 34.4573 76.6667 36.6667V56.6667C76.664 58.876 75.7852 60.9941 74.223 62.5563C72.6607 64.1185 70.5427 64.9974 68.3333 65H66.6667V70.4883C66.6669 70.983 66.5204 71.4665 66.2457 71.8779C65.971 72.2892 65.5805 72.6098 65.1235 72.7991C64.6666 72.9884 64.1637 73.0379 63.6786 72.9414C63.1935 72.8448 62.748 72.6065 62.3983 72.2567L55.1433 65H38.3333C36.124 64.9974 34.0059 64.1185 32.4437 62.5563C30.8815 60.9941 30.0026 58.876 30 56.6667V36.6667C30.0026 34.4573 30.8815 32.3393 32.4437 30.777C34.0059 29.2148 36.124 28.336 38.3333 28.3333Z" fill="#FAC100"/>
<path d="M32.7683 30.5083C31.9005 31.283 31.2055 32.2317 30.7285 33.2928C30.2515 34.3538 30.0033 35.5034 30 36.6667V56.6667C30.0026 58.876 30.8815 60.9941 32.4437 62.5563C34.0059 64.1185 36.124 64.9973 38.3333 65H55.1433L62.3983 72.255C62.7479 72.6047 63.1933 72.843 63.6782 72.9396C64.1632 73.0362 64.6659 72.9868 65.1228 72.7977C65.5797 72.6086 65.9702 72.2883 66.245 71.8772C66.5198 71.4661 66.6666 70.9828 66.6667 70.4883V65H68.3333C70.3934 64.9958 72.3778 64.2232 73.8983 62.8333L32.7683 30.5083Z" fill="#FF9500"/>
<path d="M60.735 44.1667H61.6667C62.1087 44.1667 62.5327 43.9911 62.8452 43.6785C63.1578 43.3659 63.3334 42.942 63.3334 42.5C63.3334 42.058 63.1578 41.634 62.8452 41.3215C62.5327 41.0089 62.1087 40.8333 61.6667 40.8333H55V37.5C55 37.058 54.8244 36.634 54.5119 36.3215C54.1993 36.0089 53.7754 35.8333 53.3334 35.8333C52.8913 35.8333 52.4674 36.0089 52.1549 36.3215C51.8423 36.634 51.6667 37.058 51.6667 37.5V40.8333H45C44.558 40.8333 44.1341 41.0089 43.8215 41.3215C43.509 41.634 43.3334 42.058 43.3334 42.5C43.3334 42.942 43.509 43.3659 43.8215 43.6785C44.1341 43.9911 44.558 44.1667 45 44.1667H57.3667C56.9586 46.9982 55.5186 49.579 53.3234 51.4133C52.0411 50.3424 51.0048 49.0076 50.285 47.5C50.1957 47.2954 50.0661 47.1108 49.9041 46.9573C49.742 46.8037 49.5508 46.6843 49.3417 46.606C49.1326 46.5278 48.9099 46.4924 48.6868 46.5019C48.4637 46.5114 48.2449 46.5656 48.0432 46.6613C47.8415 46.757 47.6611 46.8923 47.5126 47.0591C47.3642 47.2259 47.2508 47.4208 47.1792 47.6322C47.1075 47.8437 47.0791 48.0673 47.0956 48.29C47.112 48.5126 47.1731 48.7297 47.275 48.9283C48.0491 50.5348 49.1078 51.9877 50.4 53.2167C48.9194 53.8498 47.3254 54.1753 45.715 54.1733C45.4992 54.1743 45.2857 54.2186 45.0872 54.3034C44.8887 54.3883 44.7092 54.512 44.5593 54.6674C44.4094 54.8227 44.2921 55.0065 44.2144 55.2079C44.1366 55.4093 44.1 55.6242 44.1067 55.84C44.1202 56.2882 44.3083 56.7133 44.6309 57.0247C44.9535 57.3361 45.385 57.509 45.8334 57.5067C48.4821 57.5057 51.0827 56.798 53.3667 55.4567C55.6719 56.7924 58.2875 57.4994 60.9517 57.5067C61.1676 57.5056 61.3811 57.4614 61.5796 57.3766C61.7781 57.2917 61.9576 57.168 62.1075 57.0126C62.2574 56.8573 62.3747 56.6735 62.4524 56.4721C62.5301 56.2707 62.5667 56.0558 62.56 55.84C62.5466 55.3918 62.3585 54.9667 62.0359 54.6553C61.7133 54.3439 61.2817 54.1709 60.8334 54.1733C59.2742 54.1672 57.7322 53.8464 56.3 53.23C58.784 50.8141 60.3517 47.6104 60.735 44.1667Z" fill="#2D4A60"/>
<path d="M55.7617 48.575C55.1071 49.6448 54.2837 50.6016 53.3234 51.4083C52.0417 50.3388 51.0054 49.0058 50.2851 47.5C50.1957 47.2954 50.0662 47.1108 49.9041 46.9573C49.742 46.8037 49.5508 46.6843 49.3417 46.6061C49.1326 46.5278 48.9099 46.4924 48.6868 46.5019C48.4638 46.5114 48.2449 46.5656 48.0432 46.6613C47.8415 46.757 47.6611 46.8923 47.5127 47.0591C47.3642 47.2259 47.2508 47.4208 47.1792 47.6322C47.1075 47.8437 47.0791 48.0674 47.0956 48.29C47.1121 48.5127 47.1731 48.7297 47.2751 48.9283C48.0491 50.5348 49.1079 51.9878 50.4001 53.2167C48.9194 53.8498 47.3254 54.1753 45.7151 54.1733C45.4992 54.1744 45.2857 54.2186 45.0872 54.3034C44.8887 54.3883 44.7092 54.512 44.5593 54.6674C44.4094 54.8227 44.2921 55.0065 44.2144 55.2079C44.1367 55.4093 44.1001 55.6242 44.1067 55.84C44.1202 56.2882 44.3083 56.7133 44.6309 57.0247C44.9535 57.3361 45.385 57.5091 45.8334 57.5067C48.4822 57.5057 51.0827 56.798 53.3667 55.4567C55.6719 56.7924 58.2875 57.4994 60.9517 57.5067C61.1676 57.5057 61.3811 57.4614 61.5796 57.3766C61.7781 57.2917 61.9576 57.168 62.1075 57.0126C62.2574 56.8573 62.3747 56.6735 62.4524 56.4721C62.5301 56.2707 62.5667 56.0558 62.5601 55.84C62.5466 55.3918 62.3585 54.9667 62.0359 54.6553C61.7133 54.3439 61.2818 54.171 60.8334 54.1733C59.2742 54.1673 57.7323 53.8464 56.3001 53.23C57.0928 52.451 57.7971 51.5869 58.4001 50.6533L55.7617 48.575Z" fill="#263F52"/>
<path d="M45 44.1667H50.1517L45.9084 40.8333H45C44.558 40.8333 44.1341 41.0089 43.8215 41.3215C43.509 41.634 43.3334 42.058 43.3334 42.5C43.3334 42.942 43.509 43.3659 43.8215 43.6785C44.1341 43.9911 44.558 44.1667 45 44.1667Z" fill="#263F52"/>
</svg>
