<svg width="80" height="80" viewBox="0 0 80 80" fill="none" xmlns="http://www.w3.org/2000/svg">
<g clip-path="url(#clip0_7_583)">
<path fill-rule="evenodd" clip-rule="evenodd" d="M58.8166 77.5161H20.2929C19.6836 77.5161 19.215 77.0475 19.215 76.4382V34.5401L16.6842 43.9602C16.5905 44.4288 16.1687 44.7569 15.7 44.7569H1.03103C0.749833 44.7569 0.421773 44.6163 0.234309 44.382C0.046846 44.1008 -0.0468857 43.7727 -1.98824e-05 43.4915C1.35909 37.1178 2.15581 32.2906 2.76506 28.4476C5.06149 14.669 5.20209 14.4815 18.9338 6.37376C21.1365 5.06151 23.6672 3.60867 26.6198 1.7809C26.8072 1.68717 26.9947 1.6403 27.1822 1.6403H51.9273C52.1148 1.6403 52.3023 1.68717 52.4897 1.7809C55.4423 3.60867 57.973 5.06151 60.1757 6.37376C73.9074 14.4815 74.048 14.669 76.3444 28.4476C76.9537 32.2906 77.7504 37.1178 79.0626 43.4915C79.1564 43.7727 79.0626 44.1008 78.8752 44.382C78.6877 44.6163 78.3597 44.7569 78.0316 44.7569H63.4095C62.9408 44.7569 62.519 44.4288 62.4253 43.9602L59.8945 34.5401V76.4382C59.8945 77.0475 59.4259 77.5161 58.8166 77.5161Z" fill="url(#paint0_linear_7_583)"/>
<path fill-rule="evenodd" clip-rule="evenodd" d="M41.0544 77.5161H38.9455C38.9455 77.4224 38.9455 77.3755 38.9455 77.2818V61.8161C38.9455 61.2068 39.4141 60.7381 39.9765 60.7381C40.5858 60.7381 41.0544 61.2068 41.0544 61.8161V77.2818C41.0544 77.3755 41.0544 77.4224 41.0544 77.5161ZM25.9636 2.20269L26.0574 2.10896L26.198 2.0621L26.3385 1.96837L26.4791 1.87463L26.6197 1.7809C26.8072 1.68717 26.9947 1.6403 27.1821 1.6403H28.0726L28.8224 2.85882L39.9765 20.7147L51.2243 2.71822L51.8804 1.6403H51.9273C52.1148 1.6403 52.3022 1.68717 52.4897 1.7809L52.5366 1.82777H52.5834V1.87463H52.6303L52.6771 1.9215H52.724L52.7709 1.96837H52.8177V2.01523H52.8646L52.9115 2.0621H52.9583L53.0052 2.10896H53.0521V2.15583H53.0989L53.1458 2.20269H53.1927V2.24956H53.2395H53.2864V2.29643H53.3333L53.3801 2.34329H53.427V2.39016H53.4739H53.5207V2.43702L53.6145 2.48389H53.6613V2.53076H53.7082H53.7551V2.57762H53.8019L53.0989 3.79613L41.0544 23.0111V48.225C41.0544 48.7873 40.5858 49.256 39.9765 49.256C39.4141 49.256 38.9455 48.7873 38.9455 48.225V23.0111L26.9009 3.74927L25.9636 2.20269Z" fill="#58535A"/>
<path fill-rule="evenodd" clip-rule="evenodd" d="M50.3339 69.5958C49.959 69.5958 49.6309 69.4083 49.4435 69.0803L41.6169 55.536C41.3357 55.0205 41.4763 54.3644 41.9918 54.0832C42.5073 53.802 43.1634 53.9426 43.4446 54.4581L51.2712 68.0023C51.5524 68.5179 51.365 69.174 50.8963 69.4552C50.7088 69.5489 50.5214 69.5958 50.3339 69.5958Z" fill="#58535A"/>
<path fill-rule="evenodd" clip-rule="evenodd" d="M29.2911 69.5958C29.1036 69.5958 28.963 69.5489 28.7756 69.4552C28.26 69.174 28.0726 68.5179 28.4006 68.0023L36.1804 54.4581C36.5084 53.9426 37.1645 53.802 37.6332 54.0832C38.1487 54.3644 38.3362 55.0205 38.055 55.536L30.2284 69.0803C30.0409 69.4083 29.666 69.5958 29.2911 69.5958Z" fill="#58535A"/>
<path fill-rule="evenodd" clip-rule="evenodd" d="M19.215 57.6919V52.3023H59.8945V57.6919H19.215Z" fill="#58535A"/>
<path fill-rule="evenodd" clip-rule="evenodd" d="M39.8359 56.3796C39.0392 56.3796 38.4299 55.7704 38.4299 55.0205C38.4299 54.2238 39.0392 53.6145 39.8359 53.6145C40.5858 53.6145 41.2419 54.2238 41.2419 55.0205C41.2419 55.7704 40.5858 56.3796 39.8359 56.3796Z" fill="#58535A"/>
</g>
<defs>
<linearGradient id="paint0_linear_7_583" x1="0.00108718" y1="39.5705" x2="79.1034" y2="39.5705" gradientUnits="userSpaceOnUse">
<stop stop-color="#E6E6E6"/>
<stop offset="1" stop-color="#CCCCCC"/>
</linearGradient>
<clipPath id="clip0_7_583">
<rect width="80" height="80" fill="white"/>
</clipPath>
</defs>
</svg>
