<svg width="80" height="80" viewBox="0 0 80 80" fill="none" xmlns="http://www.w3.org/2000/svg">
<path d="M5.35767 53.4353L6.77985 66.3985H11.1208V53.4353H5.35767Z" fill="#8B7E7F"/>
<path d="M74.6424 53.4353L73.2202 66.3984H68.8793V53.4353H74.6424Z" fill="#8B7E7F"/>
<path d="M66.0374 48.8158L62.4818 59.9169L66.0374 71.018C68.5887 71.018 70.657 68.9497 70.657 66.3984V53.4355C70.6571 50.8842 68.5888 48.8158 66.0374 48.8158Z" fill="#463836"/>
<path d="M9.34296 53.4353V66.3983C9.34296 68.9497 11.4112 71.0178 13.9625 71.0178L17.5181 59.9167L13.9625 48.8157C11.4112 48.8158 9.34296 50.8842 9.34296 53.4353Z" fill="#463836"/>
<path d="M68.2844 13.6766C60.7289 6.12281 50.6844 1.96109 40 1.96109C29.3156 1.96109 19.2711 6.12281 11.7156 13.6766C4.16 21.2322 0 31.2766 0 41.9611C0 43.1967 1.00172 44.1984 2.23734 44.1984C3.47313 44.1984 4.47469 43.1967 4.47469 41.9611C4.47469 22.3416 20.3805 6.43578 40 6.43578C59.6039 6.43578 75.4995 22.3166 75.5248 41.9144C75.5245 41.9301 75.5225 41.9453 75.5225 41.9611C75.5225 43.1975 76.5248 44.1998 77.7612 44.1998C78.9977 44.1998 80 43.1976 80 41.9611C80 31.2766 75.84 21.2322 68.2844 13.6766Z" fill="#463836"/>
<path d="M74.5535 66.3984C73.8169 66.3984 73.2202 66.3984 73.2202 66.3984V50.2429C73.2202 50.1386 73.2325 50.0343 73.2566 49.9331C73.8769 47.3378 74.1916 44.6558 74.1916 41.9614C74.1916 23.1081 58.8535 7.76968 40.0002 7.76968C21.1469 7.76968 5.80859 23.1083 5.80859 41.9614C5.80859 44.6558 6.12328 47.3378 6.74359 49.9331C6.76781 50.0345 6.78 50.1386 6.78 50.2429V66.3984C6.78 66.3984 6.18312 66.3984 5.44672 66.3984C4.71031 66.3984 4.11344 65.8015 4.11344 65.0651V50.3989C3.46875 47.6489 3.14203 44.8111 3.14203 41.9615C3.14187 21.6376 19.6764 5.10312 40 5.10312C60.3236 5.10312 76.8582 21.6376 76.8582 41.9614C76.8582 44.8109 76.5314 47.6487 75.8867 50.3987V65.065C75.8867 65.8015 75.29 66.3984 74.5535 66.3984Z" fill="#605353"/>
<path d="M59.0165 41.795C55.1389 41.795 51.9956 44.9385 51.9956 48.8158V71.0182C51.9956 74.8958 55.1389 78.0389 59.0165 78.0389C62.894 78.0389 66.0375 74.8957 66.0375 71.0182V48.8158C66.0373 44.9385 62.894 41.795 59.0165 41.795Z" fill="#F14742"/>
<path d="M20.9835 41.795C17.106 41.795 13.9625 44.9384 13.9625 48.8158V71.0181C13.9625 74.8958 17.1058 78.0389 20.9835 78.0389C24.8611 78.0389 28.0044 74.8956 28.0044 71.0181V48.8158C28.0044 44.9384 24.8611 41.795 20.9835 41.795Z" fill="#F14742"/>
</svg>
