<svg width="80" height="80" viewBox="0 0 80 80" fill="none" xmlns="http://www.w3.org/2000/svg">
<path fill-rule="evenodd" clip-rule="evenodd" d="M70.4688 22.3438C69.8438 22.3438 60 22.3438 59.375 22.3438C58.75 22.3438 58.2812 21.875 58.2812 21.25V16.7188C58.2812 16.0938 58.75 15.625 59.375 15.625H70.4688C71.0938 15.625 71.5625 16.0938 71.5625 16.7188V21.25C71.5625 21.875 71.0938 22.3438 70.4688 22.3438Z" fill="#575B6D"/>
<path fill-rule="evenodd" clip-rule="evenodd" d="M74.6875 67.6562H5.3125C2.34375 67.6562 0 65.3125 0 62.3438V25.3125C0 22.5 2.34375 20.1562 5.3125 20.1562H23.2812L28.2812 13.75V13.5938L28.4375 13.4375C28.5938 13.125 29.0625 12.3438 30 12.3438H50.7812C51.875 12.3438 52.3438 13.2812 52.5 13.9062L56.875 20.1562H74.6875C77.6562 20.1562 80 22.5 80 25.3125V62.3438C80 65.3125 77.6562 67.6562 74.6875 67.6562Z" fill="#DBD8DD"/>
<path fill-rule="evenodd" clip-rule="evenodd" d="M80 27.6562V59.0625H51.0938H50.625C50 59.0625 49.5312 58.5938 49.5312 57.9688C49.5312 57.3438 50 56.875 50.625 56.875H50.7812C50.1562 50 49.5312 29.2188 49.5312 28.75C49.5312 28.125 50 27.6562 50.625 27.6562H80Z" fill="#575B6D"/>
<path fill-rule="evenodd" clip-rule="evenodd" d="M0 27.6562V59.0625H28.9062H29.375C30 59.0625 30.4688 58.5938 30.4688 57.9688C30.4688 57.3438 30 56.875 29.375 56.875H29.2188C29.8438 50 30.4688 29.2188 30.4688 28.75C30.4688 28.125 30 27.6562 29.375 27.6562H0Z" fill="#575B6D"/>
<path fill-rule="evenodd" clip-rule="evenodd" d="M39.8438 62.5C34.8438 62.5 30 60.4688 26.4062 56.875C22.8125 53.2812 20.7812 48.4375 20.7812 43.4375C20.7812 32.8125 29.375 24.2188 39.8438 24.2188C50.4688 24.2188 59.0625 32.8125 59.0625 43.4375C59.0625 53.9062 50.4688 62.5 39.8438 62.5Z" fill="#686D82"/>
<path fill-rule="evenodd" clip-rule="evenodd" d="M39.8438 58.9062C35.7812 58.9062 32.0312 57.1875 29.0625 54.2188C26.0938 51.4062 24.5312 47.5 24.5312 43.4375C24.5312 34.8438 31.4062 27.9688 39.8438 27.9688C43.9062 27.9688 47.8125 29.5312 50.7812 32.5C53.75 35.4688 55.3125 39.375 55.3125 43.4375C55.3125 47.5 53.75 51.4062 50.7812 54.2188C47.8125 57.3438 43.9062 58.9062 39.8438 58.9062Z" fill="#5FB4FF"/>
<path fill-rule="evenodd" clip-rule="evenodd" d="M39.8438 40.625C38.4375 40.625 37.1875 41.875 37.1875 43.4375C37.1875 44.8438 38.4375 46.0938 39.8438 46.0938C41.4062 46.0938 42.6562 44.8438 42.6562 43.4375C42.6562 41.875 41.4062 40.625 39.8438 40.625Z" fill="black"/>
<path fill-rule="evenodd" clip-rule="evenodd" d="M39.8438 49.5312C36.5625 49.5312 33.75 46.7188 33.75 43.4375C33.75 40 36.5625 37.1875 39.8438 37.1875C43.2812 37.1875 46.0938 40 46.0938 43.4375C46.0938 46.7188 43.2812 49.5312 39.8438 49.5312Z" fill="#003C69"/>
<path fill-rule="evenodd" clip-rule="evenodd" d="M9.0625 40C6.5625 40 4.6875 37.9688 4.6875 35.4688C4.6875 33.125 6.71875 31.0938 9.0625 31.0938C11.4062 31.0938 13.4375 33.125 13.4375 35.4688C13.4375 37.9688 11.5625 40 9.0625 40Z" fill="#686D82"/>
<path fill-rule="evenodd" clip-rule="evenodd" d="M73.5938 64.5312H57.8125C57.1875 64.5312 56.7188 63.9062 56.7188 63.4375C56.7188 62.8125 57.1875 62.3438 57.8125 62.3438H73.5938C74.2188 62.3438 74.6875 62.8125 74.6875 63.4375C74.6875 63.9062 74.2188 64.5312 73.5938 64.5312Z" fill="#575B6D"/>
<path fill-rule="evenodd" clip-rule="evenodd" d="M35.4688 37.5C34.6875 37.5 33.9062 38.2812 33.9062 39.2188C33.9062 40 34.6875 40.7812 35.4688 40.7812C36.4062 40.7812 37.1875 40 37.1875 39.2188C37.1875 38.2812 36.4062 37.5 35.4688 37.5Z" fill="white"/>
<path fill-rule="evenodd" clip-rule="evenodd" d="M9.0625 33.2812C7.8125 33.2812 6.875 34.375 6.875 35.4688C6.875 36.7188 7.8125 37.8125 9.0625 37.8125C10.3125 37.8125 11.25 36.7188 11.25 35.4688C11.25 34.375 10.3125 33.2812 9.0625 33.2812Z" fill="#FB4A59"/>
</svg>
