<svg width="80" height="80" viewBox="0 0 80 80" fill="none" xmlns="http://www.w3.org/2000/svg">
<path d="M74.1667 30.3567C72.2432 41.2725 67.0074 51.3322 59.1697 59.1697C51.3322 67.0073 41.2726 72.2432 30.3567 74.1667C24.0729 75.2862 17.6406 75.2862 11.3567 74.1667C9.98171 73.9233 8.71459 73.2635 7.72674 72.2767C6.73891 71.2897 6.07799 70.0232 5.83339 68.6483C4.30131 60.0608 4.86667 51.2302 7.48139 42.9082C10.0961 34.5862 14.6827 27.019 20.8509 20.8508C27.0191 14.6827 34.5862 10.0961 42.9082 7.48134C51.2302 4.86664 60.0609 4.30128 68.6484 5.83336C70.0227 6.07719 71.2889 6.73721 72.2759 7.72418C73.2629 8.71113 73.9229 9.97739 74.1667 11.3517C75.2867 17.6372 75.2867 24.0712 74.1667 30.3567Z" fill="#C6512B"/>
<path d="M74.1667 11.3517C73.858 9.61592 72.8869 8.06807 71.4584 7.035C71.615 11.4326 71.3049 15.8344 70.5334 20.1667C68.3455 32.7238 62.3204 44.2943 53.2867 53.2867C44.2944 62.3203 32.7239 68.3455 20.1667 70.5333C15.8359 71.3023 11.4358 71.6102 7.04004 71.4517C8.07071 72.8817 9.61674 73.8552 11.3517 74.1667C17.6355 75.2862 24.0679 75.2862 30.3517 74.1667C41.2685 72.2442 51.3292 67.0087 59.1677 59.171C67.0064 51.3333 72.243 41.2732 74.1667 30.3567C75.2867 24.0712 75.2867 17.6372 74.1667 11.3517Z" fill="#AD4023"/>
<path d="M74.3333 29.2333V29.25C74.3 29.6167 74.2333 29.9833 74.1667 30.35C74.0333 31.1333 73.8667 31.9 73.7 32.6833L72.5333 32.05C62.136 26.4027 53.5973 17.864 47.95 7.46666L47.3167 6.29999C48.1 6.13332 48.8667 5.96666 49.65 5.83332C50.0167 5.76666 50.3833 5.69999 50.75 5.66666H50.7667L50.8667 5.86666C56.2185 15.7019 64.2982 23.7813 74.1333 29.1333L74.3333 29.2333Z" fill="#EAEFF0"/>
<path d="M69.1666 26.0567C68.8566 27.18 68.5383 28.3017 68.1666 29.41C69.5866 30.3417 71.035 31.2333 72.5366 32.05L73.7033 32.6833C73.87 31.9 74.0366 31.1333 74.17 30.35C74.2366 29.9833 74.3033 29.6167 74.3366 29.25V29.2333L74.1366 29.1333C72.415 28.1967 70.7733 27.1517 69.1666 26.0567Z" fill="#CDD3D3"/>
<path d="M32.6833 73.7C31.9 73.8667 31.1333 74.0334 30.35 74.1667C29.9833 74.2334 29.6166 74.3 29.25 74.3334L29.1333 74.1334C23.7865 64.2944 15.7056 56.2137 5.86663 50.8667L5.66663 50.75C5.69996 50.3834 5.76663 50.0167 5.83329 49.65C5.96663 48.8667 6.13329 48.1 6.29996 47.3167L7.46663 47.95C17.864 53.5974 26.4026 62.136 32.05 72.5334L32.6833 73.7Z" fill="#EAEFF0"/>
<path d="M32.05 72.5333C31.2333 71.0333 30.3417 69.5833 29.41 68.1633C28.3033 68.54 27.1817 68.8567 26.0583 69.1633C27.1668 70.767 28.193 72.4257 29.1333 74.1333L29.25 74.3333C29.6167 74.3 29.9833 74.2333 30.35 74.1667C31.1333 74.0333 31.9 73.8667 32.6834 73.7L32.05 72.5333Z" fill="#CDD3D3"/>
<path d="M51.7849 30.5717L53.6783 28.6783C53.9819 28.364 54.1499 27.943 54.1461 27.506C54.1423 27.069 53.9669 26.651 53.6579 26.342C53.3489 26.033 52.9309 25.8577 52.4939 25.8538C52.0569 25.85 51.6359 26.018 51.3216 26.3217L49.4283 28.215L47.0716 25.8583C46.7573 25.5547 46.3363 25.3867 45.8993 25.3905C45.4623 25.3943 45.0443 25.5697 44.7353 25.8787C44.4263 26.1877 44.2509 26.6057 44.2471 27.0427C44.2433 27.4797 44.4113 27.9007 44.7149 28.215L47.0716 30.5717L44.7133 32.93L42.3566 30.5717C42.0423 30.268 41.6213 30.1 41.1843 30.1038C40.7473 30.1077 40.3293 30.283 40.0203 30.592C39.7113 30.901 39.5359 31.319 39.5321 31.756C39.5283 32.193 39.6963 32.614 39.9999 32.9283L42.3566 35.2867L39.9999 37.6433L37.6433 35.285C37.4896 35.1258 37.3056 34.9988 37.1023 34.9115C36.8989 34.8242 36.6803 34.7782 36.4589 34.7762C36.2376 34.7743 36.0181 34.8165 35.8133 34.9003C35.6084 34.9842 35.4224 35.1078 35.2659 35.2643C35.1094 35.4208 34.9858 35.6068 34.9019 35.8117C34.8181 36.0165 34.7759 36.236 34.7778 36.4573C34.7798 36.6787 34.8258 36.8973 34.9131 37.1007C35.0004 37.304 35.1274 37.4878 35.2866 37.6417L37.6433 40L35.2866 42.3567L32.9283 40C32.6139 39.6963 32.1929 39.5283 31.7559 39.5322C31.3189 39.536 30.9009 39.7113 30.5919 40.0203C30.2829 40.3293 30.1076 40.7473 30.1038 41.1843C30.0999 41.6213 30.2679 42.0423 30.5716 42.3567L32.9299 44.7133L30.5716 47.0717L28.2149 44.7133C27.9006 44.4097 27.4796 44.2417 27.0426 44.2455C26.6056 44.2493 26.1876 44.4247 25.8786 44.7337C25.5696 45.0427 25.3943 45.4607 25.3904 45.8977C25.3866 46.3347 25.5546 46.7557 25.8583 47.07L28.2149 49.4283L26.3216 51.3217C26.1624 51.4753 26.0354 51.6593 25.9481 51.8627C25.8608 52.066 25.8148 52.2847 25.8128 52.506C25.8109 52.7273 25.8531 52.9468 25.9369 53.1515C26.0208 53.3563 26.1444 53.5425 26.3009 53.699C26.4574 53.8555 26.6434 53.9792 26.8483 54.063C27.0531 54.1468 27.2726 54.189 27.4939 54.187C27.7153 54.1852 27.9339 54.1392 28.1373 54.0518C28.3406 53.9645 28.5246 53.8375 28.6783 53.6783L30.5716 51.785L32.9283 54.1417C33.2426 54.4453 33.6636 54.6132 34.1006 54.6095C34.5376 54.6057 34.9556 54.4303 35.2646 54.1213C35.5736 53.8123 35.7489 53.3943 35.7528 52.9573C35.7566 52.5203 35.5886 52.0993 35.2849 51.785L32.9283 49.4283L35.2866 47.07L37.6433 49.4267C37.9576 49.7303 38.3786 49.8982 38.8156 49.8945C39.2526 49.8907 39.6706 49.7153 39.9796 49.4063C40.2886 49.0973 40.4639 48.6793 40.4678 48.2423C40.4716 47.8053 40.3036 47.3843 39.9999 47.07L37.6433 44.7133L39.9999 42.3567L42.3583 44.7133C42.5119 44.8725 42.6959 44.9995 42.8993 45.0868C43.1026 45.1742 43.3213 45.2202 43.5426 45.222C43.7639 45.224 43.9834 45.1818 44.1883 45.098C44.3931 45.0142 44.5791 44.8905 44.7356 44.734C44.8921 44.5775 45.0158 44.3913 45.0996 44.1865C45.1834 43.9818 45.2256 43.7623 45.2236 43.541C45.2218 43.3197 45.1758 43.101 45.0884 42.8977C45.0011 42.6943 44.8741 42.5103 44.7149 42.3567L42.3566 40L44.7133 37.6433L47.0716 40C47.3859 40.3037 47.8069 40.4715 48.2439 40.4678C48.6809 40.464 49.0989 40.2887 49.4079 39.9797C49.7169 39.6707 49.8923 39.2527 49.8961 38.8157C49.8999 38.3787 49.7319 37.9577 49.4283 37.6433L47.0699 35.2867L49.4283 32.9283L51.7849 35.285C52.0993 35.5887 52.5203 35.7565 52.9573 35.7528C53.3943 35.749 53.8123 35.5737 54.1213 35.2647C54.4303 34.9557 54.6056 34.5377 54.6094 34.1007C54.6133 33.6637 54.4453 33.2427 54.1416 32.9283L51.7849 30.5717Z" fill="#EAEFF0"/>
</svg>
