<svg width="80" height="80" viewBox="0 0 80 80" fill="none" xmlns="http://www.w3.org/2000/svg">
<g clip-path="url(#clip0_7_646)">
<path fill-rule="evenodd" clip-rule="evenodd" d="M36.875 64.375C36.5625 64.375 36.25 64.2188 35.9375 63.9063C35.7812 63.4375 35.7812 63.125 35.9375 62.6563L16.2499 42.9688C15.7812 43.125 15.3124 43.125 14.9999 42.8125C14.5312 42.5 14.3749 41.875 14.8437 41.4063L41.7187 5.46875C41.7187 5.15625 41.875 5.15625 42.1875 4.99999L53.2812 0.937493C53.5937 0.781243 54.0625 0.937493 54.375 1.09374C54.5312 1.40624 54.6875 1.71874 54.6875 2.18749L52.9687 13.4375L62.5 10.1562C62.8125 10 63.2812 10.1562 63.5937 10.4687C63.9062 10.7812 64.0625 11.25 63.9062 11.5625L60.7812 20.625L69.6875 17.1875C70 17.0313 70.4687 17.1875 70.7812 17.5C71.0937 17.8125 71.25 18.2813 71.0937 18.5938L67.6562 28.125L79.0625 26.4063C79.5312 26.25 79.8437 26.4063 80.1562 26.7188C80.3125 27.0313 80.4687 27.5 80.3125 27.8125L76.0937 38.9063C75.9375 39.2188 75.7812 39.375 75.625 39.5313L37.5 64.2188C37.3437 64.2188 37.0312 64.375 36.875 64.375Z" fill="#B1E4F9"/>
<path fill-rule="evenodd" clip-rule="evenodd" d="M26.5625 25.625L27.9688 23.75C28.2812 24.5312 29.6875 26.25 30.3125 26.5625C30.3125 26.7188 30.3125 26.7188 30.3125 26.7188C31.0938 27.5 32.0312 27.9688 32.9688 28.125C33.5938 28.125 34.0625 28.75 33.9062 29.375C33.9062 29.8438 33.4375 30.3125 32.8125 30.3125C32.8125 30.3125 32.8125 30.3125 32.6562 30.3125C31.25 30.1562 30 29.375 28.75 28.2812C28.2812 27.8125 27.1875 26.5625 26.5625 25.625ZM56.4062 52.0312L54.375 53.2812C54.0625 53.125 53.75 52.9688 53.75 52.9688C53.4375 52.8125 52.8125 52.3438 52.3438 52.0312C51.0938 50.625 50.1562 48.5938 50.1562 46.5625C50.1562 45.9375 50.625 45.4688 51.25 45.4688C51.875 45.4688 52.3438 45.9375 52.3438 46.5625C52.3438 47.9688 52.9688 49.5312 53.9062 50.4688C54.0625 50.625 56.0938 51.875 56.4062 52.0312ZM48.125 46.25C47.9688 46.25 47.9688 46.25 47.8125 46.0938C46.5625 45.7812 45.4688 45.1562 44.8438 44.375C43.4375 43.125 42.6562 41.25 42.6562 39.375C42.6562 38.75 43.125 38.2812 43.75 38.2812C44.375 38.2812 44.8438 38.75 44.8438 39.375C44.8438 40.625 45.4688 41.875 46.4062 42.6562C46.4062 42.8125 46.4062 42.8125 46.5625 42.8125C46.875 43.4375 47.5 43.75 48.4375 44.0625C49.0625 44.2188 49.375 44.8438 49.2188 45.4688C49.0625 45.9375 48.5938 46.25 48.125 46.25ZM41.4062 38.9062C41.4062 38.9062 41.4062 38.9062 41.25 38.9062C39.8438 38.75 38.2812 37.9688 37.1875 36.875C35.7812 35.4688 35 33.4375 35 31.5625C35 30.9375 35.4688 30.4688 36.0938 30.4688C36.7188 30.4688 37.1875 30.9375 37.1875 31.5625C37.1875 32.9688 37.8125 34.375 38.75 35.3125C39.5312 36.0938 40.4688 36.5625 41.5625 36.7188C42.1875 36.7188 42.5 37.3438 42.5 37.9688C42.5 38.4375 42.0312 38.9062 41.4062 38.9062Z" fill="#A3D0E3"/>
<path fill-rule="evenodd" clip-rule="evenodd" d="M37.8125 10.4688L39.2188 8.4375C41.25 8.90625 44.0625 10.1562 45.4688 11.4062C47.0312 13.125 47.9688 15.1562 48.2812 17.3438C48.4375 17.1875 48.75 17.1875 49.0625 17.1875C50.7812 17.5 52.3438 18.4375 53.75 19.8438C55.1562 21.25 56.0938 22.9688 56.4062 24.8438C58.4375 25.1562 60.1562 26.0938 61.4062 27.5C62.9688 28.9062 63.5938 30.4688 64.0625 32.0312C64.0625 32.1875 64.0625 32.1875 64.0625 32.3438C65.9375 32.8125 67.8125 33.75 69.0625 35C70.4688 36.4062 71.7188 39.375 72.1875 41.875L70.1562 43.125C70 41.0938 68.75 37.8125 67.5 36.5625C65.9375 35 63.9062 34.5312 62.6562 34.375C62.0312 34.375 61.5625 33.75 61.5625 33.125C61.5625 32.9688 61.7188 32.6562 61.875 32.5C61.4062 30.9375 60.7812 29.8438 60 29.0625C59.8438 29.0625 59.8438 29.0625 59.8438 29.0625C58.75 27.8125 57.3438 27.1875 55.9375 27.0312C55.625 27.0312 55.3125 26.875 55.1562 26.7188C54.8438 26.5625 54.5312 26.25 54.375 25.7812C54.0625 24.0625 53.4375 22.5 52.1875 21.4062C51.0938 20.3125 50 19.5312 48.5938 19.375C48.4375 19.2188 48.2812 19.2188 48.125 19.0625C47.9688 19.5312 47.6562 19.6875 47.1875 19.6875C46.5625 19.6875 46.0938 19.2188 46.0938 18.5938C46.0938 16.4062 45.3125 14.5312 43.9062 12.9688C42.9688 12.0312 39.6875 10.625 37.8125 10.4688Z" fill="#A3D0E3"/>
<path fill-rule="evenodd" clip-rule="evenodd" d="M25.0001 53.125C24.6876 53.125 24.3751 52.9688 24.2188 52.6563C23.7501 52.3438 23.9063 51.5625 24.3751 51.25L57.9688 22.0312V21.875C58.4376 21.5625 58.9063 21.5625 59.3751 22.0312H59.5313V22.1875C59.8438 22.5 59.8438 23.125 59.3751 23.5937L29.6876 56.7188C29.5313 56.875 29.2188 57.0313 28.9063 57.0313C28.5938 57.0313 28.4376 56.875 28.1251 56.7188C27.8126 56.25 27.6563 55.625 28.1251 55.1563L25.7813 52.8125C25.4688 52.9688 25.3126 53.125 25.0001 53.125Z" fill="#A3D0E3"/>
<path fill-rule="evenodd" clip-rule="evenodd" d="M15.4687 42.9688C15.1562 42.9688 14.8437 42.8125 14.5312 42.5C14.2187 42.0312 14.375 41.25 14.8437 40.9375L50.7813 14.0625C51.25 13.75 51.875 13.75 52.3438 14.2187C52.6563 14.6875 52.5 15.3125 52.1875 15.7812L21.7187 47.9688C21.5625 48.2813 21.25 48.4375 20.9375 48.4375C20.625 48.4375 20.4687 48.2813 20.1562 48.125C19.6875 47.6563 19.6875 47.0313 20.1562 46.5625L16.0937 42.6563C15.9375 42.8125 15.625 42.9688 15.4687 42.9688Z" fill="#A3D0E3"/>
<path fill-rule="evenodd" clip-rule="evenodd" d="M32.0313 60.1562C31.7188 60.1562 31.4063 60 31.2501 59.6875C30.7813 59.375 30.9376 58.5938 31.4063 58.2812L64.8438 29.0625C65.3126 28.5938 65.9376 28.5938 66.4063 29.0625C66.8751 29.375 66.8751 30 66.4063 30.4688L37.3438 64.2188C37.1876 64.5312 36.8751 64.6875 36.5626 64.6875C36.4063 64.6875 36.0938 64.5312 35.9376 64.375C35.4688 64.0625 35.3126 63.2812 35.7813 62.8125L32.8126 59.8438C32.5001 60 32.3438 60.1562 32.0313 60.1562Z" fill="#A3D0E3"/>
<path fill-rule="evenodd" clip-rule="evenodd" d="M27.8125 73.2812C27.5 73.2812 27.3438 73.125 27.0312 72.9688C26.5625 72.5 26.5625 71.875 27.0312 71.4062L7.5 51.7188C7.03125 52.0312 6.40625 52.0312 5.9375 51.7188C5.46875 51.25 5.46875 50.625 5.9375 50.1562L14.5312 41.5625C15 41.0938 15.625 41.0938 16.0938 41.5625L37.3438 62.8125C37.5 62.9688 37.6562 63.2812 37.6562 63.5938C37.6562 63.9062 37.5 64.2188 37.3438 64.375L28.5938 72.9688C28.4375 73.125 28.125 73.2812 27.8125 73.2812Z" fill="#DFF3FB"/>
<path fill-rule="evenodd" clip-rule="evenodd" d="M9.53125 46.5625L11.0938 45L33.75 67.8125L32.1875 69.375L9.53125 46.5625Z" fill="#DF75A5"/>
<path fill-rule="evenodd" clip-rule="evenodd" d="M18.75 78.75C14.6875 78.75 10.7812 77.1875 7.8125 74.375L4.375 70.9375C1.5625 68.125 0 64.2188 0 60.1562C0 56.0938 1.5625 52.1875 4.375 49.375L4.6875 49.0625C5.15625 48.5938 5.78125 48.5938 6.25 49.0625L29.8438 72.5C30.1562 72.6562 30.1562 73.125 30.1562 73.4375C30.1562 73.75 30 74.0625 29.6875 74.2188L29.375 74.375C26.4062 77.1875 22.6562 78.75 18.75 78.75Z" fill="#D3EFFB"/>
</g>
<defs>
<clipPath id="clip0_7_646">
<rect width="80" height="80" fill="white"/>
</clipPath>
</defs>
</svg>
