<svg width="80" height="80" viewBox="0 0 80 80" fill="none" xmlns="http://www.w3.org/2000/svg">
<path d="M59.1667 36.6667C63.3334 36.6667 66.6667 40 66.6667 44.1667C66.6667 48.3333 63.3334 51.6667 59.1667 51.6667C55.0001 51.6667 51.6667 48.3333 51.6667 44.1667C51.6667 40 55.0001 36.6667 59.1667 36.6667Z" fill="#FFBA57"/>
<path d="M16.3334 46.3333L32.1667 39.1667L36.5 48.8333L15 61.6667H55.5L36.1667 33.1667C35.3334 31.8333 33.5 31.3333 32 32L13.6667 40.3333C12 41.1667 11.3334 43 12 44.6667C12.6667 46.3333 14.6667 47.1667 16.3334 46.3333Z" fill="#FFBA57"/>
<path d="M73.3333 60C68.3333 60 66.6667 56.6667 66.6667 56.6667C66.6667 56.6667 65 60 60 60C55 60 53.3333 56.6667 53.3333 56.6667C53.3333 56.6667 51.6667 60 46.6667 60C41.6667 60 40 56.6667 40 56.6667C40 56.6667 38.3333 60 33.3333 60C28.3334 60 26.6667 56.6667 26.6667 56.6667C26.6667 56.6667 25 60 20 60C15 60 13.3334 56.6667 13.3334 56.6667C13.3334 56.6667 11.6667 60 6.66669 60V73.3333H73.3333V60Z" fill="#7E8CCF"/>
<path d="M73.3333 63.3333C68.3333 63.3333 66.6667 60 66.6667 60C66.6667 60 65 63.3333 60 63.3333C55 63.3333 53.3333 60 53.3333 60C53.3333 60 51.6667 63.3333 46.6667 63.3333C41.6667 63.3333 40 60 40 60C40 60 38.3333 63.3333 33.3333 63.3333C28.3334 63.3333 26.6667 60 26.6667 60C26.6667 60 25 63.3333 20 63.3333C15 63.3333 13.3334 60 13.3334 60C13.3334 60 11.6667 63.3333 6.66669 63.3333V73.3333H73.3333V63.3333Z" fill="#C5CAE9"/>
</svg>
