<svg width="73" height="69" viewBox="0 0 73 69" fill="none" xmlns="http://www.w3.org/2000/svg">
<path d="M55.8075 45H46.25V42.9425C46.25 38.5154 48.0087 34.2696 51.1391 31.1391C54.2696 28.0087 58.5154 26.25 62.9425 26.25H72.5V28.3075C72.5 32.7346 70.7413 36.9804 67.6109 40.1109C64.4804 43.2413 60.2346 45 55.8075 45Z" fill="#BC68A4"/>
<path d="M43.9725 10.9737L36.25 0L28.5275 10.9737L36.25 18.6975L43.9725 10.9737Z" fill="#F2B8E8"/>
<path d="M51.67 34.1175C52.5753 31.6361 52.8669 28.9726 52.52 26.3541C52.173 23.7357 51.1978 21.24 49.6775 19.08L43.9725 10.9738L36.25 18.6975L51.67 34.1175Z" fill="#E2AAD5"/>
<path d="M36.25 18.6975L28.5275 10.9738L22.8225 19.08C21.4719 20.9924 20.546 23.1716 20.1071 25.4713C19.6682 27.771 19.7263 30.138 20.2775 32.4134C20.8288 34.6888 21.8604 36.8199 23.3032 38.6637C24.746 40.5075 26.5666 42.0214 28.6426 43.1036C30.7187 44.1858 33.0023 44.8113 35.3401 44.9382C37.6779 45.0651 40.0157 44.6905 42.1968 43.8393C44.3778 42.9882 46.3515 41.6804 47.9854 40.0036C49.6193 38.3268 50.8756 36.3199 51.6699 34.1175L36.25 18.6975Z" fill="#D38CBF"/>
<path d="M36.25 45H49.5575C51.7496 45 53.9202 45.4318 55.9454 46.2706C57.9707 47.1095 59.8108 48.3391 61.3609 49.8891C62.9109 51.4392 64.1405 53.2793 64.9794 55.3046C65.8182 57.3298 66.25 59.5004 66.25 61.6925V66.25H52.9425C48.5154 66.25 44.2696 64.4913 41.1391 61.3609C38.0087 58.2304 36.25 53.9846 36.25 49.5575V45Z" fill="#C66AAC"/>
<path d="M22.9425 45H36.25V49.5575C36.25 53.9846 34.4913 58.2304 31.3609 61.3609C28.2304 64.4913 23.9846 66.25 19.5575 66.25H6.25V61.6925C6.25 57.2654 8.00867 53.0196 11.1391 49.8891C14.2696 46.7587 18.5154 45 22.9425 45Z" fill="#C66AAC"/>
<path d="M52.9425 23.75H66.25V28.3075C66.25 30.4996 65.8182 32.6702 64.9794 34.6954C64.1405 36.7207 62.9109 38.5608 61.3609 40.1109C59.8108 41.6609 57.9707 42.8905 55.9454 43.7294C53.9202 44.5682 51.7496 45 49.5575 45H36.25V40.4425C36.25 36.0154 38.0087 31.7696 41.1391 28.6391C44.2696 25.5087 48.5154 23.75 52.9425 23.75Z" fill="#F2B1EA"/>
<path d="M0 26.25H9.5575C13.9846 26.25 18.2304 28.0087 21.3609 31.1391C24.4913 34.2696 26.25 38.5154 26.25 42.9425V45H16.6925C12.2654 45 8.01957 43.2413 4.88912 40.1109C1.75867 36.9804 0 32.7346 0 28.3075V26.25Z" fill="#BC68A4"/>
<path d="M6.25 23.75H19.5575C23.9846 23.75 28.2304 25.5087 31.3609 28.6391C34.4913 31.7696 36.25 36.0154 36.25 40.4425V45H22.9425C18.5154 45 14.2696 43.2413 11.1391 40.1109C8.00867 36.9804 6.25 32.7346 6.25 28.3075V23.75Z" fill="#F2B8E8"/>
<path d="M36.2501 68.6975L43.1251 61.8225C44.0281 60.9198 44.7444 59.848 45.2331 58.6683C45.7218 57.4887 45.9734 56.2244 45.9734 54.9475C45.9734 53.6706 45.7218 52.4063 45.2331 51.2267C44.7444 50.047 44.0281 48.9752 43.1251 48.0725C42.2223 47.1695 41.1505 46.4532 39.9709 45.9644C38.7913 45.4757 37.5269 45.2242 36.2501 45.2242C34.9732 45.2242 33.7088 45.4757 32.5292 45.9644C31.3496 46.4532 30.2778 47.1695 29.3751 48.0725C28.472 48.9752 27.7557 50.047 27.267 51.2267C26.7783 52.4063 26.5267 53.6706 26.5267 54.9475C26.5267 56.2244 26.7783 57.4887 27.267 58.6683C27.7557 59.848 28.472 60.9198 29.3751 61.8225L36.2501 68.6975Z" fill="#F2B1EA"/>
</svg>
