<svg width="54" height="67" viewBox="0 0 54 67" fill="none" xmlns="http://www.w3.org/2000/svg">
<path d="M35.1 45.5V42.6999C39.7 39.1999 41.7 34.3999 42.5 30.5999C44.1 30.4999 46.3 29.6 46.9 26.4C47.4 23.9 46.3 22.3 45.3 21.4C45.8 20.3 46.2 19 46.5 17.4C47.4 12.9 43.8 10.1999 41.2 9.09993C41.1 6.39993 39.9 4.09993 37.5 2.59993C33.3 -0.10007 26 -0.200021 21.3 2.39998C15.5 5.49998 12.4 4.59993 12.3 4.59993C11.9 4.49993 11.5 4.59998 11.2 4.89998C7.30004 9.49998 9.40002 13.2999 10.4 14.6999C9.60002 17.0999 9.50004 19.0999 9.70004 20.6999C8.50004 21.4999 6.60004 23.3 7.20004 26.5C7.80004 29.6 9.90003 30.4999 11.5 30.6999C12.3 34.4999 14.3 39.3 18.9 42.8V45.5999C8.60002 46.5999 0.400024 55.1 0.400024 65V65.5999C0.400024 66.1999 0.800024 66.5999 1.40002 66.5999H10H44H52.6C53.2 66.5999 53.6 66.1999 53.6 65.5999V65C53.7 55 45.4 46.5 35.1 45.5Z" fill="white"/>
<path d="M34.9 45.5V45.6815L35.0807 45.699C45.289 46.6901 53.4989 55.1129 53.4 64.998V65V65.5999C53.4 65.8545 53.3161 66.0511 53.1836 66.1835C53.0512 66.316 52.8546 66.3999 52.6 66.3999H44H10H1.40002C1.14547 66.3999 0.94889 66.316 0.816446 66.1835C0.684002 66.0511 0.600024 65.8545 0.600024 65.5999V65C0.600024 55.2123 8.71223 46.79 18.9194 45.799L19.1 45.7815V45.5999V42.8V42.7009L19.0211 42.6408C14.4711 39.1789 12.4894 34.4286 11.6957 30.6587L11.6664 30.5191L11.5248 30.5014C10.7491 30.4045 9.86259 30.139 9.09968 29.531C8.34032 28.9259 7.68835 27.9698 7.39651 26.4625C6.81832 23.3774 8.64112 21.6462 9.81098 20.8663L9.91383 20.7978L9.8985 20.6751C9.70224 19.105 9.79912 17.1351 10.5898 14.7632L10.622 14.6665L10.5628 14.5837C10.0728 13.8976 9.3194 12.6315 9.16163 10.9809C9.00476 9.33984 9.43424 7.29495 11.3471 5.03583C11.5947 4.79189 11.9193 4.71091 12.2515 4.79396L12.2754 4.79993H12.2863L12.3152 4.80551L12.3173 4.80592C12.3469 4.81175 12.3892 4.82009 12.443 4.82954C12.5533 4.84891 12.7108 4.87276 12.9147 4.8913C13.3226 4.92839 13.914 4.94402 14.6839 4.86131C16.2241 4.69584 18.4737 4.13737 21.3943 2.57637L21.3943 2.57638L21.3968 2.57499C23.7102 1.29525 26.6743 0.675293 29.585 0.712439C32.4966 0.749596 35.3319 1.44391 37.3919 2.76818L37.394 2.76953C39.7336 4.23177 40.9024 6.46855 41.0002 9.10733L41.0049 9.23453L41.1221 9.28412C42.4024 9.8258 43.9214 10.7589 45.0071 12.1008C46.0879 13.4367 46.7406 15.1775 46.3039 17.3608L46.3035 17.3631C46.0058 18.9508 45.6099 20.2348 45.1179 21.3172L45.0573 21.4506L45.1662 21.5486C46.1302 22.4162 47.1862 23.9492 46.7039 26.3608L46.7034 26.3631C46.4116 27.9198 45.7352 28.8996 44.9527 29.5042C44.1667 30.1116 43.258 30.3522 42.4876 30.4003L42.3357 30.4098L42.3043 30.5587C41.5107 34.3286 39.5289 39.0788 34.9789 42.5407L34.9 42.6008V42.6999V45.5ZM27.0027 49.4747L27.1 49.529L27.1974 49.4747L33.2974 46.0747L33.4 46.0175V45.9V44.0999V43.753L33.0998 43.9268C31.233 45.0076 29.1681 45.4999 27.1 45.4999C25.0319 45.4999 22.9671 45.0076 21.1002 43.9268L20.8 43.753V44.0999V45.9V46.0175L20.9027 46.0747L27.0027 49.4747ZM33.1994 48.2161L33.2299 47.8395L32.9013 48.026L29.2013 50.1261L28.8656 50.3166L29.2149 50.481L32.6149 52.0809L32.8761 52.2038L32.8994 51.9161L33.1994 48.2161ZM24.9852 50.481L25.3344 50.3166L24.9987 50.1261L21.2988 48.026L20.9702 47.8395L21.0007 48.2161L21.3007 51.9161L21.324 52.2038L21.5852 52.0809L24.9852 50.481ZM45.1953 26.1433L45.1954 26.1433L45.1968 26.1357C45.4052 24.9897 45.1984 23.9311 44.56 23.0799L44.385 22.8466L44.2304 23.0939C43.7373 23.883 43.2464 24.4707 42.9586 24.7586L42.9 24.8171V24.9C42.9 25.5979 42.9 26.8885 42.7014 28.5766L42.671 28.8347L42.9283 28.7979C43.7227 28.6844 44.78 28.0121 45.1953 26.1433ZM12.5283 6.40194L12.4132 6.38549L12.3419 6.47742C10.7525 8.52837 10.6908 10.3438 11.0573 11.6658C11.4203 12.9753 12.1968 13.7795 12.2586 13.8413C12.3952 13.9779 12.4914 14.2937 12.4089 14.6394C11.2981 17.4747 11.398 19.8098 11.7039 21.3392L12.0921 21.3558C12.9696 18.3331 15.4114 15.97 19.3778 14.2842C22.4529 12.9947 25.8264 12.2999 29.4 12.2999H30.5969C33.7186 12.3986 36.2701 14.1796 38.2262 16.3585C40.1819 18.537 41.5216 21.0912 42.2168 22.6801L42.3494 22.9833L42.5562 22.7249C43.3779 21.6978 44.3908 19.8673 44.8965 17.0376C45.366 14.7369 44.1813 13.0944 42.9019 12.0453C42.2616 11.5202 41.591 11.1373 41.0752 10.8858C40.817 10.7598 40.5963 10.6662 40.4359 10.6038C40.3558 10.5726 40.29 10.5489 40.2415 10.5326C40.2174 10.5246 40.1964 10.518 40.1793 10.5131C40.1709 10.5107 40.1617 10.5083 40.1527 10.5062L40.1522 10.5061C40.1505 10.5057 40.1459 10.5047 40.1394 10.5035C39.848 10.4257 39.6033 10.1226 39.6001 9.70813C39.8038 7.32928 38.7599 5.46535 36.709 4.13231L36.7077 4.13146C34.8659 2.95472 32.2999 2.3751 29.6885 2.36246C27.0757 2.34981 24.3915 2.90449 22.3059 4.02342C17.2439 6.7032 13.8868 6.59601 12.5283 6.40194ZM10.4898 22.8367L10.3957 22.5546L9.30002 26.0999L9.10344 26.1368C9.10352 26.1372 9.1036 26.1376 9.10367 26.138C9.25992 26.9702 9.57521 27.5558 9.96646 27.9741C10.3567 28.3912 10.8119 28.6305 11.2298 28.7872L11.5543 28.9089L11.4973 28.5671C11.2508 27.0879 11.2778 25.8873 11.294 25.1727C11.2972 25.028 11.3 24.9032 11.3 24.8V24.7528L11.2789 24.7106C11.0801 24.313 10.7852 23.7231 10.4898 22.8367ZM12.9083 24.5431L12.9 24.5709V24.5999C12.9 24.6276 12.8994 24.6681 12.8986 24.721C12.8759 26.1679 12.7095 36.806 21.493 42.3689L21.493 42.3689L21.4964 42.3709C24.8601 44.4096 29.14 44.4096 32.5037 42.371L32.5059 42.3696C41.5396 36.7356 41.2406 26.07 41.2027 24.7186C41.2011 24.6629 41.2 24.623 41.2 24.5999V24.5614L41.1857 24.5257C40.8831 23.769 39.7755 21.1757 37.9729 18.7555C36.1768 16.3439 33.651 14.0515 30.5033 13.9999V13.9999H30.5H29.4C25.9761 13.9999 22.8489 14.6043 20.0212 15.8161L20.0193 15.817C16.5921 17.329 14.4314 19.3641 13.7081 21.8437C13.7081 21.8438 13.708 21.8439 13.708 21.844L12.9083 24.5431ZM44.8 64.5V64.7H45H51.7H51.9047L51.9 64.4953C51.6974 55.7846 44.2104 48.21 35.1199 47.3009L34.9176 47.2807L34.9007 47.4833L34.4007 53.4833L34.4 53.4916V53.5C34.4 53.7092 34.2575 53.9508 33.9994 54.1267C33.9187 54.1661 33.8656 54.1821 33.8172 54.1902C33.7616 54.1995 33.704 54.2 33.6 54.2C33.5489 54.2 33.4894 54.1996 33.4329 54.1902C33.3718 54.18 33.3471 54.1642 33.3415 54.1586L33.3161 54.1332L33.2835 54.1182L27.1835 51.3182L27.1 51.2799L27.0166 51.3182L20.9166 54.1182L20.884 54.1332L20.8586 54.1586C20.853 54.1642 20.8283 54.18 20.7672 54.1902C20.7106 54.1996 20.6512 54.2 20.6 54.2C20.4961 54.2 20.4385 54.1995 20.3829 54.1902C20.3345 54.1821 20.2813 54.1661 20.2007 54.1267C19.9426 53.9508 19.8 53.7092 19.8 53.5V53.4916L19.7993 53.4833L19.2993 47.4833L19.2825 47.2807L19.0801 47.3009C9.9897 48.21 2.50266 55.7846 2.30008 64.4953L2.29533 64.7H2.50003H9.10004H9.30004V64.5V58.3C9.30004 58.0455 9.38401 57.8489 9.51646 57.7164C9.6489 57.584 9.84549 57.5 10.1 57.5C10.3546 57.5 10.5512 57.584 10.6836 57.7164C10.8161 57.8489 10.9 58.0455 10.9 58.3V64.5V64.7H11.1H43H43.2V64.5V58.3C43.2 58.0455 43.284 57.8489 43.4165 57.7164C43.5489 57.584 43.7455 57.5 44 57.5C44.2546 57.5 44.4512 57.584 44.5836 57.7164C44.7161 57.8489 44.8 58.0455 44.8 58.3V64.5Z" fill="black" stroke="white" stroke-width="0.4"/>
<path d="M22.2001 37.2C21.9001 37.6 22.0001 38.3 22.4001 38.6C22.5001 38.7 24.2 39.9 26.8 39.9C28.1 39.9 29.6 39.6 31.3 38.7C31.8 38.4 32.0001 37.8 31.7001 37.4C31.4001 36.9 30.8001 36.7 30.4001 37C26.5001 39 23.7001 37.2 23.6001 37.1C23.2001 36.6 22.6001 36.7 22.2001 37.2Z" fill="white"/>
<path d="M23.5001 27.1C23.5001 26.5 23.1001 26.1 22.5001 26.1H20.8C20.2 26.1 19.8 26.5 19.8 27.1C19.8 27.7 20.2 28.1 20.8 28.1H22.5001C23.0001 28.1 23.5001 27.6 23.5001 27.1Z" fill="white"/>
<path d="M31.7001 28.1H33.4001C34.0001 28.1 34.4001 27.7 34.4001 27.1C34.4001 26.5 34.0001 26.1 33.4001 26.1H31.7001C31.1001 26.1 30.7001 26.5 30.7001 27.1C30.7001 27.7 31.1001 28.1 31.7001 28.1Z" fill="white"/>
</svg>
