<svg width="112" height="115" viewBox="0 0 112 115" fill="none" xmlns="http://www.w3.org/2000/svg">
<path d="M56.1 114.4C86.9175 114.4 111.9 89.4175 111.9 58.6C111.9 27.7825 86.9175 2.80005 56.1 2.80005C25.2825 2.80005 0.300049 27.7825 0.300049 58.6C0.300049 89.4175 25.2825 114.4 56.1 114.4Z" fill="#FCE6E2"/>
<path d="M88.6 54.0999C92.5 31.0999 83.1 1.89991 57.1 0.19991C48.8 -0.30009 40.7 2.69993 36.5 8.59993C22.1 14.2999 20.9 39.4999 22.5 48.1999C26.9 71.9999 5.69995 67.8999 11.1 90.1999L55.4 87.8H57.1L100.6 88.4C104.3 71.5 86.7999 72.6999 88.6 54.0999Z" fill="#531F4D"/>
<path d="M69.1 51.3H43V84.7H69.1V51.3Z" fill="#EF958D"/>
<path d="M104.1 87.1C91.8 81.9 69.3 78 69.3 78C60.7001 85.3 49.8 85.2 43 78C43 78 20.3 81.4 7.40002 85.9C16.6 102.2 33.7 113.4 53.5 114.3C54.4 114.3 55.2999 114.4 56.2 114.4C76.6 114.4 94.4 103.5 104.1 87.1Z" fill="#EA5360"/>
<path d="M79.2 47.2C78.2 47.2 77.4 48.6 77.4 50.3C77.4 52 78.2 53.4 79.2 53.4C80.2 53.4 81 52 81 50.3C81 48.6 80.2 47.2 79.2 47.2ZM79.2 52.1C78.5 52.1 78 51.1 78 49.9C78 48.7 78.5 47.7 79.2 47.7C79.9 47.7 80.4 48.7 80.4 49.9C80.4 51.1 79.9 52.1 79.2 52.1Z" fill="white"/>
<path d="M31.1 50.4C31.1 52.1 31.9 53.5 32.9 53.5C33.9 53.5 34.7 52.1 34.7 50.4C34.7 48.7 33.9 47.3 32.9 47.3C31.9 47.3 31.1 48.6 31.1 50.4ZM31.6 50C31.6 48.8 32.1 47.8 32.8 47.8C33.5 47.8 34 48.8 34 50C34 51.2 33.5 52.2 32.8 52.2C32.2 52.1 31.6 51.2 31.6 50Z" fill="white"/>
<path d="M56.0999 10.9C39.1999 10.9 35.4 23.5 35.8 36.3C35.8 45.5 35.6999 52.2 36.5999 54.5C37.3999 56.8 43.3999 70.4 56.0999 70.4C68.8999 70.4 74.7999 56.7 75.5999 54.5C76.4999 52.2 76.4 45.5 76.4 36.3C76.7 23.5 72.8999 10.9 56.0999 10.9Z" fill="#EF958D"/>
<path d="M56.1 70.7C51.1 70.7 46.6 68.7 42.7 64.6L43.2 64.1C47 68 51.3 69.9 56.1 69.9C60.8 69.9 65.1 68 68.8 64.3L69.3 64.8C65.4 68.7 61 70.7 56.1 70.7Z" fill="#D36464"/>
<path d="M36.5 35.8C36.5 35.8 33.0999 30.7999 29.5999 33.6999C26.0999 36.5999 29.5 53.2 36.5 50.3C43.4 47.4 36.5 35.8 36.5 35.8Z" fill="#EF958D"/>
<path d="M75.7 35.8C75.7 35.8 79.1 30.7999 82.6 33.6999C86.1 36.5999 82.7 53.2 75.7 50.3C68.8 47.4 75.7 35.8 75.7 35.8Z" fill="#EF958D"/>
<path d="M35.945 45.1354L35.1472 45.1946L35.5468 50.58L36.3446 50.5208L35.945 45.1354Z" fill="#D36464"/>
<path d="M76.2151 44.5589L75.777 50.4424L76.5748 50.5018L77.0129 44.6183L76.2151 44.5589Z" fill="#D36464"/>
<path d="M31.3001 42.3C30.5001 39.6 30.5001 37.8 31.3001 36.8C31.9001 36.1 32.7 36.1 32.7 36.1V36.8C32.7 36.8 32.2 36.8 31.9 37.2C31.6 37.6 31.1 38.9 32.1 42L31.3001 42.3Z" fill="#D36464"/>
<path d="M81.1 42.3L80.4 42.1C81.3 39 80.9 37.7 80.6 37.3C80.3 36.9 79.8 36.9 79.8 36.9V36.2C79.8 36.2 80.6 36.2 81.2 36.9C81.9 37.8 81.9 39.6 81.1 42.3Z" fill="#D36464"/>
<path d="M34.3 51.2C34.2 51.2 34.1 51.2 33.9 51.2H33.8C33.6 51.8 33.2 52.2 32.8 52.2C32.1 52.2 31.6 51.2 31.6 50C31.6 48.8 32.1 47.8 32.8 47.8C33.2 47.8 33.1 47.2 32.8 47.2C31.8 47.2 31 48.6 31 50.3C31 52 31.8 53.4 32.8 53.4C33.6 53.4 34.3 52.4 34.5 51.1C34.5 51.2 34.4 51.2 34.3 51.2Z" fill="white"/>
<path d="M79.2 47.2C78.9 47.2 78.8 47.7 79.2 47.8C79.9 47.8 80.4 48.8 80.4 50C80.4 51.2 79.9 52.2 79.2 52.2C78.8 52.2 78.5 51.9 78.3 51.4C78.2 51.4 78.2 51.5 78.1 51.5C78 51.6 77.8 51.7 77.6 51.8C77.9 52.8 78.5 53.6 79.2 53.6C80.2 53.6 81 52.2 81 50.5C81 48.6 80.2 47.2 79.2 47.2Z" fill="white"/>
<path d="M35.6 34.8C35.4 25.9 42.1 21.1999 42.1 21.1999C48.1 31.6999 64.5999 35.2999 79.6999 30.0999C79.6999 30.0999 78.2 4.8 54.6 6.3C31.1 7.8 35.6 34.8 35.6 34.8Z" fill="#531F4D"/>
</svg>
