<svg width="159" height="159" viewBox="0 0 159 159" fill="none" xmlns="http://www.w3.org/2000/svg">
<path d="M118.754 119.083C140.545 97.2915 140.545 61.9612 118.754 40.1701C96.9631 18.3791 61.6329 18.3791 39.8419 40.1702C18.0508 61.9612 18.0508 97.2914 39.8418 119.082C61.6329 140.874 96.9631 140.874 118.754 119.083Z" fill="#FCE6E2"/>
<path d="M115.9 109.1C131.7 98.4 122.3 80.9 108 57.4C105.9 54 104.6 50.2 103.8 46.4C101.5 35 91.4 26.5 79.3 26.5C67.1 26.5 57 35.2 54.8 46.7C54 50.7 52.8 54.6 50.8 58.2C37.7 83 24.7999 103.1 43.5999 109.2H115.9V109.1Z" fill="#531F4D"/>
<path d="M92.3 72.2H66.2V105.6H92.3V72.2Z" fill="#EF958D"/>
<path d="M127.3 108.1C115 102.9 92.5 99 92.5 99C83.9 106.3 73 106.2 66.2 99C66.2 99 43.5 102.4 30.6 106.9C39.8 123.2 56.9 134.4 76.7 135.3C77.6 135.3 78.5 135.4 79.4 135.4C99.8 135.4 117.6 124.4 127.3 108.1Z" fill="#FAB64B"/>
<path d="M66.2 95.3L61 99.9C61 99.9 64 112.9 70.1 113.1C76.2 113.3 79.1 104.5 79.1 104.5C73.4 102.9 69.1 99.8 66.2 95.3Z" fill="white"/>
<path d="M92.4 95.3L97.6 99.9C97.6 99.9 94.6 112.9 88.5 113.1C82.4 113.3 79.5 104.5 79.5 104.5C85.2 102.9 89.6 99.8 92.4 95.3Z" fill="white"/>
<path d="M91.166 29.7745C92.2277 23.2325 87.7851 17.0686 81.2432 16.0069C74.7012 14.9452 68.5373 19.3877 67.4756 25.9297C66.4138 32.4716 70.8564 38.6356 77.3984 39.6973C83.9403 40.759 90.1042 36.3164 91.166 29.7745Z" fill="#531F4D"/>
<path d="M79.3 31.9C62.4 31.9 58.6 44.5 59 57.3C59 66.5 58.4 69.3999 59.2 71.6999C59.7 74.8999 66.2 91.4 79.3 91.4C92.4 91.4 98.4 75.7999 99.6 71.6999C100.5 69.3999 99.7 66.5 99.7 57.3C100 44.5 96.1 31.9 79.3 31.9Z" fill="#EF958D"/>
<path d="M79.3 91.7C74.4 91.7 69.9 89.5 66 85.1L66.6 84.6C70.4 88.8 74.7 90.9 79.4 90.9C84.2 90.9 88.5 88.8 92.2 84.6L92.8 85.1C88.8 89.5 84.3 91.7 79.3 91.7Z" fill="#D36464"/>
<path d="M59.7 57.4999C59.7 57.4999 56.3 53.0999 52.8 55.6999C49.3 58.2999 52.7 72.7999 59.7 70.1999C66.7 67.5999 59.7 57.4999 59.7 57.4999Z" fill="#EF958D"/>
<path d="M98.9 57.4999C98.9 57.4999 102.3 53.0999 105.8 55.6999C109.3 58.2999 105.9 72.7999 98.9 70.1999C92 67.5999 98.9 57.4999 98.9 57.4999Z" fill="#EF958D"/>
<path d="M58.3141 64.1737L57.6208 64.2704L58.4909 70.51L59.1842 70.4133L58.3141 64.1737Z" fill="#D36464"/>
<path d="M100.136 64.1969L99.5529 70.4698L100.25 70.5347L100.833 64.2617L100.136 64.1969Z" fill="#D36464"/>
<path d="M54.6 63.1999C53.8 60.9999 53.8 59.4 54.5 58.4C55.1 57.6 56 57.6999 56 57.6999V58.4C56 58.4 55.5 58.4 55.1 58.8C54.7 59.3 54.5 60.4 55.3 62.9L54.6 63.1999Z" fill="#D36464"/>
<path d="M104.4 63.2L103.7 63C104.6 60.5 104.3 59.4 103.9 58.9C103.6 58.4 103 58.5 103 58.5V57.8C103 57.8 103.9 57.8 104.5 58.5C105.2 59.4 105.1 61 104.4 63.2Z" fill="#D36464"/>
<path d="M104.2 69.6C104.2 70.5 103.5 71.2 102.6 71.2C101.7 71.2 101 70.5 101 69.6C101 68.7 101.7 68 102.6 68C103.5 68.1 104.2 68.8 104.2 69.6Z" fill="white"/>
<path d="M57.6 69.6C57.6 70.5 56.9 71.2 56 71.2C55.1 71.2 54.4 70.5 54.4 69.6C54.4 68.7 55.1 68 56 68C57 68.1 57.6 68.8 57.6 69.6Z" fill="white"/>
<path d="M58.1 51.0999C71.5 53.8999 85.6 54.0999 100.5 51.0999C100.5 51.0999 100.8 30.5 79.9 29.8C59 29.1 58.1 51.0999 58.1 51.0999Z" fill="#531F4D"/>
<path d="M91 29.7C83.2 26.7 75.3 26.7 67.5 29.7L67.2 29C75.2 25.9 83.2 25.9 91.2 29L91 29.7Z" fill="#793574"/>
<path d="M101.1 50.8C100.5 45 98.5 39.7999 95 35.5999L95.6 35.0999C99.2 39.4999 101.3 44.6999 101.9 50.6999L101.1 50.8Z" fill="#793574"/>
<path d="M58 50.8L57.3 50.6999C57.9 44.6999 60 39.3999 63.6 35.0999L64.2 35.5999C60.6 39.8999 58.6 45 58 50.8Z" fill="#793574"/>
<path d="M64.8 52.3L64.1 52.2C64.4 48.9 65 45.6 66.1 42.3L66.8 42.5C65.7 45.8 65.1 49 64.8 52.3Z" fill="#793574"/>
<path d="M91.7 52.6H90.9C91 50.4 90.6 47.7 89.8 44.8L90.5 44.6C91.4 47.6 91.8 50.3 91.7 52.6Z" fill="#793574"/>
<path d="M89.2 42.1999C88.6 40.4999 88.2 39.3 88.2 39.3L88.9 39C88.9 39 89.4 40.2 90 41.9L89.2 42.1999Z" fill="#793574"/>
</svg>
