<svg width="136" height="135" viewBox="0 0 136 135" fill="none" xmlns="http://www.w3.org/2000/svg">
<path d="M122.381 80.5353C129.463 50.5437 110.891 20.4897 80.8993 13.4078C50.9077 6.32596 20.8538 24.898 13.7719 54.8896C6.69006 84.8812 25.262 114.935 55.2536 122.017C85.2452 129.099 115.299 110.527 122.381 80.5353Z" fill="#FCE6E2"/>
<path d="M78.6 84.1999C82.4 83.9999 86.2 83.6999 89.9 83.1999C96.8 82.1999 103.1 80.4999 106.3 73.6999C109.6 66.3999 105.8 55.4999 102.1 48.6999C99.8 44.4999 97.5 40.3 95.8 35.8C93.5 29.5 91.8 22.7 87.1 17.8C86.9 17.6 86.7 17.3999 86.5 17.1999C81.6 12.4999 74.9 9.79999 68.1 9.79999C58.2 9.79999 48.6 15.5999 44.3 24.5999C41.3 30.6999 40.3 37.6 37.5 43.8C34.5 50.3 31 56.6 29.8 63.8C29 68.4 30.3 73 33.5 76.4C37.4 80.5 42.6 82.1999 48 82.9999C57.9 84.4999 68.3 84.5999 78.6 84.1999Z" fill="#FAB64B"/>
<path d="M81.1 60.4H55V93.8H81.1V60.4Z" fill="#EF958D"/>
<path d="M116.1 96.3C103.8 91.1 81.3 87.1999 81.3 87.1999C72.7001 94.4999 61.8 94.3999 55 87.1999C55 87.1999 32.3 90.5999 19.4 95.0999C28.6 111.4 45.7 122.6 65.5 123.5C66.4 123.5 67.2999 123.6 68.2 123.6C88.6 123.5 106.4 112.6 116.1 96.3Z" fill="white"/>
<path d="M49.7 88.0999C42.2 89.3999 28.4 91.9999 19.4 95.0999C27.6 109.7 42.2 120.2 59.4 122.9C59.5 122.9 50.9 107.4 49.7 88.0999Z" fill="#91A4D4"/>
<path d="M86.4 88.0999C93.9 89.3999 107.7 91.9999 116.7 95.0999C108.5 109.7 93.9 120.2 76.7 122.9C76.7 122.9 85.2 107.4 86.4 88.0999Z" fill="#91A4D4"/>
<path d="M68.0999 19.9999C51.1999 19.9999 47.4 32.6 47.8 45.4C47.8 54.6 47.2 57.5 48 59.8C48.5 63 54.9999 79.4999 68.0999 79.4999C81.1999 79.4999 87.2 63.9 88.4 59.8C89.3 57.5 88.5 54.6 88.5 45.4C88.8 32.6 84.8999 19.9999 68.0999 19.9999Z" fill="#EF958D"/>
<path d="M68.1 79.8C63.6 79.8 58.4 77.1999 54.8 73.1999L55.4 72.6999C58.9 76.5999 63.9 78.9999 68.2 78.9999C72.5 78.9999 77.7 76.4999 81 72.6999L81.6 73.1999C78 77.1999 72.6 79.8 68.1 79.8Z" fill="#D36464"/>
<path d="M48.1 46.6C48.1 46.6 44.6 42.5 41.1 44.9C37.6 47.3 41 60.8 48.1 58.4C55.2 56 48.1 46.6 48.1 46.6Z" fill="#EF958D"/>
<path d="M88.1 46.6C88.1 46.6 91.6 42.5 95.1 44.9C98.6 47.3 95.2 60.8 88.1 58.4C81 56 88.1 46.6 88.1 46.6Z" fill="#EF958D"/>
<path d="M47.1185 52.3746L46.4253 52.4713L47.2953 58.7107L47.9885 58.614L47.1185 52.3746Z" fill="#D36464"/>
<path d="M88.9137 52.3316L88.3302 58.6044L89.0273 58.6693L89.6107 52.3964L88.9137 52.3316Z" fill="#D36464"/>
<path d="M42.9001 51.9C42.1001 49.9 42.1 48.3999 42.7 47.4999C43.3 46.6999 44.2001 46.6999 44.3001 46.6999V47.4C44.3001 47.4 43.7001 47.4 43.3001 47.9C43.0001 48.4 42.8 49.3999 43.6 51.5999L42.9001 51.9Z" fill="#D36464"/>
<path d="M93.6 51.9L92.9 51.5999C93.7 49.3999 93.5 48.4 93.2 47.9C92.8 47.4 92.3 47.4 92.2 47.4V46.6999C92.2 46.6999 93.2 46.6999 93.8 47.4999C94.5 48.3999 94.4 49.9 93.6 51.9Z" fill="#D36464"/>
<path d="M45.5 44.5999C48.6 38.9999 63.5 39.7 68.1 26.9C72.5 41.5 85.7 37.1999 91.5 45.0999C91.5 45.0999 88.7 15.5999 68.1 15.5999C47.5 15.5999 45.5 44.5999 45.5 44.5999Z" fill="#FAB64B"/>
</svg>
