<svg width="113" height="119" viewBox="0 0 113 119" fill="none" xmlns="http://www.w3.org/2000/svg">
<path d="M56.3 118.4C87.1175 118.4 112.1 93.4175 112.1 62.6C112.1 31.7825 87.1175 6.80005 56.3 6.80005C25.4825 6.80005 0.5 31.7825 0.5 62.6C0.5 93.4175 25.4825 118.4 56.3 118.4Z" fill="#FCE6E2"/>
<path d="M71.1 55.3H41.6V88.7H71.1V55.3Z" fill="#EF958D"/>
<path d="M85.3 31.8C83.7 27.9 80.3 29.8 80.3 29.8C82.2 12.1 73.2 0.400024 56.3 0.400024C39.4 0.400024 30.4 12.1 32.3 29.8C32.3 29.8 29 27.9 27.3 31.8C25.7 35.7001 28.6 44.7999 30.5 47.7C32.3 50.6 35.6 52.8 35.6 52.8C35.6 52.8 35.8 56.1 36.7 58.3C37.5 60.6 47.2 71 50 72.6C53.7 74.8 59.2 74.8 62.5 72.6C65.3 71 75 60.6 75.8 58.3C76.6 56 76.9 52.8 76.9 52.8C76.9 52.8 80.2 50.6 82 47.7C83.9 44.9 86.9 35.7001 85.3 31.8Z" fill="#EF958D"/>
<path d="M56.5 74.7C54.2 74.7 51.8 74.1 49.9 73C48.2 72 44.2 68.1 41.3 64.8L41.9 64.3C44.9 67.6 48.7 71.4 50.3 72.3C53.9 74.4 59.2 74.4 62.4 72.3C64 71.4 67.8 67.6 70.8 64.3L71.4 64.8C68.5 68.1 64.5 72 62.8 73C61.1 74.1 58.8 74.7 56.5 74.7Z" fill="#D36464"/>
<path d="M35.194 45.2736L34.4993 45.3593L35.4418 53.0015L36.1365 52.9158L35.194 45.2736Z" fill="#D36464"/>
<path d="M77.5541 45.3131L76.7136 52.8668L77.5087 52.9553L78.3493 45.4016L77.5541 45.3131Z" fill="#D36464"/>
<path d="M29.6 40.6C29.4 40 28.1 35 29.9 33.6C30.5 33.2 31 33.2001 31.3 33.3001C32.2 33.6001 32.7 34.8001 32.7 34.9001L32 35.2C31.9 34.9 31.5 34.2 31 34.1C30.8 34 30.5 34.1001 30.3 34.3001C29.2 35.1001 29.7 38.5 30.2 40.5L29.6 40.6Z" fill="#D36464"/>
<path d="M83.1 40.6L82.4 40.4C82.9 38.4 83.4 35 82.3 34.2C82 34 81.8 34 81.6 34.1C81 34.3 80.6 35.2 80.6 35.2L79.9 34.9C80 34.8 80.4 33.6001 81.3 33.3001C81.6 33.2001 82.1 33.2 82.7 33.5C84.6 34.9 83.2 40 83.1 40.6Z" fill="#D36464"/>
<path d="M34.8 39.2C39.8 39.2 36 23.1 40 19.1C42 17.1 44.9 17.4 47.4 18.1C50.3 18.8 53.3 19.8 56.4 19.9C59.7 20 62.7 18.8 65.9 18C68.3 17.4 71 17.2 72.9 19.1C76.8 23 73 39.2 78.1 39.2C77.8 35.5 77.7 31.4 80.5 29.9C82.4 12.2 73.4 0.5 56.5 0.5C39.6 0.5 30.6 12.2 32.5 29.9C34.6 31.3 35.1 35.2999 34.8 39.2Z" fill="#531F4D"/>
<path d="M104.1 91.6C88.3 84.6 71.2 82.1 71.2 82.1C63.3 90.3 48.6 90.4 41.7 82.1C41.7 82.1 24.5 84.6 8.79999 91.6C18.6 107.7 36.3 118.4 56.5 118.4C76.6 118.4 94.3 107.7 104.1 91.6Z" fill="#FAB64B"/>
<path d="M37.6 82.6L41.6 75.5L54.5 87.1L46.6 95.7L37.6 82.6Z" fill="white"/>
<path d="M75.1 82.6L71.1 75.5L58.2 87.1L66.1 95.7L75.1 82.6Z" fill="white"/>
</svg>
