<svg width="159" height="159" viewBox="0 0 159 159" fill="none" xmlns="http://www.w3.org/2000/svg">
<path d="M118.762 119.078C140.553 97.2868 140.553 61.9565 118.762 40.1655C96.9706 18.3744 61.6404 18.3745 39.8494 40.1655C18.0583 61.9566 18.0583 97.2868 39.8493 119.078C61.6404 140.869 96.9707 140.869 118.762 119.078Z" fill="#FCE6E2"/>
<path d="M94.1 72.3H64.6V105.7H94.1V72.3Z" fill="#EF958D"/>
<path d="M127.1 108.6C111.3 101.6 94.2 99.1 94.2 99.1C86.3 107.3 71.6 107.4 64.7 99.1C64.7 99.1 47.5 101.6 31.8 108.6C41.6 124.7 59.3 135.4 79.5 135.4C99.6 135.5 117.3 124.7 127.1 108.6Z" fill="#EA5360"/>
<path d="M78.9 109.1C78.8 109.1 78.7 109.1 78.6 109.1C71 109 64.5 105.7 60.9 99.9L61.5 99.5C65 105.1 71.2 108.3 78.5 108.4C78.6 108.4 78.7 108.4 78.8 108.4C86.4 108.4 93.3 105 96.9 99.5L97.5 99.9C93.9 105.6 86.8 109.1 78.9 109.1Z" fill="#C73046"/>
<path d="M107.2 56.1C105.6 52.3 102.4 54.2 102.4 54.2C103.1 39.5 95.6 29.3 79.3 29.3C63 29.3 55.6 41.5 56.2 54.2C56.2 54.2 53.0001 52.4 51.4001 56.1C49.8001 59.9 52.7 68.7 54.5 71.5C56.3 74.3 59 73.1 59 73.1C59 73.1 59.7 79.5 60.5 81.7C61.3 83.9 70.6 93.9 73.3 95.5C76.9 97.6 82.2001 97.6 85.4001 95.5C88.1001 94 97.4 83.9 98.2 81.7C99 79.5 99.7 73 99.7 73C99.7 73 102.4 74.3 104.2 71.5C105.9 68.6 108.8 59.8 107.2 56.1Z" fill="#EF958D"/>
<path d="M79.5 95.9C72.9 95.9 68 91.3 64.9 87.9L65.5 87.4C68.5 90.7 73.3 95.2 79.6 95.2C85.6 95.2 89.9 91.3 93.4 87.4L94 87.9C90.3 91.8 85.8 95.9 79.5 95.9Z" fill="#D36464"/>
<path d="M59.0581 68.9349L58.2631 69.0239L58.7083 72.9991L59.5033 72.9101L59.0581 68.9349Z" fill="#D36464"/>
<path d="M99.7632 68.9659L99.3572 72.8448L100.153 72.9281L100.559 69.0492L99.7632 68.9659Z" fill="#D36464"/>
<path d="M53.5 64.5C53.3 63.9 52.1 58.9999 53.8 57.6999C54.4 57.2999 54.9 57.4 55.2 57.5C56.1 57.8 56.6 58.9 56.6 59L55.9 59.3C55.8 59 55.4 58.3999 55 58.1999C54.8 58.0999 54.5 58.2 54.3 58.3C53.3 59.1 53.7 62.4 54.3 64.3L53.5 64.5Z" fill="#D36464"/>
<path d="M105.1 64.5L104.4 64.3001C104.9 62.4001 105.4 59.1001 104.3 58.3001C104.1 58.1001 103.8 58.1 103.6 58.2C103.1 58.4 102.8 59.0001 102.7 59.3001L102 59C102 58.9 102.5 57.8 103.4 57.5C103.7 57.4 104.2 57.4 104.8 57.7C106.6 59 105.3 63.9 105.1 64.5Z" fill="#D36464"/>
<path d="M56.2 54.1C58 56.1 58.9 58.4 59.3 61.5C59 51.1 63.8 47.3 63.7 34.5C57.3 35.2 54.6 44.6 55.5 53.8L56.2 54.1Z" fill="white"/>
<path d="M102.4 54.1C100.6 56.1 99.7 58.4 99.3 61.5C99.6 51.1 94.8 47.3 94.9 34.5C101.3 35.2 104 44.6 103.1 53.8L102.4 54.1Z" fill="white"/>
</svg>
