<svg width="159" height="159" viewBox="0 0 159 159" fill="none" xmlns="http://www.w3.org/2000/svg">
<path d="M119.249 119.078C141.04 97.287 141.04 61.9568 119.249 40.1657C97.4583 18.3747 62.1281 18.3747 40.3371 40.1657C18.546 61.9568 18.5459 97.287 40.337 119.078C62.128 140.869 97.4584 140.869 119.249 119.078Z" fill="#FCE6E2"/>
<path d="M94.7 72.2H65.2V105.6H94.7V72.2Z" fill="#EF958D"/>
<path d="M127.7 108.6C111.9 101.6 94.8 99.1 94.8 99.1C86.9 107.3 72.2001 107.4 65.3 99.1C65.3 99.1 48.1 101.6 32.4 108.6C42.2 124.7 59.9 135.4 80.1 135.4C100.2 135.4 117.9 124.7 127.7 108.6Z" fill="white"/>
<path d="M97.9 99.6V132.4C110.4 128.2 120.9 119.6 127.6 108.5C116 103.4 103.6 100.7 97.9 99.6Z" fill="#FAB64B"/>
<path d="M61.9 99.6C56.2 100.7 43.8 103.4 32.2 108.6C38.9 119.7 49.4 128.2 61.9 132.4V99.6Z" fill="#FAB64B"/>
<path d="M79.6 109.1C79.5 109.1 79.4 109.1 79.3 109.1C71.7 109 65.2 105.7 61.6 99.9L62.2 99.5C65.7 105.1 71.9 108.3 79.2 108.4C86.9 108.5 93.9 105.1 97.6 99.5L98.2 99.9C94.6 105.5 87.4 109.1 79.6 109.1Z" fill="#F2BEB8"/>
<path d="M108.9 54.5C107.3 50.6 103.9 52.5 103.9 52.5C105.8 34.8 96.8 23.1 79.9 23.1C63 23.1 54 34.8 55.9 52.5C55.9 52.5 52.6 50.6 50.9 54.5C49.3 58.4 52.2 67.5 54.1 70.4C55.9 73.3 58.6999 72.1 58.6999 72.1C58.6999 72.1 59.3999 78.8 60.1999 81C60.9999 83.3 70.7 93.7001 73.5 95.3C77.2 97.5 82.7 97.5 86 95.3C88.8 93.7001 98.5 83.3 99.3 81C100.1 78.7 100.8 71.9 100.8 71.9C100.8 71.9 103.6 73.2001 105.4 70.3C107.6 67.5 110.5 58.4 108.9 54.5Z" fill="#EF958D"/>
<path d="M80.1 97.3C77.8 97.3 75.4 96.7 73.5 95.6C71.8 94.6 67.8 90.7 64.9 87.4L65.5 86.9C68.5 90.2 72.3 94 73.9 94.9C77.5 97 82.8 97 86 94.9C87.6 94 91.4 90.2 94.4 86.9L95 87.4C92.1 90.7 88.1 94.6 86.4 95.6C84.7 96.8 82.4 97.3 80.1 97.3Z" fill="#D36464"/>
<path d="M58.8665 67.9259L58.0715 68.015L58.5394 72.1889L59.3344 72.0998L58.8665 67.9259Z" fill="#D36464"/>
<path d="M101.167 67.7687L100.74 71.8467L101.535 71.93L101.963 67.8521L101.167 67.7687Z" fill="#D36464"/>
<path d="M53.2 63.2C53 62.6 51.7001 57.6 53.5001 56.2C54.1001 55.8 54.6001 55.8001 54.9001 55.9001C55.8001 56.2001 56.3001 57.4 56.3001 57.5L55.6 57.8001C55.5 57.5001 55.1 56.8 54.6 56.7C54.4 56.6 54.1001 56.7001 53.9001 56.9001C52.8001 57.7001 53.3001 61.1 53.8001 63.1L53.2 63.2Z" fill="#D36464"/>
<path d="M106.7 63.2L106 63C106.5 61 107 57.6001 105.9 56.8001C105.6 56.6001 105.4 56.6 105.2 56.7C104.6 56.9 104.2 57.8001 104.2 57.8001L103.5 57.5C103.6 57.4 104 56.2 104.9 55.9C105.2 55.8 105.7 55.8 106.3 56.1C108.2 57.6 106.9 62.7 106.7 63.2Z" fill="#D36464"/>
<path d="M58.4001 61.8C63.4001 61.8 59.6 45.7 63.6 41.7C65.6 39.7 94.5001 39.8 96.4001 41.7C100.3 45.6 96.5 61.8 101.6 61.8C101.3 58.1 101.2 54 104 52.5C105.9 34.8 96.9001 23.1 80.0001 23.1C63.1001 23.1 54.1001 34.8 56.0001 52.5C58.2001 53.9 58.8001 57.9 58.4001 61.8Z" fill="#531F4D"/>
<path d="M80 67.1999C80 67.1999 68.1 66.9 67.6 74.9H80H92.4C91.8 66.9 80 67.1999 80 67.1999Z" fill="#531F4D"/>
</svg>
