<svg width="159" height="159" viewBox="0 0 159 159" fill="none" xmlns="http://www.w3.org/2000/svg">
<path d="M119.257 119.073C141.048 97.2824 141.048 61.9521 119.257 40.1611C97.4657 18.3701 62.1356 18.3701 40.3445 40.1611C18.5535 61.9521 18.5534 97.2824 40.3444 119.073C62.1355 140.864 97.4658 140.864 119.257 119.073Z" fill="#FCE6E2"/>
<path d="M94.7 72.3H65.2V105.7H94.7V72.3Z" fill="#EF958D"/>
<path d="M127.7 108.6C111.9 101.6 94.8 99.1 94.8 99.1C86.9 107.3 72.2001 107.4 65.3 99.1C65.3 99.1 48.1 101.6 32.4 108.6C42.2 124.7 59.9 135.4 80.1 135.4C100.2 135.5 117.9 124.7 127.7 108.6Z" fill="#EA5360"/>
<path d="M79.6 109.1C79.5 109.1 79.4 109.1 79.3 109.1C71.7 109 65.2 105.7 61.6 99.9L62.2 99.5C65.7 105.1 71.9 108.3 79.2 108.4C79.3 108.4 79.4 108.4 79.5 108.4C87.1 108.4 94 105 97.6 99.5L98.2 99.9C94.6 105.6 87.4 109.1 79.6 109.1Z" fill="#C73046"/>
<path d="M107.9 53.9001C107.9 69.3001 99.4 89.3 80.7 89C60.5 89 52.9001 71.2001 52.9001 55.8001C49.4001 45.8001 53.6 34.9001 61 32.9001C65.6 25.2001 73.6 22.8001 81.6 22.8001C96.9 22.7001 112.2 34.1001 107.9 53.9001Z" fill="#531F4D"/>
<path d="M107.9 56.1C106.3 52.3 103.1 54.2 103.1 54.2C103.8 39.5 96.3 29.3 80 29.3C63.7 29.3 56.3 41.5 56.9 54.2C56.9 54.2 53.6999 52.4 52.0999 56.1C50.4999 59.9 53.3999 68.7 55.1999 71.5C56.9999 74.3 59.6999 73.1 59.6999 73.1C59.6999 73.1 60.3999 79.5 61.1999 81.7C61.9999 83.9 71.3 93.9 74 95.5C77.6 97.6 82.8999 97.6 86.0999 95.5C88.7999 94 98.1 83.9 98.9 81.7C99.7 79.5 100.4 73 100.4 73C100.4 73 103.1 74.3 104.9 71.5C106.6 68.6 109.4 59.8 107.9 56.1Z" fill="#EF958D"/>
<path d="M80.1 95.9C73.5 95.9 68.6 91.3 65.5 87.9L66.1 87.4C69.1 90.7 73.9 95.2 80.2 95.2C86.2 95.2 90.5 91.3 94 87.4L94.6 87.9C90.9 91.8 86.4 95.9 80.1 95.9Z" fill="#D36464"/>
<path d="M59.6208 69.0242L58.8257 69.1134L59.2717 73.0886L60.0668 72.9994L59.6208 69.0242Z" fill="#D36464"/>
<path d="M100.386 68.9835L99.98 72.8624L100.776 72.9457L101.182 69.0667L100.386 68.9835Z" fill="#D36464"/>
<path d="M54.2 64.5C54 63.9 52.8 58.9999 54.5 57.6999C55.1 57.2999 55.6001 57.4 55.9001 57.5C56.8001 57.8 57.3001 58.9 57.3001 59L56.6 59.3C56.5 59 56.1 58.3999 55.7 58.1999C55.5 58.0999 55.2 58.2 55 58.3C54 59.1 54.4 62.4 55 64.3L54.2 64.5Z" fill="#D36464"/>
<path d="M105.8 64.5L105.1 64.3001C105.6 62.4001 106.1 59.1001 105 58.3001C104.8 58.1001 104.5 58.1 104.3 58.2C103.8 58.4 103.5 59.0001 103.4 59.3001L102.7 59C102.7 58.9 103.2 57.8 104.1 57.5C104.4 57.4 104.9 57.4 105.5 57.7C107.2 59 105.9 63.9 105.8 64.5Z" fill="#D36464"/>
<path d="M56.9 54.1C58.3 49.3 60.4 45.1 63.8 42C73.2 52.9 84.8 60.1 103.1 54.1L104.5 49.4C104.5 49.4 102.3 39.5 102.3 39.2C102.3 38.8 95 32.1 95 32.1L85.5 28.2H75.8L68 30.4L61.2 36.2L56.9 44.9V54.1Z" fill="#531F4D"/>
</svg>
