<svg width="136" height="135" viewBox="0 0 136 135" fill="none" xmlns="http://www.w3.org/2000/svg">
<path d="M122.377 80.537C129.459 50.5454 110.887 20.4914 80.8952 13.4095C50.9037 6.32767 20.8498 24.8997 13.7679 54.8913C6.68603 84.8829 25.258 114.937 55.2496 122.019C85.2411 129.1 115.295 110.529 122.377 80.537Z" fill="#FCE6E2"/>
<path d="M84.6 60.2H51.5V93.6H84.6V60.2Z" fill="#EF958D"/>
<path d="M97 36.8C95.4 32.9 92 34.8 92 34.8C93.9 17.1 84.9 5.39999 68 5.39999C51.1 5.39999 42.1 17.1 44 34.8C44 34.8 40.7 32.9 39 36.8C37.4 40.7 40.2999 49.7999 42.1999 52.6999C43.9999 55.5999 47.3 54.9 47.3 54.9C47.3 54.9 47.5 61 48.4 63.3C49.2 65.6 55.2 79.1999 68 79.1999C80.8 79.1999 86.7 65.5 87.6 63.3C88.4 61 88.6999 54.5999 88.6999 54.5999C88.6999 54.5999 92 55.4999 93.8 52.5999C95.7 49.8999 98.6 40.7 97 36.8Z" fill="#EF958D"/>
<path d="M68.1 79.7C60.1 79.7 52.6 71.1 51.2 69.3L51.8 68.8C53.2 70.5 60.4 78.9 68.1 78.9C75.9 78.9 83 70.6 84.4 69L85 69.5C83.5 71.2 76.2 79.7 68.1 79.7Z" fill="#D36464"/>
<path d="M47.4635 50.311L46.7651 50.3575L47.0779 55.0472L47.7764 55.0006L47.4635 50.311Z" fill="#D36464"/>
<path d="M88.6274 50.2266L88.27 54.7122L89.0675 54.7757L89.4249 50.2901L88.6274 50.2266Z" fill="#D36464"/>
<path d="M41.4001 45.6C40.3001 41.4 40.5001 38.9 41.9001 37.6L42.4001 38.2C41.2001 39.3 41.1 41.7 42.1 45.5L41.4001 45.6Z" fill="#D36464"/>
<path d="M95 45.6L94.3 45.4C95.3 41.6 95.2 39.2 94 38.1L94.5 37.5C95.9 38.9 96 41.5 95 45.6Z" fill="#D36464"/>
<path d="M95.3 18.4C89 13.4 82.8 8.29995 78 7.09995C75.1 5.99995 71.8 5.49997 68.1 5.49997C56.6 5.49997 47 8.99999 45.6 19.9C40.4 22.1 41.3 30.6 42.4 34.4C42.4 34.4 43.3 34.4 44.1 34.9C46.3 36.4 46.8 40.2999 46.5 44.1999C51.5 44.1999 47.6999 28.0999 51.6999 24.0999C66.5999 33.4999 86.4 28.5 86.4 28.5C87 34.6 86.0999 44.0999 89.6999 44.0999C89.3999 40.3999 89.3 36.3 92.1 34.8C92.5 31.3 92.4 28 92 24.9C93.6 23.3 95.2 21.2 95.3 18.4Z" fill="#FAB64B"/>
<path d="M55.3 54.8C49.6 54.8 44.9 50.1 44.9 44.4C44.9 38.7 49.6 34 55.3 34C61 34 65.7 38.7 65.7 44.4C65.7 50.1 61 54.8 55.3 54.8ZM55.3 34.8C50 34.8 45.7 39.1 45.7 44.4C45.7 49.7 50 54 55.3 54C60.6 54 64.9 49.7 64.9 44.4C64.9 39.1 60.6 34.8 55.3 34.8Z" fill="white"/>
<path d="M80.9 54.8C75.2 54.8 70.5 50.1 70.5 44.4C70.5 38.7 75.2 34 80.9 34C86.6 34 91.3 38.7 91.3 44.4C91.3 50.1 86.6 54.8 80.9 54.8ZM80.9 34.8C75.6 34.8 71.3 39.1 71.3 44.4C71.3 49.7 75.6 54 80.9 54C86.2 54 90.5 49.7 90.5 44.4C90.5 39.1 86.2 34.8 80.9 34.8Z" fill="white"/>
<path d="M71 42.1999C69.9 41.1999 68.7 40.7 67.6 40.8C66.7 40.9 65.9 41.3 65.3 42.1L64.7 41.6999C65.4 40.7999 66.4 40.2 67.5 40.1C68.9 40 70.3 40.4999 71.5 41.6999L71 42.1999Z" fill="white"/>
<path d="M115.8 96.6C100 89.6 84.7 87.1 84.7 87.1C76.7999 95.3 58.5 95.4 51.6 87.1C51.6 87.1 36.2 89.6 20.4 96.6C30.2 112.7 47.9 123.4 68.1 123.4C88.3 123.4 106 112.7 115.8 96.6Z" fill="#91A4D4"/>
<path d="M67.6 98.1C58.5 98.1 50.5 94.3 45.5 88.5L46.1 88C55.2 98.6 74 102.1 92.1 88.4L92.6 89C84 95.4 75.3 98.1 67.6 98.1Z" fill="#6784C2"/>
</svg>
