<svg width="112" height="118" viewBox="0 0 112 118" fill="none" xmlns="http://www.w3.org/2000/svg">
<path d="M55.8 117.4C86.6175 117.4 111.6 92.4175 111.6 61.6C111.6 30.7825 86.6175 5.80005 55.8 5.80005C24.9826 5.80005 0 30.7825 0 61.6C0 92.4175 24.9826 117.4 55.8 117.4Z" fill="#FCE6E2"/>
<path d="M55.7 76.9C64.9231 76.9 72.4 75.8255 72.4 74.5C72.4 73.1745 64.9231 72.1 55.7 72.1C46.4768 72.1 39 73.1745 39 74.5C39 75.8255 46.4768 76.9 55.7 76.9Z" fill="#91A4D4"/>
<path d="M70.6 54.3H41.1V87.7H70.6V54.3Z" fill="#EF958D"/>
<path d="M85.7 32.6C84 28.6 80.6 30.6 80.6 30.6C82.6 12.3 73.3 0.300049 55.9 0.300049C38.5 0.300049 29.2 12.3 31.2 30.6C31.2 30.6 27.8 28.6 26.1 32.6C24.4 36.6 27.5 46 29.4 49C31.3 52 34.7 54.3 34.7 54.3C34.7 54.3 34.9001 57.7 35.8001 60C36.7001 62.3 46.6 73.1 49.5 74.7C53.3 77 59 77 62.4 74.7C65.3 73.1 75.3 62.3 76.1 60C77 57.7 77.2 54.3 77.2 54.3C77.2 54.3 80.6 52 82.5 49C84.3 46.1 87.3 36.7 85.7 32.6Z" fill="#EF958D"/>
<path d="M28.3001 41.7C28.1001 41.1 26.8 35.9 28.7 34.5C29.3 34.1 29.8 34.1 30.1 34.2C31.1 34.5 31.6 35.8 31.6 35.8L30.9001 36.1C30.8001 35.8 30.4001 35.1 29.9001 34.9C29.7001 34.8 29.4 34.9 29.1 35.1C28 35.9 28.5 39.5 29 41.5L28.3001 41.7Z" fill="#D36464"/>
<path d="M83.4 41.7L82.7 41.5C83.1 40 83.9 36 82.6 35.1C82.3 34.9 82.1 34.9 81.8 35C81.3 35.2 80.9 35.9 80.8 36.2L80.1 35.9C80.1 35.8 80.6 34.6001 81.6 34.3001C81.9 34.2001 82.4 34.2 83 34.5C84.9 35.8 83.6 41.1 83.4 41.7Z" fill="#D36464"/>
<path d="M55.8001 0.300049C38.4001 0.300049 29.1 12.4 31.1 30.6C33.4 32.1 33.9 36.2 33.6 40.2C33.6 40.2 32.8001 53 35.4001 59.1C37.9001 65.2 42.3001 74.6 55.9001 74.5C69.5001 74.6 73.9001 65.2 76.4001 59.1C78.9001 53 78.2 40.2 78.2 40.2C77.8 36.2999 77.8 32.1 80.7 30.6C82.5 12.3 73.2001 0.300049 55.8001 0.300049ZM74.9001 28.3C74.9001 28.3 74.6 45.1 72 48.7C69.4 52.4 70.2001 44.2 55.9001 44.1C41.6001 44 42.4001 52.4 39.8001 48.7C37.2001 45 36.9001 28.4 36.9001 28.3C37.1001 24.6 37.4 21.1 39 19.5C41.1 17.5 44.1 17.8 46.6 18.4C49.6 19.2 52.7001 20.2 55.9001 20.3C59.3001 20.4 62.4 19.2 65.7 18.4C68.2 17.8 70.9001 17.5 72.9001 19.5C74.4001 21.1 74.7001 24.6 74.9001 28.3Z" fill="#531F4D"/>
<path d="M106.3 85.4C92.3 82 72.3 81.1 72.3 81.1C62 89.3 48.1 89.4 39 81.1C39 81.1 19.3 82.4 5.40002 85.7C14.4 104.5 33.6 117.5 55.8 117.5C78.2001 117.4 97.4 104.3 106.3 85.4Z" fill="#91A4D4"/>
<path d="M39 74.5V82.9C50.8 91.6 61.9 91.7 72.3 82.9V74.5C66.4 78.3 42.8 77.8 39 74.5Z" fill="#91A4D4"/>
<path d="M55.3 86.2C53.7 86.2 52.1 86.1 50.5 86C47.4 85.7 40.1 84.7 38.7 81.5L39.4 81.2C40.3 83.2 44.4 84.7 50.6 85.3C59.1 86 69.8 84.7 72.1 81.2L72.7 81.6C70.6 84.6 62.9 86.2 55.3 86.2Z" fill="#6784C2"/>
<path d="M55.3 79.2C52.3 79.2 49.3 79.1 46.9 78.8C42.7 78.3 40.1 77.6 39.4 76.6L40 76.2C40.3 76.6 41.5 77.5 47 78.1C55.7 79 68.9 78.3 71.4 76.1L71.9 76.7C69.8 78.5 62.3 79.2 55.3 79.2Z" fill="#6784C2"/>
</svg>
