<svg xmlns="http://www.w3.org/2000/svg" fill="none" viewBox="0.7 0.9 63.2 66">
<path d="M51.6 43.8V20.2C51.6 9.59995 42.9 0.900024 32.3 0.900024C21.7 0.900024 13 9.59995 13 20.2V43.8C4.10002 47.2 0.700012 54.3 0.700012 61.1V65.9C0.700012 66.5 1.10001 66.9 1.70001 66.9H13.7H14.6H49.9H50.8H62.9C63.5 66.9 63.9 66.5 63.9 65.9V61.1C63.9 54.4 60.5 47.2 51.6 43.8ZM15 20.2C15 10.7 22.8 2.90002 32.3 2.90002C41.8 2.90002 49.6 10.7 49.6 20.2V43.2C47.2 42.5 44.3 42 41.1 41.9V38.6C44.8 34.8 47.2 29.1 47.2 24V23.2C47.2 15 40.5 8.30005 32.3 8.30005C24.5 8.30005 18 14.4 17.4 22.1V22.2V22.3C17.4 22.6 17.4 22.9 17.4 23.2V24C17.4 29.1 19.8 34.8 23.5 38.6V41.9C20.3 42 17.5 42.5 15 43.2V20.2ZM39.2 42.3L32.4 46.4L25.6 42.3V40.3C27.6 41.8 30 42.7 32.4 42.7C34.9 42.7 37.2 41.8 39.2 40.3V42.3ZM38.4 45.1L36.7 50.2L34 47.7L38.4 45.1ZM30.7 47.7L28 50.2L26.3 45.1L30.7 47.7ZM19.4 23.3C25.2 23.2 31.2 20.5 34.4 16.6C36.8 20.3 40.5 23 45.2 24.3C45 31.8 39.2 40.8 32.3 40.8C25.3 40.8 19.4 31.5 19.4 24V23.3ZM19.6 21.3C20.5 15.1 25.9 10.3 32.3 10.3C39.1 10.3 44.6 15.5 45.2 22.2C40.8 20.8 37.3 18.1 35.4 14.3C35.2 14 34.9 13.8 34.5 13.8C34.1 13.8 33.8 14 33.6 14.3C31.3 18.1 25.3 21.1 19.6 21.3ZM61.9 64.9H50.9V56.7C50.9 56.1 50.5 55.7 49.9 55.7C49.3 55.7 48.9 56.1 48.9 56.7V64.9H14.7V56.7C14.7 56.1 14.3 55.7 13.7 55.7C13.1 55.7 12.7 56.1 12.7 56.7V64.9H2.70001V61.1C2.70001 50.9 10.7 44.3 23.7 43.9L26.6 52.3C26.7 52.6 27 52.9 27.3 52.9C27.4 52.9 27.5 52.9 27.5 52.9C27.8 52.9 28 52.8 28.2 52.6L32.3 48.8L36.4 52.6C36.6 52.8 36.8 52.9 37.1 52.9C37.2 52.9 37.3 52.9 37.3 52.9C37.6 52.8 37.9 52.6 38 52.3L40.9 43.9C53.9 44.4 61.9 50.9 61.9 61.1V64.9Z" fill="black"/>
</svg>