<svg xmlns="http://www.w3.org/2000/svg" fill="none" viewBox="0.1 0.9 60.5 66">
<path d="M44.8 43.6C47.2 43.1 48.9 41 48.9 38.5V19.4C48.9 9.20002 40.6 0.900024 30.4 0.900024C20.2 0.900024 11.9 9.20002 11.9 19.4V38.5C11.9 41 13.7 43.1 16 43.6C2.99997 46.2 0.0999756 54.5 0.0999756 61.3V65.9C0.0999756 66.5 0.499976 66.9 1.09998 66.9H12.6H13.4H47.2H48H59.6C60.2 66.9 60.6 66.5 60.6 65.9V61.3C60.7 49.8 52.8 45.3 44.8 43.6ZM18.1 23.7V23C18.1 22.9 18.1 22.9 18.1 22.8V22.2C18.1 22 18.1 21.7 18.1 21.5C23.2 22.5 29.6 19.9 32.7 17.2C34.8 20.4 38.4 22.2 42.7 22.4V22.8C42.7 22.9 42.7 22.9 42.7 23V23.7C42.4 30.8 36.8 39.1 30.4 39.1C24 39.1 18.5 30.8 18.1 23.7ZM18.4 19.6C19.6 14.1 24.6 10 30.4 10C36.5 10 41.6 14.5 42.6 20.4C38.6 20.2 35.5 18.3 33.8 15.2C33.6 14.9 33.3 14.7 33 14.7C32.7 14.7 32.3 14.8 32.1 15.1C30 17.6 23.4 20.6 18.4 19.6ZM37.3 38.5C39.5 36.8 41.4 34.3 42.7 31.5V42.8C42.7 43 42.8 43.2 42.9 43.3C42.1 43.2 41.3 43.1 40.5 43C38.7 42.8 37.3 41.4 37.3 39.6V38.5ZM13.9 38.5V19.4C13.9 10.3 21.3 2.90002 30.4 2.90002C39.5 2.90002 46.9 10.3 46.9 19.4V38.5C46.9 39.9 46 41.2 44.7 41.6V24C44.7 23.7 44.7 23.3 44.7 23V22.3C44.7 14.4 38.2 8 30.4 8C23.3 8 17.4 13.2 16.3 20V20.1C16.2 20.8 16.1 21.5 16.1 22.2V22.9C16.1 23.2 16.1 23.6 16.1 23.9V41.5C14.8 41.2 13.9 40 13.9 38.5ZM18.1 42.8V31.5C19.4 34.3 21.3 36.7 23.5 38.5V39.6C23.5 41.4 22.1 42.8 20.3 43C19.5 43.1 18.7 43.2 17.9 43.3C18.1 43.2 18.1 43 18.1 42.8ZM58.7 64.9H48.3V57.1C48.3 56.5 47.9 56.1 47.3 56.1C46.7 56.1 46.3 56.5 46.3 57.1V64.9H13.7V57.1C13.7 56.5 13.3 56.1 12.7 56.1C12.1 56.1 11.7 56.5 11.7 57.1V64.9H2.19997V61.3C2.19997 51.6 8.39998 46.1 20.6 45C23.4 44.7 25.5 42.5 25.6 39.8C27.1 40.6 28.8 41.1 30.5 41.1C32.2 41.1 33.9 40.6 35.4 39.8C35.5 42.5 37.6 44.8 40.4 45C52.6 46.1 58.8 51.6 58.8 61.3V64.9H58.7Z" fill="black"/>
</svg>