<svg xmlns="http://www.w3.org/2000/svg" fill="none" viewBox="0.8 0.9 54.5 66">
<path d="M0.799988 61.8V65.9C0.799988 66.5 1.19999 66.9 1.79999 66.9H54.3C54.9 66.9 55.3 66.5 55.3 65.9V61.8C55.3 56.3 52.6 51.2 48.2 48.2C48.1 48.1 48 48 47.8 48C47 47.5 46.1 47 45.2 46.6C46.2 45.4 47 43.6 47.1 41.1L47.5 34.5C47.5 33.9 48.4 19.3 42.5 9.30005L42.4 9.09998C39.3 3.99998 33.9 0.900024 27.9 0.900024C21.9 0.900024 16.4 3.99998 13.4 9.09998L13.3 9.30005C7.49999 19.3 8.29999 33.9 8.29999 34.5L8.70001 41.1C8.90001 43.6 9.70001 45.4 10.6 46.6C4.80001 49.1 0.799988 55.1 0.799988 61.8ZM15.3 49.2C15.6 49.2 15.9 49.2 16.1 49C16.3 48.8 16.4 48.5 16.4 48.2V47.1C16.8 47.1 17.1 47.1 17.5 47.1H19.6C21.4 47.1 22.8 46 23.4 44.4C24.9 45.1 26.4 45.5 28.1 45.5C29.7 45.5 31.3 45.1 32.8 44.4C33.4 46 34.9 47.1 36.6 47.1H38.7C39.1 47.1 39.4 47.1 39.8 47.1V48.2C39.8 48.5 39.9 48.8 40.1 49C40.3 49.2 40.5 49.2 40.8 49.2H40.9C40.9 49.2 42.3 49 43.8 48C44.5 48.2 45.1 48.5 45.7 48.9C40.6 51.9 34.6 53.5 28.1 53.5C21.6 53.5 15.6 51.9 10.5 48.9C11.1 48.6 11.8 48.3 12.5 48C13.9 49 15.2 49.2 15.3 49.2ZM39.7 45.1C39.3 45.1 39 45.1 38.6 45.1H36.5C35.5 45.1 34.6 44.4 34.5 43.4C36.6 41.9 38.4 39.7 39.7 37V45.1ZM28.1 43.5C21.6 43.5 16.2 35.9 15.9 26.3C18.8 26.1 25 25 31.3 19.4C32.4 21.5 35.1 25.3 40.3 26.3C40 35.9 34.6 43.5 28.1 43.5ZM21.6 43.3C21.4 44.3 20.6 45 19.6 45H17.5C17.1 45 16.8 45 16.4 45V36.9C17.7 39.6 19.5 41.8 21.6 43.3ZM15.2 10.2L15.3 10.1C18 5.59998 22.8 2.90002 28.1 2.90002C33.4 2.90002 38.2 5.59998 40.9 10.1L41 10.2C46.5 19.7 45.7 34.1 45.7 34.3L45.3 40.9C45.1 44.7 43.1 46.3 41.7 46.9V31.2C42.1 29.4 42.3 27.4 42.3 25.4C42.3 24.9 41.9 24.5 41.4 24.4C34.8 23.6 32.6 17.6 32.5 17.3C32.4 17 32.1 16.7 31.8 16.7C31.5 16.6 31.1 16.7 30.9 17C23.7 24 16.3 24.3 14.8 24.3C14.5 24.3 14.3 24.4 14.1 24.6C13.9 24.8 13.8 25.1 13.8 25.3C13.8 27.3 14 29.2 14.4 31.1V46.8C13.1 46.2 11.1 44.6 10.8 40.8L10.4 34.2C10.4 34.2 9.60001 19.7 15.2 10.2ZM8.60001 50.1C14.1 53.6 20.8 55.5 28 55.5H28.1C35.3 55.5 42 53.6 47.5 50.1C51.1 52.8 53.3 57.1 53.3 61.8V64.9H2.79999V61.8C2.79999 57.1 5.00001 52.8 8.60001 50.1Z" fill="black"/>
</svg>