<svg xmlns="http://www.w3.org/2000/svg" fill="none" viewBox="0.29 0.3 48.51 65.9">
<path d="M1.2 66.2H47.8C48.4 66.2 48.8 65.8 48.8 65.2V52.8C48.8 45.5 42.9 39.6 35.6 39.6H30.9V37.8C31 37.7 31.2 37.6 31.3 37.4C32.1 37.6 33 37.7 33.8 37.7C38 37.7 41.5 35.2 41.6 35.1C41.9 34.9 42 34.6 42 34.3V21.6L41.4 13.3C41.3 11.8 41 10.5 40.5 9.30005C36.8 0.800049 25.6 0.300049 25.1 0.300049H24C23.5 0.300049 12.3 0.800049 8.6 9.30005C8.1 10.5 7.8 11.8 7.7 13.3L7.1 21.7V34.3C7.1 34.6 7.29999 34.9 7.49999 35.1C7.69999 35.3 12.5 38.7 17.8 37.4C17.9 37.5 18.1 37.7 18.2 37.8V39.6H13.5C6.19999 39.6 0.29998 45.5 0.29998 52.8V65.3C0.19998 65.8 0.700004 66.2 1.2 66.2ZM30 42L30.9 42.9L27.9 48.4L25.9 47L30 42ZM13.5 22.2C13.5 21.1 13.6 20.1 13.9 19.1C14.2 18.1 14.9 17.2 15.9 16.8C21.6 14.3 27.4 14.3 33.1 16.8C34.1 17.2 34.8 18.1 35.1 19.1C35.4 20.1 35.5 21.2 35.5 22.2C35.5 28.5 30.4 38.6 24.4 38.6C18.4 38.6 13.5 28.5 13.5 22.2ZM8.99999 33.7V21.7L9.6 13.4C9.7 12.1 9.89999 11 10.4 10C13.6 2.7 23.9 2.19995 24 2.19995H25.1C25.2 2.19995 35.5 2.7 38.7 10C39.1 11 39.4 12.1 39.5 13.4L40.1 21.6V33.7C39 34.4 36.1 35.9 32.9 35.6C35.9 31.7 37.7 26.3 37.7 22.2C37.7 21 37.5 19.7 37.2 18.6C36.8 17 35.6 15.6 34 15C27.8 12.3 21.4 12.3 15.2 15C13.7 15.7 12.5 17 12 18.6C11.7 19.8 11.5 21 11.5 22.2C11.5 26.3 13.3 31.7 16.3 35.6C13.1 35.9 10.1 34.4 8.99999 33.7ZM24.5 40.6C26 40.6 27.5 40.1 28.9 39.3V40.2L24.5 45.6L20.1 40.2V39.3C21.5 40.1 23 40.6 24.5 40.6ZM19.1 42L23.1 46.9L21.1 48.3L18.1 42.8L19.1 42ZM2.2 52.8C2.2 46.6 7.19999 41.6 13.4 41.6H16.6L16.1 42.1C15.8 42.4 15.7 42.9 15.9 43.3L19.8 50.4C19.9 50.7 20.2 50.8 20.5 50.9C20.6 50.9 20.6 50.9 20.7 50.9C20.9 50.9 21.1 50.8 21.3 50.7L24.4 48.4L27.5 50.7C27.7 50.8 27.9 50.9 28.1 50.9C28.2 50.9 28.2 50.9 28.3 50.9C28.6 50.8 28.8 50.7 29 50.4L32.9 43.3C33.1 42.9 33 42.4 32.7 42.1L32.2 41.6H35.4C41.6 41.6 46.6 46.6 46.6 52.8V64.2H1.99999V52.8H2.2Z" fill="black"/>
</svg>