<svg xmlns="http://www.w3.org/2000/svg" fill="none" viewBox="0.1 0.4 56.5 66.1">
<path d="M1.29996 66.5H55.6C56.2 66.5 56.6 66.1 56.6 65.5V61.2C56.6 54.4 52.6 48.5 46.8 45.7C48.5 38.5 50.2 23.3 45.2 11.5C42.3 4.7 35.8 0.400024 28.3 0.400024C20.8 0.400024 14.3 4.6 11.4 11.5C6.39996 23.2 8.09996 38.5 9.79996 45.7C4.09996 48.5 0.0999756 54.4 0.0999756 61.2V65.5C0.299976 66.1 0.699957 66.5 1.29996 66.5ZM13.4 12.4C16 6.30002 21.8 2.5 28.4 2.5C35.1 2.5 40.8 6.30002 43.4 12.4C47.8 22.7 46.8 37.1 44.9 45C43.4 44.5 41.9 44.2 40.2 44.1C40.1 44.1 40.1 44.1 40 44.1C39.8 44.1 39.5 44.1 39.3 44.1H37.1C36 44.1 35.2 43.3 35 42.3C39.6 39 43.1 32.1 43.1 20.8C43.1 20.3 42.7 19.9 42.2 19.8C39.8 19.5 37.6 18.5 35.9 16.8C33.4 14.4 29.6 14 26.6 15.9C21 19.5 16.1 19.8 14.7 19.7C14.1 19.7 13.7 20.1 13.7 20.7C13.7 29.6 15.9 36.7 20.1 40.9C20.6 41.4 21.2 41.9 21.8 42.4C21.6 43.4 20.7 44.2 19.7 44.2H17.5C17.2 44.2 17 44.2 16.7 44.2C16.6 44.2 16.5 44.2 16.4 44.2C14.8 44.3 13.2 44.6 11.8 45.1C9.99996 37.1 8.99996 22.7 13.4 12.4ZM28.5 42.4C26 42.4 23.6 41.3 21.6 39.4C18 35.8 16 29.5 15.8 21.6C18 21.5 22.7 20.7 27.8 17.5C29.9 16.1 32.8 16.4 34.6 18.2C36.5 20 38.7 21.1 41.2 21.6C40.9 34.1 35.9 42.4 28.5 42.4ZM23.6 43.3C25.1 44 26.8 44.4 28.5 44.4C30.1 44.4 31.8 44 33.4 43.2C34 44.8 35.5 45.9 37.3 45.9H38.4C34.8 51.2 33.4 51.6 28.6 51.7H28.5C23.7 51.7 22.3 51.2 18.8 45.9H19.9C21.5 46 23 44.9 23.6 43.3ZM2.29996 61.3C2.29996 53.3 8.39998 46.8 16.2 46.1C20.5 52.7 22.4 53.8 28.4 53.8H28.5C34.6 53.8 36.4 52.7 40.7 46.1C42.3 46.2 43.9 46.6 45.3 47.2C45.4 47.2 45.4 47.3 45.5 47.3C50.9 49.7 54.7 55 54.7 61.3V64.6H46.5V59.7C46.5 59.1 46.1 58.7 45.5 58.7C44.9 58.7 44.5 59.1 44.5 59.7V64.6H12.7V59.7C12.7 59.1 12.3 58.7 11.7 58.7C11.1 58.7 10.7 59.1 10.7 59.7V64.6H2.49997V61.3H2.29996Z" fill="black"/>
</svg>