<svg xmlns="http://www.w3.org/2000/svg" fill="none" viewBox="0.8 0.9 60.8 66">
<path d="M47.3001 46.6L39.1 45V41.7C42.8 39.3 45.4 35.3 46.1 30.7C47.9 30.1 48.9 28.8 49 26.8C49.2 24.2 48 23 47 22.4C47.4 18.9 46.6 15 44.5 11.8C42.7 8.90005 40.2001 6.9 37.4001 6C37.1001 4.2 35.8 1.20002 31.2 0.900024C31.1 0.900024 31.1 0.900024 31 0.900024C26.4 1.30002 25.1001 4.2 24.8001 6C22.1001 6.9 19.8 8.70002 18.1 11.4C16 14.6 15.1001 18.7 15.4001 22.3C14.4001 22.8 13.1001 24 13.2001 26.8C13.3001 28.8 14.4 30.1 16.1 30.7C16.7 35.3 19.3 39.3 23.1 41.7V45L14.9001 46.6C6.70005 48.2 0.800049 55.4 0.800049 63.7V65.9C0.800049 66.5 1.20005 66.9 1.80005 66.9H11.8H50.6H60.6C61.2 66.9 61.6 66.5 61.6 65.9V63.7C61.5 55.4 55.5001 48.2 47.3001 46.6ZM47 26.7C47 27.5 46.7 28 46.2 28.4V25.6C46.3 25.3 46.4 24.9 46.5 24.6C46.9 25.1 47.1 25.8 47 26.7ZM31.1 2.90002C33.3 3.10002 34.7 3.99998 35.2 5.59998C35 5.59998 34.8 5.5 34.7 5.5H27.5C27.3 5.5 27.2 5.49998 27 5.59998C27.6 3.99998 28.9 3.10002 31.1 2.90002ZM19.7001 12.6C20.9001 10.7 22.9 8.50005 26 7.80005C26.5 7.70005 26.9001 7.59998 27.4001 7.59998H34.5C37.8 7.79998 40.7 9.70002 42.7 12.9C44.5 15.8 45.2001 19.3 44.8001 22.5C44.7001 22.6 44.6 22.7 44.6 22.9C44.6 23.1 44.6 23.2 44.6 23.4C41.6 19.7 37 16.3 27.2 14.7C26.7 14.6 26.3 14.9 26.1 15.3C24 20.3 21.3 23.1 17.5 24.1C16.8 20.5 17.5001 16 19.7001 12.6ZM15.2001 26.7C15.1001 25.7 15.3 24.9 15.8 24.5C15.9 24.8 15.9 25 16 25.2V28.4C15.5 28.1 15.2001 27.5 15.2001 26.7ZM18.1 30C18.1 29.9 18.1 29.8 18.1 29.7C18.1 29.3 18 29 18 28.6V25.9C23.5 24.5 26.3001 20.2 27.8001 16.6C37.0001 18.2 41.1 21.4 44.2 25.7V28.5C44.2 28.9 44.2 29.2 44.1 29.6C44.1 29.7 44.1 29.8 44.1 29.8C43.5 36.6 37.8 42 31.1 42C24.3 42.1 18.7 36.8 18.1 30ZM31.1 44.1C33.2 44.1 35.3 43.6 37.1 42.8V45.5L31.1 53.9L25.1 45.5V42.8C26.9 43.7 29 44.1 31.1 44.1ZM23.7 47L30.3001 56.3C30.5001 56.6 30.8 56.7 31.1 56.7C31.4 56.7 31.7001 56.5 31.9001 56.3L38.5 47L39.8001 47.2L31.1 61.5L22.4001 47.2L23.7 47ZM59.5 64.9H51.5V58.1C51.5 57.5 51.1 57.1 50.5 57.1C49.9 57.1 49.5 57.5 49.5 58.1V64.9H12.7001V58.1C12.7001 57.5 12.3001 57.1 11.7001 57.1C11.1001 57.1 10.7001 57.5 10.7001 58.1V64.9H2.70005V63.7C2.70005 56.3 8.00005 49.9 15.2001 48.6L20.3 47.6L30.2 63.9C30.4 64.2 30.7 64.4 31.1 64.4C31.5 64.4 31.8 64.2 32 63.9L41.9001 47.6L47 48.6C54.3 50 59.5 56.3 59.5 63.7V64.9Z" fill="black"/>
</svg>