<svg xmlns="http://www.w3.org/2000/svg" fill="none" viewBox="0.8 0.38 51.5 66.13">
<path d="M1.79999 66.5H51.3C51.9 66.5 52.3 66.1 52.3 65.5V61.1C52.3 55.6 49.8 50.7 45.9 47.5C48.4 40.7 46.2 35.9 45.1 34.1C52 26 46.5 16.8 45.4 15.2C45 9.7 41.9 5.4 36.4 2.7C30.2 -0.4 22.8 -0.4 16.7 2.7C11.3 5.4 8.19998 9.7 7.69998 15.2C6.59998 16.8 1.09998 26 7.99998 34.1C6.99998 35.8 4.79998 40.7 7.19998 47.5C3.29998 50.7 0.799988 55.6 0.799988 61.1V65.5C0.799988 66.1 1.19999 66.5 1.79999 66.5ZM9.99998 34.7C10.3 34.3 10.3 33.8001 9.89998 33.4001C2.59998 25.6001 9.09998 16.6 9.39998 16.2C9.49998 16 9.59999 15.9 9.59999 15.7C9.89999 10.8 12.6 7.00002 17.5 4.60002C23.1 1.80002 29.8 1.80002 35.5 4.60002C40.4 7.00002 43.1 10.8 43.4 15.7C43.4 15.9 43.5 16.1 43.6 16.2C43.7 16.3 50.4 25.5001 43.1 33.4001C42.8 33.8001 42.7 34.3 43 34.7C43.1 34.9 46.4 39.3001 44.1 46.3001C42.9 45.5001 41.5 44.9001 40.1 44.4001C40.1 44.4001 40.1 44.4001 40 44.4001C38.3 43.8001 36.5 43.5 34.6 43.5C33.8 43.5 33.2 42.9 33.2 42.1V41.7C38.1 38.2 41.5 31 41.5 22.7C41.5 22.3 41.5 21.8 41.5 21.2C41.5 20.9 41.4 20.7 41.1 20.5C40.9 20.3 40.6 20.2001 40.3 20.3001C37.3 20.6001 36.2 18.3 36.1 18.1C36 17.8 35.7 17.6 35.4 17.5C35.1 17.4 34.8 17.5 34.5 17.7C31.8 19.8 29.1 18.5001 29 18.4001C28.7 18.3001 28.4 18.3001 28.2 18.4001C24.6 19.8001 22.4 17.8001 22.3 17.8001C21.9 17.4001 21.3 17.4001 20.9 17.8001C17 21.4001 14.1 22.0001 12.4 21.9001C12.1 21.9001 11.8 22 11.6 22.2C11.4 22.4 11.3 22.7001 11.3 22.9001C11.3 31.1001 14.7 38.3 19.6 41.7V42.1C19.6 42.9 19 43.5 18.2 43.5C16.3 43.5 14.5 43.8001 12.8 44.4001H12.7C11.3 44.9001 9.99998 45.5001 8.69998 46.3001C6.59998 39.3001 9.89998 34.9 9.99998 34.7ZM26.5 41.9001C19.6 41.9001 13.9 33.9001 13.5 23.8001C15.5 23.7001 18.4 22.8 21.8 19.7C23 20.4 25.4 21.5001 28.6 20.3001C29.6 20.7001 32.2 21.4001 34.9 19.8001C35.7 20.9001 37.2 22.1 39.4 22.2C39.4 22.4 39.4 22.5 39.4 22.6C39.5 33.3 33.7 41.9001 26.5 41.9001ZM21.8 42.8001C23.3 43.5001 24.9 43.9001 26.6 43.9001C28.3 43.9001 29.9 43.5001 31.4 42.8001C31.7 44.4001 33.1 45.5 34.8 45.5C35.9 45.5 36.9 45.6001 37.9 45.8001C34.6 48.7001 30.8 50.2 26.6 50.2C22.5 50.2 18.6 48.7001 15.3 45.8001C16.3 45.6001 17.4 45.5 18.4 45.5C20 45.6 21.4 44.4001 21.8 42.8001ZM2.79999 61.2C2.79999 54.5 7.09999 48.7 13.1 46.6C16.9 50.4 21.6 52.4001 26.6 52.4001C31.5 52.4001 36.3 50.3 40.1 46.6C46.1 48.8 50.4 54.5001 50.4 61.3001V64.7H2.89998V61.2H2.79999Z" fill="black"/>
</svg>