<?xml version="1.0" standalone="no"?>
<!DOCTYPE svg PUBLIC "-//W3C//DTD SVG 20010904//EN" "http://www.w3.org/TR/2001/REC-SVG-20010904/DTD/svg10.dtd">
<svg version="1.0" xmlns="http://www.w3.org/2000/svg" width="1262.000000pt" height="1368.000000pt"
    viewBox="0 0 1262.000000 1368.000000" preserveAspectRatio="xMidYMid meet">

    <g transform="translate(0.000000,1368.000000) scale(0.100000,-0.100000)" fill="#000000" stroke="none">
        <path d="M6110 13145 l0 -65 -30 0 -30 0 0 -65 0 -65 -30 0 c-27 0 -30 -3 -30
-30 0 -28 -3 -30 -35 -30 -32 0 -35 -2 -35 -30 0 -27 -3 -30 -30 -30 -28 0
-30 -3 -30 -35 0 -33 -2 -35 -35 -35 -32 0 -35 -2 -35 -30 0 -27 -3 -30 -30
-30 -28 0 -30 -3 -30 -35 0 -33 -2 -35 -35 -35 -32 0 -35 -2 -35 -30 0 -27 -3
-30 -30 -30 -28 0 -30 -3 -30 -35 0 -32 -2 -35 -30 -35 -27 0 -30 -3 -30 -30
0 -28 -3 -30 -35 -30 -32 0 -35 -2 -35 -30 0 -19 -5 -30 -12 -29 -7 1 -37 1
-65 0 l-53 -1 0 -35 0 -35 -65 0 -65 0 0 -30 c0 -27 -3 -30 -30 -30 -28 0 -30
-3 -30 -35 0 -32 -2 -35 -30 -35 -27 0 -30 -3 -30 -30 0 -28 -3 -30 -35 -30
l-35 0 0 -65 0 -65 -30 0 c-27 0 -30 -3 -30 -30 0 -28 -3 -30 -35 -30 l-35 0
0 -65 0 -65 -30 0 c-28 0 -30 -3 -30 -35 0 -33 -2 -35 -35 -35 l-35 0 0 -65 0
-65 -30 0 -30 0 0 -60 0 -60 -30 0 c-28 0 -30 -3 -30 -35 0 -33 -2 -35 -35
-35 l-35 0 0 -65 0 -65 -30 0 c-27 0 -30 -3 -30 -30 0 -28 -3 -30 -35 -30
l-35 0 0 -65 0 -65 -30 0 c-27 0 -30 -3 -30 -30 0 -28 -3 -30 -35 -30 l-35 0
0 -65 0 -65 -30 0 c-28 0 -30 -3 -30 -35 0 -32 -2 -35 -30 -35 l-30 0 0 -65 0
-65 -35 0 c-32 0 -35 -2 -35 -30 0 -27 -3 -30 -30 -30 -27 0 -30 -3 -30 -30 0
-28 -3 -30 -35 -30 l-35 0 0 -65 0 -65 -30 0 c-28 0 -30 -3 -30 -35 0 -33 -2
-35 -35 -35 l-35 0 0 -65 0 -65 -30 0 c-27 0 -30 -3 -30 -30 0 -27 -3 -30 -30
-30 -27 0 -30 -3 -30 -30 0 -28 -3 -30 -35 -30 l-35 0 0 -65 0 -65 -30 0 c-28
0 -30 -3 -30 -35 0 -33 -2 -35 -35 -35 l-35 0 0 -65 0 -65 -30 0 c-27 0 -30
-3 -30 -30 0 -28 -3 -30 -35 -30 -32 0 -35 -2 -35 -30 0 -27 -3 -30 -30 -30
-28 0 -30 -3 -30 -35 0 -32 -2 -35 -30 -35 l-30 0 0 -65 0 -65 -35 0 c-32 0
-35 -2 -35 -30 0 -27 -3 -30 -30 -30 -28 0 -30 -3 -30 -35 0 -33 -2 -35 -35
-35 -32 0 -35 -2 -35 -30 0 -27 -3 -30 -30 -30 -27 0 -30 -3 -30 -30 0 -28 -3
-30 -35 -30 -33 0 -35 -2 -35 -35 0 -32 -2 -35 -30 -35 -27 0 -30 -3 -30 -30
0 -27 -3 -30 -30 -30 -27 0 -30 -3 -30 -30 0 -25 -4 -30 -25 -30 -21 0 -25 -5
-25 -30 0 -27 -3 -30 -30 -30 -27 0 -30 -3 -30 -30 0 -28 -3 -30 -35 -30 -33
0 -35 -2 -35 -35 0 -32 -2 -35 -31 -35 -28 0 -31 -2 -25 -25 6 -23 3 -25 -24
-25 -27 0 -30 -3 -30 -30 0 -27 -3 -30 -30 -30 -27 0 -30 -2 -20 -19 5 -11 10
-31 10 -45 0 -22 -4 -26 -30 -26 l-30 0 0 -65 0 -65 -30 0 c-28 0 -30 -3 -30
-35 0 -33 -2 -35 -35 -35 -32 0 -35 -2 -35 -30 0 -27 -3 -30 -30 -30 -27 0
-30 -3 -30 -30 0 -28 -3 -30 -35 -30 -33 0 -35 -2 -35 -35 0 -32 -2 -35 -30
-35 -27 0 -30 -3 -30 -30 0 -28 -3 -30 -35 -30 -33 0 -35 -2 -35 -35 0 -32 -2
-35 -30 -35 l-30 0 0 -65 0 -65 -30 0 c-27 0 -30 -3 -30 -30 0 -28 -3 -30 -35
-30 -32 0 -35 -2 -35 -30 0 -27 -3 -30 -30 -30 -28 0 -30 -3 -30 -35 0 -33 -2
-35 -35 -35 -32 0 -35 -2 -35 -30 0 -27 -3 -30 -30 -30 -28 0 -30 -3 -30 -35
0 -33 -2 -35 -35 -35 -32 0 -35 -2 -35 -30 0 -27 -3 -30 -30 -30 -28 0 -30 -3
-30 -35 0 -32 -2 -35 -30 -35 -27 0 -30 -3 -30 -30 0 -28 -3 -30 -35 -30 -32
0 -35 -2 -35 -30 0 -27 -3 -30 -30 -30 -28 0 -30 -3 -30 -35 l0 -35 -65 0 -65
0 0 -30 0 -30 -65 0 -65 0 0 -35 0 -35 -65 0 -65 0 0 -30 0 -30 -65 0 -65 0 0
-35 0 -35 -65 0 -65 0 0 -30 c0 -27 -3 -30 -30 -30 -27 0 -30 -3 -30 -30 0
-27 3 -30 30 -30 28 0 30 -3 30 -35 l0 -35 65 0 65 0 0 -30 c0 -28 3 -30 35
-30 33 0 35 -2 35 -35 0 -32 2 -35 30 -35 l30 0 0 -65 0 -65 35 0 35 0 0 -95
0 -95 30 0 30 0 0 -95 0 -95 30 0 30 0 0 -95 0 -95 35 0 35 0 0 -100 0 -100
30 0 30 0 0 -95 0 -95 35 0 35 0 0 -95 0 -95 30 0 30 0 0 -100 0 -100 35 0 35
0 0 -60 0 -60 30 0 30 0 0 -100 0 -100 30 0 30 0 0 -95 0 -95 35 0 35 0 0 -95
0 -95 30 0 30 0 0 -100 0 -100 35 0 35 0 0 -95 0 -95 30 0 30 0 0 -95 0 -95
35 0 35 0 0 -95 0 -95 30 0 30 0 0 -100 0 -100 30 0 30 0 0 -65 0 -65 35 0 35
0 0 -95 0 -95 30 0 30 0 0 -95 0 -95 35 0 35 0 0 -95 0 -95 30 0 30 0 0 -100
0 -100 35 0 35 0 0 -95 0 -95 30 0 30 0 0 -95 0 -95 30 0 30 0 0 -100 0 -100
35 0 35 0 0 -95 0 -95 30 0 30 0 0 -65 0 -65 35 0 35 0 0 -95 0 -95 30 0 30 0
0 -95 0 -95 35 0 35 0 0 -100 0 -100 30 0 30 0 0 -95 0 -95 30 0 30 0 0 -95 0
-95 35 0 35 0 0 -95 0 -95 30 0 30 0 0 -100 0 -100 35 0 35 0 0 -65 0 -65
1090 0 1090 0 0 35 0 35 130 0 130 0 0 30 0 30 95 0 95 0 0 35 0 35 1125 0
1125 0 0 30 0 30 65 0 65 0 0 35 0 35 65 0 65 0 0 30 0 30 65 0 65 0 0 30 0
30 65 0 65 0 0 35 0 35 95 0 95 0 0 30 c0 27 3 30 30 30 28 0 30 3 30 35 0 33
2 35 35 35 32 0 35 2 35 30 0 27 3 30 30 30 28 0 30 3 30 35 0 33 2 35 35 35
32 0 35 2 35 30 0 27 3 30 30 30 27 0 30 3 30 30 0 28 3 30 35 30 l35 0 0 65
0 65 30 0 c28 0 30 3 30 35 l0 35 195 0 195 0 0 30 0 30 95 0 95 0 0 35 0 35
65 0 65 0 0 30 c0 27 3 30 30 30 27 0 30 3 30 30 l0 30 65 0 65 0 0 35 c0 32
2 35 30 35 27 0 30 3 30 30 0 28 3 30 35 30 33 0 35 2 35 35 l0 35 65 0 65 0
0 30 c0 27 3 30 30 30 28 0 30 3 30 35 l0 35 195 0 195 0 0 30 0 30 160 0 160
0 0 30 c0 27 3 30 30 30 28 0 30 3 30 35 l0 35 65 0 65 0 0 30 c0 28 3 30 35
30 33 0 35 2 35 35 0 32 2 35 30 35 27 0 30 3 30 30 0 27 3 30 30 30 l30 0 0
65 0 65 35 0 35 0 0 320 0 320 30 0 30 0 0 130 0 130 -30 0 -30 0 0 225 0 225
-35 0 -35 0 0 95 0 95 -30 0 -30 0 0 160 0 160 -30 0 -30 0 0 165 0 165 -35 0
-35 0 0 160 0 160 -30 0 -30 0 0 160 0 160 30 0 30 0 0 190 0 190 -30 0 -30 0
0 100 0 100 -35 0 -35 0 0 190 0 190 -65 0 -65 0 0 35 0 35 -60 0 -60 0 0 30
c0 28 -3 30 -35 30 l-35 0 0 65 0 65 -30 0 c-27 0 -30 3 -30 30 0 28 -3 30
-35 30 l-35 0 0 65 0 65 -30 0 c-28 0 -30 3 -30 35 0 33 -2 35 -35 35 l-35 0
0 95 0 95 -30 0 -30 0 0 160 0 160 30 0 30 0 0 95 0 95 35 0 35 0 0 65 0 65
30 0 c28 0 30 3 30 35 0 33 2 35 35 35 32 0 35 2 35 30 0 27 3 30 30 30 28 0
30 3 30 35 0 33 2 35 35 35 32 0 35 2 35 30 0 27 3 30 30 30 27 0 30 3 30 30
0 27 3 30 30 30 28 0 30 3 30 35 l0 35 65 0 65 0 0 65 0 65 35 0 35 0 0 190 0
190 -35 0 -35 0 0 100 0 100 -30 0 -30 0 0 125 0 125 -35 0 -35 0 0 130 0 130
-30 0 -30 0 0 130 0 130 -30 0 -30 0 0 125 0 125 -35 0 -35 0 0 130 0 130 -30
0 -30 0 0 130 0 130 -35 0 -35 0 0 130 0 130 -30 0 -30 0 0 125 0 125 -35 0
-35 0 0 100 0 100 -190 0 -190 0 0 30 0 30 -95 0 -95 0 0 30 0 30 -65 0 -65 0
0 35 c0 33 -2 35 -35 35 -32 0 -35 2 -35 30 0 27 -3 30 -30 30 -28 0 -30 3
-30 35 l0 35 -65 0 -65 0 0 30 c0 27 -3 30 -30 30 -28 0 -30 3 -30 35 0 33 -2
35 -35 35 -32 0 -35 2 -35 30 l0 30 -65 0 -65 0 0 30 c0 27 -3 30 -30 30 -28
0 -30 3 -30 35 0 33 -2 35 -35 35 -32 0 -35 2 -35 30 0 27 -3 30 -30 30 -28 0
-30 3 -30 35 0 32 -2 35 -30 35 l-30 0 0 65 0 65 -35 0 -35 0 0 60 0 60 -65 0
-65 0 0 35 0 35 -65 0 -65 0 0 30 0 30 -60 0 -60 0 0 35 0 35 -65 0 -65 0 0
30 0 30 -65 0 -65 0 0 35 0 35 -65 0 -65 0 0 30 0 30 -65 0 -65 0 0 65 0 65
-30 0 -30 0 0 65 0 65 -35 0 -35 0 0 65 0 65 -30 0 -30 0 0 60 0 60 -95 0 -95
0 0 -30 0 -30 -65 0 -65 0 0 -30 0 -30 -65 0 -65 0 0 -35 0 -35 -95 0 -95 0 0
-30 0 -30 -130 0 -130 0 0 -35 0 -35 -130 0 -130 0 0 -30 0 -30 -65 0 -65 0 0
30 0 30 -102 0 c-133 0 -148 4 -148 41 l0 29 -100 0 -100 0 0 255 0 255 -65 0
-65 0 0 -65z m-506 -701 c26 -10 19 -23 -21 -39 -46 -20 -55 -12 -13 13 21 13
27 22 18 25 -7 3 -10 6 -6 6 3 1 13 -2 22 -5z m-224 -158 c0 -2 -7 -7 -16 -10
-8 -3 -12 -2 -9 4 6 10 25 14 25 6z" />
    </g>
</svg>