<?xml version="1.0" standalone="no"?>
<!DOCTYPE svg PUBLIC "-//W3C//DTD SVG 20010904//EN"
 "http://www.w3.org/TR/2001/REC-SVG-20010904/DTD/svg10.dtd">
<svg version="1.0" xmlns="http://www.w3.org/2000/svg"
 width="1000.000000pt" height="1000.000000pt" viewBox="0 0 1000.000000 1000.000000"
 preserveAspectRatio="xMidYMid meet">

<g transform="translate(0.000000,1000.000000) scale(0.100000,-0.100000)"
fill="#000000" stroke="none">
<path d="M4275 8680 c-93 -27 -209 -56 -257 -65 -81 -14 -90 -14 -113 1 -25
16 -61 12 -50 -5 3 -6 -3 -15 -14 -20 -26 -14 -31 -14 -31 3 0 22 -42 49 -51
34 -5 -8 -13 -6 -26 9 -10 11 -33 26 -50 31 -33 11 -33 11 -33 -24 0 -27 -4
-34 -20 -34 -16 0 -20 -7 -20 -31 0 -17 5 -40 11 -51 8 -16 8 -22 -2 -29 -11
-6 -11 -11 -1 -21 18 -18 14 -30 -8 -23 -25 8 -34 -13 -26 -59 5 -25 14 -37
36 -46 47 -20 44 -28 -9 -27 -27 0 -56 -5 -65 -12 -12 -10 -23 -11 -47 -2 -18
6 -34 11 -36 11 -5 0 28 -52 49 -76 18 -21 18 -21 -16 -48 -19 -14 -42 -26
-50 -26 -20 0 -21 -14 -2 -30 8 -6 22 -34 32 -62 19 -57 17 -60 -51 -79 -29
-8 -44 -8 -58 1 -22 13 -20 15 -37 -28 -9 -23 -16 -30 -23 -23 -6 6 -21 11
-34 11 -20 0 -23 -5 -22 -37 0 -21 4 -47 8 -58 5 -12 3 -30 -4 -45 -7 -14 -20
-69 -29 -124 -17 -97 -17 -99 4 -121 11 -11 20 -33 20 -48 0 -20 5 -27 19 -27
25 0 43 -23 35 -45 -4 -9 -2 -20 3 -24 6 -3 12 -38 15 -77 5 -69 5 -71 -23
-87 -34 -19 -40 -57 -9 -57 11 0 24 -8 27 -17 4 -10 11 -21 17 -25 24 -16 -7
-21 -33 -5 -49 29 -59 20 -74 -60 -6 -30 -4 -33 19 -33 31 0 29 -12 -17 -73
-30 -39 -36 -42 -81 -44 -49 -1 -108 -19 -108 -32 0 -18 28 -31 66 -31 39 0
42 -2 48 -31 3 -17 6 -42 6 -54 0 -18 10 -25 58 -40 31 -10 61 -21 67 -26 24
-23 53 -5 129 77 43 47 80 83 83 80 3 -2 -23 -64 -57 -138 -54 -114 -68 -158
-101 -308 -38 -171 -39 -177 -28 -266 10 -80 8 -112 -11 -250 -12 -87 -28
-171 -36 -187 -9 -16 -14 -40 -12 -55 4 -34 42 -41 92 -17 40 19 53 48 36 79
-9 18 -7 31 9 69 11 26 24 47 29 47 5 0 14 39 21 87 8 63 16 92 32 109 19 20
19 24 6 51 -12 22 -13 42 -7 83 6 48 8 50 9 17 1 -27 9 -46 29 -65 l27 -27 3
35 c1 19 5 46 8 58 4 20 7 22 20 11 9 -7 20 -24 25 -37 7 -19 12 -22 23 -13
11 9 15 7 20 -11 l6 -23 19 22 c10 12 23 49 30 82 12 62 31 91 31 48 0 -14 7
-28 16 -31 25 -10 28 -1 8 28 -31 48 -8 37 40 -19 48 -56 45 -66 -10 -45 -23
9 -31 8 -47 -9 -20 -19 -20 -25 -14 -162 2 -59 21 -93 58 -104 11 -4 19 -12
19 -20 0 -7 -36 -105 -80 -217 -44 -112 -83 -219 -86 -238 -10 -58 -15 -70
-30 -70 -8 0 -18 -10 -23 -22 -11 -31 9 -138 27 -138 22 0 66 -59 78 -104 6
-24 17 -42 27 -44 13 -3 14 2 7 25 -4 15 -16 43 -25 61 -26 51 -16 62 58 62
64 0 65 0 126 -55 34 -30 71 -55 81 -55 17 0 20 7 20 45 0 25 -7 57 -16 70
l-16 25 55 -3 c48 -2 57 -5 61 -23 7 -28 38 -40 50 -21 8 13 12 11 27 -6 17
-21 17 -21 53 -2 20 11 36 24 36 30 0 5 62 23 138 39 75 16 143 31 150 34 6 2
12 -3 12 -12 0 -10 -9 -16 -25 -16 -27 0 -49 -27 -61 -75 -7 -28 -29 -66 -64
-109 -8 -10 -16 -35 -16 -55 -1 -20 -4 -45 -8 -56 -6 -16 5 -37 43 -86 30 -39
54 -82 60 -108 8 -39 44 -91 62 -91 4 0 11 9 14 21 5 15 10 18 18 10 8 -8 8
-21 -2 -47 -11 -30 -10 -38 4 -60 19 -30 29 -25 55 27 l20 39 50 -31 c47 -29
61 -54 43 -73 -5 -4 -8 -29 -8 -54 0 -46 -1 -47 -33 -50 -38 -4 -52 -29 -52
-90 0 -47 24 -82 56 -82 31 0 30 -6 -5 -36 -17 -14 -39 -40 -51 -59 l-21 -34
22 -63 c13 -34 36 -77 52 -95 27 -31 28 -33 8 -33 -13 0 -26 12 -37 33 -22 43
-20 42 -49 23 -17 -11 -25 -25 -25 -46 0 -33 -17 -38 -65 -20 -19 7 -37 6 -68
-6 -92 -34 -130 -38 -174 -15 -39 20 -41 20 -36 1 4 -15 -3 -21 -39 -31 -85
-23 -124 -48 -176 -112 -28 -34 -93 -104 -145 -156 -53 -52 -93 -99 -91 -106
4 -8 20 -11 49 -7 28 3 50 0 60 -8 11 -9 15 -9 15 -1 0 11 82 9 147 -5 25 -5
29 -24 38 -206 l6 -117 -112 -88 c-62 -48 -149 -117 -194 -153 -71 -57 -85
-64 -122 -64 -33 1 -44 -3 -48 -17 -4 -10 -29 -31 -57 -46 -52 -28 -62 -50
-21 -45 28 3 63 -14 63 -31 0 -7 -11 -29 -25 -50 -24 -34 -26 -65 -4 -52 11 8
51 -19 42 -28 -3 -4 -1 -7 5 -7 7 0 12 -7 12 -15 0 -34 48 -38 225 -16 105 14
183 19 205 14 l35 -8 -40 -5 c-31 -4 -41 -10 -43 -26 -4 -30 24 -51 49 -36 10
7 35 12 54 12 24 0 35 5 35 15 0 19 40 20 85 1 20 -9 35 -22 35 -32 0 -24 78
-91 127 -110 51 -20 147 -15 166 8 6 8 48 37 92 63 44 26 105 65 135 85 30 20
62 41 70 45 14 9 -73 -95 -188 -224 l-48 -54 -200 -28 c-109 -16 -210 -33
-224 -38 -14 -5 -47 -13 -75 -16 -56 -8 -85 -28 -85 -59 0 -16 -17 -32 -63
-59 -35 -20 -67 -37 -72 -37 -10 0 -15 -6 -155 -207 -105 -150 -136 -186 -247
-289 -232 -213 -243 -224 -226 -224 9 0 25 -8 35 -17 17 -15 21 -15 46 -2 19
10 46 14 90 11 60 -4 65 -6 84 -38 23 -39 15 -41 93 27 22 19 88 69 147 112
l106 78 193 -42 c127 -26 195 -37 197 -30 2 6 13 11 23 11 13 0 25 12 35 35 8
19 27 44 44 57 29 21 29 23 14 46 -14 21 -14 26 -1 40 8 10 12 23 10 30 -3 7
2 23 9 35 8 12 18 35 22 50 5 23 10 27 21 17 9 -7 20 -8 32 -2 30 15 415 -15
429 -33 10 -13 12 -12 17 6 6 22 8 22 126 16 68 -4 122 -3 125 2 4 5 70 34
149 65 l143 56 121 0 c71 0 124 -4 128 -10 9 -14 43 -12 47 2 3 9 59 15 191
22 169 8 193 7 247 -9 60 -18 60 -18 83 3 13 12 33 22 45 22 11 0 65 23 118
51 73 39 105 50 129 47 29 -3 34 -1 39 22 4 20 20 35 67 60 34 18 69 39 78 47
9 7 29 24 45 36 30 24 35 49 21 112 -5 24 -2 35 14 49 12 11 21 23 21 28 0 10
-84 10 -132 -1 -22 -5 -38 -5 -38 0 0 5 -5 9 -11 9 -6 0 -49 12 -96 26 l-85
27 52 52 c30 30 53 63 56 81 2 16 9 53 14 83 6 30 10 57 10 59 0 2 7 -1 15 -8
20 -17 73 -5 102 22 28 26 29 38 3 38 -26 0 -25 8 2 37 18 19 19 23 5 23 -16
0 -15 2 0 20 18 20 18 20 25 0 10 -28 38 -13 63 34 11 20 24 36 31 36 28 0 55
49 65 116 6 49 18 81 38 111 28 39 29 46 27 135 -5 152 -28 202 -134 286 -23
18 -42 40 -42 48 0 10 -13 14 -48 14 -26 0 -63 5 -82 11 -50 14 -287 14 -305
-1 -11 -9 -27 -3 -79 34 l-64 47 23 23 c13 14 27 37 31 52 16 62 -52 234 -110
280 -20 16 -36 36 -36 44 0 8 -29 30 -64 48 -70 36 -98 69 -49 58 53 -12 156
-26 160 -22 2 2 -21 89 -51 192 -31 103 -56 196 -56 206 0 9 -43 66 -96 125
-53 59 -104 120 -113 134 -9 15 -104 110 -211 212 l-195 185 -73 268 c-100
367 -93 347 -124 362 -16 7 -28 17 -28 23 0 5 -6 9 -13 9 -8 0 -42 45 -77 100
-66 106 -99 140 -134 140 -12 0 -46 16 -76 35 -30 19 -65 35 -77 35 -13 0 -23
5 -23 10 0 6 -9 19 -20 30 -24 24 -77 26 -108 4 -19 -13 -35 -14 -114 -4 -86
10 -126 20 -82 20 10 0 26 12 34 27 13 22 34 33 113 58 54 17 98 35 98 40 0 6
11 16 24 23 36 19 49 47 29 66 -8 9 -22 16 -30 16 -8 0 -28 7 -43 15 -26 13
-29 19 -26 60 3 45 4 47 63 77 58 30 61 34 117 142 32 61 75 135 96 165 22 30
39 59 39 65 0 6 50 129 112 274 98 231 110 265 96 273 -10 5 -20 29 -24 54 -5
33 -15 52 -39 74 -38 33 -85 47 -112 33 -18 -10 -137 -8 -183 2 -14 3 -129 13
-256 21 l-231 16 -134 -62 c-74 -34 -155 -72 -181 -86 -46 -23 -79 -17 -34 7
13 7 29 22 35 34 6 11 17 30 25 41 15 19 14 20 -32 17 l-47 -3 35 30 c41 35
48 37 65 14 11 -14 17 -9 54 44 42 59 43 62 45 148 l2 89 99 93 c55 51 137
125 182 165 69 62 82 78 82 105 1 17 6 35 11 38 17 11 11 23 -12 27 -33 4 -35
42 -4 89 38 57 35 69 -21 71 -27 0 -58 0 -70 -1 -13 -1 -28 7 -35 19 -7 11
-17 20 -23 19 -5 0 -86 -23 -180 -49z m185 -16 c0 -17 -52 -19 -83 -2 -21 11
-20 12 18 23 42 12 65 5 65 -21z m-160 -9 c0 -8 -54 -32 -87 -38 -55 -11 -37
8 25 25 31 9 58 17 60 17 1 1 2 -1 2 -4z m-360 -98 c0 -7 -6 -21 -13 -32 -19
-26 -30 -3 -11 23 17 25 24 28 24 9z m-136 -21 c-5 -13 -34 -31 -34 -22 0 16
14 36 26 36 7 0 11 -6 8 -14z m-279 -375 c-3 -6 -14 -11 -23 -11 -15 1 -15 2
2 15 21 16 32 13 21 -4z m690 -157 c-4 -35 -11 -67 -17 -70 -26 -17 -101 -14
-127 3 l-26 18 45 5 c43 5 45 6 51 45 5 28 16 47 40 68 41 34 44 26 34 -69z
m-675 56 c11 -6 17 -16 14 -23 -2 -7 12 -30 32 -51 20 -20 34 -40 30 -43 -10
-10 -83 61 -95 91 -16 42 -14 44 19 26z m-10 -95 c17 -20 -9 -21 -36 0 -19 14
-19 14 2 15 12 0 27 -7 34 -15z m-105 -5 c-3 -5 -11 -10 -16 -10 -6 0 -7 5 -4
10 3 6 11 10 16 10 6 0 7 -4 4 -10z m-69 -68 c-22 -22 -32 -7 -17 25 12 25 13
26 23 9 8 -13 6 -22 -6 -34z m-45 -75 c-1 -12 -15 -9 -19 4 -3 6 1 10 8 8 6
-3 11 -8 11 -12z m1332 -34 c-7 -2 -21 -2 -30 0 -10 3 -4 5 12 5 17 0 24 -2
18 -5z m-1290 -105 c40 -4 38 -21 -3 -29 -26 -6 -37 -4 -43 7 -4 8 -14 14 -21
14 -17 0 -26 22 -26 58 l0 27 33 -37 c20 -23 43 -38 60 -40z m607 34 c0 -13
-12 -22 -22 -16 -10 6 -1 24 13 24 5 0 9 -4 9 -8z m126 -77 c-11 -8 -29 -15
-40 -15 -17 1 -15 4 9 15 40 18 55 18 31 0z m-661 -107 c-4 -9 -22 -24 -41
-34 -32 -17 -35 -18 -51 -1 -16 16 -16 18 1 35 17 16 17 16 14 -3 -4 -25 28
-22 56 5 22 22 29 21 21 -2z m1725 -128 c-36 -87 -45 -99 -37 -47 6 37 54 133
63 124 2 -2 -9 -37 -26 -77z m-1708 -17 c17 -21 -10 -16 -43 8 -16 11 -33 17
-39 14 -5 -3 -10 -2 -10 4 0 26 63 9 92 -26z m-57 -103 c3 -5 16 -10 28 -11
l22 0 -22 -11 c-23 -11 -53 2 -53 23 0 12 17 11 25 -1z m-65 -229 c0 -5 -7
-12 -16 -15 -14 -5 -15 -4 -4 9 14 17 20 19 20 6z m270 -59 c0 -13 -12 -22
-22 -16 -10 6 -1 24 13 24 5 0 9 -4 9 -8z m-339 -25 c-10 -9 -11 -8 -5 6 3 10
9 15 12 12 3 -3 0 -11 -7 -18z m70 -73 l34 -15 -37 5 c-24 3 -48 -2 -73 -15
-37 -20 -65 -19 -65 1 0 5 10 10 23 10 12 1 33 7 47 15 32 18 31 18 71 -1z
m293 -6 c-6 -10 -84 -11 -84 0 0 4 20 7 45 8 24 0 42 -3 39 -8z m-113 -139
c-13 -11 -27 -17 -30 -13 -7 7 28 34 43 34 6 -1 0 -10 -13 -21z m9 -70 c10 -6
1 -8 -27 -9 -32 0 -43 4 -43 15 0 12 7 14 28 9 15 -4 34 -10 42 -15z m1122
-23 c-35 -18 -63 -36 -62 -41 3 -13 -23 -25 -53 -25 -16 0 -26 4 -22 10 3 6
15 10 26 10 10 0 19 4 19 10 0 15 102 70 130 69 19 0 10 -8 -38 -33z m-974
-179 c-18 -18 -44 -46 -57 -62 -15 -17 -26 -24 -29 -17 -5 15 50 82 80 99 39
21 41 14 6 -20z m1037 -26 c-6 -5 -21 -12 -35 -16 -22 -7 -23 -6 -11 9 7 9 23
16 34 16 13 0 17 -4 12 -9z m-1300 -28 c-4 -10 -10 -30 -12 -44 -3 -14 -13
-31 -24 -37 -18 -12 -19 -10 -13 15 8 35 36 83 47 83 5 0 6 -8 2 -17z m315
-44 c0 -11 -4 -17 -10 -14 -5 3 -10 13 -10 21 0 8 5 14 10 14 6 0 10 -9 10
-21z m-354 -104 c-4 -14 -11 -25 -16 -25 -13 0 -13 16 1 42 14 26 23 16 15
-17z m1177 16 c92 -10 170 -21 173 -24 4 -3 -10 -14 -30 -24 -30 -14 -42 -15
-69 -5 -17 6 -63 16 -102 22 -140 20 -189 30 -199 40 -14 14 27 12 227 -9z
m-1083 -30 c0 -17 -4 -33 -10 -36 -6 -4 -10 8 -10 29 0 20 5 36 10 36 6 0 10
-13 10 -29z m447 -47 c-3 -3 -12 -4 -19 -1 -8 3 -5 6 6 6 11 1 17 -2 13 -5z
m-545 -26 c-7 -7 -12 -8 -12 -2 0 14 12 26 19 19 2 -3 -1 -11 -7 -17z m64 -75
c-8 -16 -29 -41 -46 -58 -29 -27 -32 -28 -26 -8 7 23 64 89 79 92 4 0 1 -11
-7 -26z m429 -302 c-3 -9 -18 -23 -33 -32 -32 -18 -66 -76 -76 -129 -3 -19
-18 -48 -32 -65 -31 -36 -32 -41 46 163 l63 162 19 -42 c10 -22 16 -48 13 -57z
m709 -423 c26 1 58 4 70 8 14 4 18 3 11 -4 -11 -10 -222 -62 -255 -62 -15 0
-20 7 -20 29 0 36 15 41 90 33 30 -3 77 -5 104 -4z m-894 -55 c0 -7 -7 -13
-15 -13 -10 0 -15 10 -15 33 1 30 1 31 15 13 8 -11 15 -26 15 -33z m299 -24
c-16 -10 -23 -4 -14 10 3 6 11 8 17 5 6 -4 5 -9 -3 -15z m-212 -25 c-3 -3 -12
-4 -19 -1 -8 3 -5 6 6 6 11 1 17 -2 13 -5z m1973 -250 c0 -6 -85 27 -109 43
-23 14 -25 14 -38 -2 -18 -26 -28 -11 -24 35 1 23 -2 40 -8 40 -15 0 -61 71
-61 93 0 13 36 -15 120 -93 66 -62 120 -114 120 -116z m-1140 17 c0 -6 -4 -13
-10 -16 -5 -3 -10 1 -10 9 0 9 5 16 10 16 6 0 10 -4 10 -9z m110 -190 c0 -14
-5 -33 -10 -41 -7 -11 -9 -8 -8 15 1 17 -2 41 -6 55 -8 22 -7 23 8 11 9 -7 16
-25 16 -40z m1281 -97 c22 -25 22 -26 3 -16 -12 6 -24 18 -28 27 -8 21 -3 19
25 -11z m-1233 -86 c-2 -4 -14 -1 -27 8 -23 17 -23 18 -5 31 16 12 19 11 26
-8 5 -12 7 -26 6 -31z m1288 21 c19 -22 19 -22 -3 -10 -13 6 -23 16 -23 21 0
15 5 12 26 -11z m84 -205 c22 -76 43 -146 45 -154 3 -8 -9 1 -26 20 -42 48
-99 166 -99 204 0 29 27 83 36 73 2 -2 22 -66 44 -143z m-89 -181 c13 -15 11
-16 -20 -10 -18 4 -42 7 -53 7 -10 0 -16 5 -13 10 10 16 71 12 86 -7z m-206 1
c13 -5 14 -8 3 -15 -19 -13 -28 -11 -28 6 0 17 2 18 25 9z m-1055 -339 c-14
-17 -56 -20 -65 -6 -5 9 18 17 59 20 15 1 16 -2 6 -14z m-166 -30 c4 -13 2
-14 -14 -5 -23 13 -26 20 -6 20 8 0 16 -7 20 -15z m1708 -255 c72 -53 72 -53
40 -117 -17 -34 -27 -40 -37 -23 -3 6 -15 10 -26 10 -12 0 -35 16 -52 35 -22
25 -39 35 -60 35 l-29 0 17 28 c20 32 66 82 74 82 3 -1 36 -23 73 -50z m-2224
-52 c7 -7 12 -23 12 -36 0 -23 -1 -23 -72 -17 -111 10 -123 19 -65 48 38 19
108 22 125 5z m72 -134 c0 -6 -39 -44 -45 -44 -3 0 -5 13 -5 29 0 25 3 28 25
23 14 -2 25 -6 25 -8z m20 -144 c0 -3 -13 -16 -30 -28 l-30 -23 0 28 c0 24 4
28 30 29 17 1 30 -2 30 -6z m-89 -189 c-11 -20 -48 -52 -131 -112 -54 -38 -71
-46 -69 -31 0 6 198 162 206 162 2 0 -1 -8 -6 -19z m684 -391 c3 -5 2 -10 -4
-10 -5 0 -13 5 -16 10 -3 6 -2 10 4 10 5 0 13 -4 16 -10z m1831 -47 c-8 -24
-62 -57 -82 -49 -21 8 -17 26 5 26 11 0 33 11 48 24 31 27 38 27 29 -1z
m-2617 -15 c10 -16 11 -23 2 -26 -8 -3 -9 -8 -1 -17 8 -10 -3 -14 -52 -19 -35
-4 -78 -9 -96 -13 -31 -5 -33 -4 -30 18 4 29 41 49 91 49 21 0 36 4 32 9 -4 8
4 13 35 20 3 0 11 -9 19 -21z m-274 -38 c-3 -5 -18 -10 -33 -10 -21 0 -24 2
-12 10 20 13 53 13 45 0z m2875 -64 c0 -11 -19 -15 -25 -6 -3 5 1 10 9 10 9 0
16 -2 16 -4z m-1920 -60 c0 -2 -12 -12 -27 -21 l-28 -18 19 21 c17 20 36 29
36 18z m1833 -15 c17 -6 17 -8 -2 -25 -14 -13 -30 -17 -53 -13 -19 2 -45 -2
-61 -10 -16 -8 -32 -12 -35 -8 -10 10 37 45 62 45 11 0 28 5 36 10 17 11 28
11 53 1z m-8 -101 c0 -10 -9 -14 -29 -13 -33 2 -41 8 -31 23 10 16 60 8 60
-10z m145 -27 c25 -7 25 -7 -5 -13 -16 -3 -41 -4 -55 -1 -23 4 -23 5 -5 12 26
10 35 10 65 2z m-1980 -92 c0 -24 -24 -43 -58 -47 -15 -2 -50 -6 -77 -10 -36
-4 -62 -1 -89 10 -21 9 -53 17 -70 17 -38 2 -27 5 124 28 157 25 170 25 170 2z
m-625 -181 c-27 -28 -65 -41 -65 -22 0 9 69 51 84 52 6 0 -3 -13 -19 -30z
m1425 -97 c14 -9 40 -29 58 -45 l33 -28 -31 0 c-16 0 -30 5 -30 11 0 6 -17 27
-37 45 -39 36 -35 46 7 17z m-1565 -30 c-9 -51 -29 -86 -64 -116 -16 -13 -37
-41 -45 -61 -13 -30 -20 -36 -46 -36 -22 0 -29 4 -23 13 41 67 166 237 175
237 6 0 8 -13 3 -37z m1719 -12 c3 -5 -1 -15 -10 -22 -13 -10 -17 -10 -24 1
-5 8 -6 18 -4 22 7 11 31 10 38 -1z m44 -13 c-6 -18 -28 -21 -28 -4 0 9 7 16
16 16 9 0 14 -5 12 -12z m53 2 c5 0 9 -4 9 -10 0 -5 -11 -10 -25 -10 -16 0
-25 6 -25 16 0 11 5 14 16 10 9 -3 20 -6 25 -6z m-387 -69 c4 -5 -25 -21 -63
-36 -63 -24 -74 -25 -110 -14 -22 7 -38 15 -36 19 8 12 53 18 63 8 7 -7 22 -6
44 1 18 6 47 15 63 20 17 5 31 10 32 10 1 1 4 -3 7 -8z m-514 -47 l55 -36 -70
6 c-38 3 -114 9 -167 12 -54 4 -95 11 -92 15 3 5 20 9 37 9 18 0 52 7 77 14
71 23 100 19 160 -20z m-1160 -168 c0 -16 -14 -36 -26 -36 -7 0 -21 -15 -30
-32 -27 -54 -135 -145 -156 -132 -8 5 24 41 93 106 93 87 119 108 119 94z
m464 -105 c15 -16 27 -20 50 -15 24 4 36 0 50 -15 11 -12 17 -24 13 -27 -5 -5
-307 54 -316 62 -1 1 16 8 40 14 33 9 48 9 68 -1 14 -8 30 -15 35 -18 5 -2 7
3 3 12 -13 35 21 28 57 -12z m-275 0 c22 -6 12 -16 -98 -95 -67 -48 -125 -86
-128 -82 -3 3 -1 11 5 18 5 7 12 24 14 37 4 30 28 41 28 12 0 -19 1 -19 26 4
14 13 35 25 46 27 22 3 32 16 48 61 10 28 17 30 59 18z m-384 -161 c16 -7 12
-9 -18 -9 -23 -1 -36 3 -32 9 7 12 23 12 50 0z"/>
</g>
</svg>
