<svg xmlns="http://www.w3.org/2000/svg" fill="none" viewBox="0.6 0.7 222.5 286">
<path d="M139.1 5.70001C140.481 5.70001 141.6 4.58072 141.6 3.20001C141.6 1.8193 140.481 0.700012 139.1 0.700012C137.719 0.700012 136.6 1.8193 136.6 3.20001C136.6 4.58072 137.719 5.70001 139.1 5.70001Z" fill="black"/>
<path d="M148.1 5.70001C149.481 5.70001 150.6 4.58072 150.6 3.20001C150.6 1.8193 149.481 0.700012 148.1 0.700012C146.719 0.700012 145.6 1.8193 145.6 3.20001C145.6 4.58072 146.719 5.70001 148.1 5.70001Z" fill="black"/>
<path d="M102.8 23.8C104.181 23.8 105.3 22.6808 105.3 21.3C105.3 19.9193 104.181 18.8 102.8 18.8C101.419 18.8 100.3 19.9193 100.3 21.3C100.3 22.6808 101.419 23.8 102.8 23.8Z" fill="black"/>
<path d="M130 23.8C131.381 23.8 132.5 22.6808 132.5 21.3C132.5 19.9193 131.381 18.8 130 18.8C128.619 18.8 127.5 19.9193 127.5 21.3C127.5 22.6808 128.619 23.8 130 23.8Z" fill="black"/>
<path d="M139.1 23.8C140.481 23.8 141.6 22.6808 141.6 21.3C141.6 19.9193 140.481 18.8 139.1 18.8C137.719 18.8 136.6 19.9193 136.6 21.3C136.6 22.6808 137.719 23.8 139.1 23.8Z" fill="black"/>
<path d="M75.6 32.9C76.9807 32.9 78.1 31.7807 78.1 30.4C78.1 29.0193 76.9807 27.9 75.6 27.9C74.2193 27.9 73.1 29.0193 73.1 30.4C73.1 31.7807 74.2193 32.9 75.6 32.9Z" fill="black"/>
<path d="M102.8 32.9C104.181 32.9 105.3 31.7807 105.3 30.4C105.3 29.0193 104.181 27.9 102.8 27.9C101.419 27.9 100.3 29.0193 100.3 30.4C100.3 31.7807 101.419 32.9 102.8 32.9Z" fill="black"/>
<path d="M111.9 32.9C113.281 32.9 114.4 31.7807 114.4 30.4C114.4 29.0193 113.281 27.9 111.9 27.9C110.519 27.9 109.4 29.0193 109.4 30.4C109.4 31.7807 110.519 32.9 111.9 32.9Z" fill="black"/>
<path d="M121 32.9C122.381 32.9 123.5 31.7807 123.5 30.4C123.5 29.0193 122.381 27.9 121 27.9C119.619 27.9 118.5 29.0193 118.5 30.4C118.5 31.7807 119.619 32.9 121 32.9Z" fill="black"/>
<path d="M130 32.9C131.381 32.9 132.5 31.7807 132.5 30.4C132.5 29.0193 131.381 27.9 130 27.9C128.619 27.9 127.5 29.0193 127.5 30.4C127.5 31.7807 128.619 32.9 130 32.9Z" fill="black"/>
<path d="M66.6 42C67.9807 42 69.1 40.8807 69.1 39.5C69.1 38.1193 67.9807 37 66.6 37C65.2193 37 64.1 38.1193 64.1 39.5C64.1 40.8807 65.2193 42 66.6 42Z" fill="black"/>
<path d="M75.6 42C76.9807 42 78.1 40.8807 78.1 39.5C78.1 38.1193 76.9807 37 75.6 37C74.2193 37 73.1 38.1193 73.1 39.5C73.1 40.8807 74.2193 42 75.6 42Z" fill="black"/>
<path d="M102.8 42C104.181 42 105.3 40.8807 105.3 39.5C105.3 38.1193 104.181 37 102.8 37C101.419 37 100.3 38.1193 100.3 39.5C100.3 40.8807 101.419 42 102.8 42Z" fill="black"/>
<path d="M111.9 42C113.281 42 114.4 40.8807 114.4 39.5C114.4 38.1193 113.281 37 111.9 37C110.519 37 109.4 38.1193 109.4 39.5C109.4 40.8807 110.519 42 111.9 42Z" fill="black"/>
<path d="M121 42C122.381 42 123.5 40.8807 123.5 39.5C123.5 38.1193 122.381 37 121 37C119.619 37 118.5 38.1193 118.5 39.5C118.5 40.8807 119.619 42 121 42Z" fill="black"/>
<path d="M66.6 51C67.9807 51 69.1 49.8807 69.1 48.5C69.1 47.1193 67.9807 46 66.6 46C65.2193 46 64.1 47.1193 64.1 48.5C64.1 49.8807 65.2193 51 66.6 51Z" fill="black"/>
<path d="M93.8 51C95.1808 51 96.3 49.8807 96.3 48.5C96.3 47.1193 95.1808 46 93.8 46C92.4193 46 91.3 47.1193 91.3 48.5C91.3 49.8807 92.4193 51 93.8 51Z" fill="black"/>
<path d="M102.8 51C104.181 51 105.3 49.8807 105.3 48.5C105.3 47.1193 104.181 46 102.8 46C101.419 46 100.3 47.1193 100.3 48.5C100.3 49.8807 101.419 51 102.8 51Z" fill="black"/>
<path d="M111.9 51C113.281 51 114.4 49.8807 114.4 48.5C114.4 47.1193 113.281 46 111.9 46C110.519 46 109.4 47.1193 109.4 48.5C109.4 49.8807 110.519 51 111.9 51Z" fill="black"/>
<path d="M121 51C122.381 51 123.5 49.8807 123.5 48.5C123.5 47.1193 122.381 46 121 46C119.619 46 118.5 47.1193 118.5 48.5C118.5 49.8807 119.619 51 121 51Z" fill="black"/>
<path d="M57.5 60.1C58.8807 60.1 60 58.9807 60 57.6C60 56.2193 58.8807 55.1 57.5 55.1C56.1193 55.1 55 56.2193 55 57.6C55 58.9807 56.1193 60.1 57.5 60.1Z" fill="black"/>
<path d="M84.7 60.1C86.0807 60.1 87.2 58.9807 87.2 57.6C87.2 56.2193 86.0807 55.1 84.7 55.1C83.3192 55.1 82.2 56.2193 82.2 57.6C82.2 58.9807 83.3192 60.1 84.7 60.1Z" fill="black"/>
<path d="M93.8 60.1C95.1808 60.1 96.3 58.9807 96.3 57.6C96.3 56.2193 95.1808 55.1 93.8 55.1C92.4193 55.1 91.3 56.2193 91.3 57.6C91.3 58.9807 92.4193 60.1 93.8 60.1Z" fill="black"/>
<path d="M102.8 60.1C104.181 60.1 105.3 58.9807 105.3 57.6C105.3 56.2193 104.181 55.1 102.8 55.1C101.419 55.1 100.3 56.2193 100.3 57.6C100.3 58.9807 101.419 60.1 102.8 60.1Z" fill="black"/>
<path d="M111.9 60.1C113.281 60.1 114.4 58.9807 114.4 57.6C114.4 56.2193 113.281 55.1 111.9 55.1C110.519 55.1 109.4 56.2193 109.4 57.6C109.4 58.9807 110.519 60.1 111.9 60.1Z" fill="black"/>
<path d="M121 60.1C122.381 60.1 123.5 58.9807 123.5 57.6C123.5 56.2193 122.381 55.1 121 55.1C119.619 55.1 118.5 56.2193 118.5 57.6C118.5 58.9807 119.619 60.1 121 60.1Z" fill="black"/>
<path d="M130 60.1C131.381 60.1 132.5 58.9807 132.5 57.6C132.5 56.2193 131.381 55.1 130 55.1C128.619 55.1 127.5 56.2193 127.5 57.6C127.5 58.9807 128.619 60.1 130 60.1Z" fill="black"/>
<path d="M139.1 60.1C140.481 60.1 141.6 58.9807 141.6 57.6C141.6 56.2193 140.481 55.1 139.1 55.1C137.719 55.1 136.6 56.2193 136.6 57.6C136.6 58.9807 137.719 60.1 139.1 60.1Z" fill="black"/>
<path d="M148.1 60.1C149.481 60.1 150.6 58.9807 150.6 57.6C150.6 56.2193 149.481 55.1 148.1 55.1C146.719 55.1 145.6 56.2193 145.6 57.6C145.6 58.9807 146.719 60.1 148.1 60.1Z" fill="black"/>
<path d="M157.2 60.1C158.581 60.1 159.7 58.9807 159.7 57.6C159.7 56.2193 158.581 55.1 157.2 55.1C155.819 55.1 154.7 56.2193 154.7 57.6C154.7 58.9807 155.819 60.1 157.2 60.1Z" fill="black"/>
<path d="M75.6 69.2C76.9807 69.2 78.1 68.0807 78.1 66.7C78.1 65.3193 76.9807 64.2 75.6 64.2C74.2193 64.2 73.1 65.3193 73.1 66.7C73.1 68.0807 74.2193 69.2 75.6 69.2Z" fill="black"/>
<path d="M84.7 69.2C86.0807 69.2 87.2 68.0807 87.2 66.7C87.2 65.3193 86.0807 64.2 84.7 64.2C83.3192 64.2 82.2 65.3193 82.2 66.7C82.2 68.0807 83.3192 69.2 84.7 69.2Z" fill="black"/>
<path d="M93.8 69.2C95.1808 69.2 96.3 68.0807 96.3 66.7C96.3 65.3193 95.1808 64.2 93.8 64.2C92.4193 64.2 91.3 65.3193 91.3 66.7C91.3 68.0807 92.4193 69.2 93.8 69.2Z" fill="black"/>
<path d="M102.8 69.2C104.181 69.2 105.3 68.0807 105.3 66.7C105.3 65.3193 104.181 64.2 102.8 64.2C101.419 64.2 100.3 65.3193 100.3 66.7C100.3 68.0807 101.419 69.2 102.8 69.2Z" fill="black"/>
<path d="M111.9 69.2C113.281 69.2 114.4 68.0807 114.4 66.7C114.4 65.3193 113.281 64.2 111.9 64.2C110.519 64.2 109.4 65.3193 109.4 66.7C109.4 68.0807 110.519 69.2 111.9 69.2Z" fill="black"/>
<path d="M121 69.2C122.381 69.2 123.5 68.0807 123.5 66.7C123.5 65.3193 122.381 64.2 121 64.2C119.619 64.2 118.5 65.3193 118.5 66.7C118.5 68.0807 119.619 69.2 121 69.2Z" fill="black"/>
<path d="M130 69.2C131.381 69.2 132.5 68.0807 132.5 66.7C132.5 65.3193 131.381 64.2 130 64.2C128.619 64.2 127.5 65.3193 127.5 66.7C127.5 68.0807 128.619 69.2 130 69.2Z" fill="black"/>
<path d="M139.1 69.2C140.481 69.2 141.6 68.0807 141.6 66.7C141.6 65.3193 140.481 64.2 139.1 64.2C137.719 64.2 136.6 65.3193 136.6 66.7C136.6 68.0807 137.719 69.2 139.1 69.2Z" fill="black"/>
<path d="M148.1 69.2C149.481 69.2 150.6 68.0807 150.6 66.7C150.6 65.3193 149.481 64.2 148.1 64.2C146.719 64.2 145.6 65.3193 145.6 66.7C145.6 68.0807 146.719 69.2 148.1 69.2Z" fill="black"/>
<path d="M157.2 69.2C158.581 69.2 159.7 68.0807 159.7 66.7C159.7 65.3193 158.581 64.2 157.2 64.2C155.819 64.2 154.7 65.3193 154.7 66.7C154.7 68.0807 155.819 69.2 157.2 69.2Z" fill="black"/>
<path d="M57.5 78.2C58.8807 78.2 60 77.0807 60 75.7C60 74.3193 58.8807 73.2 57.5 73.2C56.1193 73.2 55 74.3193 55 75.7C55 77.0807 56.1193 78.2 57.5 78.2Z" fill="black"/>
<path d="M84.7 78.2C86.0807 78.2 87.2 77.0807 87.2 75.7C87.2 74.3193 86.0807 73.2 84.7 73.2C83.3192 73.2 82.2 74.3193 82.2 75.7C82.2 77.0807 83.3192 78.2 84.7 78.2Z" fill="black"/>
<path d="M93.8 78.2C95.1808 78.2 96.3 77.0807 96.3 75.7C96.3 74.3193 95.1808 73.2 93.8 73.2C92.4193 73.2 91.3 74.3193 91.3 75.7C91.3 77.0807 92.4193 78.2 93.8 78.2Z" fill="black"/>
<path d="M102.8 78.2C104.181 78.2 105.3 77.0807 105.3 75.7C105.3 74.3193 104.181 73.2 102.8 73.2C101.419 73.2 100.3 74.3193 100.3 75.7C100.3 77.0807 101.419 78.2 102.8 78.2Z" fill="black"/>
<path d="M111.9 78.2C113.281 78.2 114.4 77.0807 114.4 75.7C114.4 74.3193 113.281 73.2 111.9 73.2C110.519 73.2 109.4 74.3193 109.4 75.7C109.4 77.0807 110.519 78.2 111.9 78.2Z" fill="black"/>
<path d="M121 78.2C122.381 78.2 123.5 77.0807 123.5 75.7C123.5 74.3193 122.381 73.2 121 73.2C119.619 73.2 118.5 74.3193 118.5 75.7C118.5 77.0807 119.619 78.2 121 78.2Z" fill="black"/>
<path d="M130 78.2C131.381 78.2 132.5 77.0807 132.5 75.7C132.5 74.3193 131.381 73.2 130 73.2C128.619 73.2 127.5 74.3193 127.5 75.7C127.5 77.0807 128.619 78.2 130 78.2Z" fill="black"/>
<path d="M139.1 78.2C140.481 78.2 141.6 77.0807 141.6 75.7C141.6 74.3193 140.481 73.2 139.1 73.2C137.719 73.2 136.6 74.3193 136.6 75.7C136.6 77.0807 137.719 78.2 139.1 78.2Z" fill="black"/>
<path d="M148.1 78.2C149.481 78.2 150.6 77.0807 150.6 75.7C150.6 74.3193 149.481 73.2 148.1 73.2C146.719 73.2 145.6 74.3193 145.6 75.7C145.6 77.0807 146.719 78.2 148.1 78.2Z" fill="black"/>
<path d="M84.7 87.3C86.0807 87.3 87.2 86.1808 87.2 84.8C87.2 83.4193 86.0807 82.3 84.7 82.3C83.3192 82.3 82.2 83.4193 82.2 84.8C82.2 86.1808 83.3192 87.3 84.7 87.3Z" fill="black"/>
<path d="M93.8 87.3C95.1808 87.3 96.3 86.1808 96.3 84.8C96.3 83.4193 95.1808 82.3 93.8 82.3C92.4193 82.3 91.3 83.4193 91.3 84.8C91.3 86.1808 92.4193 87.3 93.8 87.3Z" fill="black"/>
<path d="M102.8 87.3C104.181 87.3 105.3 86.1808 105.3 84.8C105.3 83.4193 104.181 82.3 102.8 82.3C101.419 82.3 100.3 83.4193 100.3 84.8C100.3 86.1808 101.419 87.3 102.8 87.3Z" fill="black"/>
<path d="M111.9 87.3C113.281 87.3 114.4 86.1808 114.4 84.8C114.4 83.4193 113.281 82.3 111.9 82.3C110.519 82.3 109.4 83.4193 109.4 84.8C109.4 86.1808 110.519 87.3 111.9 87.3Z" fill="black"/>
<path d="M121 87.3C122.381 87.3 123.5 86.1808 123.5 84.8C123.5 83.4193 122.381 82.3 121 82.3C119.619 82.3 118.5 83.4193 118.5 84.8C118.5 86.1808 119.619 87.3 121 87.3Z" fill="black"/>
<path d="M130 87.3C131.381 87.3 132.5 86.1808 132.5 84.8C132.5 83.4193 131.381 82.3 130 82.3C128.619 82.3 127.5 83.4193 127.5 84.8C127.5 86.1808 128.619 87.3 130 87.3Z" fill="black"/>
<path d="M139.1 87.3C140.481 87.3 141.6 86.1808 141.6 84.8C141.6 83.4193 140.481 82.3 139.1 82.3C137.719 82.3 136.6 83.4193 136.6 84.8C136.6 86.1808 137.719 87.3 139.1 87.3Z" fill="black"/>
<path d="M148.1 87.3C149.481 87.3 150.6 86.1808 150.6 84.8C150.6 83.4193 149.481 82.3 148.1 82.3C146.719 82.3 145.6 83.4193 145.6 84.8C145.6 86.1808 146.719 87.3 148.1 87.3Z" fill="black"/>
<path d="M66.6 96.3C67.9807 96.3 69.1 95.1808 69.1 93.8C69.1 92.4193 67.9807 91.3 66.6 91.3C65.2193 91.3 64.1 92.4193 64.1 93.8C64.1 95.1808 65.2193 96.3 66.6 96.3Z" fill="black"/>
<path d="M84.7 96.3C86.0807 96.3 87.2 95.1808 87.2 93.8C87.2 92.4193 86.0807 91.3 84.7 91.3C83.3192 91.3 82.2 92.4193 82.2 93.8C82.2 95.1808 83.3192 96.3 84.7 96.3Z" fill="black"/>
<path d="M93.8 96.3C95.1808 96.3 96.3 95.1808 96.3 93.8C96.3 92.4193 95.1808 91.3 93.8 91.3C92.4193 91.3 91.3 92.4193 91.3 93.8C91.3 95.1808 92.4193 96.3 93.8 96.3Z" fill="black"/>
<path d="M102.8 96.3C104.181 96.3 105.3 95.1808 105.3 93.8C105.3 92.4193 104.181 91.3 102.8 91.3C101.419 91.3 100.3 92.4193 100.3 93.8C100.3 95.1808 101.419 96.3 102.8 96.3Z" fill="black"/>
<path d="M111.9 96.3C113.281 96.3 114.4 95.1808 114.4 93.8C114.4 92.4193 113.281 91.3 111.9 91.3C110.519 91.3 109.4 92.4193 109.4 93.8C109.4 95.1808 110.519 96.3 111.9 96.3Z" fill="black"/>
<path d="M121 96.3C122.381 96.3 123.5 95.1808 123.5 93.8C123.5 92.4193 122.381 91.3 121 91.3C119.619 91.3 118.5 92.4193 118.5 93.8C118.5 95.1808 119.619 96.3 121 96.3Z" fill="black"/>
<path d="M130 96.3C131.381 96.3 132.5 95.1808 132.5 93.8C132.5 92.4193 131.381 91.3 130 91.3C128.619 91.3 127.5 92.4193 127.5 93.8C127.5 95.1808 128.619 96.3 130 96.3Z" fill="black"/>
<path d="M139.1 96.3C140.481 96.3 141.6 95.1808 141.6 93.8C141.6 92.4193 140.481 91.3 139.1 91.3C137.719 91.3 136.6 92.4193 136.6 93.8C136.6 95.1808 137.719 96.3 139.1 96.3Z" fill="black"/>
<path d="M93.8 105.4C95.1808 105.4 96.3 104.281 96.3 102.9C96.3 101.519 95.1808 100.4 93.8 100.4C92.4193 100.4 91.3 101.519 91.3 102.9C91.3 104.281 92.4193 105.4 93.8 105.4Z" fill="black"/>
<path d="M102.8 105.4C104.181 105.4 105.3 104.281 105.3 102.9C105.3 101.519 104.181 100.4 102.8 100.4C101.419 100.4 100.3 101.519 100.3 102.9C100.3 104.281 101.419 105.4 102.8 105.4Z" fill="black"/>
<path d="M111.9 105.4C113.281 105.4 114.4 104.281 114.4 102.9C114.4 101.519 113.281 100.4 111.9 100.4C110.519 100.4 109.4 101.519 109.4 102.9C109.4 104.281 110.519 105.4 111.9 105.4Z" fill="black"/>
<path d="M121 105.4C122.381 105.4 123.5 104.281 123.5 102.9C123.5 101.519 122.381 100.4 121 100.4C119.619 100.4 118.5 101.519 118.5 102.9C118.5 104.281 119.619 105.4 121 105.4Z" fill="black"/>
<path d="M130 105.4C131.381 105.4 132.5 104.281 132.5 102.9C132.5 101.519 131.381 100.4 130 100.4C128.619 100.4 127.5 101.519 127.5 102.9C127.5 104.281 128.619 105.4 130 105.4Z" fill="black"/>
<path d="M139.1 105.4C140.481 105.4 141.6 104.281 141.6 102.9C141.6 101.519 140.481 100.4 139.1 100.4C137.719 100.4 136.6 101.519 136.6 102.9C136.6 104.281 137.719 105.4 139.1 105.4Z" fill="black"/>
<path d="M84.7 114.5C86.0807 114.5 87.2 113.381 87.2 112C87.2 110.619 86.0807 109.5 84.7 109.5C83.3192 109.5 82.2 110.619 82.2 112C82.2 113.381 83.3192 114.5 84.7 114.5Z" fill="black"/>
<path d="M93.8 114.5C95.1808 114.5 96.3 113.381 96.3 112C96.3 110.619 95.1808 109.5 93.8 109.5C92.4193 109.5 91.3 110.619 91.3 112C91.3 113.381 92.4193 114.5 93.8 114.5Z" fill="black"/>
<path d="M102.8 114.5C104.181 114.5 105.3 113.381 105.3 112C105.3 110.619 104.181 109.5 102.8 109.5C101.419 109.5 100.3 110.619 100.3 112C100.3 113.381 101.419 114.5 102.8 114.5Z" fill="black"/>
<path d="M111.9 114.5C113.281 114.5 114.4 113.381 114.4 112C114.4 110.619 113.281 109.5 111.9 109.5C110.519 109.5 109.4 110.619 109.4 112C109.4 113.381 110.519 114.5 111.9 114.5Z" fill="black"/>
<path d="M121 114.5C122.381 114.5 123.5 113.381 123.5 112C123.5 110.619 122.381 109.5 121 109.5C119.619 109.5 118.5 110.619 118.5 112C118.5 113.381 119.619 114.5 121 114.5Z" fill="black"/>
<path d="M130 114.5C131.381 114.5 132.5 113.381 132.5 112C132.5 110.619 131.381 109.5 130 109.5C128.619 109.5 127.5 110.619 127.5 112C127.5 113.381 128.619 114.5 130 114.5Z" fill="black"/>
<path d="M148.1 114.5C149.481 114.5 150.6 113.381 150.6 112C150.6 110.619 149.481 109.5 148.1 109.5C146.719 109.5 145.6 110.619 145.6 112C145.6 113.381 146.719 114.5 148.1 114.5Z" fill="black"/>
<path d="M75.6 123.5C76.9807 123.5 78.1 122.381 78.1 121C78.1 119.619 76.9807 118.5 75.6 118.5C74.2193 118.5 73.1 119.619 73.1 121C73.1 122.381 74.2193 123.5 75.6 123.5Z" fill="black"/>
<path d="M84.7 123.5C86.0807 123.5 87.2 122.381 87.2 121C87.2 119.619 86.0807 118.5 84.7 118.5C83.3192 118.5 82.2 119.619 82.2 121C82.2 122.381 83.3192 123.5 84.7 123.5Z" fill="black"/>
<path d="M93.8 123.5C95.1808 123.5 96.3 122.381 96.3 121C96.3 119.619 95.1808 118.5 93.8 118.5C92.4193 118.5 91.3 119.619 91.3 121C91.3 122.381 92.4193 123.5 93.8 123.5Z" fill="black"/>
<path d="M111.9 123.5C113.281 123.5 114.4 122.381 114.4 121C114.4 119.619 113.281 118.5 111.9 118.5C110.519 118.5 109.4 119.619 109.4 121C109.4 122.381 110.519 123.5 111.9 123.5Z" fill="black"/>
<path d="M121 123.5C122.381 123.5 123.5 122.381 123.5 121C123.5 119.619 122.381 118.5 121 118.5C119.619 118.5 118.5 119.619 118.5 121C118.5 122.381 119.619 123.5 121 123.5Z" fill="black"/>
<path d="M130 123.5C131.381 123.5 132.5 122.381 132.5 121C132.5 119.619 131.381 118.5 130 118.5C128.619 118.5 127.5 119.619 127.5 121C127.5 122.381 128.619 123.5 130 123.5Z" fill="black"/>
<path d="M139.1 123.5C140.481 123.5 141.6 122.381 141.6 121C141.6 119.619 140.481 118.5 139.1 118.5C137.719 118.5 136.6 119.619 136.6 121C136.6 122.381 137.719 123.5 139.1 123.5Z" fill="black"/>
<path d="M148.1 123.5C149.481 123.5 150.6 122.381 150.6 121C150.6 119.619 149.481 118.5 148.1 118.5C146.719 118.5 145.6 119.619 145.6 121C145.6 122.381 146.719 123.5 148.1 123.5Z" fill="black"/>
<path d="M157.2 123.5C158.581 123.5 159.7 122.381 159.7 121C159.7 119.619 158.581 118.5 157.2 118.5C155.819 118.5 154.7 119.619 154.7 121C154.7 122.381 155.819 123.5 157.2 123.5Z" fill="black"/>
<path d="M111.9 132.6C113.281 132.6 114.4 131.481 114.4 130.1C114.4 128.719 113.281 127.6 111.9 127.6C110.519 127.6 109.4 128.719 109.4 130.1C109.4 131.481 110.519 132.6 111.9 132.6Z" fill="black"/>
<path d="M121 132.6C122.381 132.6 123.5 131.481 123.5 130.1C123.5 128.719 122.381 127.6 121 127.6C119.619 127.6 118.5 128.719 118.5 130.1C118.5 131.481 119.619 132.6 121 132.6Z" fill="black"/>
<path d="M130 132.6C131.381 132.6 132.5 131.481 132.5 130.1C132.5 128.719 131.381 127.6 130 127.6C128.619 127.6 127.5 128.719 127.5 130.1C127.5 131.481 128.619 132.6 130 132.6Z" fill="black"/>
<path d="M139.1 132.6C140.481 132.6 141.6 131.481 141.6 130.1C141.6 128.719 140.481 127.6 139.1 127.6C137.719 127.6 136.6 128.719 136.6 130.1C136.6 131.481 137.719 132.6 139.1 132.6Z" fill="black"/>
<path d="M148.1 132.6C149.481 132.6 150.6 131.481 150.6 130.1C150.6 128.719 149.481 127.6 148.1 127.6C146.719 127.6 145.6 128.719 145.6 130.1C145.6 131.481 146.719 132.6 148.1 132.6Z" fill="black"/>
<path d="M157.2 132.6C158.581 132.6 159.7 131.481 159.7 130.1C159.7 128.719 158.581 127.6 157.2 127.6C155.819 127.6 154.7 128.719 154.7 130.1C154.7 131.481 155.819 132.6 157.2 132.6Z" fill="black"/>
<path d="M166.3 132.6C167.681 132.6 168.8 131.481 168.8 130.1C168.8 128.719 167.681 127.6 166.3 127.6C164.919 127.6 163.8 128.719 163.8 130.1C163.8 131.481 164.919 132.6 166.3 132.6Z" fill="black"/>
<path d="M48.5 141.7C49.8807 141.7 51 140.581 51 139.2C51 137.819 49.8807 136.7 48.5 136.7C47.1193 136.7 46 137.819 46 139.2C46 140.581 47.1193 141.7 48.5 141.7Z" fill="black"/>
<path d="M57.5 141.7C58.8807 141.7 60 140.581 60 139.2C60 137.819 58.8807 136.7 57.5 136.7C56.1193 136.7 55 137.819 55 139.2C55 140.581 56.1193 141.7 57.5 141.7Z" fill="black"/>
<path d="M66.6 141.7C67.9807 141.7 69.1 140.581 69.1 139.2C69.1 137.819 67.9807 136.7 66.6 136.7C65.2193 136.7 64.1 137.819 64.1 139.2C64.1 140.581 65.2193 141.7 66.6 141.7Z" fill="black"/>
<path d="M75.6 141.7C76.9807 141.7 78.1 140.581 78.1 139.2C78.1 137.819 76.9807 136.7 75.6 136.7C74.2193 136.7 73.1 137.819 73.1 139.2C73.1 140.581 74.2193 141.7 75.6 141.7Z" fill="black"/>
<path d="M102.8 141.7C104.181 141.7 105.3 140.581 105.3 139.2C105.3 137.819 104.181 136.7 102.8 136.7C101.419 136.7 100.3 137.819 100.3 139.2C100.3 140.581 101.419 141.7 102.8 141.7Z" fill="black"/>
<path d="M111.9 141.7C113.281 141.7 114.4 140.581 114.4 139.2C114.4 137.819 113.281 136.7 111.9 136.7C110.519 136.7 109.4 137.819 109.4 139.2C109.4 140.581 110.519 141.7 111.9 141.7Z" fill="black"/>
<path d="M121 141.7C122.381 141.7 123.5 140.581 123.5 139.2C123.5 137.819 122.381 136.7 121 136.7C119.619 136.7 118.5 137.819 118.5 139.2C118.5 140.581 119.619 141.7 121 141.7Z" fill="black"/>
<path d="M130 141.7C131.381 141.7 132.5 140.581 132.5 139.2C132.5 137.819 131.381 136.7 130 136.7C128.619 136.7 127.5 137.819 127.5 139.2C127.5 140.581 128.619 141.7 130 141.7Z" fill="black"/>
<path d="M139.1 141.7C140.481 141.7 141.6 140.581 141.6 139.2C141.6 137.819 140.481 136.7 139.1 136.7C137.719 136.7 136.6 137.819 136.6 139.2C136.6 140.581 137.719 141.7 139.1 141.7Z" fill="black"/>
<path d="M148.1 141.7C149.481 141.7 150.6 140.581 150.6 139.2C150.6 137.819 149.481 136.7 148.1 136.7C146.719 136.7 145.6 137.819 145.6 139.2C145.6 140.581 146.719 141.7 148.1 141.7Z" fill="black"/>
<path d="M157.2 141.7C158.581 141.7 159.7 140.581 159.7 139.2C159.7 137.819 158.581 136.7 157.2 136.7C155.819 136.7 154.7 137.819 154.7 139.2C154.7 140.581 155.819 141.7 157.2 141.7Z" fill="black"/>
<path d="M166.3 141.7C167.681 141.7 168.8 140.581 168.8 139.2C168.8 137.819 167.681 136.7 166.3 136.7C164.919 136.7 163.8 137.819 163.8 139.2C163.8 140.581 164.919 141.7 166.3 141.7Z" fill="black"/>
<path d="M39.4 150.7C40.7807 150.7 41.9 149.581 41.9 148.2C41.9 146.819 40.7807 145.7 39.4 145.7C38.0193 145.7 36.9 146.819 36.9 148.2C36.9 149.581 38.0193 150.7 39.4 150.7Z" fill="black"/>
<path d="M48.5 150.7C49.8807 150.7 51 149.581 51 148.2C51 146.819 49.8807 145.7 48.5 145.7C47.1193 145.7 46 146.819 46 148.2C46 149.581 47.1193 150.7 48.5 150.7Z" fill="black"/>
<path d="M57.5 150.7C58.8807 150.7 60 149.581 60 148.2C60 146.819 58.8807 145.7 57.5 145.7C56.1193 145.7 55 146.819 55 148.2C55 149.581 56.1193 150.7 57.5 150.7Z" fill="black"/>
<path d="M66.6 150.7C67.9807 150.7 69.1 149.581 69.1 148.2C69.1 146.819 67.9807 145.7 66.6 145.7C65.2193 145.7 64.1 146.819 64.1 148.2C64.1 149.581 65.2193 150.7 66.6 150.7Z" fill="black"/>
<path d="M75.6 150.7C76.9807 150.7 78.1 149.581 78.1 148.2C78.1 146.819 76.9807 145.7 75.6 145.7C74.2193 145.7 73.1 146.819 73.1 148.2C73.1 149.581 74.2193 150.7 75.6 150.7Z" fill="black"/>
<path d="M84.7 150.7C86.0807 150.7 87.2 149.581 87.2 148.2C87.2 146.819 86.0807 145.7 84.7 145.7C83.3192 145.7 82.2 146.819 82.2 148.2C82.2 149.581 83.3192 150.7 84.7 150.7Z" fill="black"/>
<path d="M102.8 150.7C104.181 150.7 105.3 149.581 105.3 148.2C105.3 146.819 104.181 145.7 102.8 145.7C101.419 145.7 100.3 146.819 100.3 148.2C100.3 149.581 101.419 150.7 102.8 150.7Z" fill="black"/>
<path d="M111.9 150.7C113.281 150.7 114.4 149.581 114.4 148.2C114.4 146.819 113.281 145.7 111.9 145.7C110.519 145.7 109.4 146.819 109.4 148.2C109.4 149.581 110.519 150.7 111.9 150.7Z" fill="black"/>
<path d="M121 150.7C122.381 150.7 123.5 149.581 123.5 148.2C123.5 146.819 122.381 145.7 121 145.7C119.619 145.7 118.5 146.819 118.5 148.2C118.5 149.581 119.619 150.7 121 150.7Z" fill="black"/>
<path d="M139.1 150.7C140.481 150.7 141.6 149.581 141.6 148.2C141.6 146.819 140.481 145.7 139.1 145.7C137.719 145.7 136.6 146.819 136.6 148.2C136.6 149.581 137.719 150.7 139.1 150.7Z" fill="black"/>
<path d="M148.1 150.7C149.481 150.7 150.6 149.581 150.6 148.2C150.6 146.819 149.481 145.7 148.1 145.7C146.719 145.7 145.6 146.819 145.6 148.2C145.6 149.581 146.719 150.7 148.1 150.7Z" fill="black"/>
<path d="M157.2 150.7C158.581 150.7 159.7 149.581 159.7 148.2C159.7 146.819 158.581 145.7 157.2 145.7C155.819 145.7 154.7 146.819 154.7 148.2C154.7 149.581 155.819 150.7 157.2 150.7Z" fill="black"/>
<path d="M166.3 150.7C167.681 150.7 168.8 149.581 168.8 148.2C168.8 146.819 167.681 145.7 166.3 145.7C164.919 145.7 163.8 146.819 163.8 148.2C163.8 149.581 164.919 150.7 166.3 150.7Z" fill="black"/>
<path d="M39.4 159.8C40.7807 159.8 41.9 158.681 41.9 157.3C41.9 155.919 40.7807 154.8 39.4 154.8C38.0193 154.8 36.9 155.919 36.9 157.3C36.9 158.681 38.0193 159.8 39.4 159.8Z" fill="black"/>
<path d="M48.5 159.8C49.8807 159.8 51 158.681 51 157.3C51 155.919 49.8807 154.8 48.5 154.8C47.1193 154.8 46 155.919 46 157.3C46 158.681 47.1193 159.8 48.5 159.8Z" fill="black"/>
<path d="M57.5 159.8C58.8807 159.8 60 158.681 60 157.3C60 155.919 58.8807 154.8 57.5 154.8C56.1193 154.8 55 155.919 55 157.3C55 158.681 56.1193 159.8 57.5 159.8Z" fill="black"/>
<path d="M66.6 159.8C67.9807 159.8 69.1 158.681 69.1 157.3C69.1 155.919 67.9807 154.8 66.6 154.8C65.2193 154.8 64.1 155.919 64.1 157.3C64.1 158.681 65.2193 159.8 66.6 159.8Z" fill="black"/>
<path d="M75.6 159.8C76.9807 159.8 78.1 158.681 78.1 157.3C78.1 155.919 76.9807 154.8 75.6 154.8C74.2193 154.8 73.1 155.919 73.1 157.3C73.1 158.681 74.2193 159.8 75.6 159.8Z" fill="black"/>
<path d="M84.7 159.8C86.0807 159.8 87.2 158.681 87.2 157.3C87.2 155.919 86.0807 154.8 84.7 154.8C83.3192 154.8 82.2 155.919 82.2 157.3C82.2 158.681 83.3192 159.8 84.7 159.8Z" fill="black"/>
<path d="M93.8 159.8C95.1808 159.8 96.3 158.681 96.3 157.3C96.3 155.919 95.1808 154.8 93.8 154.8C92.4193 154.8 91.3 155.919 91.3 157.3C91.3 158.681 92.4193 159.8 93.8 159.8Z" fill="black"/>
<path d="M130 159.8C131.381 159.8 132.5 158.681 132.5 157.3C132.5 155.919 131.381 154.8 130 154.8C128.619 154.8 127.5 155.919 127.5 157.3C127.5 158.681 128.619 159.8 130 159.8Z" fill="black"/>
<path d="M139.1 159.8C140.481 159.8 141.6 158.681 141.6 157.3C141.6 155.919 140.481 154.8 139.1 154.8C137.719 154.8 136.6 155.919 136.6 157.3C136.6 158.681 137.719 159.8 139.1 159.8Z" fill="black"/>
<path d="M148.1 159.8C149.481 159.8 150.6 158.681 150.6 157.3C150.6 155.919 149.481 154.8 148.1 154.8C146.719 154.8 145.6 155.919 145.6 157.3C145.6 158.681 146.719 159.8 148.1 159.8Z" fill="black"/>
<path d="M157.2 159.8C158.581 159.8 159.7 158.681 159.7 157.3C159.7 155.919 158.581 154.8 157.2 154.8C155.819 154.8 154.7 155.919 154.7 157.3C154.7 158.681 155.819 159.8 157.2 159.8Z" fill="black"/>
<path d="M166.3 159.8C167.681 159.8 168.8 158.681 168.8 157.3C168.8 155.919 167.681 154.8 166.3 154.8C164.919 154.8 163.8 155.919 163.8 157.3C163.8 158.681 164.919 159.8 166.3 159.8Z" fill="black"/>
<path d="M175.3 159.8C176.681 159.8 177.8 158.681 177.8 157.3C177.8 155.919 176.681 154.8 175.3 154.8C173.919 154.8 172.8 155.919 172.8 157.3C172.8 158.681 173.919 159.8 175.3 159.8Z" fill="black"/>
<path d="M12.2 168.8C13.5807 168.8 14.7 167.681 14.7 166.3C14.7 164.919 13.5807 163.8 12.2 163.8C10.8192 163.8 9.69995 164.919 9.69995 166.3C9.69995 167.681 10.8192 168.8 12.2 168.8Z" fill="black"/>
<path d="M21.3 168.8C22.6808 168.8 23.8 167.681 23.8 166.3C23.8 164.919 22.6808 163.8 21.3 163.8C19.9193 163.8 18.8 164.919 18.8 166.3C18.8 167.681 19.9193 168.8 21.3 168.8Z" fill="black"/>
<path d="M30.3 168.8C31.6808 168.8 32.8 167.681 32.8 166.3C32.8 164.919 31.6808 163.8 30.3 163.8C28.9193 163.8 27.8 164.919 27.8 166.3C27.8 167.681 28.9193 168.8 30.3 168.8Z" fill="black"/>
<path d="M39.4 168.8C40.7807 168.8 41.9 167.681 41.9 166.3C41.9 164.919 40.7807 163.8 39.4 163.8C38.0193 163.8 36.9 164.919 36.9 166.3C36.9 167.681 38.0193 168.8 39.4 168.8Z" fill="black"/>
<path d="M48.5 168.8C49.8807 168.8 51 167.681 51 166.3C51 164.919 49.8807 163.8 48.5 163.8C47.1193 163.8 46 164.919 46 166.3C46 167.681 47.1193 168.8 48.5 168.8Z" fill="black"/>
<path d="M57.5 168.8C58.8807 168.8 60 167.681 60 166.3C60 164.919 58.8807 163.8 57.5 163.8C56.1193 163.8 55 164.919 55 166.3C55 167.681 56.1193 168.8 57.5 168.8Z" fill="black"/>
<path d="M66.6 168.8C67.9807 168.8 69.1 167.681 69.1 166.3C69.1 164.919 67.9807 163.8 66.6 163.8C65.2193 163.8 64.1 164.919 64.1 166.3C64.1 167.681 65.2193 168.8 66.6 168.8Z" fill="black"/>
<path d="M75.6 168.8C76.9807 168.8 78.1 167.681 78.1 166.3C78.1 164.919 76.9807 163.8 75.6 163.8C74.2193 163.8 73.1 164.919 73.1 166.3C73.1 167.681 74.2193 168.8 75.6 168.8Z" fill="black"/>
<path d="M84.7 168.8C86.0807 168.8 87.2 167.681 87.2 166.3C87.2 164.919 86.0807 163.8 84.7 163.8C83.3192 163.8 82.2 164.919 82.2 166.3C82.2 167.681 83.3192 168.8 84.7 168.8Z" fill="black"/>
<path d="M111.9 168.8C113.281 168.8 114.4 167.681 114.4 166.3C114.4 164.919 113.281 163.8 111.9 163.8C110.519 163.8 109.4 164.919 109.4 166.3C109.4 167.681 110.519 168.8 111.9 168.8Z" fill="black"/>
<path d="M139.1 168.8C140.481 168.8 141.6 167.681 141.6 166.3C141.6 164.919 140.481 163.8 139.1 163.8C137.719 163.8 136.6 164.919 136.6 166.3C136.6 167.681 137.719 168.8 139.1 168.8Z" fill="black"/>
<path d="M148.1 168.8C149.481 168.8 150.6 167.681 150.6 166.3C150.6 164.919 149.481 163.8 148.1 163.8C146.719 163.8 145.6 164.919 145.6 166.3C145.6 167.681 146.719 168.8 148.1 168.8Z" fill="black"/>
<path d="M157.2 168.8C158.581 168.8 159.7 167.681 159.7 166.3C159.7 164.919 158.581 163.8 157.2 163.8C155.819 163.8 154.7 164.919 154.7 166.3C154.7 167.681 155.819 168.8 157.2 168.8Z" fill="black"/>
<path d="M166.3 168.8C167.681 168.8 168.8 167.681 168.8 166.3C168.8 164.919 167.681 163.8 166.3 163.8C164.919 163.8 163.8 164.919 163.8 166.3C163.8 167.681 164.919 168.8 166.3 168.8Z" fill="black"/>
<path d="M175.3 168.8C176.681 168.8 177.8 167.681 177.8 166.3C177.8 164.919 176.681 163.8 175.3 163.8C173.919 163.8 172.8 164.919 172.8 166.3C172.8 167.681 173.919 168.8 175.3 168.8Z" fill="black"/>
<path d="M184.4 168.8C185.781 168.8 186.9 167.681 186.9 166.3C186.9 164.919 185.781 163.8 184.4 163.8C183.019 163.8 181.9 164.919 181.9 166.3C181.9 167.681 183.019 168.8 184.4 168.8Z" fill="black"/>
<path d="M12.2 177.9C13.5807 177.9 14.7 176.781 14.7 175.4C14.7 174.019 13.5807 172.9 12.2 172.9C10.8192 172.9 9.69995 174.019 9.69995 175.4C9.69995 176.781 10.8192 177.9 12.2 177.9Z" fill="black"/>
<path d="M21.3 177.9C22.6808 177.9 23.8 176.781 23.8 175.4C23.8 174.019 22.6808 172.9 21.3 172.9C19.9193 172.9 18.8 174.019 18.8 175.4C18.8 176.781 19.9193 177.9 21.3 177.9Z" fill="black"/>
<path d="M30.3 177.9C31.6808 177.9 32.8 176.781 32.8 175.4C32.8 174.019 31.6808 172.9 30.3 172.9C28.9193 172.9 27.8 174.019 27.8 175.4C27.8 176.781 28.9193 177.9 30.3 177.9Z" fill="black"/>
<path d="M39.4 177.9C40.7807 177.9 41.9 176.781 41.9 175.4C41.9 174.019 40.7807 172.9 39.4 172.9C38.0193 172.9 36.9 174.019 36.9 175.4C36.9 176.781 38.0193 177.9 39.4 177.9Z" fill="black"/>
<path d="M48.5 177.9C49.8807 177.9 51 176.781 51 175.4C51 174.019 49.8807 172.9 48.5 172.9C47.1193 172.9 46 174.019 46 175.4C46 176.781 47.1193 177.9 48.5 177.9Z" fill="black"/>
<path d="M57.5 177.9C58.8807 177.9 60 176.781 60 175.4C60 174.019 58.8807 172.9 57.5 172.9C56.1193 172.9 55 174.019 55 175.4C55 176.781 56.1193 177.9 57.5 177.9Z" fill="black"/>
<path d="M66.6 177.9C67.9807 177.9 69.1 176.781 69.1 175.4C69.1 174.019 67.9807 172.9 66.6 172.9C65.2193 172.9 64.1 174.019 64.1 175.4C64.1 176.781 65.2193 177.9 66.6 177.9Z" fill="black"/>
<path d="M75.6 177.9C76.9807 177.9 78.1 176.781 78.1 175.4C78.1 174.019 76.9807 172.9 75.6 172.9C74.2193 172.9 73.1 174.019 73.1 175.4C73.1 176.781 74.2193 177.9 75.6 177.9Z" fill="black"/>
<path d="M148.1 177.9C149.481 177.9 150.6 176.781 150.6 175.4C150.6 174.019 149.481 172.9 148.1 172.9C146.719 172.9 145.6 174.019 145.6 175.4C145.6 176.781 146.719 177.9 148.1 177.9Z" fill="black"/>
<path d="M157.2 177.9C158.581 177.9 159.7 176.781 159.7 175.4C159.7 174.019 158.581 172.9 157.2 172.9C155.819 172.9 154.7 174.019 154.7 175.4C154.7 176.781 155.819 177.9 157.2 177.9Z" fill="black"/>
<path d="M166.3 177.9C167.681 177.9 168.8 176.781 168.8 175.4C168.8 174.019 167.681 172.9 166.3 172.9C164.919 172.9 163.8 174.019 163.8 175.4C163.8 176.781 164.919 177.9 166.3 177.9Z" fill="black"/>
<path d="M175.3 177.9C176.681 177.9 177.8 176.781 177.8 175.4C177.8 174.019 176.681 172.9 175.3 172.9C173.919 172.9 172.8 174.019 172.8 175.4C172.8 176.781 173.919 177.9 175.3 177.9Z" fill="black"/>
<path d="M184.4 177.9C185.781 177.9 186.9 176.781 186.9 175.4C186.9 174.019 185.781 172.9 184.4 172.9C183.019 172.9 181.9 174.019 181.9 175.4C181.9 176.781 183.019 177.9 184.4 177.9Z" fill="black"/>
<path d="M12.2 187C13.5807 187 14.7 185.881 14.7 184.5C14.7 183.119 13.5807 182 12.2 182C10.8192 182 9.69995 183.119 9.69995 184.5C9.69995 185.881 10.8192 187 12.2 187Z" fill="black"/>
<path d="M21.3 187C22.6808 187 23.8 185.881 23.8 184.5C23.8 183.119 22.6808 182 21.3 182C19.9193 182 18.8 183.119 18.8 184.5C18.8 185.881 19.9193 187 21.3 187Z" fill="black"/>
<path d="M30.3 187C31.6808 187 32.8 185.881 32.8 184.5C32.8 183.119 31.6808 182 30.3 182C28.9193 182 27.8 183.119 27.8 184.5C27.8 185.881 28.9193 187 30.3 187Z" fill="black"/>
<path d="M39.4 187C40.7807 187 41.9 185.881 41.9 184.5C41.9 183.119 40.7807 182 39.4 182C38.0193 182 36.9 183.119 36.9 184.5C36.9 185.881 38.0193 187 39.4 187Z" fill="black"/>
<path d="M48.5 187C49.8807 187 51 185.881 51 184.5C51 183.119 49.8807 182 48.5 182C47.1193 182 46 183.119 46 184.5C46 185.881 47.1193 187 48.5 187Z" fill="black"/>
<path d="M57.5 187C58.8807 187 60 185.881 60 184.5C60 183.119 58.8807 182 57.5 182C56.1193 182 55 183.119 55 184.5C55 185.881 56.1193 187 57.5 187Z" fill="black"/>
<path d="M66.6 187C67.9807 187 69.1 185.881 69.1 184.5C69.1 183.119 67.9807 182 66.6 182C65.2193 182 64.1 183.119 64.1 184.5C64.1 185.881 65.2193 187 66.6 187Z" fill="black"/>
<path d="M75.6 187C76.9807 187 78.1 185.881 78.1 184.5C78.1 183.119 76.9807 182 75.6 182C74.2193 182 73.1 183.119 73.1 184.5C73.1 185.881 74.2193 187 75.6 187Z" fill="black"/>
<path d="M148.1 187C149.481 187 150.6 185.881 150.6 184.5C150.6 183.119 149.481 182 148.1 182C146.719 182 145.6 183.119 145.6 184.5C145.6 185.881 146.719 187 148.1 187Z" fill="black"/>
<path d="M157.2 187C158.581 187 159.7 185.881 159.7 184.5C159.7 183.119 158.581 182 157.2 182C155.819 182 154.7 183.119 154.7 184.5C154.7 185.881 155.819 187 157.2 187Z" fill="black"/>
<path d="M166.3 187C167.681 187 168.8 185.881 168.8 184.5C168.8 183.119 167.681 182 166.3 182C164.919 182 163.8 183.119 163.8 184.5C163.8 185.881 164.919 187 166.3 187Z" fill="black"/>
<path d="M175.3 187C176.681 187 177.8 185.881 177.8 184.5C177.8 183.119 176.681 182 175.3 182C173.919 182 172.8 183.119 172.8 184.5C172.8 185.881 173.919 187 175.3 187Z" fill="black"/>
<path d="M184.4 187C185.781 187 186.9 185.881 186.9 184.5C186.9 183.119 185.781 182 184.4 182C183.019 182 181.9 183.119 181.9 184.5C181.9 185.881 183.019 187 184.4 187Z" fill="black"/>
<path d="M193.5 187C194.881 187 196 185.881 196 184.5C196 183.119 194.881 182 193.5 182C192.119 182 191 183.119 191 184.5C191 185.881 192.119 187 193.5 187Z" fill="black"/>
<path d="M12.2 196C13.5807 196 14.7 194.881 14.7 193.5C14.7 192.119 13.5807 191 12.2 191C10.8192 191 9.69995 192.119 9.69995 193.5C9.69995 194.881 10.8192 196 12.2 196Z" fill="black"/>
<path d="M21.3 196C22.6808 196 23.8 194.881 23.8 193.5C23.8 192.119 22.6808 191 21.3 191C19.9193 191 18.8 192.119 18.8 193.5C18.8 194.881 19.9193 196 21.3 196Z" fill="black"/>
<path d="M30.3 196C31.6808 196 32.8 194.881 32.8 193.5C32.8 192.119 31.6808 191 30.3 191C28.9193 191 27.8 192.119 27.8 193.5C27.8 194.881 28.9193 196 30.3 196Z" fill="black"/>
<path d="M39.4 196C40.7807 196 41.9 194.881 41.9 193.5C41.9 192.119 40.7807 191 39.4 191C38.0193 191 36.9 192.119 36.9 193.5C36.9 194.881 38.0193 196 39.4 196Z" fill="black"/>
<path d="M48.5 196C49.8807 196 51 194.881 51 193.5C51 192.119 49.8807 191 48.5 191C47.1193 191 46 192.119 46 193.5C46 194.881 47.1193 196 48.5 196Z" fill="black"/>
<path d="M57.5 196C58.8807 196 60 194.881 60 193.5C60 192.119 58.8807 191 57.5 191C56.1193 191 55 192.119 55 193.5C55 194.881 56.1193 196 57.5 196Z" fill="black"/>
<path d="M66.6 196C67.9807 196 69.1 194.881 69.1 193.5C69.1 192.119 67.9807 191 66.6 191C65.2193 191 64.1 192.119 64.1 193.5C64.1 194.881 65.2193 196 66.6 196Z" fill="black"/>
<path d="M75.6 196C76.9807 196 78.1 194.881 78.1 193.5C78.1 192.119 76.9807 191 75.6 191C74.2193 191 73.1 192.119 73.1 193.5C73.1 194.881 74.2193 196 75.6 196Z" fill="black"/>
<path d="M111.9 196C113.281 196 114.4 194.881 114.4 193.5C114.4 192.119 113.281 191 111.9 191C110.519 191 109.4 192.119 109.4 193.5C109.4 194.881 110.519 196 111.9 196Z" fill="black"/>
<path d="M139.1 196C140.481 196 141.6 194.881 141.6 193.5C141.6 192.119 140.481 191 139.1 191C137.719 191 136.6 192.119 136.6 193.5C136.6 194.881 137.719 196 139.1 196Z" fill="black"/>
<path d="M148.1 196C149.481 196 150.6 194.881 150.6 193.5C150.6 192.119 149.481 191 148.1 191C146.719 191 145.6 192.119 145.6 193.5C145.6 194.881 146.719 196 148.1 196Z" fill="black"/>
<path d="M157.2 196C158.581 196 159.7 194.881 159.7 193.5C159.7 192.119 158.581 191 157.2 191C155.819 191 154.7 192.119 154.7 193.5C154.7 194.881 155.819 196 157.2 196Z" fill="black"/>
<path d="M166.3 196C167.681 196 168.8 194.881 168.8 193.5C168.8 192.119 167.681 191 166.3 191C164.919 191 163.8 192.119 163.8 193.5C163.8 194.881 164.919 196 166.3 196Z" fill="black"/>
<path d="M175.3 196C176.681 196 177.8 194.881 177.8 193.5C177.8 192.119 176.681 191 175.3 191C173.919 191 172.8 192.119 172.8 193.5C172.8 194.881 173.919 196 175.3 196Z" fill="black"/>
<path d="M184.4 196C185.781 196 186.9 194.881 186.9 193.5C186.9 192.119 185.781 191 184.4 191C183.019 191 181.9 192.119 181.9 193.5C181.9 194.881 183.019 196 184.4 196Z" fill="black"/>
<path d="M193.5 196C194.881 196 196 194.881 196 193.5C196 192.119 194.881 191 193.5 191C192.119 191 191 192.119 191 193.5C191 194.881 192.119 196 193.5 196Z" fill="black"/>
<path d="M30.3 205.1C31.6808 205.1 32.8 203.981 32.8 202.6C32.8 201.219 31.6808 200.1 30.3 200.1C28.9193 200.1 27.8 201.219 27.8 202.6C27.8 203.981 28.9193 205.1 30.3 205.1Z" fill="black"/>
<path d="M39.4 205.1C40.7807 205.1 41.9 203.981 41.9 202.6C41.9 201.219 40.7807 200.1 39.4 200.1C38.0193 200.1 36.9 201.219 36.9 202.6C36.9 203.981 38.0193 205.1 39.4 205.1Z" fill="black"/>
<path d="M48.5 205.1C49.8807 205.1 51 203.981 51 202.6C51 201.219 49.8807 200.1 48.5 200.1C47.1193 200.1 46 201.219 46 202.6C46 203.981 47.1193 205.1 48.5 205.1Z" fill="black"/>
<path d="M57.5 205.1C58.8807 205.1 60 203.981 60 202.6C60 201.219 58.8807 200.1 57.5 200.1C56.1193 200.1 55 201.219 55 202.6C55 203.981 56.1193 205.1 57.5 205.1Z" fill="black"/>
<path d="M66.6 205.1C67.9807 205.1 69.1 203.981 69.1 202.6C69.1 201.219 67.9807 200.1 66.6 200.1C65.2193 200.1 64.1 201.219 64.1 202.6C64.1 203.981 65.2193 205.1 66.6 205.1Z" fill="black"/>
<path d="M75.6 205.1C76.9807 205.1 78.1 203.981 78.1 202.6C78.1 201.219 76.9807 200.1 75.6 200.1C74.2193 200.1 73.1 201.219 73.1 202.6C73.1 203.981 74.2193 205.1 75.6 205.1Z" fill="black"/>
<path d="M121 205.1C122.381 205.1 123.5 203.981 123.5 202.6C123.5 201.219 122.381 200.1 121 200.1C119.619 200.1 118.5 201.219 118.5 202.6C118.5 203.981 119.619 205.1 121 205.1Z" fill="black"/>
<path d="M130 205.1C131.381 205.1 132.5 203.981 132.5 202.6C132.5 201.219 131.381 200.1 130 200.1C128.619 200.1 127.5 201.219 127.5 202.6C127.5 203.981 128.619 205.1 130 205.1Z" fill="black"/>
<path d="M139.1 205.1C140.481 205.1 141.6 203.981 141.6 202.6C141.6 201.219 140.481 200.1 139.1 200.1C137.719 200.1 136.6 201.219 136.6 202.6C136.6 203.981 137.719 205.1 139.1 205.1Z" fill="black"/>
<path d="M148.1 205.1C149.481 205.1 150.6 203.981 150.6 202.6C150.6 201.219 149.481 200.1 148.1 200.1C146.719 200.1 145.6 201.219 145.6 202.6C145.6 203.981 146.719 205.1 148.1 205.1Z" fill="black"/>
<path d="M157.2 205.1C158.581 205.1 159.7 203.981 159.7 202.6C159.7 201.219 158.581 200.1 157.2 200.1C155.819 200.1 154.7 201.219 154.7 202.6C154.7 203.981 155.819 205.1 157.2 205.1Z" fill="black"/>
<path d="M166.3 205.1C167.681 205.1 168.8 203.981 168.8 202.6C168.8 201.219 167.681 200.1 166.3 200.1C164.919 200.1 163.8 201.219 163.8 202.6C163.8 203.981 164.919 205.1 166.3 205.1Z" fill="black"/>
<path d="M175.3 205.1C176.681 205.1 177.8 203.981 177.8 202.6C177.8 201.219 176.681 200.1 175.3 200.1C173.919 200.1 172.8 201.219 172.8 202.6C172.8 203.981 173.919 205.1 175.3 205.1Z" fill="black"/>
<path d="M184.4 205.1C185.781 205.1 186.9 203.981 186.9 202.6C186.9 201.219 185.781 200.1 184.4 200.1C183.019 200.1 181.9 201.219 181.9 202.6C181.9 203.981 183.019 205.1 184.4 205.1Z" fill="black"/>
<path d="M193.5 205.1C194.881 205.1 196 203.981 196 202.6C196 201.219 194.881 200.1 193.5 200.1C192.119 200.1 191 201.219 191 202.6C191 203.981 192.119 205.1 193.5 205.1Z" fill="black"/>
<path d="M21.3 214.2C22.6808 214.2 23.8 213.081 23.8 211.7C23.8 210.319 22.6808 209.2 21.3 209.2C19.9193 209.2 18.8 210.319 18.8 211.7C18.8 213.081 19.9193 214.2 21.3 214.2Z" fill="black"/>
<path d="M30.3 214.2C31.6808 214.2 32.8 213.081 32.8 211.7C32.8 210.319 31.6808 209.2 30.3 209.2C28.9193 209.2 27.8 210.319 27.8 211.7C27.8 213.081 28.9193 214.2 30.3 214.2Z" fill="black"/>
<path d="M39.4 214.2C40.7807 214.2 41.9 213.081 41.9 211.7C41.9 210.319 40.7807 209.2 39.4 209.2C38.0193 209.2 36.9 210.319 36.9 211.7C36.9 213.081 38.0193 214.2 39.4 214.2Z" fill="black"/>
<path d="M48.5 214.2C49.8807 214.2 51 213.081 51 211.7C51 210.319 49.8807 209.2 48.5 209.2C47.1193 209.2 46 210.319 46 211.7C46 213.081 47.1193 214.2 48.5 214.2Z" fill="black"/>
<path d="M57.5 214.2C58.8807 214.2 60 213.081 60 211.7C60 210.319 58.8807 209.2 57.5 209.2C56.1193 209.2 55 210.319 55 211.7C55 213.081 56.1193 214.2 57.5 214.2Z" fill="black"/>
<path d="M66.6 214.2C67.9807 214.2 69.1 213.081 69.1 211.7C69.1 210.319 67.9807 209.2 66.6 209.2C65.2193 209.2 64.1 210.319 64.1 211.7C64.1 213.081 65.2193 214.2 66.6 214.2Z" fill="black"/>
<path d="M75.6 214.2C76.9807 214.2 78.1 213.081 78.1 211.7C78.1 210.319 76.9807 209.2 75.6 209.2C74.2193 209.2 73.1 210.319 73.1 211.7C73.1 213.081 74.2193 214.2 75.6 214.2Z" fill="black"/>
<path d="M111.9 214.2C113.281 214.2 114.4 213.081 114.4 211.7C114.4 210.319 113.281 209.2 111.9 209.2C110.519 209.2 109.4 210.319 109.4 211.7C109.4 213.081 110.519 214.2 111.9 214.2Z" fill="black"/>
<path d="M121 214.2C122.381 214.2 123.5 213.081 123.5 211.7C123.5 210.319 122.381 209.2 121 209.2C119.619 209.2 118.5 210.319 118.5 211.7C118.5 213.081 119.619 214.2 121 214.2Z" fill="black"/>
<path d="M130 214.2C131.381 214.2 132.5 213.081 132.5 211.7C132.5 210.319 131.381 209.2 130 209.2C128.619 209.2 127.5 210.319 127.5 211.7C127.5 213.081 128.619 214.2 130 214.2Z" fill="black"/>
<path d="M139.1 214.2C140.481 214.2 141.6 213.081 141.6 211.7C141.6 210.319 140.481 209.2 139.1 209.2C137.719 209.2 136.6 210.319 136.6 211.7C136.6 213.081 137.719 214.2 139.1 214.2Z" fill="black"/>
<path d="M148.1 214.2C149.481 214.2 150.6 213.081 150.6 211.7C150.6 210.319 149.481 209.2 148.1 209.2C146.719 209.2 145.6 210.319 145.6 211.7C145.6 213.081 146.719 214.2 148.1 214.2Z" fill="black"/>
<path d="M157.2 214.2C158.581 214.2 159.7 213.081 159.7 211.7C159.7 210.319 158.581 209.2 157.2 209.2C155.819 209.2 154.7 210.319 154.7 211.7C154.7 213.081 155.819 214.2 157.2 214.2Z" fill="black"/>
<path d="M166.3 214.2C167.681 214.2 168.8 213.081 168.8 211.7C168.8 210.319 167.681 209.2 166.3 209.2C164.919 209.2 163.8 210.319 163.8 211.7C163.8 213.081 164.919 214.2 166.3 214.2Z" fill="black"/>
<path d="M175.3 214.2C176.681 214.2 177.8 213.081 177.8 211.7C177.8 210.319 176.681 209.2 175.3 209.2C173.919 209.2 172.8 210.319 172.8 211.7C172.8 213.081 173.919 214.2 175.3 214.2Z" fill="black"/>
<path d="M184.4 214.2C185.781 214.2 186.9 213.081 186.9 211.7C186.9 210.319 185.781 209.2 184.4 209.2C183.019 209.2 181.9 210.319 181.9 211.7C181.9 213.081 183.019 214.2 184.4 214.2Z" fill="black"/>
<path d="M193.5 214.2C194.881 214.2 196 213.081 196 211.7C196 210.319 194.881 209.2 193.5 209.2C192.119 209.2 191 210.319 191 211.7C191 213.081 192.119 214.2 193.5 214.2Z" fill="black"/>
<path d="M202.5 214.2C203.881 214.2 205 213.081 205 211.7C205 210.319 203.881 209.2 202.5 209.2C201.119 209.2 200 210.319 200 211.7C200 213.081 201.119 214.2 202.5 214.2Z" fill="black"/>
<path d="M211.6 214.2C212.981 214.2 214.1 213.081 214.1 211.7C214.1 210.319 212.981 209.2 211.6 209.2C210.219 209.2 209.1 210.319 209.1 211.7C209.1 213.081 210.219 214.2 211.6 214.2Z" fill="black"/>
<path d="M220.6 214.2C221.981 214.2 223.1 213.081 223.1 211.7C223.1 210.319 221.981 209.2 220.6 209.2C219.219 209.2 218.1 210.319 218.1 211.7C218.1 213.081 219.219 214.2 220.6 214.2Z" fill="black"/>
<path d="M21.3 223.2C22.6808 223.2 23.8 222.081 23.8 220.7C23.8 219.319 22.6808 218.2 21.3 218.2C19.9193 218.2 18.8 219.319 18.8 220.7C18.8 222.081 19.9193 223.2 21.3 223.2Z" fill="black"/>
<path d="M30.3 223.2C31.6808 223.2 32.8 222.081 32.8 220.7C32.8 219.319 31.6808 218.2 30.3 218.2C28.9193 218.2 27.8 219.319 27.8 220.7C27.8 222.081 28.9193 223.2 30.3 223.2Z" fill="black"/>
<path d="M39.4 223.2C40.7807 223.2 41.9 222.081 41.9 220.7C41.9 219.319 40.7807 218.2 39.4 218.2C38.0193 218.2 36.9 219.319 36.9 220.7C36.9 222.081 38.0193 223.2 39.4 223.2Z" fill="black"/>
<path d="M48.5 223.2C49.8807 223.2 51 222.081 51 220.7C51 219.319 49.8807 218.2 48.5 218.2C47.1193 218.2 46 219.319 46 220.7C46 222.081 47.1193 223.2 48.5 223.2Z" fill="black"/>
<path d="M57.5 223.2C58.8807 223.2 60 222.081 60 220.7C60 219.319 58.8807 218.2 57.5 218.2C56.1193 218.2 55 219.319 55 220.7C55 222.081 56.1193 223.2 57.5 223.2Z" fill="black"/>
<path d="M66.6 223.2C67.9807 223.2 69.1 222.081 69.1 220.7C69.1 219.319 67.9807 218.2 66.6 218.2C65.2193 218.2 64.1 219.319 64.1 220.7C64.1 222.081 65.2193 223.2 66.6 223.2Z" fill="black"/>
<path d="M75.6 223.2C76.9807 223.2 78.1 222.081 78.1 220.7C78.1 219.319 76.9807 218.2 75.6 218.2C74.2193 218.2 73.1 219.319 73.1 220.7C73.1 222.081 74.2193 223.2 75.6 223.2Z" fill="black"/>
<path d="M121 223.2C122.381 223.2 123.5 222.081 123.5 220.7C123.5 219.319 122.381 218.2 121 218.2C119.619 218.2 118.5 219.319 118.5 220.7C118.5 222.081 119.619 223.2 121 223.2Z" fill="black"/>
<path d="M130 223.2C131.381 223.2 132.5 222.081 132.5 220.7C132.5 219.319 131.381 218.2 130 218.2C128.619 218.2 127.5 219.319 127.5 220.7C127.5 222.081 128.619 223.2 130 223.2Z" fill="black"/>
<path d="M139.1 223.2C140.481 223.2 141.6 222.081 141.6 220.7C141.6 219.319 140.481 218.2 139.1 218.2C137.719 218.2 136.6 219.319 136.6 220.7C136.6 222.081 137.719 223.2 139.1 223.2Z" fill="black"/>
<path d="M148.1 223.2C149.481 223.2 150.6 222.081 150.6 220.7C150.6 219.319 149.481 218.2 148.1 218.2C146.719 218.2 145.6 219.319 145.6 220.7C145.6 222.081 146.719 223.2 148.1 223.2Z" fill="black"/>
<path d="M157.2 223.2C158.581 223.2 159.7 222.081 159.7 220.7C159.7 219.319 158.581 218.2 157.2 218.2C155.819 218.2 154.7 219.319 154.7 220.7C154.7 222.081 155.819 223.2 157.2 223.2Z" fill="black"/>
<path d="M166.3 223.2C167.681 223.2 168.8 222.081 168.8 220.7C168.8 219.319 167.681 218.2 166.3 218.2C164.919 218.2 163.8 219.319 163.8 220.7C163.8 222.081 164.919 223.2 166.3 223.2Z" fill="black"/>
<path d="M175.3 223.2C176.681 223.2 177.8 222.081 177.8 220.7C177.8 219.319 176.681 218.2 175.3 218.2C173.919 218.2 172.8 219.319 172.8 220.7C172.8 222.081 173.919 223.2 175.3 223.2Z" fill="black"/>
<path d="M184.4 223.2C185.781 223.2 186.9 222.081 186.9 220.7C186.9 219.319 185.781 218.2 184.4 218.2C183.019 218.2 181.9 219.319 181.9 220.7C181.9 222.081 183.019 223.2 184.4 223.2Z" fill="black"/>
<path d="M193.5 223.2C194.881 223.2 196 222.081 196 220.7C196 219.319 194.881 218.2 193.5 218.2C192.119 218.2 191 219.319 191 220.7C191 222.081 192.119 223.2 193.5 223.2Z" fill="black"/>
<path d="M202.5 223.2C203.881 223.2 205 222.081 205 220.7C205 219.319 203.881 218.2 202.5 218.2C201.119 218.2 200 219.319 200 220.7C200 222.081 201.119 223.2 202.5 223.2Z" fill="black"/>
<path d="M211.6 223.2C212.981 223.2 214.1 222.081 214.1 220.7C214.1 219.319 212.981 218.2 211.6 218.2C210.219 218.2 209.1 219.319 209.1 220.7C209.1 222.081 210.219 223.2 211.6 223.2Z" fill="black"/>
<path d="M220.6 223.2C221.981 223.2 223.1 222.081 223.1 220.7C223.1 219.319 221.981 218.2 220.6 218.2C219.219 218.2 218.1 219.319 218.1 220.7C218.1 222.081 219.219 223.2 220.6 223.2Z" fill="black"/>
<path d="M3.09998 232.3C4.48069 232.3 5.59998 231.181 5.59998 229.8C5.59998 228.419 4.48069 227.3 3.09998 227.3C1.71926 227.3 0.599976 228.419 0.599976 229.8C0.599976 231.181 1.71926 232.3 3.09998 232.3Z" fill="black"/>
<path d="M12.2 232.3C13.5807 232.3 14.7 231.181 14.7 229.8C14.7 228.419 13.5807 227.3 12.2 227.3C10.8192 227.3 9.69995 228.419 9.69995 229.8C9.69995 231.181 10.8192 232.3 12.2 232.3Z" fill="black"/>
<path d="M21.3 232.3C22.6808 232.3 23.8 231.181 23.8 229.8C23.8 228.419 22.6808 227.3 21.3 227.3C19.9193 227.3 18.8 228.419 18.8 229.8C18.8 231.181 19.9193 232.3 21.3 232.3Z" fill="black"/>
<path d="M30.3 232.3C31.6808 232.3 32.8 231.181 32.8 229.8C32.8 228.419 31.6808 227.3 30.3 227.3C28.9193 227.3 27.8 228.419 27.8 229.8C27.8 231.181 28.9193 232.3 30.3 232.3Z" fill="black"/>
<path d="M39.4 232.3C40.7807 232.3 41.9 231.181 41.9 229.8C41.9 228.419 40.7807 227.3 39.4 227.3C38.0193 227.3 36.9 228.419 36.9 229.8C36.9 231.181 38.0193 232.3 39.4 232.3Z" fill="black"/>
<path d="M48.5 232.3C49.8807 232.3 51 231.181 51 229.8C51 228.419 49.8807 227.3 48.5 227.3C47.1193 227.3 46 228.419 46 229.8C46 231.181 47.1193 232.3 48.5 232.3Z" fill="black"/>
<path d="M57.5 232.3C58.8807 232.3 60 231.181 60 229.8C60 228.419 58.8807 227.3 57.5 227.3C56.1193 227.3 55 228.419 55 229.8C55 231.181 56.1193 232.3 57.5 232.3Z" fill="black"/>
<path d="M66.6 232.3C67.9807 232.3 69.1 231.181 69.1 229.8C69.1 228.419 67.9807 227.3 66.6 227.3C65.2193 227.3 64.1 228.419 64.1 229.8C64.1 231.181 65.2193 232.3 66.6 232.3Z" fill="black"/>
<path d="M75.6 232.3C76.9807 232.3 78.1 231.181 78.1 229.8C78.1 228.419 76.9807 227.3 75.6 227.3C74.2193 227.3 73.1 228.419 73.1 229.8C73.1 231.181 74.2193 232.3 75.6 232.3Z" fill="black"/>
<path d="M121 232.3C122.381 232.3 123.5 231.181 123.5 229.8C123.5 228.419 122.381 227.3 121 227.3C119.619 227.3 118.5 228.419 118.5 229.8C118.5 231.181 119.619 232.3 121 232.3Z" fill="black"/>
<path d="M130 232.3C131.381 232.3 132.5 231.181 132.5 229.8C132.5 228.419 131.381 227.3 130 227.3C128.619 227.3 127.5 228.419 127.5 229.8C127.5 231.181 128.619 232.3 130 232.3Z" fill="black"/>
<path d="M139.1 232.3C140.481 232.3 141.6 231.181 141.6 229.8C141.6 228.419 140.481 227.3 139.1 227.3C137.719 227.3 136.6 228.419 136.6 229.8C136.6 231.181 137.719 232.3 139.1 232.3Z" fill="black"/>
<path d="M148.1 232.3C149.481 232.3 150.6 231.181 150.6 229.8C150.6 228.419 149.481 227.3 148.1 227.3C146.719 227.3 145.6 228.419 145.6 229.8C145.6 231.181 146.719 232.3 148.1 232.3Z" fill="black"/>
<path d="M157.2 232.3C158.581 232.3 159.7 231.181 159.7 229.8C159.7 228.419 158.581 227.3 157.2 227.3C155.819 227.3 154.7 228.419 154.7 229.8C154.7 231.181 155.819 232.3 157.2 232.3Z" fill="black"/>
<path d="M166.3 232.3C167.681 232.3 168.8 231.181 168.8 229.8C168.8 228.419 167.681 227.3 166.3 227.3C164.919 227.3 163.8 228.419 163.8 229.8C163.8 231.181 164.919 232.3 166.3 232.3Z" fill="black"/>
<path d="M175.3 232.3C176.681 232.3 177.8 231.181 177.8 229.8C177.8 228.419 176.681 227.3 175.3 227.3C173.919 227.3 172.8 228.419 172.8 229.8C172.8 231.181 173.919 232.3 175.3 232.3Z" fill="black"/>
<path d="M184.4 232.3C185.781 232.3 186.9 231.181 186.9 229.8C186.9 228.419 185.781 227.3 184.4 227.3C183.019 227.3 181.9 228.419 181.9 229.8C181.9 231.181 183.019 232.3 184.4 232.3Z" fill="black"/>
<path d="M193.5 232.3C194.881 232.3 196 231.181 196 229.8C196 228.419 194.881 227.3 193.5 227.3C192.119 227.3 191 228.419 191 229.8C191 231.181 192.119 232.3 193.5 232.3Z" fill="black"/>
<path d="M202.5 232.3C203.881 232.3 205 231.181 205 229.8C205 228.419 203.881 227.3 202.5 227.3C201.119 227.3 200 228.419 200 229.8C200 231.181 201.119 232.3 202.5 232.3Z" fill="black"/>
<path d="M211.6 232.3C212.981 232.3 214.1 231.181 214.1 229.8C214.1 228.419 212.981 227.3 211.6 227.3C210.219 227.3 209.1 228.419 209.1 229.8C209.1 231.181 210.219 232.3 211.6 232.3Z" fill="black"/>
<path d="M220.6 232.3C221.981 232.3 223.1 231.181 223.1 229.8C223.1 228.419 221.981 227.3 220.6 227.3C219.219 227.3 218.1 228.419 218.1 229.8C218.1 231.181 219.219 232.3 220.6 232.3Z" fill="black"/>
<path d="M3.09998 241.4C4.48069 241.4 5.59998 240.281 5.59998 238.9C5.59998 237.519 4.48069 236.4 3.09998 236.4C1.71926 236.4 0.599976 237.519 0.599976 238.9C0.599976 240.281 1.71926 241.4 3.09998 241.4Z" fill="black"/>
<path d="M12.2 241.4C13.5807 241.4 14.7 240.281 14.7 238.9C14.7 237.519 13.5807 236.4 12.2 236.4C10.8192 236.4 9.69995 237.519 9.69995 238.9C9.69995 240.281 10.8192 241.4 12.2 241.4Z" fill="black"/>
<path d="M21.3 241.4C22.6808 241.4 23.8 240.281 23.8 238.9C23.8 237.519 22.6808 236.4 21.3 236.4C19.9193 236.4 18.8 237.519 18.8 238.9C18.8 240.281 19.9193 241.4 21.3 241.4Z" fill="black"/>
<path d="M30.3 241.4C31.6808 241.4 32.8 240.281 32.8 238.9C32.8 237.519 31.6808 236.4 30.3 236.4C28.9193 236.4 27.8 237.519 27.8 238.9C27.8 240.281 28.9193 241.4 30.3 241.4Z" fill="black"/>
<path d="M39.4 241.4C40.7807 241.4 41.9 240.281 41.9 238.9C41.9 237.519 40.7807 236.4 39.4 236.4C38.0193 236.4 36.9 237.519 36.9 238.9C36.9 240.281 38.0193 241.4 39.4 241.4Z" fill="black"/>
<path d="M48.5 241.4C49.8807 241.4 51 240.281 51 238.9C51 237.519 49.8807 236.4 48.5 236.4C47.1193 236.4 46 237.519 46 238.9C46 240.281 47.1193 241.4 48.5 241.4Z" fill="black"/>
<path d="M102.8 241.4C104.181 241.4 105.3 240.281 105.3 238.9C105.3 237.519 104.181 236.4 102.8 236.4C101.419 236.4 100.3 237.519 100.3 238.9C100.3 240.281 101.419 241.4 102.8 241.4Z" fill="black"/>
<path d="M111.9 241.4C113.281 241.4 114.4 240.281 114.4 238.9C114.4 237.519 113.281 236.4 111.9 236.4C110.519 236.4 109.4 237.519 109.4 238.9C109.4 240.281 110.519 241.4 111.9 241.4Z" fill="black"/>
<path d="M121 241.4C122.381 241.4 123.5 240.281 123.5 238.9C123.5 237.519 122.381 236.4 121 236.4C119.619 236.4 118.5 237.519 118.5 238.9C118.5 240.281 119.619 241.4 121 241.4Z" fill="black"/>
<path d="M130 241.4C131.381 241.4 132.5 240.281 132.5 238.9C132.5 237.519 131.381 236.4 130 236.4C128.619 236.4 127.5 237.519 127.5 238.9C127.5 240.281 128.619 241.4 130 241.4Z" fill="black"/>
<path d="M139.1 241.4C140.481 241.4 141.6 240.281 141.6 238.9C141.6 237.519 140.481 236.4 139.1 236.4C137.719 236.4 136.6 237.519 136.6 238.9C136.6 240.281 137.719 241.4 139.1 241.4Z" fill="black"/>
<path d="M148.1 241.4C149.481 241.4 150.6 240.281 150.6 238.9C150.6 237.519 149.481 236.4 148.1 236.4C146.719 236.4 145.6 237.519 145.6 238.9C145.6 240.281 146.719 241.4 148.1 241.4Z" fill="black"/>
<path d="M157.2 241.4C158.581 241.4 159.7 240.281 159.7 238.9C159.7 237.519 158.581 236.4 157.2 236.4C155.819 236.4 154.7 237.519 154.7 238.9C154.7 240.281 155.819 241.4 157.2 241.4Z" fill="black"/>
<path d="M166.3 241.4C167.681 241.4 168.8 240.281 168.8 238.9C168.8 237.519 167.681 236.4 166.3 236.4C164.919 236.4 163.8 237.519 163.8 238.9C163.8 240.281 164.919 241.4 166.3 241.4Z" fill="black"/>
<path d="M175.3 241.4C176.681 241.4 177.8 240.281 177.8 238.9C177.8 237.519 176.681 236.4 175.3 236.4C173.919 236.4 172.8 237.519 172.8 238.9C172.8 240.281 173.919 241.4 175.3 241.4Z" fill="black"/>
<path d="M184.4 241.4C185.781 241.4 186.9 240.281 186.9 238.9C186.9 237.519 185.781 236.4 184.4 236.4C183.019 236.4 181.9 237.519 181.9 238.9C181.9 240.281 183.019 241.4 184.4 241.4Z" fill="black"/>
<path d="M193.5 241.4C194.881 241.4 196 240.281 196 238.9C196 237.519 194.881 236.4 193.5 236.4C192.119 236.4 191 237.519 191 238.9C191 240.281 192.119 241.4 193.5 241.4Z" fill="black"/>
<path d="M202.5 241.4C203.881 241.4 205 240.281 205 238.9C205 237.519 203.881 236.4 202.5 236.4C201.119 236.4 200 237.519 200 238.9C200 240.281 201.119 241.4 202.5 241.4Z" fill="black"/>
<path d="M211.6 241.4C212.981 241.4 214.1 240.281 214.1 238.9C214.1 237.519 212.981 236.4 211.6 236.4C210.219 236.4 209.1 237.519 209.1 238.9C209.1 240.281 210.219 241.4 211.6 241.4Z" fill="black"/>
<path d="M12.2 250.4C13.5807 250.4 14.7 249.281 14.7 247.9C14.7 246.519 13.5807 245.4 12.2 245.4C10.8192 245.4 9.69995 246.519 9.69995 247.9C9.69995 249.281 10.8192 250.4 12.2 250.4Z" fill="black"/>
<path d="M21.3 250.4C22.6808 250.4 23.8 249.281 23.8 247.9C23.8 246.519 22.6808 245.4 21.3 245.4C19.9193 245.4 18.8 246.519 18.8 247.9C18.8 249.281 19.9193 250.4 21.3 250.4Z" fill="black"/>
<path d="M30.3 250.4C31.6808 250.4 32.8 249.281 32.8 247.9C32.8 246.519 31.6808 245.4 30.3 245.4C28.9193 245.4 27.8 246.519 27.8 247.9C27.8 249.281 28.9193 250.4 30.3 250.4Z" fill="black"/>
<path d="M102.8 250.4C104.181 250.4 105.3 249.281 105.3 247.9C105.3 246.519 104.181 245.4 102.8 245.4C101.419 245.4 100.3 246.519 100.3 247.9C100.3 249.281 101.419 250.4 102.8 250.4Z" fill="black"/>
<path d="M121 250.4C122.381 250.4 123.5 249.281 123.5 247.9C123.5 246.519 122.381 245.4 121 245.4C119.619 245.4 118.5 246.519 118.5 247.9C118.5 249.281 119.619 250.4 121 250.4Z" fill="black"/>
<path d="M130 250.4C131.381 250.4 132.5 249.281 132.5 247.9C132.5 246.519 131.381 245.4 130 245.4C128.619 245.4 127.5 246.519 127.5 247.9C127.5 249.281 128.619 250.4 130 250.4Z" fill="black"/>
<path d="M139.1 250.4C140.481 250.4 141.6 249.281 141.6 247.9C141.6 246.519 140.481 245.4 139.1 245.4C137.719 245.4 136.6 246.519 136.6 247.9C136.6 249.281 137.719 250.4 139.1 250.4Z" fill="black"/>
<path d="M148.1 250.4C149.481 250.4 150.6 249.281 150.6 247.9C150.6 246.519 149.481 245.4 148.1 245.4C146.719 245.4 145.6 246.519 145.6 247.9C145.6 249.281 146.719 250.4 148.1 250.4Z" fill="black"/>
<path d="M157.2 250.4C158.581 250.4 159.7 249.281 159.7 247.9C159.7 246.519 158.581 245.4 157.2 245.4C155.819 245.4 154.7 246.519 154.7 247.9C154.7 249.281 155.819 250.4 157.2 250.4Z" fill="black"/>
<path d="M166.3 250.4C167.681 250.4 168.8 249.281 168.8 247.9C168.8 246.519 167.681 245.4 166.3 245.4C164.919 245.4 163.8 246.519 163.8 247.9C163.8 249.281 164.919 250.4 166.3 250.4Z" fill="black"/>
<path d="M175.3 250.4C176.681 250.4 177.8 249.281 177.8 247.9C177.8 246.519 176.681 245.4 175.3 245.4C173.919 245.4 172.8 246.519 172.8 247.9C172.8 249.281 173.919 250.4 175.3 250.4Z" fill="black"/>
<path d="M184.4 250.4C185.781 250.4 186.9 249.281 186.9 247.9C186.9 246.519 185.781 245.4 184.4 245.4C183.019 245.4 181.9 246.519 181.9 247.9C181.9 249.281 183.019 250.4 184.4 250.4Z" fill="black"/>
<path d="M193.5 250.4C194.881 250.4 196 249.281 196 247.9C196 246.519 194.881 245.4 193.5 245.4C192.119 245.4 191 246.519 191 247.9C191 249.281 192.119 250.4 193.5 250.4Z" fill="black"/>
<path d="M202.5 250.4C203.881 250.4 205 249.281 205 247.9C205 246.519 203.881 245.4 202.5 245.4C201.119 245.4 200 246.519 200 247.9C200 249.281 201.119 250.4 202.5 250.4Z" fill="black"/>
<path d="M211.6 250.4C212.981 250.4 214.1 249.281 214.1 247.9C214.1 246.519 212.981 245.4 211.6 245.4C210.219 245.4 209.1 246.519 209.1 247.9C209.1 249.281 210.219 250.4 211.6 250.4Z" fill="black"/>
<path d="M139.1 259.5C140.481 259.5 141.6 258.381 141.6 257C141.6 255.619 140.481 254.5 139.1 254.5C137.719 254.5 136.6 255.619 136.6 257C136.6 258.381 137.719 259.5 139.1 259.5Z" fill="black"/>
<path d="M148.1 259.5C149.481 259.5 150.6 258.381 150.6 257C150.6 255.619 149.481 254.5 148.1 254.5C146.719 254.5 145.6 255.619 145.6 257C145.6 258.381 146.719 259.5 148.1 259.5Z" fill="black"/>
<path d="M157.2 259.5C158.581 259.5 159.7 258.381 159.7 257C159.7 255.619 158.581 254.5 157.2 254.5C155.819 254.5 154.7 255.619 154.7 257C154.7 258.381 155.819 259.5 157.2 259.5Z" fill="black"/>
<path d="M166.3 259.5C167.681 259.5 168.8 258.381 168.8 257C168.8 255.619 167.681 254.5 166.3 254.5C164.919 254.5 163.8 255.619 163.8 257C163.8 258.381 164.919 259.5 166.3 259.5Z" fill="black"/>
<path d="M175.3 259.5C176.681 259.5 177.8 258.381 177.8 257C177.8 255.619 176.681 254.5 175.3 254.5C173.919 254.5 172.8 255.619 172.8 257C172.8 258.381 173.919 259.5 175.3 259.5Z" fill="black"/>
<path d="M184.4 259.5C185.781 259.5 186.9 258.381 186.9 257C186.9 255.619 185.781 254.5 184.4 254.5C183.019 254.5 181.9 255.619 181.9 257C181.9 258.381 183.019 259.5 184.4 259.5Z" fill="black"/>
<path d="M193.5 259.5C194.881 259.5 196 258.381 196 257C196 255.619 194.881 254.5 193.5 254.5C192.119 254.5 191 255.619 191 257C191 258.381 192.119 259.5 193.5 259.5Z" fill="black"/>
<path d="M202.5 259.5C203.881 259.5 205 258.381 205 257C205 255.619 203.881 254.5 202.5 254.5C201.119 254.5 200 255.619 200 257C200 258.381 201.119 259.5 202.5 259.5Z" fill="black"/>
<path d="M211.6 259.5C212.981 259.5 214.1 258.381 214.1 257C214.1 255.619 212.981 254.5 211.6 254.5C210.219 254.5 209.1 255.619 209.1 257C209.1 258.381 210.219 259.5 211.6 259.5Z" fill="black"/>
<path d="M220.6 259.5C221.981 259.5 223.1 258.381 223.1 257C223.1 255.619 221.981 254.5 220.6 254.5C219.219 254.5 218.1 255.619 218.1 257C218.1 258.381 219.219 259.5 220.6 259.5Z" fill="black"/>
<path d="M111.9 268.5C113.281 268.5 114.4 267.381 114.4 266C114.4 264.619 113.281 263.5 111.9 263.5C110.519 263.5 109.4 264.619 109.4 266C109.4 267.381 110.519 268.5 111.9 268.5Z" fill="black"/>
<path d="M121 268.5C122.381 268.5 123.5 267.381 123.5 266C123.5 264.619 122.381 263.5 121 263.5C119.619 263.5 118.5 264.619 118.5 266C118.5 267.381 119.619 268.5 121 268.5Z" fill="black"/>
<path d="M130 268.5C131.381 268.5 132.5 267.381 132.5 266C132.5 264.619 131.381 263.5 130 263.5C128.619 263.5 127.5 264.619 127.5 266C127.5 267.381 128.619 268.5 130 268.5Z" fill="black"/>
<path d="M139.1 268.5C140.481 268.5 141.6 267.381 141.6 266C141.6 264.619 140.481 263.5 139.1 263.5C137.719 263.5 136.6 264.619 136.6 266C136.6 267.381 137.719 268.5 139.1 268.5Z" fill="black"/>
<path d="M148.1 268.5C149.481 268.5 150.6 267.381 150.6 266C150.6 264.619 149.481 263.5 148.1 263.5C146.719 263.5 145.6 264.619 145.6 266C145.6 267.381 146.719 268.5 148.1 268.5Z" fill="black"/>
<path d="M157.2 268.5C158.581 268.5 159.7 267.381 159.7 266C159.7 264.619 158.581 263.5 157.2 263.5C155.819 263.5 154.7 264.619 154.7 266C154.7 267.381 155.819 268.5 157.2 268.5Z" fill="black"/>
<path d="M166.3 268.5C167.681 268.5 168.8 267.381 168.8 266C168.8 264.619 167.681 263.5 166.3 263.5C164.919 263.5 163.8 264.619 163.8 266C163.8 267.381 164.919 268.5 166.3 268.5Z" fill="black"/>
<path d="M175.3 268.5C176.681 268.5 177.8 267.381 177.8 266C177.8 264.619 176.681 263.5 175.3 263.5C173.919 263.5 172.8 264.619 172.8 266C172.8 267.381 173.919 268.5 175.3 268.5Z" fill="black"/>
<path d="M184.4 268.5C185.781 268.5 186.9 267.381 186.9 266C186.9 264.619 185.781 263.5 184.4 263.5C183.019 263.5 181.9 264.619 181.9 266C181.9 267.381 183.019 268.5 184.4 268.5Z" fill="black"/>
<path d="M193.5 268.5C194.881 268.5 196 267.381 196 266C196 264.619 194.881 263.5 193.5 263.5C192.119 263.5 191 264.619 191 266C191 267.381 192.119 268.5 193.5 268.5Z" fill="black"/>
<path d="M202.5 268.5C203.881 268.5 205 267.381 205 266C205 264.619 203.881 263.5 202.5 263.5C201.119 263.5 200 264.619 200 266C200 267.381 201.119 268.5 202.5 268.5Z" fill="black"/>
<path d="M211.6 268.5C212.981 268.5 214.1 267.381 214.1 266C214.1 264.619 212.981 263.5 211.6 263.5C210.219 263.5 209.1 264.619 209.1 266C209.1 267.381 210.219 268.5 211.6 268.5Z" fill="black"/>
<path d="M111.9 277.6C113.281 277.6 114.4 276.481 114.4 275.1C114.4 273.719 113.281 272.6 111.9 272.6C110.519 272.6 109.4 273.719 109.4 275.1C109.4 276.481 110.519 277.6 111.9 277.6Z" fill="black"/>
<path d="M121 277.6C122.381 277.6 123.5 276.481 123.5 275.1C123.5 273.719 122.381 272.6 121 272.6C119.619 272.6 118.5 273.719 118.5 275.1C118.5 276.481 119.619 277.6 121 277.6Z" fill="black"/>
<path d="M130 277.6C131.381 277.6 132.5 276.481 132.5 275.1C132.5 273.719 131.381 272.6 130 272.6C128.619 272.6 127.5 273.719 127.5 275.1C127.5 276.481 128.619 277.6 130 277.6Z" fill="black"/>
<path d="M148.1 277.6C149.481 277.6 150.6 276.481 150.6 275.1C150.6 273.719 149.481 272.6 148.1 272.6C146.719 272.6 145.6 273.719 145.6 275.1C145.6 276.481 146.719 277.6 148.1 277.6Z" fill="black"/>
<path d="M157.2 277.6C158.581 277.6 159.7 276.481 159.7 275.1C159.7 273.719 158.581 272.6 157.2 272.6C155.819 272.6 154.7 273.719 154.7 275.1C154.7 276.481 155.819 277.6 157.2 277.6Z" fill="black"/>
<path d="M166.3 277.6C167.681 277.6 168.8 276.481 168.8 275.1C168.8 273.719 167.681 272.6 166.3 272.6C164.919 272.6 163.8 273.719 163.8 275.1C163.8 276.481 164.919 277.6 166.3 277.6Z" fill="black"/>
<path d="M175.3 277.6C176.681 277.6 177.8 276.481 177.8 275.1C177.8 273.719 176.681 272.6 175.3 272.6C173.919 272.6 172.8 273.719 172.8 275.1C172.8 276.481 173.919 277.6 175.3 277.6Z" fill="black"/>
<path d="M102.8 286.7C104.181 286.7 105.3 285.581 105.3 284.2C105.3 282.819 104.181 281.7 102.8 281.7C101.419 281.7 100.3 282.819 100.3 284.2C100.3 285.581 101.419 286.7 102.8 286.7Z" fill="black"/>
<path d="M111.9 286.7C113.281 286.7 114.4 285.581 114.4 284.2C114.4 282.819 113.281 281.7 111.9 281.7C110.519 281.7 109.4 282.819 109.4 284.2C109.4 285.581 110.519 286.7 111.9 286.7Z" fill="black"/>
<path d="M121 286.7C122.381 286.7 123.5 285.581 123.5 284.2C123.5 282.819 122.381 281.7 121 281.7C119.619 281.7 118.5 282.819 118.5 284.2C118.5 285.581 119.619 286.7 121 286.7Z" fill="black"/>
<path d="M130 286.7C131.381 286.7 132.5 285.581 132.5 284.2C132.5 282.819 131.381 281.7 130 281.7C128.619 281.7 127.5 282.819 127.5 284.2C127.5 285.581 128.619 286.7 130 286.7Z" fill="black"/>
</svg>