<svg xmlns="http://www.w3.org/2000/svg" fill="none" viewBox="0.3 0.1 217.9 272.7">
<path d="M21.7 224.3L31.6 221.6L39.3 217.5L50.6 211.1L56.1 207.8L63 207.6L66.8 205.6L72.3 207.8L74 204.8L72.3 202.9L75.4 198.8L76.8 193.8L80.3 184.7L79 174.8L76.8 172.6L78.7 170.1V163.8L75.9 156.7L75.1 152.8L79.5 153.9L83.1 149.5L87.2 145.4L90.5 142.9L88.3 133.3L83.9 133.8L84.7 131.3L85.3 125.8L82 120.9L78.4 116.8L66 118.4L63.5 121.2L60.8 120.3L63 117.3L60.5 112.4L58 114.3L45.9 117L40.7 120.3L39.3 126.1L34.4 132.2L40.2 132.7L44 133.6L40.7 138.5L35.2 142.4H29.2L25.9 143.7L17.1 140.4L9.59998 145.1L11.8 153.4L16.2 152.5L16.5 157.8H13.5L11.5 161.1L8 163.8L8.80005 168.8L24.8 172.9L28.6 175.9L24.2 176.5L19.3 180.6L14.6 188.3L9.30005 194.9L8.19995 202.6L4.40002 201.5L0.300049 202.9L0.5 205.6L4.09998 205.4L8.80005 205.6L3.59998 209.5L0.300049 213.9L2.5 215.3L8.80005 220.5L13.2 218.6L14.3 222.4L21.7 224.3Z" fill="black"/>
<path d="M99.3 256.3L86.4 267L84.7 270L93.8 272.8L100.7 268.4L103.4 264.8L109.2 262L118 263.1L120.8 265.3L127.9 262L128.2 254.9L134 250.2L142.2 253.5L147.7 253.8L154.3 254.3L157.1 250.5L159.8 249.7L173.9 247.7L189.8 247.5L211.3 239.5L212.9 227.4L206.1 223L209.4 216.6L217.6 202.3L218.2 190.8L209.6 180.9L203 181.1L196.4 184.4L190.7 183.6L190.9 176.7V171L187.9 163.8L186 160L182.9 156.1L180.5 149.8L176.3 142.6L170.3 136.9L162.6 129.4L158.7 122L157.4 114.8L156.5 111.3L156 107.1L146.1 99.2L133.4 93.7L129.8 90.6L132.3 86.8L141.1 75.8L145 62.8L149.7 49.4L136.7 44.1H124.3L116.1 43.3L121 32.3L129.3 17.5L112.8 15.2L94.1 27.6L90.5 41.9L87.2 58.7L80.3 78.5V82.9L84.2 81.3L92.2 79.1L91.6 87.3L88.6 99.2L89.7 108.5L95.5 103.3L101 100L103.2 104.1V108.8L102.9 113.7L100.1 118.4L98.5 125L103.7 130.5H113.1L120.2 126.9L126 124.5L131.2 123.6L132.1 126.4L129 128L126.5 131.3L124.9 140.2L126.5 145.7L132.9 148.1L136.7 151.2L133.4 156.7L132.3 165.2V172.3L123.2 174.3L113.9 175.1L108.9 170.7L106.2 174.8L111.4 182.5L107.8 184.7L104 188.8L108.9 189.1L114.4 187.5L115 194.6L115.8 200.7L112.2 205.4L109.8 207.3L101.8 211.4L94.6 214.4L96 222.4L104 222.7L109.5 221.3L113.9 225.2L120.2 226.3L124.6 230.1L131.8 228.7H137.3L135.4 231.2L134.3 234.5L131.2 236.2L124.1 235.9L108.7 242.2L106.5 244.4L104.5 248L99.9 255.4L99.3 256.3Z" fill="black"/>
<path d="M109.8 140.7L106.2 143.2L103.2 149.8L106.2 151.4L110.9 145.4L110 140.7H109.8Z" fill="black"/>
<path d="M75.1 101.4L76.8 104.9L83.6 98.9L86.9 91.5L87.2 89L83.9 91.2L79.2 97.5L75.7 100L75.1 101.4Z" fill="black"/>
<path d="M67.4 28.5L67.1 35.6L69 40.6L72.6 38.4L76.5 34.2L82.3 21.3L79.5 18.8L72.3 23.5L67.4 28.5Z" fill="black"/>
<path d="M76.2 41.9L73.7 44.7L69.9 46.1L69.6 51L77 57.3L79.8 60.1L83.4 58.7L81.4 50.2L79.2 45.2L79 41.9H76.2Z" fill="black"/>
<path d="M61.3 42.2L65.7 43.9L65.5 49.6L63.8 56.5L59.7 60.4L60 54.9L60.2 47.4L61.3 42.2Z" fill="black"/>
<path d="M124.6 7.5L127.1 11.1L131 9.5L134.5 7.29999L136.5 2.60001L128.5 0.100006L124.6 7.5Z" fill="black"/>
</svg>