<svg xmlns="http://www.w3.org/2000/svg" fill="none" viewBox="0.3 0.4 50.3 95.2">
<path d="M0.299988 53.2C0.299988 53.8 0.699988 54.2 1.29999 54.2H2.29999V92C2.29999 94 3.89999 95.6 5.89999 95.6C7.89999 95.6 9.5 94 9.5 92V54.2H41.4V92C41.4 94 43 95.6 45 95.6C47 95.6 48.6 94 48.6 92V54.2H49.6C50.2 54.2 50.6 53.8 50.6 53.2V42.8C50.6 42.2 50.2 41.8 49.6 41.8H45.3V1.39996C45.3 0.799963 44.9 0.399963 44.3 0.399963H40.7C40.1 0.399963 39.7 0.799963 39.7 1.39996V3.39996H12.1V1.39996C12.1 0.799963 11.7 0.399963 11.1 0.399963H7.5C6.9 0.399963 6.5 0.799963 6.5 1.39996V41.8H1.5C0.9 41.8 0.5 42.2 0.5 42.8V53.2H0.299988ZM7.39999 92C7.39999 92.9 6.69999 93.6 5.79999 93.6C4.89999 93.6 4.20001 92.9 4.20001 92V54.2H7.29999L7.39999 92ZM46.4 92C46.4 92.9 45.7 93.6 44.8 93.6C43.9 93.6 43.2 92.9 43.2 92V54.2H46.3L46.4 92ZM41.5 2.49997H43.1V41.9H41.5V2.49997ZM11.9 41.9V16.8H39.5V41.9H11.9ZM39.5 5.49997V14.7H11.9V5.49997H39.5ZM8.29999 2.49997H9.89999V41.9H8.29999V2.49997ZM2.29999 43.9H48.4V52.3H2.29999V43.9Z" fill="black"/>
</svg>