<svg xmlns="http://www.w3.org/2000/svg" fill="none" viewBox="0.96 0.2 82.95 82.9">
<path d="M52.2 41.7H21.8C21 41.7 20.4 41.1 20.4 40.3C20.4 36.5 23.5 33.4 27.3 33.4H46.6C50.4 33.4 53.5 36.5 53.5 40.3C53.5 41 52.9 41.7 52.2 41.7ZM23.4 38.9H50.5C49.9 37.3 48.4 36.1 46.6 36.1H27.3C25.5 36.1 24 37.3 23.4 38.9ZM37 36.1C36.2 36.1 35.6 35.5 35.6 34.7V21C35.6 20.2 36.2 19.6 37 19.6C37.8 19.6 38.4 20.2 38.4 21V34.8C38.4 35.5 37.7 36.1 37 36.1ZM48 22.3H25.9C25.4 22.3 25 22.1 24.7 21.7C24.4 21.3 24.4 20.7999 24.6 20.3999L25 19.3999C27.2 12.3999 27.2 9.69996 27.2 1.59996C27.2 0.79996 27.8 0.199951 28.6 0.199951H45.2C46 0.199951 46.6 0.79996 46.6 1.59996C46.6 9.69996 46.6 12.3999 48.8 19.3999L49.2 20.3999C49.4 20.7999 49.4 21.3 49.1 21.7C48.9 22.1 48.5 22.3 48 22.3ZM27.9 19.6H46C44 13.1 43.9 9.99995 43.9 2.99995H30.1C30.1 9.89995 29.9 13.1 27.9 19.6ZM43.9 61C43.7 61 43.5 60.9 43.3 60.8C43.3 60.8 34 56 24.7 51.2C20 48.8 15.4 46.4 11.9 44.6C5.30004 41.2 5.30005 41.2 5.30005 40.3C5.30005 39.5 5.90004 38.9 6.70004 38.9H77C77.6 38.9 78.2 39.3 78.3 39.9C78.5 40.5 78.2001 41.1 77.7001 41.5L44.6001 60.8C44.4001 60.9 44.1 61 43.9 61ZM12.2 41.7C19.5 45.5 33.4 52.7 43.9 58.1L72 41.7H12.2ZM82.5 47.2H67.9C67.3 47.2 66.7 46.8 66.6 46.2C66.4 45.6 66.7 45 67.2 44.6L76.3 39.1C76.5 39 76.8 38.9 77 38.9H82.5C83.3 38.9 83.9 39.5 83.9 40.3V45.8C83.9 46.6 83.3 47.2 82.5 47.2ZM72.9 44.4H81.2V41.6H77.4L72.9 44.4ZM17.2 47.2H2.50003C1.70003 47.2 1.10004 46.6 1.10004 45.8V40.3C1.10004 39.5 1.70003 38.9 2.50003 38.9H6.60004C6.90004 38.9 7.10002 39 7.40002 39.1C7.60002 39.2 9.30003 40.1 17.8 44.5C18.4 44.8 18.7 45.4 18.5 46.1C18.3 46.7 17.8 47.2 17.2 47.2ZM3.80003 44.4H11.5C7.90003 42.5 6.70003 41.9 6.20003 41.6H3.80003V44.4ZM82.5 83.1H81.1C79.5 83.1 78.1 82.4 76.8 81.1C71.8 75.9 70 61.8 70.1 58.2C70.3 51.7 67.7 48.7 66.1 47.5C65.7 47.2 65.5 46.8 65.5 46.3C65.5 45.8 65.8 45.4 66.2 45.2L67.2 44.6C67.4 44.5 67.7 44.4 67.9 44.4H74.2C74.5 44.4 74.8 44.5 75 44.7C77.3 46.4 79.3 51.5 78.3 58.4C77.5 64 78.7 68.9 79.6 71.4C79.6 71.4 79.6 71.5 79.7 71.6L83.8 81.2C84 81.6 83.9 82.1 83.7 82.5C83.4 82.8 83 83.1 82.5 83.1ZM69.7 47.2C71.4 49.3 73 52.7 72.8 58.3C72.7 61.8 74.6 74.8 78.8 79.1C79.3 79.6 79.8 80 80.4 80.2L77.1 72.6C77.1 72.5 77 72.5 77 72.4C76.1 69.6 74.7 64.2 75.6 58.1C76.4 52.4 75 48.6 73.7 47.3L69.7 47.2ZM3.80002 83.1H2.40001C1.90001 83.1 1.50001 82.9 1.20001 82.5C0.900015 82.1 0.900024 81.6 1.10002 81.2L5.20001 71.6C5.20001 71.5 5.20002 71.5 5.30002 71.4C6.10002 68.9 7.40002 64 6.60002 58.4C5.60002 51.4 7.60001 46.4 9.90001 44.7C10.1 44.5 10.4 44.4 10.7 44.4H17.1C17.3 44.4 17.5 44.5 17.7 44.6L18.7 45.1C19.1 45.3 19.4 45.7 19.4 46.2C19.4 46.7 19.2 47.1 18.8 47.4C17.5 48.3 14.5 51.2 14.7 58.1C14.8 61.7 13 75.8 8.00002 81C6.80002 82.4 5.40002 83.1 3.80002 83.1ZM8.00002 72.3C8.00002 72.4 8.00001 72.5 7.90001 72.6L4.60002 80.2C5.10002 80 5.60001 79.7 6.20001 79.1C10.4 74.8 12.3 61.8 12.2 58.3C12 52.7 13.7 49.2 15.4 47.2H11.4C10.1 48.5 8.60002 52.3 9.50002 58C10.2 64.2 8.90002 69.6 8.00002 72.3ZM35.7 56.7999C35.5 56.7999 35.3001 56.6999 35.1001 56.5999L24 50.8999C23.6 50.6999 23.3 50.1999 23.3 49.7999C23.3 49.2999 23.5 48.7999 23.9 48.5999L37.6001 39.1999C37.8001 38.9999 38.1 38.9999 38.4 38.9999H60.5C61.1 38.9999 61.7 39.3999 61.8 39.9999C62 40.5999 61.7 41.1999 61.2 41.5999L36.5 56.6999C36.2 56.6999 36 56.7999 35.7 56.7999ZM27.3 49.4999L35.6001 53.7999L55.5 41.6999H38.7L27.3 49.4999ZM70.1 41.7H61.8C61 41.7 60.4 41.1 60.4 40.3V16.8C60.4 16 61 15.4 61.8 15.4H70.1C70.9 15.4 71.5 16 71.5 16.8V40.3C71.5 41 70.9 41.7 70.1 41.7ZM63.2 38.9H68.7V18.2H63.2V38.9ZM78.4 41.6999H70.1C69.3 41.6999 68.7 41.0999 68.7 40.2999V23.6999C68.7 22.8999 69.3 22.2999 70.1 22.2999H78.4C79.2 22.2999 79.8 22.8999 79.8 23.6999V40.2999C79.8 40.9999 79.2 41.6999 78.4 41.6999ZM71.5 38.8999H77V25.0999H71.5V38.8999Z" fill="black"/>
</svg>