<svg xmlns="http://www.w3.org/2000/svg" fill="none" viewBox="0.8 0.7 66.4 86.7">
<path d="M0.899979 82.7999H3.79999V87.3999H14.5V82.7999H53.6V87.3999H64.3V82.7999H67.2V0.699951H0.799988V82.7999H0.899979ZM12.7 85.5999H5.59999V82.7999H12.7V85.5999ZM62.6 85.5999H55.5V82.7999H62.6V85.5999ZM2.79999 2.49994H65.5V80.9999H2.79999V2.49994ZM59.7 8.29993H8.59998V26.5999H59.7V8.29993ZM57.8 24.7999H10.4V10.0999H57.8V24.7999ZM59.7 56.8999H8.59998V75.1999H59.7V56.8999ZM57.8 73.3999H10.4V58.6999H57.8V73.3999ZM59.7 32.1H8.59998V50.5H59.7V32.1ZM57.8 48.7H10.4V34H57.8V48.7ZM41 39.9999H39.2V42.2H29.7V39.9999H27.8V43.9999H41V39.9999ZM41 64.4999H39.2V66.5999H29.7V64.4999H27.8V68.4999H41V64.4999ZM41 16.2H39.2V18.3999H29.7V16.2H27.8V20.2H41V16.2Z" fill="black"/>
</svg>