<svg xmlns="http://www.w3.org/2000/svg" fill="none" viewBox="0.7 0.4 71.3 60.5">
<path d="M71 0.400024H69H3.70001H1.70001C1.10001 0.400024 0.700012 0.800024 0.700012 1.40002C0.700012 2.00002 1.10001 2.40002 1.70001 2.40002H2.70001V54.9C2.70001 55.5 3.10001 55.9 3.70001 55.9H5.20001V59.9C5.20001 60.5 5.60001 60.9 6.20001 60.9H16.2C16.8 60.9 17.2 60.5 17.2 59.9V55.9H55.5V59.9C55.5 60.5 55.9 60.9 56.5 60.9H66.5C67.1 60.9 67.5 60.5 67.5 59.9V55.9H69C69.6 55.9 70 55.5 70 54.9V2.40002H71C71.6 2.40002 72 2.00002 72 1.40002C72 0.800024 71.5 0.400024 71 0.400024ZM35.3 2.40002V15.7H4.70001V2.40002H35.3ZM4.70001 17.7H35.3V53.9H16.2H6.20001H4.70001V17.7ZM15.1 58.9H7.10001V55.9H15.1V58.9ZM65.4 58.9H57.4V55.9H65.4V58.9ZM66.4 53.9H56.4H37.3V17.7H67.9V53.9H66.4ZM67.9 15.7H37.3V2.40002H67.9V15.7ZM42.8 29.9C42.2 29.9 41.8 30.3 41.8 30.9V36C41.8 36.6 42.2 37 42.8 37C43.4 37 43.8 36.6 43.8 36V30.9C43.8 30.3 43.4 29.9 42.8 29.9ZM29.8 36.9C30.4 36.9 30.8 36.5 30.8 35.9V30.8C30.8 30.2 30.4 29.8 29.8 29.8C29.2 29.8 28.8 30.2 28.8 30.8V35.9C28.8 36.5 29.2 36.9 29.8 36.9ZM20 10.9C21 10.9 21.8 10.1 21.8 9.09998C21.8 8.09998 21 7.29999 20 7.29999C19 7.29999 18.2 8.09998 18.2 9.09998C18.2 10.1 19 10.9 20 10.9ZM20 8.90002C20.1 8.90002 20.2 8.99998 20.2 9.09998C20.2 9.29998 19.8 9.29998 19.8 9.09998C19.8 8.99998 19.9 8.90002 20 8.90002ZM52.6 10.9C53.6 10.9 54.4 10.1 54.4 9.09998C54.4 8.09998 53.6 7.29999 52.6 7.29999C51.6 7.29999 50.8 8.09998 50.8 9.09998C50.8 10.1 51.6 10.9 52.6 10.9ZM52.6 8.90002C52.7 8.90002 52.8 8.99998 52.8 9.09998C52.8 9.29998 52.4 9.29998 52.4 9.09998C52.4 8.99998 52.5 8.90002 52.6 8.90002Z" fill="black"/>
</svg>