<svg xmlns="http://www.w3.org/2000/svg" fill="none" viewBox="0.92 0.4 55.6 82.5">
<path d="M10.1 50.4C10.4 50.4 10.8 50.5 11.2 50.5C9.70003 51.7 8.50004 53.3 8.00004 54.9V55L1.00004 80.5C0.700036 81.4 1.30003 82.4 2.20003 82.7C2.40003 82.7 2.50003 82.8 2.70003 82.8C3.50003 82.8 4.20004 82.3 4.40004 81.5L11.4 56C12.2 53.6 15.2 51.5 18.2 51.2C17.7 51.9 17.3 52.7 17.1 53.5L13.3 72C13.2 72.7 13.6 73.4 14.3 73.6C14.4 73.6 14.5 73.6 14.6 73.6C15.2 73.6 15.8 73.2 15.9 72.5L19.7 54.1C20 53 20.8 51.9 21.7 51.3C23.9 51.4 26.3 51.4 28.6 51.4C31 51.4 33.3 51.4 35.6 51.3C36.5 51.9 37.3 53 37.6 54.1L41.4 72.6C41.5 73.2 42.1 73.7 42.7 73.7C42.8 73.7 42.9 73.7 43 73.7C43.7 73.6 44.2 72.9 44 72.1L40.2 53.6C40 52.8 39.6 52 39.2 51.3C42.1 51.6 45.2 53.7 46 56.1L53 81.6C53.2 82.4 53.9 82.9 54.7 82.9C54.9 82.9 55 82.9 55.2 82.8C56.1 82.5 56.7 81.6 56.4 80.6L49.4 55.1V55C48.8 53.3 47.7 51.8 46.2 50.6C46.6 50.6 46.9 50.5 47.3 50.5C53.6 49.6 56.2 48.4 56.5 46.3C56.8 43.8 53.7 42.6 50.7 41.7C41.2 39 39.8 37.2 39.6 36.5C39.4 35.6 41.4 33.6 43.2 31.9C45.4 29.7 48.2 27.1 49.9 23.7C53.3 16.9 51.9 12.2 50.2 9.39996C46.1 2.79996 36.2 0.399963 28.9 0.399963C21.6 0.399963 11.7 2.69996 7.60003 9.39996C5.90003 12.2 4.50004 16.9 7.90004 23.7C9.40004 26.7 11.6 29.1 13.6 31.3C15.5 33.4 17.5 35.5 17.1 36.7C16.9 37.6 15.2 39.4 7.00004 41.7C3.90004 42.6 0.800037 43.8 1.20004 46.3C1.20004 48.3 3.80003 49.5 10.1 50.4ZM7.70003 45C15.6 42.7 19.3 40.5 20.2 37.6C21.1 34.5 18.7 31.9 15.9 28.9C14.1 26.9 12 24.7 10.7 22.1C8.60003 17.8 8.40004 14.2 10.3 11.2C13.4 6.19997 21.8 3.89996 28.6 3.89996C35.4 3.89996 43.8 6.19997 46.9 11.2C48.7 14.2 48.6 17.8 46.5 22.1C45.1 25 42.7 27.3 40.5 29.4C37.7 32.1 35.2 34.5 36 37.4C36.7 40.4 40.5 42.5 49.5 45.1C50.6 45.4 51.4 45.7 51.9 45.9C49.9 46.6 45.4 47.4 38.7 47.8C38.6 47.8 38.4 47.8 38.3 47.8C38.1 47.8 38 47.8 37.9 47.9C35.2 48 32.1 48.1 28.7 48.1C25.3 48.1 22.2 48 19.5 47.9C19.4 47.9 19.2 47.8 19.1 47.8C19 47.8 18.8 47.8 18.7 47.8C12 47.4 7.50004 46.6 5.50004 45.9C5.80004 45.6 6.50003 45.3 7.70003 45Z" fill="black"/>
</svg>