<svg xmlns="http://www.w3.org/2000/svg" fill="none" viewBox="0.62 0.6 97.43 59.1">
<path d="M94.4 20.1C96 19 96.8 17.8 96.8 16.5V11.5C96.8 4.4 72.2 0.599976 49 0.599976C25.8 0.599976 1.20003 4.4 1.20003 11.5V16.5C1.20003 17.9 2.20003 19.2 3.90003 20.3L3.20003 21.4C0.500031 25.6 -0.0999662 30.7 1.50003 35.4L3.70003 42C4.30003 43.9 4.60003 45.9 4.40003 48L3.30004 59.7H7.70003L9.60004 48.2C10 45.9 9.90003 43.6 9.20003 41.3L7.80004 35.9C6.60004 31.4 7.60004 26.6 10.6 23.1C19.1 25.7 32.3 27.1 45.5 27.3L46.5 49.4H50.4L51.4 27.4C65.2 27.2 79.3 25.7 88.1 23C91.1 26.6 92.2 31.4 91 35.9L89.5 41.3C88.9 43.5 88.8 45.9 89.1 48.2L91 59.7H95.4L94.3 47.9C94.1 45.9 94.3 43.9 95 42L97.2 35.4C98.8 30.7 98.1 25.6 95.5 21.4L94.4 20.1ZM49.1 2.59998C77.5 2.59998 94.9 7.8 94.9 11.5C94.8 12.2 94.4 12.8 93.8 13.2C88.7 17.3 69.9 20.4 49.2 20.4C28.5 20.4 9.70004 17.4 4.60004 13.2C4.00004 12.8 3.60003 12.2 3.50003 11.5C3.30003 7.8 20.7 2.59998 49.1 2.59998ZM3.30004 14.9L3.50003 15.1L3.80004 15.3L4.10004 15.5L4.40003 15.7L4.80004 15.9L5.20003 16.1L5.60004 16.3L6.00003 16.5L6.40003 16.7L6.80004 16.9L7.20003 17.1L7.70003 17.3L8.20003 17.5L8.70003 17.7L9.20003 17.9L9.70003 18.1L10.2 18.3L10.8 18.5L11.4 18.7L12 18.9L12.6 19.1L13.2 19.3L13.8 19.5L14.5 19.7L15.1 19.8L15.8 20L16.4 20.1L17.1 20.2L17.8 20.3L18.5 20.5L19.2 20.6L20 20.7L20.7 20.8L21.5 20.9L22.3 21L23.1 21.1L23.9 21.2L24.7 21.3L25.5 21.4L26.4 21.5L27.2 21.6L28.1 21.7L29 21.8L29.9 21.9L30.8 22L31.7 22.1L32.6 22.2L33.5 22.3L34.5 22.4L35.4 22.5L36.4 22.6H37.2L38.2 22.7H39.1H40.1H41H42H42.9H44H44.8H46H51.6H52.8H53.6H54.8H55.6H56.8H57.6H58.7H59.5H60.6H61.4L62.5 22.6L63.3 22.5L64.3 22.4L65.1 22.3L66.1 22.2L66.9 22.1L67.9 22L68.7 21.9L69.7 21.8L70.5 21.7L71.4 21.6L72.2 21.5L73.1 21.4L73.9 21.3L74.8 21.2L75.6 21.1L76.4 21L77.1 20.9L77.9 20.8L78.6 20.7L79.4 20.6L80.1 20.5L80.9 20.4L81.6 20.3L82.3 20.1L82.9 20L83.6 19.9L84.2 19.7L84.9 19.5L85.5 19.3L86.1 19.1L86.7 18.9L87.3 18.7L87.8 18.5L88.4 18.3L88.9 18.1L89.4 17.9L89.9 17.7L90.4 17.5L90.9 17.3L91.4 17.1L91.8 16.9L92.2 16.7L92.6 16.5L93 16.3L93.4 16.1L93.7 15.9L94 15.7L94.3 15.5L94.6 15.3L94.8 15.2V16.8C94.8 20.5 77.4 25.7 49 25.7C20.6 25.7 3.20003 20.6 3.20003 16.9V14.9H3.30004ZM5.70003 36.4L7.20003 41.8C7.70003 43.8 7.80003 45.8 7.50003 47.8L5.90003 57.6H5.40003L6.30004 48.1C6.50004 45.8 6.30003 43.5 5.50003 41.3L3.30004 34.7C1.90004 30.6 2.50004 26.1 4.80004 22.4L5.60004 21.2C6.50004 21.6 7.40004 22 8.30004 22.3C5.40004 26.4 4.40003 31.6 5.70003 36.4ZM48.3 47.4L47.3 27.4H49.2L48.3 47.4ZM95.1 34.8L92.9 41.4C92.2 43.6 91.9 45.9 92.1 48.2L93 57.7H92.5L90.9 47.9C90.6 45.9 90.7 43.9 91.2 41.9L92.7 36.5C94 31.6 93 26.4 89.9 22.4C90.8 22.1 91.7 21.7 92.6 21.2L93.5 22.6C95.9 26.1 96.5 30.6 95.1 34.8ZM11.8 13.8C16.3 16.4 31.3 18.1 49 18.1C66.7 18.1 81.7 16.3 86.2 13.7C87.3 13.1 87.9 12.3 87.9 11.4C87.9 4.90002 50.6 4.79999 49 4.79999C47.4 4.79999 10.1 4.90002 10.1 11.4C10.1 12.3 10.7 13.1 11.8 13.8ZM49.1 6.90002C72.4 6.90002 85.3 9.8 86 11.5C85.8 11.7 85.6 11.9 85.3 12.1C81.2 14.5 65.9 16.2 49.1 16.2C32.3 16.2 17 14.5 12.9 12.1C12.6 12 12.4 11.8 12.2 11.6C12.7 9.79998 25.6 6.90002 49.1 6.90002Z" fill="black"/>
</svg>