<svg xmlns="http://www.w3.org/2000/svg" fill="none" viewBox="0.5 0.6 95.6 59">
<path d="M3.5 20.4L2.5 59.5H6.79999L10.1 23.1C18.6 25.6 31.5 27 44.5 27.2L45.5 49.3H49.4L50.4 27.3C63.8 27.2 77.5 25.8 86.3 23.2L89.6 59.6H94L93 20.5C95 19.3 96.1 18 96.1 16.5V11.5C96.1 4.39997 71.5 0.599976 48.3 0.599976C25.1 0.599976 0.5 4.39996 0.5 11.4V16.4C0.5 17.9 1.6 19.2 3.5 20.4ZM5 57.5H4.5L5.39999 21.4C6.19999 21.8 7.10001 22.1 8.10001 22.5L5 57.5ZM47.5 47.3L46.5 27.3H48.4L47.5 47.3ZM91.9 57.5H91.4L88.2 22.5C89.2 22.2 90.1 21.8 90.9 21.4L91.9 57.5ZM94 16.4C94 20.1 76.6 25.3 48.2 25.3C19.8 25.3 2.39999 20.1 2.39999 16.4V14.8L2.60001 15L2.89999 15.2L3.20001 15.4L3.5 15.6L3.79999 15.8L4.20001 16L4.60001 16.2L5 16.4L5.39999 16.6L5.79999 16.8L6.20001 17L6.70001 17.2L7.20001 17.4L7.70001 17.6L8.20001 17.8L8.79999 18L9.29999 18.2L9.89999 18.4L10.5 18.6L11.1 18.8L11.7 18.9L12.3 19.1L12.9 19.2L13.6 19.4L14.2 19.5L14.9 19.6L15.5 19.7L16.2 19.8L16.9 19.9L17.7 20L18.4 20.1L19.2 20.2L19.9 20.3L20.7 20.4L21.5 20.5L22.3 20.6L23.1 20.7L23.9 20.8L24.7 20.9L25.6 21L26.4 21.1L27.3 21.2L28.2 21.3L29.1 21.4L30 21.5L30.9 21.6L31.8 21.7L32.7 21.8L33.7 21.9L34.6 22L35.6 22.1H36.4L37.4 22.2H38.3H39.3H40.2H41.2H42.1H43.2H44H45.2H50.8H52H52.8H54H54.8H56H56.9H58H58.8L59.9 22.1H60.7L61.8 22L62.6 21.9L63.6 21.8L64.4 21.7L65.4 21.6L66.2 21.5L67.2 21.4L68 21.3L69 21.2L69.8 21.1L70.7 21L71.5 20.9L72.4 20.8L73.2 20.7L74.1 20.6L74.9 20.5L75.7 20.4L76.4 20.3L77.2 20.2L77.9 20.1L78.7 20L79.4 19.9L80.2 19.8L80.8 19.7L81.5 19.6L82.1 19.5L82.8 19.4L83.4 19.3L84.1 19.1L84.7 18.9L85.3 18.7L85.9 18.5L86.5 18.3L87.1 18.1L87.7 17.9L88.2 17.7L88.7 17.5L89.2 17.3L89.7 17.1L90.2 16.9L90.7 16.7L91.1 16.5L91.5 16.3L91.9 16.1L92.3 15.9L92.7 15.7L93 15.5L93.3 15.3L93.6 15.1L93.9 14.9L94.1 14.7L94 16.4ZM48.2 2.49997C76.6 2.49997 94 7.69996 94 11.4C93.9 12.1 93.5 12.7 92.9 13.1C87.8 17.3 69 20.3 48.3 20.3C27.6 20.3 8.80001 17.3 3.70001 13.2C3.10001 12.8 2.70001 12.2 2.60001 11.5C2.50001 7.69997 19.9 2.49997 48.2 2.49997Z" fill="black"/>
</svg>