<svg xmlns="http://www.w3.org/2000/svg" fill="none" viewBox="0.7 0.9 62.6 68.3">
<path d="M32 56.4C14.7 56.4 0.699951 42.3 0.699951 25.1H3.49995C3.49995 40.8 16.3 53.6 32 53.6C47.7 53.6 60.5 40.8 60.5 25.1H63.3C63.4 42.4 49.2999 56.4 32 56.4ZM31.9999 49.3C18.6999 49.3 7.79993 38.4 7.79993 25.1C7.79993 11.8 18.6999 0.899963 31.9999 0.899963C45.2999 0.899963 56.1999 11.8 56.1999 25.1C56.1999 38.4 45.3999 49.3 31.9999 49.3ZM31.9999 3.69998C20.1999 3.69998 10.5999 13.3 10.5999 25.1C10.5999 36.9 20.1999 46.5 31.9999 46.5C43.7999 46.5 53.3999 36.9 53.3999 25.1C53.3999 13.3 43.7999 3.69998 31.9999 3.69998ZM19.1999 25.1H16.3999C16.3999 16.5 23.3999 9.39996 32.0999 9.39996V12.2C24.9999 12.3 19.1999 18 19.1999 25.1ZM58.2 29.9C55.5 29.9 53.2 27.7 53.2 24.9C53.2 22.2 55.4 19.9 58.2 19.9C60.9 19.9 63.2 22.1 63.2 24.9C63.2 27.7 61 29.9 58.2 29.9ZM58.2 22.8C57 22.8 56.1 23.8 56.1 24.9C56.1 26.1 57.1 27 58.2 27C59.4 27 60.3 26 60.3 24.9C60.4 23.8 59.4 22.8 58.2 22.8ZM5.69995 29.4C2.99995 29.4 0.699951 27.2 0.699951 24.4C0.699951 21.6 2.89995 19.4 5.69995 19.4C8.39995 19.4 10.6999 21.6 10.6999 24.4C10.6999 27.2 8.39995 29.4 5.69995 29.4ZM5.69995 22.2C4.49995 22.2 3.59995 23.2 3.59995 24.3C3.59995 25.4 4.59995 26.4 5.69995 26.4C6.79995 26.4 7.79995 25.4 7.79995 24.3C7.79995 23.2 6.89995 22.2 5.69995 22.2ZM40.8 69.2H23.2L21.6 53.7L24.5 53.4L25.8 66.4H38.3L39.6 53.4L42.4 53.7L40.8 69.2ZM47.6999 66.4H16.3999V69.2H47.6999V66.4Z" fill="black"/>
</svg>