<svg xmlns="http://www.w3.org/2000/svg" fill="none" viewBox="0 0.1 88.8 55.1">
<path d="M87.3 15.4H81.9C79.4 6.50002 71.2 0.0999756 61.8 0.0999756H44.4H27C17.6 0.0999756 9.39999 6.50002 6.89999 15.4H1.5C0.7 15.4 0 16.1 0 16.9V53.7C0 54.5 0.7 55.2 1.5 55.2H13.8H75H87.3C88.1 55.2 88.8 54.5 88.8 53.7V16.9C88.8 16.1 88.2 15.4 87.3 15.4ZM78.9 15.8C78.6 15.9 78.4 16 78.1 16.1C78 16.1 77.9 16.2 77.8 16.2C77.4 16.4 77 16.6 76.7 16.9C76.6 17 76.5 17 76.5 17.1C76.2 17.3 76 17.5 75.8 17.8C75.7 17.9 75.6 18 75.5 18.2C75.3 18.4 75.1 18.6 75 18.9C74.9 19 74.8 19.2 74.7 19.3C74.6 19.5 74.4 19.8 74.3 20C74.2 20.2 74.2 20.3 74.1 20.5C74 20.8 73.9 21.1 73.8 21.4C73.8 21.5 73.7 21.7 73.7 21.8C73.6 22.2 73.6 22.7 73.6 23.2V36.9H46V3.20001H61.8C69.6 3.10001 76.6 8.39999 78.9 15.8ZM27 3.09998H42.8V36.8H15.2V23.1C15.2 22.6 15.1 22.2 15.1 21.7C15.1 21.5 15 21.4 15 21.3C14.9 21 14.9 20.7 14.8 20.5C14.7 20.3 14.7 20.2 14.6 20C14.5 19.8 14.4 19.6 14.3 19.3C14.2 19.1 14.1 18.9 14 18.8C13.9 18.6 13.8 18.5 13.6 18.3C13.4 18.1 13.3 17.9 13.1 17.7C13 17.6 12.9 17.5 12.8 17.4C12 16.7 11.1 16.1 10.1 15.8C10 15.8 9.99999 15.8 9.89999 15.7C12.2 8.40001 19.1 3.09998 27 3.09998ZM3 18.5H7.5H7.89999C10.3 18.7 12.2 20.7 12.2 23.2V38.4V52.2H3V18.5ZM15.2 39.9H44.3H73.4V52.2H15.1V39.9H15.2ZM85.8 52.2H76.6V38.4V23.2C76.6 20.8 78.5 18.7 80.9 18.5H81.3H85.8V52.2Z" fill="black"/>
</svg>