<svg xmlns="http://www.w3.org/2000/svg" fill="none" viewBox="0.73 0.7 95.31 50.9">
<path d="M88.2001 12.3C87.1001 12.3 86 12.5 85 13V0.700012H11.2001V12.9C7.20006 11.4 2.70006 13.5 1.20006 17.5C-0.199943 21.4 1.60003 25.7 5.30003 27.4V47H9.50004V51.6H21V47H74.9V51.6H86.3V47H91.3V27.4C95.3 25.7 97.1 21.1 95.4 17.2C94.2 14.2 91.4001 12.3 88.2001 12.3ZM13.2001 2.70001H83V14.3C81.5 15.7 80.5 17.6 80.4 19.7V28.6H16.1001V19.6C16.0001 17.4 14.9001 15.4 13.2001 14V2.70001ZM80.4 30.6V36.1H16.1001V30.6H80.4ZM19 49.6H11.6001V47H19V49.6ZM84.2001 49.6H76.8V47H84.2001V49.6ZM90 25.7L89.3 25.9V45H7.40004V25.9L6.70006 25.7C3.60006 24.8 1.90003 21.5 2.80003 18.4C3.70003 15.3 7.00005 13.6 10.1001 14.5C12.4001 15.2 14.0001 17.3 14.2001 19.7V38.1H82.5V19.7C82.7 16.5 85.4001 14.1 88.6001 14.3C91.8001 14.5 94.2 17.2 94 20.4C93.9 22.9 92.2 25 90 25.7Z" fill="black"/>
</svg>