<svg xmlns="http://www.w3.org/2000/svg" fill="none" viewBox="0.58 0.3 79.82 79.7">
<path d="M76.0999 47.2H74.7V33C74.7 27.4 70.3 23 64.7 23H44.8C39.2 23 34.8 27.4 34.8 33V47.2H33.4C31.1 47.2 29.1 49.1 29.1 51.5V71.4C29.1 73.8 31.1 75.7 33.4 75.7H34.8C34.8 78.1 36.8 80 39.1 80H41.9C44.3 80 46.2 78.1 46.2 75.7H63.3C63.3 78.1 65.1999 80 67.5999 80H70.4C72.8 80 74.7 78.1 74.7 75.7H76.0999C78.4999 75.7 80.4 73.8 80.4 71.4V51.5C80.3 49 78.4999 47.2 76.0999 47.2ZM37.6 32.9C37.6 28.9 40.7 25.8 44.7 25.8H64.5999C68.5999 25.8 71.7 28.9 71.7 32.9V47.1C69.3 47.1 67.4 49 67.4 51.4V53.5C66.5 53.1 65.4999 52.8 64.5999 52.8H44.7C43.7 52.8 42.7 53.1 41.9 53.5V51.4C41.9 49 39.9 47.1 37.6 47.1V32.9ZM67.5 58.5V64.2H41.9V58.5C41.9 56.9 43.2 55.7 44.7 55.7H64.5999C66.2999 55.7 67.5 57 67.5 58.5ZM33.4 72.8C32.7 72.8 32 72.1 32 71.4V51.5C32 50.8 32.7 50.1 33.4 50.1H37.7C38.4 50.1 39.1 50.8 39.1 51.5V71.4C39.1 72.1 38.4 72.8 37.7 72.8H33.4ZM41.9 77.1H39.1C38.4 77.1 37.7 76.4 37.7 75.7C38.7 75.7 39.8 75.3 40.5 74.6C41.2 75.3 42.4 75.7 43.3 75.7C43.3 76.3 42.6 77.1 41.9 77.1ZM43.3 72.8C42.6 72.8 41.9 72.1 41.9 71.4V67.1H67.5V71.4C67.5 72.1 66.7999 72.8 66.0999 72.8H43.3ZM70.4 77.1H67.5999C66.8999 77.1 66.2 76.4 66.2 75.7C67.2 75.7 68.3 75.3 69 74.6C69.7 75.3 70.9 75.7 71.8 75.7C71.8 76.3 71.1 77.1 70.4 77.1ZM77.5 71.4C77.5 72.1 76.7999 72.8 76.0999 72.8H71.8C71.1 72.8 70.4 72.1 70.4 71.4V51.5C70.4 50.8 71.1 50.1 71.8 50.1H76.0999C76.7999 50.1 77.5 50.8 77.5 51.5V71.4ZM43 40C43.3 40 49 41.4 54.7 41.4C60.4 41.4 66.2 40 66.4 40C67.1 39.9 67.7 39 67.4 38.3C67.1 37.6 66.4 37 65.7 37.3C65.7 37.3 60.1 38.7 54.6 38.7C49.1 38.7 43.6 37.3 43.5 37.3C42.8 37.2 41.9 37.6 41.8 38.3C41.8 39 42.2 39.8 43 40ZM19.1 28.7H24.8C28.8 28.4 31.2 26.1 30.5 21.3L27.7 7.09999C27.1 4.49999 26.3 0.299988 22 0.299988H9.20003C4.90003 0.299988 4.10001 4.59999 3.50001 7.09999L0.700025 21.3C2.51159e-05 26.1 2.40001 28.4 6.40001 28.7H12.1V70C12.1 71.6 10.8 72.8 9.3 72.8H7.90001C5.50001 72.8 3.60002 74.7 3.60002 77.1V78.5C3.60002 79.2 4.20001 79.9 5.00001 79.9H26.4C27.1 79.9 27.8 79.2 27.8 78.5V77.1C27.8 74.7 25.8 72.8 23.5 72.8H22C20.4 72.8 19.2 71.5 19.2 70V28.7H19.1ZM22 75.6H23.4C24.1 75.6 24.8 76.3 24.8 77H6.3C6.3 76.3 6.90003 75.6 7.70003 75.6H9.10002C12.2 75.6 14.8 73 14.8 69.9H16.2C16.3 73.1 18.8 75.6 22 75.6ZM14.9 67.1V28.7H16.3V67.1H14.9ZM6.3 25.8C4 25.8 3.00001 24.1 3.50001 21.8L6.3 7.59999C7 3.79999 7.90002 2.99998 9.10002 2.99998H22C23.3 2.99998 24.1 3.69999 24.8 7.59999L27.6 21.8C28 24.1 27 25.8 24.8 25.8H6.3Z" fill="black"/>
</svg>