<svg xmlns="http://www.w3.org/2000/svg" fill="none" viewBox="0.68 0.6 92.89 79">
<path d="M8.40003 41.6V71.4C8.40003 72 8.80003 72.4 9.40003 72.4H15V74.6C15 77.4 17.2 79.6 20 79.6H26.8C29.6 79.6 31.8 77.4 31.8 74.6V72.4H61.3V74.6C61.3 77.4 63.5 79.6 66.3 79.6H73.1C75.9 79.6 78.1 77.4 78.1 74.6V72.4H85C85.6 72.4 86 72 86 71.4V41.6C92.1 39.3 95.1 32.5 92.8 26.5C90.5 20.4 83.7 17.4 77.7 19.7C77.2 19.9 76.7 20.1 76.2 20.4V1.59998C76.2 0.999976 75.8 0.599976 75.2 0.599976H18.8C18.2 0.599976 17.8 0.999976 17.8 1.59998V20.2C12 17.2 4.90002 19.5 2.00002 25.3C-0.999976 31.1 1.30002 38.2 7.10002 41.1C7.50002 41.3 8.00003 41.5 8.40003 41.6ZM29.9 74.6C29.9 76.3 28.6 77.6 26.9 77.6H20.1C18.4 77.6 17.1 76.3 17.1 74.6V72.4H29.9V74.6ZM76.2 74.6C76.2 76.3 74.9 77.6 73.2 77.6H66.4C64.7 77.6 63.4 76.3 63.4 74.6V72.4H76.3L76.2 74.6ZM19.8 2.5H74.3V21.7C71.9 23.8 70.4 26.8 70.2 30V44.6H24.3V29.9C24.1 26.5 22.4 23.4 19.8 21.3V2.5ZM70.2 46.6V56.5H24.3V46.6H70.2ZM12.6 20.9C17.7 20.9 22 24.9 22.3 30V57.5C22.3 58.1 22.7 58.5 23.3 58.5H71.2C71.8 58.5 72.2 58.1 72.2 57.5V30C72.5 24.6 77.1 20.5 82.5 20.8C87.9 21.1 92 25.7 91.7 31.1C91.5 35.2 88.7 38.7 84.8 39.8C84.4 39.9 84.1 40.3 84.1 40.8V70.3H10.4V40.8C10.4 40.3 10.1 39.9 9.70003 39.8C4.50003 38.2 1.60003 32.8 3.20003 27.6C4.50003 23.6 8.30002 20.8 12.6 20.9Z" fill="black"/>
</svg>