<svg xmlns="http://www.w3.org/2000/svg" fill="none" viewBox="0.4 0 65.7 65.5">
    <path
        d="M17.4 59.4H8.90002C6.90002 59.4 5.30002 57.8 5.30002 55.8V41.1C2.50002 40.5 0.400024 38 0.400024 35.2V30.3C0.400024 26.9 3.10003 24.2 6.50003 24.2H11.4C14.8 24.2 17.5 26.9 17.5 30.3V59.4H17.4ZM6.50003 26.6C4.50003 26.6 2.90002 28.2 2.90002 30.2V35.1C2.90002 37.1 4.50003 38.7 6.50003 38.7H7.70004V55.7C7.70004 56.4 8.20002 56.9 8.90002 56.9H15V30.2C15 28.2 13.4 26.6 11.4 26.6H6.50003ZM57.5 59.4H49V30.3C49 26.9 51.7 24.2 55.1 24.2H60C63.4 24.2 66.1 26.9 66.1 30.3V35.2C66.1 38.1 64.1 40.6 61.2 41.1V55.8C61.1 57.8 59.5 59.4 57.5 59.4ZM51.4 57H57.5C58.2 57 58.7 56.5 58.7 55.8V38.8H59.9C61.9 38.8 63.5 37.2 63.5 35.2V30.3C63.5 28.3 61.9 26.7 59.9 26.7H55C53 26.7 51.4 28.3 51.4 30.3V57ZM51.4 59.4H15V42.4H17.4C17.4 43.1 17.9 43.6 18.6 43.6H47.7C48.4 43.6 48.9 43.1 48.9 42.4H51.3V59.4H51.4ZM17.4 57H49V45.9C48.6 46 48.2 46.1 47.8 46.1H18.7C18.3 46.1 17.9 46 17.5 45.9V57H17.4ZM47.8 46H18.7C16.7 46 15.1 44.4 15.1 42.4V40C15.1 36.6 17.8 33.9 21.2 33.9H45.5C48.9 33.9 51.6 36.6 51.6 40V42.4C51.4 44.4 49.8 46 47.8 46ZM21.1 36.3C19.1 36.3 17.5 37.9 17.5 39.9V42.3C17.5 43 18 43.5 18.7 43.5H47.8C48.5 43.5 49 43 49 42.3V40C49 38 47.4001 36.4 45.4001 36.4H21.1V36.3ZM51.4 40H49C49 38 47.4 36.4 45.4 36.4H21.1C19.1 36.4 17.5 38 17.5 40H15V30.3C15 28.3 13.4 26.7 11.4 26.7H9V18.2C9 8.10001 17.2 0 27.2 0H39.3C49.4 0 57.5 8.20001 57.5 18.2V26.7H55.1C53.1 26.7 51.5 28.3 51.5 30.3V40H51.4ZM21.1 33.9H45.4C46.7 33.9 48 34.3 49 35.1V30.2C49 26.8 51.7 24.1 55.1 24.1V18C55.1 9.3 48 2.20001 39.3 2.20001H27.2C18.5 2.20001 11.4 9.3 11.4 18V24.1C14.8 24.1 17.5 26.8 17.5 30.2V35.1C18.5 34.3 19.8 33.9 21.1 33.9ZM27.7 15.7C28.6942 15.7 29.5 14.8941 29.5 13.9C29.5 12.9059 28.6942 12.1 27.7 12.1C26.7059 12.1 25.9 12.9059 25.9 13.9C25.9 14.8941 26.7059 15.7 27.7 15.7ZM38.7 15.7C39.6942 15.7 40.5 14.8941 40.5 13.9C40.5 12.9059 39.6942 12.1 38.7 12.1C37.7059 12.1 36.9 12.9059 36.9 13.9C36.9 14.8941 37.7059 15.7 38.7 15.7ZM27.7 26.6C28.6942 26.6 29.5 25.7941 29.5 24.8C29.5 23.8059 28.6942 23 27.7 23C26.7059 23 25.9 23.8059 25.9 24.8C25.9 25.7941 26.7059 26.6 27.7 26.6ZM38.7 26.6C39.6942 26.6 40.5 25.7941 40.5 24.8C40.5 23.8059 39.6942 23 38.7 23C37.7059 23 36.9 23.8059 36.9 24.8C36.9 25.7941 37.7059 26.6 38.7 26.6ZM15 65.5H11.4C10.1 65.5 9 64.4 9 63.1V57H17.5V63.1C17.4 64.4 16.3 65.5 15 65.5ZM11.4 59.4V63H15V59.4H11.4ZM55.1 65.5H51.5C50.2 65.5 49.1 64.4 49.1 63.1V57H57.6V63.1C57.5 64.4 56.4 65.5 55.1 65.5ZM51.4 59.4V63H55V59.4H51.4Z"
        fill="black" />
</svg>