<svg xmlns="http://www.w3.org/2000/svg" fill="none" viewBox="0.8 0.5 75.3 75.3">
<path d="M41.3 15.6C41.5 15.6 41.8 15.5 42 15.3L49.8 7.50001C50.2 7.10001 50.2 6.60002 49.8 6.20002C49.4 5.80002 48.9 5.80002 48.5 6.20002L40.7 14C40.3 14.4 40.3 14.9 40.7 15.3C40.8 15.6 41 15.6 41.3 15.6ZM48.4 21.9C48 22.3 48 22.8 48.4 23.2C48.6 23.4 48.9 23.5 49.1 23.5C49.3 23.5 49.6 23.4 49.8 23.2L57.6 15.4C58 15 58 14.5 57.6 14.1C57.2 13.7 56.7 13.7 56.3 14.1L48.4 21.9ZM42 21.9C42.2 22.1 42.5 22.2 42.7 22.2C42.9 22.2 43.2 22.1 43.4 21.9L56.4 8.90004C56.8 8.50004 56.8 7.99999 56.4 7.59999C56 7.19999 55.4999 7.19999 55.0999 7.59999L42.1 20.5C41.6 20.9 41.6 21.5 42 21.9ZM75.2 34.5H68.8V1.40002C68.7 0.900024 68.3 0.5 67.8 0.5H9.10001C8.60001 0.5 8.20001 0.900024 8.20001 1.40002V34.5H1.70001C1.20001 34.5 0.799988 34.9 0.799988 35.4V69.4V74.9C0.799988 75.4 1.20001 75.8 1.70001 75.8H75.2C75.7 75.8 76.1 75.4 76.1 74.9V69.4V58V46.7V35.4C76.1 34.9 75.8 34.5 75.2 34.5ZM74.3 57.1H39.4V47.6H74.3V57.1ZM39.4 58.9H74.3V68.4H39.4V58.9ZM74.3 45.8H39.4V36.3H67.9H74.3V45.8ZM10 2.29999H67V34.5H38.5H10V2.29999ZM2.60001 36.4H9.10001H37.6V46.8V58V68.4H2.70001V36.4H2.60001ZM74.3 74H2.60001V70.3H38.4H74.2V74H74.3ZM61.5 38.2H52.3C51.8 38.2 51.4 38.6 51.4 39.1C51.4 39.6 51.8 40 52.3 40H61.5C62 40 62.4 39.6 62.4 39.1C62.4 38.6 62 38.2 61.5 38.2ZM31.1 40C30.6 40 30.2 40.4 30.2 40.9V55.6C30.2 56.1 30.6 56.5 31.1 56.5C31.6 56.5 32 56.1 32 55.6V41C32.1 40.4 31.6 40 31.1 40ZM52.3 51H61.5C62 51 62.4 50.6 62.4 50.1C62.4 49.6 62 49.2 61.5 49.2H52.3C51.8 49.2 51.4 49.6 51.4 50.1C51.4 50.6 51.7 51 52.3 51ZM61.5 60.2H52.3C51.8 60.2 51.4 60.6 51.4 61.1C51.4 61.6 51.8 62 52.3 62H61.5C62 62 62.4 61.6 62.4 61.1C62.4 60.6 62 60.2 61.5 60.2Z" fill="black"/>
</svg>