<svg xmlns="http://www.w3.org/2000/svg" fill="none" viewBox="0.5 0.6 82.1 64.2">
<path d="M2.1 10.6H4.5V49C4.5 49.9 5.2 50.6 6.1 50.6H9.2V63.2C9.2 64.1 9.9 64.8 10.8 64.8H14.7C15.4 64.8 16.1 64.3 16.3 63.6L19.1 50.7H63.1L65.9 63.6C66.1 64.3 66.7 64.8 67.5 64.8H71.4C72.3 64.8 73 64.1 73 63.2V50.6H77.1C78 50.6 78.7 49.9 78.7 49V10.6H81C81.9 10.6 82.6 9.9 82.6 9V2.20001C82.6 1.30001 81.9 0.599976 81 0.599976H2.1C1.2 0.599976 0.5 1.30001 0.5 2.20001V9C0.6 9.9 1.3 10.6 2.1 10.6ZM75.3 10.6V17.5H43.3V10.5L75.3 10.6ZM39.6 17.5H7.6V10.5H39.6V17.5ZM7.6 20.6H39.6V47.4H7.6V20.6ZM13.4 61.5H12.3V50.5H15.8L13.4 61.5ZM69.6 61.6H68.5L66.1 50.6H69.6V61.6ZM71.2 47.4H43.3V20.6H75.3V47.4H71.2ZM3.7 3.79999H79.6V7.5H3.7V3.79999Z" fill="black"/>
</svg>