<svg xmlns="http://www.w3.org/2000/svg" fill="none" viewBox="0.33 0.56 76.05 86.64">
<path fill-rule="evenodd" clip-rule="evenodd" d="M20.1 84.6V42.6H17.5C15.8 42.6 15.8 40 17.5 40H28V38.7C28 34.5 30.9 30.9 34.8 29.8L27.3 20C26.7 20.2 26.1 20.3 25.4 20.3C21.8 20.3 18.8 17.4 18.8 13.7C18.8 9.99996 21.7 7.09997 25.4 7.09997C27.1 7.09997 28.7 7.79996 29.9 8.89996L44.4 0.699963C45 0.399963 45.8 0.599963 46.2 1.19996L50.1 7.79997C54.3 6.09997 59.2 7.69996 61.5 11.7L62.8 14C63.2 14.6 62.9 15.4 62.3 15.8L48.7 23.7C48.1 24.1 47.3 23.8 46.9 23.2L45.6 20.9C43.3 16.9 44.3 11.9 47.8 9.09997L44.5 3.69996L31.3 11.1C31.6 11.9 31.8 12.8 31.8 13.7C31.8 14.4 31.7 15 31.5 15.7C31.1 16.9 30.4 18 29.4 18.8L37.7 29.5C42.5 29.8 46.2 33.8 46.2 38.7V40H59.3C61 40 61 42.6 59.3 42.6H56.7V84.6H75.1C76.8 84.6 76.8 87.2 75.1 87.2H1.60001C-0.0999877 87.2 -0.0999877 84.6 1.60001 84.6H20.1ZM25.3 17.7C27.5 17.7 29.2 15.9 29.2 13.8C29.2 11.6 27.4 9.89996 25.3 9.89996C23.1 9.89996 21.4 11.7 21.4 13.8C21.4 15.9 23.2 17.7 25.3 17.7ZM59.2 13C57.4 9.89997 53.4 8.79997 50.2 10.6C47.1 12.4 46 16.4 47.8 19.6L48.5 20.7L59.9 14.1L59.2 13ZM43.7 38.7C43.7 35.1 40.8 32.1 37.1 32.1C33.5 32.1 30.5 35 30.5 38.7V40H43.6V38.7H43.7ZM22.7 84.6H54.2V61H22.7V84.6ZM22.7 58.3H54.2V42.6H22.7V58.3ZM35.8 51.8C35.1 51.8 34.5 51.2 34.5 50.5C34.5 49.8 35.1 49.2 35.8 49.2H41C41.7 49.2 42.3 49.8 42.3 50.5C42.3 51.2 41.7 51.8 41 51.8H35.8Z" fill="black"/>
</svg>