<?xml version="1.0" encoding="iso-8859-1"?>
<!-- Uploaded to: SVG Repo, www.svgrepo.com, Generator: SVG Repo Mixer Tools -->
<svg fill="#000000" height="500px" width="500px" version="1.1" id="Layer_1" xmlns="http://www.w3.org/2000/svg"
	xmlns:xlink="http://www.w3.org/1999/xlink" viewBox="0 0 500 500" xml:space="preserve">
	<g>
		<polygon style="fill: #f7f5f2;"
			points="213.750 66.000, 200.898 69.250, 195.250 69.199, 192.750 69.449, 192.051 70.449, 190.500 70.301, 187.949 68.602, 186.648 68.148, 184.148 66.602, 182.500 67.801, 181.500 69.500, 180.500 71.051, 181.051 73.602, 180.949 75.051, 180.898 76.102, 180.500 77.250, 179.199 80.199, 181.000 82.500, 180.551 83.852, 177.301 84.449, 174.949 84.551, 173.148 84.000, 175.602 87.801, 174.801 90.199, 172.301 91.500, 172.199 93.000, 173.801 96.102, 171.250 100.051, 168.352 100.000, 166.500 101.398, 165.352 102.551, 163.648 102.000, 162.551 103.852, 162.949 106.750, 162.750 109.000, 161.301 115.199, 161.500 121.250, 162.500 123.648, 163.449 125.000, 165.199 127.250, 165.352 128.449, 166.102 132.301, 164.949 136.648, 164.500 139.500, 165.852 140.352, 166.699 141.602, 165.051 141.852, 161.352 144.852, 162.301 146.500, 161.449 150.148, 157.398 152.352, 152.000 153.949, 155.301 155.500, 157.699 157.051, 158.000 159.750, 160.898 161.750, 164.250 163.051, 170.699 159.199, 174.852 155.199, 172.000 162.102, 166.949 177.500, 165.551 190.801, 165.000 203.301, 163.199 212.648, 162.602 215.398, 167.199 216.250, 169.000 212.301, 169.449 208.852, 170.898 206.500, 171.949 202.148, 173.551 196.699, 173.852 194.148, 173.500 190.000, 173.949 189.148, 175.398 192.398, 176.750 193.750, 176.898 192.000, 177.301 189.102, 178.301 188.551, 179.551 190.398, 180.699 191.051, 181.699 191.602, 182.000 192.750, 182.949 191.648, 184.449 187.551, 186.000 185.148, 186.801 186.699, 187.199 185.301, 189.199 186.250, 188.699 188.500, 186.352 188.949, 185.648 197.051, 188.551 202.250, 189.500 203.250, 185.500 214.102, 181.199 226.000, 179.699 229.500, 178.551 230.602, 179.898 237.500, 183.801 242.699, 185.148 244.898, 185.500 243.648, 184.250 240.602, 187.148 237.500, 193.449 240.250, 197.500 243.000, 198.500 240.750, 197.699 237.250, 196.898 236.000, 199.648 236.148, 202.699 237.301, 205.199 238.352, 206.551 238.648, 209.199 238.750, 211.000 237.250, 217.898 235.301, 225.398 233.602, 226.000 234.199, 224.750 235.000, 221.699 238.750, 218.500 244.199, 217.699 246.949, 217.301 249.750, 219.449 254.051, 222.449 259.449, 225.551 264.000, 226.250 262.949, 227.148 262.449, 227.051 264.801, 227.250 267.801, 230.000 266.449, 231.000 264.500, 233.500 266.051, 235.648 269.699, 235.250 272.398, 233.602 274.898, 231.000 279.398, 233.801 283.500, 233.551 285.301, 231.000 288.250, 229.949 289.949, 231.051 293.102, 233.648 297.852, 234.051 299.500, 232.199 297.852, 229.750 296.699, 228.500 299.000, 225.250 300.000, 221.852 300.301, 213.148 301.051, 211.352 301.000, 209.398 302.551, 200.602 308.148, 193.352 315.949, 188.801 321.250, 191.250 321.602, 194.250 322.000, 195.000 322.051, 202.352 322.301, 204.250 332.602, 204.551 338.449, 198.949 342.852, 189.250 350.500, 183.148 353.699, 180.750 354.551, 177.898 356.852, 176.852 359.102, 180.000 360.648, 178.750 363.148, 178.551 365.750, 180.648 367.148, 180.898 367.500, 181.500 368.250, 192.750 369.051, 203.000 368.352, 204.750 368.750, 202.750 369.000, 200.602 370.301, 203.051 372.102, 205.750 371.500, 207.500 370.750, 211.750 370.699, 213.500 372.301, 219.852 377.801, 228.148 377.398, 232.750 374.250, 239.500 370.000, 243.000 367.750, 233.602 378.949, 231.199 381.648, 221.199 383.051, 210.000 384.949, 206.250 385.750, 202.000 388.699, 198.852 391.648, 195.250 393.500, 187.500 403.852, 175.148 418.301, 163.852 429.500, 165.602 430.352, 167.898 430.449, 172.398 429.898, 176.602 431.801, 181.250 430.449, 188.602 424.852, 193.898 420.949, 203.551 423.051, 213.398 424.551, 214.551 424.000, 216.301 422.250, 218.500 419.398, 219.199 417.102, 219.148 415.102, 219.648 413.602, 220.102 411.852, 221.199 409.352, 222.250 408.500, 223.852 408.602, 245.301 410.250, 246.148 409.949, 252.449 409.148, 258.699 409.051, 266.148 405.801, 273.301 403.000, 279.352 403.000, 285.750 403.500, 288.102 403.398, 297.648 402.301, 310.000 402.750, 314.148 402.602, 316.398 401.500, 322.301 398.949, 328.750 396.602, 330.699 395.500, 334.051 392.500, 337.949 390.148, 340.199 388.352, 341.250 382.750, 341.949 380.301, 343.000 378.898, 336.398 378.949, 334.500 378.949, 333.949 378.500, 329.148 377.199, 324.898 375.852, 327.500 373.250, 330.301 369.199, 331.000 365.051, 331.500 362.102, 332.250 362.500, 337.352 361.398, 337.500 359.500, 337.602 357.648, 337.852 356.500, 337.852 355.500, 339.102 355.500, 342.250 353.801, 343.801 352.000, 347.051 346.199, 348.949 340.648, 350.301 333.898, 343.602 319.602, 341.500 317.199, 339.102 316.500, 335.000 315.949, 319.750 316.000, 315.801 314.301, 312.602 311.949, 313.750 310.801, 315.301 308.199, 309.801 294.199, 308.000 292.000, 304.801 289.602, 302.352 286.699, 310.352 287.801, 307.801 278.199, 305.000 267.898, 300.199 261.648, 294.551 254.949, 284.000 244.352, 274.250 235.102, 270.602 221.699, 264.398 203.602, 263.000 202.449, 262.352 202.000, 258.500 197.000, 251.801 190.000, 248.000 188.250, 244.148 186.500, 243.000 186.000, 242.000 184.500, 236.602 184.301, 230.898 184.500, 226.801 183.500, 228.500 182.148, 234.148 179.250, 239.051 177.250, 240.250 176.102, 241.699 172.801, 240.199 172.000, 238.051 171.250, 236.750 168.250, 239.898 164.398, 245.750 157.301, 250.551 149.051, 252.500 145.801, 258.102 132.102, 262.898 118.449, 261.699 115.750, 259.750 112.051, 254.148 110.398, 245.000 110.301, 232.199 109.250, 220.648 108.449, 213.949 111.551, 204.898 115.852, 203.199 115.500, 204.949 113.801, 206.199 111.750, 204.602 110.898, 202.250 111.051, 204.000 109.551, 207.250 108.852, 209.949 106.648, 212.199 99.250, 212.301 94.801, 217.250 90.148, 226.352 81.898, 230.449 76.648, 231.000 74.750, 230.398 73.398, 230.199 68.949, 229.148 65.398, 225.648 65.449, 223.898 64.500, 222.750 63.551, 213.750 66.000">
		</polygon>
	</g>
</svg>