<?xml version="1.0" encoding="iso-8859-1"?>
<!-- Uploaded to: SVG Repo, www.svgrepo.com, Generator: SVG Repo Mixer Tools -->
<svg fill="#000000" height="800px" width="800px" version="1.1" id="Layer_1" xmlns="http://www.w3.org/2000/svg"
	xmlns:xlink="http://www.w3.org/1999/xlink" viewBox="0 0 512 512" xml:space="preserve">
	<g>
		<path
			d="M384.42,200.223v-50.953l-127.58,50.953v-50.953l-127.58,50.953v-43.712v-30.417v-50.7h-129.26v50.699v30.417v280.095h512v-287.335l-127.58,50.953zm-354.003,-94.412h68.426v20.282h-68.426v-20.282zm451.166,300.378l0,0h-451.166v-249.678h68.426v88.613l127.58,-50.953v50.953l127.58,-50.953v50.953l127.58,-50.953v212.018zm-382.739,-123.697v80.163h80.164v-80.163h-80.164zm49.747,49.747h-19.33v-19.329h19.33v19.329zm77.832,-49.747v80.163h80.165v-80.163h-80.165zm49.748,49.747h-19.33v-19.329h19.33v19.329zm77.832,-49.747v80.163h80.164v-80.163h-80.164zm49.747,49.747h-19.33v-19.329h19.33v19.329z" />
	</g>
</svg>