<svg width="369" height="260" viewBox="0 0 369 260" fill="none" xmlns="http://www.w3.org/2000/svg">
<path d="M21.8943 21.8942H71.1476V36.4932H21.8943V21.8942ZM346.645 238.107H21.8943V58.3881H71.1476V122.172L162.98 85.4958V122.172L254.813 85.4958V122.172L346.645 85.4958V238.107ZM71.1483 149.069V206.771H128.851V149.069H71.1483ZM106.956 184.877H93.0425V170.964H106.956V184.877ZM162.98 149.069V206.771H220.683V149.069H162.98ZM198.789 184.877H184.875V170.964H198.789V184.877ZM254.813 149.069V206.771H312.515V149.069H254.813ZM290.621 184.877H276.707V170.964H290.621V184.877Z" fill="white"/>
<path d="M276.707 89.852V53.176L184.874 89.852V53.176L93.0418 89.852V58.3881V36.4939V0H0V36.4932V58.3874V260H368.539V53.176L276.707 89.852ZM21.8943 21.8942H71.1475V36.4932H21.8943V21.8942ZM346.645 238.107H21.8943V58.3881H71.1475V122.172L162.98 85.4958V122.172L254.813 85.4958V122.172L346.645 85.4958V238.107ZM71.1483 149.069V206.771H128.851V149.069H71.1483ZM106.956 184.877H93.0425V170.964H106.956V184.877ZM162.98 149.069V206.771H220.683V149.069H162.98ZM198.789 184.877H184.875V170.964H198.789V184.877ZM254.813 149.069V206.771H312.515V149.069H254.813ZM290.621 184.877H276.707V170.964H290.621V184.877Z" fill="black"/>
<path fill-rule="evenodd" clip-rule="evenodd" d="M275.707 91.3282V54.6522L183.874 91.3282V54.6522L92.0418 91.3282V1H1V259H367.539V54.6522L275.707 91.3282ZM368.539 53.176V260H0V0H93.0418V89.852L184.874 53.176V89.852L276.707 53.176V89.852L368.539 53.176ZM20.8943 20.8942H72.1475V37.4932H20.8943V20.8942ZM347.645 239.107H20.8943V57.3881H72.1475V120.696L163.98 84.0196V120.696L255.813 84.0196V120.696L347.645 84.0196V239.107ZM254.813 122.172V85.4958L162.98 122.172V85.4958L71.1475 122.172V58.3881H21.8943V238.107H346.645V85.4958L254.813 122.172ZM107.956 185.877H92.0425V169.964H107.956V185.877ZM199.789 185.877H183.875V169.964H199.789V185.877ZM291.621 185.877H275.707V169.964H291.621V185.877ZM71.1483 206.771V149.069H128.851V206.771H71.1483ZM127.851 205.771V150.069H72.1483V205.771H127.851ZM162.98 206.771V149.069H220.683V206.771H162.98ZM219.683 205.771V150.069H163.98V205.771H219.683ZM254.813 206.771V149.069H312.515V206.771H254.813ZM311.515 205.771V150.069H255.813V205.771H311.515ZM21.8943 21.8942V36.4932H71.1475V21.8942H21.8943ZM106.956 184.877V170.964H93.0425V184.877H106.956ZM198.789 184.877V170.964H184.875V184.877H198.789ZM290.621 184.877V170.964H276.707V184.877H290.621Z" fill="white"/>
</svg>
