<?xml version="1.0" encoding="iso-8859-1"?>
<!-- Uploaded to: SVG Repo, www.svgrepo.com, Generator: SVG Repo Mixer Tools -->
<svg fill="#000000" height="800px" width="800px" version="1.1" id="Layer_1" xmlns="http://www.w3.org/2000/svg"
	xmlns:xlink="http://www.w3.org/1999/xlink" viewBox="0 0 512 512" xml:space="preserve">
	<g>
		<polygon transform="translate(0,0) scale(0.25)" style="fill: #f7f5f2;"
			points="831.0477008607052,224.0505040935701 819.663944610845,228.82263401874474 832.3807022681439,258.09731445504633 836.0688910955322,276.2932579176966 850.0297193168296,297.0091405860874 852.5570409588438,308.4113551432803 824.8082040729855,342.65237036766877 820.9247166215157,354.7152088927738 807.7539448254593,360.2749068367685 801.0222646876242,377.2538700217341 775.5939812794943,406.2617586319069 768.5223925773944,435.75239627105134 777.717413188567,458.59373377905234 796.1623235439755,483.5854389000285 792.6831005620927,486.7589779858488 812.7130521602778,517.0258029922165 816.0159804605674,540.917704121709 812.748596000197,557.071615487506 799.4615429522955,561.7878201860278 784.442724856896,545.7448317998287 773.548785166917,527.0585807892435 754.7111508426715,507.5264495790511 754.4285481125778,483.2727093832397 723.0492317194382,460.1435862467424 699.0856958278553,473.1588247342749 679.4188865386935,457.1496123774734 652.1344907329463,466.0633691193218 628.2318622089247,464.86697805557617 598.0858758150215,472.5432004901626 617.3549886005336,479.11464605158693 603.8306302404064,497.12589707997176 581.9433927441846,494.24289848721884 571.2721175225793,482.68305301967774 566.9008235971182,488.42066521968803 543.237391059355,485.2035242374244 511.6838027554917,495.5939267377633 497.8131244531239,510.2832110094424 465.66889695462623,526.4385100370437 459.1734233031835,554.7001285661859 461.7505643896727,576.5169327753424 427.2674323669584,563.5987482317574 415.4837186012793,535.4584696506029 397.0383821143932,501.9852456856511 381.92745565491623,486.2897620738937 364.92501031766966,483.32010046262525 344.7592525480623,502.5141276083166 321.57899836558784,486.3004200043096 315.9626723677585,465.63443683101536 286.7872821642818,435.17522472467476 254.13163511632678,431.718085048635 252.26347780577834,441.827475776092 198.41237186598352,435.1847703541232 132.30221648210164,397.95077133333723 133.5576469371262,393.0751165757153 88.60229599927362,388.4342269509092 85.43085052952512,369.1325033584108 69.71322733701248,349.413668963518 52.7380821715937,336.68251551467847 34.34192904895929,329.03333602295635 37.473259958928,316.13747181180423 21.946686366465997,284.8862860679384 19.439384931986353,248.25155253189357 5.682086174885967,218.18031971003927 9.242173901899491,198.24925034373257 3.5451626940600818,185.46417251437927 15.436397190598825,162.19598259923768 16.548191923406307,128.3111734433512 27.644281345897923,111.55291843700962 43.157974098427474,73.62811457438906 47.34608247381567,53.385851409301495 50.090952858386174,7.510411218797913 75.25134049724284,21.251350294477277 78.26535032265798,38.12320393007758 83.31612046160183,25.47162199984058 81.10294023096156,1.6659488625926997 114.56404529607386,10.151534369319961 192.4241897349541,26.627702697706297 254.6390111801027,36.5893502793009 313.7797669742464,43.480581388793496 403.1259588948054,49.20392574116764 492.50449850273014,49.34028318907363 514.0624181105259,59.09144150522991 531.175102241143,57.77953856992602 547.9781927196279,67.77241036312435 557.8999615993437,63.008847460656625 582.4304052958367,66.6152013864345 596.3133814432276,57.820346518606215 665.2511052636089,89.26294985774916 670.2548210842934,99.50776793481987 695.7088380313253,113.4299226844249 708.0328142008784,150.1227301228892 699.4673521596544,192.2263308282579 710.4064521968278,194.6250277292134 727.644614379753,179.14985250190256 762.0306683136075,158.90241338691382 756.6339317737009,144.632427476019 763.5620819898795,139.2692118170132 793.4461640634265,132.80562312467256 810.6075294526083,100.95513868943507 818.9758988594624,94.68060202943693 869.0555027321998,81.02797005405858 882.0684264106327,56.40272070115981 880.8331267662631,37.62345904908938 886.905051978127,18.275251132191443 911.1940235097356,19.973420711305835 920.5945471338543,48.56586580306529 935.9200494967137,58.29335080390297 937.5162236346373,68.06715124228651 916.0823848795977,82.49531493991563 899.8805267700584,98.73686277123588 893.2952550385836,124.26349228453799 894.1850982016938,138.51566349470303 907.3131211932159,147.50403922276035 892.0625686297565,160.78070169930285 858.9583578806355,178.39341881975895 851.818966987884,193.00192355610466 858.1536818347804,195.6292246280035 855.7412479768869,218.22976749945042 836.6479768444075,220.5917162613174 849.8545218035568,243.78326475865106 841.7905513460836,274.00975503603655 842.6369617732021,254.49534713658716 828.6639182250452,246.02400101545405">
		</polygon>
	</g>
</svg>